<svg width="78" height="77" viewBox="0 0 78 77" fill="none" xmlns="http://www.w3.org/2000/svg">
<path d="M32.3516 51.3714H45.1114C47.2256 51.3714 48.9394 49.6576 48.9394 47.5434V36.0596C48.9394 33.9455 47.2256 32.2317 45.1114 32.2317V29.6797C45.1114 26.1562 42.2551 23.2998 38.7315 23.2998C35.208 23.2998 32.3516 26.1562 32.3516 29.6797V32.2317C30.2375 32.2317 28.5237 33.9455 28.5237 36.0596V47.5434C28.5237 49.6576 30.2375 51.3714 32.3516 51.3714ZM34.9036 29.6797C34.9036 27.5656 36.6174 25.8518 38.7315 25.8518C40.8456 25.8518 42.5595 27.5656 42.5595 29.6797V32.2317H34.9036V29.6797ZM31.0756 36.0596C31.0756 35.3549 31.6469 34.7836 32.3516 34.7836H45.1114C45.8161 34.7836 46.3874 35.3549 46.3874 36.0596V47.5434C46.3874 48.2482 45.8161 48.8194 45.1114 48.8194H32.3516C31.6469 48.8194 31.0756 48.2482 31.0756 47.5434V36.0596Z" fill="#813EC5"/>
<path d="M37.4558 44.7563V44.9911C37.4558 45.6958 38.027 46.2671 38.7317 46.2671C39.4365 46.2671 40.0077 45.6958 40.0077 44.9911V44.7563C41.7655 44.1349 42.8198 42.3375 42.5046 40.5C42.1893 38.6625 40.5961 37.3193 38.7317 37.3193C36.8674 37.3193 35.2742 38.6625 34.9589 40.5C34.6437 42.3375 35.698 44.1349 37.4558 44.7563ZM38.7317 39.8872C39.4365 39.8872 40.0077 40.4584 40.0077 41.1631C40.0077 41.8678 39.4365 42.4391 38.7317 42.4391C38.027 42.4391 37.4558 41.8678 37.4558 41.1631C37.4558 40.4584 38.027 39.8872 38.7317 39.8872Z" fill="#813EC5"/>
<path d="M17.0399 38.6121C17.0399 50.5921 26.7516 60.3038 38.7315 60.3038C50.7115 60.3038 60.4232 50.5921 60.4232 38.6121C60.4232 26.6321 50.7115 16.9204 38.7315 16.9204C26.7571 16.9338 17.0532 26.6376 17.0399 38.6121ZM38.7315 19.4724C49.3021 19.4724 57.8713 28.0415 57.8713 38.6121C57.8713 49.1827 49.3021 57.7518 38.7315 57.7518C28.161 57.7518 19.5918 49.1827 19.5918 38.6121C19.6038 28.0465 28.1659 19.4843 38.7315 19.4724Z" fill="#813EC5"/>
<path d="M64.2514 66.6839C61.9311 66.6926 59.9087 68.2652 59.3286 70.5118H50.2156V62.7985C53.0684 61.4556 55.6605 59.6174 57.8715 57.3692C58.1983 57.0452 58.3253 56.5704 58.204 56.1264C58.0826 55.6825 57.7315 55.3384 57.2853 55.2258C56.8391 55.1132 56.3668 55.2497 56.0494 55.5829C53.8829 57.7978 51.3111 59.576 48.4739 60.8208C48.3025 60.8888 48.1483 60.9938 48.0222 61.1283C48.0081 61.1436 48.0005 61.164 47.9864 61.1819C47.8931 61.2857 47.8176 61.4042 47.7631 61.5328C47.7381 61.6129 47.7214 61.6954 47.7134 61.779C47.6897 61.8512 47.673 61.9256 47.6636 62.001V62.024V70.5118C47.6636 71.9212 48.8062 73.0638 50.2156 73.0638H59.3286C59.9962 75.6254 62.5144 77.2491 65.1232 76.8C67.7321 76.351 69.5624 73.9788 69.3351 71.3414C69.1078 68.7039 66.8986 66.68 64.2514 66.6839ZM64.2514 74.3398C62.842 74.3398 61.6994 73.1972 61.6994 71.7878C61.6994 70.3784 62.842 69.2359 64.2514 69.2359C65.6608 69.2359 66.8033 70.3784 66.8033 71.7878C66.8033 73.1972 65.6608 74.3398 64.2514 74.3398Z" fill="#813EC5"/>
<path d="M10.4791 52.6481H16.6446C16.6548 52.6481 16.6637 52.6417 16.6752 52.6417C16.8022 52.636 16.9274 52.6106 17.0465 52.5664C17.1061 52.5469 17.1641 52.523 17.2201 52.495C17.2341 52.4873 17.2507 52.4848 17.2647 52.4759C17.2788 52.4669 17.3005 52.4401 17.3209 52.4261C17.4366 52.3547 17.5393 52.2641 17.6246 52.1581C17.6396 52.1384 17.6537 52.118 17.6667 52.0969C17.7493 51.9807 17.8114 51.8512 17.8504 51.7141C17.8504 51.695 17.8581 51.6758 17.8619 51.6567C17.8928 51.5645 17.9125 51.469 17.9206 51.3721C17.914 51.3239 17.9042 51.2761 17.8912 51.2292C17.8912 51.2126 17.8912 51.1973 17.8823 51.1795C17.8607 51.0298 17.8118 50.8853 17.7381 50.7533L17.7317 50.7329C16.4234 48.4744 15.4916 46.0178 14.9731 43.4598C14.8321 42.7692 14.158 42.3236 13.4674 42.4645C12.7768 42.6054 12.3312 43.2796 12.4722 43.9702C12.9015 46.0871 13.587 48.1438 14.5137 50.0949H10.4791C9.83653 47.6063 7.44378 45.9838 4.8941 46.3076C2.34441 46.6315 0.433289 48.8007 0.433289 51.3709C0.433289 53.941 2.34441 56.1102 4.8941 56.4341C7.44378 56.7579 9.83653 55.1367 10.4791 52.6481ZM5.55633 53.9241C4.14692 53.9241 3.00437 52.7815 3.00437 51.3721C3.00437 49.9627 4.14692 48.8202 5.55633 48.8202C6.96574 48.8202 8.1083 49.9627 8.1083 51.3721C8.1083 52.7815 6.96574 53.9241 5.55633 53.9241Z" fill="#813EC5"/>
<path d="M0.452641 25.8523C0.449449 28.4193 2.35688 30.5875 4.90332 30.9116C7.44977 31.2357 9.83947 29.6142 10.4793 27.1283H16.6448H16.6793C16.8052 27.1211 16.9294 27.0957 17.0481 27.053C17.1041 27.0351 17.1587 27.0129 17.2114 26.9866C17.2794 26.9508 17.3435 26.908 17.4028 26.859C17.5104 26.7778 17.6036 26.679 17.6784 26.5668C17.695 26.5426 17.7167 26.5247 17.732 26.4992C19.3681 23.66 21.5638 21.1826 24.1859 19.2172C24.5506 18.9437 24.7417 18.4964 24.6871 18.0438C24.6326 17.5912 24.3408 17.2021 23.9215 17.023C23.5023 16.8439 23.0194 16.9021 22.6547 17.1756C19.9694 19.1984 17.6895 21.7091 15.9341 24.5763H10.4793C9.83947 22.0903 7.44977 20.4689 4.90332 20.793C2.35688 21.117 0.449449 23.2853 0.452641 25.8523ZM8.10853 25.8523C8.10853 27.2617 6.96598 28.4043 5.55657 28.4043C4.14716 28.4043 3.00461 27.2617 3.00461 25.8523C3.00461 24.4429 4.14716 23.3003 5.55657 23.3003C6.23339 23.3003 6.88249 23.5692 7.36108 24.0478C7.83967 24.5264 8.10853 25.1755 8.10853 25.8523Z" fill="#813EC5"/>
<path d="M71.9075 46.2676C69.5873 46.2762 67.5648 47.8489 66.9848 50.0955H62.9489C63.8764 48.1447 64.562 46.0879 64.9904 43.9708C65.1314 43.2798 64.6855 42.6054 63.9945 42.4645C63.3036 42.3235 62.6292 42.7694 62.4882 43.4604C61.9706 46.0184 61.0397 48.4749 59.7321 50.7335V50.7501C59.6559 50.885 59.6057 51.033 59.5841 51.1865C59.5841 51.2005 59.5841 51.2133 59.5752 51.2273C59.562 51.2748 59.5514 51.3229 59.5433 51.3715C59.551 51.4717 59.5707 51.5707 59.602 51.6662C59.602 51.6828 59.602 51.6994 59.6122 51.716C59.6518 51.8536 59.7153 51.9832 59.7997 52.0988C59.8125 52.1179 59.8227 52.1371 59.8367 52.1549C59.9232 52.2614 60.0267 52.3528 60.143 52.4254C60.1634 52.4395 60.1762 52.4612 60.1979 52.4739C60.2195 52.4867 60.2285 52.4854 60.2425 52.4931C60.2992 52.522 60.358 52.5463 60.4186 52.5658C60.5372 52.6085 60.6615 52.6335 60.7874 52.6398C60.7988 52.6398 60.8078 52.6462 60.8193 52.6462H66.9848C67.6518 55.2082 70.1698 56.8325 72.779 56.3838C75.3881 55.9351 77.2188 53.5629 76.9916 50.9253C76.7644 48.2876 74.555 46.2634 71.9075 46.2676ZM71.9075 53.9234C70.4981 53.9234 69.3556 52.7809 69.3556 51.3715C69.3556 49.9621 70.4981 48.8195 71.9075 48.8195C73.3169 48.8195 74.4595 49.9621 74.4595 51.3715C74.4595 52.7809 73.3169 53.9234 71.9075 53.9234Z" fill="#813EC5"/>
<path d="M29.8002 62.0222V62.0005C29.7921 61.9289 29.778 61.858 29.7581 61.7887C29.7491 61.7021 29.7315 61.6166 29.7058 61.5335C29.6521 61.407 29.5779 61.2902 29.4863 61.1877C29.4697 61.1686 29.4621 61.1456 29.4455 61.1277C29.3189 60.9932 29.1642 60.8882 28.9925 60.8202C25.6525 59.3461 22.6851 57.1426 20.3082 54.3714C20.0158 54.0115 19.5512 53.8385 19.0947 53.9196C18.6382 54.0006 18.2615 54.323 18.1109 54.7615C17.9603 55.2001 18.0595 55.6858 18.3699 56.0302C20.8238 58.8865 23.848 61.1978 27.2482 62.8159V70.5113H18.1352C17.4926 68.0228 15.0999 66.4002 12.5502 66.724C10.0005 67.0479 8.08939 69.2171 8.08939 71.7873C8.08939 74.3575 10.0005 76.5267 12.5502 76.8505C15.0999 77.1744 17.4926 75.5518 18.1352 73.0633H27.2482C28.6576 73.0633 29.8002 71.9207 29.8002 70.5113V62.0222ZM13.2124 74.3393C11.803 74.3393 10.6605 73.1967 10.6605 71.7873C10.6605 70.3779 11.803 69.2353 13.2124 69.2353C14.6218 69.2353 15.7644 70.3779 15.7644 71.7873C15.7644 73.1967 14.6218 74.3393 13.2124 74.3393Z" fill="#813EC5"/>
<path d="M43.5808 62.3702C40.3802 63.013 37.0839 63.013 33.8833 62.3702C33.4319 62.2667 32.9597 62.4159 32.6498 62.7601C32.3399 63.1043 32.2408 63.5895 32.391 64.0276C32.5412 64.4658 32.917 64.7882 33.3729 64.8699C34.7199 65.1316 36.0849 65.2899 37.4561 65.3433V75.6149C37.4561 76.3196 38.0273 76.8909 38.7321 76.8909C39.4368 76.8909 40.008 76.3196 40.008 75.6149V65.3433C41.3792 65.2899 42.7442 65.1317 44.0912 64.8699C44.7664 64.715 45.1946 64.0497 45.0561 63.3709C44.9175 62.6922 44.2627 62.248 43.5808 62.3702Z" fill="#813EC5"/>
<path d="M27.2482 4.16035H18.1352C17.4926 1.6718 15.0999 0.0492366 12.5502 0.373089C10.0005 0.696941 8.08939 2.86617 8.08939 5.43633C8.08939 8.0065 10.0005 10.1757 12.5502 10.4996C15.0999 10.8234 17.4926 9.20087 18.1352 6.71232H27.2482V15.2257C27.2482 15.2767 27.2725 15.3265 27.2788 15.3775C27.2922 15.5096 27.3262 15.6388 27.3797 15.7603C27.4327 15.874 27.5033 15.9787 27.5889 16.0704C27.6317 16.1167 27.6782 16.1593 27.728 16.198C27.7905 16.2491 27.8575 16.2944 27.9283 16.3332C27.9873 16.3659 28.0488 16.3941 28.1121 16.4174C28.2033 16.4464 28.2974 16.4652 28.3928 16.4736C28.4347 16.485 28.4773 16.494 28.5204 16.5004C28.7032 16.4965 28.883 16.453 29.0474 16.3728C30.6018 15.6988 32.2226 15.1898 33.8833 14.8544C34.5743 14.7134 35.0202 14.039 34.8792 13.3481C34.7383 12.6571 34.0639 12.2112 33.3729 12.3522C32.1603 12.6003 30.9665 12.9328 29.8002 13.3474V6.71232C29.8002 5.30291 28.6576 4.16035 27.2482 4.16035ZM13.2124 7.9883C11.803 7.9883 10.6605 6.84574 10.6605 5.43633C10.6605 4.02692 11.803 2.88437 13.2124 2.88437C14.6218 2.88437 15.7644 4.02692 15.7644 5.43633C15.7644 6.11316 15.4955 6.76226 15.0169 7.24084C14.5384 7.71943 13.8893 7.9883 13.2124 7.9883Z" fill="#813EC5"/>
<path d="M59.3286 6.71232C59.9712 9.20087 62.3639 10.8234 64.9136 10.4996C67.4633 10.1757 69.3744 8.0065 69.3744 5.43633C69.3744 2.86617 67.4633 0.696941 64.9136 0.373089C62.3639 0.0492366 59.9712 1.6718 59.3286 4.16035H50.2156C48.8062 4.16035 47.6636 5.30291 47.6636 6.71232V15.1989V15.2218C47.6713 15.2971 47.6863 15.3714 47.7083 15.4439C47.7163 15.5274 47.733 15.61 47.758 15.6901C47.8125 15.8186 47.888 15.9372 47.9813 16.041C47.9954 16.0576 48.003 16.0793 48.0171 16.0946C48.1432 16.2291 48.2974 16.3341 48.4687 16.4021C51.3055 17.645 53.8772 19.421 56.0443 21.6336C56.3572 21.9814 56.8353 22.13 57.2902 22.0209C57.7451 21.9119 58.1039 21.5626 58.2251 21.1108C58.3463 20.659 58.2106 20.1771 57.8715 19.8549C55.6605 17.6068 53.0684 15.7686 50.2156 14.4256V6.71232H59.3286ZM64.2514 2.88437C65.6608 2.88437 66.8033 4.02692 66.8033 5.43633C66.8033 6.84574 65.6608 7.9883 64.2514 7.9883C62.842 7.9883 61.6994 6.84574 61.6994 5.43633C61.6994 4.02692 62.842 2.88437 64.2514 2.88437Z" fill="#813EC5"/>
<path d="M38.7321 0.332031C38.0274 0.332031 37.4561 0.903308 37.4561 1.60801V13.0918C37.4561 13.7966 38.0274 14.3678 38.7321 14.3678C40.3605 14.3675 41.9848 14.5299 43.5809 14.8527C43.6648 14.87 43.7503 14.8785 43.8361 14.8782C44.4892 14.8757 45.035 14.3804 45.1007 13.7305C45.1664 13.0807 44.7307 12.4862 44.0912 12.3531C42.7443 12.0912 41.3792 11.933 40.0081 11.8797V1.60801C40.0081 0.903308 39.4368 0.332031 38.7321 0.332031Z" fill="#813EC5"/>
<path d="M66.9848 27.1288C67.6273 29.6174 70.0201 31.2399 72.5698 30.9161C75.1195 30.5922 77.0306 28.423 77.0306 25.8528C77.0306 23.2827 75.1195 21.1134 72.5698 20.7896C70.0201 20.4657 67.6273 22.0883 66.9848 24.5769H60.8193C60.795 24.5769 60.7759 24.5896 60.7529 24.5896C60.6789 24.5976 60.6059 24.6126 60.5347 24.6343C60.4299 24.655 60.3282 24.6893 60.2323 24.7364C60.2221 24.7364 60.2093 24.7364 60.1979 24.7491C60.1864 24.7619 60.1647 24.7836 60.143 24.7976C60.0267 24.8702 59.9232 24.9616 59.8367 25.0681C59.8227 25.086 59.8125 25.1051 59.7997 25.1243C59.7153 25.2399 59.6518 25.3694 59.6122 25.507C59.6122 25.5236 59.6122 25.5402 59.602 25.5568C59.5706 25.6528 59.5509 25.7522 59.5433 25.8528C59.55 25.9018 59.5594 25.9503 59.5713 25.9983C59.5713 26.0123 59.5777 26.0251 59.5803 26.0391C59.6018 26.1926 59.652 26.3406 59.7283 26.4755V26.4921C61.8563 30.177 62.9764 34.3574 62.9757 38.6127C62.9757 39.3174 63.5469 39.8886 64.2516 39.8886H75.7355C76.4402 39.8886 77.0115 39.3174 77.0115 38.6127C77.0115 37.9079 76.4402 37.3367 75.7355 37.3367H65.4855C65.3182 33.7988 64.4508 30.3292 62.9336 27.1288H66.9848ZM71.9075 23.3009C73.3169 23.3009 74.4595 24.4434 74.4595 25.8528C74.4595 27.2622 73.3169 28.4048 71.9075 28.4048C70.4981 28.4048 69.3556 27.2622 69.3556 25.8528C69.3556 24.4434 70.4981 23.3009 71.9075 23.3009Z" fill="#813EC5"/>
<path d="M1.72862 39.888H13.2124C13.9172 39.888 14.4884 39.3168 14.4884 38.612C14.4857 36.0339 14.8945 33.4718 15.6993 31.0225C15.8418 30.5894 15.7424 30.1133 15.4386 29.7734C15.1347 29.4335 14.6727 29.2815 14.2264 29.3746C13.7801 29.4678 13.4174 29.792 13.275 30.225C12.5254 32.5261 12.0918 34.9183 11.9862 37.3361H1.72862C1.02391 37.3361 0.452637 37.9073 0.452637 38.612C0.452637 39.3168 1.02391 39.888 1.72862 39.888Z" fill="#813EC5"/>
</svg>
