<svg width="307" height="293" viewBox="0 0 307 293" fill="none" xmlns="http://www.w3.org/2000/svg">
<path d="M159.497 89.2833C158.509 91.9665 156.383 94.2074 153.766 95.3492C155.391 94.6039 157.157 96.6236 156.965 98.4059C156.774 100.182 155.455 101.594 154.333 102.988C153.212 104.382 152.185 106.162 152.695 107.873C153.466 110.431 157.07 111.08 158.231 113.486C159.148 115.378 158.151 117.752 156.505 119.064C154.857 120.368 152.721 120.864 150.668 121.313C145.752 122.38 140.67 123.376 135.726 122.45C129.242 121.246 123.607 116.69 120.522 110.865C117.444 105.04 116.805 98.0848 118.164 91.6389C119.104 87.1423 120.965 82.8865 121.913 78.3883C122.853 73.8917 122.759 68.8659 120.094 65.1278C118.589 63.0097 116.234 61.1292 116.286 58.5344C116.324 56.4966 117.889 54.8438 119.466 53.5546C123.171 50.5224 127.764 48.8549 132.382 47.605L134.783 48.2176C140.635 50.2489 144.95 55.3434 146.765 61.2586C147.575 63.8927 147.833 66.7168 149.087 69.1788C151.428 73.7934 156.798 76.3013 159.071 80.947C160.322 83.5188 160.48 86.6017 159.497 89.2833Z" fill="black"/>
<path d="M108.194 53.7088C103.518 58.0465 102.093 64.7709 101.057 71.0596C100.02 77.3483 98.9512 84.0531 94.6973 88.8052C93.1115 90.5776 91.1584 91.9766 89.4103 93.5885C87.6605 95.2004 86.0633 97.1235 85.5123 99.4349C84.9596 101.746 85.714 104.498 87.7721 105.694C89.1791 106.511 90.896 106.487 92.5081 106.702C94.1217 106.914 95.8944 107.552 96.534 109.047C97.472 111.237 95.4631 113.444 94.125 115.416C92.1768 118.288 91.4979 122.082 92.7114 125.332C93.9233 128.582 97.1489 131.088 100.622 131.095C104.094 131.101 107.467 128.346 107.815 124.894C107.949 123.558 107.685 122.121 108.305 120.93C109.42 118.792 112.623 118.868 114.714 120.07C116.805 121.272 118.42 123.24 120.634 124.198C122.992 125.217 125.88 124.893 127.953 123.376C130.025 121.859 131.206 119.205 130.944 116.653C130.747 114.73 129.811 112.969 129.296 111.105C128.781 109.241 128.791 107.001 130.176 105.653C131.751 104.121 134.474 104.328 136.032 102.778C137.444 101.373 137.352 99.0188 136.592 97.1792C135.831 95.3396 134.53 93.767 133.717 91.9504C132.034 88.1909 132.613 83.7844 133.974 79.8972C135.335 76.01 137.426 72.411 138.809 68.532C140.191 64.653 140.816 60.2596 139.194 56.4739C137.108 51.6087 131.692 48.842 126.411 48.3948C121.129 47.9427 113.292 52.2673 108.194 53.7088Z" fill="black"/>
<path d="M143.176 140.243C143.176 140.243 149.614 152.807 157.63 163.127C162.559 169.473 168.086 174.974 173.079 176.175C173.312 176.234 173.551 176.278 173.784 176.317C190.501 178.986 228.758 140.268 228.758 140.268C236.677 142.749 220.998 109.945 216.728 117.467L181.893 144.029C181.893 144.029 166.823 128.047 160.231 123.665C150.157 116.964 145.978 116.569 145.978 116.569L143.176 140.243Z" fill="#07284B"/>
<path d="M157.628 131.776V163.126C162.558 169.472 168.084 174.973 173.077 176.173C163.93 162.816 157.628 131.776 157.628 131.776Z" fill="black"/>
<path d="M54.9645 280.983C55.5581 284.231 57.544 286.846 60.2252 288.415C62.7949 289.925 65.9222 290.43 69.0019 289.706L84.5874 286.008C89.3332 284.885 92.1227 279.61 91.1683 274.384C90.2499 269.354 91.4733 263.614 86.8685 263.871C86.6766 263.883 80.8944 264.459 80.7025 264.482L64.8153 266.52C58.3295 267.359 53.7788 274.494 54.9645 280.983Z" fill="black"/>
<path d="M57.9147 280.983C58.5083 284.231 60.4942 286.846 63.1754 288.415C65.7451 289.925 68.8724 290.43 71.9521 289.706L87.5376 286.009C92.2834 284.885 95.0729 279.61 94.1184 274.385C93.2001 269.354 89.0364 265.522 84.43 265.78C84.2381 265.791 84.0446 265.807 83.8528 265.83L67.9655 267.868C61.4798 268.707 56.729 274.494 57.9147 280.983Z" fill="#242B2B"/>
<path d="M77.9901 276.021C79.348 283.885 88.1148 284.914 98.8676 281.294L93.3493 267.024C93.3493 267.024 76.8242 269.274 77.9901 276.021Z" fill="#FFCFC5"/>
<path d="M70.3942 274.14C70.3942 274.14 81.9816 266.695 85.0089 268.323C88.0361 269.952 90.0171 282.749 84.6596 284.377C79.302 286.005 71.7323 283.853 71.7323 283.853L70.3942 274.14Z" fill="#242B2B"/>
<path d="M78.0443 283.078C78.1459 283.078 78.2443 283.022 78.2935 282.924C80.0629 279.412 79.8645 276.108 77.7081 273.104C77.6605 273.036 77.6212 272.984 77.5966 272.946C77.59 272.913 77.5769 272.882 77.5572 272.853C77.4736 272.723 77.2997 272.686 77.1702 272.769C77.1062 272.81 77.0587 272.882 77.0439 272.958C77.0177 273.1 77.0816 273.19 77.2522 273.428C79.2774 276.25 79.4595 279.361 77.7917 282.672C77.7228 282.809 77.777 282.978 77.9163 283.047C77.959 283.068 78.0016 283.078 78.0443 283.078Z" fill="white"/>
<path d="M73.7904 283.573C73.892 283.573 73.9904 283.517 74.0396 283.419C75.8074 279.907 75.6106 276.603 73.4558 273.598C73.4066 273.531 73.3689 273.479 73.3443 273.441C73.3378 273.408 73.3247 273.376 73.305 273.346C73.2197 273.217 73.0459 273.179 72.918 273.262C72.854 273.303 72.8048 273.376 72.7917 273.451C72.7654 273.593 72.8294 273.683 73.0016 273.923C75.0269 276.745 75.2072 279.856 73.5411 283.166C73.4722 283.304 73.5264 283.473 73.6657 283.542C73.7051 283.565 73.7477 283.573 73.7904 283.573Z" fill="white"/>
<path d="M69.5365 284.069C69.6382 284.069 69.7365 284.013 69.7857 283.915C71.5535 280.403 71.3567 277.099 69.2019 274.095C69.1527 274.027 69.115 273.975 69.0904 273.937C69.0839 273.905 69.0707 273.872 69.0511 273.842C68.9658 273.713 68.792 273.677 68.664 273.759C68.6001 273.8 68.5509 273.872 68.5378 273.947C68.5115 274.09 68.5755 274.18 68.7477 274.419C70.7729 277.241 70.9533 280.352 69.2872 283.663C69.2183 283.8 69.2725 283.969 69.4118 284.038C69.4512 284.059 69.4938 284.069 69.5365 284.069Z" fill="white"/>
<path d="M79.5514 217.39C79.5514 218.081 111.408 244.707 111.408 244.707L154.652 242.988L180.441 235.078L231.823 212.815L178.797 217.177C173.059 215.865 168.102 212.285 165.055 207.256L163.904 205.35C163.904 205.35 88.1296 184.346 87.3212 199.164C86.9719 205.561 79.5514 217.3 79.5514 217.39Z" fill="#DBCDF0"/>
<path d="M187.553 226.345L152.048 234.257L124.637 226.774L134.968 239.722C134.968 239.722 153.314 241.815 154.479 241.35C155.644 240.885 187.553 227.041 187.553 227.041" fill="black"/>
<path d="M90.122 122.386C82.4507 131.46 85.6534 155.912 86.0469 176.321C86.3438 191.77 83.7117 207.055 83.7117 207.055C83.6133 217.36 168.387 217.66 168.486 207.355C168.486 207.355 164.001 199.862 162.785 176.321C161.48 151.03 158.666 123.084 150.829 118.36C142.349 113.247 99.3284 111.498 90.122 122.386Z" fill="#07284B"/>
<path d="M101.301 126.277C101.301 126.277 105.257 133.673 105.839 141C106.421 148.327 105.257 169.384 105.257 169.384L142.29 195.52L112.71 192.999C112.71 192.999 92.9132 169.267 93.0296 168.686C93.1444 168.104 101.301 126.277 101.301 126.277Z" fill="black"/>
<path d="M91.6094 272.509L91.6225 272.548C93.5888 279.69 97.0571 287.16 99.2496 286.19C99.2496 286.19 116.751 283.605 137.764 280.07C146.208 278.655 155.226 277.078 163.902 275.462C163.909 275.462 163.909 275.462 163.909 275.462C182.361 272.011 225.405 257.813 232.062 254.957C252.76 246.07 250.554 229.06 250.554 229.06C250.554 229.06 248.871 208.986 224.914 213.458C216.743 214.977 175.322 229.681 158.709 234.495C155.227 235.509 151.682 236.551 148.136 237.604C128.267 243.485 108.994 252.029 98.7593 256.857C93.9905 259.106 91.1831 260.554 91.1831 260.554C89.43 261.329 90.045 266.808 91.6094 272.509Z" fill="#DBCDF0"/>
<path d="M91.6095 272.509L91.6226 272.548L101.87 278.036L98.7577 256.857C93.9889 259.106 91.1815 260.554 91.1815 260.554C89.4301 261.329 90.045 266.808 91.6095 272.509Z" fill="black"/>
<path d="M102.397 292.074C103.515 291.637 104.386 290.813 104.876 289.85C105.366 288.886 105.483 287.763 105.109 286.731C101.801 277.608 98.2477 268.576 94.4513 259.645C93.5904 257.617 91.065 256.696 88.8232 257.576C87.7048 258.015 86.8636 258.824 86.4159 259.772C85.9698 260.719 85.9091 261.82 86.3388 262.829C90.1351 271.762 93.6871 280.793 96.9964 289.915C97.7475 291.987 100.155 292.954 102.397 292.074Z" fill="#DBCDF0"/>
<path d="M148.136 237.604L189.414 255.106L197.197 254.368L158.709 234.495C155.227 235.509 151.682 236.549 148.136 237.604Z" fill="black"/>
<path d="M106.575 265.024L137.766 280.07C146.209 278.655 155.227 277.077 163.904 275.462C163.891 275.462 163.871 275.462 163.845 275.469C162.125 275.791 106.575 265.024 106.575 265.024Z" fill="black"/>
<path d="M233.588 280.504C232.627 283.664 230.354 286.035 227.51 287.286C224.785 288.493 221.62 288.636 218.643 287.565L203.584 282.11C198.999 280.45 196.833 274.892 198.379 269.811C199.868 264.918 199.311 259.076 203.856 259.859C204.047 259.892 209.724 261.127 209.911 261.171L225.46 265.013C231.807 266.585 235.51 274.193 233.588 280.504Z" fill="black"/>
<path d="M230.657 280.167C229.696 283.327 227.423 285.697 224.58 286.949C221.854 288.156 218.689 288.299 215.713 287.227L200.654 281.772C196.069 280.113 193.902 274.555 195.449 269.473C196.938 264.58 201.513 261.252 206.06 262.033C206.251 262.066 206.439 262.105 206.628 262.149L222.177 265.991C228.522 267.563 232.579 273.855 230.657 280.167Z" fill="#242B2B"/>
<path d="M211.283 272.94C209.032 280.598 200.206 280.616 189.939 275.79L197.057 262.246C197.056 262.246 213.214 266.371 211.283 272.94Z" fill="#FFCFC5"/>
<path d="M219.043 271.94C219.043 271.94 208.386 263.219 205.191 264.49C201.997 265.762 198.563 278.247 203.697 280.478C208.832 282.709 216.598 281.437 216.598 281.437L219.043 271.94Z" fill="#242B2B"/>
<path d="M210.45 279.946C210.483 279.946 210.514 279.941 210.547 279.929C210.693 279.875 210.767 279.715 210.714 279.571C209.439 276.09 209.975 273.022 212.31 270.45C212.508 270.232 212.582 270.15 212.571 270.004C212.566 269.927 212.525 269.852 212.466 269.803C212.346 269.704 212.171 269.722 212.072 269.842C212.049 269.868 212.033 269.899 212.023 269.93C211.995 269.965 211.951 270.012 211.895 270.073C209.409 272.81 208.835 276.072 210.188 279.762C210.229 279.877 210.336 279.946 210.45 279.946Z" fill="white"/>
<path d="M214.621 280.925C214.653 280.925 214.685 280.92 214.717 280.909C214.863 280.855 214.937 280.694 214.885 280.55C213.609 277.069 214.145 274.001 216.48 271.429C216.679 271.211 216.753 271.129 216.743 270.985C216.738 270.91 216.698 270.833 216.639 270.784C216.521 270.686 216.344 270.702 216.246 270.822C216.223 270.849 216.206 270.879 216.197 270.912C216.169 270.946 216.124 270.994 216.069 271.054C213.583 273.793 213.009 277.053 214.362 280.744C214.399 280.855 214.506 280.925 214.621 280.925Z" fill="white"/>
<path d="M218.789 281.903C218.822 281.903 218.853 281.898 218.886 281.887C219.032 281.833 219.106 281.672 219.053 281.528C217.777 278.047 218.314 274.979 220.649 272.407C220.847 272.189 220.921 272.107 220.91 271.963C220.905 271.886 220.864 271.809 220.805 271.762C220.687 271.665 220.509 271.681 220.411 271.801C220.39 271.829 220.373 271.858 220.362 271.89C220.334 271.924 220.29 271.971 220.234 272.032C217.748 274.769 217.174 278.031 218.527 281.721C218.568 281.834 218.676 281.903 218.789 281.903Z" fill="white"/>
<path d="M56.101 226.345C56.101 226.345 59.4578 206.483 82.9574 212.933C106.455 219.382 198.601 255.106 198.601 255.106C202.395 257.173 188.906 282.863 185.109 280.794C185.109 280.794 89.2431 262.662 72.3703 253.687C52.485 243.111 56.101 226.345 56.101 226.345Z" fill="#DBCDF0"/>
<path d="M190.226 251.811L184.855 272.548L194.443 253.312L190.226 251.811Z" fill="black"/>
<path d="M160.253 276.427L160.354 275.877C142.416 272.607 115.309 267.665 98.1788 262.341L98.0132 262.875C115.175 268.21 142.302 273.156 160.253 276.427Z" fill="white"/>
<path d="M198.496 255.366L198.702 254.847C198.274 254.678 155.516 237.768 122.47 225.684L122.279 226.209C155.316 238.289 198.068 255.196 198.496 255.366Z" fill="white"/>
<path d="M183.25 284.737C184.32 285.279 185.516 285.383 186.562 285.107C187.608 284.832 188.525 284.172 189.048 283.207C193.671 274.673 198.063 266.017 202.218 257.246C203.161 255.256 202.172 252.76 200.024 251.672C198.953 251.13 197.787 251.04 196.782 251.336C195.777 251.633 194.914 252.319 194.445 253.312C190.29 262.082 185.898 270.738 181.275 279.272C180.224 281.21 181.101 283.649 183.25 284.737Z" fill="#DBCDF0"/>
<path d="M191.79 229.063L191.798 229.069L146.093 236.149C143.817 236.506 141.685 234.947 141.327 232.665C141.159 231.584 141.426 230.542 141.985 229.703C142.559 228.856 143.427 228.221 144.491 227.964L169.03 222.17L194.132 216.246L191.79 229.063Z" fill="white"/>
<path d="M145.439 236.48C145.67 236.48 145.903 236.462 146.136 236.426L191.841 229.346C191.949 229.33 192.038 229.251 192.067 229.148C192.077 229.115 192.08 229.081 192.077 229.048L194.406 216.295C194.422 216.202 194.391 216.107 194.324 216.043C194.255 215.978 194.158 215.95 194.066 215.974L144.425 227.693C143.335 227.957 142.385 228.614 141.752 229.548C141.127 230.483 140.878 231.605 141.05 232.709C141.236 233.887 141.865 234.921 142.825 235.623C143.594 236.185 144.502 236.48 145.439 236.48ZM191.549 228.827L146.05 235.874C145.022 236.033 143.996 235.786 143.156 235.171C142.316 234.557 141.765 233.651 141.605 232.622C141.454 231.659 141.672 230.676 142.218 229.859C142.772 229.043 143.602 228.467 144.556 228.236L193.779 216.615L191.549 228.827Z" fill="black"/>
<path d="M196.008 215.942L193.668 228.758L170.873 232.292L170.905 221.865L196.008 215.942Z" fill="black"/>
<path d="M231.989 222.833L173.784 231.856L173.948 181.951C173.958 179.196 175.97 176.855 178.697 176.432L231.551 168.24C234.958 167.713 238.032 170.352 238.02 173.795L237.881 215.986C237.871 219.405 235.372 222.309 231.989 222.833Z" fill="white"/>
<path d="M173.786 232.134C173.801 232.134 173.814 232.133 173.828 232.131L232.033 223.108C235.573 222.56 238.151 219.565 238.163 215.986L238.302 173.795C238.309 172.072 237.561 170.438 236.252 169.315C234.944 168.191 233.217 167.701 231.51 167.963L178.656 176.155C175.777 176.603 173.681 179.038 173.671 181.949L173.505 231.854C173.505 231.936 173.541 232.015 173.602 232.067C173.655 232.111 173.719 232.134 173.786 232.134ZM232.415 168.453C233.681 168.453 234.913 168.903 235.887 169.739C237.071 170.756 237.748 172.234 237.741 173.793L237.602 215.984C237.592 219.287 235.213 222.052 231.946 222.556L174.066 231.528L174.23 181.951C174.238 179.317 176.137 177.112 178.741 176.707L231.595 168.515C231.869 168.473 232.143 168.453 232.415 168.453Z" fill="black"/>
<path d="M179.383 176.321C178.059 177.404 177.233 179.037 177.223 180.842L177.059 231.345L173.786 231.854L173.955 181.956C173.963 179.197 175.977 176.856 178.7 176.432L179.383 176.321Z" fill="black"/>
<path d="M214.429 198.222C215.001 201.907 212.477 205.351 208.797 205.923C206.792 206.234 204.855 205.625 203.423 204.411C204.03 204.464 204.652 204.441 205.281 204.342C209.709 203.656 212.749 199.512 212.061 195.082C211.993 194.655 211.895 194.23 211.767 193.832C213.148 194.854 214.145 196.393 214.429 198.222Z" fill="#C5CDE3"/>
<path d="M82.449 188.384C90.1155 199.209 132.972 214.939 132.972 214.939C137.525 217.118 146.841 197.698 142.288 195.52L102.072 172.563C102.072 172.563 107.19 124.19 96.7078 118.36C96.7078 118.36 84.9908 122.154 80.9534 131.304C76.9176 140.456 74.1938 176.732 82.449 188.384Z" fill="#07284B"/>
<path d="M140.888 198.229L151.934 207.053C151.934 207.053 163.379 204.578 160.319 201.67C157.266 198.756 140.888 198.229 140.888 198.229Z" fill="#FFCFC5"/>
<path d="M134.614 211.525C134.614 211.525 139.335 216.323 141.436 217.151C143.536 217.971 147.646 218.209 147.646 218.209C147.646 218.209 156.879 224.055 158.458 222.912C159.989 221.804 155.126 216.725 154.745 216.356C155.191 216.725 160.89 223.416 163.263 221.067C164.37 219.97 158.517 214.803 158.054 214.387C158.612 214.821 164.214 220.153 165.973 218.771C168.748 216.592 161.023 212.259 160.677 211.909C163.099 213.737 167.666 216.587 168.469 214.002C168.945 212.456 160.573 206.727 156.733 205.133C152.89 203.546 148.6 203.903 148.6 203.903L140.895 198.23C137.707 197.811 134.497 207.74 134.614 211.525Z" fill="#FFCFC5"/>
<path d="M245.685 108.474C247.345 110.161 244.719 112.703 242.822 114.058C245.305 112.751 250.487 109.768 251.385 112.307C252.461 115.345 246.382 117.251 244.573 118.02C246.349 117.323 252.958 115.244 252.963 117.275C252.973 120.699 247.646 121.777 245.369 122.859C247.389 121.967 252.469 121.729 251.049 125.249C249.803 128.339 228.916 137.371 228.916 137.371C225.554 139.668 214.608 123.674 217.968 121.379C217.968 121.379 225.318 108.098 229.394 108.143C233.473 108.187 230.052 116.14 230.052 116.14C230.052 116.14 243.502 106.254 245.685 108.474Z" fill="#FFCFC5"/>
<path d="M112.689 55.6547C113.379 62.3988 108.463 68.4286 101.711 69.1183C101.286 69.1609 100.867 69.1805 100.445 69.1838C94.2201 69.1838 88.879 64.4726 88.2312 58.1528C87.5408 51.4087 92.4572 45.3789 99.2086 44.6892C104.032 44.1961 108.481 46.5616 110.886 50.4062C111.855 51.9427 112.49 53.7283 112.689 55.6547Z" fill="black"/>
<path d="M112.689 55.6547C113.379 62.3988 108.463 68.4287 101.711 69.1183C101.286 69.1609 100.867 69.1806 100.445 69.1839C99.4759 67.6473 98.8413 65.8601 98.6429 63.9354C97.9508 57.1831 102.869 51.1614 109.62 50.4718C110.045 50.4275 110.465 50.4095 110.886 50.4062C111.855 51.9428 112.49 53.7283 112.689 55.6547Z" fill="#E5443F"/>
<path d="M139.153 128.68C135.116 131.433 130.872 124.597 130.872 124.597L128.154 111.814L129.384 107.931L131.931 107.671L140.763 115.647C140.763 115.647 143.19 125.926 139.153 128.68Z" fill="#FFB902"/>
<path d="M130.872 124.598C130.872 124.598 126.291 133.689 122.044 132.562C117.798 131.435 107.939 115.539 107.939 115.539L113.83 110.105L122.741 108.61L125.931 116.694L130.872 124.598Z" fill="#FFB902"/>
<path d="M113.82 110.107C119.181 116.122 125.232 120.93 130.862 124.599C131.998 119.362 133.513 115.857 132.413 109.95L113.82 110.107Z" fill="#FFCFC5"/>
<path d="M132.413 109.949L113.82 110.107L112.174 84.2886L113.93 86.6622L114.519 87.4501L114.783 87.8072L115.073 87.9186L130.048 93.5914L130.07 93.7896L131.406 105.138L131.419 105.26L132.413 109.949Z" fill="#FFCFC5"/>
<path d="M131.896 107.525C131.896 107.525 118.53 99.2904 115.204 90.8182C114.991 90.271 114.825 89.773 114.709 89.3127C114.668 89.1686 114.637 89.031 114.606 88.895L115.265 89.7796L115.458 90.0401L130.262 95.6522L131.896 107.525Z" fill="#FC9B88"/>
<path d="M142.513 78.8318C140.601 78.8038 139.074 77.2329 139.102 75.3233C139.131 73.4137 140.703 71.8884 142.615 71.9165C144.527 71.9445 146.054 73.5153 146.025 75.425C145.997 77.3346 144.425 78.8599 142.513 78.8318Z" fill="#FFB902"/>
<path d="M136.713 101.194C129.01 103.564 118.508 98.3422 113.276 88.1646C111.516 88.4726 108.746 88.0139 106.946 86.5822C104.086 84.302 103.135 80.7178 104.851 78.5997C105.817 77.3826 107.347 76.4243 109.104 76.6749C107.61 66.1223 112.584 56.8686 119.832 54.4475C125.247 52.6407 133.779 53.2681 138.699 58.5018C141.726 61.719 144.289 65.983 145.937 70.9514C150.309 83.9629 144.325 98.8369 136.713 101.194Z" fill="#FFCFC5"/>
<path d="M138.308 71.5425L143.597 81.1631L138.648 83.0944L138.308 71.5425Z" fill="#FC9B88"/>
<path d="M108.63 76.5848C111.273 78.2605 113.305 78.6373 114.453 81.042C127.89 75.3808 134.46 59.7434 134.46 59.7434C136.87 60.5182 141.464 61.9237 143.966 66.1648C143.966 66.1648 144.991 54.0051 137.79 49.6347C130.589 45.2642 115.952 45.5083 108.344 53.4007C101.109 60.9114 108.63 76.5848 108.63 76.5848Z" fill="black"/>
<path d="M64.7005 63.3833L78.9314 94.9775C80.286 97.1103 79.3299 99.9409 76.9603 100.816L59.3758 110.479L60.6336 125.53L44.3724 117.526L23.5393 125.715C21.8666 126.377 19.9545 125.834 18.8853 124.386L1.05319 86.8508C-0.429268 84.8376 0.305389 81.9676 2.575 80.9176L59.6874 61.9156C61.4896 61.0769 63.6329 61.7043 64.7005 63.3833Z" fill="white"/>
<path d="M22.0847 126.272C22.6078 126.272 23.1342 126.175 23.641 125.974L44.3576 117.831L60.9517 125.998L59.6693 110.636L77.0947 101.061C78.2656 100.632 79.1938 99.6788 79.6054 98.4617C80.0186 97.243 79.8579 95.9177 79.1659 94.83L64.935 63.2359C63.7969 61.4471 61.4879 60.7722 59.566 61.665L2.48312 80.6539C1.29749 81.201 0.451294 82.2166 0.134796 83.4518C-0.183342 84.6902 0.0675735 85.9892 0.825203 87.0179L18.6311 124.508C19.4707 125.648 20.7613 126.272 22.0847 126.272ZM44.3839 117.22L44.2691 117.266L23.436 125.454C21.8797 126.07 20.1004 125.563 19.1099 124.219L1.30568 86.7296C0.620209 85.791 0.402107 84.6623 0.679253 83.5877C0.95475 82.5148 1.68942 81.6335 2.69304 81.1699L59.7759 62.181C61.4682 61.3963 63.4623 61.9762 64.4545 63.516L78.6772 95.0921C79.2971 96.0717 79.4348 97.2217 79.0773 98.2815C78.7198 99.3381 77.913 100.167 76.8651 100.554L59.0838 110.322L60.3154 125.061L44.3839 117.22Z" fill="black"/>
<path d="M34.1142 102.875C28.5715 97.338 28.5715 88.3612 34.1142 82.8245C39.657 77.2878 48.6435 77.2878 54.1863 82.8245C59.729 88.3612 59.729 97.338 54.1863 102.875C48.6435 108.411 39.6569 108.411 34.1142 102.875Z" fill="#DBCDF0"/>
<path d="M44.1575 107.306C51.4025 107.306 57.6751 101.864 58.5246 94.5038C59.438 86.5852 53.7328 79.3989 45.8056 78.4848C41.965 78.0441 38.1818 79.1204 35.1529 81.5202C32.124 83.92 30.2119 87.3535 29.7691 91.1899C29.3264 95.0264 30.4054 98.8055 32.8078 101.831C35.2103 104.857 38.6475 106.767 42.4881 107.209C43.0489 107.274 43.6065 107.306 44.1575 107.306ZM44.1198 78.9484C44.6577 78.9484 45.1988 78.9795 45.7416 79.0417C53.3622 79.9198 58.8476 86.8277 57.9686 94.4399C57.0897 102.052 50.1661 107.527 42.5521 106.654C38.8607 106.228 35.5547 104.393 33.2457 101.484C30.9367 98.5745 29.8987 94.9428 30.3251 91.2538C30.7514 87.5665 32.5881 84.264 35.5005 81.9576C37.985 79.9918 40.9958 78.9484 44.1198 78.9484Z" fill="black"/>
<path d="M38.2179 93.8996L41.2862 87.2801C42.2324 85.2373 45.0661 85.0588 46.2616 86.9639L50.4925 93.708C51.688 95.6131 50.2908 98.0834 48.0408 98.0457L40.7417 97.9212C38.6886 97.8835 37.3537 95.7556 38.2179 93.8996Z" fill="white"/>
<path d="M48.09 98.3275C49.2297 98.3275 50.2399 97.7378 50.8024 96.7435C51.3731 95.7328 51.3452 94.5435 50.7286 93.5606L46.4977 86.8165C45.8795 85.8337 44.8217 85.2931 43.6607 85.3635C42.5013 85.4373 41.519 86.1105 41.0303 87.1638L37.9621 93.7834C37.5177 94.7401 37.5865 95.8458 38.1474 96.7402C38.7082 97.6362 39.6758 98.1834 40.7351 98.203L48.0343 98.3292C48.0523 98.3259 48.072 98.3275 48.09 98.3275ZM43.8673 85.914C44.7512 85.914 45.5482 86.353 46.0238 87.1114L50.2547 93.8555C50.7614 94.6614 50.7827 95.6377 50.3153 96.4666C49.8545 97.2824 49.0248 97.7656 48.09 97.7656C48.0753 97.7656 48.0589 97.7656 48.0441 97.7656L40.745 97.6395C39.8758 97.6231 39.0821 97.1743 38.6213 96.4388C38.1621 95.7049 38.1047 94.799 38.4704 94.0144L41.5387 87.3948C41.9388 86.5299 42.7456 85.9778 43.6951 85.9172C43.7542 85.9172 43.8116 85.914 43.8673 85.914Z" fill="black"/>
<path d="M160.483 44.3988C152.301 36.2251 152.301 22.9731 160.483 14.7995C168.666 6.62584 181.932 6.62584 190.115 14.7995C198.297 22.9731 198.297 36.2252 190.115 44.3988C181.932 52.5724 168.666 52.5724 160.483 44.3988Z" fill="white"/>
<path d="M175.312 50.7994C180.23 50.7994 185.17 49.1073 189.174 45.6525C198.035 38.0091 199.019 24.5897 191.367 15.7374C183.715 6.88671 170.281 5.90385 161.421 13.5473C157.129 17.2494 154.537 22.4012 154.122 28.0494C153.707 33.6992 155.521 39.1721 159.227 43.4607C163.422 48.3111 169.351 50.7978 175.312 50.7994ZM175.285 8.95892C181.09 8.95892 186.862 11.38 190.944 16.1027C198.394 24.7208 197.436 37.7863 188.809 45.2282C180.181 52.6718 167.102 51.7135 159.652 43.0954C156.042 38.9215 154.278 33.5928 154.681 28.0904C155.084 22.5896 157.608 17.5754 161.788 13.9699C165.686 10.6069 170.496 8.95892 175.285 8.95892Z" fill="black"/>
<path d="M164.807 45.1758L169.291 54.5097C169.737 55.4434 170.977 55.6449 171.7 54.9061L178.937 47.4986" fill="white"/>
<path d="M170.632 55.6336C171.105 55.6336 171.564 55.4436 171.9 55.1012L179.137 47.6937L178.737 47.3022L171.5 54.7097C171.218 54.998 170.829 55.1241 170.434 55.0586C170.04 54.9931 169.716 54.749 169.543 54.3886L165.06 45.0547L164.555 45.2971L169.038 54.6311C169.291 55.1585 169.766 55.514 170.342 55.6106C170.44 55.6254 170.537 55.6336 170.632 55.6336Z" fill="black"/>
<path d="M161.928 28.7341C161.66 32.2953 162.776 35.642 164.817 38.2498C167.129 41.1968 170.622 43.1969 174.652 43.4983C178.681 43.7997 182.433 42.3402 185.158 39.77C187.566 37.4946 189.166 34.3511 189.434 30.7882C190.001 23.2022 184.304 16.5908 176.71 16.024C169.114 15.4556 162.497 21.1464 161.928 28.7341Z" fill="#007AFD"/>
<path d="M173.286 27.1676C171.97 25.6413 172.143 23.3389 173.671 22.025C175.199 20.7112 177.504 20.8834 178.819 22.4097C180.134 23.936 179.962 26.2384 178.434 27.5523C176.906 28.8661 174.601 28.6939 173.286 27.1676Z" fill="white"/>
<path d="M167.384 35.6992C169.16 37.9615 171.841 39.498 174.935 39.729C178.03 39.96 180.909 38.8395 183.002 36.8656C182.633 33.0963 179.594 30.0199 175.683 29.7267C171.772 29.4368 168.309 32.0282 167.384 35.6992Z" fill="white"/>
<path d="M257.752 174.874C248.838 165.969 248.838 151.532 257.752 142.627C266.667 133.722 281.12 133.722 290.035 142.627C298.949 151.532 298.949 165.969 290.035 174.874C281.12 183.779 266.667 183.779 257.752 174.874Z" fill="white"/>
<path d="M273.847 181.838C274.804 181.838 275.769 181.779 276.735 181.659C289.38 180.093 298.391 168.543 296.825 155.913C295.257 143.282 283.694 134.279 271.051 135.845C258.406 137.409 249.394 148.96 250.961 161.589C251.72 167.708 254.818 173.166 259.686 176.956C263.788 180.149 268.73 181.838 273.847 181.838ZM296.271 155.982C297.799 168.307 289.004 179.577 276.666 181.104C270.688 181.848 264.781 180.215 260.031 176.516C255.28 172.817 252.256 167.493 251.516 161.522C250.777 155.551 252.407 149.651 256.11 144.905C259.813 140.16 265.142 137.139 271.12 136.4C283.452 134.872 294.741 143.655 296.271 155.982Z" fill="black"/>
<path d="M256.257 153.941L253.028 142.047C252.704 140.858 253.663 139.714 254.89 139.818L267.179 140.866" fill="white"/>
<path d="M255.988 154.015L256.528 153.869L253.299 141.976C253.169 141.5 253.274 141.01 253.591 140.632C253.909 140.25 254.38 140.058 254.868 140.098L267.158 141.146L267.205 140.589L254.916 139.541C254.24 139.482 253.591 139.758 253.161 140.273C252.727 140.794 252.581 141.467 252.759 142.122L255.988 154.015Z" fill="black"/>
<path d="M261.056 155.104C258.632 165.724 274.806 172.193 274.806 172.193C274.806 172.193 287.73 165.075 286.895 155.956C286.526 151.923 283.212 148.651 279.168 148.352C276.995 148.191 275.001 148.845 273.438 150.026C271.11 148.679 268.094 148.419 265.137 149.903C263.363 150.796 261.498 153.169 261.056 155.104Z" fill="#FF4148"/>
<path d="M238.407 88.3487C228.475 78.428 228.475 62.3434 238.407 52.4228C248.338 42.5021 264.44 42.5021 274.372 52.4228C284.303 62.3434 284.303 78.428 274.372 88.3487C264.44 98.2694 248.338 98.2694 238.407 88.3487Z" fill="white"/>
<path d="M256.375 96.0571C263.475 96.0571 270.541 93.1462 275.615 87.439C285.028 76.8503 284.063 60.5855 273.463 51.1812C268.329 46.6256 261.72 44.3388 254.868 44.7467C248.014 45.1529 241.726 48.2015 237.166 53.3304C232.605 58.4593 230.318 65.0559 230.724 71.9048C231.131 78.7538 234.183 85.0326 239.317 89.5882C244.204 93.9259 250.301 96.0571 256.375 96.0571ZM273.091 51.6022C278.114 56.0578 281.1 62.2007 281.497 68.9005C281.894 75.5988 279.657 82.0513 275.196 87.0704C265.988 97.4282 250.059 98.3733 239.69 89.1737C234.667 84.7181 231.68 78.5752 231.284 71.8753C230.885 65.1771 233.124 58.7246 237.584 53.7055C242.044 48.688 248.194 45.705 254.901 45.3086C261.607 44.9121 268.068 47.1465 273.091 51.6022Z" fill="black"/>
<path d="M255.136 92.0468L242.569 97.6049C241.313 98.1635 239.891 97.3002 239.798 95.934L238.881 82.2378" fill="white"/>
<path d="M241.762 98.0569C242.072 98.0569 242.386 97.9914 242.682 97.8587L255.249 92.3006L255.022 91.7895L242.456 97.3493C241.943 97.577 241.375 97.5426 240.895 97.2543C240.413 96.9643 240.114 96.4762 240.077 95.9143L239.16 82.2197L238.601 82.2574L239.517 95.9536C239.568 96.6891 239.975 97.3542 240.606 97.7342C240.965 97.9488 241.362 98.0569 241.762 98.0569Z" fill="black"/>
<path d="M249.65 56.8489L251.074 64.3728L247.899 64.5464L248.025 66.8283L251.548 66.635L252.591 72.2013L249.262 72.3847L249.388 74.665L253.066 74.4635L254.478 81.794L256.723 81.6712L255.349 74.3373L259.375 74.1162L260.788 81.4484L263.071 81.3222L261.697 73.9884L264.872 73.8148L264.745 71.5346L261.223 71.7278L260.218 66.1583L263.547 65.9748L263.42 63.6929L259.744 63.8944L258.32 56.3706L255.998 56.4984L257.422 64.0222L253.396 64.2433L251.972 56.7195L249.65 56.8489ZM257.896 66.2861L258.939 71.8523L254.913 72.0735L253.87 66.5072L257.896 66.2861Z" fill="#04B5A4"/>
<path d="M39.9168 207.954C27.9428 207.954 18.2359 198.258 18.2359 186.297C18.2359 174.336 27.9428 164.64 39.9168 164.64C51.8909 164.64 61.5978 174.336 61.5978 186.297C61.5978 198.258 51.8909 207.954 39.9168 207.954Z" fill="white"/>
<path d="M39.9168 208.234C52.0257 208.234 61.8782 198.393 61.8782 186.297C61.8782 174.201 52.0257 164.359 39.9168 164.359C27.8079 164.359 17.9554 174.201 17.9554 186.297C17.9554 198.393 27.8079 208.234 39.9168 208.234ZM39.9168 164.918C51.7174 164.918 61.319 174.509 61.319 186.297C61.319 198.085 51.7174 207.676 39.9168 207.676C28.1162 207.676 18.5146 198.085 18.5146 186.297C18.5146 174.509 28.1162 164.918 39.9168 164.918Z" fill="#242B2B"/>
<path d="M24.5265 183.782V194.53C24.5265 195.706 25.8728 196.378 26.8141 195.67L33.9591 190.297C34.7184 189.727 34.7184 188.589 33.9591 188.019L26.8141 182.646C25.8728 181.936 24.5265 182.606 24.5265 183.782Z" fill="#007AFD"/>
<path d="M25.9564 196.237C26.3188 196.237 26.678 196.121 26.9813 195.893L34.1263 190.52C34.5593 190.194 34.8069 189.698 34.8069 189.157C34.8069 188.616 34.5593 188.12 34.1263 187.794L26.9813 182.421C26.4615 182.03 25.7744 181.966 25.1906 182.257C24.6068 182.549 24.246 183.132 24.246 183.784V194.532C24.246 195.182 24.6084 195.767 25.1906 196.058C25.4349 196.178 25.6973 196.237 25.9564 196.237ZM25.9597 182.632C26.2007 182.632 26.4402 182.711 26.6468 182.867L33.7918 188.24C34.082 188.459 34.2493 188.793 34.2493 189.155C34.2493 189.517 34.082 189.853 33.7918 190.071L26.6468 195.444C26.2909 195.711 25.84 195.754 25.4431 195.554C25.0446 195.356 24.8069 194.972 24.8069 194.528V183.781C24.8069 183.337 25.0446 182.953 25.4431 182.755C25.6088 182.673 25.7842 182.632 25.9597 182.632Z" fill="#242B2B"/>
<path d="M32.1536 197.985H52.6834C53.2147 197.985 53.646 197.554 53.646 197.023V181.397C53.646 180.867 53.2147 180.436 52.6834 180.436H32.1536C31.6223 180.436 31.191 180.867 31.191 181.397V197.023C31.191 197.554 31.6223 197.985 32.1536 197.985Z" fill="white"/>
<path d="M34.4773 198.265H50.3613C52.3275 198.265 53.9264 196.668 53.9264 194.704V183.718C53.9264 181.754 52.3259 180.157 50.3613 180.157H34.4773C32.5111 180.157 30.9122 181.754 30.9122 183.718V194.704C30.9122 196.668 32.5111 198.265 34.4773 198.265ZM50.3613 180.716C52.0192 180.716 53.3672 182.062 53.3672 183.718V194.704C53.3672 196.36 52.0192 197.706 50.3613 197.706H34.4773C32.8194 197.706 31.4714 196.36 31.4714 194.704V183.718C31.4714 182.062 32.8194 180.716 34.4773 180.716H50.3613Z" fill="#242B2B"/>
<path d="M47.0854 186.564C46.1811 185.661 46.1811 184.196 47.0854 183.293C47.9897 182.39 49.4558 182.39 50.36 183.293C51.2643 184.196 51.2643 185.661 50.36 186.564C49.4558 187.467 47.9897 187.467 47.0854 186.564Z" fill="#FF4148"/>
<path d="M40.6437 185.479C40.3498 184.236 41.1205 182.99 42.3651 182.697C43.6096 182.403 44.8568 183.173 45.1506 184.416C45.4445 185.659 44.6738 186.905 43.4293 187.199C42.1847 187.492 40.9376 186.722 40.6437 185.479Z" fill="#07284B"/>
<path d="M39.6283 168.939L50.4008 162.932C51.4765 162.329 52.8196 162.983 53.0164 164.197L54.9695 176.361" fill="white"/>
<path d="M54.6939 176.407L55.2466 176.319L53.2918 164.154C53.1836 163.491 52.7589 162.923 52.1554 162.631C51.5437 162.336 50.8533 162.359 50.2613 162.69L39.4905 168.697L39.7644 169.185L50.5352 163.178C50.9648 162.937 51.4666 162.921 51.911 163.136C52.3571 163.35 52.6588 163.755 52.7375 164.245L54.6939 176.407Z" fill="black"/>
</svg>
