<svg width="277" height="278" viewBox="0 0 277 278" fill="none" xmlns="http://www.w3.org/2000/svg">
<path d="M257.498 164.96H159.423V229.984H257.498V164.96Z" fill="#455A64"/>
<path d="M222.84 211.871C230.783 203.919 230.783 191.027 222.84 183.075C214.897 175.123 202.019 175.123 194.076 183.075C186.132 191.027 186.132 203.919 194.076 211.871C202.019 219.823 214.897 219.823 222.84 211.871Z" fill="white"/>
<path d="M208.46 218.17C197.061 218.17 187.787 208.885 187.787 197.473C187.787 186.061 197.061 176.776 208.46 176.776C219.859 176.776 229.134 186.061 229.134 197.473C229.134 208.885 219.859 218.17 208.46 218.17ZM208.46 177.446C197.43 177.446 188.456 186.43 188.456 197.473C188.456 208.515 197.43 217.5 208.46 217.5C219.491 217.5 228.465 208.515 228.465 197.473C228.465 186.43 219.492 177.446 208.46 177.446Z" fill="black"/>
<path d="M221.418 194.542H211.388V184.501H205.535V194.542H195.505V200.402H205.535V210.443H211.388V200.402H221.418V194.542Z" fill="white"/>
<path d="M211.387 210.779H205.535C205.35 210.779 205.201 210.629 205.201 210.445V200.738H195.505C195.319 200.738 195.171 200.587 195.171 200.403V194.544C195.171 194.359 195.321 194.21 195.505 194.21H205.201V184.503C205.201 184.317 205.351 184.168 205.535 184.168H211.387C211.573 184.168 211.721 184.319 211.721 184.503V194.21H221.418C221.603 194.21 221.752 194.36 221.752 194.544V200.403C221.752 200.589 221.601 200.738 221.418 200.738H211.721V210.445C211.721 210.629 211.571 210.779 211.387 210.779ZM205.869 210.109H211.052V200.402C211.052 200.216 211.202 200.068 211.386 200.068H221.082V194.878H211.386C211.201 194.878 211.052 194.728 211.052 194.544V184.837H205.869V194.544C205.869 194.729 205.718 194.878 205.535 194.878H195.838V200.068H205.535C205.72 200.068 205.869 200.218 205.869 200.402V210.109Z" fill="black"/>
<path d="M225.06 165.296H191.863C191.678 165.296 191.529 165.146 191.529 164.962V150.585C191.529 150.4 191.679 150.251 191.863 150.251H225.06C225.245 150.251 225.393 150.401 225.393 150.585V164.962C225.393 165.146 225.245 165.296 225.06 165.296ZM192.196 164.626H224.726V150.918H192.196V164.626Z" fill="black"/>
<path d="M223.369 146.989H193.552V154.178H223.369V146.989Z" fill="white"/>
<path d="M223.369 154.514H193.553C193.368 154.514 193.219 154.363 193.219 154.179V146.991C193.219 146.806 193.369 146.657 193.553 146.657H223.369C223.554 146.657 223.703 146.807 223.703 146.991V154.179C223.703 154.363 223.554 154.514 223.369 154.514ZM193.887 153.844H223.035V147.325H193.887V153.844Z" fill="black"/>
<path d="M111.381 167.742H24.0739C23.9206 167.742 23.7871 167.637 23.7492 167.489L0.0104251 72.405C-0.0153713 72.3047 0.00739019 72.1984 0.0711224 72.1179C0.134855 72.0359 0.23197 71.9888 0.335156 71.9888H87.6423C87.7955 71.9888 87.929 72.0936 87.967 72.2425L111.707 167.326C111.733 167.426 111.71 167.533 111.647 167.613C111.581 167.695 111.484 167.742 111.381 167.742ZM24.3349 167.074H110.953L87.3797 72.6587H0.761555L24.3349 167.074Z" fill="#DBCDF0"/>
<path d="M148.088 190.342H54.1024C54.0296 190.342 53.9598 190.319 53.9021 190.275L23.8736 167.677C23.7583 167.59 23.7113 167.44 23.7568 167.303C23.8023 167.166 23.9298 167.074 24.0739 167.074H113.769C113.835 167.074 113.898 167.093 113.953 167.128L148.271 189.727C148.394 189.809 148.45 189.961 148.408 190.102C148.367 190.245 148.236 190.342 148.088 190.342ZM54.2147 189.672H146.972L113.671 167.742H25.0754L54.2147 189.672Z" fill="#DBCDF0"/>
<path d="M64.9308 278.001C64.7639 278.001 64.6198 277.876 64.6 277.707L53.7716 190.049C53.7489 189.865 53.8794 189.698 54.0615 189.676C54.2466 189.65 54.412 189.783 54.4347 189.966L65.2632 277.624C65.2859 277.808 65.1554 277.975 64.9733 277.998C64.9581 278.001 64.9445 278.001 64.9308 278.001Z" fill="#DBCDF0"/>
<path d="M4.95118 278C4.93146 278 4.91325 277.999 4.89352 277.996C4.71143 277.964 4.59003 277.791 4.6219 277.608L23.9221 167.35C23.954 167.168 24.124 167.046 24.3091 167.078C24.4912 167.11 24.6126 167.283 24.5807 167.466L5.28047 277.724C5.25163 277.886 5.11051 278 4.95118 278Z" fill="#DBCDF0"/>
<path d="M179.462 106.856C181.456 108.941 183.593 110.899 185.857 112.709L219.046 137.007L252.235 112.709C269.153 99.2007 278.872 77.2569 276.235 57.4095L268.848 11.336L219.046 0.334473L169.244 11.336L161.857 57.4095C159.573 74.6 166.558 93.3642 179.462 106.856Z" fill="white"/>
<path d="M219.046 137.341C218.976 137.341 218.908 137.32 218.849 137.278L185.659 112.979C183.4 111.176 181.238 109.197 179.221 107.088C166.06 93.3279 159.28 74.275 161.528 57.3656L168.916 11.2829C168.937 11.1477 169.04 11.0383 169.174 11.0095L218.976 0.00797541C219.023 -0.00265847 219.073 -0.00265847 219.12 0.00797541L268.923 11.0095C269.056 11.0399 269.159 11.1477 269.18 11.2829L276.567 57.3565C277.865 67.1245 276.243 77.5685 271.877 87.5704C267.543 97.4979 260.824 106.281 252.446 112.97L219.245 137.276C219.184 137.32 219.116 137.341 219.046 137.341ZM179.703 106.625C181.7 108.712 183.84 110.672 186.065 112.448L219.046 136.593L252.038 112.438C268.889 98.9836 278.485 76.8833 275.903 57.4537L268.552 11.6141L219.046 0.67791L169.538 11.6141L162.186 57.4628C159.968 74.1656 166.679 93.0073 179.703 106.625Z" fill="black"/>
<path d="M219.046 9.9248L177.034 19.2051L170.802 58.072C168.578 74.8143 176.775 93.3263 191.046 104.72L219.044 125.217V9.9248H219.046Z" fill="#07284B"/>
<path d="M219.046 125.217L247.044 104.72C261.316 93.3248 269.514 74.8127 267.288 58.072L261.056 19.2051L219.044 9.9248V125.217H219.046Z" fill="#153D67"/>
<path d="M161.128 73.106L150.164 89.126L155.922 93.0756L166.886 77.0556L161.128 73.106Z" fill="white"/>
<path d="M155.928 93.4069C155.863 93.4069 155.798 93.3887 155.74 93.3477L149.981 89.398C149.909 89.3478 149.859 89.2704 149.842 89.1838C149.825 89.0972 149.845 89.006 149.895 88.9331L160.86 72.9124C160.965 72.7605 161.173 72.721 161.324 72.8258L167.083 76.7755C167.156 76.8257 167.206 76.9031 167.223 76.9897C167.239 77.0763 167.22 77.1675 167.169 77.2404L156.204 93.2611C156.139 93.3553 156.035 93.4069 155.928 93.4069ZM150.635 89.0349L155.842 92.6063L166.429 77.1371L161.223 73.5656L150.635 89.0349Z" fill="black"/>
<path d="M150.98 94.1104C150.821 94.1104 150.679 93.995 150.651 93.8339L149.84 89.1808C149.818 89.0487 149.875 88.915 149.989 88.8421C150.103 88.7692 150.249 88.7722 150.359 88.8466L156.118 92.7964C156.232 92.8738 156.286 93.0136 156.255 93.1488C156.223 93.284 156.112 93.3843 155.977 93.404L151.028 94.1074C151.012 94.1089 150.997 94.1104 150.98 94.1104ZM150.635 89.8477L151.255 93.3995L155.031 92.8617L150.635 89.8477Z" fill="#DBCDF0"/>
<path d="M142.318 106.766C142.253 106.766 142.188 106.748 142.13 106.707C141.979 106.602 141.939 106.394 142.044 106.242L150.705 93.5862C150.81 93.4343 151.018 93.3948 151.17 93.4996C151.321 93.6045 151.361 93.8126 151.256 93.9645L142.595 106.62C142.531 106.715 142.425 106.766 142.318 106.766Z" fill="black"/>
<path d="M170.461 72.6162C170.396 72.6162 170.33 72.5979 170.273 72.5584L164.514 68.6087C164.362 68.5039 164.323 68.2958 164.427 68.1439C164.532 67.9919 164.74 67.9524 164.892 68.0573L170.65 72.007C170.802 72.1118 170.842 72.3199 170.737 72.4718C170.672 72.5645 170.567 72.6162 170.461 72.6162Z" fill="black"/>
<path d="M164.027 75.4204C163.962 75.4204 163.895 75.4006 163.837 75.3611C163.685 75.2563 163.647 75.0482 163.752 74.8963L167.128 69.9941C167.233 69.8422 167.441 69.8027 167.593 69.909C167.745 70.0138 167.782 70.2219 167.678 70.3739L164.301 75.2746C164.238 75.3687 164.133 75.4204 164.027 75.4204Z" fill="black"/>
<path d="M201.642 92.7418L200.706 70.7646L178.303 77.543L167.045 105.331L201.642 92.7418Z" fill="#DBCDF0"/>
<path d="M144.825 90.4114L169.587 80.894L171.867 86.8399L147.106 96.3587C145.543 96.9603 143.789 96.178 143.188 94.6133L143.082 94.3353C142.481 92.769 143.262 91.0129 144.825 90.4114Z" fill="#DBCDF0"/>
<path d="M165.256 82.5591L178.303 77.5444L199.403 85.8146L194.722 93.8052C192.263 98.0025 188.401 101.196 183.82 102.823L174.365 106.177L165.256 82.5591Z" fill="#DBCDF0"/>
<path d="M157.667 98.4643L156.452 95.2954L162.391 93.0122L163.773 96.6171L173.009 93.0669L175.289 99.0128L166.49 102.394C162.969 103.751 159.019 101.99 157.667 98.4643Z" fill="#DBCDF0"/>
<path d="M163.861 103.611L162.429 99.8101L168.368 97.5269L169.751 101.132L178.986 97.5815L181.266 103.527L171.848 107.182C168.656 108.422 165.069 106.818 163.861 103.611Z" fill="#DBCDF0"/>
<path d="M180.398 84.3788L173.166 88.2526C173.166 88.2526 170.175 77.6384 169.395 75.0681C169.312 74.6336 168.084 71.9827 168.826 67.6912C168.866 67.6061 169.137 63.5698 173.212 62.3317L173.317 62.2998C175.022 61.7818 176.679 63.2493 176.368 65.0069C175.999 67.0851 175.606 68.5768 176.297 70.851L180.398 84.3788Z" fill="#DBCDF0"/>
<path d="M169.593 107.953C168.697 107.953 167.804 107.764 166.96 107.389C165.371 106.683 164.154 105.399 163.532 103.774L163.229 102.981C163.163 102.807 163.248 102.614 163.421 102.549C163.593 102.484 163.787 102.569 163.852 102.742L164.156 103.535C164.713 104.993 165.805 106.145 167.23 106.778C168.656 107.412 170.242 107.45 171.696 106.888L183.187 102.434L185.955 101.545C189.013 100.565 191.649 98.5341 193.377 95.827C193.415 95.7693 193.468 95.7237 193.532 95.6979L201.296 92.5229L200.389 71.2126L178.418 77.8603C178.242 77.9135 178.055 77.8132 178.002 77.637L175.974 70.9498C175.327 68.82 175.593 67.3723 175.93 65.5402C175.964 65.3473 176.001 65.1483 176.037 64.9462C176.163 64.2383 175.916 63.5289 175.377 63.0519C174.837 62.5719 174.103 62.4123 173.415 62.6205L173.306 62.6539C170.092 63.6307 169.342 66.4775 169.169 67.6564C169.162 67.705 169.157 67.7384 169.151 67.7657C168.535 71.3524 169.32 73.7435 169.615 74.6443C169.667 74.7993 169.702 74.9056 169.719 74.9861C169.978 75.8414 170.494 77.6234 171.254 80.2864C171.304 80.4641 171.203 80.6494 171.025 80.6996C170.849 80.7482 170.663 80.6479 170.612 80.4702C169.849 77.7965 169.333 76.0131 169.075 75.1669C169.072 75.1548 169.069 75.1441 169.066 75.132C169.056 75.0773 169.024 74.9846 168.98 74.8525C168.67 73.9061 167.845 71.3934 168.496 67.6336C168.497 67.6245 168.499 67.6169 168.5 67.6078L168.508 67.5561C168.699 66.2512 169.532 63.099 173.112 62.0098L173.221 61.9764C174.133 61.6984 175.106 61.9126 175.82 62.5475C176.533 63.181 176.861 64.1214 176.694 65.0602C176.658 65.2653 176.621 65.4643 176.587 65.6587C176.266 67.4012 176.015 68.7775 176.612 70.7523L178.544 77.1205L200.608 70.444C200.706 70.4136 200.814 70.4318 200.897 70.4911C200.982 70.5503 201.034 70.646 201.039 70.7493L201.975 92.7265C201.981 92.8678 201.897 92.9969 201.767 93.0501L193.882 96.2752C192.069 99.0688 189.33 101.164 186.159 102.182L183.409 103.063L171.936 107.509C171.177 107.805 170.385 107.953 169.593 107.953Z" fill="black"/>
<path d="M153.13 93.9218L170.62 87.1997L172.901 93.1456L159.755 98.1982C157.356 99.1203 154.664 97.9202 153.743 95.5184L153.13 93.9218Z" fill="#DBCDF0"/>
<path d="M164.062 103.183C161.2 103.183 158.485 101.455 157.379 98.6435C157.311 98.4719 157.396 98.2774 157.567 98.2091C157.739 98.1422 157.933 98.2258 158.001 98.3974C159.302 101.705 163.059 103.357 166.371 102.083L175.171 98.7012C175.342 98.6359 175.537 98.721 175.603 98.8942C175.67 99.0674 175.584 99.2603 175.411 99.3271L166.611 102.709C165.773 103.031 164.91 103.183 164.062 103.183Z" fill="black"/>
<path d="M158.094 98.8427C156.088 98.8427 154.192 97.6229 153.431 95.6389L152.858 94.1471C152.792 93.9739 152.878 93.781 153.051 93.7141C153.223 93.6488 153.417 93.7339 153.484 93.9071L154.056 95.3989C154.91 97.6259 157.415 98.7394 159.637 97.8857L172.358 92.9956C172.531 92.9303 172.723 93.0153 172.79 93.1885C172.857 93.3617 172.77 93.5546 172.597 93.6215L159.877 98.5115C159.289 98.7364 158.685 98.8427 158.094 98.8427Z" fill="black"/>
<path d="M146.022 96.8952C144.669 96.8952 143.39 96.0718 142.875 94.7335L142.769 94.4539C142.447 93.6139 142.47 92.6978 142.836 91.876C143.202 91.0541 143.865 90.4237 144.705 90.1001L173.362 79.085C173.535 79.0196 173.728 79.1047 173.795 79.2779C173.861 79.4511 173.775 79.644 173.602 79.7108L144.945 90.7245C144.273 90.9827 143.74 91.4886 143.447 92.1479C143.154 92.8072 143.135 93.5409 143.394 94.2139L143.5 94.4919C144.035 95.8819 145.598 96.5792 146.986 96.0445L170.96 86.8295C171.131 86.7641 171.326 86.8492 171.392 87.0224C171.459 87.1956 171.373 87.3885 171.2 87.4553L147.226 96.6703C146.83 96.8223 146.423 96.8952 146.022 96.8952Z" fill="black"/>
<path d="M271.822 78.5851L204.448 101.662L192.896 67.857L272.812 40.4839L271.822 78.5851Z" fill="white"/>
<path d="M204.448 101.996C204.309 101.996 204.18 101.91 204.133 101.77L192.579 67.9648C192.55 67.8812 192.556 67.7885 192.596 67.7095C192.635 67.6305 192.703 67.5683 192.787 67.5409L272.704 40.1678C272.877 40.1085 273.068 40.2012 273.129 40.3759C273.188 40.5506 273.095 40.7405 272.921 40.8013L193.321 68.065L204.658 101.237L271.715 78.2675C271.888 78.2082 272.079 78.3009 272.139 78.4756C272.199 78.6503 272.106 78.8402 271.932 78.9009L204.558 101.978C204.521 101.99 204.485 101.996 204.448 101.996Z" fill="black"/>
<path d="M80.0021 148.205H62.8642C53.104 148.205 45.1921 140.284 45.1921 130.513V120.933C45.1921 112.663 50.9159 105.496 58.975 103.676L80.0021 98.9258V148.205Z" fill="#07284B"/>
<path d="M80.002 148.54H62.8642C52.9356 148.54 44.8583 140.454 44.8583 130.514V120.935C44.8583 112.449 50.6336 105.218 58.9006 103.351L79.9277 98.6021C80.0263 98.5793 80.131 98.6036 80.2099 98.6675C80.2888 98.7313 80.3359 98.827 80.3359 98.9287V148.206C80.3359 148.39 80.1872 148.54 80.002 148.54ZM79.6682 99.3465L59.0493 104.004C51.0889 105.803 45.5275 112.765 45.5275 120.935V130.514C45.5275 140.085 53.3058 147.87 62.8657 147.87H79.6682V99.3465Z" fill="black"/>
<path d="M54.7034 127.274H45.1921C45.007 127.274 44.8583 127.124 44.8583 126.94V119.719C44.8583 119.534 45.0085 119.385 45.1921 119.385H54.7034C54.8885 119.385 55.0372 119.536 55.0372 119.719V126.94C55.0387 127.124 54.8885 127.274 54.7034 127.274ZM45.5275 126.604H54.3696V120.054H45.5275V126.604Z" fill="black"/>
<path d="M110.813 136.337L101.941 160.083L142.853 171.498L147.863 226.034L167.356 224.24L162.013 166.088C161.391 159.313 156.942 153.494 150.57 151.125L110.813 136.337Z" fill="#DBCDF0"/>
<path d="M121.639 163.399L132.394 168.941L147.576 150.038L141.426 145.809L121.639 163.399Z" fill="black"/>
<path d="M167.355 224.24L147.863 226.034L143.118 191.559L164.957 189.548L167.355 224.24Z" fill="#07284B"/>
<path d="M147.863 226.368C147.698 226.368 147.555 226.247 147.532 226.08L142.787 191.605C142.775 191.514 142.799 191.422 142.857 191.351C142.913 191.28 142.998 191.234 143.088 191.226L164.927 189.215C165.018 189.208 165.106 189.235 165.174 189.294C165.242 189.353 165.285 189.435 165.291 189.527L167.688 224.217C167.701 224.398 167.567 224.558 167.385 224.574L147.892 226.368C147.883 226.368 147.872 226.368 147.863 226.368ZM143.498 191.86L148.151 225.671L167 223.936L164.648 189.912L143.498 191.86Z" fill="black"/>
<path d="M144.505 214.419L162.312 212.78L162.168 211.215C162.021 209.608 163.203 208.185 164.808 208.037L168.402 207.706L174.807 219.311C176.869 223.048 180.405 225.746 184.55 226.748L192.148 228.586C196.755 229.701 200.145 233.627 200.579 238.351L200.844 241.241L179.675 243.19C176.524 243.48 173.353 243.412 170.218 242.989L143.971 239.442L143.567 235.056C143.359 232.794 143.578 230.514 144.211 228.333L144.449 227.509C145.082 225.328 145.3 223.048 145.092 220.786L144.505 214.419Z" fill="white"/>
<path d="M175.832 243.699C173.939 243.699 172.045 243.571 170.171 243.319L143.924 239.772C143.769 239.75 143.651 239.626 143.636 239.471L143.232 235.084C143.019 232.771 143.239 230.467 143.887 228.237L144.126 227.414C144.749 225.264 144.962 223.045 144.757 220.814L144.173 214.449C144.165 214.361 144.192 214.273 144.249 214.205C144.305 214.136 144.387 214.094 144.475 214.085L161.949 212.476L161.836 211.245C161.672 209.457 162.992 207.868 164.778 207.703L168.371 207.372C168.506 207.361 168.631 207.428 168.694 207.543L175.1 219.148C177.112 222.792 180.585 225.445 184.628 226.423L192.225 228.261C196.972 229.41 200.462 233.452 200.91 238.321L201.175 241.21C201.192 241.394 201.057 241.557 200.873 241.575L179.703 243.524C178.417 243.641 177.125 243.699 175.832 243.699ZM144.277 239.144L170.26 242.656C173.365 243.076 176.521 243.144 179.643 242.855L200.48 240.937L200.245 238.382C199.825 233.798 196.538 229.991 192.069 228.911L184.471 227.073C180.247 226.051 176.617 223.282 174.515 219.472L168.215 208.06L164.84 208.371C163.421 208.502 162.373 209.764 162.503 211.186L162.647 212.751C162.664 212.935 162.529 213.097 162.346 213.116L144.871 214.724L145.425 220.757C145.637 223.07 145.417 225.373 144.769 227.603L144.531 228.427C143.907 230.576 143.696 232.797 143.9 235.026L144.277 239.144Z" fill="black"/>
<path d="M175.832 243.699C173.939 243.699 172.045 243.571 170.171 243.319L143.924 239.772C143.769 239.75 143.651 239.626 143.636 239.471L143.232 235.084C143.019 232.771 143.239 230.467 143.887 228.237L144.126 227.414C144.749 225.264 144.962 223.045 144.757 220.814L144.173 214.449C144.165 214.361 144.192 214.273 144.249 214.205C144.305 214.136 144.387 214.094 144.475 214.085L161.949 212.476L161.836 211.245C161.672 209.457 162.992 207.868 164.778 207.703L168.371 207.372C168.506 207.361 168.631 207.428 168.694 207.543L175.1 219.148C177.112 222.792 180.585 225.445 184.628 226.423L192.225 228.261C196.972 229.41 200.462 233.452 200.91 238.321L201.175 241.21C201.192 241.394 201.057 241.557 200.873 241.575L179.703 243.524C178.417 243.641 177.125 243.699 175.832 243.699ZM144.277 239.144L170.26 242.656C173.365 243.076 176.521 243.144 179.643 242.855L200.48 240.937L200.245 238.382C199.825 233.798 196.538 229.991 192.069 228.911L184.471 227.073C180.247 226.051 176.617 223.282 174.515 219.472L168.215 208.06L164.84 208.371C163.421 208.502 162.373 209.764 162.503 211.186L162.647 212.751C162.664 212.935 162.529 213.097 162.346 213.116L144.871 214.724L145.425 220.757C145.637 223.07 145.417 225.373 144.769 227.603L144.531 228.427C143.907 230.576 143.696 232.797 143.9 235.026L144.277 239.144Z" fill="black"/>
<path d="M176.095 227.86C176.069 227.86 176.042 227.857 176.016 227.851C171.79 226.829 168.162 224.059 166.059 220.249C165.969 220.088 166.028 219.883 166.189 219.795C166.352 219.706 166.553 219.765 166.643 219.926C168.655 223.57 172.128 226.223 176.171 227.201C176.35 227.244 176.461 227.426 176.417 227.605C176.383 227.757 176.247 227.86 176.095 227.86Z" fill="black"/>
<path d="M166.353 220.423C166.235 220.423 166.121 220.36 166.06 220.25L162.024 212.938C161.934 212.777 161.994 212.572 162.154 212.484C162.317 212.394 162.52 212.453 162.608 212.614L166.644 219.926C166.734 220.087 166.675 220.292 166.514 220.38C166.462 220.409 166.408 220.423 166.353 220.423Z" fill="black"/>
<path d="M157.444 220.526L145.358 221.639C143.361 221.823 141.595 220.353 141.411 218.353C141.227 216.354 142.698 214.586 144.693 214.402L162.314 212.78L162.47 214.478C162.749 217.536 160.5 220.245 157.444 220.526Z" fill="#DBCDF0"/>
<path d="M145.016 221.99C144.094 221.99 143.208 221.671 142.488 221.073C141.675 220.395 141.173 219.44 141.076 218.384C140.979 217.328 141.299 216.298 141.975 215.482C142.652 214.666 143.607 214.165 144.661 214.068L162.282 212.445C162.47 212.427 162.628 212.564 162.646 212.748L162.802 214.446C162.946 216.015 162.471 217.547 161.465 218.757C160.459 219.97 159.042 220.716 157.475 220.86L145.388 221.972C145.264 221.984 145.139 221.99 145.016 221.99ZM162.01 213.143L144.722 214.735C143.845 214.815 143.053 215.233 142.49 215.911C141.927 216.588 141.661 217.445 141.742 218.323C141.822 219.201 142.24 219.994 142.916 220.558C143.593 221.121 144.45 221.389 145.326 221.307L157.412 220.195C158.802 220.067 160.059 219.405 160.949 218.331C161.842 217.257 162.262 215.9 162.135 214.508L162.01 213.143Z" fill="black"/>
<path d="M169.556 239.328L141.819 235.225L143.208 250.337L159.648 248.824L159.195 243.908L171.392 245.584L171.59 247.724L202.306 244.896L201.702 238.32L185.861 239.778C180.429 240.278 174.955 240.126 169.556 239.328Z" fill="black"/>
<path d="M165.045 215.681C164.874 215.681 164.728 215.551 164.713 215.377C164.696 215.194 164.831 215.031 165.015 215.013L170.699 214.49C170.881 214.47 171.045 214.609 171.063 214.792C171.08 214.976 170.945 215.139 170.761 215.157L165.077 215.68C165.066 215.681 165.056 215.681 165.045 215.681Z" fill="black"/>
<path d="M167.634 219.923C167.462 219.923 167.317 219.792 167.301 219.619C167.285 219.435 167.42 219.273 167.603 219.254L173.288 218.73C173.473 218.709 173.634 218.849 173.652 219.032C173.669 219.216 173.534 219.379 173.35 219.397L167.666 219.921C167.653 219.923 167.643 219.923 167.634 219.923Z" fill="black"/>
<path d="M171.546 224.043C171.374 224.043 171.229 223.912 171.213 223.739C171.197 223.555 171.332 223.392 171.515 223.374L175.875 222.973C176.063 222.956 176.221 223.092 176.239 223.275C176.256 223.459 176.121 223.622 175.937 223.64L171.578 224.041C171.565 224.043 171.556 224.043 171.546 224.043Z" fill="black"/>
<path d="M176.623 226.885C176.452 226.885 176.306 226.754 176.291 226.581C176.274 226.397 176.409 226.235 176.593 226.217L179.993 225.904C180.178 225.887 180.339 226.022 180.357 226.206C180.374 226.39 180.239 226.552 180.055 226.571L176.655 226.884C176.644 226.885 176.634 226.885 176.623 226.885Z" fill="black"/>
<path d="M185.345 229.451C183.541 229.451 181.744 229.237 179.981 228.81L176.018 227.851C175.838 227.809 175.728 227.626 175.772 227.447C175.816 227.268 175.996 227.157 176.175 227.201L180.139 228.16C182.515 228.734 184.954 228.913 187.386 228.688L188.189 228.614C188.374 228.599 188.535 228.732 188.553 228.916C188.57 229.1 188.435 229.263 188.251 229.281L187.448 229.355C186.746 229.419 186.045 229.451 185.345 229.451Z" fill="black"/>
<path d="M98.5481 141.805L82.6864 161.569L117.961 185.249L105.639 238.608L124.71 243.023L137.848 186.126C139.379 179.496 136.976 172.575 131.668 168.325L98.5481 141.805Z" fill="#DBCDF0"/>
<path d="M105.639 176.976L115.164 183.371L129.414 166.518L123.263 162.291L105.639 176.976Z" fill="black"/>
<path d="M124.71 243.357C124.684 243.357 124.66 243.354 124.634 243.348L105.562 238.933C105.381 238.891 105.27 238.712 105.311 238.532L117.581 185.398L82.4982 161.847C82.4208 161.795 82.3677 161.712 82.354 161.62C82.3404 161.528 82.3647 161.434 82.4239 161.361L98.2856 141.598C98.4009 141.454 98.6103 141.431 98.7545 141.547L131.876 168.065C137.252 172.368 139.722 179.488 138.173 186.203L125.036 243.097C125.017 243.184 124.964 243.258 124.888 243.305C124.833 243.339 124.772 243.357 124.71 243.357ZM106.04 238.358L124.46 242.62L137.523 186.05C139.017 179.586 136.636 172.73 131.46 168.586L98.5997 142.276L83.175 161.494L118.147 184.971C118.263 185.048 118.319 185.188 118.287 185.325L106.04 238.358Z" fill="black"/>
<path d="M124.71 243.021L105.639 238.608L111.93 204.382L133.297 209.327L124.71 243.021Z" fill="#07284B"/>
<path d="M124.71 243.357C124.684 243.357 124.66 243.354 124.634 243.348L105.563 238.934C105.389 238.893 105.278 238.722 105.31 238.548L111.601 204.322C111.618 204.232 111.669 204.153 111.747 204.103C111.823 204.053 111.915 204.036 112.006 204.056L133.373 209.001C133.461 209.02 133.537 209.075 133.584 209.153C133.631 209.23 133.645 209.323 133.622 209.409L125.035 243.104C124.995 243.255 124.86 243.357 124.71 243.357ZM106.024 238.355L124.466 242.623L132.888 209.578L112.194 204.788L106.024 238.355Z" fill="black"/>
<path d="M106.088 226.523L123.511 230.555L123.865 229.024C124.228 227.452 125.797 226.47 127.367 226.835L130.883 227.649L133.332 240.679C134.121 244.874 136.633 248.546 140.255 250.799L146.894 254.928C150.919 257.433 152.909 262.223 151.84 266.847L151.188 269.674L130.475 264.88C127.393 264.166 124.402 263.107 121.557 261.72L97.7439 250.112L98.7348 245.821C99.2462 243.608 100.167 241.511 101.451 239.638L101.935 238.932C103.219 237.059 104.14 234.962 104.651 232.749L106.088 226.523Z" fill="white"/>
<path d="M151.185 270.01C151.159 270.01 151.135 270.007 151.109 270.001L130.396 265.207C127.296 264.49 124.272 263.417 121.408 262.023L97.5952 250.416C97.4556 250.348 97.3812 250.192 97.4161 250.04L98.407 245.748C98.929 243.486 99.8592 241.367 101.173 239.453L101.657 238.745C102.923 236.899 103.82 234.858 104.324 232.676L105.762 226.448C105.805 226.267 105.984 226.156 106.163 226.197L123.26 230.154L123.537 228.95C123.733 228.102 124.247 227.382 124.983 226.92C125.721 226.46 126.593 226.314 127.44 226.508L130.954 227.323C131.083 227.353 131.184 227.456 131.208 227.587L133.657 240.617C134.426 244.709 136.894 248.317 140.428 250.515L147.067 254.644C151.215 257.225 153.264 262.159 152.164 266.923L151.511 269.75C151.491 269.837 151.438 269.911 151.362 269.958C151.309 269.992 151.247 270.01 151.185 270.01ZM98.1278 249.932L121.701 261.422C124.519 262.796 127.496 263.852 130.548 264.556L150.935 269.275L151.511 266.774C152.548 262.29 150.619 257.644 146.713 255.215L140.074 251.086C136.382 248.789 133.803 245.02 133 240.743L130.592 227.929L127.29 227.165C126.618 227.01 125.924 227.125 125.338 227.491C124.753 227.857 124.345 228.43 124.19 229.103L123.836 230.634C123.794 230.815 123.616 230.926 123.436 230.885L106.339 226.928L104.976 232.83C104.454 235.093 103.522 237.211 102.21 239.125L101.726 239.833C100.46 241.678 99.5633 243.72 99.0595 245.902L98.1278 249.932Z" fill="black"/>
<path d="M151.185 270.01C151.159 270.01 151.135 270.007 151.109 270.001L130.396 265.207C127.296 264.49 124.272 263.417 121.408 262.023L97.5952 250.416C97.4556 250.348 97.3812 250.192 97.4161 250.04L98.407 245.748C98.929 243.486 99.8592 241.367 101.173 239.453L101.657 238.745C102.923 236.899 103.82 234.858 104.324 232.676L105.762 226.448C105.805 226.267 105.984 226.156 106.163 226.197L123.26 230.154L123.537 228.95C123.733 228.102 124.247 227.382 124.983 226.92C125.721 226.46 126.593 226.314 127.44 226.508L130.954 227.323C131.083 227.353 131.184 227.456 131.208 227.587L133.657 240.617C134.426 244.709 136.894 248.317 140.428 250.515L147.067 254.644C151.215 257.225 153.264 262.159 152.164 266.923L151.511 269.75C151.491 269.837 151.438 269.911 151.362 269.958C151.309 269.992 151.247 270.01 151.185 270.01ZM98.1278 249.932L121.701 261.422C124.519 262.796 127.496 263.852 130.548 264.556L150.935 269.275L151.511 266.774C152.548 262.29 150.619 257.644 146.713 255.215L140.074 251.086C136.382 248.789 133.803 245.02 133 240.743L130.592 227.929L127.29 227.165C126.618 227.01 125.924 227.125 125.338 227.491C124.753 227.857 124.345 228.43 124.19 229.103L123.836 230.634C123.794 230.815 123.616 230.926 123.436 230.885L106.339 226.928L104.976 232.83C104.454 235.093 103.522 237.211 102.21 239.125L101.726 239.833C100.46 241.678 99.5633 243.72 99.0595 245.902L98.1278 249.932Z" fill="black"/>
<path d="M131.98 249.221C131.92 249.221 131.859 249.204 131.804 249.17C128.112 246.874 125.533 243.105 124.73 238.827C124.695 238.646 124.815 238.47 124.997 238.436C125.179 238.403 125.354 238.521 125.387 238.704C126.156 242.796 128.624 246.404 132.158 248.602C132.314 248.7 132.363 248.906 132.266 249.063C132.202 249.164 132.093 249.221 131.98 249.221Z" fill="black"/>
<path d="M125.058 239.099C124.9 239.099 124.76 238.987 124.73 238.826L123.187 230.616C123.152 230.435 123.272 230.259 123.454 230.226C123.636 230.192 123.81 230.311 123.844 230.493L125.387 238.703C125.422 238.883 125.302 239.06 125.12 239.093C125.099 239.098 125.079 239.099 125.058 239.099Z" fill="black"/>
<path d="M116.461 236.386L104.636 233.648C102.683 233.196 101.465 231.245 101.917 229.288C102.369 227.332 104.317 226.113 106.272 226.566L123.513 230.557L123.129 232.217C122.436 235.211 119.452 237.077 116.461 236.386Z" fill="#DBCDF0"/>
<path d="M117.713 236.863C117.275 236.863 116.83 236.814 116.386 236.711L104.56 233.973C102.431 233.481 101.097 231.345 101.591 229.212C102.084 227.08 104.216 225.746 106.346 226.239L123.587 230.23C123.768 230.273 123.879 230.452 123.838 230.631L123.454 232.293C122.824 235.017 120.395 236.863 117.713 236.863ZM105.452 226.808C103.953 226.808 102.594 227.841 102.242 229.364C102.043 230.223 102.191 231.107 102.657 231.856C103.123 232.603 103.853 233.124 104.71 233.323L116.536 236.061C119.343 236.709 122.152 234.953 122.801 232.144L123.109 230.809L106.194 226.894C105.947 226.835 105.698 226.808 105.452 226.808Z" fill="black"/>
<path d="M122.076 258.041L97.0231 245.438L93.6089 260.224L109.694 263.945L110.804 259.136L121.862 264.556L121.378 266.65L151.431 273.606L152.916 267.171L137.419 263.584C132.102 262.353 126.951 260.493 122.076 258.041Z" fill="black"/>
<path d="M130.863 235.474C130.839 235.474 130.813 235.471 130.788 235.465L125.226 234.178C125.046 234.136 124.935 233.956 124.976 233.777C125.018 233.598 125.196 233.484 125.376 233.526L130.938 234.813C131.118 234.856 131.229 235.035 131.188 235.214C131.153 235.369 131.015 235.474 130.863 235.474Z" fill="black"/>
<path d="M131.992 240.314C131.968 240.314 131.942 240.311 131.916 240.305L126.355 239.019C126.175 238.976 126.064 238.797 126.105 238.618C126.147 238.438 126.325 238.326 126.505 238.367L132.067 239.654C132.247 239.696 132.358 239.875 132.317 240.055C132.282 240.21 132.144 240.314 131.992 240.314Z" fill="black"/>
<path d="M133.121 245.154C133.097 245.154 133.071 245.151 133.046 245.145L128.78 244.158C128.599 244.115 128.489 243.936 128.53 243.757C128.572 243.577 128.75 243.465 128.93 243.506L133.196 244.493C133.376 244.536 133.487 244.715 133.446 244.894C133.411 245.049 133.273 245.154 133.121 245.154Z" fill="black"/>
<path d="M136.117 249.23C136.092 249.23 136.067 249.227 136.041 249.221L132.713 248.451C132.533 248.408 132.422 248.229 132.463 248.05C132.505 247.87 132.683 247.758 132.863 247.799L136.191 248.569C136.372 248.612 136.482 248.791 136.441 248.97C136.405 249.125 136.268 249.23 136.117 249.23Z" fill="black"/>
<path d="M143.045 254.374C143.021 254.374 142.995 254.37 142.969 254.364L142.185 254.184C139.733 253.615 137.405 252.654 135.267 251.325L131.803 249.171C131.646 249.073 131.598 248.867 131.695 248.71C131.792 248.554 131.998 248.505 132.155 248.602L135.619 250.756C137.695 252.048 139.954 252.982 142.335 253.532L143.12 253.713C143.3 253.754 143.413 253.935 143.37 254.114C143.335 254.269 143.199 254.374 143.045 254.374Z" fill="black"/>
<path d="M108.217 183.371L85.6985 171.168C73.8063 166.887 67.6319 153.766 71.9065 141.859L80.5164 117.888L111.965 129.207L110.612 132.974L152.133 146.312L108.217 183.371Z" fill="#DBCDF0"/>
<path d="M123.191 130.788L105.97 108.776L119.002 100.308L132.886 118.077C135.945 121.659 140.417 123.721 145.124 123.719L158.764 123.713V136.96L135.865 136.966C130.916 136.968 126.243 134.689 123.191 130.788Z" fill="#DBCDF0"/>
<path d="M183.206 130.045L182.711 131.054L177.747 130.742L173.814 126.349H141.584V123.808H152.918C154.549 123.808 159.065 121.172 162.746 121.172H169.45C171.6 121.172 173.722 121.667 175.649 122.618L181.691 125.599C183.335 126.41 184.011 128.398 183.206 130.045Z" fill="#DBCDF0"/>
<path d="M177.273 132.939L182.822 135.652C184.004 136.236 185.435 135.747 186.013 134.56L186.022 134.54C186.719 133.111 186.13 131.385 184.703 130.682L178.266 127.505C176.338 126.554 174.216 126.059 172.068 126.059H141.584V135.373H164.286L166.611 133.155C168.159 131.678 170.309 130.999 172.417 131.359C173.802 131.598 175.476 132.06 177.273 132.939Z" fill="#DBCDF0"/>
<path d="M183.872 136.234C183.462 136.234 183.054 136.14 182.675 135.953L177.127 133.24C175.593 132.489 173.99 131.968 172.362 131.69C170.447 131.364 168.5 131.926 167.021 133.235C166.884 133.357 166.672 133.344 166.549 133.206C166.426 133.068 166.44 132.857 166.578 132.734C168.207 131.289 170.358 130.669 172.473 131.031C174.163 131.319 175.828 131.86 177.418 132.638L182.967 135.351C183.461 135.594 184.018 135.629 184.535 135.453C185.054 135.275 185.471 134.906 185.711 134.412C186.335 133.132 185.813 131.602 184.555 130.982L178.118 127.806C176.245 126.882 174.153 126.394 172.066 126.394H169.696C169.511 126.394 169.362 126.244 169.362 126.06C169.362 125.875 169.512 125.726 169.696 125.726H172.066C174.254 125.726 176.45 126.238 178.414 127.206L184.851 130.382C186.436 131.165 187.096 133.097 186.321 134.687C185.993 135.362 185.438 135.851 184.75 136.087C184.464 136.185 184.166 136.234 183.872 136.234Z" fill="black"/>
<path d="M166.817 132.874C167.323 132.959 167.869 133.006 168.468 133.006C168.69 133.03 169.623 133.021 172.884 133.014C174.515 133.009 175.843 134.332 175.843 135.967V136.009C175.843 137.639 174.523 138.961 172.895 138.961H160.517C151.854 138.961 152.241 132.373 152.241 132.373V129.04H155.01C161.242 129.038 162.71 132.184 166.817 132.874Z" fill="#DBCDF0"/>
<path d="M172.811 139.295H161.388C157.951 139.295 155.584 138.669 153.956 137.329H135.866C135.865 137.329 135.863 137.329 135.862 137.329C130.865 137.329 126.03 134.962 122.929 130.996L105.707 108.981C105.65 108.906 105.625 108.812 105.641 108.72C105.656 108.627 105.709 108.545 105.788 108.495L118.819 100.027C118.965 99.9329 119.158 99.9648 119.266 100.102L133.15 117.871C136.193 121.433 140.558 123.482 145.12 123.482C145.121 123.482 145.123 123.482 145.126 123.482L152.918 123.473C153.508 123.473 154.617 123.054 155.899 122.569C157.937 121.799 160.475 120.839 162.746 120.839H169.45C171.64 120.839 173.834 121.351 175.798 122.319L181.84 125.299C183.628 126.18 184.377 128.292 183.549 130.104C183.471 130.273 183.274 130.346 183.106 130.27C182.937 130.192 182.864 129.995 182.94 129.826C183.617 128.345 183.004 126.621 181.544 125.901L175.502 122.92C173.631 121.997 171.538 121.509 169.45 121.509H162.746C160.597 121.509 158.124 122.445 156.136 123.197C154.737 123.725 153.631 124.145 152.918 124.145L145.126 124.154C145.124 124.154 145.123 124.154 145.12 124.154C140.362 124.154 135.812 122.019 132.633 118.298L118.927 100.758L106.458 108.861L123.454 130.586C126.431 134.391 131.068 136.662 135.862 136.662C135.863 136.662 135.865 136.662 135.866 136.662H154.079C154.157 136.662 154.235 136.691 154.296 136.743C155.799 138.03 158.053 138.628 161.39 138.628H172.813C174.254 138.628 175.427 137.454 175.427 136.011V135.968C175.427 135.268 175.154 134.61 174.66 134.116C174.165 133.623 173.509 133.351 172.811 133.351C172.81 133.351 172.807 133.351 172.805 133.351L171.232 133.355C169.264 133.36 168.807 133.361 168.6 133.343C167.74 133.342 166.951 133.253 166.189 133.071C166.009 133.029 165.899 132.848 165.942 132.669C165.984 132.488 166.168 132.378 166.344 132.421C167.06 132.593 167.804 132.675 168.617 132.675C168.629 132.675 168.64 132.675 168.652 132.676C168.814 132.693 169.374 132.691 171.23 132.687L172.804 132.682C172.807 132.682 172.808 132.682 172.811 132.682C173.688 132.682 174.511 133.022 175.131 133.642C175.754 134.264 176.097 135.09 176.097 135.968V136.011C176.093 137.82 174.622 139.295 172.811 139.295Z" fill="black"/>
<path d="M112.305 123.329V96.0547H119.125C123.791 96.0547 126.602 101.232 124.065 105.153L112.305 123.329Z" fill="black"/>
<path d="M114.046 96.0547H73.254V134.06H114.046V96.0547Z" fill="black"/>
<path d="M75.5984 131.189L76.9671 119.326L79.2493 95.6353H85.6666L83.9139 108.877C83.0019 115.774 80.7243 122.419 77.2145 128.423L75.5984 131.189Z" fill="#07284B"/>
<path d="M38.4698 175.271L38.8734 176.094L45.7717 174.327L48.9811 170.742H66.0325V168.669C64.7017 168.669 61.0158 166.518 58.0128 166.518H52.5425C50.7883 166.518 49.0569 166.922 47.4834 167.698L39.705 171.643C38.3636 172.304 37.8112 173.928 38.4698 175.271Z" fill="#DBCDF0"/>
<path d="M46.1572 176.12L38.5321 180.567C37.567 181.042 36.4001 180.643 35.9281 179.675L35.9206 179.658C35.3515 178.491 35.8325 177.083 36.9964 176.509L45.3469 171.684C46.9204 170.908 48.6518 170.504 50.406 170.504H66.0325V178.104H56.7549L54.8581 176.295C53.5956 175.09 51.84 174.536 50.1207 174.829C48.9902 175.026 47.6245 175.403 46.1572 176.12Z" fill="#DBCDF0"/>
<path d="M58.3513 170.742L70.5151 175.589L77.2874 115.057L60.0235 113.874L58.3513 170.742Z" fill="#DBCDF0"/>
<path d="M37.6701 181.103C37.4228 181.103 37.177 181.062 36.9372 180.98C36.3606 180.782 35.8963 180.371 35.6292 179.822C34.9737 178.478 35.5245 176.865 36.8492 176.211L45.1799 171.397C46.8097 170.592 48.6093 170.173 50.406 170.173H52.3407C52.5258 170.173 52.6745 170.323 52.6745 170.507C52.6745 170.691 52.5243 170.841 52.3407 170.841H50.406C48.7125 170.841 47.0145 171.238 45.4956 171.987L37.1648 176.801C36.1497 177.302 35.7354 178.514 36.2225 179.512C36.4183 179.917 36.7475 180.207 37.1542 180.346C37.5624 180.486 37.9994 180.459 38.3864 180.267L45.9902 175.832C47.315 175.183 48.6776 174.739 50.0645 174.502C51.8111 174.205 53.5835 174.715 54.9279 175.906C55.066 176.029 55.0797 176.24 54.9568 176.378C54.8354 176.517 54.6229 176.529 54.4848 176.407C53.2936 175.352 51.7246 174.899 50.1784 175.162C48.8552 175.388 47.5532 175.812 46.3074 176.421L38.705 180.857C38.3697 181.021 38.0192 181.103 37.6701 181.103Z" fill="black"/>
<path d="M54.6881 176.067C54.2754 176.137 53.8293 176.175 53.3407 176.175C53.1601 176.195 47.8369 176.188 45.1753 176.181C43.8446 176.178 42.7611 177.258 42.7611 178.59V178.624C42.7611 179.954 43.8385 181.031 45.1662 181.031H63.7594C70.8291 181.031 70.5135 175.655 70.5135 175.655V172.936H64.3223C59.2389 172.938 58.0402 175.505 54.6881 176.067Z" fill="#DBCDF0"/>
<path d="M63.7593 181.369H45.1677C44.4363 181.369 43.7474 181.083 43.23 180.565C42.7125 180.047 42.4272 179.357 42.4272 178.625V178.592C42.4272 177.858 42.7125 177.168 43.2315 176.65C43.7504 176.132 44.4378 175.848 45.1693 175.848C45.1723 175.848 45.1738 175.848 45.1753 175.848C48.4332 175.856 53.072 175.859 53.3103 175.844C53.7943 175.842 54.2162 175.809 54.632 175.739C55.6168 175.573 56.3831 175.23 57.0022 174.914C57.1661 174.83 57.3679 174.896 57.4514 175.061C57.5348 175.227 57.4696 175.427 57.3042 175.511C56.6775 175.83 55.8216 176.217 54.7412 176.398C54.2905 176.474 53.8338 176.511 53.3421 176.511C52.7458 176.536 45.2497 176.517 45.1723 176.517C45.1708 176.517 45.1692 176.517 45.1677 176.517C44.6139 176.517 44.0934 176.732 43.7019 177.124C43.3089 177.516 43.0934 178.037 43.0934 178.592V178.625C43.0934 179.18 43.3089 179.701 43.7004 180.091C44.0919 180.483 44.6124 180.699 45.1647 180.699H63.7578C66.0825 180.699 67.82 180.106 68.9201 178.938C70.2676 177.507 70.1781 175.695 70.1781 175.677C70.1766 175.657 70.1781 175.637 70.1796 175.619L76.6332 119.68C76.6545 119.496 76.8244 119.363 77.0035 119.385C77.1871 119.407 77.3191 119.572 77.2979 119.756L70.8488 175.669C70.8579 175.947 70.867 177.849 69.4087 179.397C68.1766 180.705 66.2768 181.369 63.7593 181.369Z" fill="black"/>
<path d="M38.4698 175.605C38.3423 175.605 38.2225 175.532 38.1663 175.409C37.4759 173.901 38.1011 172.142 39.5881 171.408L47.3286 167.4C48.9446 166.603 50.7443 166.182 52.541 166.182H58.0113C60.8717 166.182 64.2191 167.56 65.8276 168.222L66.1569 168.358C66.3284 168.427 66.4103 168.622 66.3405 168.793C66.2707 168.965 66.0765 169.046 65.905 168.977L65.5727 168.841C64.0037 168.195 60.7397 166.851 58.0098 166.851H52.5394C50.846 166.851 49.148 167.247 47.629 167.996L39.8886 172.003C38.7217 172.579 38.2331 173.951 38.7733 175.128C38.8507 175.297 38.7763 175.494 38.6079 175.572C38.5639 175.596 38.5153 175.605 38.4698 175.605Z" fill="black"/>
<path d="M58.0113 166.854C58.0068 166.854 58.0022 166.854 57.9977 166.854C57.8125 166.846 57.6699 166.691 57.676 166.507L59.6881 113.863C59.6957 113.678 59.8611 113.534 60.0341 113.541C60.2192 113.549 60.3618 113.704 60.3558 113.888L58.3436 166.531C58.3391 166.711 58.1904 166.854 58.0113 166.854Z" fill="black"/>
<path d="M77.4997 119.72H56.6381V112.931C56.6381 103.611 64.1858 96.0547 73.4952 96.0547H78.7061L77.4997 119.72Z" fill="black"/>
<path d="M114.144 119.998L109.61 95.7266H103.193L106.123 108.969C107.035 115.866 110.709 123.326 114.219 129.331L114.144 119.998Z" fill="#07284B"/>
<path d="M91.7953 77.2123C92.799 72.9567 90.1667 68.6922 85.9158 67.6873C81.6649 66.6824 77.4052 69.3177 76.4014 73.5733C75.3977 77.8289 78.03 82.0934 82.2809 83.0983C86.5318 84.1032 90.7915 81.4679 91.7953 77.2123Z" fill="black"/>
<path d="M88.0262 71.5102C92.3941 71.5102 95.935 67.9653 95.935 63.5925C95.935 59.2197 92.3941 55.6748 88.0262 55.6748C83.6582 55.6748 80.1173 59.2197 80.1173 63.5925C80.1173 67.9653 83.6582 71.5102 88.0262 71.5102Z" fill="black"/>
<path d="M102.113 76.1251C105.585 76.1251 108.399 73.3073 108.399 69.8313C108.399 66.3554 105.585 63.5376 102.113 63.5376C98.6405 63.5376 95.8258 66.3554 95.8258 69.8313C95.8258 73.3073 98.6405 76.1251 102.113 76.1251Z" fill="black"/>
<path d="M97.1282 71.3743C100.336 70.044 101.859 66.3623 100.531 63.1509C99.2018 59.9395 95.5242 58.4145 92.3164 59.7447C89.1085 61.0749 87.5852 64.7567 88.914 67.9681C90.2427 71.1795 93.9204 72.7045 97.1282 71.3743Z" fill="black"/>
<path d="M84.0555 71.412C86.2013 69.2639 86.2013 65.781 84.0555 63.6329C81.9098 61.4847 78.4308 61.4847 76.285 63.6329C74.1393 65.781 74.1393 69.2639 76.285 71.412C78.4308 73.5602 81.9098 73.5602 84.0555 71.412Z" fill="black"/>
<path d="M102.407 62.8975C103.105 59.9409 101.276 56.9782 98.3227 56.2801C95.3694 55.5819 92.41 57.4128 91.7126 60.3693C91.0153 63.3259 92.8441 66.2886 95.7973 66.9867C98.7506 67.6849 101.71 65.854 102.407 62.8975Z" fill="black"/>
<path d="M87.313 96.0548L97.0731 103.918V83.4263H87.313V96.0548Z" fill="#DBCDF0"/>
<path d="M87.313 87.13V83.4248H97.0731V91.6023C96.1915 91.7785 94.4373 91.9987 92.4207 91.3334C89.2644 90.2928 87.7151 87.8227 87.313 87.13Z" fill="black"/>
<path d="M85.6651 80.7541L93.4632 78.8278L101.364 80.6447L101.9 78.9615C103.707 73.2739 99.4677 67.4678 93.5057 67.4678C87.5695 67.4678 83.3328 73.2253 85.0915 78.9007L85.6651 80.7541Z" fill="black"/>
<path d="M93.5147 89.2247C97.85 89.2247 101.364 85.3363 101.364 80.5398C101.364 75.7433 97.85 71.855 93.5147 71.855C89.1795 71.855 85.665 75.7433 85.665 80.5398C85.665 85.3363 89.1795 89.2247 93.5147 89.2247Z" fill="#DBCDF0"/>
<path d="M97.6738 83.7987C97.9472 83.0047 97.5259 82.1392 96.7328 81.8655C95.9397 81.5918 95.0752 82.0135 94.8018 82.8075C94.5284 83.6015 94.9497 84.467 95.7428 84.7407C96.5359 85.0144 97.4004 84.5926 97.6738 83.7987Z" fill="white"/>
<path d="M129.646 87.5202C130.863 87.5202 131.85 85.5764 131.85 83.1786C131.85 80.7807 130.863 78.8369 129.646 78.8369C128.429 78.8369 127.443 80.7807 127.443 83.1786C127.443 85.5764 128.429 87.5202 129.646 87.5202Z" fill="#07284B"/>
<path d="M134.051 59.3982C135.268 59.3982 136.255 57.4543 136.255 55.0565C136.255 52.6587 135.268 50.7148 134.051 50.7148C132.835 50.7148 131.848 52.6587 131.848 55.0565C131.848 57.4543 132.835 59.3982 134.051 59.3982Z" fill="#07284B"/>
<path d="M143.071 76.8347C145.32 76.8347 147.142 73.2422 147.142 68.8106C147.142 64.3791 145.32 60.7866 143.071 60.7866C140.823 60.7866 139 64.3791 139 68.8106C139 73.2422 140.823 76.8347 143.071 76.8347Z" fill="#4ADA85"/>
</svg>
