<svg width="258" height="279" viewBox="0 0 258 279" fill="none" xmlns="http://www.w3.org/2000/svg">
<g clip-path="url(#clip0_458_16482)">
<path d="M161.927 49.9845C159.643 48.1578 152.264 43.3591 152.264 43.3591C152.126 44.3911 145.956 42.3271 145.54 43.8751C144.948 45.9855 150.685 47.5232 150.685 47.5232C150.685 47.5232 144.264 45.7481 144.166 47.3477C144.011 49.8348 150.561 51.2022 150.561 51.2022C150.561 51.2022 144.943 49.7574 144.948 51.3519C144.948 53.6739 150.901 54.7987 150.901 54.7987C150.901 54.7987 146.188 54.0351 146.527 55.5727C147.253 58.839 158.274 56.9453 158.274 56.9453C161.727 51.873 166.589 54.2053 161.927 49.9845Z" fill="#FCBBA4"/>
<path d="M76.0987 126.12C63.9095 124.283 62.5666 117.72 61.9903 114.918L61.9132 114.531C59.7984 104.784 63.8426 93.6483 70.7425 90.2118C75.6665 87.7608 81.774 88.6638 84.9795 83.7618C87.3154 80.1808 86.981 74.737 85.6072 70.9238C82.5766 62.5182 74.9307 57.6368 72.4198 48.6378C69.7237 38.999 74.4779 28.2817 80.6523 23.4881C86.2401 19.1537 95.3421 14.7161 102.618 16.5479C102.685 16.562 102.75 16.5896 102.807 16.6292C102.863 16.6687 102.912 16.7194 102.949 16.7782C102.986 16.8369 103.01 16.9026 103.021 16.9711C103.032 17.0397 103.029 17.1098 103.013 17.1772C102.996 17.2446 102.966 17.3079 102.925 17.3634C102.883 17.4189 102.831 17.4654 102.771 17.5001C102.711 17.5348 102.644 17.5571 102.576 17.5655C102.507 17.5738 102.437 17.5682 102.371 17.549C96.6747 16.13 88.4011 18.7822 81.2749 24.3085C75.3938 28.8854 70.8557 39.1383 73.4283 48.3643C75.8723 57.1363 83.4976 61.9918 86.5899 70.5522C87.9431 74.3087 88.5606 80.1653 85.8542 84.3087C82.3811 89.6287 75.9804 88.7463 71.2158 91.1199C64.7019 94.3552 60.9253 104.969 62.9319 114.288L63.0142 114.686C63.5905 117.498 64.7894 123.349 76.2685 125.078C76.3361 125.088 76.401 125.111 76.4595 125.147C76.5181 125.182 76.5691 125.228 76.6097 125.284C76.6503 125.339 76.6797 125.401 76.6962 125.468C76.7127 125.534 76.716 125.603 76.7058 125.671C76.6957 125.739 76.6724 125.804 76.6371 125.863C76.6019 125.921 76.5555 125.973 76.5006 126.013C76.4456 126.054 76.3832 126.084 76.3169 126.1C76.2506 126.117 76.1817 126.12 76.1141 126.11L76.0987 126.12Z" fill="#112544"/>
<path d="M243.562 232.498C243.812 232.594 244.078 232.639 244.345 232.632C244.612 232.624 244.875 232.563 245.119 232.453C245.362 232.342 245.581 232.185 245.764 231.989C245.946 231.793 246.088 231.563 246.181 231.311L257.63 200.434C257.899 199.715 258.02 198.948 257.985 198.18C257.95 197.413 257.761 196.66 257.427 195.968C257.094 195.277 256.624 194.66 256.046 194.156C255.467 193.651 254.793 193.27 254.064 193.035L235.541 185.898L227.308 207.41C227.308 207.41 231.589 207.813 233.699 210.099C234.115 210.532 234.432 211.051 234.628 211.619C234.823 212.188 234.893 212.792 234.831 213.391C234.728 214.67 234.486 216.172 234.291 217.761C233.668 222.674 233.447 228.391 238.983 230.826C240.434 231.482 243.511 232.478 243.562 232.498Z" fill="#07284B"/>
<path d="M233.699 210.099C234.438 208.874 235.014 207.557 235.412 206.182C236.389 203.385 237.572 200.665 238.952 198.045C239.92 196.203 241.154 194.273 243.13 193.644C245.533 192.88 248.003 194.304 250.334 195.284C252.551 196.229 255.165 196.832 257.413 195.935C257.079 195.251 256.611 194.643 256.038 194.144C255.464 193.646 254.796 193.269 254.074 193.035L235.551 185.898L227.319 207.41C227.319 207.41 231.589 207.813 233.699 210.099Z" fill="#07284B"/>
<path d="M245.425 220.594C245.298 220.545 245.196 220.447 245.141 220.322C245.086 220.197 245.083 220.056 245.132 219.929L254.784 194.753C254.808 194.69 254.845 194.632 254.892 194.583C254.938 194.533 254.994 194.494 255.056 194.466C255.118 194.439 255.185 194.424 255.252 194.422C255.32 194.42 255.387 194.432 255.45 194.456C255.514 194.481 255.571 194.517 255.62 194.564C255.67 194.611 255.709 194.667 255.736 194.729C255.764 194.791 255.779 194.858 255.781 194.926C255.782 194.994 255.771 195.061 255.746 195.125L246.094 220.295C246.07 220.359 246.033 220.418 245.987 220.467C245.94 220.517 245.884 220.557 245.822 220.585C245.759 220.613 245.692 220.628 245.624 220.629C245.556 220.631 245.488 220.619 245.425 220.594Z" fill="#112544"/>
<path d="M240.136 231.296C240.775 230.041 241.129 228.659 241.173 227.25C241.218 225.841 240.951 224.439 240.392 223.146C239.833 221.852 238.995 220.699 237.94 219.768C236.884 218.837 235.636 218.152 234.285 217.761C233.663 222.669 233.442 228.386 238.978 230.827C239.312 230.976 239.719 231.131 240.136 231.296Z" fill="#112544"/>
<path d="M166.754 267.54C166.754 267.809 166.808 268.075 166.912 268.323C167.016 268.572 167.169 268.796 167.36 268.985C167.552 269.174 167.778 269.322 168.028 269.422C168.277 269.522 168.543 269.572 168.812 269.568L201.659 269.206C202.426 269.201 203.183 269.039 203.885 268.731C204.588 268.423 205.22 267.975 205.745 267.414C206.269 266.853 206.675 266.191 206.936 265.469C207.198 264.746 207.311 263.978 207.268 263.211V243.319H184.273C184.273 243.319 185.436 247.447 184.062 250.269C183.808 250.814 183.438 251.296 182.98 251.683C182.522 252.071 181.985 252.354 181.407 252.514C180.178 252.875 178.691 253.19 177.142 253.546C172.352 254.728 166.949 256.57 166.671 262.627C166.558 264.248 166.754 267.488 166.754 267.54Z" fill="#07284B"/>
<path d="M184.052 250.269C186.707 250.904 189.568 249.955 197.157 250.863C199.215 251.105 201.458 251.564 202.755 253.195C204.33 255.166 203.887 257.989 203.784 260.517C203.717 262.617 203.98 264.81 205.112 266.58C205.292 266.864 205.497 267.132 205.724 267.38C206.24 266.822 206.64 266.165 206.898 265.448C207.156 264.732 207.268 263.971 207.226 263.211V243.319H184.273C184.273 243.319 185.436 247.473 184.052 250.269Z" fill="#07284B"/>
<path d="M205.914 265.527H179.02C178.883 265.527 178.753 265.473 178.656 265.376C178.56 265.279 178.505 265.148 178.505 265.011C178.505 264.875 178.56 264.743 178.656 264.647C178.753 264.55 178.883 264.495 179.02 264.495H205.914C206.051 264.495 206.182 264.55 206.278 264.647C206.375 264.743 206.429 264.875 206.429 265.011C206.429 265.148 206.375 265.279 206.278 265.376C206.182 265.473 206.051 265.527 205.914 265.527Z" fill="#112544"/>
<path d="M166.646 263.907C168.042 264.055 169.455 263.892 170.781 263.429C172.108 262.965 173.316 262.214 174.319 261.228C175.322 260.242 176.095 259.045 176.583 257.724C177.071 256.403 177.262 254.991 177.142 253.587C172.352 254.769 166.954 256.611 166.671 262.669C166.651 263.014 166.646 263.453 166.646 263.907Z" fill="#112544"/>
<path d="M121.542 259.217C141.773 260.001 156.154 263.288 156.154 265.734C156.154 268.778 133.741 271.26 105.694 271.373C108.967 272.044 110.84 272.813 110.84 273.623C110.84 276.306 90.629 278.479 65.6949 278.479C40.7609 278.479 20.5502 276.306 20.5502 273.623C20.5502 271.157 31.9985 267.044 54.1129 266.729C54.1129 266.699 54.1129 266.76 54.1129 266.729C25.2993 266.213 0.529907 262.416 0.529907 259.17C0.529907 253.045 58.013 252.519 67.9692 252.638C82.8082 248.117 145.632 249.268 145.632 254.072C145.617 255.837 135.686 258.556 121.542 259.217Z" fill="white"/>
<path d="M65.6796 278.995C60.6629 278.995 20.0203 278.639 20.0203 273.623C20.0203 270.992 28.155 268.076 41.9598 266.822C32.6314 266.348 23.7198 265.538 16.4238 264.48C5.52604 262.901 0 261.115 0 259.17C0 252.313 58.7489 252.013 67.8817 252.122C78.3061 249.026 114.04 248.375 133.968 250.517C146.131 251.828 146.131 253.396 146.131 254.072C146.131 256.193 138.28 258.133 129.152 259.139C143.481 260.228 156.664 262.751 156.664 265.734C156.664 271.064 114.863 271.797 109.409 271.859C111.051 272.509 111.334 273.123 111.334 273.623C111.334 274.299 111.334 276.1 97.6523 277.571C89.1112 278.489 77.7555 278.995 65.6796 278.995ZM54.0049 267.251C30.8511 267.591 21.0494 271.951 21.0494 273.628C21.0494 277.24 61.9904 277.968 65.6796 277.968C77.7195 277.968 89.0391 277.452 97.5443 276.549C109.96 275.213 110.31 273.644 110.31 273.628C110.31 273.613 110.181 272.823 105.592 271.884C105.524 271.878 105.458 271.858 105.398 271.826C105.338 271.794 105.285 271.751 105.242 271.699C105.155 271.593 105.113 271.456 105.126 271.319C105.139 271.182 105.205 271.056 105.311 270.969C105.417 270.881 105.553 270.839 105.689 270.852C109.991 270.852 155.64 269.908 155.64 265.728C155.64 265.311 153.967 263.881 146.337 262.354C139.684 261.023 130.87 260.089 121.521 259.727C121.385 259.727 121.254 259.673 121.157 259.576C121.061 259.48 121.007 259.348 121.007 259.211C121.007 259.075 121.061 258.943 121.157 258.847C121.254 258.75 121.385 258.695 121.521 258.695C136.684 257.983 144.927 255.12 145.102 254.051C145.102 254.051 144.613 252.653 133.484 251.471C113.135 249.34 77.915 250.104 68.103 253.102C68.0515 253.102 1.02906 253.355 1.02906 259.139C1.02906 259.841 4.27573 261.647 16.5678 263.427C26.9304 264.929 40.5757 265.93 54.0152 266.183C54.1093 266.166 54.206 266.177 54.2946 266.213C54.3832 266.248 54.46 266.308 54.5166 266.385C54.5732 266.462 54.6073 266.554 54.6151 266.649C54.6228 266.745 54.604 266.84 54.5606 266.926C54.5186 267.035 54.4407 267.127 54.3397 267.186C54.2387 267.245 54.1206 267.268 54.0049 267.251Z" fill="#CCD2FF"/>
<path d="M15.0602 260.187H15.0036C14.9364 260.179 14.8713 260.158 14.8121 260.125C14.7529 260.092 14.7008 260.048 14.6587 259.995C14.6166 259.941 14.5855 259.88 14.5669 259.815C14.5484 259.75 14.543 259.681 14.5509 259.614C14.9007 256.415 23.4985 255.486 31.8699 255.976C32.0055 255.984 32.1325 256.046 32.2231 256.147C32.3137 256.249 32.3606 256.382 32.3535 256.518C32.3496 256.586 32.3324 256.652 32.3028 256.713C32.2732 256.774 32.2319 256.829 32.1813 256.874C32.1306 256.919 32.0716 256.954 32.0075 256.976C31.9435 256.998 31.8757 257.007 31.8081 257.003C21.8983 256.42 15.7703 257.932 15.5748 259.727C15.5608 259.854 15.5005 259.971 15.4054 260.056C15.3104 260.141 15.1874 260.188 15.0602 260.187Z" fill="#CCD2FF"/>
<path d="M77.5446 275.202C77.4081 275.202 77.2772 275.148 77.1807 275.051C77.0842 274.954 77.03 274.823 77.03 274.686C77.03 274.55 77.0842 274.418 77.1807 274.322C77.2772 274.225 77.4081 274.17 77.5446 274.17C88.2622 274.17 94.1638 272.741 94.4571 271.941C94.4571 271.804 94.5113 271.673 94.6078 271.576C94.7043 271.48 94.8352 271.425 94.9716 271.425C95.1081 271.425 95.239 271.48 95.3355 271.576C95.432 271.673 95.4862 271.804 95.4862 271.941C95.481 275.166 78.2752 275.202 77.5446 275.202Z" fill="#CCD2FF"/>
<path d="M61.5942 270.863C61.5558 270.732 61.5705 270.591 61.6351 270.472C61.6997 270.352 61.8089 270.262 61.939 270.223C64.5888 269.433 69.5077 268.887 75.0903 268.768C75.2268 268.768 75.3576 268.822 75.4541 268.919C75.5506 269.016 75.6049 269.147 75.6049 269.284C75.6049 269.421 75.5506 269.552 75.4541 269.649C75.3576 269.745 75.2268 269.8 75.0903 269.8C69.5952 269.918 64.7997 270.445 62.2271 271.214C62.0968 271.25 61.9573 271.234 61.8388 271.169C61.7204 271.103 61.6325 270.993 61.5942 270.863Z" fill="#CCD2FF"/>
<path d="M106.06 256.456C103.796 256.456 87.8506 256.41 87.8506 254.119C87.8506 251.167 111.457 251.817 115.146 252.055C115.214 252.059 115.28 252.076 115.341 252.106C115.402 252.135 115.456 252.177 115.501 252.228C115.546 252.278 115.581 252.338 115.603 252.402C115.625 252.466 115.634 252.534 115.63 252.602C115.626 252.669 115.609 252.736 115.579 252.797C115.549 252.858 115.508 252.912 115.457 252.957C115.407 253.002 115.348 253.037 115.284 253.059C115.22 253.081 115.152 253.091 115.085 253.087C105.267 252.488 91.9874 253.004 89.1369 254.119C90.6393 254.712 96.7159 255.424 106.06 255.424C106.196 255.424 106.327 255.478 106.424 255.575C106.52 255.672 106.574 255.803 106.574 255.94C106.574 256.077 106.52 256.208 106.424 256.305C106.327 256.402 106.196 256.456 106.06 256.456Z" fill="#CCD2FF"/>
<path d="M230.596 210.491C229.145 212.478 227.864 213.587 226.994 213.19C226.994 213.19 175.274 196.73 168.369 176.239C163.054 160.465 176.221 135.408 184.906 121.384C188.806 115.083 191.801 111.007 191.801 111.007C191.801 111.007 204.546 163.742 204.556 163.799L240.331 182.519C243.485 183.959 235.922 203.21 230.596 210.491Z" fill="#DBCDF0"/>
<path d="M230.596 210.491C227.988 209.263 225.693 207.178 223.573 205.156C215.536 197.473 207.648 189.459 201.85 179.965C196.051 170.47 192.439 159.278 193.684 148.21C194.198 143.53 195.593 138.922 195.49 134.211C195.408 130.45 194.137 126.255 191.147 123.788C189.722 122.612 187.134 122.158 184.916 121.384C188.817 115.083 191.811 111.007 191.811 111.007C191.811 111.007 204.556 163.742 204.566 163.799L240.341 182.519C243.485 183.959 235.922 203.21 230.596 210.491Z" fill="#E64B38"/>
<path d="M248.198 124.531C248.198 124.531 251.707 147.539 228.6 176.951C213.432 196.275 211.914 244.686 211.914 244.686C212.531 251.771 176.679 246.234 176.71 238.535C176.71 238.535 178.346 163.293 214.533 117.075L248.198 124.531Z" fill="#DBCDF0"/>
<path d="M182.977 190.723C182.844 190.694 182.728 190.612 182.655 190.497C182.581 190.382 182.556 190.243 182.586 190.109C189.274 159.665 199.879 134.98 214.126 116.781C214.21 116.673 214.333 116.602 214.469 116.586C214.604 116.569 214.741 116.606 214.849 116.691C214.957 116.775 215.027 116.898 215.044 117.034C215.061 117.17 215.023 117.307 214.939 117.415C200.784 135.475 190.242 160.027 183.589 190.331C183.559 190.464 183.478 190.581 183.364 190.654C183.249 190.728 183.11 190.752 182.977 190.723Z" fill="#112544"/>
<path d="M221.613 53.4214L221.571 65.0933C221.571 65.0933 208.101 90.7797 186.686 92.5134C184.277 92.7006 181.856 92.3825 179.576 91.5795C163.327 85.9035 153.726 58.0396 153.726 58.0396C157.546 56.4199 160.621 53.4224 162.344 49.6392C165.13 50.517 167.766 51.8169 170.16 53.4937C180.527 60.6144 186.748 73.1016 186.748 73.1016C204.829 46.8167 221.613 53.4214 221.613 53.4214Z" fill="#E3FEFF"/>
<path d="M179.576 91.5795C163.327 85.9035 153.726 58.0396 153.726 58.0396C157.546 56.4199 160.621 53.4224 162.344 49.6392C165.13 50.517 167.766 51.8169 170.16 53.4937C169.945 53.9506 169.636 54.3568 169.254 54.6856C168.138 55.6712 166.682 56.1407 165.287 56.6825C163.893 57.2243 162.473 57.9158 161.649 59.1593C160.281 61.2233 161.011 63.9787 161.922 66.2801C165.206 74.5747 170.218 82.0707 176.622 88.2668C177.711 89.2174 178.686 90.2909 179.529 91.4659C179.548 91.5026 179.563 91.5405 179.576 91.5795Z" fill="#47B6C3"/>
<path d="M252.031 93.2099C251.857 93.9478 251.378 96.9715 250.683 100.852C249.14 109.407 250.987 126.383 248.188 125.413C221.237 116.069 182.807 121.941 191.59 108.385C200.671 94.3915 192.284 56.3574 211.322 53.9115C240.069 50.2118 258.417 66.0117 252.031 93.2099Z" fill="#E3FEFF"/>
<path d="M248.018 125.904C224.864 117.87 193.838 121.177 190.18 113.52C189.46 112.018 189.789 110.243 191.178 108.102C194.651 102.751 195.536 93.4732 196.396 84.4999C197.121 76.9406 197.867 69.1284 200.131 63.2718C200.154 63.2059 200.189 63.1453 200.236 63.0936C200.282 63.0419 200.339 63.0002 200.402 62.971C200.465 62.9418 200.533 62.9256 200.602 62.9236C200.672 62.9215 200.741 62.9336 200.806 62.959C200.87 62.9845 200.929 63.0228 200.979 63.0716C201.028 63.1205 201.067 63.1789 201.094 63.2433C201.12 63.3077 201.133 63.3768 201.132 63.4465C201.131 63.5161 201.116 63.5848 201.088 63.6485C198.876 69.3657 198.135 77.1109 197.419 84.598C196.509 94.113 195.649 103.102 192.043 108.664C190.864 110.48 190.556 111.925 191.106 113.076C194.343 119.841 225.729 117.096 248.368 124.928C248.625 125.016 248.883 123.974 248.939 123.7C248.967 123.563 249.048 123.443 249.164 123.366C249.281 123.289 249.423 123.262 249.559 123.29C249.696 123.318 249.815 123.399 249.892 123.516C249.969 123.633 249.996 123.775 249.968 123.912C249.685 125.083 249.15 126.291 248.018 125.904Z" fill="#112544"/>
<path d="M232.191 24.6338C228.718 25.2839 226.32 26.2953 226.176 29.6132L232.191 24.6338Z" fill="#112544"/>
<path d="M222.642 51.0889L225.626 46.3624C225.013 46.1822 224.427 45.9219 223.882 45.5884C220.481 43.5244 220.069 39.3551 222.158 34.995C222.685 33.9001 223.323 32.8626 224.062 31.899C224.319 31.5378 224.602 31.1869 224.9 30.836C225.893 29.6497 226.984 28.5502 228.162 27.5491C228.773 27.0367 229.416 26.5644 230.087 26.1353C230.638 25.8515 231.265 25.7486 231.878 25.8412C232.491 25.9338 233.06 26.2171 233.503 26.6513C233.503 26.6513 234.296 34.3912 244.015 36.5172C244.015 36.5172 238.355 39.7679 240.707 42.7091C240.707 42.7091 244.015 40.6451 245.337 40.8412L236.019 56.1457C231.996 62.7608 221.968 59.8919 221.865 53.8186C221.855 52.8524 222.125 51.9042 222.642 51.0889Z" fill="#FCBBA4"/>
<path d="M221.376 53.024C221.385 52.9564 221.408 52.8914 221.443 52.8327C221.477 52.7739 221.523 52.7227 221.578 52.6819C221.632 52.6411 221.695 52.6116 221.761 52.595C221.827 52.5785 221.895 52.5752 221.962 52.5854C222.029 52.5955 222.094 52.6187 222.152 52.6537C222.21 52.6888 222.26 52.7349 222.3 52.7896C222.34 52.8442 222.369 52.9063 222.386 52.9722C222.402 53.0381 222.405 53.1065 222.395 53.1736C221.541 59.0096 231.61 62.3584 235.556 55.8775C235.627 55.7607 235.741 55.6766 235.873 55.6437C236.005 55.6108 236.144 55.6318 236.261 55.702C236.319 55.7374 236.37 55.784 236.409 55.839C236.449 55.8941 236.478 55.9564 236.494 56.0226C236.51 56.0888 236.512 56.1575 236.501 56.2247C236.491 56.2919 236.467 56.3562 236.431 56.4141C231.903 63.8342 220.352 59.99 221.376 53.024Z" fill="#112544"/>
<path d="M228.734 24.3654C228.476 25.4077 228.289 26.4661 228.173 27.5336C228.173 27.5336 231.003 24.3086 233.524 26.6048C233.524 26.6048 234.316 34.3448 244.036 36.4707C244.036 36.4707 238.376 39.7215 240.727 42.6627C240.727 42.6627 249.31 37.255 244.37 44.7679C245.988 44.1317 247.522 43.2999 248.939 42.2912C251.666 40.2891 253.647 37.2602 248.291 33.9888C248.291 33.9888 253.611 28.9217 248.965 26.5842C247.653 25.9237 245.744 25.8308 243.871 23.6327C233.637 11.646 229.963 19.4325 228.734 24.3654Z" fill="#112544"/>
<path d="M232.845 32.6577C232.623 32.8951 233.241 33.602 234.064 34.3708C234.887 35.1397 235.608 35.666 235.824 35.4028C236.04 35.1397 235.556 34.3708 234.733 33.5917C233.91 32.8125 233.061 32.4204 232.845 32.6577Z" fill="#112544"/>
<path d="M227.406 28.3438C227.19 28.5811 227.808 29.2932 228.631 30.0569C229.454 30.8206 230.174 31.352 230.39 31.0889C230.607 30.8257 230.118 30.0569 229.294 29.2777C228.471 28.4986 227.627 28.1271 227.406 28.3438Z" fill="#112544"/>
<path d="M226.166 31.44C226.085 31.6304 226.081 31.8453 226.156 32.0384C226.231 32.2315 226.379 32.3872 226.567 32.472C226.662 32.5137 226.763 32.5363 226.866 32.5383C226.969 32.5404 227.071 32.5219 227.167 32.484C227.263 32.4461 227.35 32.3894 227.424 32.3174C227.497 32.2454 227.556 32.1593 227.596 32.0643C227.64 31.9704 227.664 31.8688 227.667 31.7654C227.67 31.662 227.652 31.5591 227.615 31.4627C227.577 31.3664 227.521 31.2786 227.449 31.2047C227.377 31.1307 227.29 31.0721 227.195 31.0323C227.101 30.9906 226.999 30.968 226.897 30.966C226.794 30.9639 226.691 30.9824 226.596 31.0203C226.5 31.0582 226.413 31.1149 226.339 31.1869C226.265 31.259 226.206 31.345 226.166 31.44Z" fill="#112544"/>
<path d="M231.224 35.8565C231.163 35.9977 231.145 36.1537 231.173 36.305C231.2 36.4562 231.271 36.596 231.378 36.7067C231.484 36.8174 231.621 36.894 231.771 36.927C231.92 36.9599 232.076 36.9476 232.219 36.8918C232.362 36.8359 232.485 36.7389 232.573 36.613C232.661 36.4871 232.71 36.3379 232.714 36.1842C232.717 36.0305 232.675 35.8791 232.593 35.7492C232.512 35.6193 232.393 35.5166 232.253 35.4541C232.159 35.4122 232.058 35.3894 231.955 35.3869C231.853 35.3845 231.75 35.4025 231.655 35.44C231.559 35.4774 231.472 35.5335 231.398 35.605C231.324 35.6765 231.265 35.762 231.224 35.8565Z" fill="#112544"/>
<path d="M240.65 41.548C239.251 43.4262 239.106 45.676 240.321 46.5893C241.535 47.5026 243.65 46.708 245.049 44.8298C246.449 42.9515 246.593 40.7018 245.368 39.7833C244.144 38.8648 242.019 39.6956 240.65 41.548Z" fill="#FCBBA4"/>
<path d="M225.636 46.3623C225.636 46.3623 230.267 47.2653 233.905 46.9557C233.978 46.9522 234.05 46.9717 234.112 47.0117C234.173 47.0516 234.221 47.1098 234.247 47.1782C234.274 47.2466 234.279 47.3217 234.261 47.3928C234.242 47.464 234.203 47.5277 234.146 47.5749C232.747 48.643 229.516 50.32 224.041 48.8907L225.636 46.3623Z" fill="#E2805D"/>
<path d="M226.758 36.6513C226.012 36.1662 225.688 35.6193 225.796 35.0465C226.048 33.7152 228.713 33.0548 229.521 32.8896C229.657 32.8616 229.799 32.889 229.916 32.966C230.032 33.0429 230.113 33.163 230.141 33.2999C230.169 33.4367 230.141 33.5791 230.065 33.6957C229.988 33.8123 229.868 33.8936 229.732 33.9216C228.42 34.2003 226.886 34.8298 226.809 35.2632C226.809 35.3355 226.886 35.5316 227.324 35.8153C227.406 35.9006 227.457 36.0116 227.467 36.1298C227.477 36.248 227.446 36.3661 227.38 36.4642C227.313 36.5623 227.215 36.6345 227.102 36.6686C226.989 36.7027 226.867 36.6965 226.758 36.6513Z" fill="#E2805D"/>
<path d="M242.024 43.6585C241.981 43.6063 241.948 43.5461 241.928 43.4813C241.908 43.4165 241.901 43.3484 241.907 43.2808C241.913 43.2132 241.933 43.1475 241.964 43.0875C241.996 43.0274 242.039 42.9742 242.091 42.9309L242.904 42.2446C243.008 42.1564 243.143 42.1133 243.279 42.1249C243.415 42.1365 243.541 42.2019 243.629 42.3065C243.717 42.4112 243.76 42.5467 243.749 42.6832C243.737 42.8196 243.672 42.9458 243.567 43.0341L242.749 43.7255C242.697 43.769 242.637 43.8017 242.573 43.8219C242.508 43.842 242.44 43.8492 242.373 43.843C242.305 43.8367 242.24 43.8172 242.18 43.7856C242.12 43.7539 242.067 43.7107 242.024 43.6585Z" fill="#E2805D"/>
<path d="M226.665 39.9951C226.552 40.862 225.904 41.4915 225.214 41.3987C224.525 41.3058 224.062 40.5369 224.185 39.6649C224.309 38.7929 224.952 38.1737 225.636 38.2665C226.321 38.3594 226.758 39.1283 226.665 39.9951Z" fill="#112544"/>
<path d="M45.2836 258.52H95.553L141.825 240.852C143.551 240.194 145.13 239.201 146.474 237.931C147.817 236.66 148.897 235.136 149.653 233.447C150.409 231.757 150.826 229.935 150.879 228.083C150.933 226.232 150.622 224.389 149.964 222.658L111.889 122.359C110.562 118.865 107.905 116.042 104.502 114.513C101.1 112.983 97.2316 112.871 93.747 114.201L16.717 143.613C14.9908 144.271 13.4109 145.265 12.0676 146.536C10.7243 147.807 9.64382 149.331 8.88794 151.021C8.13206 152.711 7.71556 154.534 7.66223 156.385C7.60891 158.237 7.91981 160.081 8.57716 161.812L45.2836 258.52Z" fill="white"/>
<path d="M122.494 238.577C116.072 242.498 113.232 243.009 64.2338 258.52H95.5531L141.825 240.852C143.551 240.193 145.131 239.2 146.474 237.929C147.817 236.658 148.898 235.134 149.654 233.444C150.41 231.754 150.826 229.931 150.879 228.079C150.933 226.228 150.622 224.384 149.964 222.653L117.909 138.251C116.319 139.722 115.153 141.595 114.534 143.674C113.222 148.138 114.112 152.926 115.146 157.467C118.292 171.294 122.71 184.799 128.344 197.808C132.136 206.58 136.576 216.146 133.752 225.264C131.992 230.94 127.562 235.486 122.494 238.577Z" fill="#E1E5FF"/>
<path d="M118.336 190.367L121.897 199.748C122.182 200.5 122.157 201.335 121.829 202.069C121.501 202.803 120.897 203.377 120.148 203.664L56.2998 228.035C55.9285 228.177 55.533 228.244 55.1359 228.232C54.7388 228.22 54.348 228.13 53.9857 227.967C53.6234 227.803 53.2968 227.57 53.0247 227.279C52.7525 226.989 52.5401 226.648 52.3996 226.275L48.8391 216.895C48.6974 216.523 48.6302 216.127 48.6412 215.729C48.6522 215.331 48.7412 214.94 48.9032 214.576C49.0652 214.213 49.2969 213.886 49.5852 213.612C49.8735 213.339 50.2127 213.125 50.5833 212.983L114.436 188.608C114.808 188.466 115.203 188.399 115.6 188.41C115.997 188.422 116.388 188.512 116.75 188.676C117.113 188.839 117.439 189.073 117.711 189.363C117.984 189.653 118.196 189.994 118.336 190.367Z" fill="#8D95FF"/>
<path d="M119.139 192.467L121.897 199.738C122.182 200.49 122.157 201.324 121.829 202.058C121.501 202.793 120.897 203.366 120.148 203.654L56.2997 228.035C55.9285 228.177 55.533 228.244 55.1359 228.232C54.7388 228.22 54.3479 228.13 53.9856 227.967C53.6233 227.803 53.2968 227.57 53.0246 227.28C52.7525 226.989 52.5401 226.648 52.3996 226.275L52.0085 225.243C57.0355 223.861 79.9989 218.969 109.487 205.558C112.378 204.248 115.481 202.669 116.788 199.763C117.534 198.107 117.57 196.26 118.105 194.536C118.343 193.798 118.692 193.101 119.139 192.467Z" fill="#757BFF"/>
<path d="M127.624 214.83L131.189 224.211C131.474 224.963 131.449 225.796 131.121 226.53C130.793 227.263 130.189 227.836 129.44 228.123L65.5869 252.503C64.8377 252.789 64.0062 252.764 63.275 252.435C62.5438 252.106 61.9726 251.5 61.6868 250.749L58.1262 241.363C57.8418 240.612 57.8663 239.778 58.1943 239.045C58.5223 238.311 59.127 237.738 59.8757 237.452L123.723 213.071C124.095 212.929 124.49 212.862 124.887 212.874C125.284 212.886 125.675 212.976 126.038 213.139C126.4 213.303 126.726 213.536 126.999 213.826C127.271 214.117 127.483 214.458 127.624 214.83Z" fill="#8D95FF"/>
<path d="M128.406 216.879L131.169 224.154C131.453 224.906 131.428 225.741 131.099 226.474C130.77 227.208 130.164 227.78 129.414 228.066L65.5663 252.447C64.8163 252.73 63.9849 252.704 63.254 252.374C62.523 252.045 61.9521 251.438 61.6662 250.687L61.2751 249.655C66.3021 248.277 89.2655 243.386 118.758 229.975C121.65 228.664 124.747 227.085 126.054 224.18C127.191 221.657 126.6 219.474 128.406 216.879Z" fill="#757BFF"/>
<path d="M45.2836 259.036C45.1785 259.036 45.0758 259.004 44.9893 258.944C44.9028 258.884 44.8368 258.799 44.8 258.701L8.08321 161.987C6.71133 158.364 6.82882 154.344 8.4099 150.808C9.99098 147.272 12.9064 144.51 16.5163 143.127L93.5464 113.716C97.1594 112.34 101.169 112.459 104.695 114.045C108.221 115.632 110.975 118.557 112.352 122.178L150.428 222.472C151.799 226.095 151.682 230.116 150.101 233.652C148.52 237.187 145.604 239.95 141.994 241.332L95.7228 258.995C95.553 259.067 97.8118 259.021 45.2836 259.036ZM45.6386 258.004H95.445L141.634 240.367C144.993 239.082 147.705 236.512 149.174 233.222C150.644 229.932 150.75 226.192 149.47 222.823L111.395 122.529C110.114 119.161 107.551 116.441 104.271 114.966C100.991 113.492 97.2612 113.383 93.9014 114.665L16.8714 144.077C13.5129 145.362 10.8005 147.932 9.33019 151.221C7.85987 154.511 7.75188 158.251 9.02994 161.621L45.6386 258.004Z" fill="#112544"/>
<path d="M51.916 226.487L48.3554 217.101C48.1902 216.665 48.1123 216.201 48.1264 215.734C48.1404 215.268 48.2461 214.809 48.4373 214.384C48.6284 213.959 48.9014 213.576 49.2406 213.257C49.5797 212.937 49.9783 212.688 50.4135 212.524L114.261 188.148C114.696 187.983 115.159 187.905 115.624 187.919C116.089 187.933 116.546 188.039 116.97 188.23C117.394 188.422 117.776 188.696 118.095 189.036C118.413 189.376 118.661 189.776 118.825 190.212L122.391 199.593C122.722 200.474 122.691 201.45 122.305 202.308C121.919 203.166 121.21 203.836 120.333 204.17L56.4798 228.546C55.6023 228.879 54.6287 228.85 53.7729 228.464C52.9171 228.078 52.2492 227.367 51.916 226.487ZM114.616 189.113L50.7891 213.463C50.4812 213.58 50.1993 213.758 49.9597 213.984C49.72 214.211 49.5273 214.483 49.3925 214.784C49.2578 215.086 49.1836 215.411 49.1743 215.741C49.1649 216.071 49.2206 216.4 49.3382 216.709L52.8987 226.09C53.1362 226.713 53.61 227.216 54.2164 227.489C54.8229 227.763 55.5127 227.785 56.1351 227.55L119.983 203.169C120.605 202.932 121.108 202.457 121.381 201.848C121.654 201.24 121.675 200.547 121.439 199.923L117.873 190.543C117.756 190.231 117.579 189.946 117.352 189.704C117.124 189.462 116.851 189.268 116.548 189.133C116.245 188.997 115.918 188.924 115.587 188.916C115.255 188.908 114.925 188.966 114.616 189.087V189.113Z" fill="#112544"/>
<path d="M61.2083 250.93L57.6426 241.549C57.3117 240.668 57.3425 239.692 57.7283 238.834C58.1141 237.976 58.8234 237.306 59.7007 236.972L123.554 212.591C123.988 212.426 124.451 212.349 124.916 212.363C125.381 212.377 125.838 212.484 126.262 212.675C126.686 212.867 127.068 213.14 127.386 213.48C127.704 213.82 127.953 214.219 128.118 214.655L131.678 224.041C131.843 224.477 131.92 224.941 131.906 225.407C131.891 225.873 131.785 226.332 131.594 226.757C131.403 227.182 131.13 227.565 130.792 227.884C130.453 228.204 130.055 228.453 129.62 228.618L65.7721 252.983C65.3381 253.15 64.8755 253.229 64.4109 253.216C63.9463 253.203 63.4889 253.098 63.0648 252.907C62.6408 252.717 62.2585 252.444 61.9399 252.104C61.6213 251.765 61.3727 251.366 61.2083 250.93ZM123.909 213.556L60.0506 237.937C59.4286 238.174 58.9258 238.649 58.6528 239.258C58.3798 239.866 58.3588 240.559 58.5945 241.183L62.1602 250.563C62.2771 250.872 62.4537 251.155 62.6798 251.395C62.9058 251.636 63.1769 251.829 63.4775 251.964C63.7781 252.099 64.1023 252.174 64.4316 252.183C64.7609 252.192 65.0888 252.136 65.3965 252.019L129.255 227.643C129.876 227.405 130.377 226.929 130.649 226.321C130.921 225.712 130.942 225.021 130.706 224.397L127.145 215.011C127.028 214.702 126.852 214.42 126.625 214.179C126.399 213.939 126.128 213.746 125.828 213.611C125.527 213.475 125.203 213.401 124.874 213.392C124.544 213.382 124.216 213.438 123.909 213.556Z" fill="#112544"/>
<path d="M95.0385 155.795C96.9852 160.925 97.3715 166.518 96.1486 171.867C94.9257 177.217 92.1484 182.083 88.1681 185.849C84.1878 189.616 79.1831 192.114 73.7869 193.029C68.3906 193.943 62.8452 193.232 57.8519 190.986C52.8585 188.74 48.6414 185.059 45.7339 180.409C42.8264 175.76 41.3589 170.35 41.5172 164.864C41.6754 159.378 43.4522 154.062 46.6229 149.589C49.7936 145.115 54.2158 141.685 59.3303 139.732C62.7266 138.435 66.3444 137.822 69.9771 137.927C73.6098 138.033 77.1862 138.855 80.502 140.346C83.8179 141.838 86.8083 143.97 89.3025 146.621C91.7967 149.271 93.7458 152.389 95.0385 155.795Z" fill="#E1E5FF"/>
<path d="M96.2786 171.332C92.1006 191.373 68.5404 200.104 52.3739 187.73C58.5649 190.548 65.5737 190.982 72.0631 188.949C78.5526 186.915 84.0684 182.557 87.5584 176.706C91.0483 170.854 92.268 163.919 90.9848 157.223C89.7015 150.528 86.0052 144.54 80.6009 140.403C86.3292 143.005 91.0029 147.486 93.8526 153.108C96.7023 158.73 97.5579 165.157 96.2786 171.332Z" fill="#CCD2FF"/>
<path d="M96.2786 171.332C95.3694 175.7 93.4234 179.784 90.6058 183.238C87.7881 186.692 84.1817 189.413 80.0922 191.172C76.0028 192.931 71.5507 193.676 67.1134 193.342C62.6761 193.009 58.3844 191.608 54.6018 189.258C55.9519 186.536 57.6336 183.994 59.6082 181.688C60.8516 180.197 62.2544 178.847 63.7913 177.663C71.8385 170.207 83.6264 169.206 94.5241 170.8C95.1274 170.909 95.7161 171.088 96.2786 171.332Z" fill="#DBCDF0"/>
<path d="M96.2786 171.332C95.3694 175.7 93.4234 179.784 90.6058 183.238C87.7881 186.692 84.1817 189.414 80.0922 191.172C76.0028 192.931 71.5507 193.676 67.1134 193.342C62.6761 193.009 58.3844 191.608 54.6018 189.258C54.8025 188.855 55.0083 188.463 55.2141 188.081C56.2432 187.658 57.4471 188.045 58.5379 188.36C63.4005 189.773 68.5698 189.721 73.4035 188.212C78.2371 186.703 82.522 183.803 85.7256 179.872C87.9844 177.096 89.6412 173.742 88.854 170.233C90.7629 170.331 92.6615 170.532 94.5138 170.8C95.1206 170.908 95.7128 171.087 96.2786 171.332Z" fill="#E64B38"/>
<path d="M76.5463 178.014C74.3956 180.011 68.5403 177.374 66.935 174.918C65.3914 172.591 64.2491 169.794 63.3333 167.782L64.1153 167.56C66.688 170.847 70.974 171.229 74.5551 169.227C75.9083 172.705 77.4107 177.214 76.5463 178.014Z" fill="#FCBBA4"/>
<path d="M66.7395 175.063C66.702 175.005 66.6885 174.935 66.702 174.867C66.7155 174.8 66.7548 174.74 66.8115 174.701C66.8697 174.664 66.94 174.652 67.0074 174.666C67.0748 174.681 67.1338 174.721 67.1717 174.779C68.7153 177.127 74.3751 179.681 76.3972 177.823C76.5618 177.668 76.9838 176.765 75.2498 171.781C75.2273 171.716 75.2314 171.645 75.2613 171.583C75.2913 171.521 75.3445 171.473 75.4093 171.451C75.4741 171.428 75.5452 171.432 75.607 171.462C75.6687 171.492 75.7161 171.546 75.7386 171.611C77.5086 176.714 77.1587 177.803 76.7419 178.205C74.4214 180.336 68.4014 177.632 66.7395 175.063Z" fill="#112544"/>
<path d="M76.8089 159.763C78.7795 164.407 77.8379 168.303 72.8058 169.995C68.8748 171.311 64.5734 169.825 62.7777 165.124C60.982 160.424 60.5446 155.537 64.419 154.056C68.2934 152.575 73.6805 152.42 76.8089 159.763Z" fill="#FCBBA4"/>
<path d="M74.869 153.731C74.869 157.25 71.7304 157.472 61.8463 158.613C61.8463 158.613 64.7225 160.284 63.2304 164.722C63.2304 164.722 60.3696 162.452 59.5155 165.238C59.5155 165.238 51.1544 154.402 58.4865 153.778C58.4865 153.778 55.0546 151.894 62.0367 149.464C69.0189 147.034 74.8382 147.679 74.869 153.731Z" fill="#112544"/>
<path d="M74.5655 169.211C74.5655 169.211 71.6584 170.759 68.9314 170.382C68.8672 170.37 68.8007 170.38 68.7427 170.41C68.6848 170.44 68.6389 170.49 68.6125 170.55C68.5862 170.61 68.581 170.677 68.5978 170.74C68.6146 170.804 68.6524 170.86 68.705 170.898C69.7598 171.719 71.8694 172.766 75.2755 171.156L74.5655 169.211Z" fill="#E2805D"/>
<path d="M68.8491 160.909C68.7826 160.892 68.7255 160.849 68.6899 160.79C68.6543 160.732 68.6431 160.661 68.6587 160.594C68.7608 160.186 69.0202 159.835 69.38 159.618C69.7398 159.401 70.1706 159.337 70.5779 159.438C70.6444 159.455 70.7015 159.498 70.7371 159.557C70.7727 159.616 70.7839 159.686 70.7683 159.753C70.7599 159.786 70.7451 159.817 70.7248 159.844C70.7044 159.871 70.679 159.894 70.6498 159.911C70.6207 159.928 70.5884 159.94 70.5549 159.945C70.5213 159.949 70.4872 159.947 70.4544 159.939C70.3179 159.905 70.1761 159.898 70.0371 159.919C69.898 159.94 69.7645 159.989 69.644 160.061C69.5236 160.134 69.4187 160.23 69.3353 160.344C69.2518 160.457 69.1916 160.586 69.1578 160.723C69.15 160.756 69.1358 160.787 69.1159 160.814C69.0961 160.841 69.0711 160.864 69.0424 160.881C69.0136 160.898 68.9817 160.91 68.9485 160.914C68.9153 160.919 68.8815 160.917 68.8491 160.909Z" fill="#112544"/>
<path d="M73.0939 159.087H73.0322C72.9989 159.079 72.9676 159.065 72.9399 159.045C72.9123 159.025 72.8889 158.999 72.8712 158.97C72.8534 158.941 72.8417 158.908 72.8367 158.874C72.8316 158.84 72.8334 158.806 72.8418 158.773C72.9439 158.364 73.2033 158.013 73.5631 157.797C73.9229 157.58 74.3537 157.515 74.761 157.617C74.7938 157.625 74.8246 157.64 74.8517 157.66C74.8788 157.681 74.9016 157.706 74.9188 157.736C74.936 157.765 74.9473 157.797 74.952 157.831C74.9567 157.864 74.9547 157.899 74.9462 157.931C74.9384 157.964 74.9242 157.995 74.9044 158.022C74.8845 158.049 74.8595 158.072 74.8308 158.089C74.802 158.107 74.7701 158.118 74.7369 158.123C74.7038 158.128 74.67 158.126 74.6375 158.117C74.3627 158.051 74.0731 158.096 73.8307 158.242C73.5884 158.387 73.4125 158.622 73.3409 158.896C73.3262 158.951 73.2942 158.999 73.2495 159.034C73.2049 159.068 73.1503 159.087 73.0939 159.087Z" fill="#112544"/>
<path d="M73.3666 161.93C73.7628 161.858 73.84 161.776 73.84 161.776C73.9532 161.471 73.0631 160.465 72.1575 159.712C72.131 159.691 72.1091 159.665 72.0929 159.635C72.0767 159.605 72.0666 159.572 72.0633 159.539C72.0599 159.505 72.0633 159.471 72.0733 159.439C72.0833 159.406 72.0997 159.376 72.1215 159.35C72.142 159.323 72.1679 159.301 72.1975 159.284C72.2272 159.267 72.2599 159.257 72.2937 159.254C72.3275 159.25 72.3616 159.254 72.394 159.264C72.4263 159.275 72.4562 159.292 72.4816 159.314C72.9962 159.722 74.6272 161.131 74.3082 161.961C74.2259 162.188 73.9635 162.333 73.4592 162.426C73.4006 162.424 73.3444 162.402 73.2998 162.364C73.2553 162.326 73.2251 162.273 73.2143 162.216C73.2035 162.158 73.2127 162.098 73.2404 162.046C73.2681 161.994 73.3127 161.953 73.3666 161.93Z" fill="#E2805D"/>
<path d="M72.4456 164.536C72.4218 164.497 72.4088 164.452 72.4081 164.406C72.4074 164.36 72.4189 164.315 72.4414 164.275C72.464 164.235 72.4968 164.202 72.5364 164.179C72.576 164.156 72.621 164.144 72.6668 164.144C73.2714 164.127 73.8657 163.983 74.4115 163.722C74.9574 163.46 75.4427 163.088 75.8363 162.627C75.865 162.589 75.9037 162.559 75.9482 162.542C75.9927 162.524 76.0412 162.52 76.0882 162.528C76.1352 162.537 76.1789 162.558 76.2144 162.59C76.2499 162.622 76.2757 162.664 76.2891 162.71C76.531 163.525 76.6287 165.197 75.2601 165.672C74.7322 165.832 74.1655 165.807 73.6538 165.6C73.1421 165.394 72.7159 165.018 72.4456 164.536ZM73.1659 164.624C73.3954 164.899 73.7015 165.1 74.0452 165.2C74.3889 165.3 74.7545 165.296 75.0954 165.186C75.9495 164.887 75.9701 163.938 75.8929 163.344C75.1447 164.054 74.1884 164.502 73.1659 164.624Z" fill="#E2805D"/>
<path d="M74.8691 159.015C74.8981 159.059 74.917 159.109 74.9242 159.161C74.9314 159.213 74.9268 159.266 74.9107 159.316C74.8946 159.367 74.8674 159.412 74.8312 159.451C74.795 159.489 74.7507 159.518 74.7016 159.537C74.6525 159.556 74.5998 159.563 74.5474 159.559C74.4951 159.554 74.4444 159.538 74.3992 159.511C74.354 159.484 74.3154 159.447 74.2863 159.403C74.2572 159.359 74.2383 159.31 74.2311 159.257C74.187 159.167 74.1796 159.062 74.2103 158.966C74.2409 158.87 74.3073 158.79 74.3957 158.741C74.4447 158.728 74.4958 158.725 74.5461 158.731C74.5965 158.738 74.645 158.754 74.689 158.78C74.7329 158.805 74.7715 158.839 74.8024 158.879C74.8333 158.92 74.8559 158.966 74.8691 159.015Z" fill="#112544"/>
<path d="M70.619 160.79C70.6626 160.881 70.6693 160.986 70.6377 161.082C70.606 161.178 70.5385 161.259 70.4492 161.306C70.3496 161.331 70.2442 161.316 70.1556 161.264C70.067 161.212 70.0025 161.127 69.9759 161.027C69.9322 160.936 69.9255 160.831 69.9572 160.735C69.9888 160.639 70.0564 160.559 70.1456 160.511C70.2452 160.488 70.35 160.503 70.4382 160.555C70.5265 160.607 70.5913 160.691 70.619 160.79Z" fill="#112544"/>
<path d="M42.8397 175.739C41.5221 172.27 40.8987 168.574 41.0052 164.863C41.1117 161.153 41.9459 157.5 43.4602 154.112C46.5186 147.271 52.1615 141.929 59.1476 139.26C66.1338 136.592 73.8909 136.815 80.7124 139.882C87.534 142.95 92.8612 148.609 95.5222 155.615C98.1832 162.621 97.96 170.4 94.9017 177.241C91.8433 184.082 86.2004 189.425 79.2142 192.093C72.2281 194.762 64.471 194.538 57.6495 191.471C50.8279 188.404 45.5007 182.745 42.8397 175.739ZM59.5361 140.228C54.5162 142.144 50.1755 145.509 47.063 149.899C43.9505 154.289 42.2061 159.506 42.0502 164.891C41.8944 170.275 43.3342 175.585 46.1875 180.148C49.0408 184.712 53.1795 188.325 58.0802 190.529C62.9809 192.734 68.4234 193.432 73.7196 192.535C79.0158 191.637 83.9277 189.185 87.8341 185.488C91.7406 181.791 94.4661 177.016 95.666 171.765C96.866 166.515 96.4865 161.025 94.5755 155.991C92.0075 149.246 86.8759 143.797 80.3067 140.842C73.7375 137.887 66.2676 137.666 59.5361 140.228Z" fill="#112544"/>
<path d="M64.1669 163.999C65.1136 165.424 64.9696 167.188 63.8479 167.937C62.7262 168.685 61.0489 168.143 60.1021 166.719C59.1554 165.295 59.2995 163.53 60.416 162.782C61.5325 162.034 63.2202 162.575 64.1669 163.999Z" fill="#FCBBA4"/>
<path d="M62.4741 165.759C62.2374 165.759 62.2168 165.511 61.9132 165.068C61.8788 165.009 61.8686 164.938 61.8849 164.872C61.9013 164.805 61.9428 164.748 62.0007 164.712C62.0602 164.678 62.1307 164.668 62.1971 164.686C62.2634 164.703 62.3204 164.746 62.3557 164.805L62.6953 165.372C62.7129 165.401 62.7246 165.433 62.7298 165.466C62.7349 165.499 62.7334 165.533 62.7252 165.566C62.7171 165.599 62.7025 165.629 62.6823 165.656C62.6622 165.683 62.6368 165.706 62.6078 165.723C62.5676 165.748 62.5212 165.76 62.4741 165.759Z" fill="#E2805D"/>
<path d="M63.2624 220.337C65.0117 219.76 65.9635 217.87 65.3884 216.116C64.8133 214.361 62.929 213.407 61.1797 213.984C59.4304 214.561 58.4786 216.45 59.0537 218.204C59.6288 219.959 61.5131 220.913 63.2624 220.337Z" fill="white"/>
<path d="M65.3503 215.961C65.6162 216.657 65.6423 217.422 65.4245 218.135C65.2068 218.848 64.7577 219.468 64.1486 219.895C63.5395 220.323 62.8053 220.534 62.0628 220.495C61.3203 220.456 60.6121 220.17 60.0507 219.681C63.3694 220.383 65.4944 216.105 62.896 213.876C63.4478 213.986 63.9625 214.236 64.3918 214.6C64.8211 214.965 65.151 215.433 65.3503 215.961Z" fill="#E1E5FF"/>
<path d="M58.6305 218.525C58.4504 218.051 58.3653 217.545 58.3799 217.038C58.3945 216.531 58.5087 216.031 58.7158 215.568C58.9229 215.105 59.219 214.687 59.587 214.339C59.9551 213.991 60.388 213.718 60.861 213.538C61.3339 213.357 61.8378 213.272 62.3437 213.287C62.8495 213.301 63.3476 213.416 63.8094 213.623C64.2712 213.831 64.6876 214.128 65.035 214.497C65.3823 214.866 65.6538 215.3 65.8339 215.775C66.1976 216.733 66.1669 217.796 65.7486 218.731C65.3303 219.667 64.5586 220.397 63.6034 220.762C62.6482 221.126 61.5876 221.096 60.655 220.676C59.7224 220.257 58.9942 219.483 58.6305 218.525ZM61.2031 214.505C60.6808 214.705 60.2291 215.055 59.9053 215.512C59.5815 215.969 59.4001 216.511 59.384 217.072C59.368 217.632 59.518 218.184 59.8152 218.659C60.1123 219.134 60.5432 219.509 61.0533 219.738C61.5634 219.968 62.1298 220.04 62.6808 219.946C63.2318 219.852 63.7426 219.596 64.1486 219.211C64.5547 218.826 64.8377 218.329 64.9618 217.782C65.086 217.236 65.0456 216.665 64.846 216.141C64.5796 215.444 64.0494 214.881 63.3709 214.575C62.6923 214.268 61.9205 214.243 61.2237 214.505H61.2031Z" fill="#112544"/>
<path d="M76.9169 211.523C77.1502 212.141 77.1957 212.815 77.0475 213.459C76.8993 214.103 76.5641 214.688 76.0842 215.141C75.6043 215.595 75.0013 215.895 74.3514 216.004C73.7014 216.114 73.0337 216.028 72.4325 215.757C71.8313 215.486 71.3236 215.043 70.9736 214.483C70.6236 213.923 70.447 213.271 70.466 212.61C70.485 211.95 70.6989 211.31 71.0805 210.771C71.4622 210.232 71.9945 209.818 72.6103 209.583C73.4379 209.268 74.3565 209.295 75.1641 209.659C75.9717 210.023 76.6022 210.693 76.9169 211.523Z" fill="white"/>
<path d="M76.9168 211.523C77.1827 212.219 77.2088 212.985 76.9911 213.698C76.7733 214.411 76.3242 215.03 75.7151 215.458C75.106 215.885 74.3719 216.096 73.6294 216.058C72.8869 216.019 72.1786 215.732 71.6172 215.243C74.9359 215.945 77.066 211.667 74.4677 209.438C75.0185 209.549 75.5321 209.799 75.9605 210.164C76.3889 210.528 76.7179 210.996 76.9168 211.523Z" fill="#E1E5FF"/>
<path d="M70.1971 214.103C69.8335 213.145 69.8642 212.081 70.2825 211.146C70.7007 210.211 71.4724 209.48 72.4276 209.116C73.3828 208.751 74.4434 208.782 75.376 209.201C76.3086 209.621 77.0369 210.395 77.4005 211.353C77.7642 212.311 77.7335 213.374 77.3152 214.309C76.8969 215.245 76.1253 215.975 75.1701 216.34C74.2148 216.704 73.1543 216.674 72.2217 216.254C71.289 215.835 70.5608 215.061 70.1971 214.103ZM72.7698 210.083C72.2485 210.282 71.7978 210.632 71.4747 211.088C71.1515 211.543 70.9704 212.085 70.9543 212.644C70.9382 213.203 71.0878 213.755 71.3841 214.228C71.6804 214.702 72.1102 215.077 72.6192 215.306C73.1281 215.535 73.6932 215.607 74.2431 215.514C74.793 215.421 75.303 215.166 75.7085 214.782C76.114 214.398 76.3969 213.902 76.5213 213.357C76.6457 212.812 76.6061 212.242 76.4075 211.719C76.139 211.026 75.6099 210.467 74.9342 210.162C74.2586 209.857 73.4905 209.831 72.7955 210.088L72.7698 210.083Z" fill="#112544"/>
<path d="M86.3974 211.504C88.1467 210.928 89.0985 209.038 88.5234 207.284C87.9483 205.529 86.064 204.575 84.3147 205.152C82.5654 205.728 81.6136 207.618 82.1887 209.372C82.7638 211.127 84.6482 212.081 86.3974 211.504Z" fill="white"/>
<path d="M88.4835 207.127C88.7493 207.823 88.7755 208.588 88.5577 209.301C88.34 210.014 87.8909 210.634 87.2818 211.061C86.6727 211.489 85.9385 211.7 85.196 211.661C84.4535 211.622 83.7453 211.336 83.1838 210.847C86.5025 211.549 88.6327 207.271 86.0343 205.042C86.5855 205.152 87.0996 205.401 87.5281 205.766C87.9566 206.131 88.2854 206.599 88.4835 207.127Z" fill="#E1E5FF"/>
<path d="M81.7689 209.691C81.4052 208.733 81.4359 207.67 81.8542 206.734C82.2725 205.799 83.0442 205.069 83.9994 204.704C84.9546 204.339 86.0152 204.37 86.9478 204.79C87.8804 205.209 88.6086 205.983 88.9723 206.941C89.336 207.899 89.3053 208.962 88.887 209.898C88.4687 210.833 87.6971 211.563 86.7418 211.928C85.7866 212.293 84.726 212.262 83.7934 211.843C82.8608 211.423 82.1326 210.649 81.7689 209.691ZM84.3416 205.672C83.6422 205.938 83.0772 206.473 82.7708 207.158C82.4645 207.842 82.4418 208.621 82.7079 209.322C82.974 210.024 83.5071 210.59 84.1897 210.897C84.8724 211.205 85.6488 211.227 86.3482 210.961C87.0472 210.692 87.6118 210.157 87.9185 209.473C88.2251 208.788 88.2488 208.009 87.9844 207.307C87.717 206.611 87.1866 206.049 86.5084 205.743C85.8303 205.437 85.059 205.411 84.3621 205.672H84.3416Z" fill="#112544"/>
<path d="M100.055 202.71C100.29 203.328 100.336 204.001 100.189 204.646C100.041 205.29 99.7066 205.876 99.2272 206.33C98.7478 206.784 98.145 207.085 97.4951 207.195C96.8451 207.305 96.1771 207.22 95.5755 206.949C94.974 206.679 94.4658 206.236 94.1152 205.676C93.7646 205.116 93.5874 204.465 93.6059 203.804C93.6245 203.143 93.8379 202.503 94.2193 201.964C94.6006 201.424 95.1328 201.011 95.7486 200.775C96.5756 200.459 97.4936 200.486 98.3011 200.849C99.1086 201.211 99.7395 201.881 100.055 202.71Z" fill="white"/>
<path d="M100.055 202.71C100.321 203.406 100.347 204.171 100.129 204.884C99.9118 205.597 99.4626 206.217 98.8535 206.644C98.2444 207.072 97.5103 207.283 96.7678 207.244C96.0253 207.205 95.317 206.919 94.7556 206.43C98.0743 207.132 100.199 202.854 97.601 200.625C98.1527 200.735 98.6674 200.985 99.0967 201.349C99.5261 201.714 99.8559 202.182 100.055 202.71Z" fill="#E1E5FF"/>
<path d="M93.3354 205.274C92.9718 204.316 93.0025 203.253 93.4208 202.317C93.8391 201.382 94.6107 200.652 95.5659 200.287C96.5212 199.922 97.5817 199.953 98.5143 200.373C99.4469 200.792 100.175 201.566 100.539 202.524C100.719 202.998 100.804 203.504 100.789 204.011C100.775 204.518 100.661 205.018 100.454 205.481C100.246 205.944 99.9504 206.362 99.5823 206.71C99.2142 207.058 98.7814 207.33 98.3084 207.511C97.8354 207.692 97.3316 207.777 96.8257 207.762C96.3198 207.748 95.8217 207.633 95.36 207.425C94.8982 207.218 94.4817 206.921 94.1344 206.552C93.787 206.183 93.5155 205.749 93.3354 205.274ZM95.9081 201.255C95.3857 201.454 94.9341 201.804 94.6102 202.261C94.2864 202.718 94.105 203.261 94.089 203.821C94.0729 204.381 94.223 204.934 94.5201 205.408C94.8173 205.883 95.2481 206.259 95.7582 206.488C96.2683 206.717 96.8347 206.789 97.3857 206.695C97.9367 206.601 98.4476 206.345 98.8536 205.96C99.2597 205.575 99.5426 205.078 99.6668 204.531C99.7909 203.985 99.7506 203.414 99.5509 202.89C99.2835 202.194 98.7531 201.632 98.075 201.326C97.3968 201.02 96.6256 200.994 95.9287 201.255H95.9081Z" fill="#112544"/>
<path d="M111.622 198.293C111.856 198.911 111.902 199.585 111.755 200.229C111.608 200.873 111.273 201.459 110.794 201.913C110.314 202.367 109.712 202.668 109.062 202.778C108.412 202.888 107.744 202.803 107.142 202.533C106.54 202.262 106.032 201.819 105.682 201.26C105.331 200.7 105.154 200.048 105.172 199.387C105.191 198.727 105.404 198.086 105.786 197.547C106.167 197.008 106.699 196.594 107.315 196.358C108.142 196.044 109.06 196.071 109.867 196.434C110.674 196.796 111.305 197.465 111.622 198.293Z" fill="white"/>
<path d="M111.622 198.293C111.888 198.989 111.914 199.755 111.696 200.468C111.478 201.181 111.029 201.8 110.42 202.228C109.811 202.655 109.077 202.866 108.334 202.828C107.592 202.789 106.884 202.502 106.322 202.013C109.641 202.715 111.771 198.443 109.173 196.208C109.723 196.319 110.237 196.569 110.665 196.934C111.094 197.298 111.423 197.766 111.622 198.293Z" fill="#E1E5FF"/>
<path d="M104.902 200.857C104.538 199.899 104.569 198.836 104.987 197.9C105.406 196.965 106.177 196.235 107.133 195.87C108.088 195.505 109.148 195.536 110.081 195.956C111.014 196.375 111.742 197.149 112.105 198.107C112.469 199.065 112.438 200.129 112.02 201.064C111.602 201.999 110.83 202.729 109.875 203.094C108.92 203.459 107.859 203.428 106.927 203.009C105.994 202.589 105.266 201.815 104.902 200.857ZM107.5 196.838C106.979 197.037 106.529 197.386 106.205 197.842C105.882 198.298 105.701 198.84 105.685 199.399C105.669 199.958 105.818 200.509 106.115 200.983C106.411 201.457 106.841 201.832 107.35 202.061C107.859 202.289 108.424 202.362 108.974 202.268C109.524 202.175 110.034 201.92 110.439 201.536C110.845 201.152 111.128 200.656 111.252 200.111C111.376 199.566 111.337 198.996 111.138 198.473C110.872 197.773 110.339 197.207 109.657 196.9C108.975 196.593 108.199 196.571 107.5 196.838Z" fill="#112544"/>
<path d="M73.0626 244.602C74.691 243.74 75.3142 241.717 74.4545 240.084C73.5949 238.451 71.5779 237.826 69.9495 238.688C68.3211 239.55 67.6979 241.573 68.5575 243.206C69.4172 244.839 71.4342 245.464 73.0626 244.602Z" fill="white"/>
<path d="M74.6375 240.419C74.9034 241.115 74.9295 241.881 74.7118 242.594C74.494 243.307 74.0449 243.926 73.4358 244.354C72.8267 244.781 72.0926 244.992 71.3501 244.954C70.6076 244.915 69.8993 244.628 69.3379 244.139C72.6566 244.841 74.7868 240.563 72.1884 238.329C72.7394 238.442 73.253 238.692 73.6813 239.058C74.1095 239.423 74.4385 239.891 74.6375 240.419Z" fill="#E1E5FF"/>
<path d="M67.9229 242.999C67.5599 242.041 67.5913 240.977 68.0101 240.043C68.4288 239.108 69.2007 238.378 70.156 238.014C71.1112 237.65 72.1715 237.682 73.1036 238.102C74.0357 238.522 74.7633 239.296 75.1263 240.254C75.306 240.728 75.3909 241.233 75.3759 241.74C75.361 242.248 75.2465 242.747 75.0392 243.21C74.8318 243.673 74.5356 244.09 74.1674 244.438C73.7992 244.786 73.3662 245.058 72.8932 245.238C72.4203 245.418 71.9165 245.503 71.4108 245.488C70.905 245.473 70.4071 245.359 69.9456 245.151C69.4841 244.943 69.0679 244.646 68.7208 244.277C68.3738 243.907 68.1026 243.473 67.9229 242.999ZM70.4955 238.979C69.9749 239.178 69.5248 239.528 69.2022 239.984C68.8796 240.44 68.6989 240.981 68.6829 241.54C68.6669 242.098 68.8163 242.649 69.1123 243.123C69.4083 243.596 69.8377 243.971 70.346 244.2C70.8544 244.429 71.4191 244.502 71.9687 244.409C72.5183 244.317 73.0282 244.063 73.434 243.68C73.8398 243.297 74.1233 242.802 74.2486 242.257C74.374 241.712 74.3357 241.143 74.1384 240.62C73.873 239.922 73.3434 239.358 72.6651 239.049C71.9867 238.741 71.2143 238.714 70.5161 238.974L70.4955 238.979Z" fill="#112544"/>
<path d="M86.204 236.012C86.4402 236.631 86.4879 237.307 86.3411 237.953C86.1943 238.599 85.8595 239.187 85.3792 239.643C84.8989 240.098 84.2947 240.4 83.643 240.511C82.9914 240.621 82.3216 240.536 81.7186 240.264C81.1155 239.993 80.6063 239.549 80.2554 238.987C79.9045 238.425 79.7278 237.772 79.7475 237.109C79.7672 236.447 79.9825 235.805 80.3661 235.265C80.7498 234.725 81.2845 234.312 81.9026 234.077C82.729 233.763 83.6457 233.791 84.452 234.153C85.2582 234.516 85.8882 235.185 86.204 236.012Z" fill="white"/>
<path d="M86.2092 236.017C86.472 236.714 86.4957 237.478 86.2766 238.19C86.0576 238.902 85.6082 239.52 84.9997 239.947C84.3911 240.373 83.658 240.585 82.9163 240.547C82.1746 240.509 81.4667 240.224 80.9044 239.738C84.2283 240.439 86.3533 236.162 83.7549 233.927C84.3063 234.041 84.8203 234.291 85.2493 234.657C85.6783 235.022 86.0085 235.49 86.2092 236.017Z" fill="#E1E5FF"/>
<path d="M79.4895 238.577C79.2191 237.863 79.1656 237.086 79.3358 236.342C79.506 235.598 79.8923 234.922 80.4458 234.398C80.9992 233.874 81.6951 233.527 82.4454 233.399C83.1957 233.272 83.9668 233.371 84.6612 233.683C85.3556 233.995 85.9421 234.507 86.3467 235.153C86.7512 235.799 86.9556 236.552 86.9341 237.314C86.9125 238.077 86.666 238.817 86.2256 239.439C85.7852 240.061 85.1707 240.539 84.4598 240.811C83.9873 240.993 83.4836 241.079 82.9777 241.065C82.4718 241.051 81.9737 240.937 81.5119 240.729C81.0501 240.522 80.6337 240.224 80.2866 239.855C79.9396 239.486 79.6687 239.051 79.4895 238.577ZM82.0621 234.562C81.5397 234.761 81.0881 235.112 80.7643 235.569C80.4404 236.025 80.259 236.568 80.243 237.129C80.2269 237.689 80.377 238.241 80.6741 238.716C80.9713 239.191 81.4022 239.566 81.9123 239.795C82.4224 240.024 82.9887 240.097 83.5397 240.003C84.0907 239.909 84.6016 239.653 85.0076 239.268C85.4137 238.883 85.6967 238.385 85.8208 237.839C85.9449 237.292 85.9046 236.721 85.705 236.198C85.4386 235.501 84.9084 234.938 84.2298 234.632C83.5513 234.325 82.7795 234.3 82.0827 234.562H82.0621Z" fill="#112544"/>
<path d="M95.8384 235.92C97.5595 235.263 98.4242 233.332 97.7697 231.606C97.1152 229.88 95.1894 229.013 93.4682 229.669C91.7471 230.325 90.8824 232.257 91.5369 233.983C92.1914 235.709 94.1172 236.576 95.8384 235.92Z" fill="white"/>
<path d="M97.7758 231.601C98.0417 232.297 98.0678 233.062 97.8501 233.775C97.6324 234.488 97.1832 235.108 96.5741 235.535C95.965 235.963 95.2309 236.174 94.4884 236.135C93.7459 236.096 93.0376 235.81 92.4762 235.321C93.0611 235.439 93.6668 235.398 94.2304 235.201C94.794 235.005 95.2948 234.661 95.6809 234.205C96.0669 233.749 96.3241 233.197 96.4256 232.608C96.527 232.018 96.4692 231.412 96.258 230.852C96.0654 230.334 95.745 229.872 95.3267 229.511C95.8775 229.624 96.3909 229.875 96.8191 230.24C97.2473 230.605 97.5764 231.073 97.7758 231.601Z" fill="#E1E5FF"/>
<path d="M91.0561 234.16C90.6931 233.202 90.7244 232.139 91.1432 231.204C91.562 230.269 92.3339 229.539 93.2891 229.175C94.2444 228.811 95.3047 228.843 96.2368 229.263C97.1689 229.683 97.8965 230.457 98.2595 231.415C98.4392 231.889 98.524 232.394 98.5091 232.902C98.4941 233.409 98.3797 233.908 98.1723 234.371C97.965 234.834 97.6688 235.251 97.3006 235.599C96.9324 235.947 96.4994 236.219 96.0264 236.399C95.5535 236.58 95.0497 236.665 94.5439 236.65C94.0382 236.635 93.5403 236.52 93.0788 236.312C92.6172 236.104 92.2011 235.807 91.854 235.438C91.507 235.068 91.2358 234.634 91.0561 234.16ZM93.6545 230.145C93.1332 230.344 92.6825 230.694 92.3594 231.15C92.0362 231.606 91.8551 232.147 91.839 232.706C91.8229 233.265 91.9724 233.817 92.2688 234.291C92.5651 234.764 92.9949 235.14 93.5038 235.368C94.0127 235.597 94.5779 235.669 95.1278 235.576C95.6777 235.483 96.1877 235.228 96.5932 234.844C96.9987 234.46 97.2815 233.964 97.406 233.419C97.5304 232.874 97.4908 232.304 97.2922 231.781C97.0259 231.081 96.4932 230.515 95.811 230.208C95.1288 229.901 94.3531 229.879 93.6545 230.145Z" fill="#112544"/>
<path d="M109.342 227.178C109.578 227.797 109.626 228.472 109.479 229.118C109.332 229.764 108.997 230.352 108.517 230.807C108.037 231.262 107.433 231.564 106.781 231.675C106.13 231.786 105.461 231.7 104.858 231.43C104.255 231.159 103.745 230.715 103.394 230.153C103.043 229.592 102.866 228.939 102.885 228.277C102.904 227.615 103.119 226.973 103.502 226.433C103.884 225.893 104.418 225.479 105.036 225.243C105.863 224.929 106.78 224.957 107.587 225.319C108.395 225.682 109.026 226.35 109.342 227.178Z" fill="white"/>
<path d="M109.342 227.184C109.608 227.88 109.634 228.645 109.417 229.358C109.199 230.071 108.75 230.691 108.141 231.118C107.532 231.546 106.798 231.757 106.055 231.718C105.313 231.679 104.604 231.393 104.043 230.904C104.765 231.048 105.514 230.948 106.174 230.621C106.834 230.293 107.367 229.755 107.69 229.092C108.013 228.429 108.108 227.677 107.96 226.953C107.812 226.23 107.43 225.576 106.873 225.094C107.427 225.203 107.945 225.452 108.377 225.818C108.81 226.184 109.142 226.654 109.342 227.184Z" fill="#E1E5FF"/>
<path d="M102.71 226.791C103.024 226.097 103.536 225.51 104.181 225.106C104.826 224.702 105.576 224.498 106.337 224.52C107.097 224.542 107.834 224.789 108.455 225.23C109.076 225.671 109.553 226.286 109.826 226.998C110.052 227.592 110.128 228.233 110.048 228.863C109.968 229.494 109.734 230.095 109.367 230.613C109 231.132 108.511 231.551 107.944 231.835C107.376 232.118 106.748 232.257 106.114 232.239C105.48 232.22 104.861 232.045 104.311 231.729C103.76 231.414 103.296 230.966 102.96 230.428C102.623 229.889 102.424 229.275 102.381 228.641C102.337 228.007 102.45 227.371 102.71 226.791ZM103.652 227.214C103.463 227.639 103.382 228.103 103.415 228.566C103.447 229.03 103.594 229.478 103.84 229.871C104.087 230.264 104.426 230.591 104.829 230.821C105.231 231.051 105.683 231.179 106.146 231.192C106.609 231.205 107.069 231.104 107.483 230.897C107.898 230.69 108.255 230.384 108.524 230.006C108.793 229.627 108.964 229.188 109.024 228.727C109.083 228.267 109.028 227.799 108.864 227.364C108.668 226.838 108.32 226.383 107.865 226.056C107.41 225.73 106.868 225.547 106.308 225.531C105.748 225.515 105.197 225.666 104.724 225.966C104.251 226.266 103.877 226.701 103.652 227.214Z" fill="#112544"/>
<path d="M118.82 227.15C120.569 226.573 121.521 224.683 120.946 222.929C120.371 221.175 118.487 220.22 116.737 220.797C114.988 221.374 114.036 223.263 114.611 225.018C115.186 226.772 117.071 227.727 118.82 227.15Z" fill="white"/>
<path d="M120.909 222.767C121.171 223.461 121.195 224.224 120.977 224.933C120.759 225.643 120.311 226.26 119.705 226.686C119.099 227.113 118.368 227.325 117.628 227.289C116.889 227.252 116.182 226.97 115.62 226.487C116.205 226.604 116.81 226.563 117.374 226.366C117.937 226.17 118.438 225.826 118.824 225.37C119.211 224.914 119.468 224.363 119.571 223.774C119.673 223.184 119.616 222.578 119.407 222.018C119.214 221.498 118.892 221.036 118.47 220.677C119.019 220.791 119.531 221.042 119.957 221.408C120.384 221.773 120.711 222.24 120.909 222.767Z" fill="#E1E5FF"/>
<path d="M114.194 225.326C114.015 224.852 113.93 224.346 113.945 223.839C113.96 223.332 114.074 222.833 114.282 222.37C114.489 221.907 114.785 221.49 115.153 221.142C115.522 220.793 115.954 220.522 116.427 220.341C116.9 220.161 117.404 220.076 117.91 220.091C118.416 220.106 118.914 220.221 119.375 220.429C119.837 220.637 120.253 220.934 120.6 221.303C120.947 221.672 121.218 222.106 121.398 222.581C121.761 223.539 121.729 224.602 121.311 225.537C120.892 226.472 120.12 227.201 119.165 227.565C118.21 227.929 117.149 227.898 116.217 227.478C115.285 227.058 114.557 226.284 114.194 225.326ZM116.767 221.311C116.245 221.511 115.793 221.861 115.469 222.318C115.145 222.775 114.964 223.318 114.948 223.878C114.932 224.438 115.082 224.99 115.379 225.465C115.676 225.94 116.107 226.316 116.617 226.545C117.127 226.774 117.694 226.846 118.245 226.752C118.796 226.658 119.307 226.402 119.713 226.017C120.119 225.632 120.402 225.135 120.526 224.588C120.65 224.042 120.61 223.471 120.41 222.947C120.139 222.254 119.608 221.695 118.93 221.392C118.252 221.089 117.483 221.066 116.788 221.327L116.767 221.311Z" fill="#112544"/>
<path d="M100.976 259.036H40.8895C40.7531 259.036 40.6222 258.982 40.5257 258.885C40.4292 258.788 40.375 258.657 40.375 258.52C40.375 258.383 40.4292 258.252 40.5257 258.155C40.6222 258.058 40.7531 258.004 40.8895 258.004H100.976C101.113 258.004 101.243 258.058 101.34 258.155C101.436 258.252 101.491 258.383 101.491 258.52C101.491 258.657 101.436 258.788 101.34 258.885C101.243 258.982 101.113 259.036 100.976 259.036Z" fill="#CCD2FF"/>
<path d="M193.478 107.679C165.472 48.9478 114.076 23.989 103.688 19.4224C103.19 19.2066 102.798 18.8027 102.595 18.2984C102.393 17.7941 102.397 17.2301 102.607 16.7289C102.808 16.2286 103.196 15.8269 103.689 15.61C104.181 15.393 104.738 15.3779 105.242 15.5679C116.134 19.603 171.523 42.7352 198.927 105.192C199.23 105.912 199.24 106.722 198.957 107.45C198.673 108.179 198.117 108.767 197.408 109.091C196.698 109.415 195.891 109.448 195.157 109.185C194.423 108.921 193.821 108.381 193.478 107.679Z" fill="white"/>
<path d="M196.185 109.918C195.519 109.922 194.866 109.734 194.304 109.376C193.742 109.019 193.295 108.506 193.015 107.9C165.05 49.252 113.526 24.3087 103.487 19.8969C102.851 19.6396 102.342 19.1393 102.073 18.5059C101.804 17.8726 101.798 17.1581 102.054 16.5197C102.311 15.8813 102.81 15.3712 103.441 15.1017C104.073 14.8322 104.785 14.8254 105.422 15.0827C116.294 19.1074 171.919 42.348 199.406 104.98C199.636 105.506 199.735 106.08 199.693 106.653C199.651 107.226 199.47 107.78 199.165 108.267C198.861 108.753 198.442 109.158 197.946 109.445C197.45 109.731 196.891 109.892 196.318 109.913L196.185 109.918ZM193.941 107.457C194.144 107.9 194.475 108.272 194.89 108.525C195.305 108.779 195.786 108.903 196.272 108.881C196.677 108.867 197.072 108.754 197.423 108.551C197.774 108.349 198.07 108.064 198.286 107.72C198.501 107.377 198.63 106.985 198.66 106.581C198.69 106.176 198.621 105.77 198.459 105.398C171.142 43.1478 115.867 20.0517 105.062 16.0527C104.679 15.8974 104.25 15.9009 103.87 16.0625C103.49 16.2241 103.189 16.5306 103.034 16.9144C102.879 17.2983 102.883 17.7282 103.044 18.1094C103.205 18.4907 103.511 18.7921 103.894 18.9475C113.999 23.3799 165.822 48.478 193.936 107.457H193.941Z" fill="#112544"/>
<path d="M201.798 109.195C195.947 95.8526 188.704 83.1691 180.188 71.3572C176.926 66.8319 170.191 71.8732 173.448 76.3056C181.742 87.5975 188.956 99.6497 194.991 112.302C197.157 116.842 203.676 113.483 201.798 109.195Z" fill="#8D95FF"/>
<path d="M194.528 112.523C188.502 99.9032 181.306 87.8791 173.036 76.61C169.372 71.6254 176.941 65.9753 180.605 71.0527C189.139 82.8969 196.4 95.613 202.266 108.989C204.474 113.999 196.946 117.611 194.528 112.523ZM173.864 76.0011C182.179 87.3215 189.415 99.4008 195.475 112.08C197.311 115.934 203.002 113.194 201.34 109.402C195.496 96.1031 188.266 83.4614 179.771 71.6874C176.895 67.6677 171.019 72.1208 173.864 76.0011Z" fill="#112544"/>
<path d="M183.414 89.9334H183.362C172.177 88.8344 164.675 85.1708 161.073 79.0562C156.983 72.1057 159.205 64.2161 160.095 61.6981C148.349 62.9003 140.085 60.7486 135.542 55.3048C130.14 48.8291 131.714 39.8249 132.352 37.1262C121.912 38.7774 113.736 37.3326 108.056 32.8383C103.823 29.4239 101.108 24.4697 100.503 19.056C100.494 18.9191 100.54 18.7844 100.63 18.6813C100.72 18.5783 100.847 18.5154 100.984 18.5065C101.12 18.4976 101.255 18.5434 101.358 18.6339C101.46 18.7244 101.523 18.8521 101.532 18.9889C101.532 19.0663 102.134 26.8527 108.71 32.0488C114.292 36.4606 122.453 37.7867 132.964 35.991C133.051 35.976 133.139 35.9833 133.222 36.0122C133.305 36.0412 133.379 36.0908 133.437 36.1564C133.495 36.222 133.536 36.3015 133.555 36.3872C133.574 36.473 133.571 36.5622 133.546 36.6464C133.51 36.7547 130.397 47.5494 136.335 54.6547C140.754 59.9437 148.992 61.9406 160.821 60.5887C160.909 60.5815 160.998 60.5973 161.078 60.6347C161.159 60.672 161.228 60.7295 161.28 60.8016C161.332 60.8738 161.364 60.9581 161.374 61.0465C161.384 61.1348 161.37 61.2242 161.336 61.3059C161.294 61.3988 157.368 70.7796 161.948 78.5454C165.375 84.3607 172.609 87.8333 183.45 88.9169C183.586 88.9238 183.715 88.9847 183.806 89.0863C183.898 89.1879 183.946 89.3219 183.939 89.4587C183.932 89.5956 183.871 89.7241 183.77 89.816C183.669 89.908 183.535 89.9558 183.398 89.9489L183.414 89.9334Z" fill="#112544"/>
<path d="M189.403 79.6908C186.614 78.1428 185.168 77.5546 183.085 77.1934L185.143 80.0468C185.179 81.1511 178.181 80.1036 178.001 81.7961C177.749 84.1696 184.206 84.7837 184.206 84.7837C184.278 86.1356 177.003 84.0407 177.173 85.7744C177.456 88.4782 184.736 88.7569 184.736 88.7569C184.86 89.7889 178.444 88.2409 178.737 89.9333C179.164 92.4308 185.755 92.5598 185.755 92.5598C185.873 93.0758 180.548 92.5907 181.196 94.1852C182.565 97.565 194.06 93.5247 194.06 93.5247C196.833 87.4772 195.161 83.3802 189.403 79.6908Z" fill="#FCBBA4"/>
<path d="M251.661 72.5236C258.026 91.4452 249.87 111.383 241.494 115.919C226.902 123.84 204.371 111.672 189.876 95.826C192.171 93.8962 197.08 90.2171 195.022 84.0922C199.389 83.1656 203.92 83.3662 208.189 84.6753C220.249 88.1428 229.634 98.0913 229.634 98.0913C227.206 75.119 235.999 68.1273 235.999 68.1273C241.093 64.4998 247.365 67.926 251.661 72.5236Z" fill="#E3FEFF"/>
<path d="M241.494 115.919C226.902 123.839 204.371 111.672 189.876 95.8259C192.171 93.8961 197.08 90.217 195.022 84.0922C199.389 83.1655 203.92 83.3661 208.189 84.6752C208.055 85.554 207.713 86.3877 207.191 87.1061C206.669 87.8245 205.982 88.4065 205.189 88.8032C202.704 89.9281 199.277 89.3192 197.636 91.4864C196.606 92.8383 196.797 94.8094 197.636 96.2903C198.474 97.7713 199.817 98.8703 201.134 99.9023C206.362 104.082 211.626 108.287 217.568 111.332C223.511 114.376 230.272 116.218 236.889 115.341C238.458 115.145 240.367 114.897 241.494 115.919Z" fill="#47B6C3"/>
<path d="M189.496 96.1718C189.022 95.6558 189.84 95.2121 189.887 95.1399C192.31 93.1223 196.37 89.7528 194.517 84.2471C194.495 84.1787 194.487 84.1064 194.494 84.0347C194.501 83.9629 194.523 83.8935 194.558 83.8308C194.593 83.7681 194.642 83.7135 194.699 83.6706C194.757 83.6276 194.823 83.5973 194.893 83.5815C199.344 82.6318 203.962 82.836 208.312 84.1749C218.088 86.9819 226.192 94.0872 228.97 96.7343C227.036 74.8715 235.304 68.019 235.659 67.7352C238.232 65.8931 241.319 65.6041 244.622 66.8735C244.75 66.9221 244.853 67.0195 244.909 67.1443C244.965 67.2692 244.969 67.4112 244.921 67.5391C244.872 67.6671 244.775 67.7705 244.651 67.8266C244.526 67.8827 244.385 67.887 244.257 67.8384C241.252 66.6826 238.566 66.9251 236.277 68.5608C236.21 68.6124 227.761 75.6919 230.102 98.0449C230.113 98.152 230.09 98.2599 230.037 98.3533C229.984 98.4468 229.903 98.5212 229.805 98.5662C229.708 98.6111 229.598 98.6243 229.493 98.6039C229.388 98.5836 229.291 98.5306 229.217 98.4526C229.125 98.3545 219.786 88.5506 208.003 85.1708C204.003 83.9441 199.767 83.7033 195.655 84.469C197.265 90.2585 193.005 93.8757 190.607 95.8674C205.091 111.502 227.005 123.184 241.231 115.475C243.83 114.072 246.428 111.095 248.548 107.101C248.612 106.98 248.722 106.891 248.852 106.851C248.982 106.811 249.123 106.825 249.243 106.889C249.363 106.953 249.454 107.062 249.495 107.193C249.535 107.323 249.522 107.465 249.459 107.586C247.241 111.76 244.494 114.882 241.741 116.383C225.616 125.124 202.153 110.011 189.496 96.1718Z" fill="#112544"/>
<path d="M93.7368 129.438C92.884 129.438 92.0504 129.185 91.3413 128.709C90.6323 128.234 90.0796 127.559 89.7533 126.769C89.4269 125.979 89.3415 125.109 89.5079 124.271C89.6743 123.432 90.0849 122.661 90.6879 122.057C91.2909 121.452 92.0592 121.04 92.8956 120.873C93.732 120.706 94.599 120.792 95.3868 121.119C96.1747 121.446 96.8481 122.001 97.3219 122.712C97.7957 123.423 98.0486 124.259 98.0486 125.114C98.0472 126.261 97.5925 127.36 96.7842 128.17C95.9759 128.981 94.8799 129.437 93.7368 129.438ZM93.7368 121.822C93.0876 121.822 92.4529 122.015 91.913 122.377C91.3732 122.739 90.9525 123.253 90.704 123.854C90.4555 124.456 90.3905 125.118 90.5172 125.756C90.6439 126.395 90.9565 126.982 91.4156 127.442C91.8747 127.902 92.4596 128.216 93.0964 128.343C93.7332 128.47 94.3932 128.405 94.993 128.156C95.5929 127.906 96.1056 127.484 96.4663 126.943C96.827 126.402 97.0195 125.765 97.0195 125.114C97.0181 124.241 96.6718 123.405 96.0565 122.788C95.4412 122.171 94.607 121.823 93.7368 121.822Z" fill="#112544"/>
<path d="M89.9602 126.022C89.8237 126.022 89.6929 125.968 89.5964 125.871C89.4999 125.774 89.4457 125.643 89.4457 125.506C89.4457 125.369 89.4999 125.238 89.5964 125.141C89.6929 125.045 89.8237 124.99 89.9602 124.99C96.5513 124.99 96.9115 117.962 97.1893 117.452L96.186 118.313C96.0823 118.402 95.9476 118.446 95.8115 118.436C95.6755 118.425 95.5492 118.361 95.4605 118.257C95.3718 118.153 95.3279 118.017 95.3386 117.881C95.3492 117.745 95.4134 117.618 95.5171 117.529L97.7399 115.615C97.8227 115.544 97.9259 115.501 98.0344 115.493C98.143 115.484 98.2514 115.511 98.3441 115.568C98.4368 115.626 98.5089 115.711 98.5501 115.812C98.5913 115.913 98.5995 116.025 98.5734 116.131C98.0332 117.204 97.8273 126.022 89.9602 126.022Z" fill="#112544"/>
<path d="M101.275 22.4666C103.704 22.4666 105.674 20.4914 105.674 18.0548C105.674 15.6183 103.704 13.6431 101.275 13.6431C98.845 13.6431 96.8754 15.6183 96.8754 18.0548C96.8754 20.4914 98.845 22.4666 101.275 22.4666Z" fill="#8D95FF"/>
<path d="M101.269 22.9826C100.296 22.9826 99.3452 22.6931 98.5361 22.1509C97.7271 21.6086 97.0967 20.8379 96.7245 19.9362C96.3524 19.0345 96.2553 18.0424 96.4455 17.0854C96.6357 16.1283 97.1047 15.2494 97.7931 14.5597C98.4816 13.87 99.3585 13.4006 100.313 13.2109C101.268 13.0211 102.257 13.1195 103.155 13.4937C104.054 13.8678 104.822 14.5009 105.362 15.3128C105.902 16.1247 106.189 17.0789 106.188 18.0548C106.186 19.3618 105.666 20.6144 104.744 21.5381C103.822 22.4618 102.573 22.9812 101.269 22.9826ZM101.269 14.1539C100.5 14.1539 99.7481 14.3826 99.1084 14.8113C98.4687 15.2399 97.9701 15.8492 97.6757 16.562C97.3813 17.2748 97.3043 18.0591 97.4544 18.8158C97.6045 19.5725 97.9749 20.2676 98.519 20.8132C99.063 21.3587 99.7561 21.7303 100.511 21.8808C101.265 22.0313 102.047 21.9541 102.758 21.6588C103.469 21.3635 104.076 20.8636 104.504 20.222C104.931 19.5805 105.159 18.8263 105.159 18.0548C105.159 17.0202 104.749 16.028 104.02 15.2964C103.291 14.5648 102.301 14.1539 101.269 14.1539Z" fill="#112544"/>
<path d="M162.102 50.1345C162.102 50.1345 153.221 38.6484 150.268 43.762C149.208 45.6041 151.657 46.827 154.971 47.5029C154.971 47.5029 153.942 52.2398 159.303 51.6928" fill="#FCBBA4"/>
<path d="M33.5267 95.2325L5.346 75.1086C4.42806 74.4521 3.70013 73.5632 3.23646 72.5326C2.77278 71.502 2.58993 70.3665 2.70657 69.2419C2.82321 68.1173 3.23515 67.0439 3.9004 66.131C4.56564 65.2181 5.4604 64.4985 6.49341 64.0456L37.2828 50.5987C38.2897 50.1644 39.3913 49.9979 40.4811 50.1151C41.5709 50.2323 42.6122 50.6293 43.5044 51.2678C44.3966 51.9063 45.1096 52.7648 45.5745 53.7602C46.0394 54.7556 46.2405 55.8545 46.1584 56.9506C42.9272 98.54 43.6629 89.0921 43.5497 90.5266C43.4611 91.6509 43.0769 92.7315 42.4365 93.6585C41.796 94.5856 40.922 95.3258 39.9035 95.804C38.885 96.2822 37.7584 96.4813 36.6382 96.3809C35.5181 96.2805 34.4445 95.8842 33.5267 95.2325Z" fill="#DBCDF0"/>
<path d="M33.5267 95.2324L5.34595 75.1085C4.03839 74.178 3.12919 72.7869 2.80009 71.2132C2.47099 69.6396 2.74625 67.9993 3.57083 66.6204C8.57719 67.9 11.4894 73.0445 14.4634 76.4862C17.3658 79.8255 20.9346 82.5168 24.9392 84.3862C27.908 85.769 31.3965 86.6669 34.4271 85.4182C36.7579 84.4584 38.4404 82.3841 39.8039 80.2582C42.4801 76.0755 44.3234 71.4128 45.2322 66.5275C45.3351 65.9702 45.4226 65.4284 45.5564 64.9795L43.5857 90.5265C43.5009 91.6568 43.1175 92.744 42.475 93.6765C41.8325 94.6089 40.9539 95.353 39.9297 95.8321C38.9054 96.3113 37.7724 96.5083 36.6471 96.4029C35.5218 96.2975 34.4447 95.8935 33.5267 95.2324Z" fill="#E64B38"/>
<path d="M37.8281 64.8147L31.1032 72.1005C30.8356 72.3875 30.4735 72.5675 30.0838 72.6074C29.6941 72.6472 29.3031 72.5442 28.9833 72.3173L28.4225 71.9148C28.1063 71.6878 27.883 71.3535 27.794 70.9739C27.7051 70.5943 27.7565 70.1952 27.9389 69.8508L32.6005 61.0788C32.7085 60.8763 32.8584 60.6992 33.0401 60.5594C33.2218 60.4195 33.4311 60.3202 33.6542 60.2679C33.8772 60.2157 34.1088 60.2117 34.3334 60.2564C34.5581 60.301 34.7707 60.3932 34.957 60.5267L37.5811 62.3998C37.7685 62.5324 37.9254 62.7038 38.0412 62.9023C38.157 63.1009 38.229 63.322 38.2524 63.5509C38.2758 63.7797 38.2501 64.0109 38.1769 64.2289C38.1037 64.4469 37.9847 64.6466 37.8281 64.8147Z" fill="white"/>
<path d="M27.3832 77.3635C27.5191 77.1717 27.616 76.955 27.6683 76.7257C27.7207 76.4964 27.7275 76.259 27.6883 76.0271C27.6491 75.7951 27.5647 75.5732 27.44 75.374C27.3153 75.1748 27.1526 75.0022 26.9613 74.866L26.6886 74.6699C26.4974 74.5337 26.2813 74.4365 26.0527 74.384C25.824 74.3315 25.5873 74.3247 25.356 74.364C25.1248 74.4033 24.9035 74.4879 24.7048 74.613C24.5062 74.7381 24.3341 74.9012 24.1983 75.0931C24.0624 75.2848 23.9655 75.5015 23.9132 75.7308C23.8608 75.9601 23.8541 76.1975 23.8932 76.4295C23.9324 76.6614 24.0168 76.8833 24.1415 77.0825C24.2663 77.2817 24.4289 77.4543 24.6202 77.5905L24.8878 77.7866C25.2747 78.0621 25.7549 78.1723 26.2228 78.0929C26.6907 78.0136 27.1081 77.7512 27.3832 77.3635Z" fill="white"/>
<path d="M37.8282 64.8147L31.0982 72.1006C30.832 72.3881 30.4707 72.5686 30.0815 72.6085C29.6924 72.6484 29.3021 72.5449 28.9834 72.3173L28.4226 71.9148C28.1516 71.7222 27.9471 71.4499 27.8374 71.1355C27.7277 70.8212 27.7182 70.4804 27.8103 70.1604C28.0713 70.4201 28.3614 70.6487 28.6747 70.8415C28.9926 71.0713 29.3834 71.1761 29.7732 71.1362C30.1629 71.0962 30.5245 70.9143 30.7894 70.6248C37.6738 63.0758 37.6944 63.3647 37.8848 62.6836C38.134 62.9856 38.2656 63.3679 38.2552 63.7598C38.2448 64.1516 38.0931 64.5264 37.8282 64.8147Z" fill="#E1E5FF"/>
<path d="M27.3832 77.3637C27.1073 77.7506 26.6896 78.012 26.2217 78.0903C25.7538 78.1687 25.2741 78.0577 24.8877 77.7817C24.6355 77.6387 24.4162 77.4439 24.2441 77.21C24.0721 76.9762 23.9513 76.7085 23.8896 76.4246C23.8519 76.1913 23.8606 75.9528 23.9153 75.7228C24.1029 75.9545 24.3293 76.1518 24.5842 76.3059C24.824 76.4762 25.1021 76.5844 25.3937 76.6211C25.6853 76.6577 25.9814 76.6216 26.2558 76.5159C26.5301 76.4103 26.7742 76.2383 26.9664 76.0154C27.1586 75.7924 27.2929 75.5253 27.3575 75.2378C27.5847 75.5442 27.7095 75.9148 27.7141 76.2966C27.7187 76.6784 27.6029 77.0519 27.3832 77.3637Z" fill="#E1E5FF"/>
<path d="M2.42347 18.54C2.29341 18.5006 2.18417 18.4112 2.11959 18.2913C2.05501 18.1715 2.04032 18.0309 2.07873 17.9002C4.3478 10.3202 10.6971 7.63697 18.3378 14.8042C24.3835 -2.8481 34.7616 -6.32077 45.1448 13.2097C49.0449 8.61737 54.3445 8.56577 58.6408 17.1416L63.3436 16.4089C63.4112 16.3988 63.4801 16.4021 63.5464 16.4186C63.6127 16.4351 63.6751 16.4646 63.7301 16.5053C63.785 16.5461 63.8314 16.5972 63.8666 16.656C63.9019 16.7147 63.9252 16.7798 63.9353 16.8475C63.9455 16.9153 63.9422 16.9844 63.9257 17.0509C63.9092 17.1174 63.8798 17.18 63.8392 17.2351C63.7986 17.2902 63.7476 17.3367 63.689 17.372C63.6305 17.4074 63.5656 17.4308 63.498 17.4409L58.4247 18.2304C58.3155 18.2482 58.2034 18.2302 58.1052 18.1791C58.0069 18.128 57.9277 18.0464 57.8793 17.9466C53.7271 9.35008 48.731 9.76804 45.4895 14.4481C45.4404 14.521 45.3735 14.5801 45.2952 14.6197C45.2169 14.6594 45.1298 14.6783 45.0421 14.6747C44.9545 14.671 44.8692 14.645 44.7944 14.599C44.7196 14.5531 44.6578 14.4887 44.6148 14.412C34.4477 -5.19589 24.5019 -1.93479 19.0736 15.9136C19.0474 15.9976 19.0002 16.0736 18.9364 16.1341C18.8727 16.1947 18.7946 16.2379 18.7095 16.2596C18.6244 16.2813 18.5351 16.2809 18.4503 16.2582C18.3654 16.2356 18.2877 16.1915 18.2246 16.1303C10.6765 8.66897 5.11445 11.3831 3.07692 18.1943C3.05758 18.2606 3.02515 18.3224 2.98156 18.3759C2.93797 18.4294 2.8841 18.4736 2.82316 18.5058C2.76221 18.5381 2.69543 18.5577 2.62677 18.5636C2.55811 18.5695 2.48898 18.5614 2.42347 18.54Z" fill="#CCD2FF"/>
<path d="M171.117 30.2635H165.169C165.032 30.2635 164.901 30.2091 164.805 30.1124C164.709 30.0156 164.654 29.8844 164.654 29.7475C164.654 29.6107 164.709 29.4794 164.805 29.3826C164.901 29.2859 165.032 29.2315 165.169 29.2315H170.746C173.35 21.894 179.354 19.4276 186.882 26.4967C191.909 11.8321 200.687 5.90326 209.959 18.798C209.998 18.8532 210.027 18.9157 210.042 18.9819C210.058 19.0481 210.06 19.1168 210.049 19.1839C210.038 19.2511 210.014 19.3154 209.978 19.3731C209.942 19.4309 209.895 19.4809 209.84 19.5204C209.729 19.5993 209.592 19.6311 209.458 19.6089C209.324 19.5866 209.204 19.5122 209.125 19.4018C200.1 6.84753 191.883 13.571 187.607 27.5906C187.581 27.6747 187.534 27.7506 187.47 27.8112C187.407 27.8718 187.328 27.915 187.243 27.9367C187.158 27.9584 187.069 27.9579 186.984 27.9353C186.899 27.9127 186.822 27.8686 186.758 27.8074C179.195 20.3254 173.653 23.0808 171.611 29.8972C171.579 30.0034 171.513 30.0964 171.424 30.1624C171.335 30.2284 171.227 30.2638 171.117 30.2635Z" fill="#CCD2FF"/>
</g>
<defs>
<clipPath id="clip0_458_16482">
<rect width="258" height="279" fill="white"/>
</clipPath>
</defs>
</svg>
