<svg width="258" height="285" viewBox="0 0 258 285" fill="none" xmlns="http://www.w3.org/2000/svg">
<g clip-path="url(#clip0_458_16600)">
<path d="M88.5547 285V283.229H90.1012V285H88.5547Z" fill="black"/>
<path d="M145.32 285V283.229H146.867V285H145.32Z" fill="black"/>
<path d="M221.661 161.988L221.119 162.001C220.76 162.001 220.401 162.001 220.044 161.986C219.867 161.986 219.687 161.974 219.508 161.964C219.33 161.953 219.153 161.945 218.977 161.93C218.8 161.916 218.653 161.908 218.491 161.891L218.302 161.875L217.92 161.833L217.391 161.769C217.167 161.736 216.946 161.705 216.726 161.668C216.506 161.631 216.284 161.594 216.062 161.55C215.84 161.507 215.624 161.466 215.402 161.418C215.18 161.371 215.008 161.329 214.81 161.282C214.757 161.272 214.704 161.259 214.653 161.242C214.53 161.214 214.406 161.181 214.283 161.147C214.161 161.114 214.088 161.098 213.993 161.069C213.897 161.04 213.785 161.017 213.694 160.986C213.602 160.955 213.467 160.92 213.351 160.885C212.963 160.769 212.579 160.641 212.197 160.507C202.54 157.075 195.383 148.088 194.843 137.34C194.843 137.193 194.831 137.048 194.824 136.906C194.824 136.699 194.824 136.478 194.824 136.267C194.824 136.189 194.824 136.115 194.824 136.038C194.824 135.898 194.824 135.753 194.824 135.613C194.824 135.472 194.824 135.28 194.839 135.11C194.839 134.993 194.839 134.871 194.853 134.749C194.868 134.627 194.866 134.484 194.874 134.348C194.874 134.181 194.901 134.011 194.914 133.84C194.914 133.718 194.934 133.598 194.947 133.48C194.974 133.199 195.007 132.92 195.044 132.641C195.061 132.503 195.082 132.365 195.103 132.228C195.123 132.092 195.146 131.953 195.169 131.815C195.192 131.677 195.217 131.511 195.248 131.36C195.279 131.21 195.298 131.104 195.323 130.976C195.348 130.848 195.375 130.714 195.404 130.584L195.044 129.466L192.796 122.52C192.657 122.088 192.618 121.63 192.684 121.182C192.749 120.733 192.917 120.306 193.175 119.931C193.432 119.557 193.772 119.247 194.168 119.024C194.565 118.8 195.007 118.67 195.462 118.644L201.915 118.266C206.516 113.383 212.842 110.468 219.56 110.137C233.644 109.414 245.875 120.156 246.903 134.156C247.159 137.65 246.702 141.16 245.559 144.473C244.416 147.787 242.611 150.836 240.253 153.437C237.894 156.038 235.031 158.136 231.836 159.606C228.64 161.075 225.179 161.886 221.661 161.988Z" fill="white"/>
<path d="M220.88 162.377C220.598 162.377 220.313 162.377 220.029 162.363C219.855 162.363 219.67 162.348 219.487 162.34C219.305 162.332 219.124 162.319 218.945 162.305C218.767 162.29 218.62 162.282 218.454 162.265L217.876 162.206L217.341 162.142C217.11 162.108 216.886 162.077 216.662 162.038C216.438 161.999 216.21 161.962 215.992 161.92C215.774 161.879 215.547 161.834 215.321 161.784C215.095 161.735 214.923 161.695 214.723 161.648C214.66 161.636 214.597 161.619 214.536 161.598C214.439 161.577 214.31 161.544 214.181 161.509C214.092 161.491 213.99 161.46 213.887 161.431C213.783 161.402 213.679 161.379 213.584 161.346L213.314 161.268L213.241 161.245C212.849 161.126 212.459 160.998 212.07 160.861C207.124 159.124 202.809 155.962 199.675 151.777C196.54 147.591 194.727 142.572 194.467 137.359C194.467 137.218 194.453 137.074 194.449 136.933C194.449 136.7 194.436 136.485 194.436 136.268C194.436 136.189 194.436 136.113 194.436 136.034C194.436 135.894 194.436 135.749 194.436 135.605C194.436 135.46 194.436 135.268 194.449 135.096C194.461 134.925 194.449 134.838 194.465 134.729C194.465 134.576 194.478 134.452 194.486 134.315C194.494 134.179 194.501 134.109 194.509 133.989L194.523 133.805C194.523 133.685 194.546 133.572 194.557 133.458C194.586 133.152 194.621 132.867 194.658 132.584C194.675 132.445 194.696 132.303 194.719 132.156C194.733 132.045 194.752 131.929 194.772 131.811L194.783 131.741C194.812 131.563 194.837 131.417 194.866 131.274C194.895 131.131 194.914 131.018 194.941 130.888C194.968 130.757 194.982 130.681 195.001 130.588L192.427 122.619C192.27 122.134 192.228 121.619 192.302 121.115C192.376 120.611 192.565 120.13 192.855 119.71C193.144 119.29 193.526 118.941 193.972 118.69C194.418 118.439 194.915 118.294 195.426 118.264L201.733 117.892C206.391 113.001 212.764 110.087 219.527 109.756C233.796 109.022 246.228 119.956 247.266 134.123C247.527 137.668 247.064 141.228 245.906 144.59C244.748 147.951 242.917 151.045 240.526 153.683C238.134 156.322 235.23 158.452 231.989 159.944C228.749 161.436 225.238 162.259 221.669 162.365C221.484 162.365 221.302 162.365 221.121 162.365L220.88 162.377ZM220.88 110.472C220.447 110.472 220.01 110.484 219.568 110.506C212.948 110.831 206.714 113.703 202.181 118.516C202.115 118.586 202.024 118.628 201.928 118.634L195.474 119.014C195.077 119.036 194.69 119.149 194.343 119.344C193.996 119.538 193.699 119.81 193.474 120.136C193.249 120.463 193.102 120.837 193.044 121.229C192.987 121.621 193.021 122.021 193.143 122.398L195.75 130.456C195.77 130.523 195.77 130.595 195.75 130.662C195.725 130.782 195.7 130.902 195.678 131.022C195.646 131.175 195.621 131.301 195.599 131.425C195.576 131.549 195.547 131.706 195.526 131.838L195.509 131.943C195.491 132.055 195.472 132.164 195.455 132.278C195.439 132.392 195.414 132.555 195.397 132.691C195.362 132.968 195.329 133.243 195.302 133.518C195.287 133.656 195.277 133.764 195.269 133.873L195.254 134.061C195.254 134.167 195.237 134.268 195.231 134.375C195.225 134.483 195.217 134.621 195.21 134.741C195.204 134.861 195.21 134.987 195.196 135.09C195.196 135.297 195.183 135.458 195.181 135.621C195.179 135.784 195.181 135.904 195.181 136.034C195.181 136.111 195.181 136.179 195.181 136.241C195.181 136.46 195.181 136.669 195.194 136.879C195.194 137.028 195.194 137.164 195.213 137.303C195.465 142.369 197.226 147.245 200.272 151.312C203.317 155.379 207.51 158.452 212.315 160.139C212.691 160.272 213.069 160.398 213.451 160.511L213.525 160.534L213.789 160.611C213.889 160.642 213.98 160.668 214.073 160.691C214.167 160.714 214.267 160.747 214.358 160.768C214.493 160.805 214.613 160.834 214.732 160.863C214.779 160.878 214.828 160.891 214.877 160.9C215.084 160.949 215.28 160.995 215.473 161.036C215.666 161.077 215.906 161.129 216.122 161.168C216.338 161.208 216.55 161.245 216.762 161.28C216.973 161.315 217.214 161.352 217.434 161.383C217.604 161.406 217.779 161.425 217.955 161.445L218.51 161.503C218.676 161.52 218.833 161.532 218.993 161.54C219.153 161.549 219.346 161.565 219.52 161.575C219.695 161.586 219.869 161.592 220.044 161.596C220.401 161.608 220.751 161.615 221.106 161.611H221.642C225.109 161.508 228.52 160.708 231.669 159.259C234.817 157.809 237.638 155.74 239.961 153.176C242.285 150.613 244.063 147.607 245.188 144.341C246.313 141.075 246.762 137.616 246.508 134.173C245.539 120.851 234.174 110.472 220.88 110.472Z" fill="black"/>
<path d="M41.9525 25.9298L42.4257 25.9194C42.7392 25.9194 43.0485 25.9194 43.364 25.9318C43.5197 25.9318 43.6775 25.9422 43.8311 25.9504C43.9847 25.9587 44.1425 25.967 44.2961 25.9814C44.4497 25.9959 44.5805 26 44.7112 26.0145L44.8773 26.0289L45.2115 26.0661C45.3672 26.0827 45.5187 26.1013 45.6723 26.1219C45.8675 26.1488 46.0605 26.1777 46.2536 26.2087C46.4466 26.2397 46.6397 26.2748 46.8327 26.312C47.0258 26.3492 47.2167 26.3864 47.4098 26.4277L47.9267 26.5455C47.9723 26.5558 48.018 26.5661 48.0637 26.5806C48.1716 26.6074 48.2713 26.6343 48.3875 26.6653C48.5037 26.6963 48.5557 26.7087 48.6408 26.7314C48.7259 26.7541 48.8151 26.7769 48.9002 26.8037L49.1992 26.8926C49.5396 26.9938 49.8738 27.0992 50.208 27.2231C58.64 30.219 64.8903 38.0681 65.3615 47.4544C65.3615 47.5804 65.374 47.7085 65.3781 47.8325C65.3781 48.0205 65.3781 48.2044 65.3885 48.3903C65.3885 48.4585 65.3885 48.5226 65.3885 48.5969C65.3885 48.7188 65.3885 48.8449 65.3885 48.9668C65.3885 49.0887 65.3885 49.2581 65.3781 49.4048C65.3781 49.5102 65.3781 49.6114 65.3636 49.7209C65.3491 49.8304 65.3532 49.9523 65.3449 50.0721C65.3366 50.192 65.3221 50.3655 65.3117 50.5164C65.3117 50.6217 65.293 50.723 65.2806 50.8304C65.2598 51.0742 65.2287 51.3201 65.1975 51.5618C65.183 51.6837 65.1643 51.8035 65.1456 51.9275C65.127 52.0515 65.1083 52.1692 65.0896 52.2891C65.0709 52.4089 65.046 52.5535 65.019 52.6858C64.992 52.818 64.9754 52.9089 64.9547 53.0225C64.9339 53.1362 64.909 53.2498 64.8841 53.3655L65.1975 54.3407L67.1654 60.3923C67.2875 60.7691 67.3212 61.1687 67.2641 61.5605C67.207 61.9523 67.0605 62.3258 66.8359 62.6525C66.6112 62.9792 66.3144 63.2504 65.9682 63.4452C65.6219 63.6401 65.2355 63.7534 64.8384 63.7766L59.2026 64.1113C55.1849 68.3746 49.6613 70.919 43.7958 71.2084C31.4965 71.8406 20.8164 62.4605 19.9238 50.2354C19.6994 47.1851 20.0978 44.1212 21.0948 41.2282C22.0918 38.3352 23.6668 35.673 25.7251 33.402C27.7833 31.131 30.2821 29.2982 33.071 28.0141C35.8598 26.7299 38.881 26.0209 41.9525 25.9298Z" fill="white"/>
<path d="M42.6332 71.617C30.6599 71.617 20.4219 62.27 19.5438 50.2659C19.3155 47.1645 19.7204 44.0491 20.734 41.1076C21.7477 38.166 23.3492 35.4591 25.442 33.1501C27.5348 30.841 30.0756 28.9775 32.9113 27.6719C35.747 26.3663 38.8189 25.6457 41.942 25.5533L42.4215 25.543C42.7432 25.543 43.0588 25.543 43.3784 25.5554C43.5321 25.5554 43.6919 25.5678 43.8517 25.576C44.0116 25.5843 44.1693 25.5926 44.3271 25.605C44.4848 25.6174 44.6115 25.6256 44.7568 25.6401L45.2633 25.6917L45.7303 25.7496C45.9379 25.7764 46.1289 25.8054 46.324 25.8384C46.5192 25.8715 46.7164 25.9045 46.9115 25.9417C47.1066 25.9789 47.2997 26.0182 47.499 26.0616C47.6982 26.105 47.8477 26.138 48.0221 26.1793C48.0698 26.1793 48.13 26.2062 48.1881 26.2248C48.2463 26.2434 48.3833 26.2702 48.4974 26.3012C48.5722 26.3178 48.6635 26.3446 48.7527 26.3715C48.842 26.3983 48.9271 26.4169 49.0205 26.4438L49.2509 26.514L49.3174 26.5326C49.662 26.6359 50.0045 26.7496 50.3428 26.8694C54.6708 28.3892 58.4466 31.1564 61.1894 34.8188C63.9323 38.4811 65.5183 42.873 65.7454 47.4354C65.7454 47.5614 65.7579 47.6916 65.7641 47.8176C65.7641 48.0118 65.7641 48.1998 65.7641 48.3879C65.7641 48.454 65.7641 48.5221 65.7641 48.5945C65.7641 48.7164 65.7641 48.8445 65.7641 48.9684C65.7641 49.0924 65.7641 49.2639 65.7517 49.4147V49.4684C65.7517 49.5573 65.7517 49.6461 65.7392 49.737C65.7392 49.8734 65.7392 49.9808 65.7205 50.0903C65.7018 50.1998 65.7081 50.2804 65.6998 50.3775L65.6873 50.5366C65.6873 50.6399 65.6707 50.7432 65.6603 50.8362C65.6354 51.1068 65.6043 51.3568 65.5711 51.6048C65.5565 51.7267 65.5379 51.8527 65.5171 51.9808C65.4963 52.1089 65.488 52.1874 65.4714 52.2824V52.3424C65.4445 52.5076 65.4237 52.6316 65.3988 52.7556C65.3739 52.8795 65.3573 52.9767 65.3344 53.0924L65.2846 53.3403L67.5286 60.2865C67.6679 60.7183 67.7059 61.1761 67.6398 61.6248C67.5738 62.0735 67.4053 62.5011 67.1474 62.8749C66.8894 63.2488 66.5489 63.5588 66.1518 63.7813C65.7548 64.0038 65.3119 64.1328 64.857 64.1584L59.3706 64.4807C55.293 68.7552 49.7169 71.3009 43.8019 71.5881C43.42 71.6088 43.0256 71.617 42.6332 71.617ZM41.9627 26.3012C38.9412 26.3908 35.9692 27.0882 33.2258 28.3516C30.4824 29.6149 28.0244 31.418 25.9998 33.6522C23.9752 35.8864 22.4261 38.5054 21.4457 41.3515C20.4653 44.1975 20.074 47.2116 20.2953 50.2122C21.1754 62.1956 31.7123 71.4579 43.777 70.8381C49.5463 70.5552 54.9795 68.0528 58.9305 63.8588C58.9955 63.7884 59.0857 63.7461 59.1817 63.741L64.8175 63.4084C65.157 63.3887 65.4875 63.2919 65.7835 63.1255C66.0796 62.959 66.3335 62.7273 66.5256 62.4481C66.7178 62.1688 66.8432 61.8495 66.8922 61.5146C66.9412 61.1797 66.9125 60.838 66.8083 60.5159L64.5249 53.4725C64.5073 53.409 64.5073 53.3419 64.5249 53.2783C64.5498 53.1667 64.5705 53.0552 64.5934 52.9436C64.6162 52.832 64.639 52.7225 64.6577 52.613C64.6764 52.5035 64.7013 52.3775 64.72 52.2638L64.7366 52.1626C64.7532 52.0634 64.7677 51.9663 64.7823 51.8692C64.7968 51.7721 64.8196 51.6254 64.8342 51.5097C64.8653 51.268 64.8944 51.0283 64.9151 50.7907C64.9296 50.6668 64.9379 50.5841 64.9462 50.4787L64.9587 50.3197C64.9587 50.2267 64.9732 50.1358 64.9774 50.0428C64.9815 49.9498 64.9898 49.8362 64.9961 49.7287C65.0023 49.6213 64.9961 49.5221 65.0085 49.4395V49.3837C65.0085 49.2411 65.0085 49.1006 65.0085 48.9581C65.0085 48.8155 65.0085 48.7102 65.0085 48.5903C65.0085 48.5221 65.0085 48.4602 65.0085 48.3982C65.0085 48.2102 65.0085 48.0283 65.0085 47.8445C65.0085 47.7246 65.0085 47.5986 64.9919 47.4746C64.7718 43.0605 63.2372 38.8113 60.5834 35.2679C57.9297 31.7244 54.2768 29.0469 50.0896 27.576C49.7616 27.4603 49.4336 27.3508 49.0994 27.2516L49.0309 27.231L48.8067 27.1649C48.7175 27.138 48.6386 27.1153 48.5576 27.0967C48.4767 27.0781 48.3895 27.0471 48.3127 27.0306L47.9847 26.9459L47.8601 26.9128C47.6775 26.8715 47.5073 26.8302 47.3391 26.795C47.171 26.7599 46.9613 26.7144 46.7724 26.6814C46.5835 26.6483 46.3884 26.6111 46.1995 26.5802C46.0106 26.5492 45.8196 26.5202 45.6286 26.4934C45.4812 26.4727 45.3297 26.4562 45.1761 26.4376L44.6924 26.388C44.5471 26.3735 44.4101 26.3632 44.2773 26.355C44.1444 26.3467 43.968 26.3343 43.8164 26.326C43.6649 26.3178 43.5113 26.3095 43.3598 26.3074C43.0484 26.295 42.737 26.2909 42.4339 26.295L41.9627 26.3012Z" fill="black"/>
<path d="M137.835 240.889C135.889 240.854 133.952 240.621 132.054 240.192C131.986 240.176 131.924 240.141 131.875 240.093C131.826 240.044 131.79 239.983 131.773 239.916C131.757 239.848 131.76 239.777 131.782 239.711C131.803 239.645 131.843 239.587 131.896 239.542C132.174 239.304 138.763 233.734 141.86 234.806C142.655 235.081 143.161 235.738 143.361 236.754C143.595 237.947 143.342 238.905 142.609 239.606C141.577 240.591 139.713 240.889 137.835 240.889ZM132.986 239.618C134.964 240 140.251 240.814 142.084 239.064C142.628 238.546 142.802 237.837 142.617 236.899C142.47 236.153 142.142 235.701 141.609 235.515C139.587 234.816 135.151 237.887 132.986 239.618Z" fill="black"/>
<path d="M139.201 247.738C139.084 247.737 138.967 247.73 138.852 247.715C135.35 247.283 131.943 240.277 131.794 239.988C131.763 239.925 131.75 239.854 131.757 239.785C131.764 239.715 131.791 239.648 131.835 239.593C131.878 239.538 131.936 239.495 132.002 239.471C132.068 239.447 132.14 239.442 132.209 239.457C132.57 239.519 141.029 241.021 142.154 244.068C142.447 244.862 142.254 245.672 141.579 246.48C140.905 247.287 140.079 247.738 139.201 247.738ZM132.83 240.341C133.766 242.091 136.436 246.661 138.945 246.971C139.701 247.064 140.369 246.746 140.994 245.998C141.492 245.405 141.638 244.858 141.442 244.329C140.708 242.339 135.531 240.895 132.83 240.349V240.341Z" fill="black"/>
<path d="M133.253 255.605L103.447 230.581C103.151 230.332 102.908 230.026 102.733 229.683C102.557 229.339 102.451 228.964 102.422 228.58C102.393 228.195 102.441 227.809 102.564 227.443C102.686 227.077 102.88 226.739 103.135 226.449L113.782 214.203L136.691 231.242L132.83 239.645L138.076 252.856C138.549 255.548 135.352 257.368 133.253 255.605Z" fill="black"/>
<path d="M132.633 239.241L129.967 239.467L130.053 240.466L132.719 240.24L132.633 239.241Z" fill="white"/>
<path d="M134.135 243.905L130.346 244.348L130.463 245.344L134.253 244.901L134.135 243.905Z" fill="white"/>
<path d="M59.8855 90.2639L73.8143 174.648C89.0321 187.026 146.341 183.505 154.811 182.499C165.709 181.199 174.116 170.296 171.22 162.094C168.266 153.761 132.961 151.836 131.032 148.487C129.623 146.04 125.139 122.181 123.375 103.4C122.729 96.5241 116.954 91.0035 109.485 90.0655C92.0649 87.8713 76.3489 87.6647 59.8855 90.2639Z" fill="#333333"/>
<path d="M126.565 184.081C106.783 184.081 82.6718 182.331 73.5755 174.933C73.5049 174.875 73.4578 174.793 73.4427 174.703L59.5118 90.3259C59.5038 90.277 59.5055 90.2271 59.5169 90.1788C59.5283 90.1306 59.5491 90.0851 59.5783 90.0449C59.6072 90.0046 59.644 89.9705 59.6864 89.9446C59.7288 89.9187 59.7761 89.9015 59.8253 89.8941C75.5123 87.4148 90.8422 87.3445 109.533 89.6875C117.238 90.6648 123.086 96.2866 123.75 103.361C125.479 121.774 129.942 145.834 131.36 148.301C132.012 149.431 137.976 150.573 144.288 151.774C155.602 153.933 169.68 156.621 171.575 161.97C172.785 165.398 172.115 169.544 169.736 173.346C166.504 178.511 160.81 182.162 154.857 182.871C151.535 183.267 140.056 184.081 126.565 184.081ZM74.163 174.441C89.4286 186.614 146.638 183.088 154.767 182.131C160.492 181.449 165.977 177.933 169.09 172.955C171.349 169.348 171.997 165.437 170.859 162.226C169.109 157.284 154.668 154.53 144.143 152.516C136.085 150.978 131.481 150.036 130.702 148.677C129.22 146.098 124.767 122.307 122.995 103.429C122.372 96.706 116.786 91.3631 109.433 90.4313C90.9585 88.1131 75.805 88.1586 60.3152 90.5697L74.163 174.441Z" fill="black"/>
<path d="M59.8751 90.2637C58.9106 92.0803 58.187 94.0137 57.7225 96.0157C52.9709 115.346 55.1339 159.445 73.8081 174.639" fill="#333333"/>
<path d="M73.5755 174.931C54.3637 159.305 52.7882 114.545 57.3633 95.9292C57.8375 93.8968 58.5728 91.9337 59.5512 90.0884L60.2155 90.4458C59.2669 92.2341 58.5545 94.1369 58.096 96.1069C53.5604 114.57 55.0799 158.916 74.055 174.352L73.5755 174.931Z" fill="black"/>
<path d="M213.858 234.918C213.824 234.918 213.792 234.913 213.76 234.903C213.693 234.885 213.631 234.849 213.583 234.799C213.535 234.749 213.502 234.686 213.488 234.618C213.409 234.248 211.597 225.527 214.111 223.255C214.754 222.674 215.599 222.544 216.623 222.868C217.824 223.246 218.572 223.949 218.846 224.955C219.807 228.467 214.374 234.529 214.142 234.785C214.107 234.826 214.063 234.86 214.014 234.882C213.965 234.905 213.912 234.917 213.858 234.918ZM215.599 223.453C215.235 223.443 214.882 223.575 214.613 223.819C212.953 225.306 213.575 230.891 214.078 233.705C215.398 232.12 218.808 227.701 218.115 225.157C217.908 224.403 217.345 223.891 216.39 223.589C216.135 223.504 215.868 223.458 215.599 223.453Z" fill="black"/>
<path d="M215.074 234.942C214.376 234.942 213.913 234.92 213.828 234.916C213.759 234.912 213.692 234.89 213.635 234.851C213.578 234.812 213.533 234.758 213.505 234.695C213.476 234.632 213.466 234.563 213.475 234.495C213.483 234.426 213.511 234.362 213.554 234.308C213.789 234.013 219.367 227.106 222.688 227.602C223.551 227.73 224.193 228.304 224.594 229.31C225.065 230.492 224.99 231.525 224.373 232.378C222.734 234.668 217.494 234.942 215.074 234.942ZM214.64 234.186C216.687 234.213 222.235 234.073 223.774 231.938C224.236 231.298 224.278 230.529 223.904 229.587C223.605 228.837 223.176 228.432 222.588 228.347C220.4 228.021 216.481 232.021 214.64 234.186Z" fill="black"/>
<path d="M228.828 241.382L191.15 255.93C190.776 256.074 190.376 256.142 189.975 256.131C189.574 256.12 189.179 256.029 188.813 255.864C188.448 255.7 188.119 255.464 187.845 255.172C187.572 254.88 187.359 254.536 187.221 254.161L181.321 238.436L209.359 227.61L214.034 233.837L228.712 235.651C231.402 236.558 231.481 240.349 228.828 241.382Z" fill="black"/>
<path d="M213.573 233.766L212.455 236.292L213.377 236.696L214.494 234.17L213.573 233.766Z" fill="white"/>
<path d="M218.21 232.936L216.748 236.594L217.684 236.965L219.147 233.307L218.21 232.936Z" fill="white"/>
<path d="M70.0217 255.717C69.9874 255.716 69.9532 255.712 69.92 255.703C69.8722 255.689 69.8274 255.667 69.7882 255.637C69.7491 255.606 69.7163 255.569 69.6918 255.526C69.6674 255.483 69.6516 255.435 69.6455 255.386C69.6395 255.337 69.6431 255.287 69.6564 255.24L92.7852 172.596C92.8127 172.5 92.8775 172.418 92.9653 172.37C93.0531 172.321 93.1567 172.309 93.2533 172.336C93.3499 172.364 93.4317 172.428 93.4805 172.516C93.5294 172.603 93.5414 172.706 93.5138 172.802L70.385 255.432C70.3644 255.513 70.3177 255.584 70.252 255.636C70.1863 255.687 70.1054 255.716 70.0217 255.717Z" fill="black"/>
<path d="M93.9435 255.717C93.9092 255.716 93.875 255.711 93.8418 255.703C93.794 255.689 93.7493 255.667 93.7102 255.637C93.6711 255.606 93.6385 255.568 93.6142 255.525C93.5899 255.482 93.5743 255.435 93.5685 255.386C93.5627 255.337 93.5667 255.287 93.5802 255.24L116.709 172.596C116.737 172.5 116.801 172.419 116.889 172.37C116.976 172.322 117.08 172.31 117.176 172.337C117.272 172.365 117.354 172.429 117.403 172.516C117.451 172.604 117.463 172.706 117.436 172.802L94.3068 255.432C94.2869 255.513 94.2403 255.585 94.1745 255.637C94.1086 255.688 94.0273 255.717 93.9435 255.717Z" fill="black"/>
<path d="M73.8142 174.648C98.5373 194.021 146.341 183.505 154.811 182.499C165.709 181.199 174.116 170.296 171.22 162.094C146.485 180.499 98.7739 175.92 83.828 161.15C67.7237 145.241 61.0894 97.2783 59.8896 90.2598C59.1547 91.3093 58.4365 92.7597 57.7369 96.0139C52.9771 115.35 54.8432 159.772 73.8142 174.648Z" fill="white"/>
<path d="M117.326 186.645C101.964 186.645 85.2832 184.106 73.5818 174.937C54.2413 159.772 52.7239 114.791 57.3654 95.9292C58.0961 92.4953 58.86 91.0738 59.5741 90.0511C59.617 89.9897 59.6773 89.9424 59.7473 89.9152C59.8174 89.8881 59.8939 89.8824 59.9673 89.8988C60.0406 89.9152 60.1073 89.953 60.1589 90.0074C60.2106 90.0618 60.2447 90.1302 60.257 90.204C60.3422 90.7019 60.4542 91.4044 60.5954 92.2866C66.3143 128.057 74.219 151.14 84.0896 160.881C91.3716 168.073 106.614 172.98 123.869 173.691C142.63 174.46 159.805 170.123 170.99 161.799C171.037 161.763 171.092 161.739 171.151 161.729C171.209 161.719 171.269 161.722 171.326 161.739C171.383 161.756 171.434 161.786 171.477 161.827C171.519 161.868 171.552 161.918 171.571 161.974C172.781 165.402 172.111 169.548 169.732 173.35C166.5 178.515 160.806 182.166 154.852 182.875C153.929 182.984 152.517 183.21 150.73 183.495C143.643 184.627 131.014 186.645 117.326 186.645ZM74.0467 174.346C95.9239 191.495 135.657 185.143 150.616 182.753C152.411 182.466 153.829 182.241 154.767 182.133C160.492 181.451 165.977 177.935 169.09 172.958C171.235 169.53 171.924 165.829 171.017 162.716C159.685 170.939 142.53 175.212 123.835 174.445C106.398 173.732 90.9647 168.743 83.5644 161.429C73.5755 151.555 65.594 128.334 59.8502 92.4023L59.6758 91.3135C59.1693 92.2432 58.6254 93.6379 58.1023 96.0945C53.4961 114.809 54.9533 159.379 74.0467 174.346Z" fill="black"/>
<path d="M169.304 255.717C169.222 255.717 169.142 255.689 169.076 255.639C169.01 255.589 168.963 255.519 168.941 255.44L145.814 172.809C145.787 172.713 145.799 172.61 145.847 172.523C145.896 172.436 145.977 172.371 146.074 172.344C146.17 172.316 146.273 172.328 146.361 172.377C146.449 172.425 146.513 172.506 146.541 172.602L169.672 255.246C169.698 255.342 169.685 255.445 169.635 255.531C169.586 255.618 169.504 255.682 169.408 255.709C169.374 255.716 169.339 255.719 169.304 255.717Z" fill="black"/>
<path d="M136.691 231.242L113.782 214.203L148.889 171.106L101.128 148.885C103.268 139.763 107.702 127.35 129.72 132.943C129.72 132.943 179.905 144.493 184.499 159.833C190.652 180.391 136.691 231.242 136.691 231.242Z" fill="#DBCDF0"/>
<path d="M144.702 176.242L156.731 210.418L162.597 203.042L144.702 176.242Z" fill="#003CD3"/>
<path d="M92.2372 166.383C101.371 177.433 142.373 174.705 143.107 173.532L181.321 238.424L209.357 227.595C209.357 227.595 181.321 158.05 169.304 149.517C155.544 139.747 103.501 134.053 103.501 134.053L87.7514 137.72C87.7514 137.72 81.8187 153.78 92.2372 166.383Z" fill="#DBCDF0"/>
<path d="M91.6663 153.71C91.4583 153.709 91.2503 153.698 91.0436 153.675L91.1266 152.929C92.8392 153.117 94.7282 152.348 96.065 150.92C97.2212 149.681 98.0412 147.941 98.4335 145.871C98.803 143.914 98.7802 141.803 98.7636 140.106H99.5171C99.5358 141.834 99.5586 143.987 99.1746 146.018C98.7594 148.226 97.871 150.1 96.6172 151.439C95.2596 152.885 93.4453 153.71 91.6663 153.71Z" fill="black"/>
<path d="M201.633 55.8919L197.88 63.2596C197.529 63.9525 197.007 64.5455 196.364 64.9834C195.72 65.4213 194.976 65.6898 194.2 65.7637L187.982 71.8153L174.253 58.3258L188.64 34.8755C189.03 34.2367 189.632 33.754 190.342 33.5112C191.053 33.2685 191.826 33.281 192.527 33.5468C193.229 33.8125 193.815 34.3146 194.184 34.9658C194.552 35.6169 194.68 36.376 194.544 37.1111C194.495 37.3877 194.409 37.6566 194.289 37.9106L189.637 47.6833L190.992 46.6502C191.555 46.2236 192.233 45.976 192.939 45.9398C193.645 45.9037 194.346 46.0807 194.949 46.4477C195.552 46.8147 196.03 47.3545 196.32 47.9964C196.609 48.6383 196.697 49.3523 196.572 50.0448C196.547 50.1791 196.512 50.3155 196.475 50.4581L196.194 51.3754C196.886 50.8485 197.747 50.5913 198.616 50.6522C199.485 50.7131 200.302 51.0878 200.913 51.706L200.998 51.7928C201.521 52.3241 201.864 53.0054 201.978 53.7407C202.092 54.476 201.971 55.2283 201.633 55.8919Z" fill="#FFCDB2"/>
<path d="M194.2 66.0057H194.181C194.154 66.0057 191.482 65.8363 191.339 63.2309C191.227 61.1008 195.024 53.3591 195.186 53.0306C195.2 53.001 195.22 52.9745 195.245 52.9527C195.27 52.9309 195.298 52.9141 195.33 52.9034C195.361 52.8927 195.394 52.8881 195.427 52.8901C195.46 52.8921 195.492 52.9005 195.522 52.9149C195.552 52.9292 195.578 52.9493 195.6 52.9739C195.622 52.9985 195.639 53.0272 195.65 53.0583C195.66 53.0893 195.665 53.1222 195.663 53.1551C195.661 53.1879 195.653 53.22 195.638 53.2496C195.599 53.3301 191.736 61.202 191.844 63.204C191.958 65.3569 194.127 65.5015 194.208 65.5057C194.271 65.5127 194.329 65.543 194.37 65.5905C194.412 65.638 194.434 65.6994 194.433 65.7624C194.431 65.8254 194.406 65.8856 194.362 65.931C194.318 65.9764 194.259 66.0038 194.195 66.0077L194.2 66.0057Z" fill="#231F20"/>
<path d="M189.332 63.7785C189.099 63.7792 188.867 63.7571 188.638 63.7124C187.418 63.4748 186.575 62.6504 186.266 61.3901C185.788 59.4479 188.811 50.9604 188.939 50.5988C188.966 50.541 189.013 50.4951 189.071 50.4703C189.13 50.4455 189.196 50.4436 189.256 50.4649C189.316 50.4863 189.365 50.5294 189.395 50.5856C189.424 50.6418 189.432 50.707 189.415 50.7682C188.549 53.1835 186.388 59.7785 186.756 61.2723C187.015 62.3322 187.719 63.0243 188.736 63.2206C189.888 63.4458 191.04 62.9851 191.435 62.4293C191.474 62.3745 191.533 62.3374 191.6 62.3262C191.666 62.3149 191.735 62.3305 191.79 62.3694C191.845 62.4083 191.882 62.4674 191.893 62.5336C191.904 62.5999 191.889 62.6679 191.85 62.7227C191.383 63.3694 190.357 63.7785 189.332 63.7785Z" fill="#231F20"/>
<path d="M182.538 48.5513L190.218 49.5843C190.943 49.6816 191.607 50.0396 192.085 50.5907C192.563 51.1419 192.822 51.848 192.813 52.576C192.804 53.2633 192.557 53.9265 192.114 54.4536C191.671 54.9806 191.058 55.3392 190.38 55.4686L184.545 56.5801L183.897 60.8487" fill="#FFCDB2"/>
<path d="M183.895 61.1027H183.856C183.79 61.092 183.732 61.0561 183.693 61.0026C183.654 60.9492 183.638 60.8827 183.648 60.8175L184.298 56.549C184.306 56.497 184.33 56.4488 184.367 56.4117C184.405 56.3745 184.453 56.3502 184.505 56.3424L190.338 55.2308C190.979 55.1096 191.556 54.7654 191.965 54.2598C192.374 53.7541 192.589 53.12 192.571 52.4711C192.553 51.8221 192.304 51.2006 191.868 50.7178C191.432 50.2351 190.838 49.9225 190.191 49.8362L182.511 48.8032C182.446 48.792 182.388 48.7562 182.349 48.7034C182.31 48.6506 182.294 48.5849 182.303 48.5201C182.313 48.4552 182.349 48.397 182.402 48.3582C182.456 48.3195 182.522 48.3034 182.587 48.3135L190.268 49.3465C191.033 49.4478 191.737 49.8171 192.254 50.3881C192.77 50.9592 193.066 51.6947 193.087 52.4628C193.108 53.231 192.854 53.9816 192.37 54.58C191.885 55.1785 191.203 55.5857 190.444 55.7287L184.784 56.8072L184.161 60.9002C184.15 60.9607 184.116 61.015 184.067 61.0524C184.018 61.0899 183.957 61.1078 183.895 61.1027Z" fill="#231F20"/>
<path d="M190.127 53.6009C189.828 53.5935 189.543 53.4756 189.328 53.2703C189.032 52.9946 188.83 52.6332 188.753 52.2372C188.639 51.7725 188.713 51.2819 188.96 50.8715C189.038 50.7467 189.14 50.6385 189.26 50.553C189.38 50.4675 189.516 50.4066 189.66 50.3736C189.841 50.3406 190.028 50.3516 190.204 50.4055C190.381 50.4594 190.541 50.5548 190.673 50.6835C190.968 50.9593 191.169 51.3208 191.246 51.7166C191.435 52.6153 191.038 53.4356 190.336 53.5761C190.268 53.5915 190.197 53.5999 190.127 53.6009ZM189.871 50.855C189.836 50.8554 189.8 50.8588 189.766 50.8653C189.607 50.9063 189.47 51.007 189.384 51.1463C189.211 51.4461 189.161 51.8006 189.245 52.136C189.298 52.4288 189.443 52.6971 189.66 52.9025C189.733 52.9776 189.823 53.0343 189.923 53.0677C190.022 53.1011 190.129 53.1104 190.233 53.0947C190.648 53.0099 190.878 52.4273 190.752 51.824C190.698 51.5313 190.553 51.263 190.336 51.0575C190.213 50.9332 190.047 50.8588 189.871 50.8488V50.855Z" fill="#231F20"/>
<path d="M189.529 62.2518C189.262 62.2506 188.998 62.1972 188.753 62.0947C188.303 61.926 187.938 61.5885 187.735 61.1547C187.675 61.0202 187.642 60.8752 187.639 60.728C187.635 60.5808 187.661 60.4344 187.715 60.2972C187.79 60.1292 187.905 59.9817 188.049 59.867C188.194 59.7523 188.364 59.6738 188.545 59.6381C188.941 59.5496 189.356 59.5886 189.728 59.7497C190.581 60.0989 191.038 60.8881 190.766 61.5452C190.691 61.7136 190.577 61.8614 190.432 61.9762C190.288 62.091 190.117 62.1692 189.936 62.2042C189.803 62.2367 189.666 62.2527 189.529 62.2518ZM188.948 60.0906C188.851 60.0911 188.755 60.1021 188.661 60.1237C188.558 60.1426 188.46 60.1856 188.376 60.2491C188.293 60.3127 188.225 60.395 188.18 60.4894C188.124 60.643 188.131 60.8123 188.2 60.9604C188.351 61.2711 188.618 61.5111 188.944 61.6299C189.217 61.7515 189.523 61.7826 189.815 61.7187C189.919 61.7005 190.017 61.658 190.1 61.5948C190.184 61.5315 190.251 61.4494 190.297 61.3551C190.455 60.9708 190.106 60.4481 189.533 60.2125C189.348 60.1333 189.149 60.0912 188.948 60.0886V60.0906Z" fill="#231F20"/>
<path d="M194.33 64.3179C194.063 64.3168 193.8 64.2627 193.554 64.1588C193.103 63.9914 192.738 63.6535 192.537 63.2187C192.474 63.0857 192.439 62.9412 192.436 62.7942C192.432 62.6473 192.459 62.5011 192.515 62.3651C192.571 62.2291 192.655 62.1062 192.761 62.0041C192.867 61.9021 192.994 61.8232 193.133 61.7725C193.584 61.6036 194.085 61.6185 194.525 61.8138C195.379 62.165 195.833 62.9543 195.563 63.6113C195.505 63.7463 195.419 63.8681 195.312 63.9696C195.205 64.0711 195.079 64.1502 194.941 64.2022C194.746 64.2792 194.539 64.3184 194.33 64.3179ZM193.747 62.1568C193.605 62.1563 193.464 62.1829 193.332 62.2353C193.254 62.2606 193.184 62.3024 193.124 62.3576C193.064 62.4129 193.018 62.4804 192.987 62.5555C192.956 62.6305 192.942 62.7113 192.946 62.7923C192.949 62.8733 192.971 62.9525 193.008 63.0245C193.158 63.3357 193.424 63.5765 193.749 63.696C194.068 63.8398 194.43 63.8553 194.76 63.7394C194.836 63.7114 194.905 63.6686 194.964 63.6137C195.022 63.5587 195.07 63.4925 195.102 63.4191C195.262 63.0349 194.914 62.5121 194.341 62.2766C194.152 62.2013 193.95 62.1627 193.747 62.163V62.1568Z" fill="#231F20"/>
<path d="M121.429 91.9518C123.038 92.863 124.692 93.6906 126.386 94.4312L126.567 94.5117C130.627 96.3278 136.697 99.3258 143.701 99.5861C143.782 99.5861 143.859 99.5861 143.94 99.5861C173.692 100.413 189.749 72.5842 189.749 72.5842L173.468 52.3364C157.854 86.894 135.794 75.7598 122.656 72.952L121.429 91.9518Z" fill="#07284B"/>
<path d="M126.567 94.5056C130.628 96.3217 136.697 99.3196 143.701 99.5799L135.697 86.5635L126.567 94.5056Z" fill="#FFB921"/>
<path d="M140.386 136.051C127.669 144.22 112.171 143.917 94.6181 140.888C91.5044 140.346 88.3242 139.718 85.0693 139.041C85.0693 139.041 84.4922 136.65 83.691 132.805C81.036 120.016 75.9316 91.1359 81.4927 80.5327C84.3656 75.0596 93.466 71.979 100.046 71.3282C115.802 69.7683 134.277 74.4501 137.584 81.3075C141.015 88.4128 134.246 110.617 140.386 136.051Z" fill="#07284B"/>
<path d="M119.823 124.834L94.6182 140.888C91.5044 140.346 88.3243 139.718 85.0694 139.04C85.0694 139.04 84.4923 136.65 83.691 132.805L119.823 124.834Z" fill="#F34A3F"/>
<path d="M107.922 105.152L80.7661 116.28L81.6338 121.809L107.922 105.152Z" fill="#F34A3F"/>
<path d="M91.7638 94.6396L80.7661 116.28L79.5165 105.813L91.7638 94.6396Z" fill="#F34A3F"/>
<path d="M132.12 34.7435C133.319 31.2796 131.47 27.5035 127.99 26.3094C124.51 25.1153 120.716 26.9554 119.516 30.4194C118.317 33.8833 120.165 37.6594 123.646 38.8535C127.126 40.0476 130.92 38.2075 132.12 34.7435Z" fill="#FFB49F"/>
<path d="M119.21 71.7555L117.778 79.2079L100.408 71.7555L102.581 58.1915L109.846 57.9416L117.774 57.6709L118.766 67.4518L119.21 71.7555Z" fill="#FFCDB2"/>
<path d="M118.77 67.4538C118.515 67.3567 110.351 64.148 108.893 59.7555C108.653 59.0282 109.037 58.4332 109.85 57.9435L117.778 57.6729L118.77 67.4538Z" fill="#FFB49F"/>
<path d="M117.776 79.5861C117.725 79.5858 117.674 79.5753 117.627 79.5551L100.256 72.1006C100.211 72.0811 100.17 72.0528 100.135 72.0175C100.101 71.9822 100.074 71.9404 100.055 71.8947C100.037 71.8489 100.028 71.8001 100.029 71.7508C100.03 71.7016 100.04 71.653 100.06 71.6079C100.079 71.5627 100.108 71.5218 100.143 71.4875C100.179 71.4533 100.221 71.4263 100.267 71.4082C100.313 71.3901 100.362 71.3811 100.411 71.3819C100.461 71.3826 100.51 71.3931 100.555 71.4126L117.925 78.865C118.005 78.8994 118.07 78.96 118.11 79.0367C118.151 79.1134 118.163 79.2014 118.145 79.2861C118.128 79.3707 118.081 79.4467 118.014 79.5014C117.947 79.556 117.863 79.586 117.776 79.5861Z" fill="black"/>
<path d="M126.15 57.4974C134.118 49.5668 134.118 36.7086 126.15 28.778C118.182 20.8473 105.263 20.8473 97.2951 28.778C89.3271 36.7086 89.3271 49.5668 97.2951 57.4974C105.263 65.4281 118.182 65.4281 126.15 57.4974Z" fill="#FFCDB2"/>
<path d="M125.776 30.2815C130.699 25.3815 130.699 17.4369 125.776 12.5368C120.853 7.63672 112.871 7.63672 107.948 12.5368C103.025 17.4369 103.025 25.3815 107.948 30.2815C112.871 35.1816 120.853 35.1816 125.776 30.2815Z" fill="black"/>
<path d="M93.0882 46.9996C93.0882 46.9996 115.791 40.6629 114.469 24.0659C114.455 23.8861 114.438 23.7043 114.417 23.5204C114.417 23.5204 109.724 14.2044 97.5388 20.1176C85.3537 26.0307 82.6759 44.138 93.0882 46.9996Z" fill="black"/>
<path d="M93.9435 52.83C92.6531 53.0973 91.3119 52.9778 90.0897 52.4866C88.8675 51.9953 87.819 51.1544 87.0769 50.0702C86.3348 48.986 85.9323 47.7071 85.9203 46.3952C85.9083 45.0833 86.2874 43.7973 87.0097 42.6999C87.7319 41.6024 88.7648 40.7427 89.9779 40.2294C91.1909 39.7162 92.5297 39.5724 93.8248 39.8164C95.1199 40.0603 96.3133 40.6809 97.2541 41.5998C98.1949 42.5187 98.8408 43.6946 99.1103 44.9789C99.2895 45.8321 99.2981 46.7121 99.1354 47.5686C98.9727 48.4251 98.6419 49.2413 98.1621 49.9705C97.6822 50.6997 97.0626 51.3275 96.3388 51.8182C95.6149 52.3089 94.801 52.6527 93.9435 52.83Z" fill="#FFCDB2"/>
<path d="M91.7556 50.0618C91.6627 50.0603 91.5737 50.0249 91.5054 49.9622C91.4371 49.8996 91.3944 49.8141 91.3854 49.7222C91.3765 49.6302 91.4018 49.5381 91.4567 49.4636C91.5116 49.389 91.5921 49.3372 91.6829 49.318C92.0211 49.237 92.3339 49.0738 92.5933 48.843C92.8527 48.6123 93.0505 48.3211 93.1692 47.9957C93.4081 47.3058 93.3762 46.5516 93.0799 45.8841C92.7684 45.1921 92.2864 44.5895 91.6788 44.132C91.6377 44.1022 91.6032 44.0643 91.5772 44.0208C91.5513 43.9774 91.5344 43.9291 91.5276 43.879C91.5208 43.8288 91.5242 43.7778 91.5377 43.729C91.5511 43.6802 91.5744 43.6347 91.6059 43.595C91.6375 43.5554 91.6768 43.5225 91.7215 43.4983C91.7661 43.4741 91.8152 43.4592 91.8658 43.4544C91.9164 43.4495 91.9675 43.4549 92.016 43.4702C92.0644 43.4854 92.1093 43.5103 92.1479 43.5432C92.8542 44.08 93.4138 44.7848 93.7753 45.5928C94.1464 46.4381 94.182 47.3918 93.875 48.2622C93.71 48.706 93.4368 49.1021 93.0799 49.4148C92.723 49.7275 92.2936 49.947 91.8303 50.0535C91.8058 50.0593 91.7807 50.0621 91.7556 50.0618Z" fill="black"/>
<path d="M124.179 41.8036C125.048 41.4041 125.428 40.379 125.026 39.514C124.625 38.649 123.595 38.2717 122.726 38.6712C121.857 39.0707 121.478 40.0957 121.879 40.9607C122.28 41.8257 123.31 42.2031 124.179 41.8036Z" fill="black"/>
<path d="M116.863 43.2481C116.922 42.2971 116.196 41.4784 115.24 41.4194C114.285 41.3604 113.462 42.0835 113.403 43.0345C113.344 43.9854 114.07 44.8042 115.026 44.8632C115.981 44.9222 116.804 44.1991 116.863 43.2481Z" fill="black"/>
<path d="M117.091 56.1936C116.729 56.1943 116.368 56.1534 116.016 56.0717C115.363 55.9154 114.75 55.6269 114.214 55.2242C113.678 54.8214 113.232 54.313 112.902 53.7308C112.86 53.6442 112.853 53.5449 112.882 53.4532C112.911 53.3616 112.975 53.2845 113.059 53.238C113.144 53.1914 113.243 53.1788 113.336 53.2028C113.43 53.2269 113.511 53.2857 113.562 53.3671C113.836 53.8598 114.21 54.2898 114.661 54.6297C115.112 54.9696 115.63 55.2117 116.18 55.3406C116.731 55.4694 117.303 55.4821 117.858 55.3778C118.414 55.2735 118.942 55.0545 119.408 54.7349C119.448 54.7057 119.495 54.6849 119.544 54.6737C119.593 54.6626 119.644 54.6613 119.693 54.6699C119.743 54.6785 119.79 54.6969 119.832 54.7239C119.875 54.751 119.911 54.7862 119.94 54.8274C119.968 54.8687 119.988 54.9152 119.998 54.9642C120.008 55.0132 120.008 55.0638 119.999 55.1129C119.989 55.162 119.97 55.2087 119.942 55.2502C119.913 55.2918 119.877 55.3273 119.835 55.3547C119.026 55.9015 118.07 56.1937 117.091 56.1936Z" fill="black"/>
<path d="M102.201 22.6857C106.803 22.6857 110.533 20.1345 110.533 16.9874C110.533 13.8403 106.803 11.2891 102.201 11.2891C97.5993 11.2891 93.8688 13.8403 93.8688 16.9874C93.8688 20.1345 97.5993 22.6857 102.201 22.6857Z" fill="black"/>
<path d="M191.648 7.51022V21.0452C191.648 21.9823 191.463 22.9102 191.102 23.7759C190.742 24.6416 190.214 25.4281 189.548 26.0906C188.882 26.7532 188.092 27.2786 187.222 27.637C186.352 27.9954 185.42 28.1798 184.478 28.1795H162.645L155.026 33.2745C154.767 33.4476 154.469 33.555 154.158 33.5874C153.847 33.6198 153.533 33.5762 153.243 33.4603C152.953 33.3445 152.695 33.1599 152.493 32.9227C152.291 32.6854 152.15 32.4026 152.083 32.0989L151.209 28.1733H151.074C149.173 28.1727 147.35 27.4209 146.006 26.0831C144.662 24.7453 143.907 22.931 143.906 21.039V7.51022C143.907 5.61827 144.662 3.80397 146.006 2.46616C147.35 1.12835 149.173 0.376525 151.074 0.375977H184.478C185.42 0.375705 186.352 0.56004 187.222 0.918448C188.092 1.27686 188.882 1.80232 189.548 2.46482C190.214 3.12732 190.742 3.91389 191.102 4.77959C191.463 5.64529 191.648 6.57317 191.648 7.51022Z" fill="white"/>
<path d="M153.958 33.9729C153.663 33.9724 153.372 33.9163 153.098 33.8076C152.752 33.6686 152.445 33.4477 152.204 33.164C151.962 32.8804 151.794 32.5424 151.714 32.1795L150.906 28.5535C148.936 28.5066 147.062 27.6953 145.684 26.2927C144.306 24.89 143.533 23.007 143.531 21.0453V7.51027C143.534 5.51926 144.329 3.61058 145.744 2.20272C147.158 0.794865 149.076 0.00273303 151.076 0H184.481C186.481 0.00218751 188.399 0.794148 189.814 2.20212C191.228 3.6101 192.024 5.51909 192.026 7.51027V21.0453C192.024 23.0365 191.228 24.9455 189.814 26.3535C188.399 27.7614 186.481 28.5534 184.481 28.5556H162.761L155.236 33.5865C154.858 33.8378 154.413 33.9722 153.958 33.9729ZM151.074 0.752057C149.274 0.754244 147.548 1.46697 146.275 2.73391C145.003 4.00084 144.286 5.71855 144.284 7.51027V21.0453C144.286 22.837 145.003 24.5547 146.275 25.8217C147.548 27.0886 149.274 27.8013 151.074 27.8035H151.209C151.295 27.8038 151.379 27.8332 151.446 27.8868C151.513 27.9405 151.56 28.0153 151.579 28.099L152.451 32.0246C152.505 32.2683 152.619 32.4951 152.782 32.6853C152.944 32.8756 153.151 33.0235 153.384 33.1165C153.617 33.2094 153.869 33.2446 154.119 33.2188C154.369 33.1931 154.608 33.1073 154.817 32.9688L162.435 27.8738C162.497 27.8326 162.569 27.8104 162.643 27.8097H184.476C186.279 27.8097 188.008 27.0971 189.283 25.8286C190.558 24.5601 191.274 22.8395 191.275 21.0453V7.51027C191.273 5.71819 190.556 4.00018 189.283 2.73318C188.009 1.46619 186.283 0.753698 184.483 0.752057H151.074Z" fill="black"/>
<path d="M178.758 11.6633C177.39 11.6633 176.074 11.029 174.892 10.4587L174.62 10.3286C173.319 9.70873 171.648 9.07031 170.278 9.70873C169.869 9.91877 169.486 10.1753 169.136 10.4732C168.513 10.9629 167.868 11.469 167.021 11.5455C165.854 11.6509 164.964 10.9257 164.102 10.2232C163.808 9.97444 163.502 9.74068 163.185 9.52278C161.825 8.63023 159.922 8.44427 157.964 9.01452C156.166 9.53724 154.547 10.5786 152.982 11.5847L152.567 10.9546C154.178 9.92154 155.843 8.84717 157.756 8.29345C159.928 7.66122 162.06 7.88023 163.604 8.89676C163.943 9.12758 164.27 9.37584 164.584 9.64055C165.364 10.2748 166.103 10.8802 166.956 10.7976C167.579 10.7418 168.111 10.3244 168.673 9.88435C169.068 9.549 169.502 9.2612 169.964 9.02692C171.625 8.26246 173.493 8.96287 174.946 9.65708L175.218 9.78931C176.565 10.4381 177.958 11.1095 179.339 10.8699C179.934 10.755 180.485 10.4775 180.93 10.0685C181.376 9.65937 181.698 9.13489 181.861 8.55378L182.592 8.7418C182.397 9.46322 182.001 10.1152 181.45 10.6225C180.899 11.1299 180.216 11.4721 179.478 11.6095C179.24 11.6483 178.999 11.6663 178.758 11.6633Z" fill="black"/>
<path d="M162.298 20.1132C161.949 20.1138 161.6 20.0736 161.26 19.9934C160.43 19.7868 159.714 19.3591 159.021 18.9376C158.644 18.6988 158.255 18.4795 157.856 18.2806C156.872 17.8116 155.515 17.6794 154.865 18.4872L154.273 18.0224C155.18 16.8819 156.936 17.0017 158.182 17.5947C158.605 17.8044 159.016 18.0354 159.415 18.2868C160.088 18.7 160.723 19.0843 161.437 19.2538C163.066 19.6442 164.773 18.8095 166.076 18.0368C166.284 17.9211 166.471 17.8013 166.668 17.6814C167.994 16.8798 169.367 16.0492 170.95 15.8881C172.372 15.7414 173.744 16.1546 175.027 16.5905L175.359 16.7042C176.476 17.0885 177.643 17.4852 178.793 17.5306C179.872 17.5637 181.267 17.2186 181.967 16.1463L182.59 16.5596C181.718 17.8943 180.04 18.3261 178.76 18.2848C177.479 18.2434 176.269 17.8281 175.102 17.4273L174.772 17.3137C173.57 16.9005 172.281 16.5162 171.017 16.6463C169.601 16.791 168.306 17.5761 167.05 18.3364C166.842 18.4562 166.651 18.5781 166.452 18.6959C165.296 19.3798 163.828 20.1132 162.298 20.1132Z" fill="black"/>
<path d="M87.1162 75.4746C74.8211 80.7804 43.8788 121.051 65.0211 137.724C79.6764 149.294 106.139 132.125 119.823 124.836C115.349 117.338 107.922 105.152 107.922 105.152C107.922 105.152 81.2561 119.952 79.0101 118.4C75.2715 115.811 95.1413 90.1439 95.1413 90.1439L87.1162 75.4746Z" fill="#07284B"/>
<path d="M108.327 105.813L119.31 95.7906C119.525 95.4834 119.8 95.2233 120.12 95.0262C120.439 94.8292 120.796 94.6996 121.168 94.6452C121.54 94.5909 121.919 94.613 122.282 94.7103C122.645 94.8076 122.984 94.978 123.278 95.2109C123.572 95.4438 123.815 95.7343 123.992 96.0644C124.169 96.3945 124.276 96.7572 124.306 97.1301C124.337 97.503 124.29 97.8781 124.169 98.2323C124.048 98.5865 123.855 98.9123 123.603 99.1894L122.129 100.842" fill="#FFCDB2"/>
<path d="M124.641 85.6914L123.287 85.9228C122.604 86.0381 121.95 86.2864 121.363 86.6535C120.777 87.0206 120.268 87.4993 119.868 88.0622C119.467 88.6251 119.182 89.2611 119.028 89.9338C118.875 90.6066 118.856 91.3028 118.974 91.9827L123.368 117.449C123.605 118.821 124.38 120.043 125.521 120.846C126.663 121.65 128.078 121.969 129.457 121.735L130.81 121.503L124.641 85.6914Z" fill="#141112"/>
<path d="M139.257 83.1773L125.093 85.5996C122.06 86.1185 120.023 88.9869 120.544 92.0064L124.839 116.881C125.36 119.901 128.242 121.928 131.276 121.409L145.439 118.987C148.473 118.468 150.509 115.6 149.988 112.58L145.694 87.7052C145.172 84.6856 142.291 82.6584 139.257 83.1773Z" fill="black"/>
<path d="M122.131 100.84L132.288 98.0593C132.857 97.9053 133.463 97.9816 133.975 98.2717C134.487 98.5617 134.863 99.0418 135.02 99.6068L135.088 99.8589C135.233 100.383 135.179 100.941 134.936 101.428C134.693 101.914 134.278 102.294 133.77 102.495L130.528 103.791L135.441 102.964C135.99 102.873 136.552 102.99 137.018 103.292C137.484 103.593 137.819 104.058 137.957 104.594C137.974 104.654 137.988 104.714 137.999 104.77C138.099 105.348 137.964 105.943 137.623 106.422C137.283 106.901 136.766 107.226 136.184 107.326L131.41 108.142L134.524 108.33C135.058 108.363 135.562 108.587 135.943 108.961C136.325 109.334 136.558 109.832 136.6 110.363V110.51C136.623 110.81 136.585 111.112 136.487 111.397C136.388 111.683 136.233 111.945 136.029 112.168C135.825 112.391 135.577 112.57 135.301 112.694C135.026 112.818 134.727 112.885 134.424 112.89L130.65 112.964L130.787 112.993L133.816 113.648C134.365 113.768 134.847 114.091 135.167 114.551C135.486 115.011 135.618 115.574 135.537 116.127C135.435 116.823 135.116 117.468 134.623 117.971C134.13 118.474 133.49 118.808 132.795 118.927L122.831 121.026L117.998 122.051L108.335 105.813" fill="#FFCDB2"/>
<path d="M122.845 121.028L117.99 122.051L108.327 105.813L122.845 121.028Z" fill="#FFB49F"/>
<path d="M133.037 101.83C132.525 101.83 132 101.447 131.715 100.823C131.52 100.417 131.493 99.95 131.64 99.5238C131.687 99.3937 131.759 99.2742 131.853 99.1723C131.947 99.0705 132.06 98.9884 132.186 98.9309C132.315 98.8766 132.453 98.8486 132.592 98.8486C132.732 98.8486 132.87 98.8766 132.998 98.9309C133.406 99.119 133.73 99.4484 133.912 99.8575C134.093 100.267 134.119 100.727 133.984 101.154C133.938 101.284 133.866 101.403 133.772 101.505C133.679 101.607 133.566 101.689 133.44 101.747C133.313 101.802 133.176 101.831 133.037 101.83ZM132.585 99.3503C132.518 99.3497 132.451 99.3631 132.39 99.3895C132.259 99.4543 132.159 99.5679 132.112 99.7057C132.013 100.008 132.036 100.336 132.174 100.623C132.404 101.135 132.89 101.449 133.235 101.29C133.366 101.226 133.467 101.112 133.515 100.974C133.601 100.671 133.578 100.348 133.451 100.06C133.324 99.7724 133.1 99.5374 132.817 99.3958C132.743 99.3669 132.665 99.3508 132.585 99.3482V99.3503Z" fill="#231F20"/>
<path d="M135.879 106.64C135.31 106.64 134.767 106.148 134.576 105.419C134.45 104.986 134.5 104.522 134.715 104.125C134.782 104.004 134.872 103.898 134.982 103.812C135.091 103.727 135.216 103.664 135.35 103.627C135.485 103.594 135.626 103.588 135.764 103.61C135.901 103.632 136.033 103.682 136.151 103.755C136.522 104.008 136.788 104.385 136.901 104.818C137.013 105.251 136.963 105.709 136.761 106.109C136.694 106.23 136.604 106.336 136.495 106.422C136.385 106.507 136.26 106.57 136.126 106.607C136.046 106.629 135.963 106.64 135.879 106.64ZM135.593 104.096C135.554 104.096 135.514 104.101 135.477 104.111C135.336 104.154 135.219 104.249 135.149 104.377C135.003 104.66 134.973 104.988 135.063 105.293C135.205 105.836 135.632 106.216 136 106.119C136.14 106.076 136.258 105.981 136.328 105.853C136.473 105.57 136.503 105.242 136.413 104.937C136.345 104.629 136.16 104.358 135.896 104.183C135.805 104.128 135.7 104.098 135.593 104.096Z" fill="#231F20"/>
<path d="M134.397 112.086C133.828 112.086 133.284 111.596 133.094 110.867C132.968 110.434 133.018 109.969 133.233 109.572C133.3 109.451 133.39 109.344 133.499 109.259C133.609 109.173 133.734 109.11 133.868 109.074C134.003 109.042 134.144 109.037 134.281 109.059C134.419 109.081 134.551 109.131 134.669 109.204C135.04 109.456 135.307 109.833 135.419 110.266C135.531 110.699 135.482 111.158 135.279 111.557C135.212 111.678 135.122 111.785 135.012 111.87C134.903 111.956 134.778 112.019 134.644 112.055C134.563 112.076 134.48 112.086 134.397 112.086ZM134.111 109.545C134.071 109.545 134.032 109.549 133.994 109.559C133.854 109.602 133.737 109.698 133.666 109.826C133.521 110.109 133.491 110.436 133.581 110.741C133.723 111.284 134.15 111.665 134.518 111.568C134.587 111.547 134.652 111.513 134.709 111.467C134.765 111.421 134.811 111.365 134.846 111.301C134.981 111.016 135.012 110.694 134.933 110.389C134.854 110.084 134.67 109.816 134.414 109.632C134.321 109.577 134.216 109.547 134.109 109.545H134.111Z" fill="#231F20"/>
<path d="M133.434 117.83C132.786 117.83 132.253 117.196 132.205 116.359C132.168 115.91 132.309 115.466 132.597 115.119C132.687 115.013 132.797 114.927 132.922 114.864C133.046 114.802 133.181 114.765 133.32 114.755C133.459 114.751 133.598 114.774 133.728 114.823C133.859 114.871 133.978 114.946 134.08 115.041C134.394 115.36 134.581 115.783 134.605 116.23C134.629 116.677 134.489 117.117 134.21 117.468C134.121 117.573 134.011 117.659 133.887 117.722C133.763 117.784 133.628 117.82 133.49 117.83H133.434ZM133.372 115.253H133.347C133.201 115.268 133.067 115.338 132.973 115.45C132.775 115.698 132.679 116.013 132.707 116.33C132.739 116.892 133.085 117.353 133.461 117.328C133.533 117.322 133.604 117.301 133.668 117.267C133.732 117.234 133.789 117.187 133.835 117.131C134.023 116.879 134.117 116.569 134.1 116.255C134.084 115.94 133.957 115.642 133.743 115.41C133.645 115.311 133.512 115.251 133.372 115.243V115.253Z" fill="#231F20"/>
<path d="M124.861 104.933C124.798 104.933 124.738 104.909 124.692 104.867C124.646 104.825 124.618 104.767 124.612 104.705C124.607 104.643 124.625 104.581 124.663 104.532C124.701 104.482 124.756 104.449 124.817 104.437L130.596 103.404C130.629 103.399 130.662 103.399 130.695 103.406C130.727 103.413 130.758 103.426 130.785 103.445C130.812 103.464 130.835 103.488 130.853 103.516C130.871 103.543 130.883 103.574 130.889 103.607C130.895 103.639 130.894 103.673 130.887 103.705C130.88 103.737 130.867 103.767 130.848 103.794C130.829 103.821 130.805 103.845 130.777 103.862C130.749 103.88 130.718 103.892 130.686 103.898L124.904 104.931C124.89 104.934 124.875 104.935 124.861 104.933Z" fill="#231F20"/>
<path d="M125.826 114.098C125.761 114.102 125.696 114.08 125.647 114.038C125.597 113.995 125.566 113.935 125.561 113.87C125.555 113.805 125.575 113.741 125.616 113.69C125.658 113.64 125.717 113.608 125.782 113.6L130.823 112.741L130.908 113.232L125.87 114.094C125.855 114.097 125.841 114.099 125.826 114.098Z" fill="#231F20"/>
<path d="M126.16 109.373C126.097 109.373 126.036 109.348 125.99 109.304C125.944 109.26 125.916 109.201 125.913 109.138C125.909 109.075 125.929 109.012 125.97 108.964C126.011 108.915 126.068 108.883 126.131 108.875C126.858 108.786 127.833 108.603 128.778 108.423C129.722 108.243 130.715 108.055 131.458 107.964C131.491 107.96 131.524 107.963 131.556 107.972C131.588 107.981 131.617 107.996 131.643 108.016C131.669 108.036 131.691 108.062 131.707 108.09C131.724 108.119 131.734 108.151 131.738 108.183C131.742 108.216 131.739 108.249 131.73 108.281C131.722 108.312 131.706 108.342 131.686 108.368C131.666 108.394 131.64 108.416 131.611 108.432C131.583 108.448 131.551 108.458 131.518 108.462C130.791 108.549 129.816 108.735 128.871 108.915C127.927 109.094 126.935 109.282 126.191 109.371L126.16 109.373Z" fill="#231F20"/>
<path d="M232.64 147.966L218.362 147.86C217.853 147.855 217.361 147.672 216.973 147.343C216.585 147.014 216.325 146.56 216.239 146.061L213.625 130.737C213.571 130.418 213.589 130.092 213.679 129.781C213.768 129.471 213.926 129.184 214.142 128.943C214.357 128.701 214.624 128.511 214.923 128.385C215.222 128.26 215.545 128.203 215.869 128.218L216.492 128.247L217.38 120.078C217.437 119.56 217.617 119.064 217.907 118.631C218.196 118.198 218.587 117.84 219.044 117.589C219.502 117.337 220.014 117.199 220.536 117.186C221.059 117.173 221.577 117.285 222.047 117.513C223.039 117.997 223.867 118.76 224.429 119.707C224.992 120.653 225.263 121.743 225.21 122.842L224.899 129.36L234.221 129.836C235.388 129.895 236.488 130.395 237.298 131.233C238.108 132.072 238.566 133.185 238.581 134.348L238.662 141.968C238.67 142.757 238.52 143.541 238.22 144.272C237.921 145.003 237.477 145.667 236.917 146.226C236.356 146.785 235.689 147.226 234.954 147.525C234.22 147.824 233.433 147.973 232.64 147.966Z" fill="#4BC9F1"/>
<path d="M212.091 148.348L208.903 148.197C208.533 148.179 208.179 148.039 207.899 147.798C207.618 147.558 207.426 147.23 207.354 146.869L204.292 131.137C204.246 130.893 204.256 130.642 204.321 130.401C204.386 130.161 204.505 129.939 204.668 129.751C204.832 129.563 205.036 129.414 205.265 129.315C205.494 129.217 205.743 129.171 205.992 129.181L209.183 129.332C209.552 129.35 209.905 129.491 210.184 129.732C210.464 129.972 210.655 130.299 210.727 130.66L213.793 146.394C213.839 146.638 213.829 146.889 213.764 147.129C213.698 147.369 213.579 147.591 213.416 147.779C213.252 147.967 213.048 148.116 212.819 148.214C212.589 148.313 212.341 148.358 212.091 148.348Z" fill="#4BC9F1"/>
<path d="M55.846 45.7601C55.846 56.9728 42.5337 60.8426 42.5337 60.8426C42.5337 60.8426 29.2235 56.9748 29.2235 45.7601C29.2228 44.2238 29.6859 42.7228 30.5527 41.4518C31.4195 40.1807 32.65 39.1982 34.0846 38.6316C35.5193 38.0651 37.0919 37.9407 38.5984 38.2745C40.105 38.6084 41.476 39.3851 42.5337 40.5039C43.5917 39.3854 44.9628 38.609 46.4693 38.2753C47.9759 37.9416 49.5485 38.0661 50.9831 38.6326C52.4178 39.199 53.6484 40.1813 54.5155 41.4522C55.3825 42.7231 55.8461 44.2239 55.846 45.7601Z" fill="#07284B"/>
<path d="M256.319 55.9191C256.267 56.0596 256.215 56.2001 256.161 56.3323C256.055 56.6112 255.941 56.886 255.822 57.1587C255.764 57.293 255.702 57.4294 255.64 57.572C255.578 57.7145 255.517 57.8406 255.453 57.9707C255.389 58.1009 255.335 58.2145 255.272 58.3343C255.25 58.3819 255.225 58.4294 255.202 58.4748C255.152 58.5699 255.104 58.6629 255.052 58.7558C254.982 58.8881 254.913 59.0162 254.845 59.1463C254.776 59.2765 254.66 59.4686 254.565 59.6277C254.469 59.7868 254.371 59.9459 254.27 60.1029C254.168 60.2599 254.062 60.4149 253.965 60.5719C253.867 60.729 253.776 60.8488 253.678 60.9852C253.653 61.0223 253.626 61.0595 253.599 61.0926C253.539 61.1794 253.475 61.2661 253.41 61.3509C253.346 61.4356 253.313 61.4852 253.263 61.5575C253.213 61.6298 253.161 61.6959 253.107 61.7641C253.053 61.8323 252.985 61.919 252.923 61.9975C252.714 62.262 252.498 62.5203 252.275 62.7723C246.651 69.1772 237.468 71.9396 228.936 69.0698L228.592 68.952C228.424 68.8901 228.256 68.8281 228.092 68.764C228.031 68.7434 227.973 68.7206 227.913 68.6958C227.803 68.6525 227.691 68.6091 227.583 68.5636C227.475 68.5182 227.326 68.4562 227.197 68.4004L226.919 68.2785L226.614 68.138C226.485 68.0801 226.358 68.0161 226.23 67.9541L225.96 67.8177C225.752 67.7124 225.544 67.5987 225.337 67.4872C225.235 67.4314 225.129 67.3735 225.03 67.3116C224.93 67.2496 224.822 67.1959 224.727 67.1359C224.631 67.076 224.507 67.0058 224.399 66.9293L224.12 66.7537L223.84 66.5719L222.86 66.5078L216.766 66.1153C216.388 66.0897 216.021 65.9787 215.692 65.7907C215.364 65.6027 215.083 65.3426 214.871 65.0302C214.659 64.7178 214.521 64.3614 214.468 63.988C214.415 63.6147 214.448 63.2342 214.565 62.8756L216.243 57.7827C213.851 52.7415 213.516 46.9733 215.311 41.6919C219.047 30.6093 231.158 24.4627 242.369 27.9523C245.167 28.8229 247.758 30.2481 249.987 32.1419C252.217 34.0358 254.038 36.3592 255.341 38.9722C256.645 41.5852 257.403 44.4337 257.571 47.3462C257.739 50.2586 257.313 53.1748 256.319 55.9191Z" fill="white"/>
<path d="M235.888 70.5758C233.481 70.5755 231.09 70.1833 228.81 69.4147C228.696 69.3775 228.577 69.3362 228.463 69.2949C228.287 69.2329 228.119 69.1688 227.95 69.1048L227.764 69.0325L227.433 68.9002L227.039 68.7329L226.757 68.6089L226.447 68.4663C226.364 68.4292 226.279 68.3878 226.194 68.3465L226.061 68.2825L225.8 68.1482C225.571 68.0345 225.36 67.9188 225.15 67.8031C225.046 67.7473 224.942 67.6874 224.832 67.6254L224.588 67.4829L224.529 67.4478C224.397 67.3692 224.291 67.3052 224.189 67.2411L223.911 67.0655L223.703 66.9354L216.728 66.485C216.293 66.4568 215.869 66.3298 215.49 66.1135C215.111 65.8973 214.787 65.5977 214.542 65.2375C214.298 64.8774 214.139 64.4663 214.079 64.0358C214.018 63.6052 214.058 63.1666 214.194 62.7536L215.825 57.7949C213.445 52.6975 213.128 46.8832 214.941 41.5595C218.742 30.3117 231.091 24.041 242.469 27.5823C245.318 28.4663 247.958 29.9157 250.229 31.8431C252.501 33.7705 254.356 36.1359 255.683 38.7966C257.011 41.4573 257.783 44.3582 257.953 47.3241C258.123 50.2899 257.688 53.2594 256.674 56.0532L256.319 55.9251L256.671 56.0553C256.62 56.1999 256.568 56.3404 256.514 56.4685C256.404 56.7536 256.289 57.0325 256.167 57.3094C256.111 57.4437 256.047 57.5842 255.984 57.7226C255.922 57.8611 255.856 57.9995 255.791 58.1358C255.727 58.2722 255.673 58.3796 255.609 58.5036L255.384 58.9313C255.314 59.0635 255.243 59.1958 255.177 59.3259C255.081 59.4953 254.988 59.6586 254.888 59.8197C254.789 59.9809 254.681 60.1503 254.591 60.3032C254.502 60.4561 254.384 60.6193 254.28 60.7784C254.176 60.9375 254.087 61.0594 253.989 61.1916C253.96 61.2375 253.927 61.2817 253.892 61.3238C253.848 61.3899 253.782 61.4788 253.713 61.5676C253.645 61.6565 253.618 61.6999 253.562 61.7742C253.506 61.8486 253.462 61.9106 253.404 61.9809L253.248 62.1771C253.008 62.4809 252.788 62.7432 252.561 63.0036C250.487 65.3777 247.925 67.2819 245.049 68.5881C242.173 69.8942 239.05 70.572 235.888 70.5758ZM235.973 27.3509C227.047 27.3509 218.64 32.9997 215.666 41.8136C213.898 47.0028 214.226 52.6728 216.581 57.6255C216.621 57.7126 216.627 57.8112 216.598 57.9024L214.918 62.9953C214.818 63.2995 214.789 63.6225 214.834 63.9395C214.879 64.2565 214.996 64.5591 215.176 64.8242C215.356 65.0893 215.595 65.3097 215.874 65.4686C216.154 65.6276 216.466 65.7208 216.787 65.7412L223.861 66.1998C223.927 66.2038 223.991 66.2251 224.046 66.2618C224.131 66.3197 224.218 66.3734 224.305 66.4292C224.392 66.4849 224.513 66.5573 224.592 66.611C224.671 66.6647 224.799 66.7349 224.886 66.7907L224.974 66.8424L225.21 66.9808C225.316 67.0428 225.418 67.0986 225.513 67.1523C225.721 67.2639 225.928 67.3734 226.136 67.4767C226.238 67.5304 226.319 67.5717 226.402 67.611L226.535 67.6771L226.78 67.7928C226.877 67.8403 226.973 67.8816 227.066 67.925L227.332 68.0428C227.481 68.1068 227.604 68.1606 227.73 68.2122L228.056 68.3424L228.22 68.4064C228.397 68.4746 228.561 68.5345 228.725 68.5944L229.061 68.7081C233.07 70.0569 237.392 70.1877 241.477 69.0839C245.561 67.9801 249.223 65.6916 251.997 62.5098C252.215 62.2618 252.427 62.0091 252.632 61.7515L252.812 61.5242C252.866 61.454 252.914 61.392 252.96 61.3176C253.006 61.2433 253.064 61.1875 253.105 61.1234C253.178 61.0284 253.238 60.9457 253.294 60.8652C253.35 60.7846 253.35 60.7908 253.367 60.766C253.471 60.6193 253.574 60.4829 253.655 60.3528C253.736 60.2226 253.863 60.0491 253.956 59.8941C254.05 59.7391 254.141 59.5966 254.232 59.4478C254.342 59.266 254.44 59.109 254.523 58.9499C254.594 58.8259 254.662 58.6978 254.731 58.5697L254.938 58.1565C255 58.0325 255.059 57.9168 255.115 57.797C255.171 57.6772 255.241 57.5346 255.299 57.4065C255.357 57.2784 255.422 57.1379 255.478 57.0057C255.598 56.735 255.708 56.4664 255.812 56.1916C255.866 56.0553 255.916 55.9189 255.968 55.7784L256.323 55.9045L255.968 55.7763C257.132 52.5763 257.506 49.1443 257.058 45.7702C256.61 42.396 255.353 39.1788 253.392 36.39C251.432 33.6012 248.826 31.3227 245.795 29.747C242.764 28.1712 239.397 27.3445 235.978 27.3365L235.973 27.3509Z" fill="black"/>
<path d="M240.656 41.7583C241.278 39.1318 239.644 36.5001 237.005 35.8802C234.366 35.2603 231.722 36.8869 231.099 39.5134C230.477 42.1399 232.111 44.7716 234.75 45.3915C237.389 46.0114 240.033 44.3847 240.656 41.7583Z" fill="#5FD670"/>
<path d="M247.679 58.946C247.638 55.8608 246.378 52.9158 244.171 50.7486C241.965 48.5813 238.989 47.3662 235.889 47.3662C232.789 47.3662 229.814 48.5813 227.608 50.7486C225.401 52.9158 224.141 55.8608 224.1 58.946H247.679Z" fill="#5FD670"/>
<path d="M0.518975 170.612C0.500292 170.428 0.48161 170.249 0.467079 170.067C0.435942 169.703 0.415182 169.342 0.400651 168.978C0.400651 168.798 0.388199 168.614 0.384047 168.435C0.379896 168.255 0.384047 168.073 0.384047 167.895C0.384047 167.718 0.384047 167.565 0.384047 167.4C0.384047 167.335 0.384047 167.269 0.384047 167.207C0.384047 167.077 0.384049 166.949 0.39858 166.819C0.39858 166.637 0.415181 166.457 0.42556 166.278C0.440091 166.05 0.456697 165.825 0.477456 165.6C0.498214 165.375 0.521053 165.147 0.548039 164.92C0.575025 164.693 0.604083 164.47 0.63522 164.243C0.666358 164.015 0.695422 163.829 0.728635 163.623C0.728635 163.569 0.747316 163.513 0.759771 163.462C0.780529 163.333 0.80336 163.207 0.82827 163.079C0.85318 162.951 0.865635 162.873 0.886393 162.78C0.907151 162.687 0.923762 162.573 0.948672 162.472C0.973582 162.371 1.00057 162.236 1.02548 162.119C1.11681 161.705 1.21645 161.319 1.32647 160.922C4.11015 150.902 12.7539 142.997 23.6852 141.65L24.1273 141.598C24.3349 141.575 24.5612 141.555 24.7791 141.538C24.8559 141.538 24.9327 141.524 25.0116 141.52C25.1549 141.509 25.3022 141.499 25.4455 141.493C25.5887 141.486 25.7859 141.474 25.9582 141.468L26.3298 141.458C26.4647 141.458 26.6017 141.458 26.7449 141.458C26.9172 141.458 27.0916 141.458 27.266 141.458C27.3926 141.458 27.5151 141.458 27.6375 141.458C27.924 141.458 28.2125 141.476 28.499 141.493C28.6422 141.493 28.7855 141.509 28.9308 141.522C29.0761 141.534 29.2152 141.544 29.3584 141.557C29.5016 141.569 29.6718 141.584 29.8275 141.602L30.2261 141.65L30.6413 141.701L31.756 141.255L38.6809 138.466C39.1109 138.293 39.5749 138.22 40.0374 138.253C40.5 138.286 40.9488 138.424 41.3495 138.656C41.7502 138.889 42.0922 139.209 42.3493 139.593C42.6063 139.978 42.7717 140.415 42.8326 140.873L43.6837 147.375C49.0105 151.664 52.4562 157.844 53.2947 164.612C55.0799 178.804 45.0246 191.972 30.8094 194.052C27.2629 194.571 23.6476 194.37 20.1813 193.461C16.7149 192.552 13.4691 190.955 10.6392 188.765C7.8093 186.575 5.45385 183.838 3.71463 180.718C1.97541 177.599 0.888385 174.161 0.518975 170.612Z" fill="white"/>
<path d="M26.8695 194.722C20.2151 194.701 13.8036 192.231 8.86932 187.787C3.93506 183.343 0.8269 177.24 0.143245 170.652L0.518969 170.614L0.143245 170.649C0.124562 170.466 0.10588 170.282 0.0913493 170.1C0.0602119 169.73 0.0373806 169.362 0.0228498 168.995C0.0228498 168.817 0.0103914 168.629 0.00623971 168.445C0.00208806 168.261 0.00623971 168.075 0.00623971 167.893C0.00623971 167.711 0.00623971 167.563 0.00623971 167.393L0.0249214 166.804C0.0249214 166.621 0.0394511 166.441 0.0498302 166.259C0.0664368 166.023 0.0830455 165.794 0.103804 165.567C0.124562 165.34 0.149473 165.106 0.176459 164.879C0.203445 164.652 0.230427 164.422 0.26364 164.191C0.296853 163.959 0.325919 163.778 0.359132 163.571C0.366587 163.506 0.378373 163.442 0.394418 163.379C0.408949 163.278 0.43386 163.145 0.460846 163.013C0.473301 162.922 0.496134 162.807 0.518969 162.709C0.541803 162.612 0.556331 162.503 0.581241 162.397C0.606151 162.292 0.622763 162.212 0.645597 162.112L0.660123 162.044C0.751459 161.631 0.853175 161.227 0.965269 160.831C2.37026 155.702 5.27667 151.104 9.31471 147.623C13.3527 144.142 18.3399 141.936 23.6416 141.284L24.0879 141.232C24.3121 141.21 24.5321 141.189 24.7521 141.172L24.9909 141.154L25.4289 141.125C25.5991 141.125 25.7714 141.106 25.9499 141.1H26.3256C26.4709 141.1 26.6038 141.1 26.7408 141.1H27.266C27.3967 141.1 27.5234 141.1 27.6479 141.1C27.9365 141.1 28.2291 141.119 28.5218 141.135L28.9619 141.166C29.074 141.166 29.1902 141.183 29.3065 141.193H29.3916C29.5701 141.208 29.7237 141.222 29.8753 141.241C30.0268 141.259 30.1389 141.272 30.2738 141.288C30.4088 141.305 30.4814 141.313 30.5852 141.327L38.5294 138.129C39.0128 137.934 39.5346 137.853 40.0547 137.89C40.5749 137.926 41.0796 138.081 41.5304 138.342C41.9811 138.603 42.3659 138.964 42.6553 139.395C42.9447 139.827 43.131 140.319 43.2 140.834L44.0469 147.185C49.3871 151.53 52.8366 157.759 53.6767 164.573C55.4847 178.932 45.255 192.325 30.8737 194.43C29.5478 194.624 28.2096 194.721 26.8695 194.722ZM0.892614 170.575C1.25554 174.075 2.32652 177.465 4.04103 180.542C5.75555 183.618 8.0781 186.318 10.8688 188.477C13.6594 190.637 16.8604 192.212 20.2789 193.107C23.6973 194.002 27.2625 194.199 30.7596 193.687C44.7382 191.641 54.6814 178.623 52.9252 164.666C52.101 157.993 48.7039 151.9 43.4512 147.672C43.376 147.612 43.327 147.526 43.3142 147.431L42.4382 140.933C42.3852 140.532 42.2406 140.148 42.0155 139.811C41.7904 139.475 41.4908 139.194 41.1396 138.99C40.7884 138.787 40.395 138.666 39.9897 138.638C39.5844 138.609 39.1778 138.673 38.8013 138.825L30.7617 142.061C30.7006 142.086 30.6338 142.094 30.5686 142.084L30.197 142.036L29.7819 141.986C29.6324 141.968 29.4892 141.955 29.3459 141.943L29.2338 141.933L28.8996 141.906C28.7523 141.893 28.6132 141.885 28.4845 141.877C28.2001 141.86 27.9178 141.848 27.6334 141.844L27.268 141.834H26.7449H26.3568H26.0059C25.7984 141.834 25.6364 141.848 25.4683 141.858L25.0386 141.887L24.831 141.904C24.6006 141.922 24.3868 141.941 24.173 141.964L23.7412 142.013C18.5865 142.647 13.7378 144.792 9.81233 148.177C5.88686 151.562 3.06222 156.033 1.69804 161.021C1.58871 161.41 1.48976 161.802 1.40119 162.197L1.38459 162.269C1.36383 162.36 1.34307 162.453 1.32439 162.546C1.30571 162.639 1.2808 162.753 1.26419 162.842C1.24758 162.931 1.22267 163.048 1.20814 163.133C1.17908 163.274 1.15832 163.395 1.13757 163.517C1.12596 163.568 1.11695 163.619 1.11058 163.67C1.07529 163.877 1.04208 164.083 1.01509 164.29C0.988108 164.497 0.952818 164.736 0.929984 164.957C0.90715 165.178 0.882241 165.408 0.859407 165.631C0.836573 165.854 0.824118 166.077 0.807511 166.302C0.797132 166.476 0.790899 166.652 0.782596 166.833L0.765992 167.397C0.765992 167.567 0.765992 167.728 0.765992 167.889C0.765992 168.05 0.765992 168.249 0.765992 168.424C0.765992 168.6 0.765989 168.78 0.782596 168.957C0.795051 169.319 0.815815 169.674 0.846952 170.032C0.861483 170.211 0.880163 170.391 0.89677 170.571L0.523118 170.61L0.892614 170.575Z" fill="black"/>
<path d="M26.9234 186.761C37.0981 186.761 45.3464 178.551 45.3464 168.424C45.3464 158.297 37.0981 150.088 26.9234 150.088C16.7487 150.088 8.50049 158.297 8.50049 168.424C8.50049 178.551 16.7487 186.761 26.9234 186.761Z" fill="#FDE346"/>
<path d="M33.699 171.354L25.7299 176.383C25.2025 176.715 24.5952 176.901 23.9712 176.92C23.3472 176.939 22.7295 176.791 22.1826 176.492C21.6356 176.192 21.1795 175.752 20.8618 175.217C20.5441 174.682 20.3764 174.072 20.3763 173.451V163.4C20.3764 162.778 20.5441 162.168 20.8618 161.633C21.1795 161.099 21.6356 160.658 22.1826 160.359C22.7295 160.059 23.3472 159.911 23.9712 159.931C24.5952 159.95 25.2025 160.135 25.7299 160.468L33.6969 165.492C34.1935 165.805 34.6025 166.238 34.8861 166.75C35.1696 167.262 35.3184 167.838 35.3186 168.423C35.3188 169.008 35.1704 169.583 34.8872 170.096C34.6041 170.608 34.1953 171.041 33.699 171.354Z" fill="white"/>
</g>
<defs>
<clipPath id="clip0_458_16600">
<rect width="258" height="285" fill="white"/>
</clipPath>
</defs>
</svg>
