<svg width="297" height="265" viewBox="0 0 297 265" fill="none" xmlns="http://www.w3.org/2000/svg">
<path d="M65.2571 59.0859C72.7017 59.0859 78.7368 53.0508 78.7368 45.6062C78.7368 38.1615 72.7017 32.1265 65.2571 32.1265C57.8124 32.1265 51.7773 38.1615 51.7773 45.6062C51.7773 53.0508 57.8124 59.0859 65.2571 59.0859Z" fill="#E0E0E0"/>
<path d="M203.423 19.0963C208.696 19.0963 212.971 14.8214 212.971 9.54815C212.971 4.27485 208.696 0 203.423 0C198.15 0 193.875 4.27485 193.875 9.54815C193.875 14.8214 198.15 19.0963 203.423 19.0963Z" fill="#E0E0E0"/>
<path d="M75.7036 215.9C79.1157 215.9 81.8818 213.134 81.8818 209.722C81.8818 206.31 79.1157 203.544 75.7036 203.544C72.2915 203.544 69.5254 206.31 69.5254 209.722C69.5254 213.134 72.2915 215.9 75.7036 215.9Z" fill="#E0E0E0"/>
<path d="M25.3764 238.984H19.777C19.6747 238.26 19.4659 237.616 19.1506 237.054C18.8352 236.483 18.4304 235.997 17.9361 235.597C17.4418 235.196 16.8707 234.889 16.223 234.676C15.5838 234.463 14.8892 234.357 14.1392 234.357C12.7841 234.357 11.6037 234.693 10.598 235.366C9.59233 236.031 8.8125 237.003 8.25852 238.281C7.70455 239.551 7.42756 241.094 7.42756 242.909C7.42756 244.776 7.70455 246.344 8.25852 247.614C8.82102 248.884 9.60511 249.842 10.6108 250.49C11.6165 251.138 12.7798 251.462 14.1009 251.462C14.8423 251.462 15.5284 251.364 16.1591 251.168C16.7983 250.972 17.3651 250.686 17.8594 250.311C18.3537 249.928 18.7628 249.463 19.0866 248.918C19.419 248.372 19.6491 247.75 19.777 247.051L25.3764 247.077C25.2315 248.278 24.8693 249.438 24.2898 250.554C23.7188 251.662 22.9474 252.655 21.9759 253.533C21.0128 254.402 19.8622 255.092 18.5241 255.604C17.1946 256.107 15.6903 256.358 14.0114 256.358C11.6761 256.358 9.58807 255.83 7.74716 254.773C5.91477 253.716 4.46591 252.186 3.40057 250.183C2.34375 248.18 1.81534 245.756 1.81534 242.909C1.81534 240.054 2.35227 237.625 3.42614 235.622C4.5 233.619 5.95739 232.094 7.7983 231.045C9.6392 229.989 11.7102 229.46 14.0114 229.46C15.5284 229.46 16.9347 229.673 18.2301 230.099C19.5341 230.526 20.6889 231.148 21.6946 231.966C22.7003 232.776 23.5185 233.768 24.1491 234.945C24.7884 236.121 25.1974 237.467 25.3764 238.984ZM38.1158 256.384C36.13 256.384 34.4126 255.962 32.9638 255.118C31.5234 254.266 30.4112 253.081 29.6271 251.564C28.843 250.038 28.451 248.27 28.451 246.259C28.451 244.23 28.843 242.457 29.6271 240.94C30.4112 239.415 31.5234 238.23 32.9638 237.386C34.4126 236.534 36.13 236.108 38.1158 236.108C40.1016 236.108 41.8146 236.534 43.255 237.386C44.7038 238.23 45.8203 239.415 46.6044 240.94C47.3885 242.457 47.7805 244.23 47.7805 246.259C47.7805 248.27 47.3885 250.038 46.6044 251.564C45.8203 253.081 44.7038 254.266 43.255 255.118C41.8146 255.962 40.1016 256.384 38.1158 256.384ZM38.1413 252.165C39.0447 252.165 39.799 251.909 40.4041 251.398C41.0092 250.878 41.4652 250.17 41.772 249.276C42.0874 248.381 42.245 247.362 42.245 246.22C42.245 245.078 42.0874 244.06 41.772 243.165C41.4652 242.27 41.0092 241.562 40.4041 241.043C39.799 240.523 39.0447 240.263 38.1413 240.263C37.2294 240.263 36.4624 240.523 35.8402 241.043C35.2266 241.562 34.7621 242.27 34.4467 243.165C34.1399 244.06 33.9865 245.078 33.9865 246.22C33.9865 247.362 34.1399 248.381 34.4467 249.276C34.7621 250.17 35.2266 250.878 35.8402 251.398C36.4624 251.909 37.2294 252.165 38.1413 252.165ZM56.7678 244.648V256H51.3217V236.364H56.5121V239.828H56.7422C57.1768 238.686 57.9055 237.783 58.9283 237.118C59.951 236.445 61.1911 236.108 62.6484 236.108C64.0121 236.108 65.201 236.406 66.2152 237.003C67.2294 237.599 68.0178 238.452 68.5803 239.56C69.1428 240.659 69.424 241.972 69.424 243.497V256H63.978V244.469C63.9865 243.267 63.6797 242.33 63.0575 241.656C62.4354 240.974 61.5788 240.634 60.4879 240.634C59.755 240.634 59.1072 240.791 58.5447 241.107C57.9908 241.422 57.5561 241.882 57.2408 242.487C56.9339 243.084 56.7763 243.804 56.7678 244.648ZM82.5629 263.773C80.7987 263.773 79.2859 263.53 78.0245 263.044C76.7717 262.567 75.7745 261.915 75.033 261.088C74.2915 260.261 73.81 259.332 73.5884 258.301L78.6254 257.624C78.7788 258.016 79.0217 258.382 79.354 258.723C79.6864 259.064 80.1254 259.337 80.6708 259.541C81.2248 259.754 81.8981 259.861 82.6907 259.861C83.8754 259.861 84.8512 259.571 85.6183 258.991C86.3938 258.42 86.7816 257.462 86.7816 256.115V252.523H86.5515C86.3129 253.068 85.9549 253.584 85.4776 254.07C85.0004 254.555 84.3867 254.952 83.6367 255.259C82.8867 255.565 81.9918 255.719 80.9521 255.719C79.4776 255.719 78.1353 255.378 76.9251 254.696C75.7234 254.006 74.7646 252.953 74.0487 251.538C73.3413 250.115 72.9876 248.317 72.9876 246.143C72.9876 243.919 73.3498 242.061 74.0742 240.57C74.7987 239.078 75.7617 237.962 76.9634 237.22C78.1737 236.479 79.4989 236.108 80.9393 236.108C82.0387 236.108 82.9592 236.295 83.7006 236.67C84.4421 237.037 85.0387 237.497 85.4904 238.051C85.9506 238.597 86.3043 239.134 86.5515 239.662H86.756V236.364H92.1637V256.192C92.1637 257.862 91.7546 259.26 90.9364 260.385C90.1183 261.51 88.9847 262.354 87.5359 262.916C86.0955 263.487 84.4379 263.773 82.5629 263.773ZM82.6779 251.628C83.5558 251.628 84.2972 251.411 84.9023 250.976C85.516 250.533 85.9847 249.902 86.3086 249.084C86.641 248.257 86.8072 247.268 86.8072 246.118C86.8072 244.967 86.6452 243.97 86.3214 243.126C85.9975 242.274 85.5288 241.614 84.9151 241.145C84.3015 240.676 83.5558 240.442 82.6779 240.442C81.783 240.442 81.0288 240.685 80.4151 241.17C79.8015 241.648 79.337 242.312 79.0217 243.165C78.7063 244.017 78.5487 245.001 78.5487 246.118C78.5487 247.251 78.7063 248.232 79.0217 249.058C79.3455 249.876 79.81 250.511 80.4151 250.963C81.0288 251.406 81.783 251.628 82.6779 251.628ZM96.4975 256V236.364H101.777V239.79H101.982C102.34 238.571 102.941 237.651 103.784 237.028C104.628 236.398 105.6 236.082 106.699 236.082C106.972 236.082 107.266 236.099 107.581 236.134C107.897 236.168 108.174 236.214 108.412 236.274V241.107C108.157 241.03 107.803 240.962 107.351 240.902C106.9 240.842 106.486 240.812 106.111 240.812C105.31 240.812 104.594 240.987 103.963 241.337C103.341 241.678 102.847 242.155 102.48 242.768C102.123 243.382 101.944 244.089 101.944 244.891V256H96.4975ZM116.265 256.371C115.012 256.371 113.896 256.153 112.915 255.719C111.935 255.276 111.16 254.624 110.589 253.763C110.026 252.893 109.745 251.811 109.745 250.516C109.745 249.425 109.945 248.509 110.346 247.767C110.746 247.026 111.292 246.429 111.982 245.977C112.673 245.526 113.457 245.185 114.335 244.955C115.221 244.724 116.15 244.562 117.121 244.469C118.263 244.349 119.184 244.239 119.883 244.136C120.582 244.026 121.089 243.864 121.404 243.651C121.719 243.437 121.877 243.122 121.877 242.705V242.628C121.877 241.818 121.621 241.192 121.11 240.749C120.607 240.305 119.891 240.084 118.962 240.084C117.982 240.084 117.202 240.301 116.623 240.736C116.043 241.162 115.66 241.699 115.472 242.347L110.435 241.938C110.691 240.744 111.194 239.713 111.944 238.844C112.694 237.966 113.661 237.293 114.846 236.824C116.039 236.347 117.42 236.108 118.988 236.108C120.079 236.108 121.123 236.236 122.12 236.491C123.126 236.747 124.016 237.143 124.792 237.68C125.576 238.217 126.194 238.908 126.646 239.751C127.097 240.587 127.323 241.588 127.323 242.756V256H122.158V253.277H122.005C121.69 253.891 121.268 254.432 120.739 254.901C120.211 255.361 119.576 255.723 118.835 255.987C118.093 256.243 117.237 256.371 116.265 256.371ZM117.825 252.612C118.626 252.612 119.333 252.455 119.947 252.139C120.56 251.815 121.042 251.381 121.391 250.835C121.741 250.29 121.915 249.672 121.915 248.982V246.898C121.745 247.009 121.511 247.111 121.212 247.205C120.923 247.29 120.594 247.371 120.228 247.447C119.862 247.516 119.495 247.58 119.129 247.639C118.762 247.69 118.43 247.737 118.131 247.78C117.492 247.874 116.934 248.023 116.457 248.227C115.979 248.432 115.609 248.709 115.344 249.058C115.08 249.399 114.948 249.825 114.948 250.337C114.948 251.078 115.217 251.645 115.754 252.037C116.299 252.42 116.989 252.612 117.825 252.612ZM141.993 236.364V240.455H130.168V236.364H141.993ZM132.852 231.659H138.298V249.966C138.298 250.469 138.375 250.861 138.528 251.142C138.682 251.415 138.895 251.607 139.168 251.717C139.449 251.828 139.773 251.884 140.139 251.884C140.395 251.884 140.651 251.862 140.906 251.82C141.162 251.768 141.358 251.73 141.494 251.705L142.351 255.757C142.078 255.842 141.695 255.94 141.2 256.051C140.706 256.17 140.105 256.243 139.398 256.268C138.085 256.32 136.935 256.145 135.946 255.744C134.966 255.344 134.203 254.722 133.658 253.878C133.112 253.034 132.844 251.969 132.852 250.682V231.659ZM158.133 247.639V236.364H163.579V256H158.35V252.433H158.146C157.702 253.584 156.965 254.509 155.934 255.207C154.911 255.906 153.663 256.256 152.188 256.256C150.876 256.256 149.721 255.957 148.724 255.361C147.727 254.764 146.947 253.916 146.384 252.817C145.83 251.717 145.549 250.401 145.54 248.866V236.364H150.987V247.895C150.995 249.054 151.306 249.97 151.92 250.643C152.533 251.317 153.356 251.653 154.387 251.653C155.043 251.653 155.657 251.504 156.228 251.206C156.799 250.899 157.259 250.447 157.609 249.851C157.967 249.254 158.141 248.517 158.133 247.639ZM173.381 229.818V256H167.935V229.818H173.381ZM183.343 256.371C182.09 256.371 180.974 256.153 179.994 255.719C179.013 255.276 178.238 254.624 177.667 253.763C177.104 252.893 176.823 251.811 176.823 250.516C176.823 249.425 177.023 248.509 177.424 247.767C177.825 247.026 178.37 246.429 179.06 245.977C179.751 245.526 180.535 245.185 181.413 244.955C182.299 244.724 183.228 244.562 184.2 244.469C185.342 244.349 186.262 244.239 186.961 244.136C187.66 244.026 188.167 243.864 188.482 243.651C188.798 243.437 188.955 243.122 188.955 242.705V242.628C188.955 241.818 188.7 241.192 188.188 240.749C187.685 240.305 186.969 240.084 186.04 240.084C185.06 240.084 184.281 240.301 183.701 240.736C183.121 241.162 182.738 241.699 182.55 242.347L177.513 241.938C177.769 240.744 178.272 239.713 179.022 238.844C179.772 237.966 180.739 237.293 181.924 236.824C183.117 236.347 184.498 236.108 186.066 236.108C187.157 236.108 188.201 236.236 189.198 236.491C190.204 236.747 191.094 237.143 191.87 237.68C192.654 238.217 193.272 238.908 193.724 239.751C194.175 240.587 194.401 241.588 194.401 242.756V256H189.237V253.277H189.083C188.768 253.891 188.346 254.432 187.817 254.901C187.289 255.361 186.654 255.723 185.913 255.987C185.171 256.243 184.315 256.371 183.343 256.371ZM184.903 252.612C185.704 252.612 186.411 252.455 187.025 252.139C187.638 251.815 188.12 251.381 188.469 250.835C188.819 250.29 188.994 249.672 188.994 248.982V246.898C188.823 247.009 188.589 247.111 188.29 247.205C188.001 247.29 187.673 247.371 187.306 247.447C186.94 247.516 186.573 247.58 186.207 247.639C185.84 247.69 185.508 247.737 185.21 247.78C184.57 247.874 184.012 248.023 183.535 248.227C183.058 248.432 182.687 248.709 182.423 249.058C182.158 249.399 182.026 249.825 182.026 250.337C182.026 251.078 182.295 251.645 182.832 252.037C183.377 252.42 184.067 252.612 184.903 252.612ZM209.071 236.364V240.455H197.246V236.364H209.071ZM199.93 231.659H205.376V249.966C205.376 250.469 205.453 250.861 205.607 251.142C205.76 251.415 205.973 251.607 206.246 251.717C206.527 251.828 206.851 251.884 207.217 251.884C207.473 251.884 207.729 251.862 207.984 251.82C208.24 251.768 208.436 251.73 208.572 251.705L209.429 255.757C209.156 255.842 208.773 255.94 208.278 256.051C207.784 256.17 207.183 256.243 206.476 256.268C205.163 256.32 204.013 256.145 203.024 255.744C202.044 255.344 201.281 254.722 200.736 253.878C200.19 253.034 199.922 251.969 199.93 250.682V231.659ZM212.619 256V236.364H218.065V256H212.619ZM215.354 233.832C214.545 233.832 213.85 233.564 213.271 233.027C212.7 232.482 212.414 231.83 212.414 231.071C212.414 230.321 212.7 229.678 213.271 229.141C213.85 228.595 214.545 228.322 215.354 228.322C216.164 228.322 216.854 228.595 217.425 229.141C218.005 229.678 218.295 230.321 218.295 231.071C218.295 231.83 218.005 232.482 217.425 233.027C216.854 233.564 216.164 233.832 215.354 233.832ZM231.299 256.384C229.314 256.384 227.596 255.962 226.147 255.118C224.707 254.266 223.595 253.081 222.811 251.564C222.027 250.038 221.635 248.27 221.635 246.259C221.635 244.23 222.027 242.457 222.811 240.94C223.595 239.415 224.707 238.23 226.147 237.386C227.596 236.534 229.314 236.108 231.299 236.108C233.285 236.108 234.998 236.534 236.439 237.386C237.887 238.23 239.004 239.415 239.788 240.94C240.572 242.457 240.964 244.23 240.964 246.259C240.964 248.27 240.572 250.038 239.788 251.564C239.004 253.081 237.887 254.266 236.439 255.118C234.998 255.962 233.285 256.384 231.299 256.384ZM231.325 252.165C232.228 252.165 232.983 251.909 233.588 251.398C234.193 250.878 234.649 250.17 234.956 249.276C235.271 248.381 235.429 247.362 235.429 246.22C235.429 245.078 235.271 244.06 234.956 243.165C234.649 242.27 234.193 241.562 233.588 241.043C232.983 240.523 232.228 240.263 231.325 240.263C230.413 240.263 229.646 240.523 229.024 241.043C228.41 241.562 227.946 242.27 227.63 243.165C227.324 244.06 227.17 245.078 227.17 246.22C227.17 247.362 227.324 248.381 227.63 249.276C227.946 250.17 228.41 250.878 229.024 251.398C229.646 251.909 230.413 252.165 231.325 252.165ZM249.951 244.648V256H244.505V236.364H249.696V239.828H249.926C250.36 238.686 251.089 237.783 252.112 237.118C253.135 236.445 254.375 236.108 255.832 236.108C257.196 236.108 258.385 236.406 259.399 237.003C260.413 237.599 261.201 238.452 261.764 239.56C262.326 240.659 262.608 241.972 262.608 243.497V256H257.162V244.469C257.17 243.267 256.863 242.33 256.241 241.656C255.619 240.974 254.762 240.634 253.672 240.634C252.939 240.634 252.291 240.791 251.728 241.107C251.174 241.422 250.74 241.882 250.424 242.487C250.118 243.084 249.96 243.804 249.951 244.648ZM283.238 241.963L278.252 242.27C278.167 241.844 277.984 241.46 277.702 241.119C277.421 240.77 277.05 240.493 276.59 240.288C276.138 240.075 275.597 239.969 274.967 239.969C274.123 239.969 273.411 240.148 272.832 240.506C272.252 240.855 271.962 241.324 271.962 241.912C271.962 242.381 272.15 242.777 272.525 243.101C272.9 243.425 273.543 243.685 274.455 243.881L278.009 244.597C279.918 244.989 281.342 245.619 282.279 246.489C283.217 247.358 283.685 248.5 283.685 249.915C283.685 251.202 283.306 252.331 282.548 253.303C281.798 254.274 280.766 255.033 279.454 255.578C278.15 256.115 276.646 256.384 274.941 256.384C272.342 256.384 270.271 255.842 268.728 254.76C267.194 253.669 266.295 252.186 266.031 250.311L271.387 250.03C271.549 250.822 271.941 251.428 272.563 251.845C273.185 252.254 273.982 252.459 274.954 252.459C275.908 252.459 276.675 252.276 277.255 251.909C277.843 251.534 278.141 251.053 278.15 250.464C278.141 249.97 277.933 249.565 277.523 249.25C277.114 248.926 276.484 248.679 275.631 248.509L272.231 247.831C270.313 247.447 268.886 246.783 267.948 245.837C267.019 244.891 266.555 243.685 266.555 242.219C266.555 240.957 266.896 239.871 267.577 238.959C268.268 238.047 269.235 237.344 270.479 236.849C271.732 236.355 273.198 236.108 274.877 236.108C277.357 236.108 279.309 236.632 280.732 237.68C282.164 238.729 282.999 240.156 283.238 241.963ZM293.622 229.818L293.123 248.151H288.444L287.933 229.818H293.622ZM290.784 256.332C289.94 256.332 289.216 256.034 288.61 255.438C288.005 254.832 287.707 254.108 287.716 253.264C287.707 252.429 288.005 251.713 288.61 251.116C289.216 250.52 289.94 250.222 290.784 250.222C291.593 250.222 292.305 250.52 292.919 251.116C293.532 251.713 293.843 252.429 293.852 253.264C293.843 253.827 293.694 254.342 293.404 254.811C293.123 255.271 292.752 255.642 292.292 255.923C291.832 256.196 291.329 256.332 290.784 256.332Z" fill="#CF9FFF"/>
<path d="M206.223 45.0537L207.016 32.1064L190.613 48.2821V61.3125L206.223 45.0537Z" fill="#CF9FFF"/>
<path d="M208.767 47.6799L221.703 46.7026L205.763 63.3344L192.732 63.5186L208.767 47.6799Z" fill="#AA353B"/>
<path opacity="0.19" d="M221.619 46.7095L208.766 47.68L200.539 56.4171L213.172 55.6016L221.619 46.7095Z" fill="white"/>
<path opacity="0.19" d="M206.118 44.9122L207.017 32.1064L198.273 40.729L197.814 53.9863L206.118 44.9122Z" fill="white"/>
<path d="M64.3538 148.482C75.8565 176.142 104.416 196.584 135.122 195.211C139.982 194.987 162.776 193.43 180.055 175.216C208.587 145.13 192.838 100.456 192.047 98.3212C184.123 76.9581 162.686 48.0531 129.057 46.9342C91.5379 45.6829 70.0153 80.0449 68.8471 81.9815C50.1933 112.877 62.8441 144.847 64.3538 148.482Z" fill="#AA353B"/>
<path d="M163.421 185.119C197.649 171.463 213.431 130.404 198.672 93.4108C183.913 56.4174 144.202 37.4982 109.975 51.1536C75.7469 64.809 59.9644 105.868 74.7233 142.861C89.4822 179.855 129.194 198.774 163.421 185.119Z" fill="#CF9FFF"/>
<path d="M157.319 169.821C183.729 159.285 195.907 127.603 184.519 99.0579C173.131 70.5131 142.489 55.9146 116.078 66.4513C89.6678 76.9881 77.4898 108.67 88.8781 137.215C100.266 165.76 130.908 180.358 157.319 169.821Z" fill="#FFFCFF"/>
<path d="M151.945 156.354C171.473 148.563 180.478 125.137 172.057 104.03C163.636 82.9225 140.979 72.1277 121.451 79.9186C101.923 87.7096 92.9182 111.136 101.339 132.243C109.76 153.35 132.417 164.145 151.945 156.354Z" fill="#CF9FFF"/>
<path d="M146.029 141.526C157.981 136.757 163.492 122.42 158.338 109.502C153.184 96.5845 139.318 89.9781 127.366 94.7465C115.414 99.5148 109.902 113.852 115.056 126.77C120.21 139.688 134.077 146.294 146.029 141.526Z" fill="#FFFCFF"/>
<path d="M141.522 130.144C147.676 127.688 150.512 120.304 147.857 113.653C145.202 107.001 138.061 103.601 131.908 106.057C125.754 108.513 122.918 115.896 125.573 122.548C128.228 129.199 135.369 132.6 141.522 130.144Z" fill="#CF9FFF"/>
<path opacity="0.17" d="M139.839 117.927C134.997 141.202 130.155 164.478 125.313 187.755L121.797 186.816L136.694 115.007C136.694 115.097 136.609 116.618 137.818 117.478C138.409 117.882 139.133 118.043 139.839 117.927Z" fill="#343D52"/>
<path opacity="0.19" d="M202.738 136.613C204.37 128.233 204.598 119.641 203.412 111.187C202.264 103.028 198.919 88.9459 188.36 75.2415C174.894 57.7875 157.927 51.652 154.66 50.5287C148.857 48.5263 142.813 47.3061 136.688 46.9004C143.976 48.5584 166.276 54.6175 183.642 75.6908C204.702 101.233 203.212 130.282 202.738 136.613Z" fill="white"/>
<path d="M206.115 44.9123L136.695 115.007C136.66 115.741 136.9 116.462 137.369 117.029C137.664 117.359 138.029 117.621 138.436 117.796C138.844 117.97 139.284 118.054 139.728 118.04L209.036 47.6083C209.242 47.2073 209.311 46.7497 209.232 46.3058C209.154 45.8618 208.932 45.4558 208.601 45.15C208.269 44.8441 207.847 44.6553 207.398 44.6124C206.949 44.5695 206.499 44.6748 206.115 44.9123Z" fill="#343D52"/>
</svg>
