<svg width="74" height="102" viewBox="0 0 74 102" fill="none" xmlns="http://www.w3.org/2000/svg">
<path d="M67.461 47.5149H67.2681V32.1846C67.2675 31.6718 67.0621 31.1803 66.697 30.8178C66.3319 30.4553 65.8369 30.2516 65.3207 30.2513H63.5244C62.9573 30.2507 62.4135 30.0266 62.0125 29.6283C61.6114 29.2299 61.3858 28.6898 61.3853 28.1264V16.3461H61.5781V28.1292C61.5787 28.6418 61.7839 29.1332 62.1488 29.4956C62.5137 29.858 63.0084 30.0619 63.5244 30.0625H65.3207C65.8878 30.0631 66.4316 30.2872 66.8326 30.6855C67.2337 31.0839 67.4593 31.624 67.4599 32.1874L67.461 47.5149Z" fill="black"/>
<path d="M34.1184 32.8156H33.9255V24.0196C33.9263 23.3214 34.2059 22.652 34.703 22.1584C35.2 21.6647 35.874 21.3871 36.5769 21.3866H37.3792C38.0309 21.3858 38.6557 21.1283 39.1166 20.6704C39.5774 20.2126 39.8365 19.5919 39.8371 18.9445V10.4562H40.0299V18.9445C40.0295 19.6428 39.7501 20.3125 39.2531 20.8064C38.7562 21.3004 38.0822 21.5783 37.3792 21.5792H36.5752C35.9239 21.5803 35.2996 21.8377 34.8391 22.2951C34.3786 22.7526 34.1194 23.3727 34.1184 24.0196V32.8156Z" fill="black"/>
<path d="M22.5263 41.6513H22.3335V30.2105C22.3345 29.2589 22.1247 28.3186 21.7189 27.4566C21.313 26.5945 20.7211 25.8318 19.9852 25.2225L10.5244 17.3742L10.6481 17.2273L20.1088 25.0751C20.8669 25.7026 21.4764 26.4882 21.8942 27.3762C22.312 28.2641 22.5279 29.2326 22.5263 30.2127V41.6513Z" fill="black"/>
<path d="M73.9038 57.3055C73.9038 65.0729 67.7196 71.3666 60.0978 71.3666C58.5799 71.3682 57.0727 71.1152 55.6396 70.6182C55.6291 70.6133 55.6182 70.6094 55.607 70.6065C53.0714 72.2304 50.0712 72.9872 47.0628 72.7617C44.0544 72.5362 41.2026 71.3408 38.941 69.3573C38.9264 69.3422 38.909 69.3305 38.8944 69.3154C36.1013 71.4861 32.442 72.8006 28.4374 72.8006C25.5274 72.8006 22.7991 72.1059 20.4541 70.8958C19.2948 71.209 18.0986 71.3673 16.8971 71.3666C9.27136 71.3666 3.09106 65.0729 3.09106 57.3055C3.09106 51.3397 6.73863 46.2411 11.8884 44.1989C13.3406 39.0735 17.9804 35.3286 23.4782 35.3286C24.4565 35.327 25.4311 35.4472 26.3792 35.6866H26.3826C29.6771 30.0575 35.7117 26.2886 42.6077 26.2886C52.4356 26.2886 60.5858 33.5427 61.4814 43.3132C68.4561 44.023 73.9038 50.0157 73.9038 57.3055Z" fill="white"/>
<path d="M73.9039 57.3028C73.9039 65.0713 67.7197 71.3649 60.0985 71.3649C58.5804 71.3664 57.073 71.1134 55.6396 70.6166C55.6297 70.6113 55.6191 70.6072 55.6082 70.6043C53.063 72.2338 50.0504 72.9897 47.0315 72.7563C44.0126 72.5229 41.154 71.3131 38.8933 69.3121C37.4567 70.4226 35.8435 71.2871 34.1202 71.8697C32.292 72.4882 30.3733 72.8018 28.442 72.7979C25.532 72.7979 22.8036 72.1037 20.4587 70.8924C19.2993 71.2066 18.1028 71.3654 16.9011 71.3649C9.27592 71.3649 3.09619 65.0713 3.09619 57.3028C3.09619 56.9286 3.11081 56.5595 3.13724 56.1948C3.68089 63.4546 9.6363 69.1697 16.9011 69.1697C18.0042 69.1604 19.1055 69.0789 20.1978 68.9256C20.9917 68.8144 21.8009 68.9369 22.5254 69.278C24.357 70.1296 26.0318 70.6043 28.4392 70.6043C31.8686 70.6043 35.7045 69.6399 38.4863 67.9953C38.8944 67.7572 39.3604 67.6346 39.8337 67.6407C40.307 67.6468 40.7696 67.7814 41.1714 68.0299C42.858 69.0636 45.7679 70.6043 48.1028 70.6043C50.428 70.6043 53.2553 70.0336 55.385 69.0217C56.1085 68.6694 56.9354 68.5873 57.7147 68.7905C58.418 68.9798 59.317 69.1697 60.0974 69.1697C67.3576 69.1697 73.3091 63.4613 73.8589 56.2071C73.8889 56.5705 73.9039 56.9357 73.9039 57.3028Z" fill="#E5E8FF"/>
<path d="M48.1038 72.8966C44.7116 72.8952 41.4361 71.6663 38.8899 69.4399C35.9906 71.6698 32.2829 72.8966 28.4402 72.8966C25.6292 72.8966 22.866 72.2405 20.4485 70.9979C19.2922 71.3067 18.1 71.4629 16.9027 71.4626C9.23708 71.4626 3 65.1114 3 57.3055C3 51.4419 6.45811 46.2724 11.8142 44.1263C13.3198 38.8864 18.1109 35.2314 23.4838 35.2314C24.4468 35.2301 25.4063 35.3456 26.341 35.5754C29.7547 29.7855 35.9811 26.1936 42.6094 26.1936C52.5042 26.1936 60.6404 33.5092 61.5714 43.2261C64.9536 43.5902 68.0794 45.2046 70.3805 47.7779C72.7213 50.4062 74.0095 53.7964 74.0006 57.3055C74.0006 65.1114 67.7641 71.4626 60.0979 71.4626C58.5732 71.4643 57.0591 71.2108 55.6193 70.7126C53.3763 72.1402 50.7678 72.8983 48.1038 72.8966ZM38.9034 69.1864L38.9635 69.2489C38.9687 69.2539 38.9741 69.2585 38.9798 69.2629C38.9905 69.2718 39.0006 69.2807 39.0102 69.2902C41.2562 71.258 44.0875 72.4436 47.0739 72.6666C50.0603 72.8897 53.0383 72.1381 55.5553 70.5261L55.5946 70.5004L55.639 70.516C55.6543 70.5202 55.6692 70.5258 55.6834 70.5328C57.1027 71.0234 58.5951 71.273 60.0979 71.271C67.6572 71.271 73.8077 65.0059 73.8077 57.3055C73.8077 50.0983 68.5045 44.1263 61.473 43.4087L61.3937 43.4003L61.3864 43.3216C60.5015 33.6661 52.4289 26.384 42.6089 26.384C36.0255 26.384 29.8424 29.967 26.4736 35.7346L26.4461 35.7821H26.3635C25.423 35.545 24.4564 35.4259 23.4861 35.4274C18.1851 35.4274 13.457 39.0461 11.9891 44.2274L11.9761 44.2732L11.9323 44.2905C6.62452 46.3952 3.19565 51.505 3.19565 57.3083C3.19565 65.0087 9.34558 71.2738 16.905 71.2738C18.0979 71.2742 19.2856 71.1168 20.4367 70.8058L20.4733 70.7958L20.5064 70.8137C22.9042 72.0528 25.6483 72.7079 28.4425 72.7079C32.2705 72.7079 35.9619 71.4793 38.837 69.2456L38.9034 69.1864Z" fill="black"/>
<path d="M11.9305 44.2872L11.8591 44.1096C13.4632 43.4726 15.1752 43.1465 16.9027 43.1491C17.0095 43.1491 17.1152 43.1491 17.2214 43.1524L17.2169 43.344C17.1124 43.344 17.0078 43.3406 16.9027 43.3406C15.1997 43.3382 13.512 43.6595 11.9305 44.2872Z" fill="black"/>
<path d="M56.4273 43.8443L56.375 43.6601C58.037 43.1934 59.7728 43.0431 61.491 43.2172L61.4714 43.4076C61.0143 43.3616 60.5551 43.3385 60.0957 43.3384C58.8552 43.3379 57.6207 43.5082 56.4273 43.8443Z" fill="black"/>
<path d="M29.7333 37.2162C28.6919 36.5641 27.5535 36.079 26.3601 35.7788L26.4079 35.5934C27.6198 35.8986 28.7758 36.3914 29.8334 37.0537L29.7333 37.2162Z" fill="black"/>
<path d="M20.4142 70.9807C18.864 70.1865 17.458 69.1411 16.2539 67.8875L16.3939 67.7557C17.5829 68.9935 18.971 70.0261 20.5013 70.811L20.4142 70.9807Z" fill="black"/>
<path d="M39 69.3561L38.8809 69.2053C40.0707 68.279 41.1089 67.175 41.9584 65.9329L42.118 66.0401C41.2576 67.299 40.2058 68.4176 39 69.3561Z" fill="black"/>
<path d="M55.6593 70.6869L55.5542 70.5255C56.61 69.8482 57.569 69.0324 58.4051 68.1002L58.5491 68.2281C57.7012 69.1728 56.7292 69.9998 55.6593 70.6869Z" fill="black"/>
<path d="M39.4475 51.8535L38.8409 53.1273C38.7724 53.2706 38.6579 53.3873 38.5155 53.4592C38.3731 53.531 38.2108 53.5539 38.0538 53.5244L37.4062 53.3998C37.2928 53.3762 37.1752 53.3808 37.064 53.4134C36.9529 53.4459 36.8516 53.5054 36.7692 53.5864C36.6299 53.7262 36.4834 53.8588 36.3301 53.9834C36.2411 54.0567 36.1717 54.1508 36.128 54.2571C36.0844 54.3635 36.0679 54.479 36.0799 54.5932L36.1424 55.2416C36.1577 55.4001 36.1193 55.5592 36.0333 55.6936C35.9472 55.8279 35.8184 55.9299 35.6673 55.9832L34.3298 56.4579C34.1795 56.5113 34.0156 56.5136 33.8638 56.4644C33.7121 56.4151 33.5811 56.3172 33.4916 56.1859L33.1211 55.6437C33.0574 55.5484 32.9713 55.4699 32.8702 55.4152C32.7691 55.3605 32.656 55.3312 32.5409 55.3298C32.342 55.3297 32.1433 55.3193 31.9455 55.2985C31.8303 55.2884 31.7143 55.3066 31.6077 55.3514C31.5012 55.3962 31.4073 55.4662 31.3344 55.5554L30.9167 56.058C30.8151 56.1815 30.6747 56.2675 30.518 56.3023C30.3614 56.3371 30.1975 56.3188 30.0526 56.2501L28.7702 55.6487C28.6253 55.5801 28.5075 55.4657 28.4351 55.3234C28.3628 55.1811 28.34 55.0189 28.3705 54.8624L28.4958 54.2241C28.5197 54.1114 28.515 53.9947 28.4822 53.8842C28.4495 53.7738 28.3896 53.6732 28.3081 53.5914C28.1682 53.4531 28.0357 53.3077 27.9111 53.1558C27.8372 53.0675 27.7426 52.9985 27.6355 52.9551C27.5284 52.9117 27.4123 52.8951 27.2972 52.9067L26.6389 52.9659C26.4801 52.9807 26.3209 52.9426 26.1863 52.8577C26.0516 52.7728 25.9492 52.6458 25.8951 52.4968L25.4167 51.1683C25.3619 51.0183 25.3592 50.8544 25.4089 50.7026C25.4586 50.5509 25.5579 50.42 25.691 50.3306L26.2397 49.9649C26.3359 49.9007 26.415 49.8143 26.47 49.713C26.5251 49.6117 26.5545 49.4986 26.5557 49.3835C26.5549 49.1877 26.5645 48.992 26.5843 48.7972C26.595 48.6826 26.577 48.5673 26.5319 48.4614C26.4867 48.3554 26.4159 48.2623 26.3257 48.1901L25.8198 47.773C25.6969 47.6712 25.6116 47.5318 25.5771 47.3767C25.5426 47.2216 25.5609 47.0595 25.6292 46.9158L26.2347 45.6448C26.303 45.5013 26.4174 45.3844 26.5598 45.3125C26.7023 45.2407 26.8648 45.2179 27.0217 45.2477L27.6694 45.3722C27.7829 45.3945 27.9002 45.3892 28.0112 45.3567C28.1222 45.3243 28.2237 45.2656 28.3069 45.1857C28.4445 45.0462 28.59 44.9145 28.7426 44.7915C28.8323 44.7177 28.9022 44.6229 28.946 44.5157C28.9897 44.4085 29.006 44.2922 28.9934 44.1772L28.9332 43.5266C28.9178 43.3679 28.9563 43.2087 29.0425 43.0742C29.1287 42.9397 29.2576 42.8377 29.4089 42.7844L30.7435 42.3097C30.8948 42.2559 31.0599 42.2537 31.2126 42.3035C31.3653 42.3532 31.497 42.4521 31.5868 42.5845L31.9551 43.1245C32.0185 43.2207 32.1048 43.2999 32.2064 43.3551C32.308 43.4102 32.4217 43.4396 32.5375 43.4406C32.7356 43.4398 32.9336 43.4493 33.1306 43.4691C33.2459 43.4794 33.362 43.4614 33.4685 43.4166C33.5751 43.3718 33.669 43.3016 33.7417 43.2122L34.1595 42.7096C34.2613 42.5865 34.4017 42.5007 34.5582 42.4659C34.7148 42.4311 34.8786 42.4492 35.0236 42.5175L36.306 43.1223C36.4505 43.19 36.5683 43.3036 36.6407 43.4452C36.7131 43.5867 36.7359 43.7482 36.7057 43.9041L36.5803 44.5424C36.5576 44.6551 36.5629 44.7716 36.5956 44.8818C36.6283 44.992 36.6875 45.0927 36.7681 45.1751C36.909 45.3151 37.0422 45.4605 37.1678 45.6113C37.2419 45.6995 37.3365 45.7683 37.4436 45.8117C37.5506 45.8551 37.6667 45.8718 37.7817 45.8603L38.4367 45.8006C38.596 45.7856 38.7558 45.8236 38.8911 45.9086C39.0263 45.9936 39.1293 46.1208 39.1839 46.2702L39.6617 47.5982C39.7158 47.7485 39.718 47.9124 39.6679 48.0641C39.6178 48.2158 39.5183 48.3466 39.3851 48.4359L38.8409 48.8033C38.744 48.8662 38.6642 48.952 38.6087 49.0529C38.5532 49.1538 38.5237 49.2668 38.5227 49.3819C38.5227 49.5762 38.512 49.7728 38.494 49.9705C38.4833 50.0847 38.5011 50.1998 38.5457 50.3057C38.5903 50.4115 38.6604 50.5049 38.7498 50.5775L39.2592 50.9952C39.3819 51.0973 39.467 51.237 39.501 51.3924C39.5351 51.5477 39.5163 51.7099 39.4475 51.8535Z" fill="white"/>
<path d="M34.0865 56.5952C33.9533 56.5953 33.8221 56.5628 33.7044 56.5007C33.5868 56.4386 33.4863 56.3487 33.4119 56.2389L33.0414 55.6972C32.9868 55.6147 32.9126 55.5467 32.8253 55.4993C32.7381 55.4519 32.6405 55.4265 32.541 55.4253C32.339 55.4251 32.1371 55.4146 31.9361 55.394C31.8366 55.3857 31.7366 55.4017 31.6448 55.4406C31.5529 55.4796 31.4721 55.5402 31.4093 55.6174L30.991 56.1199C30.8757 56.2598 30.7164 56.3571 30.5388 56.3965C30.3612 56.4359 30.1754 56.415 30.0111 56.3372L28.7287 55.7357C28.5644 55.6577 28.431 55.5274 28.3496 55.3656C28.2681 55.2038 28.2433 55.0196 28.279 54.8422L28.4044 54.2039C28.4251 54.1066 28.4211 54.0057 28.3929 53.9103C28.3646 53.8149 28.3129 53.7279 28.2424 53.6572C28.1001 53.5166 27.9654 53.3686 27.8388 53.2138C27.7747 53.1381 27.6929 53.0791 27.6006 53.0419C27.5083 53.0047 27.4083 52.9905 27.3092 53.0005L26.6469 53.0586C26.4668 53.0754 26.2862 53.0322 26.1336 52.9358C25.9809 52.8395 25.8648 52.6954 25.8036 52.5264L25.3257 51.1978C25.2638 51.0279 25.2606 50.8422 25.3168 50.6703C25.3731 50.4983 25.4854 50.3499 25.6361 50.2485L26.1853 49.8822C26.2689 49.827 26.3375 49.7524 26.3851 49.6647C26.4328 49.5771 26.458 49.4792 26.4586 49.3796C26.4577 49.1804 26.4675 48.9813 26.4878 48.7831C26.4969 48.6843 26.4811 48.5848 26.4418 48.4936C26.4025 48.4023 26.3411 48.3222 26.2629 48.2604L25.7569 47.8427C25.6174 47.7271 25.5205 47.5687 25.4815 47.3924C25.4424 47.2161 25.4634 47.032 25.5411 46.8688L26.1465 45.5978C26.2245 45.4351 26.3547 45.3027 26.5165 45.2214C26.6784 45.14 26.8629 45.1143 27.041 45.1482L27.6887 45.2728C27.7868 45.2922 27.8882 45.2876 27.9842 45.2595C28.0801 45.2314 28.1678 45.1806 28.2396 45.1114C28.3798 44.9698 28.5279 44.8361 28.6832 44.711C28.7597 44.6471 28.8193 44.5657 28.8568 44.4737C28.8944 44.3817 28.9087 44.282 28.8985 44.1833L28.8378 43.531C28.8204 43.3511 28.864 43.1706 28.9618 43.0182C29.0597 42.8658 29.206 42.7502 29.3775 42.69L30.7116 42.2153C30.8832 42.1548 31.0701 42.1525 31.2431 42.2089C31.4161 42.2653 31.5653 42.3772 31.6674 42.5269L32.0351 43.0664C32.0895 43.1498 32.1639 43.2185 32.2516 43.2664C32.3393 43.3144 32.4376 43.34 32.5377 43.3411C32.7389 43.3403 32.9401 43.35 33.1403 43.3702C33.2399 43.3788 33.34 43.3629 33.4319 43.3239C33.5237 43.285 33.6045 43.2241 33.6671 43.1468L34.0854 42.6442C34.2012 42.5049 34.3604 42.4079 34.5378 42.3685C34.7153 42.3292 34.9009 42.3497 35.0653 42.427L36.3472 43.0312C36.5112 43.1084 36.6448 43.2375 36.7268 43.3984C36.8089 43.5592 36.8347 43.7426 36.8003 43.9197L36.6749 44.558C36.6554 44.6553 36.6598 44.7558 36.6879 44.851C36.716 44.9462 36.7669 45.0333 36.8363 45.1047C36.9779 45.2454 37.1174 45.394 37.2422 45.547C37.3062 45.6232 37.3881 45.6826 37.4806 45.7201C37.5731 45.7576 37.6735 45.772 37.7729 45.762L38.4284 45.7022C38.6089 45.6854 38.7899 45.7285 38.943 45.8248C39.0961 45.9211 39.2127 46.0652 39.2745 46.2344L39.7524 47.563C39.8136 47.7333 39.8161 47.919 39.7594 48.0908C39.7027 48.2627 39.5901 48.411 39.4393 48.5123L38.8956 48.8781C38.8118 48.9323 38.7427 49.0062 38.6945 49.0933C38.6464 49.1804 38.6206 49.278 38.6196 49.3773C38.6196 49.5644 38.61 49.7682 38.5903 49.9749C38.581 50.0736 38.5963 50.1731 38.635 50.2646C38.6736 50.3561 38.7344 50.4367 38.8118 50.4992L39.3212 50.9164C39.4608 51.032 39.5578 51.1903 39.597 51.3666C39.6362 51.5429 39.6153 51.7271 39.5377 51.8903L38.9316 53.1636C38.854 53.3266 38.724 53.4593 38.562 53.5408C38.4 53.6223 38.2154 53.648 38.0371 53.6137L37.39 53.4897C37.292 53.4686 37.1903 53.4722 37.094 53.5002C36.9978 53.5282 36.9101 53.5797 36.8391 53.65C36.6979 53.7918 36.5492 53.9262 36.3938 54.0526C36.3172 54.1163 36.2575 54.1977 36.2198 54.2895C36.1821 54.3814 36.1675 54.481 36.1774 54.5798L36.2403 55.2281C36.258 55.4081 36.2144 55.5887 36.1166 55.7411C36.0187 55.8936 35.8723 56.0091 35.7006 56.0691L34.3643 56.5438C34.2754 56.5768 34.1814 56.5942 34.0865 56.5952ZM31.8771 55.1991C31.903 55.199 31.9289 55.2003 31.9547 55.203C32.1491 55.223 32.3444 55.2331 32.5399 55.2331C32.6709 55.2343 32.7996 55.2674 32.9146 55.3296C33.0297 55.3917 33.1277 55.4809 33.1999 55.5894L33.5704 56.1311C33.648 56.2449 33.7615 56.3299 33.893 56.3726C34.0244 56.4154 34.1665 56.4135 34.2968 56.3673L35.6337 55.8927C35.7647 55.8466 35.8764 55.7582 35.951 55.6417C36.0256 55.5252 36.0588 55.3873 36.0452 55.2499L35.9823 54.6015C35.9687 54.4714 35.9877 54.3399 36.0378 54.2189C36.0878 54.0979 36.1672 53.991 36.269 53.908C36.4192 53.7853 36.5628 53.6548 36.6991 53.5171C36.7929 53.4246 36.9082 53.3568 37.0349 53.3195C37.1616 53.2823 37.2956 53.2769 37.4249 53.3037L38.0714 53.4277C38.2075 53.4542 38.3486 53.4347 38.4723 53.3725C38.5961 53.3103 38.6954 53.2089 38.7545 53.0843L39.3606 51.8105C39.4198 51.6857 39.4358 51.5449 39.4059 51.4102C39.3759 51.2755 39.3019 51.1545 39.1953 51.0661L38.6859 50.6489C38.584 50.5666 38.5041 50.4604 38.4535 50.34C38.4029 50.2196 38.3831 50.0886 38.3958 49.9587C38.4144 49.7559 38.4239 49.5605 38.4239 49.3796C38.4249 49.2487 38.4584 49.1201 38.5214 49.0053C38.5845 48.8904 38.6752 48.7928 38.7854 48.7212L39.328 48.3559C39.4433 48.2785 39.5295 48.1652 39.573 48.0337C39.6164 47.9023 39.6147 47.7603 39.568 47.63L39.0901 46.302C39.0429 46.1727 38.9538 46.0627 38.8368 45.9892C38.7197 45.9157 38.5814 45.8829 38.4436 45.896L37.7875 45.9558C37.6568 45.9686 37.5249 45.9494 37.4033 45.8999C37.2818 45.8503 37.1743 45.7719 37.0904 45.6715C36.9667 45.5235 36.8346 45.3794 36.6968 45.2432C36.6046 45.1499 36.5369 45.0357 36.4994 44.9104C36.462 44.7851 36.456 44.6526 36.4821 44.5245L36.6075 43.8862C36.6337 43.751 36.6139 43.611 36.5514 43.4882C36.4888 43.3654 36.3869 43.2667 36.2617 43.2077L34.9793 42.6029C34.8535 42.544 34.7116 42.5285 34.5759 42.5589C34.4403 42.5892 34.3187 42.6637 34.2305 42.7704L33.8122 43.273C33.7294 43.3745 33.6228 43.4542 33.5017 43.5052C33.3807 43.5561 33.2488 43.5767 33.1179 43.5651C32.9242 43.5456 32.7295 43.5362 32.5349 43.5371C32.4032 43.5363 32.2738 43.5031 32.1582 43.4404C32.0426 43.3778 31.9445 43.2876 31.8726 43.1781L31.5043 42.6386C31.4265 42.5239 31.3124 42.4382 31.18 42.3951C31.0476 42.352 30.9046 42.354 30.7735 42.4007L29.4394 42.8754C29.3083 42.9213 29.1965 43.0095 29.1218 43.1259C29.0471 43.2423 29.0138 43.3802 29.0273 43.5176L29.0874 44.1693C29.1006 44.2995 29.0815 44.431 29.0317 44.5522C28.9819 44.6734 28.903 44.7807 28.8018 44.8646C28.6517 44.9853 28.5087 45.1145 28.3734 45.2516C28.2795 45.342 28.165 45.4085 28.0396 45.4454C27.9142 45.4824 27.7816 45.4887 27.6533 45.4638L27.0056 45.3392C26.8687 45.3127 26.7268 45.3326 26.6027 45.3957C26.4785 45.4588 26.3793 45.5614 26.3208 45.6871L25.7148 46.9582C25.6555 47.0829 25.6396 47.2237 25.6695 47.3584C25.6994 47.4931 25.7735 47.6141 25.8801 47.7026L26.386 48.1197C26.4887 48.2017 26.5691 48.3078 26.6202 48.4284C26.6712 48.549 26.6912 48.6803 26.6784 48.8105C26.6592 49.002 26.65 49.1944 26.6508 49.3868C26.6494 49.5169 26.616 49.6446 26.5536 49.759C26.4912 49.8733 26.4016 49.9708 26.2927 50.043L25.744 50.4088C25.6294 50.4861 25.5438 50.5991 25.5009 50.7301C25.4579 50.861 25.46 51.0023 25.5068 51.132L25.9846 52.4605C26.0308 52.59 26.1194 52.7003 26.2362 52.7739C26.353 52.8475 26.4913 52.8801 26.6289 52.8665L27.2878 52.8073C27.4185 52.7946 27.5503 52.8137 27.6718 52.8632C27.7933 52.9126 27.9008 52.9908 27.985 53.091C28.1074 53.2404 28.2376 53.3834 28.3751 53.5193C28.4681 53.6123 28.5364 53.7269 28.5738 53.8526C28.6111 53.9784 28.6165 54.1114 28.5893 54.2397L28.4645 54.8769C28.4378 55.0124 28.4573 55.1528 28.52 55.2761C28.5826 55.3993 28.6847 55.4984 28.8103 55.5576L30.0926 56.1596C30.2183 56.2186 30.3602 56.2342 30.4958 56.2038C30.6314 56.1735 30.7529 56.0989 30.8409 55.9921L31.2592 55.4895C31.3345 55.3991 31.4288 55.3262 31.5356 55.2761C31.6424 55.226 31.759 55.1999 31.8771 55.1996V55.1991Z" fill="#242B2B"/>
<path d="M32.5365 53.2474C34.6845 53.2474 36.4259 51.5177 36.4259 49.3841C36.4259 47.2504 34.6845 45.5208 32.5365 45.5208C30.3885 45.5208 28.6472 47.2504 28.6472 49.3841C28.6472 51.5177 30.3885 53.2474 32.5365 53.2474Z" fill="#C5CDE3"/>
<path d="M34.6563 51.4894C35.8272 50.3264 35.8272 48.4407 34.6563 47.2777C33.4855 46.1146 31.5871 46.1146 30.4162 47.2777C29.2453 48.4407 29.2453 50.3264 30.4162 51.4894C31.5871 52.6525 33.4855 52.6525 34.6563 51.4894Z" fill="white"/>
<path d="M32.5348 52.4599C32.0777 52.4595 31.6264 52.358 31.2136 52.1628C30.5309 51.8396 29.9921 51.2777 29.7002 50.5846C29.4084 49.8916 29.384 49.116 29.6317 48.4062C29.8795 47.6964 30.3819 47.1022 31.043 46.7373C31.7041 46.3723 32.4774 46.2623 33.215 46.4282C33.9527 46.594 34.6029 47.0242 35.0413 47.6363C35.4797 48.2485 35.6755 48.9997 35.5913 49.7463C35.5071 50.4929 35.1488 51.1824 34.5849 51.683C34.021 52.1837 33.2911 52.4603 32.5348 52.4599ZM32.5387 46.5002C31.8793 46.4998 31.2394 46.7225 30.7244 47.1316C30.2094 47.5406 29.8499 48.1117 29.7052 48.7507C29.5605 49.3898 29.6392 50.0587 29.9283 50.6475C30.2173 51.2362 30.6996 51.7096 31.2957 51.9897C31.6888 52.1736 32.1185 52.2675 32.5531 52.2644C32.9876 52.2612 33.4159 52.1612 33.8063 51.9716C34.1968 51.782 34.5393 51.5078 34.8087 51.1691C35.0781 50.8304 35.2675 50.4359 35.3629 50.0148C35.4582 49.5936 35.4571 49.1566 35.3597 48.736C35.2622 48.3153 35.0709 47.9218 34.7998 47.5844C34.5287 47.247 34.1848 46.9744 33.7934 46.7868C33.4021 46.5991 32.9733 46.5012 32.5387 46.5002Z" fill="#242B2B"/>
<path d="M53.2929 42.7364L52.6081 44.1794C52.5302 44.3414 52.4003 44.4732 52.2388 44.554C52.0774 44.6349 51.8934 44.6602 51.7159 44.6261L50.9851 44.4854C50.8567 44.4586 50.7237 44.4639 50.5979 44.5007C50.4721 44.5376 50.3575 44.6048 50.2643 44.6965C50.1067 44.8538 49.941 45.0029 49.7679 45.1432C49.6678 45.2264 49.5898 45.3328 49.5408 45.453C49.4918 45.5731 49.4732 45.7034 49.4868 45.8324L49.5576 46.5656C49.5747 46.7447 49.5311 46.9244 49.4338 47.0761C49.3364 47.2279 49.1909 47.343 49.0202 47.4033L47.5084 47.9399C47.3383 48.0003 47.1529 48.0029 46.9812 47.9472C46.8095 47.8915 46.6614 47.7807 46.56 47.6322L46.1406 47.0179C46.0688 46.9101 45.9715 46.8213 45.8572 46.7594C45.743 46.6975 45.6152 46.6643 45.485 46.6628C45.2597 46.6628 45.0345 46.651 44.8104 46.6276C44.6801 46.6164 44.5491 46.637 44.4286 46.6876C44.3082 46.7382 44.2021 46.8173 44.1194 46.918L43.6472 47.4842C43.5321 47.6237 43.3732 47.7208 43.1961 47.7602C43.0189 47.7996 42.8335 47.7789 42.6695 47.7015L41.2174 47.0274C41.0539 46.9496 40.9211 46.82 40.8397 46.6592C40.7583 46.4983 40.733 46.3151 40.7676 46.1384L40.9093 45.4169C40.9366 45.289 40.9314 45.1564 40.8942 45.031C40.857 44.9057 40.7889 44.7915 40.6962 44.6987C40.5377 44.5424 40.3876 44.378 40.2464 44.2062C40.1629 44.1063 40.0559 44.0284 39.935 43.9792C39.814 43.93 39.6827 43.9111 39.5527 43.9242L38.8083 43.9917C38.6284 44.0086 38.4479 43.9656 38.2952 43.8695C38.1426 43.7733 38.0264 43.6295 37.965 43.4607L37.4247 41.959C37.3635 41.7897 37.3607 41.605 37.4168 41.4339C37.4729 41.2628 37.5847 41.1152 37.7345 41.0141L38.3529 40.6009C38.4619 40.5285 38.5514 40.4308 38.6137 40.3163C38.6761 40.2017 38.7093 40.0738 38.7105 39.9436C38.7097 39.7222 38.7205 39.501 38.7431 39.2807C38.7553 39.1512 38.7349 39.0208 38.6839 38.901C38.6329 38.7812 38.5528 38.6759 38.4508 38.5944L37.8779 38.122C37.7387 38.0067 37.642 37.8488 37.6029 37.673C37.5638 37.4973 37.5846 37.3136 37.662 37.1508L38.3473 35.7134C38.4249 35.5512 38.5547 35.4193 38.7161 35.3384C38.8776 35.2575 39.0615 35.2323 39.239 35.2666L39.9698 35.4074C40.0992 35.4335 40.2331 35.4277 40.3597 35.3905C40.4864 35.3533 40.6019 35.2859 40.6962 35.194C40.852 35.0361 41.0166 34.887 41.1892 34.7473C41.2898 34.6637 41.368 34.5568 41.417 34.436C41.4661 34.3152 41.4844 34.1843 41.4703 34.0548L41.4023 33.3188C41.3852 33.1397 41.4288 32.96 41.5262 32.8082C41.6235 32.6565 41.7691 32.5414 41.9398 32.4811L43.451 31.9439C43.6218 31.8835 43.808 31.8813 43.9802 31.9377C44.1524 31.994 44.3009 32.1056 44.4022 32.255L44.8183 32.8648C44.8897 32.9734 44.987 33.0628 45.1016 33.1253C45.2161 33.1877 45.3443 33.2212 45.4749 33.2227C45.6987 33.2218 45.9224 33.2326 46.1451 33.2551C46.2754 33.2667 46.4066 33.2463 46.527 33.1957C46.6475 33.145 46.7536 33.0657 46.836 32.9647L47.3088 32.3985C47.4241 32.2593 47.5829 32.1623 47.7601 32.1229C47.9372 32.0836 48.1225 32.1041 48.2865 32.1813L49.7364 32.8648C49.8999 32.9419 50.0328 33.0708 50.1143 33.2313C50.1957 33.3918 50.221 33.5747 50.1862 33.751L50.0445 34.4725C50.019 34.6001 50.025 34.7319 50.0621 34.8566C50.0992 34.9813 50.1663 35.0952 50.2576 35.1885C50.4167 35.3465 50.5673 35.5112 50.7073 35.681C50.7913 35.7803 50.8985 35.8577 51.0195 35.9064C51.1406 35.9551 51.2718 35.9735 51.4016 35.9602L52.1426 35.8927C52.3225 35.8761 52.5029 35.9192 52.6555 36.0153C52.8081 36.1114 52.9243 36.255 52.9859 36.4237L53.5262 37.9254C53.587 38.0951 53.5892 38.28 53.5325 38.4511C53.4758 38.6221 53.3634 38.7696 53.2131 38.8703L52.5991 39.2835C52.4895 39.3547 52.3992 39.4517 52.3364 39.5659C52.2735 39.6801 52.24 39.8079 52.2388 39.938C52.2388 40.158 52.227 40.3808 52.2062 40.6037C52.1941 40.7329 52.2142 40.863 52.2647 40.9827C52.3152 41.1024 52.3945 41.2079 52.4957 41.29L53.0714 41.7624C53.2123 41.877 53.3107 42.0351 53.3508 42.2115C53.3909 42.388 53.3706 42.5727 53.2929 42.7364Z" fill="white"/>
<path d="M47.2308 48.0885C47.082 48.089 46.9353 48.053 46.8038 47.9837C46.6723 47.9145 46.56 47.8141 46.4769 47.6915L46.0575 47.0772C45.9946 46.9822 45.9093 46.9041 45.8089 46.8495C45.7085 46.795 45.5962 46.7658 45.4818 46.7645C45.2536 46.7642 45.0256 46.7523 44.7987 46.7287C44.6843 46.7191 44.5692 46.7374 44.4635 46.782C44.3578 46.8266 44.2647 46.8961 44.1921 46.9845L43.7193 47.5507C43.5907 47.7068 43.4131 47.8155 43.215 47.8595C43.0169 47.9036 42.8097 47.8804 42.6264 47.7937L41.1759 47.1129C40.9926 47.0265 40.8434 46.882 40.7518 46.7022C40.6602 46.5223 40.6314 46.3173 40.6699 46.1195L40.8116 45.3974C40.8358 45.2854 40.8315 45.1692 40.7991 45.0594C40.7667 44.9495 40.7072 44.8493 40.6261 44.768C40.4655 44.6084 40.3133 44.4406 40.1701 44.2654C40.0967 44.1776 40.0027 44.1091 39.8963 44.0661C39.7898 44.023 39.6744 44.0067 39.5601 44.0186L38.8158 44.0862C38.6148 44.1052 38.4131 44.0572 38.2427 43.9497C38.0722 43.8422 37.9427 43.6813 37.8746 43.4925L37.3338 41.9898C37.2655 41.8005 37.2625 41.594 37.3253 41.4028C37.3881 41.2116 37.5131 41.0466 37.6807 40.9338L38.2991 40.52C38.3951 40.4566 38.474 40.3709 38.5288 40.2702C38.5836 40.1695 38.6126 40.057 38.6134 39.9425C38.6128 39.7187 38.6239 39.4951 38.6465 39.2724C38.6573 39.1588 38.6395 39.0442 38.5947 38.9391C38.5498 38.8341 38.4793 38.7417 38.3896 38.6704L37.8156 38.1974C37.6601 38.0685 37.552 37.892 37.5083 37.6955C37.4647 37.499 37.4879 37.2937 37.5744 37.1118L38.2597 35.6744C38.3462 35.4925 38.4912 35.3444 38.6717 35.2534C38.8523 35.1624 39.0583 35.1337 39.2571 35.1718L39.988 35.3125C40.101 35.335 40.2178 35.3299 40.3284 35.2976C40.4389 35.2653 40.5399 35.2068 40.6227 35.1271C40.7808 34.9673 40.9476 34.8163 41.1225 34.6747C41.2109 34.6014 41.2798 34.5075 41.3232 34.4015C41.3665 34.2954 41.3829 34.1804 41.371 34.0666L41.3029 33.3295C41.2834 33.1289 41.3319 32.9276 41.4408 32.7576C41.5497 32.5876 41.7127 32.4586 41.9039 32.3913L43.4129 31.8546C43.604 31.7876 43.812 31.7855 44.0045 31.8484C44.1969 31.9114 44.3629 32.0359 44.4766 32.2025L44.8926 32.8123C44.9554 32.9084 45.0411 32.9876 45.1421 33.0427C45.2432 33.0979 45.3564 33.1273 45.4717 33.1284C45.6988 33.1275 45.9259 33.1383 46.1519 33.1608C46.2664 33.1706 46.3815 33.1524 46.4872 33.1078C46.593 33.0632 46.6861 32.9936 46.7586 32.905L47.2314 32.3388C47.3603 32.1832 47.5379 32.0749 47.7358 32.0309C47.9338 31.9869 48.1409 32.0097 48.3243 32.0959L49.7748 32.7794C49.9579 32.8653 50.107 33.0093 50.1986 33.1886C50.2902 33.368 50.3191 33.5726 50.2808 33.7701L50.1413 34.491C50.1189 34.6031 50.1241 34.719 50.1565 34.8287C50.1889 34.9384 50.2476 35.0386 50.3274 35.1209C50.4877 35.2795 50.6417 35.4476 50.7856 35.6202C50.8596 35.7076 50.9539 35.7759 51.0604 35.819C51.1669 35.8621 51.2823 35.8787 51.3967 35.8676L52.1377 35.8C52.3391 35.7809 52.5411 35.8288 52.712 35.9363C52.8829 36.0438 53.0129 36.2047 53.0817 36.3936L53.6225 37.8958C53.6898 38.0856 53.692 38.2923 53.6286 38.4834C53.5652 38.6746 53.4399 38.8395 53.2722 38.9524L52.6583 39.3657C52.5617 39.4281 52.4821 39.5133 52.4266 39.6136C52.3711 39.714 52.3414 39.8264 52.3401 39.9409C52.3401 40.1531 52.3294 40.3798 52.3075 40.6154C52.2967 40.7291 52.3143 40.8437 52.3587 40.949C52.4031 41.0543 52.473 41.1471 52.5622 41.2191L53.1379 41.6916C53.2937 41.8202 53.402 41.9968 53.4457 42.1933C53.4894 42.3899 53.4659 42.5953 53.3791 42.7772L52.6943 44.218C52.6079 44.4 52.4628 44.5483 52.2821 44.6393C52.1014 44.7303 51.8953 44.7589 51.6964 44.7206L50.9655 44.5798C50.8527 44.556 50.7356 44.5604 50.6249 44.5926C50.5142 44.6249 50.4133 44.684 50.3314 44.7647C50.1718 44.9248 50.004 45.0768 49.8287 45.2198C49.7404 45.2931 49.6716 45.3867 49.6282 45.4925C49.5847 45.5984 49.5681 45.7131 49.5797 45.8268L49.6505 46.5595C49.6703 46.7602 49.6218 46.9618 49.5128 47.1319C49.4037 47.3021 49.2404 47.4311 49.049 47.4982L47.5372 48.0343C47.439 48.0697 47.3353 48.0881 47.2308 48.0885ZM44.7318 46.5349C44.7608 46.535 44.7897 46.5366 44.8184 46.54C45.0388 46.5629 45.2602 46.5744 45.4818 46.5746C45.6278 46.5758 45.7712 46.6126 45.8995 46.6817C46.0278 46.7508 46.1371 46.8502 46.2177 46.9711L46.6366 47.5854C46.726 47.7162 46.8566 47.8138 47.0079 47.863C47.1592 47.9121 47.3226 47.9099 47.4726 47.8568L48.9843 47.3201C49.1352 47.2674 49.264 47.1658 49.3499 47.0318C49.4358 46.8977 49.474 46.7389 49.4583 46.5807L49.3874 45.8469C49.3721 45.7018 49.3933 45.5552 49.449 45.4203C49.5047 45.2853 49.5933 45.1661 49.7067 45.0735C49.8769 44.935 50.0398 44.788 50.1947 44.6329C50.299 44.5297 50.4276 44.454 50.5687 44.4124C50.7098 44.3709 50.8591 44.3649 51.0032 44.395L51.7341 44.5352C51.8909 44.5662 52.0536 44.5442 52.1963 44.4725C52.339 44.4008 52.4534 44.2837 52.5211 44.1398L53.2065 42.6996C53.2748 42.556 53.2932 42.394 53.2589 42.239C53.2245 42.0839 53.1392 41.9446 53.0164 41.8429L52.4407 41.371C52.3271 41.279 52.2381 41.1606 52.1816 41.0263C52.1252 40.892 52.1029 40.7458 52.1169 40.6009C52.1383 40.372 52.149 40.1508 52.149 39.9448C52.15 39.7988 52.1873 39.6554 52.2577 39.5273C52.328 39.3992 52.4291 39.2903 52.552 39.2104L53.166 38.7972C53.2983 38.7082 53.3971 38.5781 53.4471 38.4273C53.497 38.2766 53.4952 38.1136 53.442 37.964L52.9017 36.4623C52.8475 36.3134 52.7449 36.1867 52.6101 36.1021C52.4753 36.0174 52.3161 35.9797 52.1574 35.9949L51.4158 36.0619C51.27 36.0766 51.1228 36.0555 50.9871 36.0004C50.8514 35.9453 50.7314 35.8579 50.6378 35.7458C50.4983 35.5783 50.3488 35.4147 50.1925 35.26C50.0905 35.1554 50.0155 35.0278 49.9739 34.8882C49.9323 34.7485 49.9253 34.601 49.9536 34.4581L50.0952 33.7366C50.1259 33.5808 50.1033 33.4193 50.0311 33.2777C49.9589 33.136 49.8412 33.0224 49.6966 32.9547L48.2467 32.2712C48.1021 32.203 47.9388 32.1848 47.7826 32.2195C47.6264 32.2542 47.4864 32.3398 47.3848 32.4628L46.912 33.0285C46.82 33.142 46.701 33.2311 46.5659 33.2878C46.4307 33.3445 46.2834 33.3671 46.1373 33.3535C45.9179 33.3312 45.6973 33.3205 45.4767 33.3216C45.3299 33.3207 45.1856 33.2836 45.0567 33.2137C44.9278 33.1439 44.8183 33.0434 44.738 32.9212L44.3214 32.3114C44.2319 32.1799 44.1009 32.0817 43.9491 32.0321C43.7973 31.9824 43.6333 31.9843 43.4826 32.0372L41.9742 32.5739C41.8232 32.6268 41.6945 32.7284 41.6085 32.8626C41.5225 32.9967 41.4842 33.1556 41.4997 33.3138L41.5677 34.0498C41.5836 34.1953 41.5628 34.3423 41.5072 34.4778C41.4515 34.6132 41.3628 34.7327 41.249 34.8255C41.0789 34.9625 40.917 35.1091 40.7638 35.2645C40.6587 35.3662 40.5303 35.441 40.3897 35.4824C40.2491 35.5239 40.1004 35.5307 39.9565 35.5024L39.2256 35.3616C39.0688 35.3314 38.9064 35.3538 38.7639 35.4254C38.6213 35.497 38.5069 35.6136 38.4385 35.757L37.7532 37.1944C37.685 37.338 37.6667 37.5001 37.7012 37.6551C37.7357 37.8101 37.821 37.9494 37.9438 38.0511L38.5161 38.523C38.6307 38.6143 38.7206 38.7325 38.7777 38.8669C38.8348 39.0014 38.8574 39.1478 38.8433 39.2931C38.821 39.5101 38.8103 39.7282 38.8113 39.9464C38.8102 40.0923 38.7733 40.2357 38.7036 40.3641C38.6339 40.4925 38.5336 40.602 38.4115 40.683L37.7931 41.0968C37.6612 41.1858 37.5628 41.3159 37.5133 41.4665C37.4638 41.6171 37.4662 41.7797 37.5199 41.9289L38.0607 43.4317C38.1145 43.5803 38.2165 43.707 38.3508 43.7916C38.4851 43.8763 38.644 43.9141 38.8023 43.8991L39.5466 43.8315C39.6925 43.8173 39.8396 43.8388 39.9752 43.894C40.1108 43.9492 40.2308 44.0364 40.3247 44.1482C40.4634 44.3176 40.6109 44.4798 40.7666 44.634C40.8704 44.7375 40.9465 44.8651 40.9882 45.0052C41.03 45.1453 41.0359 45.2935 41.0055 45.4365L40.8644 46.1574C40.8343 46.3131 40.8571 46.4743 40.9291 46.6158C41.0012 46.7573 41.1184 46.871 41.2625 46.9392L42.7129 47.6194C42.8573 47.6879 43.0207 47.7063 43.1768 47.6716C43.3329 47.637 43.4729 47.5514 43.5742 47.4284L44.0471 46.8616C44.1299 46.7602 44.2341 46.678 44.3525 46.6211C44.4708 46.5642 44.6003 46.5338 44.7318 46.5321V46.5349Z" fill="#242B2B"/>
<path d="M45.4778 44.3128C47.9071 44.3128 49.8764 42.3567 49.8764 39.9436C49.8764 37.5305 47.9071 35.5743 45.4778 35.5743C43.0485 35.5743 41.0791 37.5305 41.0791 39.9436C41.0791 42.3567 43.0485 44.3128 45.4778 44.3128Z" fill="#C5CDE3"/>
<path d="M48.5599 41.3628C49.3463 39.6747 48.606 37.673 46.9065 36.8919C45.207 36.1108 43.1919 36.8461 42.4055 38.5342C41.6192 40.2223 42.3594 42.224 44.0589 43.0051C45.7584 43.7862 47.7736 43.0509 48.5599 41.3628Z" fill="white"/>
<path d="M45.4749 43.4076C44.7201 43.4063 43.9861 43.1616 43.3833 42.7104C42.7804 42.2591 42.3414 41.6257 42.132 40.9053C41.9227 40.185 41.9545 39.4166 42.2226 38.7157C42.4906 38.0148 42.9805 37.4192 43.6186 37.0186C44.2566 36.618 45.0083 36.4339 45.7607 36.4941C46.5131 36.5542 47.2255 36.8554 47.7908 37.3522C48.3561 37.8491 48.7438 38.5148 48.8955 39.2493C49.0473 39.9837 48.9549 40.7473 48.6322 41.4251C48.3514 42.0205 47.9048 42.5235 47.3453 42.8748C46.7858 43.2261 46.1368 43.411 45.4749 43.4076ZM45.4856 36.6717C44.6747 36.6708 43.892 36.9671 43.2874 37.5038C42.6828 38.0405 42.2987 38.7798 42.2086 39.5803C42.1186 40.3807 42.3289 41.186 42.7994 41.842C43.2699 42.498 43.9675 42.9586 44.7585 43.1355C45.5496 43.3125 46.3785 43.1934 47.0867 42.8011C47.7949 42.4087 48.3325 41.7707 48.5965 41.0092C48.8606 40.2477 48.8327 39.4161 48.518 38.6738C48.2033 37.9315 47.624 37.3306 46.8911 36.9861C46.4509 36.7794 45.9702 36.672 45.4833 36.6717H45.4856Z" fill="#242B2B"/>
<path d="M55.0741 65.088V100.068C55.0738 100.581 54.8685 101.072 54.5034 101.435C54.1383 101.797 53.6433 102.001 53.1272 102H27.8887C27.6333 102.001 27.3804 101.951 27.1443 101.854C26.9083 101.756 26.6939 101.614 26.5133 101.435C26.3327 101.255 26.1895 101.042 26.0918 100.808C25.9941 100.573 25.9439 100.322 25.9441 100.068V65.088H55.0741Z" fill="black"/>
<path d="M56.2968 50.5082H24.6679C23.606 50.5082 22.7451 51.3633 22.7451 52.4181V63.0776C22.7451 64.1324 23.606 64.9875 24.6679 64.9875H56.2968C57.3587 64.9875 58.2195 64.1324 58.2195 63.0776V52.4181C58.2195 51.3633 57.3587 50.5082 56.2968 50.5082Z" fill="white"/>
<path d="M56.2968 65.0835H24.6679C24.1327 65.0823 23.6199 64.8707 23.2414 64.4949C22.863 64.1191 22.6498 63.6097 22.6484 63.0781V52.418C22.6496 51.8864 22.8628 51.3769 23.2412 51.0009C23.6197 50.625 24.1327 50.4133 24.6679 50.4121H56.2968C56.832 50.4133 57.345 50.625 57.7235 51.0009C58.1019 51.3769 58.3151 51.8864 58.3162 52.418V63.0781C58.3149 63.6097 58.1017 64.1191 57.7233 64.4949C57.3448 64.8707 56.8319 65.0823 56.2968 65.0835ZM24.6679 50.6042C24.1838 50.6048 23.7196 50.7961 23.3773 51.1361C23.035 51.4762 22.8424 51.9372 22.8418 52.418V63.0781C22.8424 63.559 23.035 64.02 23.3773 64.36C23.7196 64.7001 24.1838 64.8914 24.6679 64.8919H56.2968C56.781 64.8915 57.2453 64.7003 57.5877 64.3602C57.9302 64.0202 58.1228 63.5591 58.1234 63.0781V52.418C58.1228 51.9371 57.9302 51.476 57.5877 51.1359C57.2453 50.7959 56.781 50.6047 56.2968 50.6042H24.6679Z" fill="black"/>
<path d="M35.6533 64.9881C35.8604 64.418 36.2393 63.9251 36.7385 63.5767C37.2377 63.2282 37.8328 63.0411 38.443 63.0408H43.6282C44.2382 63.0411 44.8333 63.2283 45.3324 63.5767C45.8315 63.9252 46.2103 64.418 46.4172 64.9881H35.6533Z" fill="#161C1C"/>
<path d="M46.555 65.0835H35.5161L35.5622 64.9551C35.7771 64.3671 36.1687 63.859 36.6839 63.4994C37.1992 63.1398 37.8132 62.9462 38.4429 62.9447H43.6276C44.2573 62.9461 44.8714 63.1397 45.3866 63.4993C45.9019 63.8589 46.2935 64.3671 46.5083 64.9551L46.555 65.0835ZM35.7944 64.892H46.2761C46.0576 64.373 45.6897 63.9296 45.2185 63.6174C44.7474 63.3051 44.1939 63.138 43.6276 63.1368H38.4429C37.8766 63.138 37.3231 63.3051 36.852 63.6174C36.3809 63.9296 36.013 64.373 35.7944 64.892Z" fill="black"/>
<path d="M54.2796 54.2129H54.8317C54.9301 54.2129 55.0244 54.2517 55.094 54.3208C55.1636 54.39 55.2027 54.4837 55.2027 54.5815V55.1299C55.2027 55.2278 55.1636 55.3216 55.0939 55.3909C55.0242 55.4601 54.9297 55.499 54.8311 55.499H54.279C54.2303 55.499 54.182 55.4894 54.137 55.4709C54.092 55.4524 54.0511 55.4253 54.0166 55.391C53.9822 55.3568 53.9549 55.3162 53.9362 55.2715C53.9176 55.2267 53.908 55.1788 53.908 55.1304V54.582C53.908 54.4841 53.9471 54.3902 54.0168 54.321C54.0865 54.2518 54.181 54.2129 54.2796 54.2129Z" fill="#242B2B"/>
<path d="M50.605 54.2129H51.1571C51.2058 54.2129 51.2541 54.2224 51.2991 54.2409C51.3441 54.2595 51.385 54.2866 51.4195 54.3208C51.4539 54.3551 51.4813 54.3957 51.4999 54.4404C51.5186 54.4851 51.5281 54.5331 51.5281 54.5815V55.1299C51.5281 55.2278 51.489 55.3216 51.4193 55.3909C51.3496 55.4601 51.2551 55.499 51.1565 55.499H50.6045C50.506 55.499 50.4117 55.4602 50.3421 55.391C50.2725 55.3219 50.2334 55.2282 50.2334 55.1304V54.582C50.2334 54.4841 50.2725 54.3902 50.3422 54.321C50.4119 54.2518 50.5065 54.2129 50.605 54.2129Z" fill="#242B2B"/>
<path d="M46.9306 54.2129H47.4827C47.5811 54.2129 47.6755 54.2517 47.7451 54.3208C47.8147 54.39 47.8538 54.4837 47.8538 54.5815V55.1299C47.8538 55.2278 47.8146 55.3216 47.7449 55.3909C47.6752 55.4601 47.5807 55.499 47.4821 55.499H46.9306C46.8322 55.499 46.7378 55.4602 46.6682 55.391C46.5987 55.3219 46.5596 55.2282 46.5596 55.1304V54.582C46.5596 54.4842 46.5986 54.3904 46.6682 54.3212C46.7378 54.252 46.8322 54.213 46.9306 54.2129Z" fill="#242B2B"/>
<path d="M43.2536 54.2129H43.8057C43.9041 54.2129 43.9985 54.2517 44.0681 54.3208C44.1377 54.39 44.1768 54.4837 44.1768 54.5815V55.1299C44.1768 55.2278 44.1376 55.3216 44.0679 55.3909C43.9982 55.4601 43.9037 55.499 43.8051 55.499H43.2536C43.1552 55.499 43.0608 55.4602 42.9912 55.391C42.9217 55.3219 42.8826 55.2282 42.8826 55.1304V54.582C42.8826 54.4842 42.9216 54.3904 42.9912 54.3212C43.0608 54.252 43.1552 54.213 43.2536 54.2129Z" fill="#242B2B"/>
<path d="M52.2151 55.8643H52.7672C52.8656 55.8643 52.96 55.9031 53.0296 55.9722C53.0992 56.0413 53.1383 56.1351 53.1383 56.2328V56.7812C53.1383 56.8791 53.0991 56.973 53.0294 57.0422C52.9597 57.1115 52.8652 57.1503 52.7666 57.1503H52.2151C52.1166 57.1503 52.022 57.1115 51.9524 57.0422C51.8827 56.973 51.8435 56.8791 51.8435 56.7812V56.2328C51.8435 56.1844 51.8531 56.1364 51.8718 56.0917C51.8905 56.0469 51.9179 56.0062 51.9524 55.972C51.9869 55.9378 52.0279 55.9106 52.073 55.8922C52.118 55.8737 52.1663 55.8642 52.2151 55.8643Z" fill="#242B2B"/>
<path d="M49.0921 55.8643H48.5406C48.3353 55.8643 48.1689 56.0295 48.1689 56.2334V56.7812C48.1689 56.9851 48.3353 57.1503 48.5406 57.1503H49.0921C49.2973 57.1503 49.4637 56.9851 49.4637 56.7812V56.2334C49.4637 56.0295 49.2973 55.8643 49.0921 55.8643Z" fill="#242B2B"/>
<path d="M44.866 55.8643H45.4181C45.5165 55.8643 45.6109 55.9031 45.6805 55.9722C45.75 56.0413 45.7891 56.1351 45.7891 56.2328V56.7812C45.7891 56.8791 45.75 56.973 45.6803 57.0422C45.6106 57.1115 45.5161 57.1503 45.4175 57.1503H44.8654C44.767 57.1503 44.6727 57.1115 44.6031 57.0424C44.5335 56.9733 44.4944 56.8795 44.4944 56.7818V56.2334C44.4944 56.1356 44.5335 56.0419 44.6031 55.9728C44.6727 55.9036 44.767 55.8648 44.8654 55.8648L44.866 55.8643Z" fill="#242B2B"/>
<path d="M41.1914 55.8643H41.7435C41.8421 55.8643 41.9366 55.9031 42.0063 55.9724C42.076 56.0416 42.1151 56.1355 42.1151 56.2334V56.7818C42.1151 56.8797 42.076 56.9736 42.0063 57.0428C41.9366 57.112 41.8421 57.1509 41.7435 57.1509H41.1914C41.0929 57.1509 40.9984 57.112 40.9287 57.0428C40.859 56.9736 40.8198 56.8797 40.8198 56.7818V56.2334C40.8198 56.1849 40.8293 56.1369 40.848 56.092C40.8666 56.0472 40.894 56.0065 40.9285 55.9722C40.963 55.9379 41.004 55.9107 41.0491 55.8922C41.0943 55.8737 41.1426 55.8642 41.1914 55.8643Z" fill="#242B2B"/>
<path d="M54.2797 57.3558H54.8317C54.9301 57.3558 55.0245 57.3947 55.0941 57.4638C55.1637 57.5329 55.2028 57.6267 55.2028 57.7244V58.2728C55.2028 58.3707 55.1636 58.4646 55.094 58.5338C55.0243 58.603 54.9297 58.6419 54.8312 58.6419H54.2791C54.1805 58.6419 54.086 58.603 54.0163 58.5338C53.9466 58.4646 53.9075 58.3707 53.9075 58.2728V57.7272C53.9072 57.6785 53.9166 57.6302 53.9352 57.5851C53.9537 57.54 53.9811 57.4991 54.0157 57.4645C54.0503 57.43 54.0915 57.4026 54.1368 57.384C54.182 57.3653 54.2306 57.3558 54.2797 57.3558Z" fill="#242B2B"/>
<path d="M50.605 57.3558H51.1571C51.2058 57.3558 51.2541 57.3654 51.2991 57.3839C51.3441 57.4024 51.385 57.4296 51.4195 57.4638C51.4539 57.498 51.4813 57.5386 51.4999 57.5834C51.5186 57.6281 51.5282 57.676 51.5282 57.7244V58.2728C51.5282 58.3707 51.489 58.4646 51.4193 58.5338C51.3496 58.603 51.2551 58.6419 51.1565 58.6419H50.6045C50.506 58.6419 50.4117 58.6031 50.3421 58.534C50.2725 58.4649 50.2334 58.3711 50.2334 58.2734V57.7272C50.2331 57.6785 50.2425 57.6303 50.261 57.5853C50.2796 57.5402 50.3069 57.4993 50.3415 57.4647C50.376 57.4302 50.4171 57.4028 50.4623 57.3841C50.5075 57.3655 50.556 57.3558 50.605 57.3558Z" fill="#242B2B"/>
<path d="M46.9306 57.3558H47.4827C47.5813 57.3558 47.6758 57.3947 47.7455 57.464C47.8152 57.5332 47.8543 57.6271 47.8543 57.725V58.2734C47.8543 58.3713 47.8152 58.4651 47.7455 58.5344C47.6758 58.6036 47.5813 58.6425 47.4827 58.6425H46.9306C46.8322 58.6425 46.7378 58.6037 46.6683 58.5345C46.5987 58.4654 46.5596 58.3717 46.5596 58.2739V57.7272C46.5593 57.6786 46.5687 57.6304 46.5872 57.5854C46.6057 57.5404 46.6329 57.4994 46.6674 57.4649C46.7019 57.4304 46.7429 57.403 46.7881 57.3843C46.8332 57.3656 46.8817 57.3559 46.9306 57.3558Z" fill="#242B2B"/>
<path d="M43.2536 57.3558H43.8057C43.9041 57.3558 43.9985 57.3947 44.0681 57.4638C44.1377 57.5329 44.1768 57.6267 44.1768 57.7244V58.2728C44.1768 58.3707 44.1376 58.4646 44.0679 58.5338C43.9982 58.603 43.9037 58.6419 43.8051 58.6419H43.2536C43.1552 58.6419 43.0608 58.6031 42.9912 58.534C42.9217 58.4649 42.8826 58.3711 42.8826 58.2734V57.7272C42.8826 57.6293 42.9217 57.5354 42.9914 57.4662C43.0611 57.397 43.1556 57.3581 43.2542 57.3581L43.2536 57.3558Z" fill="#242B2B"/>
<path d="M52.2151 59.0072H52.7672C52.8656 59.0072 52.96 59.046 53.0296 59.1151C53.0992 59.1842 53.1383 59.278 53.1383 59.3757V59.9241C53.1383 60.022 53.0991 60.1159 53.0294 60.1851C52.9597 60.2543 52.8652 60.2932 52.7666 60.2932H52.2151C52.1166 60.2932 52.022 60.2543 51.9524 60.1851C51.8827 60.1159 51.8435 60.022 51.8435 59.9241V59.3757C51.8435 59.2778 51.8827 59.1839 51.9524 59.1147C52.022 59.0455 52.1166 59.0066 52.2151 59.0066V59.0072Z" fill="#242B2B"/>
<path d="M48.5383 59.0071H49.0904C49.1888 59.0071 49.2832 59.0459 49.3527 59.115C49.4223 59.1842 49.4614 59.2779 49.4614 59.3757V59.924C49.4614 60.0219 49.4223 60.1158 49.3526 60.1851C49.2829 60.2543 49.1884 60.2932 49.0898 60.2932H48.5383C48.4399 60.2932 48.3455 60.2543 48.2759 60.1852C48.2063 60.1161 48.1672 60.0224 48.1672 59.9246V59.3762C48.1672 59.2784 48.2063 59.1846 48.2759 59.1154C48.3454 59.0462 48.4398 59.0072 48.5383 59.0071Z" fill="#242B2B"/>
<path d="M44.866 59.0071H45.4181C45.5165 59.0071 45.6109 59.0459 45.6805 59.115C45.75 59.1842 45.7891 59.2779 45.7891 59.3757V59.924C45.7891 60.0219 45.75 60.1158 45.6803 60.1851C45.6106 60.2543 45.5161 60.2932 45.4175 60.2932H44.8654C44.767 60.2932 44.6727 60.2543 44.6031 60.1852C44.5335 60.1161 44.4944 60.0224 44.4944 59.9246V59.3762C44.4944 59.2783 44.5335 59.1844 44.6032 59.1152C44.6729 59.046 44.7674 59.0071 44.866 59.0071Z" fill="#242B2B"/>
<path d="M41.1914 59.0071H41.7435C41.8419 59.0071 41.9363 59.0459 42.0059 59.115C42.0755 59.1842 42.1146 59.2779 42.1146 59.3757V59.924C42.1146 59.9725 42.105 60.0205 42.0863 60.0653C42.0676 60.1101 42.0402 60.1508 42.0057 60.1851C41.9712 60.2193 41.9303 60.2465 41.8852 60.2651C41.8401 60.2836 41.7918 60.2932 41.743 60.2932H41.1909C41.0925 60.2932 40.9981 60.2543 40.9285 60.1852C40.8589 60.1161 40.8198 60.0224 40.8198 59.9246V59.3762C40.8198 59.2783 40.859 59.1844 40.9287 59.1152C40.9984 59.046 41.0929 59.0071 41.1914 59.0071Z" fill="#242B2B"/>
<path d="M35.2253 56.9761C35.2258 57.3612 35.3606 57.7342 35.6068 58.0316C35.853 58.329 36.1954 58.5325 36.5757 58.6073C36.9559 58.6821 37.3506 58.6236 37.6923 58.4419C38.0341 58.2601 38.3018 57.9663 38.45 57.6105C38.5981 57.2546 38.6175 56.8588 38.5048 56.4903C38.3921 56.1219 38.1543 55.8037 37.8319 55.5898C37.5095 55.376 37.1225 55.2798 36.7367 55.3176C36.3509 55.3554 35.9903 55.5249 35.7162 55.7972C35.5604 55.952 35.4368 56.1358 35.3526 56.3381C35.2684 56.5404 35.2251 56.7572 35.2253 56.9761Z" fill="#FF876C"/>
<path d="M36.903 58.7379C36.5518 58.7381 36.2085 58.6349 35.9165 58.4413C35.6244 58.2476 35.3967 57.9723 35.2623 57.6501C35.1278 57.3279 35.0926 56.9733 35.161 56.6312C35.2295 56.2892 35.3985 55.9749 35.6468 55.7283C35.8951 55.4817 36.2114 55.3137 36.5558 55.2457C36.9002 55.1777 37.2572 55.2128 37.5816 55.3463C37.9059 55.4799 38.1831 55.706 38.378 55.9961C38.573 56.2862 38.6769 56.6272 38.6767 56.976C38.6774 57.2076 38.6321 57.4371 38.5432 57.6511C38.4543 57.8652 38.3237 58.0598 38.1588 58.2235C37.994 58.3873 37.7981 58.517 37.5826 58.6053C37.3671 58.6936 37.1361 58.7387 36.903 58.7379ZM36.903 55.4057C36.5378 55.4062 36.1841 55.5324 35.9021 55.7629C35.6202 55.9933 35.4273 56.3137 35.3565 56.6696C35.2856 57.0254 35.3411 57.3946 35.5136 57.7143C35.686 58.034 35.9647 58.2845 36.3022 58.423C36.6397 58.5616 37.015 58.5796 37.3644 58.4741C37.7137 58.3686 38.0155 58.146 38.2182 57.8443C38.4209 57.5426 38.5121 57.1805 38.4761 56.8195C38.4402 56.4586 38.2794 56.1212 38.0212 55.8647C37.8746 55.7184 37.7004 55.6024 37.5084 55.5233C37.3165 55.4443 37.1107 55.4037 36.903 55.404V55.4057Z" fill="black"/>
<path d="M30.2993 56.9761C30.2997 57.3612 30.4345 57.7342 30.6808 58.0316C30.927 58.329 31.2694 58.5325 31.6496 58.6073C32.0299 58.6821 32.4245 58.6236 32.7663 58.4419C33.1081 58.2601 33.3758 57.9663 33.524 57.6105C33.6721 57.2546 33.6915 56.8588 33.5788 56.4903C33.4661 56.1219 33.2283 55.8037 32.9059 55.5898C32.5835 55.376 32.1965 55.2798 31.8107 55.3176C31.4249 55.3554 31.0642 55.5249 30.7901 55.7972C30.6343 55.952 30.5108 56.1358 30.4266 56.3381C30.3424 56.5404 30.2991 56.7572 30.2993 56.9761Z" fill="#E099ED"/>
<path d="M31.9769 58.7379C31.6258 58.7381 31.2825 58.6349 30.9904 58.4413C30.6984 58.2476 30.4707 57.9723 30.3362 57.6501C30.2018 57.3279 30.1665 56.9733 30.235 56.6312C30.3034 56.2892 30.4725 55.9749 30.7208 55.7283C30.9691 55.4817 31.2854 55.3137 31.6298 55.2457C31.9742 55.1777 32.3312 55.2128 32.6555 55.3463C32.9799 55.4799 33.2571 55.706 33.452 55.9961C33.647 56.2862 33.7509 56.6272 33.7507 56.976C33.7514 57.2076 33.706 57.4371 33.6172 57.6511C33.5283 57.8652 33.3977 58.0598 33.2328 58.2235C33.068 58.3873 32.8721 58.517 32.6566 58.6053C32.4411 58.6936 32.2101 58.7387 31.9769 58.7379ZM31.9769 55.4057C31.6118 55.4062 31.2581 55.5324 30.9761 55.7629C30.6941 55.9933 30.5013 56.3137 30.4304 56.6696C30.3596 57.0254 30.4151 57.3946 30.5876 57.7143C30.76 58.034 31.0387 58.2845 31.3762 58.423C31.7136 58.5616 32.089 58.5796 32.4384 58.4741C32.7877 58.3686 33.0895 58.146 33.2922 57.8443C33.4949 57.5426 33.586 57.1805 33.5501 56.8195C33.5142 56.4586 33.3534 56.1212 33.0951 55.8647C32.9486 55.7184 32.7743 55.6024 32.5824 55.5233C32.3905 55.4443 32.1847 55.4037 31.9769 55.404V55.4057Z" fill="black"/>
<path d="M25.3728 56.9761C25.3732 57.3612 25.508 57.7342 25.7542 58.0316C26.0005 58.329 26.3429 58.5325 26.7231 58.6073C27.1034 58.6821 27.498 58.6236 27.8398 58.4419C28.1815 58.2601 28.4493 57.9663 28.5975 57.6105C28.7456 57.2546 28.765 56.8588 28.6523 56.4903C28.5396 56.1219 28.3018 55.8037 27.9794 55.5898C27.657 55.376 27.2699 55.2798 26.8842 55.3176C26.4984 55.3554 26.1377 55.5249 25.8636 55.7972C25.5492 56.11 25.3726 56.5341 25.3728 56.9761Z" fill="#007AFD"/>
<path d="M27.0506 58.7379C26.6995 58.738 26.3562 58.6347 26.0642 58.441C25.7723 58.2473 25.5447 57.9719 25.4103 57.6497C25.2759 57.3275 25.2408 56.973 25.3093 56.6309C25.3778 56.2888 25.5469 55.9747 25.7952 55.7281C26.0435 55.4815 26.3599 55.3136 26.7042 55.2457C27.0486 55.1778 27.4056 55.2128 27.7299 55.3464C28.0542 55.48 28.3314 55.7061 28.5263 55.9962C28.7212 56.2863 28.8251 56.6273 28.8249 56.976C28.8258 57.2077 28.7805 57.4373 28.6916 57.6515C28.6028 57.8657 28.4721 58.0603 28.3072 58.224C28.1422 58.3878 27.9463 58.5176 27.7306 58.6058C27.5149 58.694 27.2838 58.7389 27.0506 58.7379ZM27.0506 55.4057C26.6855 55.4063 26.3318 55.5327 26.0499 55.7632C25.7681 55.9937 25.5753 56.3142 25.5046 56.67C25.4338 57.0258 25.4894 57.395 25.6619 57.7146C25.8344 58.0343 26.1132 58.2847 26.4506 58.4231C26.7881 58.5616 27.1635 58.5796 27.5128 58.474C27.8621 58.3685 28.1638 58.1459 28.3665 57.8442C28.5691 57.5425 28.6603 57.1804 28.6243 56.8195C28.5884 56.4585 28.4276 56.1211 28.1694 55.8647C28.0227 55.7184 27.8484 55.6023 27.6564 55.5232C27.4643 55.4442 27.2585 55.4036 27.0506 55.404V55.4057Z" fill="#242B2B"/>
<path d="M56.2968 67.2927H24.6679C23.606 67.2927 22.7451 68.1478 22.7451 69.2026V79.8627C22.7451 80.9175 23.606 81.7726 24.6679 81.7726H56.2968C57.3587 81.7726 58.2195 80.9175 58.2195 79.8627V69.2026C58.2195 68.1478 57.3587 67.2927 56.2968 67.2927Z" fill="white"/>
<path d="M56.2969 81.8686H24.668C24.1331 81.8672 23.6206 81.6555 23.2424 81.2798C22.8643 80.9042 22.6511 80.3951 22.6497 79.8638V69.2032C22.6508 68.6715 22.864 68.162 23.2424 67.7861C23.6209 67.4102 24.1339 67.1984 24.6691 67.1973H56.298C56.8333 67.1984 57.3462 67.4102 57.7247 67.7861C58.1031 68.162 58.3163 68.6715 58.3175 69.2032V79.8638C58.316 80.3955 58.1026 80.9049 57.7239 81.2806C57.3452 81.6563 56.8321 81.8678 56.2969 81.8686ZM24.668 67.3888C24.1838 67.3894 23.7196 67.5808 23.3772 67.9209C23.0349 68.2611 22.8424 68.7222 22.8419 69.2032V79.8638C22.8425 80.3447 23.0351 80.8057 23.3774 81.1457C23.7197 81.4858 24.1839 81.6771 24.668 81.6777H56.2969C56.7813 81.6775 57.2459 81.4864 57.5886 81.1463C57.9312 80.8063 58.124 80.345 58.1246 79.8638V69.2032C58.124 68.7222 57.9314 68.261 57.589 67.9209C57.2466 67.5807 56.7823 67.3894 56.298 67.3888H24.668Z" fill="black"/>
<path d="M35.6533 81.7726C35.8604 81.2026 36.2394 80.7098 36.7385 80.3613C37.2377 80.0129 37.8329 79.8257 38.443 79.8253H43.6282C44.2382 79.8258 44.8333 80.0129 45.3323 80.3614C45.8314 80.7098 46.2102 81.2026 46.4172 81.7726H35.6533Z" fill="#161C1C"/>
<path d="M46.555 81.8686H35.5161L35.5622 81.7401C35.777 81.1521 36.1686 80.6439 36.6839 80.2843C37.1991 79.9247 37.8132 79.7311 38.4429 79.7297H43.6276C44.2573 79.7311 44.8714 79.9246 45.3867 80.2842C45.902 80.6438 46.2935 81.1521 46.5083 81.7401L46.555 81.8686ZM35.7944 81.6765H46.2761C46.0576 81.1575 45.6897 80.7141 45.2185 80.4018C44.7474 80.0896 44.1939 79.9224 43.6276 79.9213H38.4429C37.8766 79.9224 37.3231 80.0896 36.852 80.4018C36.3809 80.7141 36.013 81.1575 35.7944 81.6765Z" fill="black"/>
<path d="M54.2796 70.9979H54.8317C54.9301 70.9979 55.0244 71.0368 55.094 71.1059C55.1636 71.175 55.2027 71.2687 55.2027 71.3665V71.9149C55.2027 72.0128 55.1636 72.1067 55.0939 72.1759C55.0242 72.2451 54.9297 72.284 54.8311 72.284H54.279C54.2303 72.284 54.182 72.2745 54.137 72.256C54.092 72.2374 54.0511 72.2103 54.0166 72.1761C53.9822 72.1418 53.9549 72.1012 53.9362 72.0565C53.9176 72.0118 53.908 71.9638 53.908 71.9154V71.3671C53.908 71.2692 53.9471 71.1753 54.0168 71.106C54.0865 71.0368 54.181 70.9979 54.2796 70.9979Z" fill="#242B2B"/>
<path d="M50.605 70.9979H51.1571C51.2058 70.9979 51.2541 71.0075 51.2991 71.026C51.3441 71.0445 51.385 71.0717 51.4195 71.1059C51.4539 71.1401 51.4813 71.1807 51.4999 71.2254C51.5186 71.2702 51.5281 71.3181 51.5281 71.3665V71.9149C51.5281 72.0128 51.489 72.1067 51.4193 72.1759C51.3496 72.2451 51.2551 72.284 51.1565 72.284H50.6045C50.506 72.284 50.4117 72.2452 50.3421 72.1761C50.2725 72.1069 50.2334 72.0132 50.2334 71.9154V71.3671C50.2334 71.2692 50.2725 71.1753 50.3422 71.106C50.4119 71.0368 50.5065 70.9979 50.605 70.9979Z" fill="#242B2B"/>
<path d="M46.9306 70.9979H47.4827C47.5813 70.9979 47.6758 71.0368 47.7455 71.106C47.8152 71.1753 47.8543 71.2692 47.8543 71.3671V71.9154C47.8543 72.0133 47.8152 72.1072 47.7455 72.1765C47.6758 72.2457 47.5813 72.2846 47.4827 72.2846H46.9306C46.8322 72.2846 46.7378 72.2457 46.6683 72.1766C46.5987 72.1075 46.5596 72.0138 46.5596 71.916V71.3676C46.5595 71.3191 46.569 71.2711 46.5876 71.2263C46.6063 71.1815 46.6336 71.1408 46.668 71.1064C46.7025 71.0721 46.7434 71.0449 46.7885 71.0262C46.8335 71.0076 46.8818 70.998 46.9306 70.9979Z" fill="#242B2B"/>
<path d="M43.2536 70.9979H43.8057C43.9041 70.9979 43.9985 71.0368 44.0681 71.1059C44.1377 71.175 44.1768 71.2687 44.1768 71.3665V71.9149C44.1768 72.0128 44.1376 72.1067 44.0679 72.1759C43.9982 72.2451 43.9037 72.284 43.8051 72.284H43.2536C43.1552 72.284 43.0608 72.2452 42.9912 72.1761C42.9217 72.1069 42.8826 72.0132 42.8826 71.9154V71.3671C42.8826 71.2692 42.9217 71.1753 42.9914 71.106C43.0611 71.0368 43.1556 70.9979 43.2542 70.9979H43.2536Z" fill="#242B2B"/>
<path d="M52.2151 72.6488H52.7672C52.8656 72.6488 52.96 72.6876 53.0296 72.7567C53.0992 72.8258 53.1383 72.9196 53.1383 73.0173V73.5657C53.1383 73.6636 53.0991 73.7575 53.0294 73.8267C52.9597 73.896 52.8652 73.9348 52.7666 73.9348H52.2151C52.1166 73.9348 52.022 73.896 51.9524 73.8267C51.8827 73.7575 51.8435 73.6636 51.8435 73.5657V73.0173C51.8435 72.9194 51.8827 72.8255 51.9524 72.7563C52.022 72.6871 52.1166 72.6482 52.2151 72.6482V72.6488Z" fill="#242B2B"/>
<path d="M48.5383 72.6488H49.0904C49.1888 72.6488 49.2832 72.6876 49.3527 72.7567C49.4223 72.8258 49.4614 72.9196 49.4614 73.0173V73.5657C49.4614 73.6635 49.4223 73.7572 49.3527 73.8263C49.2832 73.8955 49.1888 73.9343 49.0904 73.9343H48.5383C48.4399 73.9343 48.3455 73.8955 48.2759 73.8263C48.2063 73.7572 48.1672 73.6635 48.1672 73.5657V73.0173C48.1672 72.9194 48.2064 72.8255 48.2761 72.7563C48.3458 72.6871 48.4403 72.6482 48.5389 72.6482L48.5383 72.6488Z" fill="#242B2B"/>
<path d="M44.866 72.6487H45.4181C45.5165 72.6487 45.6109 72.6875 45.6805 72.7566C45.75 72.8258 45.7891 72.9195 45.7891 73.0173V73.5656C45.7891 73.6635 45.75 73.7574 45.6803 73.8267C45.6106 73.8959 45.5161 73.9348 45.4175 73.9348H44.8654C44.767 73.9348 44.6727 73.8959 44.6031 73.8268C44.5335 73.7577 44.4944 73.664 44.4944 73.5662V73.0178C44.4944 72.9199 44.5335 72.826 44.6032 72.7568C44.6729 72.6876 44.7674 72.6487 44.866 72.6487Z" fill="#242B2B"/>
<path d="M41.1914 72.6487H41.7435C41.8419 72.6487 41.9363 72.6875 42.0059 72.7566C42.0755 72.8258 42.1146 72.9195 42.1146 73.0173V73.5656C42.1146 73.6141 42.105 73.6621 42.0863 73.7069C42.0676 73.7517 42.0402 73.7924 42.0057 73.8267C41.9712 73.8609 41.9303 73.8881 41.8852 73.9067C41.8401 73.9252 41.7918 73.9348 41.743 73.9348H41.1909C41.0925 73.9348 40.9981 73.8959 40.9285 73.8268C40.8589 73.7577 40.8198 73.664 40.8198 73.5662V73.0178C40.8198 72.9199 40.859 72.826 40.9287 72.7568C40.9984 72.6876 41.0929 72.6487 41.1914 72.6487Z" fill="#242B2B"/>
<path d="M54.2795 74.1409H54.8316C54.9301 74.1409 55.0247 74.1798 55.0944 74.249C55.164 74.3182 55.2032 74.4121 55.2032 74.51V75.0584C55.2032 75.1563 55.164 75.2502 55.0944 75.3194C55.0247 75.3886 54.9301 75.4275 54.8316 75.4275H54.2795C54.2308 75.4275 54.1825 75.418 54.1375 75.3995C54.0925 75.3809 54.0516 75.3538 54.0171 75.3196C53.9827 75.2853 53.9553 75.2447 53.9367 75.2C53.918 75.1553 53.9084 75.1073 53.9084 75.0589V74.5106C53.9084 74.4621 53.9179 74.4141 53.9365 74.3692C53.9551 74.3244 53.9824 74.2837 54.0169 74.2494C54.0513 74.215 54.0923 74.1878 54.1373 74.1692C54.1824 74.1506 54.2307 74.1409 54.2795 74.1409Z" fill="#242B2B"/>
<path d="M50.6049 74.1409H51.157C51.2556 74.1409 51.3501 74.1798 51.4198 74.249C51.4895 74.3182 51.5286 74.4121 51.5286 74.51V75.0584C51.5286 75.1563 51.4895 75.2502 51.4198 75.3194C51.3501 75.3886 51.2556 75.4275 51.157 75.4275H50.6049C50.5065 75.4275 50.4122 75.3887 50.3426 75.3196C50.273 75.2504 50.2339 75.1567 50.2339 75.0589V74.5106C50.2338 74.4621 50.2434 74.4141 50.262 74.3692C50.2806 74.3244 50.3079 74.2837 50.3423 74.2494C50.3768 74.215 50.4177 74.1878 50.4628 74.1692C50.5078 74.1506 50.5561 74.1409 50.6049 74.1409Z" fill="#242B2B"/>
<path d="M46.9306 74.1409H47.4827C47.5813 74.1409 47.6758 74.1798 47.7455 74.249C47.8152 74.3182 47.8543 74.4121 47.8543 74.51V75.0584C47.8543 75.1563 47.8152 75.2502 47.7455 75.3194C47.6758 75.3886 47.5813 75.4275 47.4827 75.4275H46.9306C46.8322 75.4275 46.7378 75.3887 46.6683 75.3196C46.5987 75.2504 46.5596 75.1567 46.5596 75.0589V74.5106C46.5595 74.4621 46.569 74.4141 46.5876 74.3692C46.6063 74.3244 46.6336 74.2837 46.668 74.2494C46.7025 74.215 46.7434 74.1878 46.7885 74.1692C46.8335 74.1506 46.8818 74.1409 46.9306 74.1409Z" fill="#242B2B"/>
<path d="M43.8081 74.1409H43.2566C43.0514 74.1409 42.885 74.3061 42.885 74.51V75.0578C42.885 75.2617 43.0514 75.427 43.2566 75.427H43.8081C44.0134 75.427 44.1798 75.2617 44.1798 75.0578V74.51C44.1798 74.3061 44.0134 74.1409 43.8081 74.1409Z" fill="#242B2B"/>
<path d="M52.2151 75.7922H52.7672C52.8656 75.7922 52.96 75.8311 53.0296 75.9002C53.0992 75.9693 53.1383 76.0631 53.1383 76.1608V76.7092C53.1383 76.8071 53.0991 76.901 53.0294 76.9702C52.9597 77.0394 52.8652 77.0783 52.7666 77.0783H52.2151C52.1166 77.0783 52.022 77.0394 51.9524 76.9702C51.8827 76.901 51.8435 76.8071 51.8435 76.7092V76.1608C51.8437 76.063 51.8829 75.9693 51.9525 75.9002C52.0222 75.8311 52.1167 75.7922 52.2151 75.7922Z" fill="#242B2B"/>
<path d="M48.5384 75.7922H49.0904C49.1889 75.7922 49.2832 75.8311 49.3528 75.9002C49.4224 75.9693 49.4615 76.0631 49.4615 76.1608V76.7092C49.4615 76.8071 49.4223 76.901 49.3527 76.9702C49.283 77.0394 49.1884 77.0783 49.0899 77.0783H48.5384C48.4398 77.0783 48.3453 77.0394 48.2756 76.9702C48.2059 76.901 48.1667 76.8071 48.1667 76.7092V76.1608C48.1669 76.063 48.2061 75.9693 48.2758 75.9002C48.3455 75.8311 48.4399 75.7922 48.5384 75.7922Z" fill="#242B2B"/>
<path d="M44.8661 75.7922H45.4182C45.5166 75.7922 45.6109 75.8311 45.6805 75.9002C45.7501 75.9693 45.7892 76.0631 45.7892 76.1608V76.7092C45.7892 76.8071 45.7501 76.901 45.6804 76.9702C45.6107 77.0394 45.5162 77.0783 45.4176 77.0783H44.8655C44.767 77.0783 44.6724 77.0394 44.6027 76.9702C44.533 76.901 44.4939 76.8071 44.4939 76.7092V76.1608C44.4939 76.0631 44.533 75.9693 44.6026 75.9002C44.6722 75.8311 44.7665 75.7922 44.8649 75.7922H44.8661Z" fill="#242B2B"/>
<path d="M41.1915 75.7922H41.7436C41.842 75.7922 41.9364 75.8311 42.006 75.9002C42.0756 75.9693 42.1146 76.0631 42.1146 76.1608V76.7092C42.1146 76.7577 42.105 76.8057 42.0864 76.8505C42.0677 76.8952 42.0403 76.9359 42.0058 76.9702C41.9713 77.0045 41.9303 77.0317 41.8852 77.0502C41.8402 77.0688 41.7918 77.0783 41.743 77.0783H41.191C41.0924 77.0783 40.9979 77.0394 40.9282 76.9702C40.8585 76.901 40.8193 76.8071 40.8193 76.7092V76.1608C40.8194 76.1123 40.8291 76.0644 40.8478 76.0196C40.8666 75.9748 40.894 75.9342 40.9286 75.9C40.9631 75.8657 41.0041 75.8386 41.0493 75.8201C41.0944 75.8016 41.1427 75.7922 41.1915 75.7922Z" fill="#242B2B"/>
<path d="M35.2253 73.7606C35.2258 74.1457 35.3606 74.5187 35.6068 74.8161C35.853 75.1136 36.1954 75.317 36.5757 75.3918C36.9559 75.4666 37.3506 75.4082 37.6923 75.2264C38.0341 75.0447 38.3018 74.7509 38.45 74.395C38.5981 74.0392 38.6175 73.6433 38.5048 73.2749C38.3921 72.9065 38.1543 72.5882 37.8319 72.3744C37.5095 72.1606 37.1225 72.0644 36.7367 72.1022C36.3509 72.14 35.9903 72.3095 35.7162 72.5818C35.5603 72.7365 35.4367 72.9203 35.3525 73.1226C35.2683 73.3249 35.2251 73.5417 35.2253 73.7606Z" fill="#FF876C"/>
<path d="M36.903 75.5231C36.5518 75.5233 36.2086 75.4201 35.9165 75.2265C35.6245 75.0328 35.3968 74.7575 35.2623 74.4354C35.1278 74.1132 35.0926 73.7587 35.161 73.4166C35.2294 73.0745 35.3984 72.7603 35.6466 72.5136C35.8948 72.267 36.2111 72.099 36.5555 72.031C36.8999 71.9629 37.2568 71.9978 37.5812 72.1313C37.9055 72.2648 38.1828 72.4909 38.3778 72.7809C38.5728 73.0709 38.6768 73.4119 38.6767 73.7606C38.6774 73.9922 38.6321 74.2217 38.5432 74.4358C38.4543 74.65 38.3237 74.8445 38.1589 75.0083C37.994 75.1721 37.7982 75.3019 37.5827 75.3903C37.3671 75.4786 37.1361 75.5237 36.903 75.5231ZM36.903 72.1903C36.5378 72.1908 36.1841 72.317 35.9021 72.5475C35.6202 72.7779 35.4273 73.0983 35.3565 73.4542C35.2856 73.81 35.3411 74.1792 35.5136 74.4989C35.686 74.8186 35.9647 75.0691 36.3022 75.2076C36.6397 75.3462 37.015 75.3642 37.3644 75.2587C37.7137 75.1532 38.0155 74.9306 38.2182 74.6289C38.4209 74.3272 38.5121 73.9651 38.4761 73.6041C38.4402 73.2432 38.2794 72.9058 38.0212 72.6493C37.8745 72.5033 37.7001 72.3876 37.5082 72.3088C37.3163 72.23 37.1106 72.1898 36.903 72.1903Z" fill="black"/>
<path d="M30.2993 73.7606C30.2997 74.1457 30.4345 74.5187 30.6808 74.8161C30.927 75.1136 31.2694 75.317 31.6496 75.3918C32.0299 75.4666 32.4245 75.4082 32.7663 75.2264C33.1081 75.0447 33.3758 74.7509 33.524 74.395C33.6721 74.0392 33.6915 73.6433 33.5788 73.2749C33.4661 72.9065 33.2283 72.5882 32.9059 72.3744C32.5835 72.1606 32.1965 72.0644 31.8107 72.1022C31.4249 72.14 31.0642 72.3095 30.7901 72.5818C30.6343 72.7365 30.5107 72.9203 30.4265 73.1226C30.3423 73.3249 30.299 73.5417 30.2993 73.7606Z" fill="#E099ED"/>
<path d="M31.9769 75.5231C31.6258 75.5233 31.2825 75.4201 30.9905 75.2265C30.6985 75.0328 30.4708 74.7575 30.3363 74.4354C30.2018 74.1132 30.1665 73.7587 30.2349 73.4166C30.3033 73.0745 30.4723 72.7603 30.7206 72.5136C30.9688 72.267 31.2851 72.099 31.6295 72.031C31.9738 71.9629 32.3308 71.9978 32.6551 72.1313C32.9795 72.2648 33.2567 72.4909 33.4517 72.7809C33.6468 73.0709 33.7508 73.4119 33.7507 73.7606C33.7514 73.9922 33.706 74.2217 33.6172 74.4358C33.5283 74.65 33.3977 74.8445 33.2328 75.0083C33.068 75.1721 32.8722 75.3019 32.6566 75.3903C32.4411 75.4786 32.2101 75.5237 31.9769 75.5231ZM31.9769 72.1903C31.6118 72.1908 31.2581 72.317 30.9761 72.5475C30.6941 72.7779 30.5013 73.0983 30.4304 73.4542C30.3596 73.81 30.4151 74.1792 30.5876 74.4989C30.76 74.8186 31.0387 75.0691 31.3762 75.2076C31.7136 75.3462 32.089 75.3642 32.4384 75.2587C32.7877 75.1532 33.0895 74.9306 33.2922 74.6289C33.4949 74.3272 33.586 73.9651 33.5501 73.6041C33.5142 73.2432 33.3534 72.9058 33.0951 72.6493C32.9485 72.5033 32.7741 72.3876 32.5822 72.3088C32.3903 72.23 32.1846 72.1898 31.9769 72.1903Z" fill="black"/>
<path d="M25.3728 73.7606C25.3732 74.1457 25.508 74.5187 25.7542 74.8161C26.0005 75.1136 26.3429 75.317 26.7231 75.3918C27.1034 75.4666 27.498 75.4082 27.8398 75.2264C28.1815 75.0447 28.4493 74.7509 28.5975 74.395C28.7456 74.0392 28.765 73.6433 28.6523 73.2749C28.5396 72.9065 28.3018 72.5882 27.9794 72.3744C27.657 72.1606 27.2699 72.0644 26.8842 72.1022C26.4984 72.14 26.1377 72.3095 25.8636 72.5818C25.5491 72.8945 25.3726 73.3186 25.3728 73.7606Z" fill="#007AFD"/>
<path d="M27.0506 75.5231C26.6995 75.5232 26.3563 75.4199 26.0643 75.2262C25.7723 75.0325 25.5448 74.7572 25.4104 74.435C25.2759 74.1128 25.2408 73.7583 25.3092 73.4163C25.3777 73.0742 25.5467 72.76 25.795 72.5134C26.0433 72.2668 26.3596 72.0989 26.7039 72.0309C27.0482 71.9629 27.4052 71.9979 27.7295 72.1314C28.0538 72.2649 28.331 72.4909 28.526 72.781C28.721 73.071 28.825 73.4119 28.8249 73.7606C28.8258 73.9923 28.7805 74.2219 28.6917 74.4361C28.6028 74.6504 28.4721 74.845 28.3072 75.0088C28.1423 75.1727 27.9463 75.3025 27.7306 75.3907C27.515 75.479 27.2838 75.524 27.0506 75.5231ZM27.0506 72.1903C26.6855 72.1909 26.3318 72.3173 26.0499 72.5478C25.7681 72.7783 25.5753 73.0987 25.5046 73.4546C25.4338 73.8104 25.4894 74.1796 25.6619 74.4992C25.8344 74.8189 26.1132 75.0693 26.4506 75.2077C26.7881 75.3462 27.1635 75.3642 27.5128 75.2586C27.8621 75.1531 28.1638 74.9305 28.3665 74.6288C28.5691 74.3271 28.6603 73.965 28.6243 73.6041C28.5884 73.2431 28.4276 72.9057 28.1694 72.6493C28.0226 72.5033 27.8482 72.3875 27.6562 72.3087C27.4641 72.2299 27.2583 72.1897 27.0506 72.1903Z" fill="#242B2B"/>
<path d="M56.2968 84.0773H24.6679C23.606 84.0773 22.7451 84.9324 22.7451 85.9871V96.6467C22.7451 97.7015 23.606 98.5566 24.6679 98.5566H56.2968C57.3587 98.5566 58.2195 97.7015 58.2195 96.6467V85.9871C58.2195 84.9324 57.3587 84.0773 56.2968 84.0773Z" fill="white"/>
<path d="M56.2968 98.6532H24.6679C24.1327 98.652 23.6199 98.4404 23.2414 98.0646C22.863 97.6888 22.6498 97.1794 22.6484 96.6478V85.9877C22.6496 85.4561 22.8628 84.9466 23.2412 84.5706C23.6197 84.1947 24.1327 83.983 24.6679 83.9818H56.2968C56.832 83.983 57.345 84.1947 57.7235 84.5706C58.1019 84.9466 58.3151 85.4561 58.3162 85.9877V96.6478C58.3149 97.1794 58.1017 97.6888 57.7233 98.0646C57.3448 98.4404 56.8319 98.652 56.2968 98.6532ZM24.6679 84.1739C24.1838 84.1745 23.7196 84.3658 23.3773 84.7058C23.035 85.0459 22.8424 85.5069 22.8418 85.9877V96.6478C22.8429 97.1284 23.0357 97.589 23.3779 97.9287C23.7202 98.2683 24.1841 98.4594 24.6679 98.46H56.2968C56.781 98.4595 57.2453 98.2683 57.5877 97.9283C57.9302 97.5882 58.1228 97.1271 58.1234 96.6462V85.9877C58.1228 85.5068 57.9302 85.0457 57.5877 84.7056C57.2453 84.3656 56.781 84.1744 56.2968 84.1739H24.6679Z" fill="black"/>
<path d="M35.6533 98.557C35.8604 97.987 36.2394 97.4942 36.7385 97.1458C37.2377 96.7973 37.8329 96.6101 38.443 96.6097H43.6282C44.2382 96.6102 44.8333 96.7974 45.3323 97.1458C45.8314 97.4943 46.2102 97.987 46.4172 98.557H35.6533Z" fill="#161C1C"/>
<path d="M46.555 98.6531H35.5161L35.5622 98.5247C35.7771 97.9367 36.1687 97.4286 36.6839 97.069C37.1992 96.7094 37.8132 96.5158 38.4429 96.5143H43.6276C44.2573 96.5157 44.8714 96.7093 45.3866 97.0689C45.9019 97.4285 46.2935 97.9367 46.5083 98.5247L46.555 98.6531ZM35.7944 98.4616H46.2761C46.0576 97.9425 45.6897 97.499 45.2186 97.1867C44.7474 96.8744 44.194 96.7071 43.6276 96.7058H38.4429C37.8767 96.707 37.3234 96.874 36.8523 97.186C36.3812 97.498 36.0132 97.9411 35.7944 98.4599V98.4616Z" fill="black"/>
<path d="M54.2796 87.7825H54.8317C54.9301 87.7825 55.0244 87.8213 55.094 87.8904C55.1636 87.9595 55.2027 88.0533 55.2027 88.151V88.6994C55.2027 88.7973 55.1636 88.8912 55.0939 88.9604C55.0242 89.0297 54.9297 89.0686 54.8311 89.0686H54.279C54.2303 89.0686 54.182 89.059 54.137 89.0405C54.092 89.022 54.0511 88.9948 54.0166 88.9606C53.9822 88.9264 53.9549 88.8858 53.9362 88.841C53.9176 88.7963 53.908 88.7484 53.908 88.7V88.1516C53.908 88.1032 53.9176 88.0553 53.9362 88.0106C53.9549 87.9658 53.9822 87.9252 54.0166 87.891C54.0511 87.8568 54.092 87.8296 54.137 87.8111C54.182 87.7926 54.2303 87.783 54.279 87.783L54.2796 87.7825Z" fill="#242B2B"/>
<path d="M50.605 87.7825H51.1571C51.2058 87.7825 51.2541 87.792 51.2991 87.8105C51.3441 87.8291 51.385 87.8562 51.4195 87.8904C51.4539 87.9246 51.4813 87.9653 51.4999 88.01C51.5186 88.0547 51.5281 88.1026 51.5281 88.151V88.6994C51.5281 88.7973 51.489 88.8912 51.4193 88.9604C51.3496 89.0297 51.2551 89.0686 51.1565 89.0686H50.6045C50.506 89.0686 50.4117 89.0297 50.3421 88.9606C50.2725 88.8915 50.2334 88.7977 50.2334 88.7V88.1516C50.2334 88.0537 50.2725 87.9598 50.3422 87.8906C50.4119 87.8214 50.5065 87.7825 50.605 87.7825Z" fill="#242B2B"/>
<path d="M47.4827 87.7825H46.9312C46.7259 87.7825 46.5596 87.9477 46.5596 88.1516V88.6994C46.5596 88.9033 46.7259 89.0686 46.9312 89.0686H47.4827C47.6879 89.0686 47.8543 88.9033 47.8543 88.6994V88.1516C47.8543 87.9477 47.6879 87.7825 47.4827 87.7825Z" fill="#242B2B"/>
<path d="M43.2537 87.7825H43.8058C43.9042 87.7825 43.9986 87.8214 44.0682 87.8905C44.1377 87.9596 44.1768 88.0534 44.1768 88.1511V88.6995C44.1768 88.7974 44.1377 88.8913 44.068 88.9605C43.9983 89.0297 43.9038 89.0686 43.8052 89.0686H43.2537C43.1551 89.0686 43.0606 89.0297 42.9909 88.9605C42.9212 88.8913 42.8821 88.7974 42.8821 88.6995V88.1511C42.8821 88.0532 42.9212 87.9593 42.9909 87.8901C43.0606 87.8209 43.1551 87.782 43.2537 87.782V87.7825Z" fill="#242B2B"/>
<path d="M52.7666 89.4338H52.2151C52.0099 89.4338 51.8435 89.5991 51.8435 89.803V90.3508C51.8435 90.5547 52.0099 90.7199 52.2151 90.7199H52.7666C52.9719 90.7199 53.1383 90.5547 53.1383 90.3508V89.803C53.1383 89.5991 52.9719 89.4338 52.7666 89.4338Z" fill="#242B2B"/>
<path d="M48.5383 89.4338H49.0904C49.1889 89.4338 49.2835 89.4727 49.3531 89.542C49.4228 89.6112 49.462 89.7051 49.462 89.803V90.3514C49.462 90.4491 49.4229 90.5429 49.3533 90.612C49.2837 90.6811 49.1893 90.7199 49.0909 90.7199H48.5383C48.4399 90.7199 48.3455 90.6811 48.2759 90.612C48.2063 90.5429 48.1672 90.4491 48.1672 90.3514V89.803C48.1672 89.7052 48.2063 89.6114 48.2759 89.5422C48.3454 89.4729 48.4398 89.434 48.5383 89.4338Z" fill="#242B2B"/>
<path d="M44.8662 89.4338H45.4183C45.5167 89.4338 45.611 89.4726 45.6806 89.5417C45.7502 89.6109 45.7893 89.7046 45.7893 89.8024V90.3507C45.7893 90.4485 45.7502 90.5422 45.6806 90.6114C45.611 90.6805 45.5167 90.7193 45.4183 90.7193H44.8662C44.7678 90.7193 44.6734 90.6805 44.6038 90.6114C44.5342 90.5422 44.4951 90.4485 44.4951 90.3507V89.8024C44.4951 89.7045 44.5343 89.6106 44.604 89.5413C44.6737 89.4721 44.7682 89.4332 44.8667 89.4332L44.8662 89.4338Z" fill="#242B2B"/>
<path d="M41.1914 89.4338H41.7435C41.8419 89.4338 41.9363 89.4727 42.0059 89.5418C42.0755 89.6109 42.1146 89.7047 42.1146 89.8024V90.3508C42.1146 90.3993 42.105 90.4473 42.0863 90.4921C42.0676 90.5368 42.0402 90.5775 42.0057 90.6118C41.9712 90.6461 41.9303 90.6733 41.8852 90.6918C41.8401 90.7104 41.7918 90.7199 41.743 90.7199H41.1909C41.0925 90.7199 40.9981 90.6811 40.9285 90.612C40.8589 90.5429 40.8198 90.4491 40.8198 90.3514V89.803C40.8198 89.7051 40.859 89.6112 40.9287 89.542C40.9984 89.4727 41.0929 89.4338 41.1914 89.4338Z" fill="#242B2B"/>
<path d="M54.2796 90.9254H54.8317C54.9301 90.9254 55.0245 90.9642 55.0941 91.0334C55.1637 91.1025 55.2028 91.1962 55.2028 91.294V91.8424C55.2028 91.9403 55.1636 92.0342 55.0939 92.1034C55.0243 92.1726 54.9297 92.2115 54.8312 92.2115H54.2791C54.1805 92.2115 54.086 92.1726 54.0163 92.1034C53.9466 92.0342 53.9075 91.9403 53.9075 91.8424V91.294C53.9075 91.2455 53.9172 91.1975 53.936 91.1528C53.9547 91.108 53.9822 91.0674 54.0167 91.0331C54.0513 90.9989 54.0923 90.9718 54.1374 90.9533C54.1825 90.9348 54.2308 90.9253 54.2796 90.9254Z" fill="#242B2B"/>
<path d="M50.605 90.9254H51.1571C51.2058 90.9254 51.2541 90.935 51.2991 90.9535C51.3441 90.972 51.385 90.9991 51.4195 91.0334C51.4539 91.0676 51.4813 91.1082 51.4999 91.1529C51.5186 91.1977 51.5281 91.2456 51.5281 91.294V91.8424C51.5281 91.9403 51.489 92.0342 51.4193 92.1034C51.3496 92.1726 51.2551 92.2115 51.1565 92.2115H50.6045C50.506 92.2115 50.4117 92.1727 50.3421 92.1036C50.2725 92.0344 50.2334 91.9407 50.2334 91.8429V91.2945C50.2334 91.1966 50.2725 91.1028 50.3422 91.0335C50.4119 90.9643 50.5065 90.9254 50.605 90.9254Z" fill="#242B2B"/>
<path d="M46.9306 90.9254H47.4827C47.5813 90.9254 47.6758 90.9643 47.7455 91.0335C47.8152 91.1028 47.8543 91.1966 47.8543 91.2945V91.8429C47.8543 91.9408 47.8152 92.0347 47.7455 92.104C47.6758 92.1732 47.5813 92.2121 47.4827 92.2121H46.9306C46.8322 92.2121 46.7378 92.1732 46.6683 92.1041C46.5987 92.035 46.5596 91.9412 46.5596 91.8435V91.2951C46.5594 91.2466 46.5689 91.1986 46.5875 91.1537C46.6061 91.1089 46.6334 91.0681 46.6679 91.0338C46.7023 90.9994 46.7433 90.9722 46.7884 90.9536C46.8335 90.935 46.8818 90.9254 46.9306 90.9254Z" fill="#242B2B"/>
<path d="M43.2536 90.9254H43.8057C43.9043 90.9254 43.9988 90.9643 44.0685 91.0335C44.1382 91.1028 44.1773 91.1966 44.1773 91.2945V91.8429C44.1773 91.9408 44.1382 92.0347 44.0685 92.104C43.9988 92.1732 43.9043 92.2121 43.8057 92.2121H43.2536C43.1552 92.2121 43.0608 92.1732 42.9912 92.1041C42.9217 92.035 42.8826 91.9412 42.8826 91.8435V91.2951C42.8825 91.2466 42.892 91.1986 42.9106 91.1538C42.9292 91.109 42.9566 91.0683 42.991 91.0339C43.0255 90.9996 43.0664 90.9723 43.1115 90.9537C43.1565 90.9351 43.2048 90.9255 43.2536 90.9254Z" fill="#242B2B"/>
<path d="M52.2151 92.5768H52.7672C52.8656 92.5768 52.96 92.6156 53.0296 92.6847C53.0992 92.7539 53.1383 92.8476 53.1383 92.9454V93.4937C53.1383 93.5916 53.0991 93.6855 53.0294 93.7548C52.9597 93.824 52.8652 93.8629 52.7666 93.8629H52.2151C52.1166 93.8629 52.022 93.824 51.9524 93.7548C51.8827 93.6855 51.8435 93.5916 51.8435 93.4937V92.9454C51.8437 92.8475 51.8829 92.7538 51.9525 92.6847C52.0222 92.6156 52.1167 92.5768 52.2151 92.5768Z" fill="#242B2B"/>
<path d="M48.5383 92.5768H49.0904C49.1888 92.5768 49.2832 92.6156 49.3527 92.6847C49.4223 92.7539 49.4614 92.8476 49.4614 92.9454V93.4937C49.4614 93.5916 49.4223 93.6855 49.3526 93.7548C49.2829 93.824 49.1884 93.8629 49.0898 93.8629H48.5383C48.4399 93.8629 48.3455 93.824 48.2759 93.7549C48.2063 93.6858 48.1672 93.592 48.1672 93.4943V92.9459C48.1672 92.8481 48.2063 92.7543 48.2759 92.6851C48.3454 92.6159 48.4398 92.5769 48.5383 92.5768Z" fill="#242B2B"/>
<path d="M44.8661 92.5768H45.4182C45.5166 92.5768 45.6109 92.6156 45.6805 92.6847C45.7501 92.7539 45.7892 92.8476 45.7892 92.9454V93.4937C45.7892 93.5916 45.7501 93.6855 45.6804 93.7548C45.6107 93.824 45.5162 93.8629 45.4176 93.8629H44.8655C44.767 93.8629 44.6724 93.824 44.6027 93.7548C44.533 93.6855 44.4939 93.5916 44.4939 93.4937V92.9454C44.4939 92.8969 44.5035 92.8488 44.5223 92.804C44.541 92.7593 44.5684 92.7186 44.603 92.6843C44.6375 92.6501 44.6786 92.623 44.7237 92.6045C44.7689 92.5861 44.8173 92.5766 44.8661 92.5768Z" fill="#242B2B"/>
<path d="M41.1915 92.5768H41.7436C41.842 92.5768 41.9364 92.6156 42.006 92.6847C42.0756 92.7539 42.1146 92.8476 42.1146 92.9454V93.4937C42.1146 93.5916 42.0755 93.6855 42.0058 93.7548C41.9361 93.824 41.8416 93.8629 41.743 93.8629H41.191C41.0924 93.8629 40.9979 93.824 40.9282 93.7548C40.8585 93.6855 40.8193 93.5916 40.8193 93.4937V92.9454C40.8194 92.8969 40.8291 92.8489 40.8478 92.8041C40.8666 92.7594 40.894 92.7187 40.9286 92.6845C40.9631 92.6503 41.0041 92.6231 41.0493 92.6047C41.0944 92.5862 41.1427 92.5767 41.1915 92.5768Z" fill="#242B2B"/>
<path d="M35.2253 90.5457C35.2258 90.9307 35.3606 91.3037 35.6068 91.6012C35.853 91.8986 36.1954 92.1021 36.5757 92.1769C36.9559 92.2517 37.3506 92.1932 37.6923 92.0115C38.0341 91.8297 38.3018 91.5359 38.45 91.1801C38.5981 90.8242 38.6175 90.4284 38.5048 90.0599C38.3921 89.6915 38.1543 89.3733 37.8319 89.1594C37.5095 88.9456 37.1225 88.8494 36.7367 88.8872C36.3509 88.925 35.9903 89.0945 35.7162 89.3668C35.5604 89.5217 35.4369 89.7055 35.3527 89.9077C35.2685 90.11 35.2252 90.3268 35.2253 90.5457Z" fill="#FF876C"/>
<path d="M36.903 92.3076C36.5518 92.3078 36.2085 92.2046 35.9165 92.011C35.6244 91.8173 35.3967 91.542 35.2623 91.2198C35.1278 90.8976 35.0926 90.543 35.161 90.2009C35.2295 89.8589 35.3985 89.5446 35.6468 89.298C35.8951 89.0514 36.2114 88.8834 36.5558 88.8154C36.9002 88.7474 37.2572 88.7825 37.5816 88.916C37.9059 89.0496 38.1831 89.2757 38.378 89.5658C38.573 89.8559 38.6769 90.197 38.6767 90.5457C38.6775 90.7773 38.6322 91.0068 38.5433 91.2209C38.4545 91.4351 38.3239 91.6296 38.159 91.7934C37.9941 91.9571 37.7983 92.0869 37.5827 92.1752C37.3671 92.2634 37.1361 92.3084 36.903 92.3076ZM36.903 88.9748C36.5375 88.9751 36.1835 89.1012 35.9011 89.3317C35.6188 89.5621 35.4256 89.8827 35.3545 90.2388C35.2834 90.5948 35.3388 90.9644 35.5112 91.2844C35.6836 91.6045 35.9624 91.8553 36.3001 91.9941C36.6378 92.1328 37.0134 92.1511 37.3631 92.0456C37.7128 91.9401 38.0149 91.7175 38.2178 91.4156C38.4208 91.1138 38.5121 90.7513 38.4763 90.3901C38.4404 90.0288 38.2796 89.6911 38.0212 89.4344C37.8745 89.2883 37.7002 89.1725 37.5083 89.0936C37.3164 89.0148 37.1106 88.9744 36.903 88.9748Z" fill="black"/>
<path d="M30.2993 90.5457C30.2997 90.9307 30.4345 91.3037 30.6808 91.6012C30.927 91.8986 31.2694 92.1021 31.6496 92.1769C32.0299 92.2517 32.4245 92.1932 32.7663 92.0115C33.1081 91.8297 33.3758 91.5359 33.524 91.1801C33.6721 90.8242 33.6915 90.4284 33.5788 90.0599C33.4661 89.6915 33.2283 89.3733 32.9059 89.1594C32.5835 88.9456 32.1965 88.8494 31.8107 88.8872C31.4249 88.925 31.0642 89.0945 30.7901 89.3668C30.6344 89.5217 30.5109 89.7055 30.4267 89.9077C30.3424 90.11 30.2992 90.3268 30.2993 90.5457Z" fill="#E099ED"/>
<path d="M31.9769 92.3076C31.6258 92.3078 31.2825 92.2046 30.9904 92.011C30.6984 91.8173 30.4707 91.542 30.3362 91.2198C30.2018 90.8976 30.1665 90.543 30.235 90.2009C30.3034 89.8589 30.4725 89.5446 30.7208 89.298C30.9691 89.0514 31.2854 88.8834 31.6298 88.8154C31.9742 88.7474 32.3312 88.7825 32.6555 88.916C32.9799 89.0496 33.2571 89.2757 33.452 89.5658C33.647 89.8559 33.7509 90.197 33.7507 90.5457C33.7516 90.7774 33.7064 91.0069 33.6176 91.2211C33.5288 91.4353 33.3982 91.6299 33.2333 91.7937C33.0684 91.9575 32.8725 92.0873 32.6569 92.1755C32.4412 92.2637 32.2101 92.3086 31.9769 92.3076ZM31.9769 88.9748C31.6115 88.9751 31.2574 89.1012 30.9751 89.3317C30.6927 89.5621 30.4996 89.8827 30.4285 90.2388C30.3574 90.5948 30.4128 90.9644 30.5852 91.2844C30.7576 91.6045 31.0364 91.8553 31.3741 91.9941C31.7117 92.1328 32.0874 92.1511 32.4371 92.0456C32.7868 91.9401 33.0888 91.7175 33.2918 91.4156C33.4948 91.1138 33.5861 90.7513 33.5503 90.3901C33.5144 90.0288 33.3536 89.6911 33.0951 89.4344C32.9485 89.2883 32.7742 89.1725 32.5823 89.0936C32.3904 89.0148 32.1846 88.9744 31.9769 88.9748Z" fill="black"/>
<path d="M25.3728 90.5457C25.3732 90.9307 25.508 91.3037 25.7542 91.6012C26.0005 91.8986 26.3429 92.1021 26.7231 92.1769C27.1034 92.2517 27.498 92.1932 27.8398 92.0115C28.1815 91.8297 28.4493 91.5359 28.5975 91.1801C28.7456 90.8242 28.765 90.4284 28.6523 90.0599C28.5396 89.6915 28.3018 89.3733 27.9794 89.1594C27.657 88.9456 27.2699 88.8494 26.8842 88.8872C26.4984 88.925 26.1377 89.0945 25.8636 89.3668C25.5493 89.6797 25.3728 90.1037 25.3728 90.5457Z" fill="#007AFD"/>
<path d="M27.0506 92.3076C26.6995 92.3077 26.3562 92.2044 26.0642 92.0107C25.7723 91.817 25.5447 91.5416 25.4103 91.2194C25.2759 90.8972 25.2408 90.5427 25.3093 90.2006C25.3778 89.8585 25.5469 89.5444 25.7952 89.2978C26.0435 89.0512 26.3599 88.8833 26.7042 88.8154C27.0486 88.7475 27.4056 88.7825 27.7299 88.9161C28.0542 89.0497 28.3314 89.2758 28.5263 89.5659C28.7212 89.856 28.8251 90.197 28.8249 90.5457C28.8259 90.7774 28.7807 91.0071 28.6919 91.2213C28.6031 91.4356 28.4725 91.6303 28.3075 91.7941C28.1425 91.9579 27.9465 92.0876 27.7308 92.1758C27.515 92.2639 27.2839 92.3087 27.0506 92.3076ZM27.0506 88.9748C26.6852 88.9752 26.3312 89.1014 26.0489 89.332C25.7667 89.5625 25.5736 89.8831 25.5026 90.2392C25.4316 90.5952 25.4871 90.9647 25.6596 91.2847C25.832 91.6047 26.1109 91.8554 26.4485 91.9942C26.7862 92.1329 27.1619 92.151 27.5115 92.0455C27.8612 91.94 28.1632 91.7174 28.3661 91.4155C28.569 91.1136 28.6603 90.7512 28.6245 90.39C28.5886 90.0288 28.4278 89.6911 28.1694 89.4344C28.0227 89.2883 27.8483 89.1724 27.6562 89.0935C27.4642 89.0146 27.2584 88.9743 27.0506 88.9748Z" fill="#242B2B"/>
<path d="M15.5737 21.2562C18.2606 18.5873 18.2606 14.2601 15.5737 11.5912C12.8868 8.92226 8.53047 8.92226 5.84358 11.5912C3.15668 14.2601 3.15668 18.5873 5.84358 21.2562C8.53047 23.9251 12.8868 23.9251 15.5737 21.2562Z" fill="white"/>
<path d="M10.7089 23.3545C9.32894 23.3545 7.98 22.9481 6.83264 22.1865C5.68527 21.425 4.79102 20.3426 4.26297 19.0763C3.73492 17.8099 3.59679 16.4164 3.86604 15.0721C4.13529 13.7277 4.79983 12.4928 5.77563 11.5237C6.75143 10.5545 7.99465 9.89446 9.34808 9.62712C10.7015 9.35977 12.1044 9.4971 13.3792 10.0217C14.6541 10.5463 15.7437 11.4347 16.5103 12.5744C17.2768 13.7142 17.6859 15.0541 17.6858 16.4248C17.6836 18.2621 16.9478 20.0235 15.6398 21.3226C14.3318 22.6217 12.5585 23.3525 10.7089 23.3545ZM10.7089 9.68557C9.36713 9.68557 8.05552 10.0808 6.93989 10.8212C5.82426 11.5616 4.95473 12.6141 4.44124 13.8454C3.92775 15.0767 3.79337 16.4316 4.05509 17.7387C4.31681 19.0459 4.96288 20.2466 5.91159 21.1891C6.86031 22.1315 8.06907 22.7734 9.38502 23.0335C10.701 23.2935 12.065 23.1602 13.3046 22.6502C14.5443 22.1403 15.6039 21.2766 16.3494 20.1685C17.0949 19.0604 17.4929 17.7576 17.493 16.4248C17.4912 14.6381 16.7759 12.9251 15.504 11.6616C14.2322 10.3982 12.5076 9.68749 10.7089 9.68557Z" fill="#242B2B"/>
<path d="M10.7088 15.6565C11.6096 15.6565 12.3398 14.9311 12.3398 14.0364C12.3398 13.1417 11.6096 12.4164 10.7088 12.4164C9.80808 12.4164 9.07788 13.1417 9.07788 14.0364C9.07788 14.9311 9.80808 15.6565 10.7088 15.6565Z" fill="#FF876C"/>
<path d="M13.5104 20.2334H7.9075C7.73968 20.2331 7.57456 20.1915 7.42687 20.1123C7.27918 20.0332 7.15352 19.9189 7.0611 19.7798C6.96868 19.6406 6.91237 19.4809 6.89722 19.3149C6.88206 19.1489 6.90853 18.9818 6.97425 18.8284C7.28599 18.1012 7.80602 17.4811 8.4697 17.0452C9.13339 16.6092 9.91143 16.3767 10.7071 16.3765C11.5028 16.3762 12.2809 16.6083 12.9449 17.0438C13.6088 17.4794 14.1292 18.0992 14.4414 18.8261C14.5075 18.9794 14.5344 19.1466 14.5196 19.3128C14.5048 19.4789 14.4488 19.6388 14.3566 19.7782C14.2643 19.9176 14.1388 20.0321 13.9911 20.1116C13.8435 20.191 13.6783 20.2329 13.5104 20.2334Z" fill="#FF876C"/>
<path d="M55.1438 9.24329H68.4775C68.5521 9.24329 68.6236 9.2727 68.6763 9.32507C68.729 9.37743 68.7586 9.44845 68.7586 9.52251V17.7428H54.8655V9.51971C54.8662 9.44663 54.8958 9.37674 54.9478 9.32505C54.9998 9.27337 55.0702 9.24401 55.1438 9.24329Z" fill="#E099ED"/>
<path d="M68.8525 17.8404H54.7693V10.1898C54.7703 9.91351 54.8813 9.64889 55.0781 9.45366C55.2748 9.25843 55.5414 9.14844 55.8195 9.14771H67.7989C68.0778 9.148 68.3452 9.25818 68.5424 9.45406C68.7396 9.64994 68.8505 9.91553 68.8508 10.1925L68.8525 17.8404ZM54.9621 17.6489H68.6596V10.1925C68.6593 9.96633 68.5687 9.74946 68.4077 9.5895C68.2466 9.42954 68.0283 9.33955 67.8006 9.33925H55.8195C55.5917 9.33955 55.3734 9.42954 55.2124 9.5895C55.0513 9.74946 54.9607 9.96633 54.9604 10.1925L54.9621 17.6489Z" fill="black"/>
<path d="M69.1134 14.2821V21.6044C69.1134 21.7127 69.0919 21.8199 69.0501 21.92C69.0084 22.02 68.9472 22.1109 68.8701 22.1874C68.793 22.264 68.7015 22.3247 68.6007 22.3661C68.5 22.4075 68.392 22.4287 68.283 22.4287H54.6827C54.5737 22.4288 54.4657 22.4076 54.3648 22.3662C54.264 22.3249 54.1724 22.2642 54.0952 22.1876C54.0181 22.1111 53.9569 22.0202 53.9151 21.9201C53.8733 21.82 53.8518 21.7127 53.8518 21.6044V11.9015C53.8518 11.6827 53.9393 11.4729 54.095 11.3182C54.2507 11.1636 54.462 11.0767 54.6822 11.0767H59.6076C59.7946 11.0768 59.9761 11.1397 60.1227 11.255C60.2693 11.3703 60.3725 11.5314 60.4155 11.7122L60.6792 12.8235C60.7221 13.0042 60.8253 13.1653 60.9719 13.2805C61.1186 13.3958 61.3001 13.4585 61.4871 13.4584H68.2824C68.5026 13.4583 68.7137 13.5449 68.8695 13.6994C69.0254 13.8539 69.1131 14.0635 69.1134 14.2821Z" fill="#E099ED"/>
<path d="M68.2829 22.5246H54.6821C54.4365 22.5243 54.201 22.4273 54.0273 22.2548C53.8536 22.0822 53.7559 21.8483 53.7556 21.6043V11.9014C53.7559 11.6574 53.8536 11.4235 54.0273 11.251C54.201 11.0784 54.4365 10.9814 54.6821 10.9811H59.6081C59.8166 10.9809 60.0191 11.0508 60.1824 11.1795C60.3458 11.3082 60.4604 11.488 60.5077 11.6897L60.7719 12.801C60.8093 12.9611 60.9003 13.1039 61.03 13.2059C61.1597 13.308 61.3204 13.3633 61.4859 13.3628H68.2812C68.5269 13.363 68.7625 13.46 68.9362 13.6326C69.1099 13.8051 69.2076 14.0391 69.2077 14.2831V21.6043C69.2076 21.8481 69.1102 22.0818 68.9368 22.2543C68.7635 22.4268 68.5283 22.524 68.2829 22.5246ZM54.6821 11.1715C54.4881 11.1724 54.3023 11.2495 54.1653 11.3861C54.0284 11.5227 53.9514 11.7075 53.9513 11.9003V21.6043C53.9514 21.7971 54.0284 21.9819 54.1653 22.1185C54.3023 22.255 54.4881 22.3322 54.6821 22.3331H68.2829C68.477 22.3322 68.6628 22.255 68.7997 22.1185C68.9367 21.9819 69.0136 21.7971 69.0138 21.6043V14.282C69.0136 14.0893 68.9367 13.9044 68.7997 13.7679C68.6628 13.6313 68.477 13.5541 68.2829 13.5533H61.4876C61.279 13.5535 61.0765 13.4834 60.9132 13.3546C60.7498 13.2258 60.6352 13.0459 60.5881 12.844L60.3244 11.7327C60.2869 11.5728 60.1958 11.4301 60.0661 11.3282C59.9364 11.2263 59.7758 11.171 59.6104 11.1715H54.6821Z" fill="black"/>
<path d="M64.3272 20.7571H58.7991C58.4711 20.7571 58.1565 20.6277 57.9245 20.3973C57.6926 20.1669 57.5623 19.8544 57.5623 19.5286V18.3101H58.1408V19.5303C58.1408 19.616 58.1579 19.701 58.1911 19.7802C58.2242 19.8594 58.2727 19.9313 58.3339 19.9919C58.395 20.0525 58.4676 20.1005 58.5474 20.1332C58.6272 20.1659 58.7127 20.1827 58.7991 20.1825H64.325C64.4993 20.1827 64.6666 20.114 64.7901 19.9917C64.9135 19.8694 64.983 19.7034 64.9833 19.5303V18.3101H65.5618V19.5303C65.5614 19.8554 65.4312 20.1671 65.1998 20.3971C64.9684 20.6271 64.6546 20.7566 64.3272 20.7571Z" fill="white"/>
<path d="M61.7722 15.2046H61.1931V18.3095H61.7722V15.2046Z" fill="white"/>
<path d="M62.5294 17.9952L61.7788 18.8764C61.7423 18.9187 61.6971 18.9527 61.6461 18.976C61.5952 18.9993 61.5397 19.0114 61.4837 19.0114C61.4276 19.0114 61.3721 18.9993 61.3212 18.976C61.2702 18.9527 61.225 18.9187 61.1885 18.8764L60.4368 17.9952C60.3889 17.9391 60.3581 17.8705 60.3482 17.7976C60.3383 17.7247 60.3496 17.6505 60.3809 17.5838C60.4121 17.5171 60.462 17.4607 60.5245 17.4213C60.587 17.3818 60.6596 17.361 60.7337 17.3613H62.2342C62.3081 17.3613 62.3805 17.3824 62.4428 17.4219C62.5051 17.4615 62.5546 17.5179 62.5857 17.5846C62.6167 17.6512 62.6279 17.7253 62.6179 17.798C62.6079 17.8708 62.5772 17.9392 62.5294 17.9952Z" fill="white"/>
<path d="M44.7343 12.9318C46.9997 10.6816 46.9997 7.03327 44.7343 4.78307C42.469 2.53286 38.7961 2.53287 36.5307 4.78307C34.2654 7.03327 34.2654 10.6816 36.5307 12.9318C38.7961 15.182 42.469 15.182 44.7343 12.9318Z" fill="#007AFD"/>
<path d="M40.6326 14.7161C39.4662 14.7161 38.326 14.3725 37.3561 13.7289C36.3863 13.0852 35.6304 12.1703 35.184 11.0998C34.7377 10.0294 34.6209 8.85156 34.8484 7.71521C35.076 6.57886 35.6377 5.53505 36.4624 4.71579C37.2872 3.89652 38.3381 3.3386 39.4821 3.11256C40.6261 2.88653 41.8119 3.00254 42.8895 3.44592C43.9671 3.8893 44.8882 4.64014 45.5362 5.6035C46.1842 6.56685 46.5301 7.69944 46.5301 8.85806C46.5286 10.4113 45.9068 11.9004 44.8011 12.9987C43.6955 14.097 42.1963 14.7146 40.6326 14.7161ZM40.6326 3.19211C39.5043 3.192 38.4013 3.52425 37.4631 4.14685C36.5248 4.76945 35.7936 5.65444 35.3617 6.68988C34.9299 7.72532 34.8169 8.86471 35.037 9.96396C35.2571 11.0632 35.8004 12.0729 36.5982 12.8654C37.3961 13.658 38.4126 14.1976 39.5193 14.4163C40.6259 14.6349 41.773 14.5226 42.8154 14.0937C43.8578 13.6647 44.7488 12.9383 45.3755 12.0064C46.0023 11.0745 46.3368 9.97883 46.3367 8.85806C46.3355 7.35551 45.7343 5.91481 44.6648 4.85214C43.5954 3.78947 42.1453 3.19165 40.6326 3.18987V3.19211Z" fill="black"/>
<path d="M41.4889 10.8075C41.6559 10.9729 41.7601 11.1908 41.7835 11.4239C41.8069 11.6571 41.7483 11.8911 41.6174 12.086C41.4866 12.281 41.2918 12.4249 41.0661 12.4931C40.8405 12.5613 40.598 12.5497 40.38 12.4602C40.162 12.3707 39.982 12.2089 39.8706 12.0023C39.7593 11.7958 39.7236 11.5572 39.7695 11.3274C39.8154 11.0976 39.9402 10.8907 40.1225 10.742C40.3048 10.5934 40.5334 10.5121 40.7693 10.5121C41.0391 10.512 41.2978 10.6183 41.4889 10.8075Z" fill="white"/>
</svg>
