<svg width="94" height="94" viewBox="0 0 94 94" fill="none" xmlns="http://www.w3.org/2000/svg">
<g clip-path="url(#clip0_458_14726)">
<path d="M85.5362 86.2562C85.5362 88.7568 83.5091 90.7839 81.0085 90.7839H12.9914C10.4908 90.7839 8.46372 88.7568 8.46372 86.2562V41.1194C8.46372 39.8874 7.12322 38.7069 8.00257 37.8439L28.3647 17.859L33.3899 14.7288L35.2951 11.0572L43.9597 2.55304C45.685 0.989483 48.3149 0.989483 50.0402 2.55304L58.7048 11.0572L60.6098 14.7288L65.9996 18.217L85.9971 37.8441C86.8765 38.7071 85.536 39.8875 85.536 41.1195L85.5362 86.2562Z" fill="#8EBAFF"/>
<path d="M23.5508 22.5839H70.4493L58.7049 11.0571H35.2951L23.5508 22.5839Z" fill="#7AA3FF"/>
<path d="M78.3376 49.3421V19.3183C78.3376 16.7836 76.2828 14.7288 73.7481 14.7288H18.4159C15.8812 14.7288 13.8264 16.7836 13.8264 19.3183V49.3421L39.9794 67.9286L44.8193 65.2689C46.1773 64.5227 47.8225 64.5227 49.1805 65.2689L54.0204 67.9286L78.3376 49.3421Z" fill="#F7F9FA"/>
<path d="M54.0204 69.7642L49.1805 67.1045C47.8225 66.3582 46.1773 66.3582 44.8193 67.1045L39.9794 69.7642L13.8264 49.3418V38.517L38.5179 63.1648C39.3841 64.0295 40.717 64.2188 41.7895 63.6293L44.8193 61.9642C46.1773 61.218 47.8225 61.218 49.1805 61.9642L52.2103 63.6293C53.2829 64.2188 54.6157 64.0295 55.4818 63.1648L73.3189 45.3594C74.1813 44.4984 74.666 43.3299 74.666 42.1113V19.318C74.666 16.7833 72.6112 14.7285 70.0765 14.7285H75.5839C78.1186 14.7285 80.1734 16.7833 80.1734 19.318V49.3418L54.0204 69.7642Z" fill="#DCE6EB"/>
<path d="M6.62793 88.0921C6.62793 90.4577 8.44244 92.3983 10.7554 92.6012L39.9795 69.7644L8.00258 37.844C7.12323 38.707 6.62793 39.8874 6.62793 41.1194V88.0921Z" fill="#F7F9FA"/>
<path d="M87.0049 88.0921C87.0049 90.4577 85.5576 92.3983 83.2446 92.6012L54.0205 69.7644L85.9974 37.844C86.8768 38.707 87.0049 39.8874 87.0049 41.1194V88.0921Z" fill="#F7F9FA"/>
<path d="M87.372 41.1194C87.372 39.8874 86.8767 38.707 85.9974 37.844L81.8646 41.9694V88.0921C81.8646 89.1133 81.5259 90.0551 80.9553 90.8124L83.2446 92.6012C85.5575 92.3985 87.372 90.4577 87.372 88.0921V41.1194Z" fill="#DCE6EB"/>
<path d="M11.1556 92.6197H82.8443C85.0355 90.5004 85.0355 90.5004 87.372 88.092L49.1805 67.1046C47.8226 66.3584 46.1773 66.3584 44.8194 67.1046L6.62793 88.092C6.62793 90.5926 8.65502 92.6197 11.1556 92.6197Z" fill="#E099ED"/>
<path d="M81.8645 85.0654V88.0919C81.8645 90.5925 79.8375 92.6196 77.3369 92.6196H82.8443C85.3449 92.6196 87.372 90.5925 87.372 88.0919L81.8645 85.0654Z" fill="#E099ED"/>
<path d="M52.7408 30.7043C52.7447 29.9438 52.1311 29.3244 51.3707 29.3207C51.3684 29.3207 51.3662 29.3207 51.3638 29.3207C50.6065 29.3207 49.991 29.9327 49.9871 30.6908L49.9836 31.3843C49.0094 30.6344 47.8231 30.2098 46.5027 30.2098C43.2554 30.2098 39.8963 33.0193 39.8963 37.7206C39.8963 42.0085 42.8003 45.497 46.3698 45.497C47.9216 45.497 49.3266 44.8429 50.4174 43.7416C50.634 44.1802 50.9182 44.5841 51.2641 44.9318C52.0318 45.7034 53.0209 46.1284 54.0495 46.1284C57.0261 46.1284 58.9109 44.0561 59.6827 42.1168C60.8804 39.1053 61.0957 36.5679 60.3809 33.8898C60.377 33.8757 60.373 33.8614 60.3687 33.8472C59.2865 30.2615 56.8653 27.3255 53.5511 25.5801C50.2373 23.8348 46.4457 23.4999 42.8741 24.637C39.4898 25.7143 36.6742 28.0369 34.946 31.1769C33.2172 34.3177 32.7627 37.9389 33.6659 41.3731C34.4483 44.3478 36.1374 46.9143 38.551 48.7945C40.8747 50.605 43.7692 51.6468 46.7012 51.7279C46.7142 51.7283 46.7271 51.7285 46.7399 51.7285C47.4825 51.7285 48.0948 51.1368 48.1157 50.3896C48.1366 49.6294 47.5376 48.9963 46.7774 48.9753C41.8754 48.8398 37.5791 45.4256 36.3291 40.6729C35.6064 37.9247 35.972 35.024 37.3584 32.5047C38.745 29.9854 41.0003 28.1234 43.7094 27.2611C46.5727 26.3496 49.612 26.618 52.2679 28.0165C54.9166 29.4116 56.8537 31.7553 57.7248 34.6181C58.3086 36.8227 57.9565 39.0058 57.1241 41.0992C56.8519 41.7834 56.0074 43.3749 54.0497 43.3749C53.658 43.3749 53.3593 43.1336 53.2163 42.9897C52.8823 42.6539 52.6843 42.1597 52.6866 41.6677L52.7408 30.7043ZM46.3698 42.7433C44.5808 42.7433 42.65 40.8229 42.65 37.7206C42.65 34.7427 44.6088 32.9635 46.5027 32.9635C48.4827 32.9635 49.8808 34.8028 49.9535 37.4634L49.9511 37.9668C49.8461 40.6256 48.2802 42.7433 46.3698 42.7433Z" fill="black"/>
<path d="M88.7489 88.0972C88.7489 88.0966 88.7489 88.0961 88.7489 88.0955V41.1229C88.7489 39.5382 88.1027 37.993 86.9761 36.8794C86.9746 36.878 86.9733 36.8761 86.9719 36.8747C86.9711 36.8739 86.9702 36.8732 86.9693 36.8723C86.9667 36.8699 86.9645 36.8671 86.9619 36.8647L81.5504 31.5536V28.4481C81.5504 27.6876 80.9341 27.0713 80.1735 27.0713C79.4129 27.0713 78.7967 27.6876 78.7967 28.4481V43.0901L53.7785 68.0638L49.8437 65.9018C48.0635 64.9231 45.9371 64.923 44.1564 65.9016L40.2215 68.0638L15.2034 43.0901V19.3216C15.2034 17.5503 16.6447 16.109 18.4161 16.109H75.584C77.3554 16.109 78.7967 17.5503 78.7967 19.3216V22.5874C78.7967 23.3479 79.4129 23.9642 80.1735 23.9642C80.9341 23.9642 81.5504 23.3479 81.5504 22.5874V19.3216C81.5504 16.0317 78.8739 13.3553 75.584 13.3553H63.0086L51.0048 1.57386C50.9918 1.561 50.9784 1.54834 50.9648 1.53622C48.7046 -0.511982 45.2955 -0.512166 43.0351 1.53622C43.0215 1.54834 43.0083 1.561 42.9952 1.57386L30.9913 13.3553H18.4159C15.1261 13.3553 12.4495 16.0317 12.4495 19.3216V31.5538L7.03795 36.8649C7.03574 36.8671 7.03354 36.8695 7.03134 36.8719C7.03023 36.873 7.02913 36.8737 7.02803 36.8748C7.02601 36.8769 7.02436 36.8791 7.02252 36.8809C5.89681 37.9945 5.25098 39.5391 5.25098 41.1229V56.8348C5.25098 57.5953 5.86744 58.2116 6.62783 58.2116C7.38822 58.2116 8.00468 57.5953 8.00468 56.8348V41.1229C8.00468 40.7381 8.07885 40.359 8.21212 40.0023L12.8536 44.6355L37.7074 69.4453L8.00486 85.7679V62.8353C8.00486 62.0747 7.3884 61.4584 6.62801 61.4584C5.86762 61.4584 5.25116 62.0747 5.25116 62.8353V88.0955V88.097C5.25116 88.1043 5.25153 88.1115 5.25171 88.1189C5.26438 91.3638 7.90756 94 11.1556 94H61.9883C62.7488 94 63.3651 93.3837 63.3651 92.6232C63.3651 91.8626 62.7488 91.2463 61.9883 91.2463H11.1556C9.68113 91.2463 8.44362 90.2269 8.10179 88.8567L40.6427 70.9745L45.4826 68.3148C46.4328 67.7927 47.5671 67.7925 48.5173 68.315L53.357 70.9745L85.8981 88.8568C85.5563 90.2269 84.3186 91.2463 82.8442 91.2463H67.9889C67.2284 91.2463 66.6121 91.8626 66.6121 92.6232C66.6121 93.3837 67.2284 94 67.9889 94H82.8444C86.0923 94 88.7357 91.3638 88.7484 88.1189C88.7485 88.1115 88.7489 88.1043 88.7489 88.0972ZM44.9028 3.56019C46.1031 2.48955 47.8974 2.48937 49.0973 3.56019L59.0774 13.3553H34.9227L44.9028 3.56019ZM12.4497 40.3412L9.95981 37.8557L12.4497 35.4121V40.3412ZM81.1463 44.6355L85.7878 40.0021C85.921 40.3588 85.9952 40.7381 85.9952 41.1229V85.7677L56.2923 69.4453L81.1463 44.6355ZM84.0403 37.8557L81.5504 40.3412V35.4121L84.0403 37.8557Z" fill="black"/>
</g>
<defs>
<clipPath id="clip0_458_14726">
<rect width="94" height="94" fill="white"/>
</clipPath>
</defs>
</svg>
