<svg width="102" height="99" viewBox="0 0 102 99" fill="none" xmlns="http://www.w3.org/2000/svg">
<g clip-path="url(#clip0_458_14907)">
<path d="M20.0849 41.1699H0.959717V52.9554H20.0849V41.1699Z" fill="#4F91FF"/>
<path d="M50.1423 52.9542C50.4791 50.9932 49.9759 48.3206 48.3281 48.3244C46.1493 48.3286 44.755 56.3976 44.755 56.3976L41.7165 57.7021L44.0497 69.9104C46.9703 68.6264 45.9629 69.0688 46.181 68.9734C47.0445 68.59 48.0943 68.1197 49.1679 67.6216L49.2433 71.4287C43.6719 69.6519 37.0238 70.4218 31.7536 73.8205C27.1365 70.5317 20.9311 69.7256 15.4485 72.156C16.6431 42.96 16.309 51.1457 16.3912 49.1151C17.128 44.8852 20.6151 41.814 24.6823 41.814H43.6218C46.9614 41.814 50.1702 43.1661 52.5945 45.5935L57.154 50.1599C55.3119 50.4871 52.7013 51.6414 50.1423 52.9542Z" fill="#DBDFE6"/>
<path d="M77.599 55.8208L65.4175 67.6495C61.2143 71.2985 55.114 71.0968 51.1366 67.1757L50.8079 66.85C52.749 65.9248 54.5169 65.0196 55.1576 64.5105C56.7103 63.2768 56.5163 61.7509 54.7454 62.0041C56.6807 60.4523 56.1543 58.6009 53.6561 59.2406C54.8843 58.4063 55.8389 57.4341 55.1338 56.4374C54.8246 56.0026 53.7434 55.8999 52.3962 56.3464C54.325 55.6547 58.1008 54.018 59.2853 52.2942L59.4832 52.492L69.2838 44.7588L69.3473 44.842C69.272 45.3123 69.2206 45.6839 69.1889 45.8974L77.488 55.6902C77.4919 55.6902 77.4919 55.6864 77.4957 55.6864L77.599 55.8208Z" fill="#DBDFE6"/>
<path d="M36.3774 40.9854H24.0891V42.8575H36.3774V40.9854Z" fill="#DBDFE6"/>
<path d="M44.0971 70.5389L44.1012 70.6378L28.4062 71.9858C25.9137 70.9739 23.177 70.5587 20.499 70.8235H20.4963C17.6626 69.227 15.5745 66.3901 14.879 62.9481L13.1082 50.0368C12.5221 45.6958 15.6992 41.8135 19.8438 41.8135H24.9179L27.9326 57.2876C49.5574 56.4172 21.8945 57.5298 42.9897 56.6826C45.6395 67.5986 44.7404 63.8943 46.1273 69.6182L44.0971 70.5389Z" fill="#DBDFE6"/>
<path d="M16.7908 17.5424C16.5926 18.5027 16.0327 19.3799 15.2276 19.8777C14.0476 20.6082 11.9082 20.7 11.2017 22.3948C10.8275 23.2918 11.0598 24.6833 10.3174 25.1192C10.0581 25.2717 10.1691 25.6694 10.4682 25.6694C10.521 25.6694 10.5729 25.6552 10.6183 25.6283C11.6889 24.9984 11.4008 23.4552 11.7488 22.6207C12.3366 21.2106 14.2784 21.1602 15.5398 20.3799C16.6231 19.71 17.3397 18.4601 17.4522 17.1497C17.4949 17.1201 17.5383 17.094 17.5807 17.0647C17.7789 23.2835 19.6898 32.5261 24.2594 37.1386C24.2463 38.8994 24.2825 38.4807 24.2315 39.0958C24.1722 39.7979 24.1461 40.3833 24.3143 40.747H23.6099C23.5312 40.747 23.4557 40.7782 23.4001 40.8337C23.3444 40.8893 23.3131 40.9646 23.3131 41.0431C23.3131 41.1217 23.3444 41.197 23.4001 41.2525C23.4557 41.3081 23.5312 41.3393 23.6099 41.3393C23.6496 41.3393 36.3234 41.3535 36.7525 41.3393C36.8312 41.3393 36.9066 41.3081 36.9623 41.2525C37.0179 41.197 37.0492 41.1217 37.0492 41.0431C37.0492 40.9646 37.0179 40.8893 36.9623 40.8337C36.9066 40.7782 36.8312 40.747 36.7525 40.747H35.7994C35.7866 39.8553 35.8765 38.9634 35.9208 38.1076C37.1397 38.3125 38.3284 38.3542 39.4586 38.2322C41.7627 37.985 43.9318 36.4531 45.1196 34.2345C45.8317 32.895 46.2356 31.2699 46.3931 29.1214C46.6295 26.0056 46.3633 22.8722 45.6044 19.8406C46.1136 17.5803 45.8537 15.1783 45.1593 13.4116C45.978 12.9754 46.5382 12.1803 46.586 10.9771C46.6792 8.51299 44.4614 6.41045 42.2128 5.59638C31.4802 1.70342 24.2609 4.21107 20.499 8.02911C20.0895 6.64291 20.8017 5.25257 22.0067 4.8143C22.477 4.64284 23.0526 4.61678 23.5832 4.47967C25.3555 4.02244 26.7225 2.22669 26.7626 0.3042C26.7641 0.225858 26.7344 0.150111 26.6801 0.0935513C26.6258 0.0369913 26.5512 0.00422908 26.4727 0.00244141C26.3947 0.00273938 26.3198 0.0329391 26.2636 0.0867923C26.2073 0.140646 26.1739 0.21403 26.1703 0.291762C26.1341 1.95751 24.9582 3.5122 23.4339 3.90576C22.912 4.0405 22.3529 4.05679 21.8019 4.25697C20.7539 4.63869 19.8969 5.65798 19.8005 6.98909C18.4729 4.45864 16.1336 2.04368 13.3319 1.41055C10.8548 0.851157 8.0798 1.86867 6.59617 4.28303C5.44309 6.16466 5.16862 8.69363 5.63507 10.962C6.6935 16.1029 11.7429 20.2126 16.7908 17.5424ZM45.802 29.077C45.651 31.1419 45.2679 32.6928 44.5964 33.9564C43.5 36.0047 41.5069 37.4179 39.3948 37.6444C36.6857 37.9385 35.1543 37.4943 33.3826 36.4335C33.3155 36.3986 33.2376 36.3906 33.1648 36.4111C33.0921 36.4316 33.0299 36.4791 32.991 36.5438C32.9521 36.6085 32.9394 36.6856 32.9555 36.7593C32.9717 36.8331 33.0154 36.8979 33.0778 36.9405C33.7903 37.3657 34.5451 37.716 35.33 37.9859C35.2772 39.0958 35.1941 39.8388 35.2065 40.7473C24.4449 40.6738 25.0315 40.6543 24.8715 40.5367C24.7187 40.3887 24.7965 39.4529 24.8223 39.1449C24.8677 38.5994 24.8632 31.9637 24.8632 31.9234C25.308 31.8675 25.7394 31.7334 26.1374 31.5275C26.1743 31.5111 26.2076 31.4874 26.235 31.4577C26.2624 31.4281 26.2835 31.3932 26.2969 31.3551C26.3103 31.317 26.3158 31.2766 26.313 31.2364C26.3102 31.1961 26.2992 31.1568 26.2807 31.121C26.2621 31.0851 26.2364 31.0534 26.2051 31.0278C26.1739 31.0022 26.1377 30.9833 26.0988 30.9722C26.0599 30.9611 26.0192 30.958 25.9791 30.9631C25.939 30.9683 25.9004 30.9816 25.8656 31.0022C24.2039 31.8609 22.2176 31.1052 21.4218 29.3776C20.6076 27.6177 21.2945 25.4894 22.9529 24.6327C24.5897 23.7836 26.5846 24.4896 27.4003 26.2534C27.4916 26.45 27.3614 26.1225 28.1643 26.9241C28.1643 26.3319 28.1011 25.7396 28.1168 25.145C28.1643 22.7543 28.9207 19.6458 29.642 18.7325C30.153 18.081 31.1553 17.8785 31.8802 17.5347C34.4914 16.2968 36.8391 14.4549 38.6456 12.1451C39.885 12.8407 41.2568 13.5976 42.6811 13.7738C45.2249 18.7766 46.1952 23.9492 45.802 29.077Z" fill="black"/>
<path d="M39.6056 23.8509C39.5615 23.9099 39.5409 23.9832 39.548 24.0565C39.5551 24.1298 39.5893 24.1979 39.6439 24.2474C41.6994 26.1047 43.3486 25.7751 45.2877 23.7197C45.337 23.6672 45.3656 23.5986 45.3679 23.5266C45.3702 23.4547 45.3463 23.3844 45.3004 23.3288C44.6601 22.5547 43.6862 22.0554 42.7631 22.0229C41.5344 21.9639 40.3742 22.8319 39.6056 23.8509ZM40.2498 23.9909C40.8356 23.2876 41.7002 22.6373 42.6091 22.6178C42.4734 22.9693 42.415 23.3458 42.4381 23.7218C42.4611 24.0978 42.565 24.4644 42.7426 24.7967C41.8014 25.0552 41.0163 24.6362 40.251 23.9909H40.2498Z" fill="black"/>
<path d="M34.5115 23.1437C33.4685 23.269 32.4371 23.9456 31.6071 25.0487C31.5629 25.1077 31.5424 25.1811 31.5495 25.2544C31.5565 25.3277 31.5907 25.3958 31.6454 25.4453C33.845 27.4335 35.5652 27.0127 37.5675 24.8903C37.6168 24.8378 37.6454 24.7692 37.6477 24.6973C37.65 24.6253 37.6261 24.555 37.5802 24.4994C36.7571 23.5032 35.4933 23.0232 34.5115 23.1437ZM32.2507 25.1891C32.8738 24.4378 33.7961 23.7413 34.7652 23.7247C34.6171 24.099 34.553 24.5012 34.5772 24.9029C34.6015 25.3046 34.7135 25.6961 34.9055 26.05C33.897 26.3283 33.0572 25.8714 32.2507 25.1891Z" fill="black"/>
<path d="M25.0095 27.6732L23.879 27.3095C23.8412 27.2947 23.8009 27.2878 23.7604 27.2892C23.7199 27.2906 23.6801 27.3003 23.6435 27.3176C23.6069 27.3349 23.5742 27.3596 23.5475 27.39C23.5208 27.4204 23.5006 27.4559 23.4882 27.4944C23.4757 27.5329 23.4714 27.5735 23.4753 27.6138C23.4792 27.654 23.4913 27.693 23.5109 27.7284C23.5305 27.7638 23.5572 27.7948 23.5892 27.8196C23.6213 27.8443 23.6581 27.8622 23.6974 27.8722C24.8899 28.2509 24.8356 28.2509 24.9175 28.2509C24.9877 28.2503 25.0555 28.2248 25.1087 28.179C25.1619 28.1332 25.197 28.07 25.2079 28.0007C25.2188 27.9315 25.2047 27.8606 25.1682 27.8007C25.1316 27.7408 25.075 27.6959 25.0083 27.6738L25.0095 27.6732Z" fill="black"/>
<path d="M41.9794 32.6766C41.0682 33.6912 39.5344 33.6705 38.6475 32.634C38.5957 32.5766 38.5235 32.5417 38.4463 32.5368C38.3691 32.5318 38.2929 32.5571 38.2342 32.6073C38.1754 32.6575 38.1386 32.7286 38.1316 32.8055C38.1246 32.8824 38.148 32.959 38.1968 33.019C39.3104 34.3199 41.2611 34.3631 42.4204 33.0723C42.4492 33.0439 42.4719 33.0099 42.4871 32.9725C42.5023 32.935 42.5096 32.8948 42.5087 32.8544C42.5077 32.814 42.4985 32.7743 42.4815 32.7376C42.4646 32.7008 42.4403 32.668 42.4102 32.641C42.38 32.614 42.3447 32.5935 42.3063 32.5806C42.2679 32.5678 42.2272 32.563 42.1869 32.5664C42.1465 32.5698 42.1073 32.5814 42.0716 32.6005C42.036 32.6197 42.0046 32.6459 41.9794 32.6775V32.6766Z" fill="black"/>
<path d="M43.1787 56.7521C43.0253 56.1983 43.0802 56.0076 42.8764 55.9043C42.8375 55.8846 42.7948 55.8738 42.7512 55.8725C42.7077 55.8713 42.6644 55.8796 42.6244 55.8969C38.8753 57.517 35.2036 58.7673 31.7114 59.6127C31.6715 59.6198 31.6335 59.6349 31.5997 59.6572C31.5659 59.6795 31.537 59.7085 31.5148 59.7423C31.4926 59.7762 31.4777 59.8142 31.4708 59.854C31.4639 59.8939 31.4653 59.9347 31.4748 59.974C31.4844 60.0133 31.5019 60.0503 31.5263 60.0826C31.5507 60.1149 31.5814 60.1418 31.6166 60.1618C31.6519 60.1818 31.6908 60.1943 31.7311 60.1987C31.7714 60.2031 31.8122 60.1992 31.8509 60.1872C35.2739 59.358 38.8658 58.1457 42.533 56.58C42.7704 57.451 42.6915 58.1344 46.0641 69.5802C45.6258 69.8171 45.1781 70.0458 44.7288 70.2658C40.0456 69.9303 35.4953 71.1068 31.7619 73.464C24.8075 68.6415 15.4716 69.7624 9.82934 75.7602C9.80022 75.788 9.77709 75.8215 9.76135 75.8585C9.74562 75.8955 9.7376 75.9354 9.7378 75.9756C9.73799 76.0158 9.7464 76.0555 9.76249 76.0924C9.77859 76.1293 9.80204 76.1625 9.83142 76.19C9.8608 76.2176 9.89549 76.2388 9.93337 76.2525C9.97126 76.2662 10.0115 76.2721 10.0518 76.2698C10.092 76.2674 10.1313 76.2569 10.1674 76.2389C10.2034 76.2209 10.2354 76.1958 10.2614 76.165C15.7553 70.3247 24.882 69.2891 31.5821 74.0607C31.6304 74.095 31.6879 74.114 31.7472 74.1153C31.8065 74.1166 31.8648 74.1002 31.9147 74.0681C41.3019 68.0155 54.181 70.5498 60.3871 80.2611C60.4315 80.3223 60.4976 80.3642 60.5719 80.3783C60.6462 80.3923 60.7231 80.3776 60.7869 80.337C60.8507 80.2963 60.8965 80.233 60.915 80.1597C60.9335 80.0865 60.9233 80.009 60.8865 79.9431C58.2527 75.8212 54.041 72.615 49.3337 71.1465C48.188 70.7841 47.0116 70.5271 45.819 70.3786C46.0685 70.2486 46.3172 70.1171 46.5608 69.9833C46.621 69.9503 46.6678 69.8975 46.6934 69.8339C46.7189 69.7703 46.7216 69.6998 46.7009 69.6344L46.5427 69.1357C48.0818 68.4508 54.0163 65.7942 55.3418 64.7408C56.2875 63.9896 56.7068 63.0627 56.4127 62.3798C56.3296 62.1879 56.094 61.8171 55.4863 61.7096C56.681 60.3729 56.4112 58.9032 54.6813 58.8277C55.5261 58.0811 56.0231 57.1812 55.3751 56.2655C55.2086 56.0316 54.9142 55.8776 54.5312 55.8062C56.5887 54.8968 60.6155 52.8591 59.861 50.7388C58.9654 48.2395 52.8926 51.2363 50.5067 52.4365C50.6693 50.5819 50.147 48.0283 48.3317 48.0283H48.3272C46.0762 48.0325 44.7368 54.824 44.4905 56.1885L43.1787 56.7521ZM45.0466 56.4474C45.5697 53.4221 46.9234 48.6227 48.3293 48.62H48.3326C49.7957 48.62 50.1007 51.2464 49.8654 52.7904L49.0711 53.3563C49.037 53.3779 49.0077 53.4062 48.985 53.4395C48.9622 53.4727 48.9465 53.5103 48.9388 53.5498C48.9311 53.5894 48.9316 53.63 48.9402 53.6694C48.9487 53.7088 48.9653 53.7459 48.9888 53.7787C49.0122 53.8115 49.0422 53.8391 49.0767 53.8599C49.1113 53.8807 49.1497 53.8943 49.1897 53.8998C49.2297 53.9052 49.2704 53.9025 49.3093 53.8918C49.3481 53.881 49.3844 53.8625 49.4159 53.8373L50.3061 53.2021C52.1182 52.2734 58.6183 49.0331 59.3019 50.9378C59.4304 51.2982 59.3429 51.6971 59.0399 52.1265C58.0147 53.6178 54.7671 55.1814 52.295 56.0677C52.2251 56.0966 52.1689 56.151 52.1379 56.2198C52.1068 56.2887 52.1033 56.3667 52.128 56.4381C52.1527 56.5094 52.2038 56.5687 52.2708 56.6037C52.3378 56.6387 52.4157 56.6469 52.4885 56.6265C53.8238 56.1847 54.711 56.3541 54.8905 56.6076C55.0484 56.8306 55.1047 57.0518 55.0626 57.2833C54.9736 57.7767 54.4582 58.3367 53.4882 58.9953C53.2167 59.1795 53.4054 59.6065 53.7285 59.5262C54.7596 59.2621 55.3139 59.5345 55.4246 59.6491C55.9973 60.25 55.2142 61.2483 54.5588 61.773C54.3214 61.9631 54.495 62.3422 54.7864 62.296C56.3418 62.0742 56.1733 63.3241 54.9718 64.2801C53.7238 65.2721 47.8133 67.9225 46.3667 68.5684C45.2074 64.8566 44.1814 61.0824 43.3143 57.339L44.8715 56.6703C44.9171 56.6507 44.9569 56.6201 44.9875 56.5811C45.0181 56.5422 45.0384 56.4962 45.0466 56.4474Z" fill="black"/>
<path d="M32.5998 21.3448C33.5247 20.6611 34.7897 20.5272 35.8226 21.0034C35.8933 21.032 35.9723 21.0323 36.0432 21.0043C36.1141 20.9763 36.1716 20.9222 36.2035 20.853C36.2355 20.7839 36.2395 20.7051 36.2148 20.6331C36.1902 20.5611 36.1386 20.5013 36.0709 20.4662C34.8446 19.9015 33.3434 20.0593 32.247 20.8695C32.191 20.9186 32.1555 20.9869 32.1477 21.0609C32.1398 21.1348 32.1601 21.209 32.2046 21.2687C32.249 21.3285 32.3144 21.3693 32.3876 21.3831C32.4608 21.3969 32.5366 21.3827 32.5998 21.3433V21.3448Z" fill="black"/>
<path d="M40.3928 20.1667C40.9566 19.3985 42.001 19.0366 42.8799 19.3052C42.9179 19.3195 42.9583 19.3259 42.9989 19.324C43.0394 19.3221 43.0791 19.312 43.1155 19.2941C43.1519 19.2763 43.1843 19.2513 43.2106 19.2205C43.2369 19.1897 43.2566 19.1539 43.2685 19.1152C43.2805 19.0765 43.2843 19.0358 43.2798 18.9955C43.2753 18.9553 43.2626 18.9164 43.2425 18.8813C43.2224 18.8462 43.1953 18.8155 43.1628 18.7912C43.1304 18.767 43.0933 18.7496 43.0538 18.7402C41.9239 18.394 40.6331 18.8373 39.9148 19.8175C39.8889 19.8486 39.8697 19.8847 39.8584 19.9234C39.847 19.9622 39.8437 20.0029 39.8487 20.043C39.8537 20.0831 39.8668 20.1217 39.8873 20.1566C39.9078 20.1914 39.9353 20.2217 39.9679 20.2455C40.0006 20.2694 40.0378 20.2863 40.0773 20.2953C40.1167 20.3043 40.1576 20.3051 40.1974 20.2977C40.2372 20.2903 40.2751 20.2749 40.3087 20.2523C40.3423 20.2298 40.3709 20.2006 40.3928 20.1667Z" fill="black"/>
<path d="M40.9286 29.2676C41.2137 28.2661 40.2354 27.4967 39.9123 26.9539C39.7666 26.7084 39.6571 26.3513 39.7874 26.0848C39.8073 26.0496 39.8197 26.0107 39.824 25.9706C39.8283 25.9305 39.8243 25.8899 39.8123 25.8513C39.8003 25.8127 39.7805 25.7771 39.7542 25.7464C39.7279 25.7158 39.6955 25.6908 39.6592 25.6731C39.6228 25.6554 39.5832 25.6453 39.5428 25.6434C39.5024 25.6415 39.462 25.6479 39.4242 25.6621C39.3863 25.6764 39.3518 25.6982 39.3227 25.7263C39.2936 25.7544 39.2706 25.7881 39.2551 25.8253C39.0565 26.2313 39.1117 26.7659 39.4034 27.2557C39.7678 27.8687 40.5446 28.455 40.3592 29.1059C40.2589 29.4574 39.8449 29.63 39.5191 29.5859C39.1818 29.5418 38.8313 29.3298 38.4474 28.9374C38.3915 28.8862 38.318 28.8583 38.2421 28.8594C38.1663 28.8606 38.0937 28.8907 38.0394 28.9436C37.9851 28.9965 37.9532 29.0682 37.9502 29.1439C37.9472 29.2196 37.9734 29.2935 38.0233 29.3505C38.5037 29.8415 38.9678 30.1104 39.442 30.1726C40.0532 30.2516 40.7461 29.9096 40.9286 29.2676Z" fill="black"/>
<path d="M101.859 39.2894C97.4196 36.5516 77.9501 24.9326 57.1143 11.8492C57.0319 11.7963 56.9394 11.761 56.8426 11.7454C56.7458 11.7298 56.6469 11.7344 56.552 11.7587C56.4571 11.7831 56.3682 11.8267 56.291 11.8869C56.2137 11.9471 56.1497 12.0226 56.1031 12.1086L48.5635 25.5515C48.365 25.9092 48.4819 26.3733 48.8232 26.5853C55.8514 30.9977 62.4687 35.0976 70.2468 39.8547C69.413 42.0165 68.8638 45.8307 68.9059 45.9775C68.9208 46.0131 68.9385 46.0474 68.959 46.08C69.0053 46.1392 77.227 55.8399 77.2623 55.882C77.3056 55.933 77.3649 55.9679 77.4306 55.981C77.4962 55.9941 77.5644 55.9847 77.624 55.9542C80.5162 54.5174 84.4375 52.111 86.8647 49.9647C96.5163 55.8313 92.4728 53.3533 93.568 54.0279C93.6021 54.049 93.6401 54.063 93.6798 54.069C93.7194 54.075 93.7599 54.0729 93.7987 54.0629C93.8375 54.0529 93.8739 54.0351 93.9057 54.0107C93.9374 53.9862 93.9639 53.9556 93.9835 53.9207L101.964 39.6865C102.001 39.6196 102.011 39.5409 101.992 39.4668C101.972 39.3928 101.924 39.3292 101.859 39.2894ZM92.9687 48.0596C92.9731 48.1377 92.9465 48.2143 92.8946 48.2728C92.8427 48.3314 92.7697 48.367 92.6915 48.3721H92.6755C92.6 48.3722 92.5273 48.3437 92.4722 48.2922C92.4171 48.2408 92.3837 48.1703 92.3788 48.0952L92.1856 44.7507H92.1559C90.6269 44.7507 89.3355 43.4856 89.2403 41.8566C89.1436 40.1342 90.3975 38.7297 91.9619 38.6385C93.5583 38.5476 94.9368 39.8443 95.0359 41.5284C95.1211 43.0523 94.1535 44.3615 92.774 44.6793L92.9687 48.0596ZM49.1383 26.0842C49.1006 26.0573 49.074 26.0175 49.0636 25.9723C49.0532 25.9272 49.0596 25.8798 49.0816 25.8391L56.622 12.3946C56.6298 12.3793 56.6408 12.3658 56.6542 12.355C56.6676 12.3442 56.6832 12.3364 56.6999 12.3322C56.7166 12.3279 56.734 12.3272 56.751 12.3301C56.7679 12.3331 56.7841 12.3396 56.7983 12.3493C68.608 19.7642 78.1846 25.6051 88.7726 32.0421L81.0821 45.7575C78.9887 44.4841 76.9368 43.2374 74.9034 41.9966C75.0428 39.8349 74.677 37.0216 72.5141 37.2801C71.729 37.3716 71.0524 38.04 70.4765 39.3009C62.7364 34.567 56.1416 30.4818 49.1383 26.0842ZM77.5647 55.3226L69.5015 45.8078C69.7869 43.9319 70.651 38.0936 72.5833 37.8685C72.9904 37.8209 73.3135 37.9224 73.5725 38.1804C74.45 39.0537 74.3793 41.497 74.2782 42.3638C74.2654 42.4728 74.3375 42.6007 74.4025 42.6514C75.4007 43.4261 76.0567 44.8253 75.7743 46.4025C75.765 46.4417 75.7639 46.4823 75.771 46.5219C75.778 46.5615 75.793 46.5993 75.8152 46.6329C75.8374 46.6665 75.8661 46.6953 75.8998 46.7174C75.9335 46.7396 75.9713 46.7546 76.011 46.7617C76.0507 46.7688 76.0914 46.7677 76.1306 46.7585C76.1699 46.7494 76.2069 46.7324 76.2393 46.7085C76.2717 46.6846 76.299 46.6543 76.3193 46.6196C76.3396 46.5849 76.3527 46.5464 76.3576 46.5064C76.5772 45.2804 76.3208 44.1211 75.6716 43.1601C84.0648 48.2726 82.1978 47.1496 86.3333 49.6428C83.7244 51.9076 79.7103 54.2556 77.5647 55.3226Z" fill="black"/>
<path d="M94.4426 41.5638C94.3601 40.1178 93.1352 39.1177 91.9984 39.2315C90.7795 39.2972 89.754 40.4015 89.8356 41.8247C89.9148 43.181 91.016 44.2284 92.2836 44.1573C93.5569 44.08 94.5215 42.9313 94.4426 41.5638Z" fill="black"/>
<path d="M52.3834 10.246C54.6347 11.029 54.5314 11.0159 54.6264 11.0159C54.9587 11.0159 55.0373 10.5507 54.7246 10.4414L52.5801 9.68927C52.5072 9.66788 52.4289 9.67522 52.3612 9.70979C52.2935 9.74436 52.2418 9.80352 52.2165 9.87508C52.1913 9.94663 52.1945 10.0251 52.2256 10.0944C52.2566 10.1636 52.3131 10.2183 52.3834 10.2472V10.246Z" fill="black"/>
<path d="M55.4064 8.51185C55.4424 8.57869 55.5028 8.62919 55.575 8.65293C55.6472 8.67667 55.7258 8.67184 55.7945 8.63943C55.8633 8.60702 55.917 8.54951 55.9445 8.47877C55.972 8.40803 55.9712 8.32945 55.9423 8.25925L54.5691 5.36011C54.5329 5.29357 54.4727 5.24337 54.4006 5.2198C54.3285 5.19624 54.2502 5.2011 54.1816 5.23339C54.113 5.26568 54.0594 5.32294 54.0318 5.39343C54.0042 5.46392 54.0047 5.54228 54.0332 5.61242L55.4064 8.51185Z" fill="black"/>
<path d="M57.7025 9.47904C57.7607 9.47902 57.8176 9.46191 57.8662 9.42984C57.9147 9.39777 57.9527 9.35217 57.9755 9.2987L59.0547 6.75818C59.0802 6.68702 59.0775 6.60881 59.0471 6.53959C59.0167 6.47037 58.9609 6.41536 58.8912 6.38584C58.8215 6.35631 58.7431 6.35451 58.6721 6.38079C58.6011 6.40707 58.5429 6.45944 58.5093 6.52719L57.4301 9.06771C57.4111 9.11266 57.4035 9.1616 57.408 9.21018C57.4125 9.25876 57.429 9.30548 57.4559 9.34619C57.4829 9.38689 57.5195 9.42032 57.5625 9.44349C57.6055 9.46667 57.6536 9.47888 57.7025 9.47904Z" fill="black"/>
<path d="M60.2657 22.3651C60.3577 22.2066 60.1601 21.9857 59.9832 22.1323L57.8382 23.8768L58.2892 21.1622C58.3281 20.9421 58.0922 20.8281 57.9367 20.9575L55.7771 22.6864L56.259 19.9593C56.3026 19.707 55.9169 19.6483 55.8655 19.89L55.3798 22.9105C55.34 23.1178 55.6003 23.273 55.7656 23.1353L57.8649 21.4553L57.4409 24.1099C57.4026 24.3192 57.6613 24.4715 57.8266 24.3346L60.2185 22.4151C60.2355 22.3996 60.2512 22.3829 60.2657 22.3651Z" fill="black"/>
<path d="M65.0143 25.1273C65.1069 24.9674 64.9081 24.7482 64.7318 24.8945L62.5868 26.639L63.0378 23.9247C63.0772 23.7106 62.8461 23.5862 62.6859 23.7195L60.5272 25.4486L61.0088 22.7215C61.0542 22.4659 60.6666 22.4132 60.6153 22.6519L60.1299 25.6724C60.091 25.8839 60.3524 26.0331 60.5156 25.8972L62.6155 24.2173L62.1912 26.8718C62.1526 27.0791 62.4111 27.2337 62.577 27.0965L64.9689 25.1767C64.9852 25.1613 65.0004 25.1448 65.0143 25.1273Z" fill="black"/>
<path d="M69.4806 27.6571L67.3356 29.4016L67.7866 26.687C67.8258 26.4744 67.5955 26.3482 67.4344 26.4824L65.2757 28.2112L65.7576 25.4841C65.8009 25.2336 65.4163 25.1708 65.3641 25.4148L64.8784 28.4354C64.8398 28.645 65.0988 28.7969 65.2641 28.6601L67.3635 26.9802L66.9394 29.6347C66.8997 29.842 67.1605 29.9966 67.3252 29.8595C69.5088 28.0975 69.7236 27.9518 69.7619 27.8896C69.8554 27.7312 69.6572 27.5108 69.4806 27.6571Z" fill="black"/>
</g>
<defs>
<clipPath id="clip0_458_14907">
<rect width="102" height="99" fill="white"/>
</clipPath>
</defs>
</svg>
