<svg width="107" height="102" viewBox="0 0 107 102" fill="none" xmlns="http://www.w3.org/2000/svg">
<path d="M77.596 22.1879C76.3716 22.1879 75.3789 23.1805 75.3789 24.405V37.7071C75.3789 38.9315 76.3716 39.9242 77.596 39.9242H90.8981C92.1226 39.9242 93.1152 38.9315 93.1152 37.7071C93.115 29.136 86.1669 22.1879 77.596 22.1879Z" fill="#E099ED"/>
<path d="M77.5962 44.3579C73.923 44.3579 70.9452 41.3801 70.9452 37.7068V26.8479C62.479 28.0522 56.5921 35.8917 57.7964 44.3579C59.0007 52.8241 66.8402 58.7109 75.3064 57.5066C82.1262 56.5364 87.4849 51.1777 88.4552 44.3579H77.5962Z" fill="#E099ED"/>
<path d="M61.2432 0.496391C60.7171 0.0690597 60.0246 -0.0943071 59.3632 0.0530557L1.72065 13.3552C0.706152 13.5882 -0.00966999 14.4959 9.87696e-05 15.5368V90.9156C0.000514462 92.0095 0.798851 92.9399 1.88007 93.1061L59.5226 101.974C60.7329 102.16 61.8648 101.33 62.0509 100.12C62.0679 100.009 62.0766 99.8965 62.0766 99.784V2.23461C62.0787 1.55848 61.7717 0.918319 61.2432 0.496391Z" fill="#E099ED"/>
<path d="M104.2 93.1325H59.8597C58.6352 93.1325 57.6426 92.1398 57.6426 90.9154C57.6426 89.6909 58.6352 88.6983 59.8597 88.6983H101.983V13.3196H59.8597C58.6352 13.3196 57.6426 12.3269 57.6426 11.1025C57.6426 9.87808 58.6352 8.88562 59.8597 8.88562H104.2C105.425 8.88562 106.417 9.87829 106.417 11.1027V90.9156C106.417 92.14 105.425 93.1325 104.2 93.1325Z" fill="#E099ED"/>
<path d="M90.8982 79.8304H59.8597C58.6352 79.8304 57.6426 78.8378 57.6426 77.6133C57.6426 76.3889 58.6352 75.3962 59.8597 75.3962H90.8979C92.1224 75.3962 93.115 76.3889 93.115 77.6133C93.115 78.838 92.1226 79.8304 90.8982 79.8304Z" fill="#E099ED"/>
<path d="M90.8982 66.5282H59.8597C58.6352 66.5282 57.6426 65.5355 57.6426 64.3111C57.6426 63.0867 58.6352 62.094 59.8597 62.094H90.8979C92.1224 62.094 93.115 63.0867 93.115 64.3111C93.115 65.5357 92.1226 66.5282 90.8982 66.5282Z" fill="#E099ED"/>
<path d="M20.409 71C19.194 71 18.209 70.005 18.209 68.7777V33.2223C18.209 31.995 19.194 31 20.409 31H29.2091C35.2842 31 40.209 35.9746 40.209 42.111V46.5553C40.209 52.6918 35.2842 57.6663 29.2091 57.6663H22.6091V68.7773C22.6091 70.005 21.6243 71 20.409 71ZM22.6091 53.2222H29.2091C32.8541 53.2222 35.8091 50.2374 35.8091 46.5555V42.1112C35.8091 38.4293 32.8541 35.4446 29.2091 35.4446H22.6091V53.2222Z" fill="#FAFAFA"/>
<path d="M59.9946 102C59.8819 102 59.7694 101.991 59.6581 101.973L2.08663 93.1037C1.00675 92.9374 0.2094 92.0071 0.208984 90.9128V15.521C0.209607 14.4883 0.922055 13.5927 1.9272 13.3613L59.4987 0.0568619C60.6905 -0.217543 61.8787 0.527715 62.1527 1.72117C62.1901 1.88373 62.209 2.04983 62.209 2.21655V99.7825C62.209 101.007 61.2177 102 59.9946 102ZM4.6375 89.0103L57.7805 97.1969V5.00591L4.6375 17.2949V89.0103Z" fill="black"/>
<path d="M103.982 93H59.4363C58.2062 93 57.209 92.0102 57.209 90.7894C57.209 89.5686 58.2062 88.5788 59.4363 88.5788H101.755V13.421H59.4363C58.2062 13.421 57.209 12.4312 57.209 11.2104C57.209 9.98956 58.2062 9 59.4363 9H103.982C105.212 9 106.209 9.98976 106.209 11.2106V90.7896C106.209 92.0104 105.212 93 103.982 93Z" fill="black"/>
<path d="M90.9591 80H59.459C58.2164 80 57.209 78.8807 57.209 77.5C57.209 76.1193 58.2164 75 59.459 75H90.9589C92.2015 75 93.209 76.1193 93.209 77.5C93.209 78.8809 92.2018 80 90.9591 80Z" fill="black"/>
<path d="M90.9591 67H59.459C58.2164 67 57.209 65.8807 57.209 64.5C57.209 63.1193 58.2164 62 59.459 62H90.9589C92.2015 62 93.209 63.1193 93.209 64.5C93.209 65.8809 92.2018 67 90.9591 67Z" fill="black"/>
<path d="M20.409 71C19.194 71 18.209 70.005 18.209 68.7777V33.2223C18.209 31.995 19.194 31 20.409 31H29.2091C35.2842 31 40.209 35.9746 40.209 42.111V46.5553C40.209 52.6918 35.2842 57.6663 29.2091 57.6663H22.6091V68.7773C22.6091 70.005 21.6243 71 20.409 71ZM22.6091 53.2222H29.2091C32.8541 53.2222 35.8091 50.2374 35.8091 46.5555V42.1112C35.8091 38.4293 32.8541 35.4446 29.2091 35.4446H22.6091V53.2222Z" fill="black"/>
<path d="M90.9589 40H77.459C76.2164 40 75.209 38.9926 75.209 37.7499V24.2501C75.209 23.0074 76.2164 22 77.459 22C86.1574 22 93.209 29.0514 93.209 37.7499C93.2088 38.9928 92.2016 40 90.9589 40ZM79.7089 35.5001H88.4838C87.5715 31.0863 84.1227 27.6375 79.7089 26.7252V35.5001Z" fill="black"/>
<path d="M72.709 58C64.1487 58 57.209 51.0605 57.209 42.5C57.209 33.9395 64.1485 27 72.709 27C73.9319 27 74.9233 27.9914 74.9233 29.2143C74.9233 30.4372 73.9319 31.4287 72.709 31.4287C66.5945 31.4287 61.6377 36.3855 61.6377 42.5C61.6377 48.6145 66.5945 53.5713 72.709 53.5713C78.8235 53.5713 83.7803 48.6145 83.7803 42.5C83.7803 41.2771 84.7717 40.2857 85.9946 40.2857C87.2175 40.2857 88.209 41.2771 88.209 42.5C88.209 51.0605 81.2695 58 72.709 58Z" fill="black"/>
</svg>
