<svg width="109" height="104" viewBox="0 0 109 104" fill="none" xmlns="http://www.w3.org/2000/svg">
<path d="M108.81 42.0165C108.634 41.2178 108.208 40.3465 107.792 39.8295C107.487 39.4475 106.818 38.8587 105.893 38.3475C104.422 37.535 103.358 39.2007 102.008 39.9587C100.954 40.5505 100.258 40.9579 98.7675 41.2222C96.4597 41.6324 95.9014 41.9316 94.4484 41.6266C93.9999 41.5322 93.5717 41.4632 93.1283 41.3478C91.9319 41.0363 91.6389 40.7981 90.7587 40.1047C90.0354 39.5354 89.4423 38.9131 88.8346 38.2233C88.2734 37.5865 88.0016 36.9236 88.1273 36.0094C88.2 35.4851 88.2436 34.5281 88.6463 33.5224C88.7917 33.1637 89.0287 32.8108 89.2831 32.4209C89.5375 32.031 90.087 31.0747 90.5239 31.1139C91.7596 31.2308 92.9488 30.6173 93.2635 29.4351C94.2812 25.6288 90.1961 23.8441 88.2858 25.0465C86.755 26.0115 87.0624 26.9039 86.9774 27.7266C86.9578 27.9161 86.9374 28.1623 86.8095 28.2922C86.0593 29.0605 84.7015 29.409 83.6889 29.3197C83.2615 29.2819 82.4336 28.7969 81.9248 27.8566C81.6849 27.4136 81.581 26.9054 81.4887 26.3942C81.1514 24.5397 81.392 23.611 81.8521 21.1611C81.9553 20.6114 82.2882 20.2498 83.2942 18.1571C83.5719 17.5762 84.2392 16.5444 84.6499 16.124C85.2188 15.5284 85.933 15.0908 86.7223 14.854C87.9929 14.4459 89.0047 13.1302 89.2358 12.3787C89.6822 10.9265 88.9058 10.0036 87.7523 8.70238C87.1053 7.9719 86.0659 7.35325 85.0831 7.30315C84.4456 7.2712 83.3982 7.39755 82.7353 7.68799C81.9466 8.03362 81.4632 8.62032 81.2815 9.27165C81.0503 10.1132 81.1085 10.782 81.0772 11.5081C81.0423 12.3119 80.7138 13.2253 80.3707 13.8055C79.622 15.0827 79.2964 15.3398 78.8718 15.9316C78.129 16.9663 78.1704 16.9932 77.1273 18.0714C76.8108 18.4066 76.4739 18.7219 76.1184 19.0154C75.6779 19.3697 75.3959 19.7865 74.8507 19.9593C74.3317 20.122 73.9508 20.2171 73.615 20.3137C73.2101 20.4291 72.8612 20.5555 72.356 20.5882C71.6044 20.6375 69.8948 20.4967 69.7799 20.4923C69.1308 20.4662 68.3988 20.6738 67.7766 20.4153C67.2678 20.204 67.0962 20.305 67.1951 19.4627C67.3107 18.5411 67.581 17.6456 67.9947 16.8138C68.7099 15.3325 68.5304 15.5003 69.5313 14.7901C70.7779 13.9043 71.8886 13.4911 71.9431 12.863C71.9809 12.4273 72.0158 11.9917 71.9293 11.58C71.4205 9.16273 67.5578 7.76133 65.7013 8.9115C65.1133 9.27455 64.4889 10.0696 64.6379 10.8785C64.7295 11.3796 64.7448 11.8951 64.8305 12.3976C64.9119 12.8966 64.9011 13.4063 64.7985 13.9014C64.6793 14.5367 64.3268 15.8815 63.9488 16.6606C63.2125 18.1775 63.1492 18.0518 62.4827 18.9769C62.1919 19.3835 61.875 19.459 61.4534 19.2717C60.972 19.0583 60.5021 18.82 60.0454 18.5579C58.9551 17.9335 59.0278 17.8492 57.8502 16.6323C57.0441 15.8023 56.8326 15.692 56.2816 14.4336C55.4725 12.5914 55.5583 11.0935 55.8033 9.08431C56.0482 7.07515 57.039 7.04611 58.0566 4.94546C58.4339 4.16488 58.62 3.21149 58.2842 2.41349C57.6481 0.901722 55.8694 0.579327 55.072 0.287429C54.0311 -0.0937815 53.4729 -0.206329 51.801 0.668639C49.8857 1.66923 49.9555 2.86804 50.5224 4.90116C51.1694 7.22473 51.8345 8.39015 51.8308 10.0965C51.8308 10.9134 51.6324 11.1523 51.463 12.9197C51.3249 14.3617 51.4594 14.5933 50.4984 15.6789C47.8736 18.6429 47.2274 18.3481 44.5547 19.2412C44.2486 19.3436 44.1018 19.3015 44.0328 18.9508C43.8503 18.0133 42.9235 16.6824 43.7667 14.1831C44.0662 13.2936 44.2508 12.7897 43.633 12.0636C43.3991 11.798 43.0977 11.6005 42.7607 11.4921C42.1915 11.3062 41.5068 10.9468 40.3801 11.1566C39.3858 11.3425 38.307 11.3157 37.2058 12.1812C36.5276 12.7142 36.0682 13.4483 36.0755 14.3203C36.0849 15.5017 36.4084 16.6366 37.3388 17.3511C38.3165 18.1019 39.324 18.9486 39.6605 20.0276C39.9433 20.9331 39.7696 20.8176 38.0672 21.5161C37.6943 21.6693 37.3243 21.8204 36.9114 21.8966C35.7673 22.1079 35.4286 22.1812 34.1202 22.0273C33.1163 21.9097 32.2957 21.6599 31.6088 20.9251C31.2351 20.525 30.5911 19.9877 29.3554 18.6015C28.5631 17.7142 27.7424 16.9111 27.4735 16.1763C27.2554 15.5874 27.4102 14.9339 26.9981 13.2653C26.719 12.1347 26.2501 11.4108 25.6025 10.7123C25.1932 10.2708 24.7593 10.0384 24.2679 9.95565C23.745 9.86517 23.2078 9.90788 22.7058 10.0798C22.3424 10.204 20.7643 10.7856 20.1035 11.2184C19.3185 11.7368 18.8242 12.2923 18.4462 13.4577C18.1933 14.239 18.2543 15.4836 18.6214 16.2525C19.1906 17.4455 19.1302 17.3591 20.6167 17.8674C21.2041 18.0685 21.1801 17.8732 23.1608 18.5863C24.1247 18.9341 24.5994 19.0633 25.5072 19.9608C28.6569 23.0736 27.9496 24.8141 28.3697 26.5307C28.4956 27.0183 28.5485 27.5219 28.5267 28.025C28.4788 28.8673 28.1393 30.1743 27.6479 30.8845C27.4604 31.1539 26.9603 31.901 26.3708 32.6192C25.8474 33.2538 25.4447 33.1899 25.2078 32.3657C24.9374 31.4261 24.6837 30.5889 24.0447 29.7793C23.674 29.3124 23.4807 29.2369 22.8723 29.1382C20.9635 28.8288 20.1501 28.2959 18.4673 30.8707C17.8858 31.7594 17.4809 32.1479 17.2011 33.0926C17.0157 33.7178 17.0361 35.0197 17.2803 35.6122C17.4424 36.0127 17.6999 36.3676 18.0305 36.6462C18.3467 36.9069 18.7574 37.0288 19.2102 37.0869C19.6631 37.145 20.0825 37.2372 20.4641 37.2721C21.2251 37.3447 23.1034 37.2387 22.6302 37.8283C22.346 38.1834 22.1461 38.6147 21.8306 38.9371C19.743 41.0798 19.1411 42.5183 17.1248 43.4296C16.2256 43.8362 16.5927 43.7519 14.8714 43.6815C14.4084 43.6626 13.9264 43.6547 13.4496 43.6089C13.2214 43.5871 9.6298 43.1391 9.23364 42.922C5.73803 41.0087 7.1671 39.4446 3.97896 40.1628C3.24843 40.3269 2.09559 40.8591 1.70452 41.1742C1.37726 41.4371 1.10296 41.7596 0.896219 42.1247C-0.294426 44.2566 -0.432534 46.3253 1.30328 48.0288C1.68787 48.3976 2.14477 48.6828 2.64518 48.8666C3.1456 49.0503 3.67868 49.1284 4.21084 49.0962C5.70968 49.0141 5.64717 48.447 6.79493 48.1319C8.16439 47.7565 9.84786 48.1399 10.5362 48.1929C13.4358 48.4158 13.2853 48.3657 14.5385 48.9146C15.5641 49.3634 16.1769 49.5565 17.1131 50.2601C17.7906 50.7684 18.0624 51.0908 18.9478 52.702C19.3112 53.3555 19.8666 54.6785 20.0229 55.5716C20.0774 55.8795 20.0178 56.0734 19.8106 56.3028C19.4995 56.6485 19.1891 56.9396 18.8111 57.1154C18.0654 57.4632 16.7286 57.4639 15.9705 57.363C14.6919 57.1923 14.3102 56.5163 13.0629 56.7981C12.1463 57.0057 11.3758 57.9272 11.0618 58.6714C10.7783 59.3431 10.6104 60.5085 10.771 61.467C10.9122 62.4135 11.3238 63.2993 11.9566 64.0178C12.2624 64.3859 12.6108 64.7164 12.9946 65.0024C13.7542 65.555 15.4413 65.3829 16.0737 64.5159C17.3421 62.7776 17.268 62.3093 18.1431 62.3274C18.5829 62.3361 19.1499 62.2628 19.7423 62.2548C21.111 62.2425 22.0204 62.8647 22.4231 63.6628C22.7276 64.2669 23.0874 64.8594 23.0133 65.571C22.9624 66.0531 22.9573 66.4554 22.9043 66.7938C22.8127 67.3746 22.5096 68.3447 22.1221 69.1043C21.8699 69.5995 21.3022 70.9057 20.8617 71.5157C20.238 72.3798 19.3716 72.7254 18.4768 73.286C17.9934 73.5895 18.1235 73.649 16.9874 74.2546C15.8687 74.8515 14.5203 76.0357 12.626 75.4687C11.6462 75.1782 11.8017 75.0047 9.7948 75.1724C9.01849 75.237 7.72971 75.5739 7.06243 76.136C6.27884 76.7974 5.95028 77.5649 5.8427 78.5445C5.73512 79.524 5.82671 80.1506 6.0993 81.1156C6.26503 81.7031 6.82618 82.952 7.16782 83.4762C7.79949 84.4376 8.01901 84.7106 9.00249 85.2843C9.5651 85.611 10.2186 85.8652 11.3685 85.8202C12.0104 85.7955 12.61 85.4491 13.499 84.9677C13.9119 84.744 14.2623 84.3795 14.5792 83.9301C14.8753 83.5177 15.1393 83.0832 15.3686 82.6303C15.6753 82.008 16.2576 80.3068 16.8384 79.9916C16.9481 79.9321 17.4199 79.6482 18.101 79.2895C18.4782 79.0905 18.9383 78.9053 19.4036 78.6621C19.413 78.657 24.2555 76.133 24.5572 76.0612C25.6795 75.7947 26.2545 75.6829 27.4742 75.7526C27.9576 75.7809 28.4504 75.815 28.9353 75.9443C29.2754 76.0358 29.1337 76.1621 28.9876 76.3349C28.1546 77.3064 28.1604 77.8075 26.828 78.2475C25.8503 78.5706 24.3231 78.5212 23.1303 80.0134C22.9123 80.2828 22.7989 80.6814 22.732 81.1309C22.5713 82.2201 22.6593 82.5062 23.1325 83.445C23.3127 83.8002 23.5463 84.1256 23.8252 84.41C24.1465 84.7397 24.446 85.0723 24.8007 85.301C25.6504 85.8499 26.4304 86.038 27.3078 86.0569C28.393 86.0801 28.9578 85.8833 29.7537 85.2378C30.4508 84.6722 30.9596 83.7304 31.1348 83.0391C31.4983 81.5869 31.0316 81.3582 32.0514 80.3474C32.4112 79.9902 32.8423 79.638 33.1854 79.2016C33.5452 78.7449 33.8803 78.8778 34.5905 79.5647C36.0704 80.9995 35.4562 80.5558 36.854 81.8694C37.6877 82.6528 37.703 82.7726 38.222 84.3679C38.3943 84.8987 38.4604 85.2952 38.5455 85.5885C38.962 87.0313 38.7025 86.7176 38.6981 88.082C38.6908 90.1427 38.5171 91.8179 37.3992 93.5337C37.1811 93.8742 36.9856 94.2307 36.737 94.5452C36.0501 95.4165 35.8138 95.1747 34.6595 96.1426C33.7531 96.9058 33.2988 97.7887 33.1723 98.5221C33.0189 99.4094 33.245 100.614 33.5939 101.442C33.9741 102.345 34.7308 103.227 35.7091 103.557C36.5475 103.845 37.4278 103.992 38.3143 103.993C39.015 103.985 40.2617 103.75 40.8584 103.335C41.3171 103.015 41.658 102.819 41.9618 102.351C42.5637 101.424 42.72 100.586 42.5841 99.5343C42.5208 99.0471 42.3347 98.8728 42.0752 98.4959C41.4937 97.6522 41.5664 96.4229 41.8964 95.4332C42.0717 94.9357 42.301 94.4589 42.5804 94.0115C42.8639 93.5402 43.3851 91.9638 44.3773 91.0445C45.5011 90.0033 44.8403 90.431 46.6568 89.1334C47.8753 88.2759 49.2071 87.5917 50.614 87.1003C51.1737 86.9057 51.6913 86.5847 52.2444 86.3626C52.9313 86.0866 53.3631 85.9458 54.5051 86.1237C54.8743 86.181 55.2429 86.2965 55.6332 86.3684C58.1206 86.8258 57.534 86.918 58.7246 87.4285C59.1588 87.625 59.5802 87.8484 59.9865 88.0972C61.268 88.8495 61.3335 88.9628 62.253 89.8196C62.9799 90.4949 63.2626 90.7432 63.4727 91.9152C63.5628 92.4234 63.581 92.8932 63.6486 93.3187C63.7315 93.8386 63.7991 94.3012 63.8514 94.7158C63.9968 95.8442 64.18 95.9988 63.9677 97.5244C63.7874 98.8154 63.2234 98.3275 63.0082 100.123C62.8854 101.144 63.2423 101.984 63.8739 102.532C64.5514 103.121 65.4498 103.381 66.325 103.54C67.475 103.747 67.6581 103.797 68.9905 103.599C69.9398 103.459 70.8666 103.047 71.4481 102.616C72.3255 101.962 72.8656 101.077 73.0175 100.496C73.213 99.7463 72.9448 98.5446 72.4977 97.9332C72.0093 97.263 71.4314 97.1207 70.36 95.9364C69.5684 95.0614 69.4216 94.4035 69.2202 93.0399C69.1606 92.6326 69.1315 92.1061 69.0748 91.563C68.691 88.0682 68.4759 87.2361 69.7799 85.1732C70.1717 84.5531 71.1072 83.5089 71.4132 83.2265C72.4265 82.2912 73.1527 82.3377 75.1807 81.8171C75.2861 81.7895 75.4962 81.8265 75.5485 81.9013C76.54 83.331 76.444 82.9905 76.6977 84.7332C76.7704 85.2414 77.0532 86.6937 77.357 87.3472C77.7728 88.2497 78.4168 88.803 79.4127 88.872C80.3307 88.9337 81.762 88.6585 82.4343 88.3753C83.2921 88.0123 83.9237 87.0415 84.0771 86.2173C84.1774 85.6793 84.1585 85.1616 84.1723 84.8123C84.2407 83.042 82.1901 82.3856 81.3375 81.2892C80.7799 80.5711 80.6498 79.2241 80.5859 78.3564C80.5582 77.9839 80.708 77.7697 81.0409 77.6245C81.4187 77.4563 81.8072 77.3132 82.2039 77.1961C83.0018 76.984 83.8112 76.8174 84.6281 76.6972C85.0366 76.6428 85.4524 76.6428 85.8638 76.5927C86.8247 76.4743 87.3685 77.1634 88.3665 77.8786C90.4476 79.3686 91.1214 79.4906 91.181 80.8129C91.2035 81.3146 91.3264 82.5839 91.6171 83.0638C92.1412 83.9257 92.2161 84.3287 93.297 85.0606C93.6567 85.3167 94.0532 85.5168 94.4731 85.6539C94.9288 85.7991 95.4711 85.9668 95.9043 85.8652C98.0545 85.3569 99.5337 84.2488 100.333 82.1431C100.649 81.3059 100.723 80.4295 100.446 79.5589C100.255 78.9598 99.948 78.5626 99.783 78.4392C99.4257 78.1697 99.043 77.9355 98.6403 77.7399C97.9425 77.4008 96.7272 77.1256 96.0613 77.0465C94.0144 76.8032 93.494 76.7125 92.4203 75.5943C92.0954 75.2573 91.7661 74.9684 91.4899 74.6757C91.4398 74.6235 90.0827 73.1509 89.733 72.7385C89.3463 72.2861 88.5017 71.1229 88.3352 70.5471C88.1753 69.9952 88.2218 69.5951 88.4188 67.9505C88.6914 65.6777 88.5577 66.7843 89.3223 63.9735C89.4045 63.6722 89.6058 63.5553 89.8762 63.6628C90.9339 64.0817 90.7587 64.7018 91.7516 65.7685C92.1739 66.2209 92.6711 66.557 93.148 66.5992C93.6096 66.6432 94.075 66.6298 94.5334 66.5592C95.5874 66.3842 96.3346 66.0626 96.709 65.046C97.1379 63.8799 97.6648 62.8974 97.5042 62.0755C97.3537 61.308 97.2244 60.287 96.4066 59.4092C96.075 59.0392 95.6409 58.7758 95.1593 58.6526C94.6955 58.5422 94.2194 58.6526 93.736 58.853C92.9561 59.1703 91.7131 59.2567 90.662 58.882C90.5166 58.8297 90.3443 58.5698 90.3712 58.4391C90.4708 57.8742 90.553 57.4639 90.6882 57.1205C90.9716 56.4045 91.3147 56.1591 91.4827 54.5435C91.6404 53.0259 91.4405 53.0796 91.8926 51.732C92.3128 50.478 92.275 50.4308 93.1407 48.9996C93.5921 48.2553 94.3662 47.1385 95.2087 46.9018C99.5548 45.6812 99.908 45.6943 100.647 45.8591C101.519 46.0545 101.775 46.024 101.955 46.0886C102.153 46.1612 102.257 46.3493 103.054 46.8423C104.9 47.9823 105.417 48.2945 107.609 47.1385C108.459 46.6891 108.565 45.5179 108.815 44.6393C109.031 43.8224 109.097 43.3206 108.81 42.0165ZM84.8462 30.0124C85.323 29.6944 85.9445 29.6232 86.4453 29.3451C86.9629 29.059 87.2827 28.7802 87.4528 28.497C87.9521 27.667 87.2158 26.7173 87.9289 25.9498C88.642 25.1823 89.427 25.3297 90.3095 25.5584C90.9557 25.7254 91.8512 26.2083 92.2052 26.8415C92.6588 27.6533 92.5744 28.1332 92.2503 28.9762C91.8243 30.085 91.2486 30.3036 90.2622 30.292C89.5404 30.2832 89.0432 30.2716 88.0546 31.872C87.6032 32.6025 87.3154 33.1652 86.9781 32.7135C86.6147 32.2307 86.8844 31.8691 85.5665 31.0152C85.2329 30.7973 84.0313 30.5563 84.8462 30.0124ZM74.4422 21.1603C75.9156 20.4342 75.7913 20.6557 76.5102 19.8816C76.8068 19.5621 76.9311 19.3262 78.1399 18.0475C78.7899 17.3591 79.3719 16.6097 79.8779 15.8096C80.1126 15.4465 81.03 14.2194 81.4399 13.6436C81.6631 13.3299 81.7801 13.0525 81.8761 12.4883C82.0731 11.344 81.9662 9.62963 82.0876 9.10755C82.3384 8.02564 84.514 7.43748 85.7664 8.24347C86.5776 8.76773 87.1722 9.15475 87.5458 10.0508C87.705 10.4334 88.3243 10.917 87.7821 12.3155C87.0501 14.2034 84.1629 14.2702 82.9664 15.7377C81.7874 17.1849 81.754 17.5443 81.2786 18.4701C80.386 20.2084 80.2449 20.2316 80.0516 21.1313C79.6947 22.7919 79.9491 24.9913 79.2702 24.7916C79.1553 24.7575 78.9794 24.422 78.9016 24.3335C78.5673 23.9654 78.1516 23.6803 77.6877 23.5006C76.8155 23.1521 74.6523 23.2566 74.0758 22.0142C73.9268 21.6991 73.9632 21.3956 74.4422 21.1603ZM52.2982 13.6145C52.4676 11.747 52.5097 11.4812 52.5286 10.9337C52.565 9.86343 52.4073 10.1677 52.5614 8.4112C52.6173 7.77513 52.634 7.30969 52.0969 6.11668C51.4056 4.5824 51.2246 3.60577 51.1832 2.63568C51.1614 2.24498 51.2826 1.85971 51.5241 1.5516C51.9457 1.00265 52.9568 0.63088 53.5717 0.5786C54.5465 0.496549 55.458 1.08688 56.251 1.64454C56.4502 1.78395 56.6639 2.18404 56.7308 2.69958C56.7759 3.04594 56.7177 3.44821 56.6232 3.86137C56.3775 4.94473 55.7684 5.39347 55.2828 6.01938C54.5894 6.9125 54.8634 7.29299 54.7348 8.74885C54.6373 9.85617 54.532 10.4857 54.6424 11.6032C54.8307 13.4969 54.8234 12.9872 55.2203 14.4038C55.394 15.0225 55.7451 16.2554 56.0773 16.8C56.4677 17.4448 56.7737 17.5189 56.5556 17.7476C56.254 18.0635 54.0297 17.0542 52.3113 17.447C51.9479 17.5298 51.3096 18.1295 50.936 17.9088C50.1386 17.4404 52.0285 16.5916 52.2982 13.6145ZM25.9448 19.0096C23.3833 16.5873 22.8454 17.386 20.8995 16.869C19.9604 16.6199 19.3207 15.9577 19.1332 14.9128C18.9929 14.1337 19.2974 12.9777 19.7939 12.2923C20.5571 11.238 21.3931 11.2118 21.8037 11.0521C22.1129 10.9228 22.4369 10.8323 22.7683 10.7827C24.3028 10.5932 25.2666 10.9613 25.766 13.2094C26.3054 15.6375 26.0401 16.6947 27.5382 18.6109C27.9641 19.1555 28.9374 20.1358 29.3772 20.6579C29.9387 21.3356 30.5782 21.9448 31.2824 22.4731C32.1263 23.102 32.4251 23.1404 33.4158 23.2072C33.7589 23.2305 34.3717 23.3474 34.1056 23.839C33.9428 24.1396 33.3976 24.263 33.1178 24.4562C30.6289 26.1742 30.9146 27.5015 30.3869 28.1027C30.0271 28.5122 29.6731 28.0395 29.5633 27.6794C29.1933 26.461 29.0915 24.735 28.8197 23.9174C28.2309 22.1471 28.3508 22.4906 27.6879 21.278C27.0962 20.1961 27.0235 20.0276 25.9448 19.0096ZM18.9304 49.4679C18.7472 49.7671 18.6461 49.526 18.4666 49.3859C18.3677 49.3082 17.8378 48.9626 17.2367 48.6264C15.8047 47.8276 13.6306 47.0616 11.785 46.8111C9.51786 46.4988 10.284 46.6528 8.908 46.5627C5.60501 46.3449 4.77199 47.8625 2.99911 47.8618C2.2366 47.861 1.45084 47.3462 1.07358 46.2636C0.718859 45.2507 0.800998 44.6066 1.06995 43.6554C1.48209 42.1966 2.06651 41.9229 2.64003 41.4131C3.05726 41.0414 3.65767 40.8322 4.21229 40.7974C4.90065 40.7545 5.32661 41.0602 5.66607 41.4778C6.49472 42.4943 6.43803 43.0404 8.54964 43.5886C9.0541 43.7193 9.55929 43.9574 10.0761 44.0373C10.1386 44.0468 10.8473 44.0504 11.559 44.1099C13.9272 44.3154 12.7133 44.2247 14.3459 44.4614C17.8771 44.974 18.4891 43.9778 18.8279 43.9872C19.1666 43.9967 19.3447 44.6458 19.501 44.8774C19.7234 45.2085 20.0192 45.4816 20.1312 45.8787C20.4328 46.9548 19.4857 48.0266 19.2589 48.5567C19.1295 48.8573 19.1004 49.1913 18.9304 49.4679ZM19.0365 60.8287C15.2283 61.1242 15.7575 64.4796 13.0723 63.8515C11.99 63.5989 11.7341 62.1749 11.5641 61.7887C11.3082 61.2078 11.4754 60.7343 11.5393 60.1491C11.5949 59.5786 11.7681 59.0258 12.0482 58.5255C12.3229 58.0579 12.7685 57.9185 13.2701 57.811C14.0406 57.6462 14.0529 58.0971 15.647 58.2561C16.2474 58.3164 16.8827 58.3287 18.0821 58.1327C19.5925 57.8829 19.5257 57.7021 19.8811 57.6048C20.1544 57.5322 20.1341 57.8277 20.3899 59.5101C20.5361 60.4294 20.7541 60.6958 19.0365 60.8287ZM26.8055 73.946C25.9332 73.9983 24.848 74.3911 24.0731 74.7767C23.5948 75.0148 22.5037 75.7134 21.5363 76.1134C18.4317 77.3987 18.3997 77.1503 16.6516 78.1081C14.3655 79.3621 14.1918 81.1657 13.7229 82.2658C13.3726 83.0871 12.895 83.8306 12.0801 84.1755C11.1708 84.5611 10.4083 84.5073 9.51277 84.2176C6.75059 83.3209 5.69514 79.2713 7.14674 77.488C7.64539 76.8751 8.93562 76.2231 9.69522 76.0938C10.7129 75.9203 11.415 76.0938 12.3847 76.4235C13.3544 76.7532 13.7782 76.9732 14.7987 76.5622C15.2966 76.3611 15.3286 76.3204 16.1151 75.8804C16.3913 75.7257 18.2958 74.8173 18.303 74.813C18.5851 74.6721 18.7581 74.4383 19.0089 74.2604C19.7357 73.7456 20.9874 73.2192 21.6017 72.3326C21.9113 71.8846 22.0887 71.3479 22.3635 70.8745C22.684 70.3219 23.0853 69.8471 23.3171 69.2546C23.3898 69.0759 23.6559 68.5531 23.8928 68.5923C24.02 68.6134 24.0891 68.8828 24.1371 68.9859C24.3827 69.5356 24.1625 69.7338 24.5325 70.7968C24.7956 71.5549 25.0973 72.1147 26.1854 72.957C26.9312 73.5321 27.5462 73.901 26.8055 73.946ZM47.0217 86.5078C46.8764 87.0938 46.1262 87.2746 44.9326 88.2751C44.6077 88.5482 44.8425 88.3724 42.8487 90.2618C42.4779 90.5885 42.1867 90.9956 41.9975 91.4519C41.6856 92.1533 41.0729 93.9802 40.9922 94.2424C40.8635 94.6599 40.7487 95.1391 40.5858 95.6699C39.9782 97.65 41.1347 99.5052 41.0452 100.599C40.9893 101.279 40.5699 102.005 39.5915 102.478C38.6618 102.925 38.0119 102.986 37.2138 102.848C36.114 102.653 35.1473 102.232 34.5636 101.281C33.3649 99.3266 34.1456 96.8281 36.1213 96.6015C38.1464 96.3691 37.9014 94.7412 39.276 91.7634C39.6532 90.9465 39.63 90.4143 39.771 89.2692C39.9484 87.8286 40.1061 87.3944 40.2217 86.7438C40.3794 85.8492 40.0654 85.1964 41.1208 85.2915C44.5598 85.5987 44.7698 85.0969 46.3726 85.5921C46.8865 85.7504 47.1511 85.9995 47.0217 86.5092V86.5078ZM71.2911 98.6709C71.8138 99.5328 71.7272 100.566 70.9102 101.409C70.1288 102.213 69.3714 102.469 68.1757 102.832C66.9799 103.196 66.0117 102.873 64.9912 102.137C64.5063 101.787 64.2824 101.484 64.0985 100.573C64.0586 100.376 64.0186 100.183 64.0782 99.9925C64.2003 99.6113 64.3602 99.1865 64.579 98.8459C65.5843 97.2819 64.8509 95.8413 64.6684 94.4108C64.5085 93.1525 64.7331 92.7023 64.5434 91.6639C64.4176 90.9792 63.9016 89.8646 63.5854 89.4217C63.3446 89.0897 63.0816 88.7743 62.7981 88.4777C62.5895 88.2599 62.4514 88.0283 62.2101 87.8576C61.9964 87.7066 61.803 87.5498 61.9971 87.2876C62.4449 86.6835 63.1521 87.6805 66.3999 86.1985C66.7829 86.0242 67.0861 85.8035 67.4241 85.5929C67.6225 85.4694 67.7977 85.5116 67.7395 85.7664C67.7017 85.9313 67.5476 86.0968 67.4902 86.2653C67.3165 86.7735 67.3208 87.3109 67.1995 87.8257C67.0076 88.6244 67.1602 89.6932 67.2576 90.5203C67.4757 92.361 67.4859 92.8025 67.5425 93.2236C67.5993 93.6448 67.6748 94.0848 67.7388 94.5691C67.7941 94.9808 67.8239 95.3911 68.0434 95.7563C68.7644 96.9602 70.0038 96.5449 71.2911 98.6709ZM81.7292 83.1146C82.555 83.3608 83.1423 83.7783 83.3146 84.6286C83.3973 85.0099 83.3901 85.4051 83.2935 85.7831C83.0994 86.5317 82.9722 87.4096 81.9299 87.6224C81.5497 87.6993 81.1732 87.7821 80.7945 87.8402C79.8662 87.9731 78.6603 87.6093 78.4037 86.6516C78.2802 86.1905 78.3158 83.5147 77.4261 82.0988C77.2189 81.7692 76.4615 81.3117 76.9042 80.9036C77.2015 80.6292 77.6507 80.4527 78.0018 80.2501C78.2533 80.1049 78.4248 79.9059 78.656 79.7542C79.2324 79.3781 79.3632 80.778 79.7943 81.5542C80.4368 82.7051 80.9944 82.8946 81.7314 83.1146H81.7292ZM89.9533 75.0548C90.4534 75.7243 91.3118 76.4264 91.9544 76.8141C92.3346 77.0436 92.754 77.2128 93.1552 77.4052C93.5565 77.5976 94.0689 77.6455 94.5269 77.623C95.6267 77.5715 96.6639 77.9135 97.3167 78.0645C98.0683 78.2402 98.8388 78.9235 99.1441 79.6141C99.6856 80.8426 99.3876 82.2157 98.3896 82.9796C97.6772 83.5242 97.5173 84.0855 96.315 84.0942C94.6534 84.1065 93.4205 83.6316 92.8165 82.0778C92.3462 80.868 92.7911 80.3082 92.0395 79.3367C91.3554 78.4508 87.9827 75.9769 87.6934 75.6938C86.8211 74.8355 86.0477 74.8311 84.8483 75.0076C83.5043 75.2051 81.9815 75.9348 81.8768 75.7475C81.831 75.6662 81.7881 75.5071 81.8267 75.4418C82.1712 74.8529 82.3718 74.4557 82.5434 74.1486C83.1518 73.0594 83.71 72.6898 84.4747 71.9223C85.3143 71.0793 86.5267 69.7955 86.5289 69.7933C87.1395 69.1834 86.9454 70.8186 87.2514 71.4169C87.4441 71.7923 87.729 72.09 88.1491 72.6325C88.3897 72.9425 88.6463 73.3586 89.0316 73.8581C89.2954 74.1987 89.6087 74.5864 89.9555 75.0533L89.9533 75.0548ZM91.5786 59.9821C92.5497 59.8964 93.502 59.2262 94.5712 59.5319C98.2187 60.576 96.8973 66.5752 93.1705 65.2682C92.9524 65.1912 92.7714 64.9647 92.6013 64.7831C91.913 64.0512 92.0714 63.8682 90.9767 63.1385C90.0587 62.5271 87.8889 61.6231 87.5015 61.4525C86.1647 60.8629 85.8827 60.5557 83.5712 60.8716C82.4954 61.0168 79.7347 62.8669 79.3429 59.985C79.2891 59.5885 79.3429 59.1572 79.3785 58.744C79.4148 58.2968 79.4337 57.8582 79.5144 57.5097C79.5624 57.302 79.9433 56.6804 79.6751 56.716C79.393 56.7538 78.3085 58.6351 78.5673 60.2958C78.7272 61.3203 79.3087 62.2606 79.6838 62.5562C80.8366 63.4667 81.778 62.5097 84.527 62.1887C84.9145 62.1437 85.3266 62.0667 85.7708 62.0827C86.2454 62.1002 86.7041 62.477 87.1518 62.7181C87.431 62.8691 86.8778 64.7512 86.8356 64.969C86.6612 65.8629 86.763 67.0595 85.6726 68.6308C85.4153 69.0026 85.0853 69.3119 84.7546 69.6234C83.1823 71.1025 82.7825 70.7416 80.4339 72.4909C79.7296 73.0151 79.6176 74.2604 79.4047 75.2036C78.7105 78.2715 77.642 78.6309 75.8749 79.7143C75.2112 80.1209 74.1572 80.7708 73.4107 80.9944C72.6468 81.2224 71.5601 81.1505 70.9815 81.2064C70.2037 81.279 69.3038 81.7771 68.6947 82.2636C68.1473 82.6993 67.5505 83.4537 66.9378 84.2416C66.3483 84.9996 65.9201 85.5268 64.9294 85.9414C64.0215 86.3204 63.2873 86.3371 62.3126 86.3183C60.7134 86.287 60.2707 86.0148 59.6311 85.8681C59.0161 85.7229 58.9405 85.3511 57.8771 84.9241C59.6383 84.1784 60.0701 82.8024 59.6442 81.8156C59.4655 81.405 59.2606 81.0063 59.0307 80.6219C57.9898 78.8705 58.0712 78.543 58.3532 76.8519C58.4368 76.3523 58.5102 76.0278 58.7959 75.64C59.4733 74.7215 60.2373 74.4782 60.3311 72.8546C60.3899 71.8308 58.99 71.1207 58.0981 70.9922C56.7715 70.8005 54.7013 71.3087 55.1375 71.5302C55.3192 71.6224 56.7686 71.0844 57.9243 71.7248C58.306 71.9361 58.5357 72.2679 58.4731 72.8917C58.4258 73.3619 58.2917 73.8193 58.0777 74.2408C57.6416 75.1267 57.5238 75.3547 57.2054 77.0654C56.9627 78.3557 56.9801 78.1074 57.0288 78.885C57.0317 79.0531 57.0579 79.22 57.1066 79.381C57.2803 79.8892 56.56 79.5313 56.4626 79.8166C56.3993 80.0032 56.6806 80.0483 57.1793 80.2037C57.4766 80.2959 57.7041 80.5442 57.936 80.7453C58.3721 81.1215 58.5647 81.5397 58.596 81.9761C58.6745 83.0965 57.9665 83.6752 56.9634 84.1356C56.1289 84.519 55.0568 84.6388 54.1242 84.5524C53.044 84.4529 52.2553 83.4414 52.1368 82.3537C52.0896 81.9231 52.2626 81.6457 52.5301 81.3262C52.7292 81.0949 52.971 80.904 53.2425 80.7642C54.4927 80.0533 54.3022 79.9909 55.5162 79.9655C55.6259 79.9655 56.2074 79.8304 55.8723 79.7048C55.7633 79.6634 55.6216 79.6881 55.5089 79.6845C54.0377 79.6424 54.7471 79.2532 54.6483 77.6913C54.6039 76.9891 54.3742 75.4505 53.9403 74.6736C53.6226 74.105 53.2744 73.8618 52.9568 73.4704C52.6188 73.0529 52.448 72.9759 52.8594 72.5744C53.4765 71.976 54.0762 71.9354 53.9424 71.7582C53.832 71.613 53.2156 71.8599 53.1065 71.9121C52.5832 72.1561 52.8536 71.9513 52.3956 72.3369C52.0104 72.6622 51.708 73.1059 52.1252 73.5837C52.98 74.561 53.6451 75.5195 53.587 77.0088C53.571 77.4117 53.6241 77.8982 53.6531 78.3644C53.7491 79.8892 53.3544 79.8544 52.4952 80.3285C51.5684 80.8368 51.2115 81.364 51.0269 82.0407C50.8175 82.809 51.0269 83.5852 51.3903 83.9911C51.6967 84.3455 52.0317 84.674 52.392 84.9735C52.0184 85.102 51.6113 85.2894 51.1134 85.4128C49.8849 85.717 48.3454 85.5297 47.1649 84.6867C46.7344 84.3721 46.2025 84.228 45.6719 84.2822C45.1914 84.3185 44.7502 84.3178 44.349 84.349C42.3762 84.4993 41.4712 84.699 40.4172 84.2626C40.016 84.0964 39.7383 83.8422 39.4643 83.3978C38.8827 82.4539 35.1545 78.294 34.9481 78.0108C34.5934 77.525 34.629 77.4684 35.2083 77.313C35.7876 77.1576 36.3437 76.955 36.9071 76.7633C38.3383 76.2775 39.6205 76.0191 39.4446 74.4949C39.4024 74.0881 39.3213 73.6861 39.2026 73.2947C39.0572 72.8379 38.8391 72.5497 38.5716 72.2629C38.3003 71.958 38.0105 71.6702 37.7037 71.401C37.3846 71.1258 36.8271 70.8077 36.8802 71.0379C36.9449 71.3189 37.2269 71.6188 37.3984 71.8366C37.9414 72.538 38.2671 74.1072 37.458 74.7062C36.9957 75.0482 35.2381 75.5565 34.4778 76.104C33.2508 76.987 31.8188 78.5321 31.4249 78.8865C30.9887 79.2786 30.6158 79.6126 30.3185 79.9757C29.5989 80.8666 29.7908 81.5179 29.7494 82.5831C29.7174 83.3877 29.3016 84.2532 28.9185 84.6656C28.425 85.1964 27.8449 85.5239 26.5867 85.3075C25.6112 85.1391 24.7927 84.6446 24.1465 83.9163C23.5577 83.2519 23.1608 81.6276 23.5098 80.8361C24.2686 79.1123 26.7379 79.4565 26.8731 79.4434C28.2425 79.2808 29.0058 77.9963 29.8402 77.0124C30.9771 75.6741 31.0687 75.717 31.6742 75.1376C31.9686 74.8551 32.2637 74.5312 32.6191 74.227C33.9333 73.1001 33.7371 71.5026 33.9581 70.7416C34.0809 70.3161 34.3099 70.0097 34.8849 69.9967C35.1221 69.9879 35.3577 70.0378 35.571 70.1419C35.6575 70.1883 35.8836 70.2319 35.8102 70.0576C35.7135 69.8275 34.7642 69.4346 34.6472 69.41C34.0656 69.2887 33.9515 69.3678 33.6942 69.5406C33.5256 69.6546 33.0713 70.4004 33.0211 71.0401C32.9593 71.8388 32.8183 72.3638 32.1336 72.9577C31.6495 73.3782 31.036 74.2902 30.5562 74.1043C28.172 73.1785 26.1782 72.3616 25.4018 69.9277C25.1794 69.2306 24.8283 67.029 24.6859 66.1954C24.6783 65.7359 24.6417 65.2773 24.5761 64.8223C24.3915 63.5262 24.1269 62.9461 23.605 62.1495C23.1856 61.5091 22.354 60.3241 22.0058 59.6125C20.4517 56.4568 21.992 54.2516 20.648 51.4851C20.1065 50.3719 19.7757 49.8274 20.2467 48.6888C20.8566 47.2133 21.4338 47.4544 20.9831 45.984C20.1835 43.3765 20.4743 42.8116 22.2021 40.3152C22.5721 39.7801 22.7313 39.0809 23.2321 38.6401C23.4196 38.4745 23.7903 38.2814 24.0498 38.2596C24.3973 38.2298 24.5587 38.5305 24.8312 38.7098C25.2019 38.9557 25.5539 39.2285 25.8845 39.526C26.2879 39.8839 27.5694 41.2599 27.7279 41.4509C28.2026 42.0216 28.0405 42.2736 28.5398 44.237C28.6176 44.5449 28.5973 44.9116 28.7841 45.1809C29.2355 45.8301 30.1368 45.923 30.9597 45.6166C31.2824 45.4954 31.6327 45.4314 31.9577 45.3131C32.3742 45.1599 33.6957 44.2849 33.8265 43.8609C33.9341 43.5123 33.7691 43.4688 33.5307 43.6307C33.3264 43.7687 33.1999 44.0424 33.0022 44.1971C32.3858 44.6785 30.903 45.1112 30.2546 44.6596C29.5553 44.1716 29.439 43.4811 29.2645 42.6577C29.0799 41.7864 28.9622 41.2781 28.0921 40.3646C27.7453 40.0016 27.3332 39.7002 26.9959 39.3982C26.3221 38.7955 25.2107 37.6112 23.9299 36.9432C22.9668 36.4414 22.4151 36.3623 21.324 36.3623C20.6255 36.3623 19.3883 36.5242 18.5844 36.0145C17.747 35.4829 17.4257 33.9603 17.8851 33.0134C18.7217 31.2925 18.6847 31.6295 19.2349 30.7276C19.7176 29.9383 20.9954 29.7517 21.8772 30.085C24.4896 31.0725 23.1747 33.2073 24.8341 34.942C25.7362 35.8859 26.2727 36.1895 26.7611 36.5511C27.8144 37.3316 27.8791 37.3571 28.856 37.9307C29.4136 38.2596 29.801 38.5305 29.9362 38.5842C30.3519 38.7297 30.7864 38.8148 31.2264 38.8369C31.6632 38.8689 32.1016 38.8026 32.5094 38.643C33.0226 38.4455 33.5939 38.399 34.1383 38.2959C34.6508 38.1993 35.217 38.529 35.3559 39.0278C35.5609 39.7663 35.0186 40.7248 35.3203 41.241C35.3661 41.2076 35.4569 41.1786 35.478 41.1336C35.7615 40.5338 36.1475 40.0146 36.1889 39.0598C36.2158 38.4346 36.239 37.922 35.9541 37.3338C35.5972 36.599 35.0092 36.689 34.3295 36.9178C33.6063 37.1617 32.8954 37.4863 31.7003 37.5037C30.8463 37.5168 29.6985 37.0804 29.1395 36.7319C28.7928 36.514 28.4693 36.1996 28.0601 35.9121C27.7235 35.6761 27.3332 35.4539 26.9225 35.1765C26.4638 34.865 26.9094 34.1055 27.0817 33.7061C27.4626 32.8268 27.954 32.3018 28.8349 31.4145C29.282 30.9651 29.6171 30.411 30.0089 29.9136C31.4583 28.0729 31.3042 27.1014 32.2571 26.0798C33.3475 24.91 33.7015 24.9637 34.6079 24.5803C34.9554 24.4351 35.3421 24.1969 35.8647 23.9392C36.3066 23.7213 36.7784 23.5906 37.2269 23.4142C37.6754 23.2377 38.129 23.0562 38.5869 22.8892C39.9302 22.4005 40.181 22.0324 40.2798 22.5661C40.4005 23.2145 40.4565 24.1134 40.3394 24.7306C40.2224 25.3478 40.2188 25.965 40.1214 26.5764C39.9404 27.7607 39.2854 28.2654 40.2275 28.7962C40.8875 29.1679 41.3062 29.1665 41.8717 29.2079C42.1378 29.2267 42.4481 29.3204 42.7091 29.234C43.0078 29.1353 42.6233 28.9436 42.4838 28.9094C41.8666 28.7642 41.4189 28.8753 40.8701 28.4215C40.1083 27.7912 41.2851 27.1871 41.256 24.5731C41.2279 23.6822 41.1223 22.7954 40.9406 21.9228C40.8759 21.6497 40.2377 19.6304 40.141 19.369C39.9338 18.8063 39.8153 18.258 39.3916 17.8035C38.31 16.6417 38.1471 16.6468 37.6645 16.0347C37.1818 15.4226 36.8489 15.509 36.7195 14.2789C36.6766 13.8672 36.7988 13.4867 37.0648 13.1346C37.6034 12.423 38.2802 12.0774 39.1204 11.8152C40.0363 11.5299 40.6687 11.4101 41.5366 11.8392C42.5862 12.3584 42.6669 12.7483 42.4932 13.9674C42.4205 14.4757 42.177 15.2265 42.2301 16.5343C42.2744 17.63 42.5368 18.4497 42.7723 19.2136C42.9177 19.6761 43.0217 20.1503 43.2085 20.5932C43.3953 21.0362 43.6533 21.45 43.8627 21.8872C44.0458 22.2684 44.16 22.6859 44.362 23.0533C44.6971 23.6654 44.9436 24.0394 45.2154 24.2412C45.6857 24.589 46.0877 24.5477 46.4976 24.9361C46.6626 25.093 46.7884 25.268 46.9556 25.4219C47.2093 25.6572 47.101 25.9643 46.9556 26.2351C46.5863 26.9068 46.7608 26.925 45.9903 27.707C45.9118 27.7861 45.3681 28.07 45.4487 28.1964C45.5556 28.3634 46.6532 27.6097 46.7615 27.5284C47.9325 26.657 47.7065 26.7688 48.1331 25.6855C48.4239 24.9477 47.6243 24.7067 45.818 23.3982C45.5272 23.1876 45.549 23.2051 45.1325 22.0767C45.0039 21.7289 44.7916 21.2852 44.5685 20.6702C44.4849 20.4386 44.6455 20.3071 44.852 20.326C45.8841 20.4153 46.2331 20.7733 47.6549 20.493C48.3418 20.3572 48.836 20.236 50.1314 19.5135C52.312 18.2944 52.4952 17.2458 55.9196 18.5594C56.4677 18.77 57.1415 18.905 57.5914 19.2964C60.1355 21.5139 61.8139 20.5308 61.1466 21.4268C59.8702 23.1441 58.7515 22.7193 58.5822 24.0176C58.524 24.4663 58.6621 24.849 58.8613 25.2389C59.123 25.7516 59.2676 25.8772 59.5199 26.1596C59.7154 26.3775 59.9058 26.2511 59.791 26.005C59.6682 25.7407 59.2284 25.4575 59.2909 24.8889C59.3898 23.9827 60.6618 23.0962 61.1881 22.5465C61.9419 21.7594 62.5801 20.5642 62.7487 20.2912C63.1485 19.6449 63.5483 19.202 64.2105 18.0605C64.9955 16.7092 64.9192 16.7535 65.3008 15.7174C65.5814 14.9564 65.8671 14.0183 65.8402 13.1992C65.8031 12.0592 65.2114 12.0621 65.3779 10.7892C65.4346 10.3536 65.6207 9.96291 65.878 9.75306C67.3586 8.54263 68.3719 9.03276 69.4768 9.5454C70.0656 9.81914 70.4799 10.2171 70.6398 10.7021C70.7283 10.9751 70.7523 11.2649 70.71 11.5487C70.6676 11.8325 70.56 12.1027 70.3956 12.338C69.95 12.9763 69.0574 13.1556 68.244 13.8302C67.568 14.3908 67.5731 15.1372 67.126 16.0666C66.916 16.5023 66.112 18.5499 66.0088 18.8723C65.8554 19.3501 65.7297 19.8381 65.5967 20.3246C65.4805 20.7628 65.4421 21.2179 65.4833 21.6693C65.569 22.8006 65.7471 23.1056 66.2981 24.247C66.6885 25.0574 67.1973 25.6593 66.6776 26.816C66.5038 27.2038 66.0735 27.4652 65.5625 27.6402C65.0791 27.8057 64.5521 27.9415 64.1487 27.9437C63.8688 27.9437 63.3898 27.7643 63.1376 27.8711C62.2726 28.2341 65.5363 28.587 66.6993 28.2661C67.4008 28.0722 68.0078 28.0243 68.4948 27.0658C68.9491 26.1654 67.0344 23.7257 66.8622 22.9894C66.6594 22.1224 66.7357 21.9946 67.6116 22.0048C68.1444 22.0113 68.6082 21.9511 69.0196 21.9503C69.5669 21.9503 70.0191 22.0157 70.4225 22.0491C71.6756 22.1529 71.9344 22.2923 72.9295 23.1463C73.5292 23.6618 74.3324 23.9726 75.1633 23.905C75.9301 23.8433 76.9899 24.0503 77.7074 24.531C78.4248 25.0116 79.1095 25.9883 79.4475 26.7311C79.8837 27.6867 80.189 28.7359 80.8359 29.385C81.5577 30.1111 82.193 30.1939 83.1874 30.6543C84.0117 31.0457 85.1747 31.4508 85.7795 32.4674C86.3377 33.4113 86.7768 34.197 86.8931 34.8883C87.0646 35.9179 86.5987 36.3833 86.4802 37.4478C86.3951 38.2117 86.5638 39.2464 87.2311 39.7518C88.0307 40.3545 88.5489 41.1358 88.9756 42.0405C89.6175 43.394 89.6451 43.5893 89.8915 44.5434C90.1881 45.6921 90.1139 45.8918 89.8268 47.1502C89.4459 48.8202 89.5157 48.0317 89.1544 49.9261C88.9364 51.0879 88.8753 51.4568 89.3667 52.7216C89.5847 53.2786 89.6465 54.5435 89.3485 55.5092C89.2031 55.9761 89.0112 56.4161 88.7299 56.7719C88.3948 57.1967 88.0198 57.262 87.6396 57.1517C87.1213 57.0014 85.8413 56.1257 85.4306 55.7851C84.9893 55.4221 83.9266 54.2465 83.5574 53.7956C82.8239 52.901 81.8128 53.0404 81.107 53.9604C80.7952 54.3656 80.2348 54.9574 80.2711 55.5063C80.4616 55.4656 80.676 55.1803 80.7661 55.0169C81.3643 53.9335 82.3289 53.9074 82.8269 54.3097C82.9722 54.428 83.1903 54.8855 83.7289 55.4649C84.0037 55.7554 84.3882 56.0567 84.8302 56.4219C85.6116 57.0689 85.6472 57.2083 87.2195 58.0855C89.1973 59.1892 89.3492 59.049 90.1612 59.529C90.6707 59.831 90.9971 60.0315 91.5808 59.9806L91.5786 59.9821ZM105.405 46.3122C104.031 46.0479 103.553 45.629 102.827 45.1671C102.102 44.7053 101.727 44.6589 100.138 44.6494C99.6064 44.6494 99.1281 44.6727 97.4853 45.0125C96.4342 45.2303 96.395 45.1403 94.9085 45.6362C93.917 45.9673 93.4467 46.4015 92.9161 47.185C92.2859 48.1159 91.801 48.9233 91.1999 48.9357C90.3276 48.9538 90.5726 47.0362 90.6184 46.4095C90.6613 45.8591 90.7267 44.2167 90.5958 43.6626C90.4807 43.2158 90.3097 42.7853 90.087 42.381C89.9009 42.0223 89.1835 41.4429 89.5615 41.0014C89.8108 40.711 90.1168 40.9223 90.3742 41.0704C91.5692 41.7609 92.9452 42.3346 94.3292 42.4653C95.6768 42.5931 95.4195 42.6671 99.8862 41.6724C101.485 41.318 101.674 41.4197 102.635 40.6667C103.659 39.8643 104.205 39.2297 105.302 39.1418C105.991 39.0881 106.393 39.335 106.735 39.8433C107.009 40.2521 107.267 40.6369 107.444 41.0334C107.825 41.8793 107.99 42.8064 107.924 43.7316C107.851 44.7961 107.633 45.5142 106.71 46.0741C106.322 46.3156 105.856 46.4003 105.408 46.3108L105.405 46.3122Z" fill="#393940"/>
</svg>
