<svg width="104" height="104" viewBox="0 0 104 104" fill="none" xmlns="http://www.w3.org/2000/svg">
<path fill-rule="evenodd" clip-rule="evenodd" d="M100.159 93.8315V66.6208H3.84106V93.8315C3.84106 97.9834 7.21903 101.359 11.3709 101.359H92.6311C96.7809 101.359 100.159 97.9834 100.159 93.8315ZM41.5512 76.5293H62.4487C65.1503 76.5293 67.3481 78.7291 67.3481 81.4307C67.3481 84.1323 65.1483 86.3301 62.4487 86.3301H41.5512C38.8497 86.3301 36.6518 84.1302 36.6518 81.4307C36.6518 78.7291 38.8497 76.5293 41.5512 76.5293Z" fill="#E099ED"/>
<path fill-rule="evenodd" clip-rule="evenodd" d="M72.6883 57.7748C72.6883 57.1005 73.2347 56.5561 73.907 56.5561H78.5647C79.237 56.5561 79.7834 57.1005 79.7834 57.7748C79.7834 58.4472 79.237 58.9936 78.5647 58.9936H73.907C73.2326 58.9936 72.6883 58.4472 72.6883 57.7748ZM72.6883 51.4922C72.6883 50.8178 73.2347 50.2734 73.907 50.2734H78.5647C79.237 50.2734 79.7834 50.8178 79.7834 51.4922C79.7834 52.1645 79.237 52.7109 78.5647 52.7109H73.907C73.2326 52.7109 72.6883 52.1645 72.6883 51.4922ZM72.6883 45.2075C72.6883 44.5351 73.2347 43.9887 73.907 43.9887H78.5647C79.237 43.9887 79.7834 44.5351 79.7834 45.2075C79.7834 45.8819 79.237 46.4262 78.5647 46.4262H73.907C73.2326 46.4262 72.6883 45.8819 72.6883 45.2075ZM72.6883 38.9248C72.6883 38.2525 73.2347 37.7061 73.907 37.7061H78.5647C79.237 37.7061 79.7834 38.2525 79.7834 38.9248C79.7834 39.5972 79.237 40.1436 78.5647 40.1436H73.907C73.2326 40.1436 72.6883 39.5972 72.6883 38.9248ZM72.6883 32.6422C72.6883 31.9698 73.2347 31.4234 73.907 31.4234H78.5647C79.237 31.4234 79.7834 31.9698 79.7834 32.6422C79.7834 33.3145 79.237 33.8609 78.5647 33.8609H73.907C73.2326 33.8609 72.6883 33.3145 72.6883 32.6422ZM41.5512 78.1544H62.4487C64.2545 78.1544 65.7231 79.625 65.7231 81.4308C65.7231 83.2345 64.2545 84.7051 62.4487 84.7051H41.5512C39.7454 84.7051 38.2768 83.2345 38.2768 81.4308C38.2768 79.625 39.7454 78.1544 41.5512 78.1544ZM41.5512 87.1426H62.4487C65.5992 87.1426 68.1606 84.5792 68.1606 81.4308C68.1606 78.2803 65.5972 75.7169 62.4487 75.7169H41.5512C38.4028 75.7169 35.8393 78.2803 35.8393 81.4308C35.8393 84.5792 38.4028 87.1426 41.5512 87.1426ZM53.9337 48.7642V25.738C53.9337 25.0636 54.4781 24.5192 55.1525 24.5192C55.8248 24.5192 56.3712 25.0636 56.3712 25.738V48.7642C56.3712 49.4366 55.8268 49.983 55.1525 49.983C54.4801 49.983 53.9337 49.4366 53.9337 48.7642ZM48.7682 48.7642V25.738C48.7682 25.0636 49.3147 24.5192 49.987 24.5192C50.6593 24.5192 51.2057 25.0636 51.2057 25.738V48.7642C51.2057 49.4366 50.6593 49.983 49.987 49.983C49.3147 49.983 48.7682 49.4366 48.7682 48.7642ZM99.3464 93.8316V67.4334H4.65356V93.8316C4.65356 97.5345 7.66794 100.547 11.3709 100.547H92.6311C96.334 100.547 99.3464 97.5345 99.3464 93.8316ZM9.00653 28.1876C11.4075 28.1876 13.3595 30.1397 13.3595 32.5406V64.9959H4.65356V32.5406C4.65356 30.1397 6.6056 28.1876 9.00653 28.1876ZM19.9184 35.7094V40.6717H15.797V35.7094H19.9184ZM25.6526 27.8342V48.0817H22.3559V27.8342H25.6526ZM19.2765 13.8876C17.2879 12.6811 15.3379 12.3155 13.4875 12.8009C11.6837 13.2742 10.0242 14.5112 8.3931 16.6237C8.45403 13.3636 9.12638 9.87998 11.2348 7.48514C12.9309 5.56155 15.4273 4.54592 18.659 4.46264H28.2892C28.8397 6.72545 30.8811 8.41139 33.3104 8.41139C35.7398 8.41139 37.7833 6.72545 38.3317 4.46264H41.7665V20.018H38.3317C37.7833 17.7551 35.7398 16.0692 33.3104 16.0692C30.4606 16.0692 28.1429 18.3869 28.1429 21.2367V25.3967H19.8636V14.9297C19.8636 14.5051 19.6401 14.109 19.2765 13.8876ZM43.9948 35.7094V40.6717H28.0881V35.7094H43.9948ZM46.4343 27.17V47.3301C46.4343 50.7142 49.1867 53.4665 52.5708 53.4665C55.9548 53.4665 58.7072 50.7142 58.7072 47.3301V27.17C58.7072 23.7859 55.9548 21.0336 52.5708 21.0336C49.1867 21.0336 46.4343 23.7859 46.4343 27.17ZM67.9331 35.7094V40.6717H61.1447V35.7094H67.9331ZM56.0015 62.3614V64.9959H67.9331V43.1092H61.1447V47.3301C61.1447 49.7331 60.1493 51.9086 58.5487 53.4665H59.9239C60.5962 53.4665 61.1426 54.013 61.1426 54.6853V61.1426C61.1426 61.815 60.5962 62.3614 59.9239 62.3614H56.0015ZM51.5754 62.3614H53.562V64.9959H51.5754V62.3614ZM46.4343 59.9239V55.904H58.7072V59.9239H46.4343ZM28.472 48.0817C29.1443 48.0817 29.6908 48.6261 29.6908 49.3005V64.9959H49.1379V62.3614H45.2136C44.5412 62.3614 43.9948 61.815 43.9948 61.1426V54.6853C43.9948 54.013 44.5392 53.4665 45.2136 53.4665H46.5887C44.9901 51.9086 43.9948 49.7331 43.9948 47.3301V43.1092H28.0881V48.0817H28.472ZM20.7553 50.5192H27.2533V64.9959H20.7553V50.5192ZM19.9184 48.0817H19.5365C18.8642 48.0817 18.3178 48.6261 18.3178 49.3005V64.9959H15.797V43.1092H19.9184V48.0817ZM64.74 13.8998C64.74 17.7348 66.6432 21.3037 69.8303 23.4467C70.1675 23.6742 70.3686 24.054 70.3686 24.4583V64.9959H82.1011V24.4583C82.1011 24.054 82.3042 23.6742 82.6393 23.4467C85.8284 21.3037 87.7317 17.7348 87.7317 13.8998C87.7317 9.97342 85.735 6.36999 82.5195 4.2717V13.5626C82.5195 13.9892 82.2961 14.3853 81.9284 14.6067L76.8645 17.6536C76.4765 17.8851 75.9951 17.8851 75.6072 17.6536L70.5433 14.6067C70.1756 14.3853 69.9522 13.9892 69.9522 13.5626V4.2717C66.7347 6.36999 64.74 9.97342 64.74 13.8998ZM88.2029 35.7094V40.6717H84.5386V35.7094H88.2029ZM84.5386 43.1092H88.2029V64.9959H84.5386V43.1092ZM94.9934 28.1876C97.3943 28.1876 99.3464 30.1397 99.3464 32.5406V64.9959H90.6404V32.5406C90.6404 30.1397 92.5945 28.1876 94.9934 28.1876ZM94.9934 25.7501C91.2498 25.7501 88.2029 28.795 88.2029 32.5406V33.2719H84.5386V25.09C88.077 22.4636 90.1692 18.328 90.1692 13.8998C90.1692 8.34842 86.8786 3.33124 81.7862 1.11717C81.4104 0.952641 80.9757 0.991235 80.6325 1.2167C80.2892 1.44014 80.082 1.82405 80.082 2.23436V12.872L76.2348 15.1856L72.3897 12.872V2.23436C72.3897 1.82405 72.1825 1.44014 71.8392 1.2167C71.4959 0.991235 71.0632 0.952641 70.6854 1.11717C65.5931 3.33124 62.3025 8.34842 62.3025 13.8998C62.3025 18.328 64.3967 22.4636 67.9331 25.09V33.2719H61.1447V27.17C61.1447 22.4433 57.2975 18.5961 52.5708 18.5961C47.842 18.5961 43.9968 22.4433 43.9968 27.17V33.2719H28.0901V27.8342H29.3637C30.0361 27.8342 30.5825 27.2878 30.5825 26.6155V21.2367C30.5825 19.7315 31.8073 18.5067 33.3125 18.5067C34.8176 18.5067 36.0425 19.7315 36.0425 21.2367C36.0425 21.909 36.5868 22.4555 37.2612 22.4555H42.9873C43.6597 22.4555 44.2061 21.909 44.2061 21.2367V3.24389C44.2061 2.57155 43.6597 2.02514 42.9873 2.02514H37.2612C36.5889 2.02514 36.0425 2.57155 36.0425 3.24389C36.0425 4.74905 34.8176 5.97389 33.3125 5.97389C31.8073 5.97389 30.5825 4.74905 30.5825 3.24389C30.5825 2.57155 30.0361 2.02514 29.3637 2.02514H18.6448C18.6347 2.02514 18.6245 2.02514 18.6143 2.02717C14.6697 2.12264 11.572 3.41655 9.40669 5.87233C5.87028 9.88608 5.67528 16.0915 6.13435 20.5887C6.18919 21.1189 6.57919 21.5515 7.09919 21.6592C7.61919 21.7669 8.14935 21.5272 8.40935 21.064C10.3654 17.5825 12.2301 15.6508 14.107 15.1592C15.145 14.885 16.2358 15.0455 17.4261 15.6467V26.6155C17.4261 27.2878 17.9704 27.8342 18.6448 27.8342H19.9184V33.2719H15.797V32.5406C15.797 28.795 12.7501 25.7501 9.00653 25.7501C5.26294 25.7501 2.21606 28.795 2.21606 32.5406V93.8316C2.21606 98.8792 6.32325 102.984 11.3709 102.984H92.6311C97.6787 102.984 101.786 98.8792 101.786 93.8316V32.5406C101.784 28.795 98.737 25.7501 94.9934 25.7501Z" fill="black"/>
</svg>
