<svg width="71" height="99" viewBox="0 0 71 99" fill="none" xmlns="http://www.w3.org/2000/svg">
<g clip-path="url(#clip0_458_14750)">
<path d="M64.461 44.5151H64.2681V29.1847C64.2675 28.672 64.0621 28.1804 63.697 27.8179C63.3319 27.4554 62.8369 27.2517 62.3207 27.2514H60.5244C59.9573 27.2508 59.4135 27.0267 59.0125 26.6284C58.6114 26.23 58.3858 25.6899 58.3853 25.1265V13.3462H58.5781V25.1293C58.5787 25.6419 58.7839 26.1333 59.1488 26.4957C59.5137 26.8582 60.0084 27.062 60.5244 27.0626H62.3207C62.8878 27.0632 63.4316 27.2873 63.8326 27.6857C64.2337 28.084 64.4593 28.6241 64.4599 29.1875L64.461 44.5151Z" fill="black"/>
<path d="M31.1184 29.816H30.9255V21.02C30.9263 20.3218 31.2059 19.6524 31.703 19.1587C32.2 18.6651 32.874 18.3875 33.5769 18.3869H34.3792C35.0309 18.3862 35.6557 18.1286 36.1166 17.6708C36.5774 17.213 36.8365 16.5923 36.8371 15.9449V7.45654H37.0299V15.9449C37.0295 16.6432 36.7501 17.3128 36.2531 17.8068C35.7562 18.3008 35.0822 18.5787 34.3792 18.5796H33.5752C32.9239 18.5806 32.2996 18.8381 31.8391 19.2955C31.3786 19.7529 31.1194 20.3731 31.1184 21.02V29.816Z" fill="black"/>
<path d="M19.5263 38.6515H19.3335V27.2108C19.3345 26.2591 19.1247 25.3189 18.7189 24.4568C18.313 23.5948 17.7211 22.832 16.9852 22.2228L7.52441 14.3744L7.6481 14.2275L17.1088 22.0753C17.8669 22.7028 18.4764 23.4885 18.8942 24.3764C19.312 25.2644 19.5279 26.2328 19.5263 27.213V38.6515Z" fill="black"/>
<path d="M70.9038 54.3055C70.9038 62.0729 64.7196 68.3666 57.0978 68.3666C55.5799 68.3682 54.0727 68.1152 52.6396 67.6182C52.6291 67.6133 52.6182 67.6094 52.607 67.6065C50.0714 69.2304 47.0712 69.9872 44.0628 69.7617C41.0544 69.5362 38.2026 68.3408 35.941 66.3573C35.9264 66.3422 35.909 66.3305 35.8944 66.3154C33.1013 68.4861 29.442 69.8006 25.4374 69.8006C22.5274 69.8006 19.7991 69.1059 17.4541 67.8958C16.2948 68.209 15.0986 68.3673 13.8971 68.3666C6.27136 68.3666 0.0910645 62.0729 0.0910645 54.3055C0.0910645 48.3397 3.73863 43.2411 8.88841 41.1989C10.3406 36.0735 14.9804 32.3286 20.4782 32.3286C21.4565 32.327 22.4311 32.4472 23.3792 32.6866H23.3826C26.6771 27.0575 32.7117 23.2886 39.6077 23.2886C49.4356 23.2886 57.5858 30.5427 58.4814 40.3132C65.4561 41.023 70.9038 47.0157 70.9038 54.3055Z" fill="white"/>
<path d="M70.9039 54.3028C70.9039 62.0713 64.7197 68.3649 57.0985 68.3649C55.5804 68.3664 54.073 68.1134 52.6396 67.6166C52.6297 67.6113 52.6191 67.6072 52.6082 67.6043C50.063 69.2338 47.0504 69.9897 44.0315 69.7563C41.0126 69.5229 38.154 68.3131 35.8933 66.3121C34.4567 67.4226 32.8435 68.2871 31.1202 68.8697C29.292 69.4882 27.3733 69.8018 25.442 69.7979C22.532 69.7979 19.8036 69.1037 17.4587 67.8924C16.2993 68.2066 15.1028 68.3654 13.9011 68.3649C6.27592 68.3649 0.0961914 62.0713 0.0961914 54.3028C0.0961914 53.9286 0.110814 53.5595 0.137238 53.1948C0.680888 60.4546 6.6363 66.1697 13.9011 66.1697C15.0042 66.1604 16.1055 66.0789 17.1978 65.9256C17.9917 65.8144 18.8009 65.9369 19.5254 66.278C21.357 67.1296 23.0318 67.6043 25.4392 67.6043C28.8686 67.6043 32.7045 66.6399 35.4863 64.9953C35.8944 64.7572 36.3604 64.6346 36.8337 64.6407C37.307 64.6468 37.7696 64.7814 38.1714 65.0299C39.858 66.0636 42.7679 67.6043 45.1028 67.6043C47.428 67.6043 50.2553 67.0336 52.385 66.0217C53.1085 65.6694 53.9354 65.5873 54.7147 65.7905C55.418 65.9798 56.317 66.1697 57.0974 66.1697C64.3576 66.1697 70.3091 60.4613 70.8589 53.2071C70.8889 53.5705 70.9039 53.9357 70.9039 54.3028Z" fill="#E5E8FF"/>
<path d="M45.1038 69.8969C41.7116 69.8954 38.4361 68.6666 35.8899 66.4401C32.9906 68.67 29.2829 69.8969 25.4402 69.8969C22.6292 69.8969 19.866 69.2407 17.4485 67.9982C16.2922 68.3069 15.1 68.4632 13.9027 68.4628C6.23708 68.4628 0 62.1117 0 54.3058C0 48.4421 3.45811 43.2726 8.81421 41.1265C10.3198 35.8867 15.1109 32.2317 20.4838 32.2317C21.4468 32.2303 22.4063 32.3458 23.341 32.5757C26.7547 26.7857 32.9811 23.1938 39.6094 23.1938C49.5042 23.1938 57.6404 30.5094 58.5714 40.2263C61.9536 40.5904 65.0794 42.2049 67.3805 44.7782C69.7213 47.4064 71.0095 50.7967 71.0006 54.3058C71.0006 62.1117 64.7641 68.4628 57.0979 68.4628C55.5732 68.4646 54.0591 68.211 52.6193 67.7128C50.3763 69.1405 47.7678 69.8985 45.1038 69.8969ZM35.9034 66.1866L35.9635 66.2492C35.9687 66.2541 35.9741 66.2588 35.9798 66.2631C35.9905 66.2721 36.0006 66.281 36.0102 66.2905C38.2562 68.2583 41.0875 69.4438 44.0739 69.6669C47.0603 69.8899 50.0383 69.1383 52.5553 67.5263L52.5946 67.5006L52.639 67.5163C52.6543 67.5205 52.6692 67.5261 52.6834 67.533C54.1027 68.0237 55.5951 68.2733 57.0979 68.2713C64.6572 68.2713 70.8077 62.0061 70.8077 54.3058C70.8077 47.0985 65.5045 41.1265 58.473 40.4089L58.3937 40.4006L58.3864 40.3218C57.5015 30.6664 49.4289 23.3843 39.6089 23.3843C33.0255 23.3843 26.8424 26.9672 23.4736 32.7348L23.4461 32.7823H23.3635C22.423 32.5452 21.4564 32.4261 20.4861 32.4277C15.1851 32.4277 10.457 36.0464 8.98906 41.2276L8.97613 41.2734L8.93227 41.2907C3.62452 43.3955 0.195645 48.5052 0.195645 54.3085C0.195645 62.0089 6.34558 68.2741 13.905 68.2741C15.0979 68.2744 16.2856 68.117 17.4367 67.8061L17.4733 67.796L17.5064 67.8139C19.9042 69.0531 22.6483 69.7081 25.4425 69.7081C29.2705 69.7081 32.9619 68.4796 35.837 66.2458L35.9034 66.1866Z" fill="black"/>
<path d="M8.93053 41.287L8.85913 41.1095C10.4632 40.4725 12.1752 40.1464 13.9027 40.1489C14.0095 40.1489 14.1152 40.1489 14.2214 40.1523L14.2169 40.3438C14.1124 40.3438 14.0078 40.3405 13.9027 40.3405C12.1997 40.3381 10.512 40.6594 8.93053 41.287Z" fill="black"/>
<path d="M53.4273 40.8443L53.375 40.6601C55.037 40.1934 56.7728 40.0431 58.491 40.2172L58.4714 40.4076C58.0143 40.3616 57.5551 40.3385 57.0957 40.3384C55.8552 40.3379 54.6207 40.5082 53.4273 40.8443Z" fill="black"/>
<path d="M26.7333 34.2161C25.6919 33.564 24.5535 33.0789 23.3601 32.7787L23.4079 32.5933C24.6198 32.8985 25.7758 33.3913 26.8334 34.0536L26.7333 34.2161Z" fill="black"/>
<path d="M17.4142 67.9809C15.864 67.1866 14.458 66.1412 13.2539 64.8877L13.3939 64.7559C14.5829 65.9936 15.971 67.0262 17.5013 67.8111L17.4142 67.9809Z" fill="black"/>
<path d="M36 66.3563L35.8809 66.2056C37.0707 65.2792 38.1089 64.1753 38.9584 62.9331L39.118 63.0403C38.2576 64.2992 37.2058 65.4179 36 66.3563Z" fill="black"/>
<path d="M52.6593 67.6873L52.5542 67.5259C53.61 66.8486 54.569 66.0328 55.4051 65.1006L55.5491 65.2285C54.7012 66.1731 53.7292 67.0002 52.6593 67.6873Z" fill="black"/>
<path d="M36.4475 48.8534L35.8409 50.1272C35.7724 50.2705 35.6579 50.3872 35.5155 50.459C35.3731 50.5309 35.2108 50.5538 35.0538 50.5243L34.4062 50.3997C34.2928 50.376 34.1752 50.3807 34.064 50.4132C33.9529 50.4458 33.8516 50.5052 33.7692 50.5862C33.6299 50.7261 33.4834 50.8586 33.3301 50.9833C33.2411 51.0566 33.1717 51.1506 33.128 51.257C33.0844 51.3634 33.0679 51.4789 33.0799 51.5931L33.1424 52.2415C33.1577 52.4 33.1193 52.5591 33.0333 52.6935C32.9472 52.8278 32.8184 52.9298 32.6673 52.9831L31.3298 53.4577C31.1795 53.5112 31.0156 53.5135 30.8638 53.4642C30.7121 53.415 30.5811 53.3171 30.4916 53.1858L30.1211 52.6435C30.0574 52.5482 29.9713 52.4698 29.8702 52.4151C29.7691 52.3604 29.656 52.3311 29.5409 52.3297C29.342 52.3296 29.1433 52.3191 28.9455 52.2984C28.8303 52.2883 28.7143 52.3065 28.6077 52.3513C28.5012 52.396 28.4073 52.4661 28.3344 52.5553L27.9167 53.0579C27.8151 53.1813 27.6747 53.2674 27.518 53.3022C27.3614 53.337 27.1975 53.3186 27.0526 53.25L25.7702 52.6486C25.6253 52.58 25.5075 52.4655 25.4351 52.3232C25.3628 52.1809 25.34 52.0188 25.3705 51.8623L25.4958 51.224C25.5197 51.1113 25.515 50.9945 25.4822 50.8841C25.4495 50.7737 25.3896 50.6731 25.3081 50.5913C25.1682 50.453 25.0357 50.3076 24.9111 50.1557C24.8372 50.0673 24.7426 49.9984 24.6355 49.955C24.5284 49.9115 24.4123 49.8949 24.2972 49.9066L23.6389 49.9658C23.4801 49.9805 23.3209 49.9425 23.1863 49.8575C23.0516 49.7726 22.9492 49.6457 22.8951 49.4967L22.4167 48.1682C22.3619 48.0182 22.3592 47.8543 22.4089 47.7025C22.4586 47.5508 22.5579 47.4199 22.691 47.3305L23.2397 46.9647C23.3359 46.9006 23.415 46.8141 23.47 46.7129C23.5251 46.6116 23.5545 46.4985 23.5557 46.3834C23.5549 46.1876 23.5645 45.9919 23.5843 45.797C23.595 45.6825 23.577 45.5672 23.5319 45.4612C23.4867 45.3553 23.4159 45.2621 23.3257 45.19L22.8198 44.7729C22.6969 44.6711 22.6116 44.5317 22.5771 44.3766C22.5426 44.2214 22.5609 44.0593 22.6292 43.9157L23.2347 42.6446C23.303 42.5012 23.4174 42.3843 23.5598 42.3124C23.7023 42.2405 23.8648 42.2177 24.0217 42.2476L24.6694 42.3721C24.7829 42.3944 24.9002 42.3891 25.0112 42.3566C25.1222 42.3241 25.2237 42.2655 25.3069 42.1856C25.4445 42.0461 25.59 41.9144 25.7426 41.7913C25.8323 41.7175 25.9022 41.6228 25.946 41.5156C25.9897 41.4084 26.006 41.2921 25.9934 41.1771L25.9332 40.5265C25.9178 40.3678 25.9563 40.2086 26.0425 40.0741C26.1287 39.9396 26.2576 39.8376 26.4089 39.7843L27.7435 39.3096C27.8948 39.2558 28.0599 39.2536 28.2126 39.3033C28.3653 39.3531 28.497 39.452 28.5868 39.5844L28.9551 40.1244C29.0185 40.2206 29.1048 40.2998 29.2064 40.355C29.308 40.4101 29.4217 40.4395 29.5375 40.4405C29.7356 40.4397 29.9336 40.4492 30.1306 40.469C30.2459 40.4793 30.362 40.4613 30.4685 40.4165C30.5751 40.3717 30.669 40.3015 30.7417 40.2121L31.1595 39.7095C31.2613 39.5864 31.4017 39.5006 31.5582 39.4658C31.7148 39.431 31.8786 39.4491 32.0236 39.5174L33.306 40.1222C33.4505 40.1899 33.5683 40.3035 33.6407 40.445C33.7131 40.5866 33.7359 40.7481 33.7057 40.904L33.5803 41.5423C33.5576 41.655 33.5629 41.7714 33.5956 41.8817C33.6283 41.9919 33.6875 42.0926 33.7681 42.175C33.909 42.315 34.0422 42.4604 34.1678 42.6111C34.2419 42.6993 34.3365 42.7681 34.4436 42.8116C34.5506 42.855 34.6667 42.8717 34.7817 42.8602L35.4367 42.8004C35.596 42.7855 35.7558 42.8235 35.8911 42.9085C36.0263 42.9935 36.1293 43.1207 36.1839 43.2701L36.6617 44.5981C36.7158 44.7484 36.718 44.9123 36.6679 45.064C36.6178 45.2156 36.5183 45.3464 36.3851 45.4357L35.8409 45.8032C35.744 45.8661 35.6642 45.9519 35.6087 46.0528C35.5532 46.1537 35.5237 46.2667 35.5227 46.3817C35.5227 46.5761 35.512 46.7726 35.494 46.9703C35.4833 47.0846 35.5011 47.1997 35.5457 47.3055C35.5903 47.4114 35.6604 47.5047 35.7498 47.5774L36.2592 47.9951C36.3819 48.0972 36.467 48.2369 36.501 48.3923C36.5351 48.5476 36.5163 48.7098 36.4475 48.8534Z" fill="white"/>
<path d="M31.0865 53.5954C30.9533 53.5955 30.8221 53.5631 30.7044 53.5009C30.5868 53.4388 30.4863 53.3489 30.4119 53.2391L30.0414 52.6975C29.9868 52.6149 29.9126 52.547 29.8253 52.4995C29.7381 52.4521 29.6405 52.4267 29.541 52.4255C29.339 52.4253 29.1371 52.4149 28.9361 52.3942C28.8366 52.3859 28.7366 52.4019 28.6448 52.4409C28.5529 52.4798 28.4721 52.5405 28.4093 52.6176L27.991 53.1202C27.8757 53.26 27.7164 53.3574 27.5388 53.3967C27.3612 53.4361 27.1754 53.4152 27.0111 53.3374L25.7287 52.736C25.5644 52.6579 25.431 52.5277 25.3496 52.3659C25.2681 52.2041 25.2433 52.0199 25.279 51.8425L25.4044 51.2042C25.4251 51.1069 25.4211 51.006 25.3929 50.9105C25.3646 50.8151 25.3129 50.7281 25.2424 50.6575C25.1001 50.5168 24.9654 50.3688 24.8388 50.2141C24.7747 50.1383 24.6929 50.0793 24.6006 50.0421C24.5083 50.0049 24.4083 49.9907 24.3092 50.0007L23.6469 50.0588C23.4668 50.0756 23.2862 50.0324 23.1336 49.9361C22.9809 49.8397 22.8648 49.6957 22.8036 49.5266L22.3257 48.1981C22.2638 48.0281 22.2606 47.8425 22.3168 47.6705C22.3731 47.4986 22.4854 47.3501 22.6361 47.2487L23.1853 46.8824C23.2689 46.8273 23.3375 46.7526 23.3851 46.665C23.4328 46.5773 23.458 46.4794 23.4586 46.3798C23.4577 46.1806 23.4675 45.9815 23.4878 45.7834C23.4969 45.6846 23.4811 45.5851 23.4418 45.4938C23.4025 45.4026 23.3411 45.3225 23.2629 45.2607L22.7569 44.843C22.6174 44.7273 22.5205 44.5689 22.4815 44.3927C22.4424 44.2164 22.4634 44.0322 22.5411 43.869L23.1465 42.598C23.2245 42.4354 23.3547 42.303 23.5165 42.2216C23.6784 42.1403 23.8629 42.1145 24.041 42.1485L24.6887 42.273C24.7868 42.2924 24.8882 42.2878 24.9842 42.2597C25.0801 42.2316 25.1678 42.1808 25.2396 42.1116C25.3798 41.97 25.5279 41.8364 25.6832 41.7112C25.7597 41.6474 25.8193 41.5659 25.8568 41.4739C25.8944 41.3819 25.9087 41.2822 25.8985 41.1835L25.8378 40.5312C25.8204 40.3513 25.864 40.1708 25.9618 40.0184C26.0597 39.866 26.206 39.7505 26.3775 39.6902L27.7116 39.2156C27.8832 39.155 28.0701 39.1528 28.2431 39.2092C28.4161 39.2656 28.5653 39.3774 28.6674 39.5272L29.0351 40.0666C29.0895 40.15 29.1639 40.2187 29.2516 40.2667C29.3393 40.3146 29.4376 40.3403 29.5377 40.3414C29.7389 40.3406 29.9401 40.3503 30.1403 40.3704C30.2399 40.379 30.34 40.3631 30.4319 40.3242C30.5237 40.2852 30.6045 40.2244 30.6671 40.147L31.0854 39.6444C31.2012 39.5051 31.3604 39.4081 31.5378 39.3688C31.7153 39.3294 31.9009 39.35 32.0653 39.4272L33.3472 40.0314C33.5112 40.1086 33.6448 40.2378 33.7268 40.3986C33.8089 40.5595 33.8347 40.7429 33.8003 40.9199L33.6749 41.5582C33.6554 41.6555 33.6598 41.7561 33.6879 41.8513C33.716 41.9465 33.7669 42.0335 33.8363 42.1049C33.9779 42.2457 34.1174 42.3942 34.2422 42.5472C34.3062 42.6234 34.3881 42.6829 34.4806 42.7204C34.5731 42.7578 34.6735 42.7722 34.7729 42.7622L35.4284 42.7025C35.6089 42.6856 35.7899 42.7287 35.943 42.825C36.0961 42.9213 36.2127 43.0654 36.2745 43.2347L36.7524 44.5632C36.8136 44.7335 36.8161 44.9192 36.7594 45.0911C36.7027 45.263 36.5901 45.4112 36.4393 45.5125L35.8956 45.8783C35.8118 45.9325 35.7427 46.0064 35.6945 46.0935C35.6464 46.1806 35.6206 46.2782 35.6196 46.3776C35.6196 46.5646 35.61 46.7685 35.5903 46.9751C35.581 47.0739 35.5963 47.1734 35.635 47.2649C35.6736 47.3563 35.7344 47.4369 35.8118 47.4995L36.3212 47.9166C36.4608 48.0322 36.5578 48.1906 36.597 48.3669C36.6362 48.5431 36.6153 48.7273 36.5377 48.8906L35.9316 50.1638C35.854 50.3268 35.724 50.4596 35.562 50.5411C35.4 50.6226 35.2154 50.6482 35.0371 50.6139L34.39 50.4899C34.292 50.4688 34.1903 50.4724 34.094 50.5004C33.9978 50.5284 33.9101 50.5799 33.8391 50.6502C33.6979 50.7921 33.5492 50.9265 33.3938 51.0528C33.3172 51.1166 33.2575 51.1979 33.2198 51.2898C33.1821 51.3816 33.1675 51.4813 33.1774 51.58L33.2403 52.2284C33.258 52.4083 33.2144 52.5889 33.1166 52.7414C33.0187 52.8938 32.8723 53.0093 32.7006 53.0694L31.3643 53.5441C31.2754 53.577 31.1814 53.5944 31.0865 53.5954ZM28.8771 52.1993C28.903 52.1992 28.9289 52.2006 28.9547 52.2032C29.1491 52.2232 29.3444 52.2333 29.5399 52.2334C29.6709 52.2346 29.7996 52.2677 29.9146 52.3298C30.0297 52.3919 30.1277 52.4812 30.1999 52.5897L30.5704 53.1314C30.648 53.2451 30.7615 53.3301 30.893 53.3729C31.0244 53.4156 31.1665 53.4138 31.2968 53.3676L32.6337 52.8929C32.7647 52.8468 32.8764 52.7585 32.951 52.642C33.0256 52.5255 33.0588 52.3875 33.0452 52.2501L32.9823 51.6018C32.9687 51.4717 32.9877 51.3402 33.0378 51.2192C33.0878 51.0981 33.1672 50.9913 33.269 50.9082C33.4192 50.7855 33.5628 50.655 33.6991 50.5173C33.7929 50.4249 33.9082 50.357 34.0349 50.3198C34.1616 50.2825 34.2956 50.2771 34.4249 50.304L35.0714 50.4279C35.2075 50.4544 35.3486 50.435 35.4723 50.3728C35.5961 50.3106 35.6954 50.2091 35.7545 50.0845L36.3606 48.8107C36.4198 48.6859 36.4358 48.5452 36.4059 48.4105C36.3759 48.2758 36.3019 48.1547 36.1953 48.0663L35.6859 47.6491C35.584 47.5668 35.5041 47.4607 35.4535 47.3403C35.4029 47.2198 35.3831 47.0888 35.3958 46.9589C35.4144 46.7562 35.4239 46.5607 35.4239 46.3798C35.4249 46.249 35.4584 46.1204 35.5214 46.0055C35.5845 45.8906 35.6752 45.793 35.7854 45.7214L36.328 45.3562C36.4433 45.2787 36.5295 45.1654 36.573 45.034C36.6164 44.9026 36.6147 44.7605 36.568 44.6302L36.0901 43.3022C36.0429 43.173 35.9538 43.0629 35.8368 42.9894C35.7197 42.916 35.5814 42.8832 35.4436 42.8962L34.7875 42.956C34.6568 42.9689 34.5249 42.9497 34.4033 42.9001C34.2818 42.8505 34.1743 42.7721 34.0904 42.6717C33.9667 42.5238 33.8346 42.3797 33.6968 42.2434C33.6046 42.1502 33.5369 42.0359 33.4994 41.9106C33.462 41.7853 33.456 41.6528 33.4821 41.5247L33.6075 40.8864C33.6337 40.7512 33.6139 40.6113 33.5514 40.4884C33.4888 40.3656 33.3869 40.2669 33.2617 40.2079L31.9793 39.6031C31.8535 39.5443 31.7116 39.5288 31.5759 39.5591C31.4403 39.5895 31.3187 39.6639 31.2305 39.7706L30.8122 40.2732C30.7294 40.3748 30.6228 40.4545 30.5017 40.5054C30.3807 40.5564 30.2488 40.5769 30.1179 40.5653C29.9242 40.5458 29.7295 40.5365 29.5349 40.5374C29.4032 40.5366 29.2738 40.5033 29.1582 40.4407C29.0426 40.378 28.9445 40.2879 28.8726 40.1783L28.5043 39.6389C28.4265 39.5241 28.3124 39.4384 28.18 39.3953C28.0476 39.3523 27.9046 39.3542 27.7735 39.401L26.4394 39.8756C26.3083 39.9215 26.1965 40.0097 26.1218 40.1261C26.0471 40.2425 26.0138 40.3804 26.0273 40.5178L26.0874 41.1695C26.1006 41.2998 26.0815 41.4313 26.0317 41.5525C25.9819 41.6737 25.903 41.7809 25.8018 41.8648C25.6517 41.9856 25.5087 42.1148 25.3734 42.2518C25.2795 42.3422 25.165 42.4087 25.0396 42.4457C24.9142 42.4826 24.7816 42.4889 24.6533 42.464L24.0056 42.3395C23.8687 42.313 23.7268 42.3328 23.6027 42.3959C23.4785 42.459 23.3793 42.5616 23.3208 42.6874L22.7148 43.9584C22.6555 44.0832 22.6396 44.2239 22.6695 44.3586C22.6994 44.4933 22.7735 44.6144 22.8801 44.7028L23.386 45.12C23.4887 45.2019 23.5691 45.308 23.6202 45.4286C23.6712 45.5492 23.6912 45.6806 23.6784 45.8108C23.6592 46.0023 23.65 46.1946 23.6508 46.3871C23.6494 46.5171 23.616 46.6449 23.5536 46.7592C23.4912 46.8735 23.4016 46.971 23.2927 47.0432L22.744 47.409C22.6294 47.4864 22.5438 47.5994 22.5009 47.7303C22.4579 47.8612 22.46 48.0026 22.5068 48.1322L22.9846 49.4607C23.0308 49.5902 23.1194 49.7006 23.2362 49.7742C23.353 49.8478 23.4913 49.8804 23.6289 49.8667L24.2878 49.8075C24.4185 49.7948 24.5503 49.814 24.6718 49.8634C24.7933 49.9129 24.9008 49.9911 24.985 50.0912C25.1074 50.2407 25.2376 50.3837 25.3751 50.5195C25.4681 50.6126 25.5364 50.7271 25.5738 50.8529C25.6111 50.9786 25.6165 51.1116 25.5893 51.2399L25.4645 51.8771C25.4378 52.0126 25.4573 52.1531 25.52 52.2763C25.5826 52.3996 25.6847 52.4986 25.8103 52.5578L27.0926 53.1598C27.2183 53.2189 27.3602 53.2344 27.4958 53.2041C27.6314 53.1737 27.7529 53.0992 27.8409 52.9923L28.2592 52.4897C28.3345 52.3993 28.4288 52.3264 28.5356 52.2764C28.6424 52.2263 28.759 52.2002 28.8771 52.1999V52.1993Z" fill="#242B2B"/>
<path d="M29.5365 50.2476C31.6845 50.2476 33.4259 48.5179 33.4259 46.3843C33.4259 44.2507 31.6845 42.521 29.5365 42.521C27.3885 42.521 25.6472 44.2507 25.6472 46.3843C25.6472 48.5179 27.3885 50.2476 29.5365 50.2476Z" fill="#C5CDE3"/>
<path d="M31.6563 48.4897C32.8272 47.3266 32.8272 45.441 31.6563 44.2779C30.4855 43.1149 28.5871 43.1149 27.4162 44.2779C26.2453 45.441 26.2453 47.3266 27.4162 48.4897C28.5871 49.6527 30.4855 49.6527 31.6563 48.4897Z" fill="white"/>
<path d="M29.5348 49.4602C29.0777 49.4597 28.6264 49.3583 28.2136 49.1631C27.5309 48.8398 26.9921 48.278 26.7002 47.5849C26.4084 46.8918 26.384 46.1162 26.6317 45.4064C26.8795 44.6966 27.3819 44.1024 28.043 43.7375C28.7041 43.3726 29.4774 43.2625 30.215 43.4284C30.9527 43.5943 31.6029 44.0244 32.0413 44.6366C32.4797 45.2487 32.6755 46 32.5913 46.7465C32.5071 47.4931 32.1488 48.1827 31.5849 48.6833C31.021 49.1839 30.2911 49.4605 29.5348 49.4602ZM29.5387 43.5005C28.8793 43.5001 28.2394 43.7228 27.7244 44.1318C27.2094 44.5409 26.8499 45.1119 26.7052 45.751C26.5605 46.39 26.6392 47.059 26.9283 47.6477C27.2173 48.2364 27.6996 48.7098 28.2957 48.9899C28.6888 49.1739 29.1185 49.2677 29.5531 49.2646C29.9876 49.2615 30.4159 49.1614 30.8063 48.9719C31.1968 48.7823 31.5393 48.508 31.8087 48.1693C32.0781 47.8306 32.2675 47.4362 32.3629 47.015C32.4582 46.5939 32.4571 46.1569 32.3597 45.7362C32.2622 45.3155 32.0709 44.922 31.7998 44.5846C31.5287 44.2473 31.1848 43.9747 30.7934 43.787C30.4021 43.5994 29.9733 43.5015 29.5387 43.5005Z" fill="#242B2B"/>
<path d="M50.2929 39.7364L49.6081 41.1794C49.5302 41.3414 49.4003 41.4732 49.2388 41.554C49.0774 41.6349 48.8934 41.6602 48.7159 41.6261L47.9851 41.4854C47.8567 41.4586 47.7237 41.4639 47.5979 41.5007C47.4721 41.5376 47.3575 41.6048 47.2643 41.6965C47.1067 41.8538 46.941 42.0029 46.7679 42.1432C46.6678 42.2264 46.5898 42.3328 46.5408 42.453C46.4918 42.5731 46.4732 42.7034 46.4868 42.8324L46.5576 43.5656C46.5747 43.7447 46.5311 43.9244 46.4338 44.0761C46.3364 44.2279 46.1909 44.343 46.0202 44.4033L44.5084 44.9399C44.3383 45.0003 44.1529 45.0029 43.9812 44.9472C43.8095 44.8915 43.6614 44.7807 43.56 44.6322L43.1406 44.0179C43.0688 43.9101 42.9715 43.8213 42.8572 43.7594C42.743 43.6975 42.6152 43.6643 42.485 43.6628C42.2597 43.6628 42.0345 43.651 41.8104 43.6276C41.6801 43.6164 41.5491 43.637 41.4286 43.6876C41.3082 43.7382 41.2021 43.8173 41.1194 43.918L40.6472 44.4842C40.5321 44.6237 40.3732 44.7208 40.1961 44.7602C40.0189 44.7996 39.8335 44.7789 39.6695 44.7015L38.2174 44.0274C38.0539 43.9496 37.9211 43.82 37.8397 43.6592C37.7583 43.4983 37.733 43.3151 37.7676 43.1384L37.9093 42.4169C37.9366 42.289 37.9314 42.1564 37.8942 42.031C37.857 41.9057 37.7889 41.7915 37.6962 41.6987C37.5377 41.5424 37.3876 41.378 37.2464 41.2062C37.1629 41.1063 37.0559 41.0284 36.935 40.9792C36.814 40.93 36.6827 40.9111 36.5527 40.9242L35.8083 40.9917C35.6284 41.0086 35.4479 40.9656 35.2952 40.8695C35.1426 40.7733 35.0264 40.6295 34.965 40.4607L34.4247 38.959C34.3635 38.7897 34.3607 38.605 34.4168 38.4339C34.4729 38.2628 34.5847 38.1152 34.7345 38.0141L35.3529 37.6009C35.4619 37.5285 35.5514 37.4308 35.6137 37.3163C35.6761 37.2017 35.7093 37.0738 35.7105 36.9436C35.7097 36.7222 35.7205 36.501 35.7431 36.2807C35.7553 36.1512 35.7349 36.0208 35.6839 35.901C35.6329 35.7812 35.5528 35.6759 35.4508 35.5944L34.8779 35.122C34.7387 35.0067 34.642 34.8488 34.6029 34.673C34.5638 34.4973 34.5846 34.3136 34.662 34.1508L35.3473 32.7134C35.4249 32.5512 35.5547 32.4193 35.7161 32.3384C35.8776 32.2575 36.0615 32.2323 36.239 32.2666L36.9698 32.4074C37.0992 32.4335 37.2331 32.4277 37.3597 32.3905C37.4864 32.3533 37.6019 32.2859 37.6962 32.194C37.852 32.0361 38.0166 31.887 38.1892 31.7473C38.2898 31.6637 38.368 31.5568 38.417 31.436C38.4661 31.3152 38.4844 31.1843 38.4703 31.0548L38.4023 30.3188C38.3852 30.1397 38.4288 29.96 38.5262 29.8082C38.6235 29.6565 38.7691 29.5414 38.9398 29.4811L40.451 28.9439C40.6218 28.8835 40.808 28.8813 40.9802 28.9377C41.1524 28.994 41.3009 29.1056 41.4022 29.255L41.8183 29.8648C41.8897 29.9734 41.987 30.0628 42.1016 30.1253C42.2161 30.1877 42.3443 30.2212 42.4749 30.2227C42.6987 30.2218 42.9224 30.2326 43.1451 30.2551C43.2754 30.2667 43.4066 30.2463 43.527 30.1957C43.6475 30.145 43.7536 30.0657 43.836 29.9647L44.3088 29.3985C44.4241 29.2593 44.5829 29.1623 44.7601 29.1229C44.9372 29.0836 45.1225 29.1041 45.2865 29.1813L46.7364 29.8648C46.8999 29.9419 47.0328 30.0708 47.1143 30.2313C47.1957 30.3918 47.221 30.5747 47.1862 30.751L47.0445 31.4725C47.019 31.6001 47.025 31.7319 47.0621 31.8566C47.0992 31.9813 47.1663 32.0952 47.2576 32.1885C47.4167 32.3465 47.5673 32.5112 47.7073 32.681C47.7913 32.7803 47.8985 32.8577 48.0195 32.9064C48.1406 32.9551 48.2718 32.9735 48.4016 32.9602L49.1426 32.8927C49.3225 32.8761 49.5029 32.9192 49.6555 33.0153C49.8081 33.1114 49.9243 33.255 49.9859 33.4237L50.5262 34.9254C50.587 35.0951 50.5892 35.28 50.5325 35.4511C50.4758 35.6221 50.3634 35.7696 50.2131 35.8703L49.5991 36.2835C49.4895 36.3547 49.3992 36.4517 49.3364 36.5659C49.2735 36.6801 49.24 36.8079 49.2388 36.938C49.2388 37.158 49.227 37.3808 49.2062 37.6037C49.1941 37.7329 49.2142 37.863 49.2647 37.9827C49.3152 38.1024 49.3945 38.2079 49.4957 38.29L50.0714 38.7624C50.2123 38.877 50.3107 39.0351 50.3508 39.2115C50.3909 39.388 50.3706 39.5727 50.2929 39.7364Z" fill="white"/>
<path d="M44.2308 45.0885C44.082 45.089 43.9353 45.053 43.8038 44.9837C43.6723 44.9145 43.56 44.8141 43.4769 44.6915L43.0575 44.0772C42.9946 43.9822 42.9093 43.9041 42.8089 43.8495C42.7085 43.795 42.5962 43.7658 42.4818 43.7645C42.2536 43.7642 42.0256 43.7523 41.7987 43.7287C41.6843 43.7191 41.5692 43.7374 41.4635 43.782C41.3578 43.8266 41.2647 43.8961 41.1921 43.9845L40.7193 44.5507C40.5907 44.7068 40.4131 44.8155 40.215 44.8595C40.0169 44.9036 39.8097 44.8804 39.6264 44.7937L38.1759 44.1129C37.9926 44.0265 37.8434 43.882 37.7518 43.7022C37.6602 43.5223 37.6314 43.3173 37.6699 43.1195L37.8116 42.3974C37.8358 42.2854 37.8315 42.1692 37.7991 42.0594C37.7667 41.9495 37.7072 41.8493 37.6261 41.768C37.4655 41.6084 37.3133 41.4406 37.1701 41.2654C37.0967 41.1776 37.0027 41.1091 36.8963 41.0661C36.7898 41.023 36.6744 41.0067 36.5601 41.0186L35.8158 41.0862C35.6148 41.1052 35.4131 41.0572 35.2427 40.9497C35.0722 40.8422 34.9427 40.6813 34.8746 40.4925L34.3338 38.9898C34.2655 38.8005 34.2625 38.594 34.3253 38.4028C34.3881 38.2116 34.5131 38.0466 34.6807 37.9338L35.2991 37.52C35.3951 37.4566 35.474 37.3709 35.5288 37.2702C35.5836 37.1695 35.6126 37.057 35.6134 36.9425C35.6128 36.7187 35.6239 36.4951 35.6465 36.2724C35.6573 36.1588 35.6395 36.0442 35.5947 35.9391C35.5498 35.8341 35.4793 35.7417 35.3896 35.6704L34.8156 35.1974C34.6601 35.0685 34.552 34.892 34.5083 34.6955C34.4647 34.499 34.4879 34.2937 34.5744 34.1118L35.2597 32.6744C35.3462 32.4925 35.4912 32.3444 35.6717 32.2534C35.8523 32.1624 36.0583 32.1337 36.2571 32.1718L36.988 32.3125C37.101 32.335 37.2178 32.3299 37.3284 32.2976C37.4389 32.2653 37.5399 32.2068 37.6227 32.1271C37.7808 31.9673 37.9476 31.8163 38.1225 31.6747C38.2109 31.6014 38.2798 31.5075 38.3232 31.4015C38.3665 31.2954 38.3829 31.1804 38.371 31.0666L38.3029 30.3295C38.2834 30.1289 38.3319 29.9276 38.4408 29.7576C38.5497 29.5876 38.7127 29.4586 38.9039 29.3913L40.4129 28.8546C40.604 28.7876 40.812 28.7855 41.0045 28.8484C41.1969 28.9114 41.3629 29.0359 41.4766 29.2025L41.8926 29.8123C41.9554 29.9084 42.0411 29.9876 42.1421 30.0427C42.2432 30.0979 42.3564 30.1273 42.4717 30.1284C42.6988 30.1275 42.9259 30.1383 43.1519 30.1608C43.2664 30.1706 43.3815 30.1524 43.4872 30.1078C43.593 30.0632 43.6861 29.9936 43.7586 29.905L44.2314 29.3388C44.3603 29.1832 44.5379 29.0749 44.7358 29.0309C44.9338 28.9869 45.1409 29.0097 45.3243 29.0959L46.7748 29.7794C46.9579 29.8653 47.107 30.0093 47.1986 30.1886C47.2902 30.368 47.3191 30.5726 47.2808 30.7701L47.1413 31.491C47.1189 31.6031 47.1241 31.719 47.1565 31.8287C47.1889 31.9384 47.2476 32.0386 47.3274 32.1209C47.4877 32.2795 47.6417 32.4476 47.7856 32.6202C47.8596 32.7076 47.9539 32.7759 48.0604 32.819C48.1669 32.8621 48.2823 32.8787 48.3967 32.8676L49.1377 32.8C49.3391 32.7809 49.5411 32.8288 49.712 32.9363C49.8829 33.0438 50.0129 33.2047 50.0817 33.3936L50.6225 34.8958C50.6898 35.0856 50.692 35.2923 50.6286 35.4834C50.5652 35.6746 50.4399 35.8395 50.2722 35.9524L49.6583 36.3657C49.5617 36.4281 49.4821 36.5133 49.4266 36.6136C49.3711 36.714 49.3414 36.8264 49.3401 36.9409C49.3401 37.1531 49.3294 37.3798 49.3075 37.6154C49.2967 37.7291 49.3143 37.8437 49.3587 37.949C49.4031 38.0543 49.473 38.1471 49.5622 38.2191L50.1379 38.6916C50.2937 38.8202 50.402 38.9968 50.4457 39.1933C50.4894 39.3899 50.4659 39.5953 50.3791 39.7772L49.6943 41.218C49.6079 41.4 49.4628 41.5483 49.2821 41.6393C49.1014 41.7303 48.8953 41.7589 48.6964 41.7206L47.9655 41.5798C47.8527 41.556 47.7356 41.5604 47.6249 41.5926C47.5142 41.6249 47.4133 41.684 47.3314 41.7647C47.1718 41.9248 47.004 42.0768 46.8287 42.2198C46.7404 42.2931 46.6716 42.3867 46.6282 42.4925C46.5847 42.5984 46.5681 42.7131 46.5797 42.8268L46.6505 43.5595C46.6703 43.7602 46.6218 43.9618 46.5128 44.1319C46.4037 44.3021 46.2404 44.4311 46.049 44.4982L44.5372 45.0343C44.439 45.0697 44.3353 45.0881 44.2308 45.0885ZM41.7318 43.5349C41.7608 43.535 41.7897 43.5366 41.8184 43.54C42.0388 43.5629 42.2602 43.5744 42.4818 43.5746C42.6278 43.5758 42.7712 43.6126 42.8995 43.6817C43.0278 43.7508 43.1371 43.8502 43.2177 43.9711L43.6366 44.5854C43.726 44.7162 43.8566 44.8138 44.0079 44.863C44.1592 44.9121 44.3226 44.9099 44.4726 44.8568L45.9843 44.3201C46.1352 44.2674 46.264 44.1658 46.3499 44.0318C46.4358 43.8977 46.474 43.7389 46.4583 43.5807L46.3874 42.8469C46.3721 42.7018 46.3933 42.5552 46.449 42.4203C46.5047 42.2853 46.5933 42.1661 46.7067 42.0735C46.8769 41.935 47.0398 41.788 47.1947 41.6329C47.299 41.5297 47.4276 41.454 47.5687 41.4124C47.7098 41.3709 47.8591 41.3649 48.0032 41.395L48.7341 41.5352C48.8909 41.5662 49.0536 41.5442 49.1963 41.4725C49.339 41.4008 49.4534 41.2837 49.5211 41.1398L50.2065 39.6996C50.2748 39.556 50.2932 39.394 50.2589 39.239C50.2245 39.0839 50.1392 38.9446 50.0164 38.8429L49.4407 38.371C49.3271 38.279 49.2381 38.1606 49.1816 38.0263C49.1252 37.892 49.1029 37.7458 49.1169 37.6009C49.1383 37.372 49.149 37.1508 49.149 36.9448C49.15 36.7988 49.1873 36.6554 49.2577 36.5273C49.328 36.3992 49.4291 36.2903 49.552 36.2104L50.166 35.7972C50.2983 35.7082 50.3971 35.5781 50.4471 35.4273C50.497 35.2766 50.4952 35.1136 50.442 34.964L49.9017 33.4623C49.8475 33.3134 49.7449 33.1867 49.6101 33.1021C49.4753 33.0174 49.3161 32.9797 49.1574 32.9949L48.4158 33.0619C48.27 33.0766 48.1228 33.0555 47.9871 33.0004C47.8514 32.9453 47.7314 32.8579 47.6378 32.7458C47.4983 32.5783 47.3488 32.4147 47.1925 32.26C47.0905 32.1554 47.0155 32.0278 46.9739 31.8882C46.9323 31.7485 46.9253 31.601 46.9536 31.4581L47.0952 30.7366C47.1259 30.5808 47.1033 30.4193 47.0311 30.2777C46.9589 30.136 46.8412 30.0224 46.6966 29.9547L45.2467 29.2712C45.1021 29.203 44.9388 29.1848 44.7826 29.2195C44.6264 29.2542 44.4864 29.3398 44.3848 29.4628L43.912 30.0285C43.82 30.142 43.701 30.2311 43.5659 30.2878C43.4307 30.3445 43.2834 30.3671 43.1373 30.3535C42.9179 30.3312 42.6973 30.3205 42.4767 30.3216C42.3299 30.3207 42.1856 30.2836 42.0567 30.2137C41.9278 30.1439 41.8183 30.0434 41.738 29.9212L41.3214 29.3114C41.2319 29.1799 41.1009 29.0817 40.9491 29.0321C40.7973 28.9824 40.6333 28.9843 40.4826 29.0372L38.9742 29.5739C38.8232 29.6268 38.6945 29.7284 38.6085 29.8626C38.5225 29.9967 38.4842 30.1556 38.4997 30.3138L38.5677 31.0498C38.5836 31.1953 38.5628 31.3423 38.5072 31.4778C38.4515 31.6132 38.3628 31.7327 38.249 31.8255C38.0789 31.9625 37.917 32.1091 37.7638 32.2645C37.6587 32.3662 37.5303 32.441 37.3897 32.4824C37.2491 32.5239 37.1004 32.5307 36.9565 32.5024L36.2256 32.3616C36.0688 32.3314 35.9064 32.3538 35.7639 32.4254C35.6213 32.497 35.5069 32.6136 35.4385 32.757L34.7532 34.1944C34.685 34.338 34.6667 34.5001 34.7012 34.6551C34.7357 34.8101 34.821 34.9494 34.9438 35.0511L35.5161 35.523C35.6307 35.6143 35.7206 35.7325 35.7777 35.8669C35.8348 36.0014 35.8574 36.1478 35.8433 36.2931C35.821 36.5101 35.8103 36.7282 35.8113 36.9464C35.8102 37.0923 35.7733 37.2357 35.7036 37.3641C35.6339 37.4925 35.5336 37.602 35.4115 37.683L34.7931 38.0968C34.6612 38.1858 34.5628 38.3159 34.5133 38.4665C34.4638 38.6171 34.4662 38.7797 34.5199 38.9289L35.0607 40.4317C35.1145 40.5803 35.2165 40.707 35.3508 40.7916C35.4851 40.8763 35.644 40.9141 35.8023 40.8991L36.5466 40.8315C36.6925 40.8173 36.8396 40.8388 36.9752 40.894C37.1108 40.9492 37.2308 41.0364 37.3247 41.1482C37.4634 41.3176 37.6109 41.4798 37.7666 41.634C37.8704 41.7375 37.9465 41.8651 37.9882 42.0052C38.03 42.1453 38.0359 42.2935 38.0055 42.4365L37.8644 43.1574C37.8343 43.3131 37.8571 43.4743 37.9291 43.6158C38.0012 43.7573 38.1184 43.871 38.2625 43.9392L39.7129 44.6194C39.8573 44.6879 40.0207 44.7063 40.1768 44.6716C40.3329 44.637 40.4729 44.5514 40.5742 44.4284L41.0471 43.8616C41.1299 43.7602 41.2341 43.678 41.3525 43.6211C41.4708 43.5642 41.6003 43.5338 41.7318 43.5321V43.5349Z" fill="#242B2B"/>
<path d="M42.4778 41.3132C44.9071 41.3132 46.8764 39.357 46.8764 36.944C46.8764 34.5309 44.9071 32.5747 42.4778 32.5747C40.0485 32.5747 38.0791 34.5309 38.0791 36.944C38.0791 39.357 40.0485 41.3132 42.4778 41.3132Z" fill="#C5CDE3"/>
<path d="M45.5599 38.3628C46.3463 36.6747 45.606 34.673 43.9065 33.8919C42.207 33.1108 40.1919 33.8461 39.4055 35.5342C38.6192 37.2223 39.3594 39.224 41.0589 40.0051C42.7584 40.7862 44.7736 40.0509 45.5599 38.3628Z" fill="white"/>
<path d="M42.4749 40.4076C41.7201 40.4063 40.9861 40.1616 40.3833 39.7104C39.7804 39.2591 39.3414 38.6257 39.132 37.9053C38.9227 37.185 38.9545 36.4166 39.2226 35.7157C39.4906 35.0148 39.9805 34.4192 40.6186 34.0186C41.2566 33.618 42.0083 33.4339 42.7607 33.4941C43.5131 33.5542 44.2255 33.8554 44.7908 34.3522C45.3561 34.8491 45.7438 35.5148 45.8955 36.2493C46.0473 36.9837 45.9549 37.7473 45.6322 38.4251C45.3514 39.0205 44.9048 39.5235 44.3453 39.8748C43.7858 40.2261 43.1368 40.411 42.4749 40.4076ZM42.4856 33.6717C41.6747 33.6708 40.892 33.9671 40.2874 34.5038C39.6828 35.0405 39.2987 35.7798 39.2086 36.5803C39.1186 37.3807 39.3289 38.186 39.7994 38.842C40.2699 39.498 40.9675 39.9586 41.7585 40.1355C42.5496 40.3125 43.3785 40.1934 44.0867 39.8011C44.7949 39.4087 45.3325 38.7707 45.5965 38.0092C45.8606 37.2477 45.8327 36.4161 45.518 35.6738C45.2033 34.9315 44.624 34.3306 43.8911 33.9861C43.4509 33.7794 42.9702 33.672 42.4833 33.6717H42.4856Z" fill="#242B2B"/>
<path d="M52.0741 62.0879V97.0681C52.0738 97.5808 51.8685 98.0723 51.5034 98.4347C51.1383 98.797 50.6433 99.0005 50.1272 99.0003H24.8887C24.6333 99.0004 24.3804 98.9505 24.1443 98.8534C23.9083 98.7563 23.6939 98.614 23.5133 98.4345C23.3327 98.2551 23.1895 98.042 23.0918 97.8076C22.9941 97.5731 22.9439 97.3219 22.9441 97.0681V62.0879H52.0741Z" fill="black"/>
<path d="M53.2968 47.5083H21.6679C20.606 47.5083 19.7451 48.3634 19.7451 49.4182V60.0777C19.7451 61.1325 20.606 61.9876 21.6679 61.9876H53.2968C54.3587 61.9876 55.2195 61.1325 55.2195 60.0777V49.4182C55.2195 48.3634 54.3587 47.5083 53.2968 47.5083Z" fill="white"/>
<path d="M53.2968 62.0835H21.6679C21.1327 62.0823 20.6199 61.8707 20.2414 61.4949C19.863 61.1191 19.6498 60.6097 19.6484 60.0781V49.418C19.6496 48.8864 19.8628 48.3769 20.2412 48.0009C20.6197 47.625 21.1327 47.4133 21.6679 47.4121H53.2968C53.832 47.4133 54.345 47.625 54.7235 48.0009C55.1019 48.3769 55.3151 48.8864 55.3162 49.418V60.0781C55.3149 60.6097 55.1017 61.1191 54.7233 61.4949C54.3448 61.8707 53.8319 62.0823 53.2968 62.0835ZM21.6679 47.6042C21.1838 47.6048 20.7196 47.7961 20.3773 48.1361C20.035 48.4762 19.8424 48.9372 19.8418 49.418V60.0781C19.8424 60.559 20.035 61.02 20.3773 61.36C20.7196 61.7001 21.1838 61.8914 21.6679 61.8919H53.2968C53.781 61.8915 54.2453 61.7003 54.5877 61.3602C54.9302 61.0202 55.1228 60.5591 55.1234 60.0781V49.418C55.1228 48.9371 54.9302 48.476 54.5877 48.1359C54.2453 47.7959 53.781 47.6047 53.2968 47.6042H21.6679Z" fill="black"/>
<path d="M32.6533 61.9883C32.8604 61.4182 33.2393 60.9254 33.7385 60.5769C34.2377 60.2285 34.8328 60.0413 35.443 60.041H40.6282C41.2382 60.0414 41.8333 60.2285 42.3324 60.577C42.8315 60.9254 43.2103 61.4183 43.4172 61.9883H32.6533Z" fill="#161C1C"/>
<path d="M43.555 62.0837H32.5161L32.5622 61.9552C32.7771 61.3673 33.1687 60.8591 33.6839 60.4995C34.1992 60.1399 34.8132 59.9463 35.4429 59.9448H40.6276C41.2573 59.9462 41.8714 60.1398 42.3866 60.4994C42.9019 60.859 43.2935 61.3672 43.5083 61.9552L43.555 62.0837ZM32.7944 61.8921H43.2761C43.0576 61.3731 42.6897 60.9297 42.2185 60.6175C41.7474 60.3053 41.1939 60.1381 40.6276 60.1369H35.4429C34.8766 60.1381 34.3231 60.3053 33.852 60.6175C33.3809 60.9297 33.013 61.3731 32.7944 61.8921Z" fill="black"/>
<path d="M51.2796 51.2129H51.8317C51.9301 51.2129 52.0244 51.2517 52.094 51.3208C52.1636 51.39 52.2027 51.4837 52.2027 51.5815V52.1299C52.2027 52.2278 52.1636 52.3216 52.0939 52.3909C52.0242 52.4601 51.9297 52.499 51.8311 52.499H51.279C51.2303 52.499 51.182 52.4894 51.137 52.4709C51.092 52.4524 51.0511 52.4253 51.0166 52.391C50.9822 52.3568 50.9549 52.3162 50.9362 52.2715C50.9176 52.2267 50.908 52.1788 50.908 52.1304V51.582C50.908 51.4841 50.9471 51.3902 51.0168 51.321C51.0865 51.2518 51.181 51.2129 51.2796 51.2129Z" fill="#242B2B"/>
<path d="M47.605 51.2129H48.1571C48.2058 51.2129 48.2541 51.2224 48.2991 51.2409C48.3441 51.2595 48.385 51.2866 48.4195 51.3208C48.4539 51.3551 48.4813 51.3957 48.4999 51.4404C48.5186 51.4851 48.5281 51.5331 48.5281 51.5815V52.1299C48.5281 52.2278 48.489 52.3216 48.4193 52.3909C48.3496 52.4601 48.2551 52.499 48.1565 52.499H47.6045C47.506 52.499 47.4117 52.4602 47.3421 52.391C47.2725 52.3219 47.2334 52.2282 47.2334 52.1304V51.582C47.2334 51.4841 47.2725 51.3902 47.3422 51.321C47.4119 51.2518 47.5065 51.2129 47.605 51.2129Z" fill="#242B2B"/>
<path d="M43.9306 51.2129H44.4827C44.5811 51.2129 44.6755 51.2517 44.7451 51.3208C44.8147 51.39 44.8538 51.4837 44.8538 51.5815V52.1299C44.8538 52.2278 44.8146 52.3216 44.7449 52.3909C44.6752 52.4601 44.5807 52.499 44.4821 52.499H43.9306C43.8322 52.499 43.7378 52.4602 43.6682 52.391C43.5987 52.3219 43.5596 52.2282 43.5596 52.1304V51.582C43.5596 51.4842 43.5986 51.3904 43.6682 51.3212C43.7378 51.252 43.8322 51.213 43.9306 51.2129Z" fill="#242B2B"/>
<path d="M40.2536 51.2129H40.8057C40.9041 51.2129 40.9985 51.2517 41.0681 51.3208C41.1377 51.39 41.1768 51.4837 41.1768 51.5815V52.1299C41.1768 52.2278 41.1376 52.3216 41.0679 52.3909C40.9982 52.4601 40.9037 52.499 40.8051 52.499H40.2536C40.1552 52.499 40.0608 52.4602 39.9912 52.391C39.9217 52.3219 39.8826 52.2282 39.8826 52.1304V51.582C39.8826 51.4842 39.9216 51.3904 39.9912 51.3212C40.0608 51.252 40.1552 51.213 40.2536 51.2129Z" fill="#242B2B"/>
<path d="M49.2151 52.8643H49.7672C49.8656 52.8643 49.96 52.9031 50.0296 52.9722C50.0992 53.0413 50.1383 53.1351 50.1383 53.2328V53.7812C50.1383 53.8791 50.0991 53.973 50.0294 54.0422C49.9597 54.1115 49.8652 54.1503 49.7666 54.1503H49.2151C49.1166 54.1503 49.022 54.1115 48.9524 54.0422C48.8827 53.973 48.8435 53.8791 48.8435 53.7812V53.2328C48.8435 53.1844 48.8531 53.1364 48.8718 53.0917C48.8905 53.0469 48.9179 53.0062 48.9524 52.972C48.9869 52.9378 49.0279 52.9106 49.073 52.8922C49.118 52.8737 49.1663 52.8642 49.2151 52.8643Z" fill="#242B2B"/>
<path d="M46.0921 52.8643H45.5406C45.3353 52.8643 45.1689 53.0295 45.1689 53.2334V53.7812C45.1689 53.9851 45.3353 54.1503 45.5406 54.1503H46.0921C46.2973 54.1503 46.4637 53.9851 46.4637 53.7812V53.2334C46.4637 53.0295 46.2973 52.8643 46.0921 52.8643Z" fill="#242B2B"/>
<path d="M41.866 52.8643H42.4181C42.5165 52.8643 42.6109 52.9031 42.6805 52.9722C42.75 53.0413 42.7891 53.1351 42.7891 53.2328V53.7812C42.7891 53.8791 42.75 53.973 42.6803 54.0422C42.6106 54.1115 42.5161 54.1503 42.4175 54.1503H41.8654C41.767 54.1503 41.6727 54.1115 41.6031 54.0424C41.5335 53.9733 41.4944 53.8795 41.4944 53.7818V53.2334C41.4944 53.1356 41.5335 53.0419 41.6031 52.9728C41.6727 52.9036 41.767 52.8648 41.8654 52.8648L41.866 52.8643Z" fill="#242B2B"/>
<path d="M38.1914 52.8643H38.7435C38.8421 52.8643 38.9366 52.9031 39.0063 52.9724C39.076 53.0416 39.1151 53.1355 39.1151 53.2334V53.7818C39.1151 53.8797 39.076 53.9736 39.0063 54.0428C38.9366 54.112 38.8421 54.1509 38.7435 54.1509H38.1914C38.0929 54.1509 37.9984 54.112 37.9287 54.0428C37.859 53.9736 37.8198 53.8797 37.8198 53.7818V53.2334C37.8198 53.1849 37.8293 53.1369 37.848 53.092C37.8666 53.0472 37.894 53.0065 37.9285 52.9722C37.963 52.9379 38.004 52.9107 38.0491 52.8922C38.0943 52.8737 38.1426 52.8642 38.1914 52.8643Z" fill="#242B2B"/>
<path d="M51.2797 54.356H51.8317C51.9301 54.356 52.0245 54.3948 52.0941 54.4639C52.1637 54.533 52.2028 54.6268 52.2028 54.7245V55.2729C52.2028 55.3708 52.1636 55.4647 52.094 55.5339C52.0243 55.6032 51.9297 55.6421 51.8312 55.6421H51.2791C51.1805 55.6421 51.086 55.6032 51.0163 55.5339C50.9466 55.4647 50.9075 55.3708 50.9075 55.2729V54.7273C50.9072 54.6786 50.9166 54.6303 50.9352 54.5852C50.9537 54.5402 50.9811 54.4992 51.0157 54.4647C51.0503 54.4301 51.0915 54.4028 51.1368 54.3841C51.182 54.3655 51.2306 54.3559 51.2797 54.356Z" fill="#242B2B"/>
<path d="M47.605 54.356H48.1571C48.2058 54.356 48.2541 54.3655 48.2991 54.384C48.3441 54.4025 48.385 54.4297 48.4195 54.4639C48.4539 54.4981 48.4813 54.5388 48.4999 54.5835C48.5186 54.6282 48.5282 54.6761 48.5282 54.7245V55.2729C48.5282 55.3708 48.489 55.4647 48.4193 55.5339C48.3496 55.6032 48.2551 55.6421 48.1565 55.6421H47.6045C47.506 55.6421 47.4117 55.6032 47.3421 55.5341C47.2725 55.465 47.2334 55.3712 47.2334 55.2735V54.7273C47.2331 54.6787 47.2425 54.6304 47.261 54.5854C47.2796 54.5403 47.3069 54.4994 47.3415 54.4649C47.376 54.4304 47.4171 54.403 47.4623 54.3843C47.5075 54.3656 47.556 54.356 47.605 54.356Z" fill="#242B2B"/>
<path d="M43.9306 54.356H44.4827C44.5813 54.356 44.6758 54.3948 44.7455 54.4641C44.8152 54.5333 44.8543 54.6272 44.8543 54.7251V55.2735C44.8543 55.3714 44.8152 55.4653 44.7455 55.5345C44.6758 55.6037 44.5813 55.6426 44.4827 55.6426H43.9306C43.8322 55.6426 43.7378 55.6038 43.6683 55.5347C43.5987 55.4655 43.5596 55.3718 43.5596 55.274V54.7273C43.5593 54.6787 43.5687 54.6305 43.5872 54.5855C43.6057 54.5405 43.6329 54.4996 43.6674 54.4651C43.7019 54.4306 43.7429 54.4032 43.7881 54.3844C43.8332 54.3657 43.8817 54.356 43.9306 54.356Z" fill="#242B2B"/>
<path d="M40.2536 54.356H40.8057C40.9041 54.356 40.9985 54.3948 41.0681 54.4639C41.1377 54.533 41.1768 54.6268 41.1768 54.7245V55.2729C41.1768 55.3708 41.1376 55.4647 41.0679 55.5339C40.9982 55.6032 40.9037 55.6421 40.8051 55.6421H40.2536C40.1552 55.6421 40.0608 55.6032 39.9912 55.5341C39.9217 55.465 39.8826 55.3712 39.8826 55.2735V54.7273C39.8826 54.6294 39.9217 54.5355 39.9914 54.4663C40.0611 54.3971 40.1556 54.3582 40.2542 54.3582L40.2536 54.356Z" fill="#242B2B"/>
<path d="M49.2151 56.0074H49.7672C49.8656 56.0074 49.96 56.0462 50.0296 56.1153C50.0992 56.1845 50.1383 56.2782 50.1383 56.376V56.9244C50.1383 57.0223 50.0991 57.1161 50.0294 57.1854C49.9597 57.2546 49.8652 57.2935 49.7666 57.2935H49.2151C49.1166 57.2935 49.022 57.2546 48.9524 57.1854C48.8827 57.1161 48.8435 57.0223 48.8435 56.9244V56.376C48.8435 56.2781 48.8827 56.1842 48.9524 56.115C49.022 56.0457 49.1166 56.0068 49.2151 56.0068V56.0074Z" fill="#242B2B"/>
<path d="M45.5383 56.0073H46.0904C46.1888 56.0073 46.2832 56.0462 46.3527 56.1153C46.4223 56.1844 46.4614 56.2781 46.4614 56.3759V56.9243C46.4614 57.0222 46.4223 57.1161 46.3526 57.1853C46.2829 57.2545 46.1884 57.2934 46.0898 57.2934H45.5383C45.4399 57.2934 45.3455 57.2546 45.2759 57.1855C45.2063 57.1163 45.1672 57.0226 45.1672 56.9248V56.3765C45.1672 56.2787 45.2063 56.1848 45.2759 56.1156C45.3454 56.0464 45.4398 56.0075 45.5383 56.0073Z" fill="#242B2B"/>
<path d="M41.866 56.0073H42.4181C42.5165 56.0073 42.6109 56.0462 42.6805 56.1153C42.75 56.1844 42.7891 56.2781 42.7891 56.3759V56.9243C42.7891 57.0222 42.75 57.1161 42.6803 57.1853C42.6106 57.2545 42.5161 57.2934 42.4175 57.2934H41.8654C41.767 57.2934 41.6727 57.2546 41.6031 57.1855C41.5335 57.1163 41.4944 57.0226 41.4944 56.9248V56.3765C41.4944 56.2786 41.5335 56.1847 41.6032 56.1154C41.6729 56.0462 41.7674 56.0073 41.866 56.0073Z" fill="#242B2B"/>
<path d="M38.1914 56.0073H38.7435C38.8419 56.0073 38.9363 56.0462 39.0059 56.1153C39.0755 56.1844 39.1146 56.2781 39.1146 56.3759V56.9243C39.1146 56.9728 39.105 57.0208 39.0863 57.0655C39.0676 57.1103 39.0402 57.151 39.0057 57.1853C38.9712 57.2196 38.9303 57.2468 38.8852 57.2653C38.8401 57.2839 38.7918 57.2934 38.743 57.2934H38.1909C38.0925 57.2934 37.9981 57.2546 37.9285 57.1855C37.8589 57.1163 37.8198 57.0226 37.8198 56.9248V56.3765C37.8198 56.2786 37.859 56.1847 37.9287 56.1154C37.9984 56.0462 38.0929 56.0073 38.1914 56.0073Z" fill="#242B2B"/>
<path d="M32.2253 53.9761C32.2258 54.3612 32.3606 54.7342 32.6068 55.0316C32.853 55.329 33.1954 55.5325 33.5757 55.6073C33.9559 55.6821 34.3506 55.6236 34.6923 55.4419C35.0341 55.2601 35.3018 54.9663 35.45 54.6105C35.5981 54.2546 35.6175 53.8588 35.5048 53.4903C35.3921 53.1219 35.1543 52.8037 34.8319 52.5898C34.5095 52.376 34.1225 52.2798 33.7367 52.3176C33.3509 52.3554 32.9903 52.5249 32.7162 52.7972C32.5604 52.952 32.4368 53.1358 32.3526 53.3381C32.2684 53.5404 32.2251 53.7572 32.2253 53.9761Z" fill="#FF876C"/>
<path d="M33.903 55.7379C33.5518 55.7381 33.2085 55.6349 32.9165 55.4413C32.6244 55.2476 32.3967 54.9723 32.2623 54.6501C32.1278 54.3279 32.0926 53.9733 32.161 53.6312C32.2295 53.2892 32.3985 52.9749 32.6468 52.7283C32.8951 52.4817 33.2114 52.3137 33.5558 52.2457C33.9002 52.1777 34.2572 52.2128 34.5816 52.3463C34.9059 52.4799 35.1831 52.706 35.378 52.9961C35.573 53.2862 35.6769 53.6272 35.6767 53.976C35.6774 54.2076 35.6321 54.4371 35.5432 54.6511C35.4543 54.8652 35.3237 55.0598 35.1588 55.2235C34.994 55.3873 34.7981 55.517 34.5826 55.6053C34.3671 55.6936 34.1361 55.7387 33.903 55.7379ZM33.903 52.4057C33.5378 52.4062 33.1841 52.5324 32.9021 52.7629C32.6202 52.9933 32.4273 53.3137 32.3565 53.6696C32.2856 54.0254 32.3411 54.3946 32.5136 54.7143C32.686 55.034 32.9647 55.2845 33.3022 55.423C33.6397 55.5616 34.015 55.5796 34.3644 55.4741C34.7137 55.3686 35.0155 55.146 35.2182 54.8443C35.4209 54.5426 35.5121 54.1805 35.4761 53.8195C35.4402 53.4586 35.2794 53.1212 35.0212 52.8647C34.8746 52.7184 34.7004 52.6024 34.5084 52.5233C34.3165 52.4443 34.1107 52.4037 33.903 52.404V52.4057Z" fill="black"/>
<path d="M27.2993 53.9761C27.2997 54.3612 27.4345 54.7342 27.6808 55.0316C27.927 55.329 28.2694 55.5325 28.6496 55.6073C29.0299 55.6821 29.4245 55.6236 29.7663 55.4419C30.1081 55.2601 30.3758 54.9663 30.524 54.6105C30.6721 54.2546 30.6915 53.8588 30.5788 53.4903C30.4661 53.1219 30.2283 52.8037 29.9059 52.5898C29.5835 52.376 29.1965 52.2798 28.8107 52.3176C28.4249 52.3554 28.0642 52.5249 27.7901 52.7972C27.6343 52.952 27.5108 53.1358 27.4266 53.3381C27.3424 53.5404 27.2991 53.7572 27.2993 53.9761Z" fill="#E099ED"/>
<path d="M28.9769 55.7379C28.6258 55.7381 28.2825 55.6349 27.9904 55.4413C27.6984 55.2476 27.4707 54.9723 27.3362 54.6501C27.2018 54.3279 27.1665 53.9733 27.235 53.6312C27.3034 53.2892 27.4725 52.9749 27.7208 52.7283C27.9691 52.4817 28.2854 52.3137 28.6298 52.2457C28.9742 52.1777 29.3312 52.2128 29.6555 52.3463C29.9799 52.4799 30.2571 52.706 30.452 52.9961C30.647 53.2862 30.7509 53.6272 30.7507 53.976C30.7514 54.2076 30.706 54.4371 30.6172 54.6511C30.5283 54.8652 30.3977 55.0598 30.2328 55.2235C30.068 55.3873 29.8721 55.517 29.6566 55.6053C29.4411 55.6936 29.2101 55.7387 28.9769 55.7379ZM28.9769 52.4057C28.6118 52.4062 28.2581 52.5324 27.9761 52.7629C27.6941 52.9933 27.5013 53.3137 27.4304 53.6696C27.3596 54.0254 27.4151 54.3946 27.5876 54.7143C27.76 55.034 28.0387 55.2845 28.3762 55.423C28.7136 55.5616 29.089 55.5796 29.4384 55.4741C29.7877 55.3686 30.0895 55.146 30.2922 54.8443C30.4949 54.5426 30.586 54.1805 30.5501 53.8195C30.5142 53.4586 30.3534 53.1212 30.0951 52.8647C29.9486 52.7184 29.7743 52.6024 29.5824 52.5233C29.3905 52.4443 29.1847 52.4037 28.9769 52.404V52.4057Z" fill="black"/>
<path d="M22.3728 53.9761C22.3732 54.3612 22.508 54.7342 22.7542 55.0316C23.0005 55.329 23.3429 55.5325 23.7231 55.6073C24.1034 55.6821 24.498 55.6236 24.8398 55.4419C25.1815 55.2601 25.4493 54.9663 25.5975 54.6105C25.7456 54.2546 25.765 53.8588 25.6523 53.4903C25.5396 53.1219 25.3018 52.8037 24.9794 52.5898C24.657 52.376 24.2699 52.2798 23.8842 52.3176C23.4984 52.3554 23.1377 52.5249 22.8636 52.7972C22.5492 53.11 22.3726 53.5341 22.3728 53.9761Z" fill="#007AFD"/>
<path d="M24.0506 55.7379C23.6995 55.738 23.3562 55.6347 23.0642 55.441C22.7723 55.2473 22.5447 54.9719 22.4103 54.6497C22.2759 54.3275 22.2408 53.973 22.3093 53.6309C22.3778 53.2888 22.5469 52.9747 22.7952 52.7281C23.0435 52.4815 23.3599 52.3136 23.7042 52.2457C24.0486 52.1778 24.4056 52.2128 24.7299 52.3464C25.0542 52.48 25.3314 52.7061 25.5263 52.9962C25.7212 53.2863 25.8251 53.6273 25.8249 53.976C25.8258 54.2077 25.7805 54.4373 25.6916 54.6515C25.6028 54.8657 25.4721 55.0603 25.3072 55.224C25.1422 55.3878 24.9463 55.5176 24.7306 55.6058C24.5149 55.694 24.2838 55.7389 24.0506 55.7379ZM24.0506 52.4057C23.6855 52.4063 23.3318 52.5327 23.0499 52.7632C22.7681 52.9937 22.5753 53.3142 22.5046 53.67C22.4338 54.0258 22.4894 54.395 22.6619 54.7146C22.8344 55.0343 23.1132 55.2847 23.4506 55.4231C23.7881 55.5616 24.1635 55.5796 24.5128 55.474C24.8621 55.3685 25.1638 55.1459 25.3665 54.8442C25.5691 54.5425 25.6603 54.1804 25.6243 53.8195C25.5884 53.4585 25.4276 53.1211 25.1694 52.8647C25.0227 52.7184 24.8484 52.6023 24.6564 52.5232C24.4643 52.4442 24.2585 52.4036 24.0506 52.404V52.4057Z" fill="#242B2B"/>
<path d="M53.2968 64.293H21.6679C20.606 64.293 19.7451 65.148 19.7451 66.2028V76.8629C19.7451 77.9177 20.606 78.7728 21.6679 78.7728H53.2968C54.3587 78.7728 55.2195 77.9177 55.2195 76.8629V66.2028C55.2195 65.148 54.3587 64.293 53.2968 64.293Z" fill="white"/>
<path d="M53.2969 78.8686H21.668C21.1331 78.8672 20.6206 78.6555 20.2424 78.2798C19.8643 77.9042 19.6511 77.3951 19.6497 76.8638V66.2032C19.6508 65.6715 19.864 65.162 20.2424 64.7861C20.6209 64.4102 21.1339 64.1984 21.6691 64.1973H53.298C53.8333 64.1984 54.3462 64.4102 54.7247 64.7861C55.1031 65.162 55.3163 65.6715 55.3175 66.2032V76.8638C55.316 77.3955 55.1026 77.9049 54.7239 78.2806C54.3452 78.6563 53.8321 78.8678 53.2969 78.8686ZM21.668 64.3888C21.1838 64.3894 20.7196 64.5808 20.3772 64.9209C20.0349 65.2611 19.8424 65.7222 19.8419 66.2032V76.8638C19.8425 77.3447 20.0351 77.8057 20.3774 78.1457C20.7197 78.4858 21.1839 78.6771 21.668 78.6777H53.2969C53.7813 78.6775 54.2459 78.4864 54.5886 78.1463C54.9312 77.8063 55.124 77.345 55.1246 76.8638V66.2032C55.124 65.7222 54.9314 65.261 54.589 64.9209C54.2466 64.5807 53.7823 64.3894 53.298 64.3888H21.668Z" fill="black"/>
<path d="M32.6533 78.7725C32.8604 78.2024 33.2394 77.7097 33.7385 77.3612C34.2377 77.0128 34.8329 76.8256 35.443 76.8252H40.6282C41.2382 76.8256 41.8333 77.0128 42.3323 77.3613C42.8314 77.7097 43.2102 78.2025 43.4172 78.7725H32.6533Z" fill="#161C1C"/>
<path d="M43.555 78.8688H32.5161L32.5622 78.7404C32.777 78.1524 33.1686 77.6442 33.6839 77.2846C34.1991 76.925 34.8132 76.7314 35.4429 76.73H40.6276C41.2573 76.7313 41.8714 76.9249 42.3867 77.2845C42.902 77.6441 43.2935 78.1523 43.5083 78.7404L43.555 78.8688ZM32.7944 78.6767H43.2761C43.0576 78.1577 42.6897 77.7143 42.2185 77.4021C41.7474 77.0899 41.1939 76.9227 40.6276 76.9215H35.4429C34.8766 76.9227 34.3231 77.0899 33.852 77.4021C33.3809 77.7143 33.013 78.1577 32.7944 78.6767Z" fill="black"/>
<path d="M51.2796 67.998H51.8317C51.9301 67.998 52.0244 68.0369 52.094 68.106C52.1636 68.1751 52.2027 68.2689 52.2027 68.3666V68.915C52.2027 69.0129 52.1636 69.1068 52.0939 69.176C52.0242 69.2452 51.9297 69.2841 51.8311 69.2841H51.279C51.2303 69.2841 51.182 69.2746 51.137 69.2561C51.092 69.2376 51.0511 69.2104 51.0166 69.1762C50.9822 69.142 50.9549 69.1013 50.9362 69.0566C50.9176 69.0119 50.908 68.964 50.908 68.9156V68.3672C50.908 68.2693 50.9471 68.1754 51.0168 68.1062C51.0865 68.0369 51.181 67.998 51.2796 67.998Z" fill="#242B2B"/>
<path d="M47.605 67.998H48.1571C48.2058 67.998 48.2541 68.0076 48.2991 68.0261C48.3441 68.0446 48.385 68.0718 48.4195 68.106C48.4539 68.1402 48.4813 68.1809 48.4999 68.2256C48.5186 68.2703 48.5281 68.3182 48.5281 68.3666V68.915C48.5281 69.0129 48.489 69.1068 48.4193 69.176C48.3496 69.2452 48.2551 69.2841 48.1565 69.2841H47.6045C47.506 69.2841 47.4117 69.2453 47.3421 69.1762C47.2725 69.1071 47.2334 69.0133 47.2334 68.9156V68.3672C47.2334 68.2693 47.2725 68.1754 47.3422 68.1062C47.4119 68.0369 47.5065 67.998 47.605 67.998Z" fill="#242B2B"/>
<path d="M43.9306 67.998H44.4827C44.5813 67.998 44.6758 68.0369 44.7455 68.1062C44.8152 68.1754 44.8543 68.2693 44.8543 68.3672V68.9156C44.8543 69.0135 44.8152 69.1074 44.7455 69.1766C44.6758 69.2458 44.5813 69.2847 44.4827 69.2847H43.9306C43.8322 69.2847 43.7378 69.2459 43.6683 69.1767C43.5987 69.1076 43.5596 69.0139 43.5596 68.9161V68.3677C43.5595 68.3193 43.569 68.2712 43.5876 68.2264C43.6063 68.1816 43.6336 68.1409 43.668 68.1066C43.7025 68.0722 43.7434 68.045 43.7885 68.0264C43.8335 68.0077 43.8818 67.9981 43.9306 67.998Z" fill="#242B2B"/>
<path d="M40.2536 67.998H40.8057C40.9041 67.998 40.9985 68.0369 41.0681 68.106C41.1377 68.1751 41.1768 68.2689 41.1768 68.3666V68.915C41.1768 69.0129 41.1376 69.1068 41.0679 69.176C40.9982 69.2452 40.9037 69.2841 40.8051 69.2841H40.2536C40.1552 69.2841 40.0608 69.2453 39.9912 69.1762C39.9217 69.1071 39.8826 69.0133 39.8826 68.9156V68.3672C39.8826 68.2693 39.9217 68.1754 39.9914 68.1062C40.0611 68.0369 40.1556 67.998 40.2542 67.998H40.2536Z" fill="#242B2B"/>
<path d="M49.2151 69.649H49.7672C49.8656 69.649 49.96 69.6878 50.0296 69.7569C50.0992 69.8261 50.1383 69.9198 50.1383 70.0176V70.566C50.1383 70.6639 50.0991 70.7577 50.0294 70.827C49.9597 70.8962 49.8652 70.9351 49.7666 70.9351H49.2151C49.1166 70.9351 49.022 70.8962 48.9524 70.827C48.8827 70.7577 48.8435 70.6639 48.8435 70.566V70.0176C48.8435 69.9197 48.8827 69.8258 48.9524 69.7566C49.022 69.6873 49.1166 69.6484 49.2151 69.6484V69.649Z" fill="#242B2B"/>
<path d="M45.5383 69.649H46.0904C46.1888 69.649 46.2832 69.6878 46.3527 69.7569C46.4223 69.8261 46.4614 69.9198 46.4614 70.0176V70.566C46.4614 70.6637 46.4223 70.7575 46.3527 70.8266C46.2832 70.8957 46.1888 70.9345 46.0904 70.9345H45.5383C45.4399 70.9345 45.3455 70.8957 45.2759 70.8266C45.2063 70.7575 45.1672 70.6637 45.1672 70.566V70.0176C45.1672 69.9197 45.2064 69.8258 45.2761 69.7566C45.3458 69.6873 45.4403 69.6484 45.5389 69.6484L45.5383 69.649Z" fill="#242B2B"/>
<path d="M41.866 69.6489H42.4181C42.5165 69.6489 42.6109 69.6878 42.6805 69.7569C42.75 69.826 42.7891 69.9198 42.7891 70.0175V70.5659C42.7891 70.6638 42.75 70.7577 42.6803 70.8269C42.6106 70.8961 42.5161 70.935 42.4175 70.935H41.8654C41.767 70.935 41.6727 70.8962 41.6031 70.8271C41.5335 70.7579 41.4944 70.6642 41.4944 70.5664V70.0181C41.4944 69.9202 41.5335 69.8263 41.6032 69.757C41.6729 69.6878 41.7674 69.6489 41.866 69.6489Z" fill="#242B2B"/>
<path d="M38.1914 69.6489H38.7435C38.8419 69.6489 38.9363 69.6878 39.0059 69.7569C39.0755 69.826 39.1146 69.9198 39.1146 70.0175V70.5659C39.1146 70.6144 39.105 70.6624 39.0863 70.7071C39.0676 70.7519 39.0402 70.7926 39.0057 70.8269C38.9712 70.8612 38.9303 70.8884 38.8852 70.9069C38.8401 70.9255 38.7918 70.935 38.743 70.935H38.1909C38.0925 70.935 37.9981 70.8962 37.9285 70.8271C37.8589 70.7579 37.8198 70.6642 37.8198 70.5664V70.0181C37.8198 69.9202 37.859 69.8263 37.9287 69.757C37.9984 69.6878 38.0929 69.6489 38.1914 69.6489Z" fill="#242B2B"/>
<path d="M51.2795 71.1411H51.8316C51.9301 71.1411 52.0247 71.18 52.0944 71.2492C52.164 71.3185 52.2032 71.4123 52.2032 71.5102V72.0586C52.2032 72.1565 52.164 72.2504 52.0944 72.3196C52.0247 72.3889 51.9301 72.4278 51.8316 72.4278H51.2795C51.2308 72.4278 51.1825 72.4182 51.1375 72.3997C51.0925 72.3812 51.0516 72.354 51.0171 72.3198C50.9827 72.2856 50.9553 72.245 50.9367 72.2002C50.918 72.1555 50.9084 72.1076 50.9084 72.0592V71.5108C50.9084 71.4623 50.9179 71.4143 50.9365 71.3695C50.9551 71.3247 50.9824 71.2839 51.0169 71.2496C51.0513 71.2153 51.0923 71.188 51.1373 71.1694C51.1824 71.1508 51.2307 71.1412 51.2795 71.1411Z" fill="#242B2B"/>
<path d="M47.6049 71.1411H48.157C48.2556 71.1411 48.3501 71.18 48.4198 71.2492C48.4895 71.3185 48.5286 71.4123 48.5286 71.5102V72.0586C48.5286 72.1565 48.4895 72.2504 48.4198 72.3196C48.3501 72.3889 48.2556 72.4278 48.157 72.4278H47.6049C47.5065 72.4278 47.4122 72.3889 47.3426 72.3198C47.273 72.2507 47.2339 72.1569 47.2339 72.0592V71.5108C47.2338 71.4623 47.2434 71.4143 47.262 71.3695C47.2806 71.3247 47.3079 71.2839 47.3423 71.2496C47.3768 71.2153 47.4177 71.188 47.4628 71.1694C47.5078 71.1508 47.5561 71.1412 47.6049 71.1411Z" fill="#242B2B"/>
<path d="M43.9306 71.1411H44.4827C44.5813 71.1411 44.6758 71.18 44.7455 71.2492C44.8152 71.3185 44.8543 71.4123 44.8543 71.5102V72.0586C44.8543 72.1565 44.8152 72.2504 44.7455 72.3196C44.6758 72.3889 44.5813 72.4278 44.4827 72.4278H43.9306C43.8322 72.4278 43.7378 72.3889 43.6683 72.3198C43.5987 72.2507 43.5596 72.1569 43.5596 72.0592V71.5108C43.5595 71.4623 43.569 71.4143 43.5876 71.3695C43.6063 71.3247 43.6336 71.2839 43.668 71.2496C43.7025 71.2153 43.7434 71.188 43.7885 71.1694C43.8335 71.1508 43.8818 71.1412 43.9306 71.1411Z" fill="#242B2B"/>
<path d="M40.8081 71.1411H40.2566C40.0514 71.1411 39.885 71.3064 39.885 71.5102V72.0581C39.885 72.2619 40.0514 72.4272 40.2566 72.4272H40.8081C41.0134 72.4272 41.1798 72.2619 41.1798 72.0581V71.5102C41.1798 71.3064 41.0134 71.1411 40.8081 71.1411Z" fill="#242B2B"/>
<path d="M49.2151 72.7925H49.7672C49.8656 72.7925 49.96 72.8313 50.0296 72.9004C50.0992 72.9696 50.1383 73.0633 50.1383 73.1611V73.7094C50.1383 73.8073 50.0991 73.9012 50.0294 73.9705C49.9597 74.0397 49.8652 74.0786 49.7666 74.0786H49.2151C49.1166 74.0786 49.022 74.0397 48.9524 73.9705C48.8827 73.9012 48.8435 73.8073 48.8435 73.7094V73.1611C48.8437 73.0632 48.8829 72.9695 48.9525 72.9004C49.0222 72.8313 49.1167 72.7925 49.2151 72.7925Z" fill="#242B2B"/>
<path d="M45.5384 72.7925H46.0904C46.1889 72.7925 46.2832 72.8313 46.3528 72.9004C46.4224 72.9696 46.4615 73.0633 46.4615 73.1611V73.7094C46.4615 73.8073 46.4223 73.9012 46.3527 73.9705C46.283 74.0397 46.1884 74.0786 46.0899 74.0786H45.5384C45.4398 74.0786 45.3453 74.0397 45.2756 73.9705C45.2059 73.9012 45.1667 73.8073 45.1667 73.7094V73.1611C45.1669 73.0632 45.2061 72.9695 45.2758 72.9004C45.3455 72.8313 45.4399 72.7925 45.5384 72.7925Z" fill="#242B2B"/>
<path d="M41.8661 72.7925H42.4182C42.5166 72.7925 42.6109 72.8313 42.6805 72.9004C42.7501 72.9696 42.7892 73.0633 42.7892 73.1611V73.7094C42.7892 73.8073 42.7501 73.9012 42.6804 73.9705C42.6107 74.0397 42.5162 74.0786 42.4176 74.0786H41.8655C41.767 74.0786 41.6724 74.0397 41.6027 73.9705C41.533 73.9012 41.4939 73.8073 41.4939 73.7094V73.1611C41.4939 73.0633 41.533 72.9696 41.6026 72.9004C41.6722 72.8313 41.7665 72.7925 41.8649 72.7925H41.8661Z" fill="#242B2B"/>
<path d="M38.1915 72.7925H38.7436C38.842 72.7925 38.9364 72.8313 39.006 72.9004C39.0756 72.9696 39.1146 73.0633 39.1146 73.1611V73.7094C39.1146 73.7579 39.105 73.8059 39.0864 73.8507C39.0677 73.8955 39.0403 73.9362 39.0058 73.9705C38.9713 74.0047 38.9303 74.0319 38.8852 74.0505C38.8402 74.069 38.7918 74.0786 38.743 74.0786H38.191C38.0924 74.0786 37.9979 74.0397 37.9282 73.9705C37.8585 73.9012 37.8193 73.8073 37.8193 73.7094V73.1611C37.8194 73.1126 37.8291 73.0646 37.8478 73.0198C37.8666 72.9751 37.894 72.9344 37.9286 72.9002C37.9631 72.866 38.0041 72.8389 38.0493 72.8204C38.0944 72.8019 38.1427 72.7924 38.1915 72.7925Z" fill="#242B2B"/>
<path d="M32.2253 70.7608C32.2258 71.1458 32.3606 71.5188 32.6068 71.8163C32.853 72.1137 33.1954 72.3171 33.5757 72.3919C33.9559 72.4668 34.3506 72.4083 34.6923 72.2266C35.0341 72.0448 35.3018 71.751 35.45 71.3951C35.5981 71.0393 35.6175 70.6435 35.5048 70.275C35.3921 69.9066 35.1543 69.5883 34.8319 69.3745C34.5095 69.1607 34.1225 69.0645 33.7367 69.1023C33.3509 69.1401 32.9903 69.3096 32.7162 69.5819C32.5603 69.7367 32.4367 69.9205 32.3525 70.1228C32.2683 70.325 32.2251 70.5418 32.2253 70.7608Z" fill="#FF876C"/>
<path d="M33.903 72.5231C33.5518 72.5233 33.2086 72.4201 32.9165 72.2265C32.6245 72.0328 32.3968 71.7575 32.2623 71.4354C32.1278 71.1132 32.0926 70.7587 32.161 70.4166C32.2294 70.0745 32.3984 69.7603 32.6466 69.5136C32.8948 69.267 33.2111 69.099 33.5555 69.031C33.8999 68.9629 34.2568 68.9978 34.5812 69.1313C34.9055 69.2648 35.1828 69.4909 35.3778 69.7809C35.5728 70.0709 35.6768 70.4119 35.6767 70.7606C35.6774 70.9922 35.6321 71.2217 35.5432 71.4358C35.4543 71.65 35.3237 71.8445 35.1589 72.0083C34.994 72.1721 34.7982 72.3019 34.5827 72.3903C34.3671 72.4786 34.1361 72.5237 33.903 72.5231ZM33.903 69.1903C33.5378 69.1908 33.1841 69.317 32.9021 69.5475C32.6202 69.7779 32.4273 70.0983 32.3565 70.4542C32.2856 70.81 32.3411 71.1792 32.5136 71.4989C32.686 71.8186 32.9647 72.0691 33.3022 72.2076C33.6397 72.3462 34.015 72.3642 34.3644 72.2587C34.7137 72.1532 35.0155 71.9306 35.2182 71.6289C35.4209 71.3272 35.5121 70.9651 35.4761 70.6041C35.4402 70.2432 35.2794 69.9058 35.0212 69.6493C34.8745 69.5033 34.7001 69.3876 34.5082 69.3088C34.3163 69.23 34.1106 69.1898 33.903 69.1903Z" fill="black"/>
<path d="M27.2993 70.7608C27.2997 71.1458 27.4345 71.5188 27.6808 71.8163C27.927 72.1137 28.2694 72.3171 28.6496 72.3919C29.0299 72.4668 29.4245 72.4083 29.7663 72.2266C30.1081 72.0448 30.3758 71.751 30.524 71.3951C30.6721 71.0393 30.6915 70.6435 30.5788 70.275C30.4661 69.9066 30.2283 69.5883 29.9059 69.3745C29.5835 69.1607 29.1965 69.0645 28.8107 69.1023C28.4249 69.1401 28.0642 69.3096 27.7901 69.5819C27.6343 69.7367 27.5107 69.9205 27.4265 70.1228C27.3423 70.325 27.299 70.5418 27.2993 70.7608Z" fill="#E099ED"/>
<path d="M28.9769 72.5231C28.6258 72.5233 28.2825 72.4201 27.9905 72.2265C27.6985 72.0328 27.4708 71.7575 27.3363 71.4354C27.2018 71.1132 27.1665 70.7587 27.2349 70.4166C27.3033 70.0745 27.4723 69.7603 27.7206 69.5136C27.9688 69.267 28.2851 69.099 28.6295 69.031C28.9738 68.9629 29.3308 68.9978 29.6551 69.1313C29.9795 69.2648 30.2567 69.4909 30.4517 69.7809C30.6468 70.0709 30.7508 70.4119 30.7507 70.7606C30.7514 70.9922 30.706 71.2217 30.6172 71.4358C30.5283 71.65 30.3977 71.8445 30.2328 72.0083C30.068 72.1721 29.8722 72.3019 29.6566 72.3903C29.4411 72.4786 29.2101 72.5237 28.9769 72.5231ZM28.9769 69.1903C28.6118 69.1908 28.2581 69.317 27.9761 69.5475C27.6941 69.7779 27.5013 70.0983 27.4304 70.4542C27.3596 70.81 27.4151 71.1792 27.5876 71.4989C27.76 71.8186 28.0387 72.0691 28.3762 72.2076C28.7136 72.3462 29.089 72.3642 29.4384 72.2587C29.7877 72.1532 30.0895 71.9306 30.2922 71.6289C30.4949 71.3272 30.586 70.9651 30.5501 70.6041C30.5142 70.2432 30.3534 69.9058 30.0951 69.6493C29.9485 69.5033 29.7741 69.3876 29.5822 69.3088C29.3903 69.23 29.1846 69.1898 28.9769 69.1903Z" fill="black"/>
<path d="M22.3728 70.7608C22.3732 71.1458 22.508 71.5188 22.7542 71.8163C23.0005 72.1137 23.3429 72.3171 23.7231 72.3919C24.1034 72.4668 24.498 72.4083 24.8398 72.2266C25.1815 72.0448 25.4493 71.751 25.5975 71.3951C25.7456 71.0393 25.765 70.6435 25.6523 70.275C25.5396 69.9066 25.3018 69.5883 24.9794 69.3745C24.657 69.1607 24.2699 69.0645 23.8842 69.1023C23.4984 69.1401 23.1377 69.3096 22.8636 69.5819C22.5491 69.8947 22.3726 70.3187 22.3728 70.7608Z" fill="#007AFD"/>
<path d="M24.0506 72.5231C23.6995 72.5232 23.3563 72.4199 23.0643 72.2262C22.7723 72.0325 22.5448 71.7572 22.4104 71.435C22.2759 71.1128 22.2408 70.7583 22.3092 70.4163C22.3777 70.0742 22.5467 69.76 22.795 69.5134C23.0433 69.2668 23.3596 69.0989 23.7039 69.0309C24.0482 68.9629 24.4052 68.9979 24.7295 69.1314C25.0538 69.2649 25.331 69.4909 25.526 69.781C25.721 70.071 25.825 70.4119 25.8249 70.7606C25.8258 70.9923 25.7805 71.2219 25.6917 71.4361C25.6028 71.6504 25.4721 71.845 25.3072 72.0088C25.1423 72.1727 24.9463 72.3025 24.7306 72.3907C24.515 72.479 24.2838 72.524 24.0506 72.5231ZM24.0506 69.1903C23.6855 69.1909 23.3318 69.3173 23.0499 69.5478C22.7681 69.7783 22.5753 70.0987 22.5046 70.4546C22.4338 70.8104 22.4894 71.1796 22.6619 71.4992C22.8344 71.8189 23.1132 72.0693 23.4506 72.2077C23.7881 72.3462 24.1635 72.3642 24.5128 72.2586C24.8621 72.1531 25.1638 71.9305 25.3665 71.6288C25.5691 71.3271 25.6603 70.965 25.6243 70.6041C25.5884 70.2431 25.4276 69.9057 25.1694 69.6493C25.0226 69.5033 24.8482 69.3875 24.6562 69.3087C24.4641 69.2299 24.2583 69.1897 24.0506 69.1903Z" fill="#242B2B"/>
<path d="M53.2968 81.0771H21.6679C20.606 81.0771 19.7451 81.9322 19.7451 82.987V93.6466C19.7451 94.7014 20.606 95.5564 21.6679 95.5564H53.2968C54.3587 95.5564 55.2195 94.7014 55.2195 93.6466V82.987C55.2195 81.9322 54.3587 81.0771 53.2968 81.0771Z" fill="white"/>
<path d="M53.2968 95.6533H21.6679C21.1327 95.6521 20.6199 95.4405 20.2414 95.0647C19.863 94.6889 19.6498 94.1795 19.6484 93.648V82.9879C19.6496 82.4562 19.8628 81.9467 20.2412 81.5708C20.6197 81.1948 21.1327 80.9831 21.6679 80.9819H53.2968C53.832 80.9831 54.345 81.1948 54.7235 81.5708C55.1019 81.9467 55.3151 82.4562 55.3162 82.9879V93.648C55.3149 94.1795 55.1017 94.6889 54.7233 95.0647C54.3448 95.4405 53.8319 95.6521 53.2968 95.6533ZM21.6679 81.174C21.1838 81.1746 20.7196 81.3659 20.3773 81.7059C20.035 82.046 19.8424 82.507 19.8418 82.9879V93.648C19.8429 94.1285 20.0357 94.5891 20.3779 94.9288C20.7202 95.2684 21.1841 95.4595 21.6679 95.4601H53.2968C53.781 95.4597 54.2453 95.2684 54.5877 94.9284C54.9302 94.5883 55.1228 94.1272 55.1234 93.6463V82.9879C55.1228 82.5069 54.9302 82.0458 54.5877 81.7057C54.2453 81.3657 53.781 81.1745 53.2968 81.174H21.6679Z" fill="black"/>
<path d="M32.6533 95.5571C32.8604 94.9871 33.2394 94.4943 33.7385 94.1459C34.2377 93.7974 34.8329 93.6103 35.443 93.6099H40.6282C41.2382 93.6103 41.8333 93.7975 42.3323 94.1459C42.8314 94.4944 43.2102 94.9872 43.4172 95.5571H32.6533Z" fill="#161C1C"/>
<path d="M43.555 95.6535H32.5161L32.5622 95.525C32.7771 94.9371 33.1687 94.4289 33.6839 94.0693C34.1992 93.7098 34.8132 93.5161 35.4429 93.5146H40.6276C41.2573 93.516 41.8714 93.7097 42.3866 94.0692C42.9019 94.4288 43.2935 94.937 43.5083 95.525L43.555 95.6535ZM32.7944 95.4619H43.2761C43.0576 94.9429 42.6897 94.4994 42.2186 94.1871C41.7474 93.8748 41.194 93.7075 40.6276 93.7062H35.4429C34.8767 93.7073 34.3234 93.8744 33.8523 94.1864C33.3812 94.4984 33.0132 94.9415 32.7944 95.4603V95.4619Z" fill="black"/>
<path d="M51.2796 84.7827H51.8317C51.9301 84.7827 52.0244 84.8215 52.094 84.8907C52.1636 84.9598 52.2027 85.0535 52.2027 85.1513V85.6997C52.2027 85.7976 52.1636 85.8915 52.0939 85.9607C52.0242 86.0299 51.9297 86.0688 51.8311 86.0688H51.279C51.2303 86.0688 51.182 86.0593 51.137 86.0408C51.092 86.0222 51.0511 85.9951 51.0166 85.9609C50.9822 85.9266 50.9549 85.886 50.9362 85.8413C50.9176 85.7966 50.908 85.7486 50.908 85.7002V85.1519C50.908 85.1034 50.9176 85.0555 50.9362 85.0108C50.9549 84.9661 50.9822 84.9255 51.0166 84.8912C51.0511 84.857 51.092 84.8299 51.137 84.8113C51.182 84.7928 51.2303 84.7833 51.279 84.7833L51.2796 84.7827Z" fill="#242B2B"/>
<path d="M47.605 84.7827H48.1571C48.2058 84.7827 48.2541 84.7923 48.2991 84.8108C48.3441 84.8293 48.385 84.8564 48.4195 84.8907C48.4539 84.9249 48.4813 84.9655 48.4999 85.0102C48.5186 85.055 48.5281 85.1029 48.5281 85.1513V85.6997C48.5281 85.7976 48.489 85.8915 48.4193 85.9607C48.3496 86.0299 48.2551 86.0688 48.1565 86.0688H47.6045C47.506 86.0688 47.4117 86.03 47.3421 85.9609C47.2725 85.8917 47.2334 85.798 47.2334 85.7002V85.1519C47.2334 85.054 47.2725 84.9601 47.3422 84.8908C47.4119 84.8216 47.5065 84.7827 47.605 84.7827Z" fill="#242B2B"/>
<path d="M44.4827 84.7827H43.9312C43.7259 84.7827 43.5596 84.948 43.5596 85.1519V85.6997C43.5596 85.9035 43.7259 86.0688 43.9312 86.0688H44.4827C44.6879 86.0688 44.8543 85.9035 44.8543 85.6997V85.1519C44.8543 84.948 44.6879 84.7827 44.4827 84.7827Z" fill="#242B2B"/>
<path d="M40.2537 84.7828H40.8058C40.9042 84.7828 40.9986 84.8216 41.0682 84.8907C41.1377 84.9599 41.1768 85.0536 41.1768 85.1514V85.6997C41.1768 85.7976 41.1377 85.8915 41.068 85.9608C40.9983 86.03 40.9038 86.0689 40.8052 86.0689H40.2537C40.1551 86.0689 40.0606 86.03 39.9909 85.9608C39.9212 85.8915 39.8821 85.7976 39.8821 85.6997V85.1514C39.8821 85.0535 39.9212 84.9596 39.9909 84.8903C40.0606 84.8211 40.1551 84.7822 40.2537 84.7822V84.7828Z" fill="#242B2B"/>
<path d="M49.7666 86.4341H49.2151C49.0099 86.4341 48.8435 86.5993 48.8435 86.8032V87.351C48.8435 87.5549 49.0099 87.7202 49.2151 87.7202H49.7666C49.9719 87.7202 50.1383 87.5549 50.1383 87.351V86.8032C50.1383 86.5993 49.9719 86.4341 49.7666 86.4341Z" fill="#242B2B"/>
<path d="M45.5383 86.4341H46.0904C46.1889 86.4341 46.2835 86.473 46.3531 86.5422C46.4228 86.6114 46.462 86.7053 46.462 86.8032V87.3516C46.462 87.4493 46.4229 87.5431 46.3533 87.6122C46.2837 87.6813 46.1893 87.7202 46.0909 87.7202H45.5383C45.4399 87.7202 45.3455 87.6813 45.2759 87.6122C45.2063 87.5431 45.1672 87.4493 45.1672 87.3516V86.8032C45.1672 86.7054 45.2063 86.6116 45.2759 86.5424C45.3454 86.4732 45.4398 86.4342 45.5383 86.4341Z" fill="#242B2B"/>
<path d="M41.8662 86.4342H42.4183C42.5167 86.4342 42.611 86.473 42.6806 86.5421C42.7502 86.6112 42.7893 86.705 42.7893 86.8027V87.3511C42.7893 87.4489 42.7502 87.5426 42.6806 87.6117C42.611 87.6809 42.5167 87.7197 42.4183 87.7197H41.8662C41.7678 87.7197 41.6734 87.6809 41.6038 87.6117C41.5342 87.5426 41.4951 87.4489 41.4951 87.3511V86.8027C41.4951 86.7048 41.5343 86.6109 41.604 86.5417C41.6737 86.4725 41.7682 86.4336 41.8667 86.4336L41.8662 86.4342Z" fill="#242B2B"/>
<path d="M38.1914 86.4341H38.7435C38.8419 86.4341 38.9363 86.4729 39.0059 86.542C39.0755 86.6112 39.1146 86.7049 39.1146 86.8027V87.351C39.1146 87.3995 39.105 87.4475 39.0863 87.4923C39.0676 87.5371 39.0402 87.5778 39.0057 87.6121C38.9712 87.6463 38.9303 87.6735 38.8852 87.6921C38.8401 87.7106 38.7918 87.7202 38.743 87.7202H38.1909C38.0925 87.7202 37.9981 87.6813 37.9285 87.6122C37.8589 87.5431 37.8198 87.4493 37.8198 87.3516V86.8032C37.8198 86.7053 37.859 86.6114 37.9287 86.5422C37.9984 86.473 38.0929 86.4341 38.1914 86.4341Z" fill="#242B2B"/>
<path d="M51.2796 87.9258H51.8317C51.9301 87.9258 52.0245 87.9646 52.0941 88.0337C52.1637 88.1029 52.2028 88.1966 52.2028 88.2944V88.8427C52.2028 88.9406 52.1636 89.0345 52.0939 89.1038C52.0243 89.173 51.9297 89.2119 51.8312 89.2119H51.2791C51.1805 89.2119 51.086 89.173 51.0163 89.1038C50.9466 89.0345 50.9075 88.9406 50.9075 88.8427V88.2944C50.9075 88.2459 50.9172 88.1979 50.936 88.1531C50.9547 88.1084 50.9822 88.0677 51.0167 88.0335C51.0513 87.9993 51.0923 87.9722 51.1374 87.9537C51.1825 87.9352 51.2308 87.9257 51.2796 87.9258Z" fill="#242B2B"/>
<path d="M47.605 87.9258H48.1571C48.2058 87.9258 48.2541 87.9353 48.2991 87.9538C48.3441 87.9724 48.385 87.9995 48.4195 88.0337C48.4539 88.068 48.4813 88.1086 48.4999 88.1533C48.5186 88.198 48.5281 88.2459 48.5281 88.2944V88.8427C48.5281 88.9406 48.489 89.0345 48.4193 89.1038C48.3496 89.173 48.2551 89.2119 48.1565 89.2119H47.6045C47.506 89.2119 47.4117 89.173 47.3421 89.1039C47.2725 89.0348 47.2334 88.9411 47.2334 88.8433V88.2949C47.2334 88.197 47.2725 88.1031 47.3422 88.0339C47.4119 87.9647 47.5065 87.9258 47.605 87.9258Z" fill="#242B2B"/>
<path d="M43.9306 87.9258H44.4827C44.5813 87.9258 44.6758 87.9647 44.7455 88.0339C44.8152 88.1031 44.8543 88.197 44.8543 88.2949V88.8433C44.8543 88.9412 44.8152 89.0351 44.7455 89.1043C44.6758 89.1735 44.5813 89.2124 44.4827 89.2124H43.9306C43.8322 89.2124 43.7378 89.1736 43.6683 89.1045C43.5987 89.0354 43.5596 88.9416 43.5596 88.8439V88.2955C43.5594 88.247 43.5689 88.1989 43.5875 88.1541C43.6061 88.1092 43.6334 88.0685 43.6679 88.0341C43.7023 87.9998 43.7433 87.9725 43.7884 87.9539C43.8335 87.9353 43.8818 87.9258 43.9306 87.9258Z" fill="#242B2B"/>
<path d="M40.2536 87.9258H40.8057C40.9043 87.9258 40.9988 87.9647 41.0685 88.0339C41.1382 88.1031 41.1773 88.197 41.1773 88.2949V88.8433C41.1773 88.9412 41.1382 89.0351 41.0685 89.1043C40.9988 89.1735 40.9043 89.2124 40.8057 89.2124H40.2536C40.1552 89.2124 40.0608 89.1736 39.9912 89.1045C39.9217 89.0354 39.8826 88.9416 39.8826 88.8439V88.2955C39.8825 88.247 39.892 88.199 39.9106 88.1542C39.9292 88.1094 39.9566 88.0686 39.991 88.0343C40.0255 88 40.0664 87.9727 40.1115 87.9541C40.1565 87.9355 40.2048 87.9259 40.2536 87.9258Z" fill="#242B2B"/>
<path d="M49.2151 89.5767H49.7672C49.8656 89.5767 49.96 89.6155 50.0296 89.6846C50.0992 89.7537 50.1383 89.8475 50.1383 89.9452V90.4936C50.1383 90.5915 50.0991 90.6854 50.0294 90.7546C49.9597 90.8239 49.8652 90.8627 49.7666 90.8627H49.2151C49.1166 90.8627 49.022 90.8239 48.9524 90.7546C48.8827 90.6854 48.8435 90.5915 48.8435 90.4936V89.9452C48.8437 89.8474 48.8829 89.7537 48.9525 89.6846C49.0222 89.6155 49.1167 89.5767 49.2151 89.5767Z" fill="#242B2B"/>
<path d="M45.5383 89.5767H46.0904C46.1888 89.5767 46.2832 89.6155 46.3527 89.6846C46.4223 89.7537 46.4614 89.8475 46.4614 89.9452V90.4936C46.4614 90.5915 46.4223 90.6854 46.3526 90.7546C46.2829 90.8239 46.1884 90.8627 46.0898 90.8627H45.5383C45.4399 90.8627 45.3455 90.8239 45.2759 90.7548C45.2063 90.6857 45.1672 90.5919 45.1672 90.4942V89.9458C45.1672 89.848 45.2063 89.7542 45.2759 89.685C45.3454 89.6158 45.4398 89.5768 45.5383 89.5767Z" fill="#242B2B"/>
<path d="M41.8661 89.5767H42.4182C42.5166 89.5767 42.6109 89.6155 42.6805 89.6846C42.7501 89.7537 42.7892 89.8475 42.7892 89.9452V90.4936C42.7892 90.5915 42.7501 90.6854 42.6804 90.7546C42.6107 90.8239 42.5162 90.8627 42.4176 90.8627H41.8655C41.767 90.8627 41.6724 90.8239 41.6027 90.7546C41.533 90.6854 41.4939 90.5915 41.4939 90.4936V89.9452C41.4939 89.8967 41.5035 89.8487 41.5223 89.8039C41.541 89.7591 41.5684 89.7185 41.603 89.6842C41.6375 89.65 41.6786 89.6228 41.7237 89.6044C41.7689 89.5859 41.8173 89.5765 41.8661 89.5767Z" fill="#242B2B"/>
<path d="M38.1915 89.5767H38.7436C38.842 89.5767 38.9364 89.6155 39.006 89.6846C39.0756 89.7537 39.1146 89.8475 39.1146 89.9452V90.4936C39.1146 90.5915 39.0755 90.6854 39.0058 90.7546C38.9361 90.8239 38.8416 90.8627 38.743 90.8627H38.191C38.0924 90.8627 37.9979 90.8239 37.9282 90.7546C37.8585 90.6854 37.8193 90.5915 37.8193 90.4936V89.9452C37.8194 89.8968 37.8291 89.8488 37.8478 89.804C37.8666 89.7593 37.894 89.7186 37.9286 89.6844C37.9631 89.6502 38.0041 89.623 38.0493 89.6045C38.0944 89.5861 38.1427 89.5766 38.1915 89.5767Z" fill="#242B2B"/>
<path d="M32.2253 87.5459C32.2258 87.931 32.3606 88.304 32.6068 88.6014C32.853 88.8988 33.1954 89.1023 33.5757 89.1771C33.9559 89.2519 34.3506 89.1935 34.6923 89.0117C35.0341 88.83 35.3018 88.5361 35.45 88.1803C35.5981 87.8245 35.6175 87.4286 35.5048 87.0602C35.3921 86.6917 35.1543 86.3735 34.8319 86.1597C34.5095 85.9458 34.1225 85.8496 33.7367 85.8874C33.3509 85.9253 32.9903 86.0947 32.7162 86.367C32.5604 86.5219 32.4369 86.7057 32.3527 86.908C32.2685 87.1103 32.2252 87.327 32.2253 87.5459Z" fill="#FF876C"/>
<path d="M33.903 89.3077C33.5518 89.308 33.2085 89.2047 32.9165 89.0111C32.6244 88.8174 32.3967 88.5421 32.2623 88.2199C32.1278 87.8977 32.0926 87.5432 32.161 87.2011C32.2295 86.859 32.3985 86.5447 32.6468 86.2981C32.8951 86.0515 33.2114 85.8836 33.5558 85.8156C33.9002 85.7476 34.2572 85.7826 34.5816 85.9162C34.9059 86.0497 35.1831 86.2759 35.378 86.566C35.573 86.8561 35.6769 87.1971 35.6767 87.5459C35.6775 87.7775 35.6322 88.0069 35.5433 88.2211C35.4545 88.4352 35.3239 88.6297 35.159 88.7935C34.9941 88.9573 34.7983 89.087 34.5827 89.1753C34.3671 89.2635 34.1361 89.3085 33.903 89.3077ZM33.903 85.975C33.5375 85.9752 33.1835 86.1013 32.9011 86.3318C32.6188 86.5623 32.4256 86.8828 32.3545 87.2389C32.2834 87.595 32.3388 87.9645 32.5112 88.2845C32.6836 88.6046 32.9624 88.8554 33.3001 88.9942C33.6378 89.133 34.0134 89.1512 34.3631 89.0457C34.7128 88.9402 35.0149 88.7176 35.2178 88.4157C35.4208 88.1139 35.5121 87.7515 35.4763 87.3902C35.4404 87.029 35.2796 86.6912 35.0212 86.4346C34.8745 86.2885 34.7002 86.1726 34.5083 86.0938C34.3164 86.0149 34.1106 85.9745 33.903 85.975Z" fill="black"/>
<path d="M27.2993 87.5459C27.2997 87.931 27.4345 88.304 27.6808 88.6014C27.927 88.8988 28.2694 89.1023 28.6496 89.1771C29.0299 89.2519 29.4245 89.1935 29.7663 89.0117C30.1081 88.83 30.3758 88.5361 30.524 88.1803C30.6721 87.8245 30.6915 87.4286 30.5788 87.0602C30.4661 86.6917 30.2283 86.3735 29.9059 86.1597C29.5835 85.9458 29.1965 85.8496 28.8107 85.8874C28.4249 85.9253 28.0642 86.0947 27.7901 86.367C27.6344 86.5219 27.5109 86.7057 27.4267 86.908C27.3424 87.1103 27.2992 87.327 27.2993 87.5459Z" fill="#E099ED"/>
<path d="M28.9769 89.3077C28.6258 89.308 28.2825 89.2047 27.9904 89.0111C27.6984 88.8174 27.4707 88.5421 27.3362 88.2199C27.2018 87.8977 27.1665 87.5432 27.235 87.2011C27.3034 86.859 27.4725 86.5447 27.7208 86.2981C27.9691 86.0515 28.2854 85.8836 28.6298 85.8156C28.9742 85.7476 29.3312 85.7826 29.6555 85.9162C29.9799 86.0497 30.2571 86.2759 30.452 86.566C30.647 86.8561 30.7509 87.1971 30.7507 87.5459C30.7516 87.7775 30.7064 88.007 30.6176 88.2212C30.5288 88.4354 30.3982 88.63 30.2333 88.7938C30.0684 88.9576 29.8725 89.0874 29.6569 89.1756C29.4412 89.2638 29.2101 89.3087 28.9769 89.3077ZM28.9769 85.975C28.6115 85.9752 28.2574 86.1013 27.9751 86.3318C27.6927 86.5623 27.4996 86.8828 27.4285 87.2389C27.3574 87.595 27.4128 87.9645 27.5852 88.2845C27.7576 88.6046 28.0364 88.8554 28.3741 88.9942C28.7117 89.133 29.0874 89.1512 29.4371 89.0457C29.7868 88.9402 30.0888 88.7176 30.2918 88.4157C30.4948 88.1139 30.5861 87.7515 30.5503 87.3902C30.5144 87.029 30.3536 86.6912 30.0951 86.4346C29.9485 86.2885 29.7742 86.1726 29.5823 86.0938C29.3904 86.0149 29.1846 85.9745 28.9769 85.975Z" fill="black"/>
<path d="M22.3728 87.5459C22.3732 87.931 22.508 88.304 22.7542 88.6014C23.0005 88.8988 23.3429 89.1023 23.7231 89.1771C24.1034 89.2519 24.498 89.1935 24.8398 89.0117C25.1815 88.83 25.4493 88.5361 25.5975 88.1803C25.7456 87.8245 25.765 87.4286 25.6523 87.0602C25.5396 86.6917 25.3018 86.3735 24.9794 86.1597C24.657 85.9458 24.2699 85.8496 23.8842 85.8874C23.4984 85.9253 23.1377 86.0947 22.8636 86.367C22.5493 86.6799 22.3728 87.1039 22.3728 87.5459Z" fill="#007AFD"/>
<path d="M24.0506 89.3077C23.6995 89.3078 23.3562 89.2045 23.0642 89.0108C22.7723 88.8171 22.5447 88.5417 22.4103 88.2195C22.2759 87.8973 22.2408 87.5428 22.3093 87.2007C22.3778 86.8587 22.5469 86.5445 22.7952 86.2979C23.0435 86.0513 23.3599 85.8835 23.7042 85.8155C24.0486 85.7476 24.4056 85.7826 24.7299 85.9162C25.0542 86.0498 25.3314 86.2759 25.5263 86.566C25.7212 86.8561 25.8251 87.1971 25.8249 87.5459C25.8259 87.7776 25.7807 88.0072 25.6919 88.2215C25.6031 88.4357 25.4725 88.6304 25.3075 88.7942C25.1425 88.958 24.9465 89.0877 24.7308 89.1759C24.515 89.264 24.2839 89.3088 24.0506 89.3077ZM24.0506 85.975C23.6852 85.9754 23.3312 86.1016 23.0489 86.3321C22.7667 86.5626 22.5736 86.8832 22.5026 87.2393C22.4316 87.5954 22.4871 87.9649 22.6596 88.2849C22.832 88.6049 23.1109 88.8556 23.4485 88.9943C23.7862 89.133 24.1619 89.1512 24.5115 89.0456C24.8612 88.9401 25.1632 88.7175 25.3661 88.4156C25.569 88.1138 25.6603 87.7514 25.6245 87.3901C25.5886 87.0289 25.4278 86.6912 25.1694 86.4346C25.0227 86.2884 24.8483 86.1725 24.6562 86.0936C24.4642 86.0148 24.2584 85.9744 24.0506 85.975Z" fill="#242B2B"/>
<path d="M12.5737 18.2563C15.2606 15.5874 15.2606 11.2602 12.5737 8.59131C9.8868 5.92239 5.53047 5.92239 2.84358 8.59131C0.156678 11.2602 0.156677 15.5874 2.84358 18.2563C5.53047 20.9253 9.8868 20.9253 12.5737 18.2563Z" fill="white"/>
<path d="M7.70887 20.3547C6.32894 20.3547 4.98 19.9482 3.83264 19.1867C2.68527 18.4251 1.79102 17.3427 1.26297 16.0764C0.734919 14.81 0.596786 13.4165 0.866038 12.0722C1.13529 10.7278 1.79983 9.49297 2.77563 8.52377C3.75143 7.55458 4.99465 6.89458 6.34808 6.62724C7.70151 6.3599 9.10436 6.49722 10.3792 7.02184C11.6541 7.54646 12.7437 8.43481 13.5103 9.57456C14.2768 10.7143 14.6859 12.0543 14.6858 13.425C14.6836 15.2623 13.9478 17.0236 12.6398 18.3228C11.3318 19.6219 9.55853 20.3526 7.70887 20.3547ZM7.70887 6.68569C6.36713 6.68569 5.05552 7.08089 3.93989 7.82133C2.82426 8.56176 1.95473 9.61418 1.44124 10.8455C0.92775 12.0768 0.793368 13.4317 1.05509 14.7389C1.31681 16.046 1.96288 17.2468 2.91159 18.1892C3.86031 19.1317 5.06907 19.7735 6.38502 20.0336C7.70097 20.2937 9.065 20.1603 10.3046 19.6503C11.5443 19.1404 12.6039 18.2767 13.3494 17.1686C14.0949 16.0605 14.4929 14.7577 14.493 13.425C14.4912 11.6382 13.7759 9.92519 12.504 8.66173C11.2322 7.39827 9.50763 6.68761 7.70887 6.68569Z" fill="#242B2B"/>
<path d="M7.70883 12.6566C8.60958 12.6566 9.33978 11.9313 9.33978 11.0365C9.33978 10.1418 8.60958 9.4165 7.70883 9.4165C6.80808 9.4165 6.07788 10.1418 6.07788 11.0365C6.07788 11.9313 6.80808 12.6566 7.70883 12.6566Z" fill="#FF876C"/>
<path d="M10.5104 17.2334H4.9075C4.73968 17.2331 4.57456 17.1915 4.42687 17.1123C4.27918 17.0332 4.15352 16.9189 4.0611 16.7798C3.96868 16.6406 3.91237 16.4809 3.89722 16.3149C3.88206 16.1489 3.90853 15.9818 3.97425 15.8284C4.28599 15.1012 4.80602 14.4811 5.4697 14.0452C6.13339 13.6092 6.91143 13.3767 7.70709 13.3765C8.50275 13.3762 9.28093 13.6083 9.94488 14.0438C10.6088 14.4794 11.1292 15.0992 11.4414 15.8261C11.5075 15.9794 11.5344 16.1466 11.5196 16.3128C11.5048 16.4789 11.4488 16.6388 11.3566 16.7782C11.2643 16.9176 11.1388 17.0321 10.9911 17.1116C10.8435 17.191 10.6783 17.2329 10.5104 17.2334Z" fill="#FF876C"/>
<path d="M52.1438 6.24316H65.4775C65.5521 6.24316 65.6236 6.27258 65.6763 6.32495C65.729 6.37731 65.7586 6.44833 65.7586 6.52238V14.7426H51.8655V6.51959C51.8662 6.4465 51.8958 6.37662 51.9478 6.32493C51.9998 6.27325 52.0702 6.24389 52.1438 6.24316Z" fill="#E099ED"/>
<path d="M65.8525 14.8407H51.7693V7.19C51.7703 6.91376 51.8813 6.64914 52.0781 6.4539C52.2748 6.25867 52.5414 6.14868 52.8195 6.14795H64.7989C65.0778 6.14824 65.3452 6.25842 65.5424 6.4543C65.7396 6.65019 65.8505 6.91577 65.8508 7.19279L65.8525 14.8407ZM51.9621 14.6491H65.6596V7.19279C65.6593 6.96657 65.5687 6.74971 65.4077 6.58975C65.2466 6.42979 65.0283 6.33979 64.8006 6.33949H52.8195C52.5917 6.33979 52.3734 6.42979 52.2124 6.58975C52.0513 6.74971 51.9607 6.96657 51.9604 7.19279L51.9621 14.6491Z" fill="black"/>
<path d="M66.1134 11.2821V18.6044C66.1134 18.7127 66.0919 18.8199 66.0501 18.92C66.0084 19.02 65.9472 19.1109 65.8701 19.1874C65.793 19.264 65.7015 19.3247 65.6007 19.3661C65.5 19.4075 65.392 19.4287 65.283 19.4287H51.6827C51.5737 19.4288 51.4657 19.4076 51.3648 19.3662C51.264 19.3249 51.1724 19.2642 51.0952 19.1876C51.0181 19.1111 50.9569 19.0202 50.9151 18.9201C50.8733 18.82 50.8518 18.7127 50.8518 18.6044V8.90148C50.8518 8.68272 50.9393 8.47293 51.095 8.31824C51.2507 8.16356 51.462 8.07666 51.6822 8.07666H56.6076C56.7946 8.07683 56.9761 8.13966 57.1227 8.25499C57.2693 8.37031 57.3725 8.53139 57.4155 8.71217L57.6792 9.82347C57.7221 10.0042 57.8253 10.1653 57.9719 10.2805C58.1186 10.3958 58.3001 10.4585 58.4871 10.4584H65.2824C65.5026 10.4583 65.7137 10.5449 65.8695 10.6994C66.0254 10.8539 66.1131 11.0635 66.1134 11.2821Z" fill="#E099ED"/>
<path d="M65.2829 19.525H51.6821C51.4365 19.5247 51.201 19.4276 51.0273 19.2551C50.8536 19.0826 50.7559 18.8487 50.7556 18.6047V8.90176C50.7559 8.65777 50.8536 8.42385 51.0273 8.25133C51.201 8.0788 51.4365 7.98174 51.6821 7.98145H56.6081C56.8166 7.98123 57.0191 8.05117 57.1824 8.17986C57.3458 8.30855 57.4604 8.4884 57.5077 8.69011L57.7719 9.80141C57.8093 9.9615 57.9003 10.1042 58.03 10.2063C58.1597 10.3084 58.3204 10.3637 58.4859 10.3632H65.2812C65.5269 10.3633 65.7625 10.4604 65.9362 10.6329C66.1099 10.8055 66.2076 11.0395 66.2077 11.2835V18.6047C66.2076 18.8484 66.1102 19.0822 65.9368 19.2547C65.7635 19.4272 65.5283 19.5244 65.2829 19.525ZM51.6821 8.17187C51.4881 8.17276 51.3023 8.24991 51.1653 8.38647C51.0284 8.52303 50.9514 8.70789 50.9513 8.90064V18.6047C50.9514 18.7974 51.0284 18.9823 51.1653 19.1189C51.3023 19.2554 51.4881 19.3326 51.6821 19.3335H65.2829C65.477 19.3326 65.6628 19.2554 65.7997 19.1189C65.9367 18.9823 66.0136 18.7974 66.0138 18.6047V11.2824C66.0136 11.0896 65.9367 10.9048 65.7997 10.7682C65.6628 10.6317 65.477 10.5545 65.2829 10.5536H58.4876C58.279 10.5538 58.0765 10.4838 57.9132 10.355C57.7498 10.2262 57.6352 10.0462 57.5881 9.84441L57.3244 8.73311C57.2869 8.57312 57.1958 8.4305 57.0661 8.32856C56.9364 8.22662 56.7758 8.17138 56.6104 8.17187H51.6821Z" fill="black"/>
<path d="M61.3272 17.7571H55.7991C55.4711 17.7571 55.1565 17.6277 54.9245 17.3973C54.6926 17.1669 54.5623 16.8544 54.5623 16.5286V15.3101H55.1408V16.5303C55.1408 16.616 55.1579 16.701 55.1911 16.7802C55.2242 16.8594 55.2727 16.9313 55.3339 16.9919C55.395 17.0525 55.4676 17.1005 55.5474 17.1332C55.6272 17.1659 55.7127 17.1827 55.7991 17.1825H61.325C61.4993 17.1827 61.6666 17.114 61.7901 16.9917C61.9135 16.8694 61.983 16.7034 61.9833 16.5303V15.3101H62.5618V16.5303C62.5614 16.8554 62.4312 17.1671 62.1998 17.3971C61.9684 17.6271 61.6546 17.7566 61.3272 17.7571Z" fill="white"/>
<path d="M58.7722 12.2046H58.1931V15.3095H58.7722V12.2046Z" fill="white"/>
<path d="M59.5294 14.9952L58.7788 15.8764C58.7423 15.9187 58.6971 15.9527 58.6461 15.976C58.5952 15.9993 58.5397 16.0114 58.4837 16.0114C58.4276 16.0114 58.3721 15.9993 58.3212 15.976C58.2702 15.9527 58.225 15.9187 58.1885 15.8764L57.4368 14.9952C57.3889 14.9391 57.3581 14.8705 57.3482 14.7976C57.3383 14.7247 57.3496 14.6505 57.3809 14.5838C57.4121 14.5171 57.462 14.4607 57.5245 14.4213C57.587 14.3818 57.6596 14.361 57.7337 14.3613H59.2342C59.3081 14.3613 59.3805 14.3824 59.4428 14.4219C59.5051 14.4615 59.5546 14.5179 59.5857 14.5846C59.6167 14.6512 59.6279 14.7253 59.6179 14.798C59.6079 14.8708 59.5772 14.9392 59.5294 14.9952Z" fill="white"/>
<path d="M41.7343 9.93177C43.9997 7.68157 43.9997 4.03327 41.7343 1.78307C39.469 -0.467135 35.7961 -0.467134 33.5307 1.78307C31.2654 4.03327 31.2654 7.68157 33.5307 9.93177C35.7961 12.182 39.469 12.182 41.7343 9.93177Z" fill="#007AFD"/>
<path d="M37.6326 11.7161C36.4662 11.7161 35.326 11.3725 34.3561 10.7289C33.3863 10.0852 32.6304 9.17026 32.184 8.09984C31.7377 7.02942 31.6209 5.85156 31.8484 4.71521C32.076 3.57886 32.6377 2.53505 33.4624 1.71579C34.2872 0.896523 35.3381 0.338598 36.4821 0.112563C37.6261 -0.113471 38.8119 0.00253824 39.8895 0.44592C40.9671 0.889303 41.8882 1.64014 42.5362 2.6035C43.1842 3.56685 43.5301 4.69944 43.5301 5.85806C43.5286 7.41126 42.9068 8.90042 41.8011 9.99869C40.6955 11.097 39.1963 11.7146 37.6326 11.7161ZM37.6326 0.192107C36.5043 0.191996 35.4013 0.524251 34.4631 1.14685C33.5248 1.76945 32.7936 2.65444 32.3617 3.68988C31.9299 4.72532 31.8169 5.86471 32.037 6.96396C32.2571 8.06321 32.8004 9.07293 33.5982 9.86544C34.3961 10.658 35.4126 11.1976 36.5193 11.4163C37.6259 11.6349 38.773 11.5226 39.8154 11.0937C40.8578 10.6647 41.7488 9.93835 42.3755 9.00641C43.0023 8.07447 43.3368 6.97883 43.3367 5.85806C43.3355 4.35551 42.7343 2.91481 41.6648 1.85214C40.5954 0.78947 39.1453 0.191647 37.6326 0.189873V0.192107Z" fill="black"/>
<path d="M38.4889 7.80762C38.6559 7.97304 38.7601 8.19089 38.7835 8.42403C38.8069 8.65718 38.7483 8.89118 38.6174 9.08615C38.4866 9.28113 38.2918 9.42499 38.0661 9.49323C37.8405 9.56147 37.598 9.54985 37.38 9.46036C37.162 9.37087 36.982 9.20904 36.8706 9.00247C36.7593 8.7959 36.7236 8.55737 36.7695 8.32755C36.8154 8.09773 36.9402 7.89084 37.1225 7.74216C37.3048 7.59348 37.5334 7.51221 37.7693 7.51221C38.0391 7.51214 38.2978 7.61838 38.4889 7.80762Z" fill="white"/>
<path d="M39.7169 6.55177C39.764 6.59065 39.8024 6.63882 39.8298 6.69323C39.8572 6.74764 39.8729 6.8071 39.876 6.86785C39.8788 6.92765 39.8694 6.98739 39.8483 7.04346C39.8271 7.09953 39.7948 7.15076 39.7532 7.19404C39.7115 7.23732 39.6615 7.27176 39.6061 7.29527C39.5506 7.31878 39.491 7.33087 39.4307 7.3308C39.3302 7.32988 39.2331 7.29458 39.1558 7.23084C38.7693 6.90361 38.2773 6.72524 37.7694 6.72824C37.2626 6.72816 36.7718 6.90507 36.383 7.22805C36.3069 7.29403 36.2092 7.33034 36.1081 7.33024C35.9898 7.32906 35.8766 7.28243 35.7922 7.20013C35.7512 7.15955 35.7186 7.11133 35.6965 7.05824C35.6743 7.00515 35.6628 6.94823 35.6628 6.89075C35.6626 6.82493 35.6772 6.75988 35.7055 6.70036C35.7338 6.64084 35.7751 6.58836 35.8264 6.54675C36.3728 6.09488 37.0615 5.84782 37.7725 5.84863C38.4834 5.84945 39.1716 6.09809 39.7169 6.55122V6.55177Z" fill="white"/>
<path d="M40.626 5.30069C40.6718 5.34042 40.7089 5.38906 40.7351 5.44361C40.7613 5.49815 40.7759 5.55745 40.7782 5.61783C40.7804 5.67822 40.7701 5.73842 40.748 5.79471C40.7259 5.851 40.6924 5.90219 40.6496 5.94513C40.6094 5.98608 40.5613 6.01856 40.5081 6.04063C40.455 6.0627 40.3979 6.0739 40.3404 6.07357C40.228 6.07274 40.1199 6.03079 40.0368 5.95574C39.4099 5.40765 38.6034 5.1053 37.7683 5.1053C36.9332 5.1053 36.1267 5.40765 35.4998 5.95574C35.4176 6.02923 35.3113 6.07034 35.2007 6.07134C35.0839 6.07074 34.9721 6.02462 34.8892 5.9429C34.8483 5.90229 34.8159 5.85406 34.7938 5.80096C34.7717 5.74787 34.7604 5.69097 34.7605 5.63352C34.7604 5.5699 34.7742 5.50701 34.8009 5.44918C34.8276 5.39134 34.8665 5.33993 34.9151 5.29845C35.7032 4.60652 36.7187 4.22461 37.7705 4.22461C38.8223 4.22461 39.8379 4.60652 40.626 5.29845V5.30069Z" fill="white"/>
<path d="M41.5396 4.05754C41.5827 4.09714 41.6173 4.14502 41.6413 4.1983C41.6653 4.25157 41.6781 4.30913 41.679 4.36747C41.6824 4.45439 41.6596 4.54034 41.6136 4.61436C41.5676 4.68838 41.5005 4.74711 41.4207 4.78306C41.341 4.81901 41.2523 4.83055 41.1659 4.81621C41.0795 4.80187 40.9994 4.76229 40.9358 4.70254C40.0704 3.91892 38.9416 3.48456 37.7706 3.48456C36.5996 3.48456 35.4708 3.91892 34.6054 4.70254C34.5217 4.77741 34.4133 4.81914 34.3007 4.81981C34.2424 4.81996 34.1847 4.80861 34.1309 4.78642C34.0771 4.76422 34.0283 4.73163 33.9873 4.69053C33.9462 4.64943 33.9139 4.60064 33.892 4.547C33.8701 4.49337 33.8592 4.43595 33.8599 4.37808C33.8598 4.3178 33.8723 4.25816 33.8967 4.20297C33.9211 4.14777 33.9568 4.09824 34.0016 4.05754C35.0311 3.12251 36.3756 2.604 37.7706 2.604C39.1656 2.604 40.5101 3.12251 41.5396 4.05754Z" fill="white"/>
</g>
<defs>
<clipPath id="clip0_458_14750">
<rect width="71" height="99" fill="white"/>
</clipPath>
</defs>
</svg>
