<svg width="106" height="106" viewBox="0 0 106 106" fill="none" xmlns="http://www.w3.org/2000/svg">
<path d="M90.5416 39.75H83.9166V30.9166C83.9166 13.869 70.0478 0 53 0C35.9522 0 22.0834 13.869 22.0834 30.9166V39.75H15.4584C14.2377 39.75 13.25 40.7377 13.25 41.9584V97.1668C13.25 102.038 17.2115 106 22.0834 106H83.9168C88.7885 106 92.75 102.038 92.75 97.1666V41.9584C92.75 40.7377 91.7623 39.75 90.5416 39.75ZM70.6666 39.75H35.3334V30.9166C35.3334 21.1754 43.2588 13.25 53 13.25C62.7412 13.25 70.6666 21.1754 70.6666 30.9166V39.75Z" fill="#303C42"/>
<path d="M26.5 30.9166C26.5 16.3037 38.3871 4.41663 53 4.41663C67.6129 4.41663 79.5 16.3037 79.5 30.9166V39.75H75.0834V30.9166C75.0834 18.7405 65.1761 8.83322 53 8.83322C40.8239 8.83322 30.9166 18.7407 30.9166 30.9166V39.75H26.5V30.9166Z" fill="#F2F2F2"/>
<path d="M88.3336 97.1666C88.3336 99.6013 86.3517 101.583 83.917 101.583H22.0836C19.6489 101.583 17.667 99.6013 17.667 97.1666V44.1666H88.3336V97.1666Z" fill="#E099ED"/>
<path opacity="0.2" d="M26.4999 97.1666V44.1666H17.6665V97.1666C17.6665 99.6013 19.6484 101.583 22.0831 101.583H29.8124C27.9864 101.583 26.4999 99.6015 26.4999 97.1666Z" fill="white"/>
<path opacity="0.1" d="M79.5 44.1666V97.1666C79.5 99.6013 78.0135 101.583 76.1875 101.583H83.9166C86.3513 101.583 88.3332 99.6013 88.3332 97.1666V44.1666H79.5Z" fill="black"/>
<path d="M47.7811 73.3539L46.388 85.8814C46.319 86.5045 46.5194 87.13 46.9378 87.5981C47.3562 88.0659 47.9558 88.3334 48.5833 88.3334H57.4167C58.0442 88.3334 58.6438 88.0659 59.0622 87.5981C59.4806 87.1302 59.6812 86.5047 59.6121 85.8814L58.219 73.3539C60.4812 71.7084 61.8333 69.1054 61.8333 66.25C61.8333 61.3784 57.8718 57.4166 52.9999 57.4166C48.128 57.4166 44.1665 61.3784 44.1665 66.25C44.1665 69.1054 45.5188 71.7084 47.7811 73.3539Z" fill="#303C42"/>
<path d="M52.9999 61.8334C55.4346 61.8334 57.4165 63.8153 57.4165 66.25C57.4165 67.9429 56.4546 69.459 54.9062 70.2094C54.063 70.6192 53.5692 71.5121 53.6727 72.4415L54.9495 83.9166H51.0505L52.3272 72.4415C52.4308 71.5119 51.937 70.6192 51.0938 70.2094C49.5454 69.459 48.5835 67.9429 48.5835 66.25C48.5833 63.8153 50.5652 61.8334 52.9999 61.8334Z" fill="#5C6671"/>
<path opacity="0.1" d="M51.2848 70.3909C50.9879 69.7975 50.7914 69.1514 50.7914 68.4583C50.7914 66.0236 52.7733 64.0417 55.208 64.0417C55.8539 64.0417 56.4572 64.1967 57.0108 64.447C56.3175 62.9137 54.7886 61.8333 52.9996 61.8333C50.5649 61.8333 48.583 63.8152 48.583 66.2499C48.583 67.9427 49.5449 69.4588 51.0933 70.2093C51.1765 70.2499 51.2088 70.3416 51.2848 70.3909Z" fill="black"/>
<path opacity="0.1" d="M54.227 77.4224L53.7135 72.8081C53.5684 72.6822 53.4806 72.5046 53.302 72.4178C52.868 72.2075 52.4945 71.9259 52.1608 71.6082C52.2405 71.8821 52.36 72.1462 52.3271 72.4417L51.0503 83.9168H53.5042L54.227 77.4224Z" fill="black"/>
<path d="M90.5416 39.75H83.9166V30.9166C83.9166 13.869 70.0478 0 53 0C35.9522 0 22.0834 13.869 22.0834 30.9166V39.75H15.4584C14.2377 39.75 13.25 40.7377 13.25 41.9584V97.1668C13.25 102.038 17.2115 106 22.0834 106H83.9168C88.7885 106 92.75 102.038 92.75 97.1666V41.9584C92.75 40.7377 91.7623 39.75 90.5416 39.75ZM70.6666 39.75H35.3334V30.9166C35.3334 21.1754 43.2588 13.25 53 13.25C62.7412 13.25 70.6666 21.1754 70.6666 30.9166V39.75Z" fill="url(#paint0_linear_1_92187)"/>
<defs>
<linearGradient id="paint0_linear_1_92187" x1="13.6086" y1="40.7035" x2="100.993" y2="81.4516" gradientUnits="userSpaceOnUse">
<stop stop-color="white" stop-opacity="0.2"/>
<stop offset="1" stop-color="white" stop-opacity="0"/>
</linearGradient>
</defs>
</svg>
