<svg width="102" height="102" viewBox="0 0 102 102" fill="none" xmlns="http://www.w3.org/2000/svg">
<g clip-path="url(#clip0_1_91620)">
<path d="M68.1313 25.9619C70.0691 27.1812 72.6227 27.1367 74.1858 25.4631L81.5824 17.572C83.1454 15.8986 82.8412 13.5279 80.906 12.3037L80.8078 12.2141C72.5554 5.86137 62.2199 2.08179 50.9999 2.08179C32.2644 2.08179 15.997 12.6189 7.77979 28.0856L22.7084 40.0417C27.108 28.6958 38.1003 20.6372 50.9999 20.6372C57.3022 20.6372 63.1411 22.574 67.9875 25.8675L68.1313 25.9619Z" fill="#D50707"/>
<path d="M20.6372 50.9999C20.6372 47.1305 21.3887 43.4442 22.7087 40.0411L7.77984 28.0852C4.14788 34.922 2.08179 42.7184 2.08179 51.0001C2.08179 59.3203 4.16502 67.152 7.82845 74.0111L22.6687 61.8498C21.3757 58.4754 20.6372 54.8281 20.6372 50.9999Z" fill="#FFD41D"/>
<path d="M67.8808 76.2175C63.0515 79.4572 57.2533 81.3641 51.0008 81.3641C38.0589 81.3641 27.0387 73.2533 22.6683 61.8492L7.82788 74.0103C16.062 89.4255 32.3029 99.9184 50.9992 99.9184C63.1416 99.9184 74.2414 95.4849 82.7935 88.1613L67.8808 76.2175Z" fill="#1EB615"/>
<path d="M99.7406 46.8333C99.4389 44.5634 97.3186 42.7063 95.0288 42.7063H57.131C54.8412 42.7063 52.9678 44.5798 52.9678 46.8696V55.8328C52.9678 58.1226 54.8412 59.9961 57.131 59.9961H75.8439C77.9998 59.9961 79.4617 61.4705 78.7461 63.3398C76.4033 68.5894 72.6086 73.0449 67.8803 76.2175L82.7938 88.1612C93.2707 79.1886 99.9179 65.8746 99.9179 51C99.9181 48.1697 99.7406 46.8333 99.7406 46.8333Z" fill="#0084FF"/>
<path d="M64.6342 48.3422H63.7022C62.5526 48.3422 61.6206 49.2741 61.6206 50.4238C61.6206 51.5735 62.5526 52.5054 63.7022 52.5054H64.6342C65.7839 52.5054 66.7158 51.5735 66.7158 50.4238C66.7158 49.2743 65.7839 48.3422 64.6342 48.3422Z" fill="black"/>
<path d="M89.5057 48.3422H71.3683C70.2186 48.3422 69.2866 49.2741 69.2866 50.4238C69.2866 51.5735 70.2186 52.5054 71.3683 52.5054H89.5057C90.6554 52.5054 91.5874 51.5735 91.5874 50.4238C91.5874 49.2743 90.6554 48.3422 89.5057 48.3422Z" fill="black"/>
<path d="M101.804 46.5592C101.362 43.2315 98.3858 40.6247 95.0289 40.6247H57.131C53.6875 40.6247 50.886 43.4261 50.886 46.8696V55.8328C50.886 59.2763 53.6875 62.0778 57.131 62.0778H75.8438C76.4918 62.0778 76.811 62.3096 76.8468 62.3869C76.8498 62.4003 76.849 62.4573 76.8162 62.5559C74.6451 67.3877 71.1552 71.5132 66.7206 74.4889C66.7203 74.4889 66.7202 74.4891 66.7199 74.4893C62.0455 77.625 56.6098 79.2823 51.0006 79.2823C39.3845 79.2823 28.7803 71.9783 24.6131 61.1068C24.6129 61.1064 24.6129 61.106 24.6127 61.1054C23.356 57.8254 22.7189 54.4254 22.7189 51C22.7189 47.5306 23.3684 44.0969 24.6493 40.7942C24.6499 40.7926 24.6503 40.7908 24.6509 40.7892C28.9098 29.8115 39.2517 22.7185 50.9996 22.7185C56.6592 22.7185 62.1288 24.4025 66.8174 27.5888C66.8255 27.5942 66.8335 27.5998 66.8417 27.6053L66.9853 27.7C66.9977 27.7079 67.0098 27.7159 67.0224 27.7237C68.2332 28.4857 69.6062 28.8885 70.9926 28.8885C72.825 28.8885 74.499 28.1765 75.7039 26.8868L83.1031 18.9929C84.2727 17.7408 84.8257 16.1046 84.6202 14.5043C84.4225 12.9666 83.5394 11.5738 82.1861 10.6546C82.1508 10.6233 82.1146 10.5935 82.0771 10.5648C73.0993 3.65327 62.3527 0 50.9996 0C32.0902 0 14.8251 10.3873 5.9411 27.1087C5.93991 27.1109 5.93911 27.1133 5.93772 27.1155C2.05335 34.4302 0 42.6892 0 51.0004C0 59.3552 2.07168 67.6501 5.99071 74.9893C5.99091 74.9897 5.99111 74.9903 5.9915 74.9909C14.8906 91.6508 32.1364 102 50.9992 102C63.142 102 74.9114 97.6491 84.1404 89.748C84.143 89.7461 84.1454 89.7443 84.148 89.7423C95.4931 80.0262 102 65.9052 102 51C102 48.0657 101.812 46.6194 101.804 46.5592ZM50.9996 4.16327C61.3972 4.16327 71.2392 7.49859 79.4694 13.811C79.4694 13.811 79.6959 13.9887 79.7931 14.0629C80.2208 14.3892 80.4433 14.6625 80.4913 15.0346C80.539 15.4066 80.3862 15.8032 80.0636 16.1487L72.6644 24.0425C72.1371 24.6071 71.4645 24.7254 70.9932 24.7254C70.4073 24.7254 69.7913 24.5428 69.2566 24.2107L69.1452 24.1371C63.7667 20.4855 57.4923 18.5554 51 18.5554C44.3294 18.5554 37.9231 20.5689 32.474 24.3786C27.9275 27.5573 24.3091 31.7873 21.8921 36.7208L10.4518 27.5585C18.8268 13.0831 34.2073 4.16327 50.9996 4.16327ZM8.49768 31.3273L20.2448 40.7353C19.1232 44.0732 18.5556 47.5189 18.5556 51C18.5556 54.4407 19.1132 57.8541 20.2149 61.1681L8.52836 70.7448C5.66857 64.5923 4.16347 57.8193 4.16347 51.0004C4.16327 44.2114 5.65801 37.4625 8.49768 31.3273ZM50.9992 97.8367C34.2449 97.8367 18.8788 88.9444 10.4931 74.5172L21.8569 65.2049C24.2638 70.1513 27.8765 74.3947 32.4238 77.5867C37.8838 81.4197 44.3074 83.4458 51.0006 83.4458C56.9264 83.4458 62.6822 81.8353 67.7421 78.7737L79.4763 88.1716C71.3255 94.4207 61.3084 97.8367 50.9992 97.8367ZM82.7214 85.4364L71.2944 76.2846C75.3306 73.0473 78.5384 68.9132 80.6471 64.1881C80.6625 64.1538 80.6768 64.1189 80.6902 64.0839C81.2302 62.673 81.0786 61.1928 80.2738 60.0232C79.3654 58.7026 77.7093 57.9143 75.8436 57.9143H57.1308C55.9829 57.9143 55.0491 56.9805 55.0491 55.8326V46.8694C55.0491 45.7215 55.9829 44.7878 57.1308 44.7878H95.0285C96.275 44.7878 97.5126 45.8719 97.6762 47.1023C97.6776 47.1148 97.8359 48.3841 97.8359 50.9998C97.8363 64.115 92.3467 76.5669 82.7214 85.4364Z" fill="black"/>
</g>
<defs>
<clipPath id="clip0_1_91620">
<rect width="102" height="102" fill="white"/>
</clipPath>
</defs>
</svg>
