<svg width="107" height="112" viewBox="0 0 107 112" fill="none" xmlns="http://www.w3.org/2000/svg">
<path d="M105.431 26.7238C105.515 26.7232 105.598 26.7391 105.676 26.7708C105.754 26.8024 105.825 26.849 105.884 26.908C105.944 26.967 105.991 27.0372 106.024 27.1146C106.056 27.192 106.073 27.275 106.073 27.3588V34.352C106.072 36.2199 105.567 38.0529 104.611 39.6579C103.654 41.2629 102.282 42.5805 100.638 43.4717L97.2912 45.2799C97.1981 45.3301 97.094 45.3565 96.9882 45.3565C96.8825 45.3565 96.7784 45.3301 96.6853 45.2799L93.3387 43.4717C91.6942 42.5813 90.321 41.2639 89.3643 39.6585C88.4076 38.0531 87.9028 36.2195 87.9033 34.3513V27.358C87.9035 27.2742 87.9203 27.1912 87.9527 27.1138C87.9852 27.0365 88.0326 26.9663 88.0922 26.9073C88.1519 26.8482 88.2226 26.8016 88.3004 26.77C88.3782 26.7384 88.4615 26.7224 88.5454 26.723C93.412 26.7538 95.6784 25.1587 96.5432 24.3007C96.6614 24.1833 96.8214 24.1174 96.9881 24.1174C97.1548 24.1174 97.3148 24.1833 97.4331 24.3007C98.2981 25.1589 100.562 26.754 105.431 26.7238Z" fill="white"/>
<path d="M96.6488 45.347L93.3019 43.5388C91.645 42.6422 90.2615 41.3151 89.2978 39.6978C88.334 38.0806 87.8258 36.2332 87.8269 34.3512V27.3579C87.827 27.2644 87.8456 27.1718 87.8815 27.0854C87.9175 26.999 87.9701 26.9205 88.0365 26.8544C88.1028 26.7884 88.1815 26.736 88.2682 26.7004C88.3548 26.6647 88.4476 26.6464 88.5412 26.6466H88.5459C93.3212 26.6763 95.5714 25.1565 96.4892 24.2477C96.6221 24.1167 96.8014 24.0432 96.9881 24.0432C97.1749 24.0432 97.3541 24.1167 97.487 24.2477C99.4005 26.1457 102.706 26.6633 105.431 26.6463H105.436C105.529 26.6462 105.622 26.6645 105.709 26.7002C105.795 26.7359 105.874 26.7882 105.94 26.8543C106.006 26.9203 106.059 26.9988 106.095 27.0852C106.131 27.1715 106.149 27.2641 106.15 27.3577V34.3509C106.15 36.2328 105.642 38.0799 104.678 39.6971C103.714 41.3143 102.331 42.6415 100.675 43.5385L97.3277 45.347C97.2235 45.4034 97.1068 45.433 96.9882 45.433C96.8697 45.433 96.753 45.4034 96.6488 45.347ZM88.5412 26.7995C88.4677 26.7994 88.3948 26.8137 88.3268 26.8417C88.2588 26.8697 88.1969 26.9108 88.1448 26.9626C88.0927 27.0145 88.0513 27.0761 88.023 27.1439C87.9948 27.2117 87.9801 27.2845 87.98 27.3579V34.3512C87.979 36.2057 88.4797 38.026 89.4294 39.6196C90.3791 41.2132 91.7423 42.5209 93.375 43.4044L96.7218 45.2123C96.8036 45.2567 96.8952 45.2799 96.9882 45.2799C97.0813 45.2799 97.1729 45.2567 97.2547 45.2123L100.602 43.4042C102.234 42.5202 103.597 41.2124 104.546 39.619C105.496 38.0255 105.997 36.2055 105.997 34.3512V27.3579C105.996 27.2841 105.982 27.2111 105.953 27.143C105.925 27.0749 105.883 27.0131 105.831 26.9612C105.778 26.9093 105.716 26.8682 105.647 26.8405C105.579 26.8127 105.505 26.7988 105.432 26.7995C102.674 26.817 99.3288 26.2892 97.3788 24.3566C97.2747 24.2537 97.1341 24.196 96.9876 24.196C96.8411 24.196 96.7005 24.2537 96.5964 24.3566C94.6508 26.284 91.3138 26.8172 88.5446 26.7998L88.5412 26.7995Z" fill="black"/>
<path d="M83.0776 36.2153C83.0776 36.2153 84.3136 31.7595 85.5 31.5092C86.6864 31.2589 85.8575 36.9008 85.8575 36.9008" fill="white"/>
<path d="M85.8463 36.976C85.8262 36.973 85.8081 36.9622 85.796 36.946C85.7839 36.9297 85.7787 36.9093 85.7816 36.8893C85.9684 35.6179 86.3244 32.1978 85.736 31.6458C85.7079 31.6172 85.6728 31.5965 85.6342 31.5857C85.5955 31.5749 85.5547 31.5744 85.5159 31.5844C84.3884 31.8219 83.1637 36.1917 83.1514 36.2358C83.1491 36.2459 83.1448 36.2554 83.1387 36.2638C83.1326 36.2721 83.1249 36.2792 83.116 36.2845C83.1071 36.2898 83.0972 36.2932 83.0869 36.2946C83.0766 36.296 83.0662 36.2953 83.0562 36.2925C83.0462 36.2897 83.0369 36.285 83.0288 36.2785C83.0207 36.272 83.014 36.264 83.0091 36.2549C83.0042 36.2457 83.0012 36.2357 83.0003 36.2254C82.9994 36.2151 83.0006 36.2047 83.0038 36.1949C83.0547 36.0125 84.2664 31.6914 85.4843 31.4346C85.5474 31.4199 85.6131 31.4214 85.6755 31.4388C85.7379 31.4562 85.7948 31.4891 85.8411 31.5344C86.6079 32.2535 85.9611 36.7215 85.9334 36.9114C85.9319 36.9214 85.9285 36.9309 85.9234 36.9396C85.9182 36.9482 85.9114 36.9557 85.9033 36.9617C85.8952 36.9677 85.886 36.9721 85.8762 36.9745C85.8664 36.977 85.8563 36.9775 85.8463 36.976Z" fill="black"/>
<path d="M83.4204 36.2471C83.4204 36.2471 90.0391 30.4046 91.401 30.8182C92.4718 31.1438 89.3406 33.8727 88.3965 34.6754C88.9353 34.3928 89.3808 34.1902 89.6484 34.2715C90.3207 34.4751 89.7441 35.3675 88.9857 36.1564C90.4722 35.5204 90.4162 36.5534 89.2507 37.7776C89.5021 37.694 89.7131 37.6604 89.862 37.7143C91.0729 38.1537 87.8277 40.7357 87.8277 40.7357L85.8362 42.3612" fill="white"/>
<path d="M85.7773 42.4095C85.7649 42.3936 85.7591 42.3735 85.7611 42.3535C85.7632 42.3334 85.7729 42.315 85.7883 42.3019L87.78 40.6761C88.4471 40.1452 90.1533 38.6322 90.0524 38.0084C90.0354 37.9042 89.9648 37.8328 89.8364 37.7862C89.717 37.7432 89.5342 37.7643 89.2752 37.8503C89.259 37.8555 89.2415 37.8553 89.2255 37.8495C89.2095 37.8437 89.1959 37.8328 89.1868 37.8185C89.1776 37.8041 89.1736 37.7871 89.1752 37.7702C89.1768 37.7533 89.184 37.7374 89.1956 37.725C89.7751 37.1163 90.0962 36.5529 90.0333 36.2575C89.9499 35.8668 89.385 36.069 89.0162 36.2268C89 36.2337 88.9819 36.2347 88.965 36.2298C88.9481 36.2249 88.9333 36.2144 88.9233 36.1999C88.9133 36.1855 88.9085 36.168 88.9099 36.1505C88.9112 36.1329 88.9185 36.1164 88.9307 36.1036C89.5876 35.4201 89.9345 34.8393 89.8589 34.5497C89.8328 34.4515 89.7572 34.3843 89.6265 34.3449C89.3746 34.2668 88.878 34.5098 88.4331 34.7432C88.4164 34.7519 88.3971 34.7541 88.3788 34.7495C88.3606 34.7448 88.3447 34.7337 88.3342 34.7181C88.3236 34.7025 88.3192 34.6837 88.3217 34.665C88.3242 34.6464 88.3335 34.6294 88.3478 34.6171C89.083 33.992 92.3172 31.1772 91.3793 30.8925C90.333 30.5745 85.7491 34.2947 83.471 36.3055C83.4636 36.3127 83.4548 36.3184 83.4451 36.3221C83.4354 36.3258 83.425 36.3275 83.4147 36.3272C83.4043 36.3268 83.3941 36.3243 83.3847 36.3199C83.3753 36.3154 83.3669 36.3091 83.3601 36.3014C83.3532 36.2936 83.348 36.2845 83.3447 36.2747C83.3414 36.2648 83.3402 36.2544 83.3411 36.2441C83.342 36.2337 83.345 36.2237 83.3499 36.2145C83.3548 36.2054 83.3615 36.1973 83.3696 36.1909C83.6408 35.9512 90.0331 30.3234 91.4239 30.7471C91.6104 30.8039 91.672 30.9224 91.6905 31.0118C91.8183 31.6259 90.3343 33.0929 88.8978 34.3475C89.2316 34.2025 89.4823 34.1431 89.6711 34.2006C89.8536 34.2559 89.9671 34.3611 90.007 34.5132C90.1113 34.9081 89.6591 35.5243 89.2663 35.9682C89.6682 35.8327 90.0988 35.8314 90.1828 36.2286C90.2717 36.6482 89.814 37.2619 89.4851 37.6375C89.652 37.6041 89.7832 37.6073 89.8883 37.6453C90.0709 37.7117 90.177 37.8276 90.2034 37.9868C90.3408 38.8262 87.9766 40.718 87.876 40.7982L85.885 42.4233C85.8688 42.4353 85.8485 42.4406 85.8284 42.4381C85.8083 42.4355 85.79 42.4252 85.7773 42.4095Z" fill="black"/>
<path d="M88.7251 38.2623C88.7113 38.2474 88.7041 38.2276 88.7049 38.2073C88.7057 38.1871 88.7146 38.168 88.7295 38.1542L89.1989 37.7218C89.2728 37.6533 89.3776 37.7653 89.3033 37.8343L88.8338 38.2667C88.8264 38.2736 88.8177 38.2789 88.8082 38.2824C88.7987 38.2859 88.7886 38.2875 88.7785 38.2871C88.7684 38.2867 88.7585 38.2843 88.7493 38.28C88.7401 38.2758 88.7319 38.2697 88.7251 38.2623Z" fill="black"/>
<path d="M88.4691 36.5149L88.9386 36.0825C89.0126 36.014 89.1172 36.126 89.0429 36.1951L88.5734 36.6274C88.4983 36.6957 88.3945 36.5837 88.4691 36.5149Z" fill="black"/>
<path d="M87.883 35.1472C87.8697 35.132 87.8627 35.1123 87.8636 35.0922C87.8645 35.072 87.8731 35.053 87.8877 35.0391L88.3572 34.607C88.4312 34.5385 88.5358 34.6504 88.4615 34.7195L87.992 35.1516C87.9846 35.1585 87.9759 35.1639 87.9664 35.1674C87.9569 35.1709 87.9467 35.1725 87.9366 35.1721C87.9265 35.1717 87.9165 35.1693 87.9073 35.165C87.8981 35.1607 87.8898 35.1547 87.883 35.1472Z" fill="black"/>
<path d="M100.85 33.6453C100.85 34.1516 100.75 34.6531 100.556 35.1209C100.362 35.5887 100.077 36.0137 99.7188 36.3717C99.3602 36.7297 98.9345 37.0136 98.466 37.2072C97.9975 37.4008 97.4954 37.5004 96.9883 37.5001C94.8563 37.5001 93.1264 35.7748 93.1264 33.6453C93.1222 33.1361 93.219 32.6312 93.4112 32.1596C93.6034 31.6879 93.8871 31.259 94.2462 30.8975C94.6052 30.536 95.0323 30.249 95.5029 30.0532C95.9736 29.8574 96.4784 29.7566 96.9882 29.7566C97.498 29.7566 98.0028 29.8574 98.4734 30.0532C98.944 30.249 99.3712 30.536 99.7302 30.8975C100.089 31.259 100.373 31.6879 100.565 32.1596C100.757 32.6312 100.854 33.1361 100.85 33.6453Z" fill="#75C675"/>
<path d="M96.7368 34.2512L95.9805 33.4669C95.9672 33.4522 95.9601 33.4328 95.9607 33.4129C95.9614 33.393 95.9698 33.3742 95.9841 33.3604C95.9985 33.3466 96.0176 33.3389 96.0375 33.3389C96.0574 33.339 96.0766 33.3468 96.0908 33.3606L96.7971 34.0923L98.2951 32.7756C98.3105 32.7633 98.3301 32.7574 98.3497 32.7591C98.3694 32.7608 98.3876 32.77 98.4007 32.7848C98.4137 32.7996 98.4205 32.8188 98.4197 32.8385C98.4189 32.8582 98.4105 32.8768 98.3963 32.8905L96.8435 34.2556C96.8285 34.2685 96.8091 34.2752 96.7893 34.2744C96.7695 34.2735 96.7508 34.2653 96.7368 34.2512Z" fill="black"/>
<path d="M31.1482 61.3286C31.1482 61.3286 36.4216 68.9972 42.3038 69.384C48.1859 69.7708 47.4113 59.4902 47.4113 59.4902L31.1482 61.3286Z" fill="black"/>
<path d="M15.006 64.8014L11.8649 70.673L11.4687 71.4161C11.4687 71.4161 8.09365 69.9669 6.48737 73.0753C6.34732 73.3488 6.2117 73.6001 6.08026 73.8306C6.05835 73.87 6.03644 73.9072 6.01454 73.9442C4.70583 76.2332 3.8916 76.4254 2.46762 76.174C1.7658 76.0438 1.03164 75.7596 0.313915 75.2843C0.161208 75.1837 0.0541067 75.0273 0.0156288 74.8487C-0.0228491 74.6701 0.0103677 74.4836 0.108141 74.3292L9.04741 60.201C9.13914 60.0548 9.28198 59.9479 9.44821 59.9011C9.61444 59.8542 9.79218 59.8707 9.94692 59.9473C10.969 60.4503 13.02 61.6239 13.239 63.0492C13.298 63.4363 13.4075 63.7379 13.541 63.9739C14.0712 64.8975 15.006 64.8014 15.006 64.8014Z" fill="#6680FF"/>
<path d="M10.8088 60.4143C10.4896 60.2258 10.1897 60.0682 9.94815 59.9494C9.79348 59.8729 9.61593 59.8563 9.44973 59.9028C9.28353 59.9493 9.14047 60.0557 9.04812 60.2013L0.10833 74.3313C0.0109636 74.4858 -0.0218858 74.6724 0.0168233 74.8509C0.0555324 75.0294 0.162719 75.1856 0.315408 75.2861C0.570884 75.455 0.838203 75.6052 1.11529 75.7357L10.8088 60.4143Z" fill="black"/>
<path d="M61.6033 111.316C61.5997 111.498 61.5245 111.672 61.3938 111.8C61.2631 111.928 61.0874 112 60.9043 112H44.1684C43.9959 112 43.8296 111.936 43.7015 111.82C43.5735 111.705 43.4927 111.546 43.4746 111.375C43.3541 110.243 43.2535 107.885 44.3413 106.939C44.4686 106.83 44.5865 106.71 44.6936 106.581C45.6304 105.464 44.8798 104.513 44.8798 104.513H52.2666C52.2666 104.513 52.9446 107.589 56.4347 107.286L56.6559 107.266C59.8799 107.01 60.5781 107.544 61.1677 108.93C61.4898 109.682 61.621 110.508 61.6033 111.316Z" fill="#6680FF"/>
<path d="M43.4084 110.399C43.4194 110.77 43.4463 111.107 43.4749 111.375C43.4928 111.546 43.5736 111.705 43.7018 111.82C43.8299 111.936 43.9964 112 44.1689 112H60.9044C61.0873 111.999 61.2628 111.928 61.3932 111.799C61.5237 111.671 61.5986 111.497 61.602 111.315C61.6086 111.009 61.5931 110.703 61.5556 110.399L43.4084 110.399Z" fill="black"/>
<path d="M48.476 60.9588C48.476 60.9588 48.1018 67.978 45.9502 74.4071C44.0028 80.2337 40.5422 85.7233 34.4522 84.7338C31.5573 84.2618 28.7463 83.5356 25.9857 82.6177C16.6109 79.494 9.74243 74.7395 9.74243 74.7395L15.6084 63.6804C15.6084 63.6804 18.5448 65.5331 21.991 67.2503C23.1386 67.8207 24.3398 68.376 25.5119 68.8438C27.7837 69.751 29.9332 70.3235 31.2991 70.0219C34.948 69.2132 39.9275 58.9521 39.9275 58.9521L48.476 60.9588Z" fill="white"/>
<path d="M32.8564 84.4475C30.4683 83.9786 28.1591 83.3413 25.9856 82.6177C26.1631 81.8306 26.6035 81.1273 27.2345 80.6235C27.8654 80.1197 28.6493 79.8455 29.4571 79.8458C31.8612 79.8458 33.563 82.1801 32.8564 84.4475Z" fill="#E099ED"/>
<path d="M25.5108 68.8439C25.4245 69.2986 25.1821 69.7091 24.8252 70.0043C24.4684 70.2996 24.0195 70.4613 23.5561 70.4614C21.8789 70.4614 20.9814 68.5339 21.9913 67.2504C23.138 67.8208 24.3398 68.3761 25.5108 68.8439Z" fill="#E099ED"/>
<path d="M34.4399 84.8092C21.1739 82.6651 9.81206 74.8806 9.69887 74.8022C9.68344 74.7915 9.67245 74.7756 9.66798 74.7574C9.66351 74.7392 9.66587 74.72 9.67462 74.7035L15.5408 63.6446C15.5458 63.6353 15.5526 63.6271 15.5608 63.6205C15.5691 63.614 15.5786 63.6092 15.5888 63.6065C15.599 63.6037 15.6096 63.6032 15.62 63.6048C15.6304 63.6064 15.6404 63.6101 15.6493 63.6157C15.7641 63.6881 27.1797 70.8538 31.2816 69.9474C34.8528 69.1556 39.808 59.0209 39.8576 58.9188C39.865 58.903 39.8777 58.8904 39.8934 58.8829C39.9091 58.8754 39.927 58.8735 39.9439 58.8776L48.4935 60.8832C48.511 60.8872 48.5264 60.8973 48.5372 60.9116C48.5479 60.9259 48.5534 60.9435 48.5525 60.9613C48.5488 61.0316 48.1532 68.0645 46.0227 74.4297C44.0586 80.3081 40.5826 85.8073 34.4399 84.8092ZM9.84205 74.7147C10.7233 75.3103 21.7133 82.5971 34.4644 84.6582C40.515 85.6412 43.9355 80.193 45.8774 74.3828C47.8931 68.3604 48.3511 61.7378 48.3957 61.0186L39.9684 59.0404C39.5284 59.9382 34.8582 69.311 31.3147 70.0966C27.2772 70.9903 16.6944 64.451 15.6373 63.7889L9.84205 74.7147Z" fill="black"/>
<path d="M45.9501 74.4071C44.3331 79.2471 41.7082 83.7502 37.4792 84.6749C41.5738 75.892 37.7904 73.4681 39.0464 68.3148C39.1844 67.7418 39.2029 67.0185 39.434 66.4785C40.1233 64.8806 42.229 65.4627 43.1155 66.5223C43.6371 67.1453 43.95 67.9103 44.2406 68.6688C44.9541 70.5314 45.5845 72.4507 45.9501 74.4071Z" fill="black"/>
<path d="M57.0585 81.0416C57.0585 86.9636 53.8475 104.513 53.8475 104.513H42.8025C43.2031 101.664 43.4394 99.131 43.551 96.8508C43.6191 95.4344 43.6386 94.116 43.6167 92.8811C43.3849 78.6076 37.8269 75.3646 40.7296 60.2594H53.848C53.848 60.2594 54.336 61.7524 54.9293 64.2203C55.2183 65.414 55.5312 66.8369 55.8267 68.4304C56.4871 72.0004 57.0585 76.4249 57.0585 81.0416Z" fill="white"/>
<path d="M55.8261 68.4305L41.0535 63.3416L54.5435 63.9492L54.9287 64.2204C55.2177 65.4141 55.5306 66.837 55.8261 68.4305Z" fill="black"/>
<path d="M55.4222 80.8908C55.4222 81.5933 55.2137 82.28 54.823 82.8641C54.4322 83.4482 53.8768 83.9035 53.227 84.1723C52.5772 84.4412 51.8621 84.5116 51.1722 84.3745C50.4824 84.2375 49.8487 83.8993 49.3513 83.4026C48.8539 82.9059 48.5152 82.273 48.3779 81.5841C48.2407 80.8951 48.3111 80.1809 48.5803 79.5319C48.8494 78.8829 49.3052 78.3282 49.8901 77.9379C50.4749 77.5477 51.1625 77.3394 51.8659 77.3394C52.809 77.3395 53.7134 77.7137 54.3803 78.3797C55.0472 79.0457 55.422 79.9489 55.4222 80.8908Z" fill="#E099ED"/>
<path d="M45.5057 94.8638C45.5062 95.3849 45.3015 95.8853 44.9358 96.2571C44.5701 96.6288 44.0728 96.8421 43.551 96.8509C43.6191 95.4344 43.6387 94.116 43.6167 92.8811C44.1263 92.9062 44.6066 93.126 44.9583 93.4951C45.3099 93.8642 45.506 94.3543 45.5057 94.8638Z" fill="#E099ED"/>
<path d="M46.8489 70.1938C46.849 70.5865 46.7324 70.9703 46.5141 71.2968C46.2957 71.6232 45.9853 71.8777 45.6221 72.028C45.2589 72.1782 44.8592 72.2176 44.4737 72.141C44.0881 72.0644 43.7339 71.8753 43.4559 71.5977C43.1779 71.3201 42.9886 70.9664 42.912 70.5813C42.8353 70.1962 42.8747 69.7971 43.0251 69.4344C43.1756 69.0716 43.4304 68.7616 43.7573 68.5435C44.0842 68.3254 44.4685 68.2091 44.8616 68.2091C45.3887 68.2092 45.8941 68.4183 46.2668 68.7905C46.6395 69.1627 46.8489 69.6675 46.8489 70.1938Z" fill="#E099ED"/>
<path d="M53.8474 104.589H42.8024C42.7915 104.589 42.7807 104.587 42.7707 104.582C42.7607 104.578 42.7519 104.571 42.7447 104.563C42.7375 104.555 42.7322 104.545 42.729 104.535C42.7259 104.524 42.725 104.513 42.7265 104.502C43.1065 101.801 43.3582 99.2252 43.4745 96.8472C43.5402 95.4738 43.5624 94.1399 43.54 92.8824C43.3076 78.573 37.7397 75.4109 40.6545 60.2456C40.6578 60.2281 40.6671 60.2124 40.6808 60.2011C40.6945 60.1898 40.7118 60.1836 40.7296 60.1836H53.8479C53.864 60.1836 53.8797 60.1886 53.8927 60.1979C53.9058 60.2073 53.9156 60.2205 53.9207 60.2357C53.953 60.3341 57.1377 70.218 57.1356 81.0416C57.1356 86.9021 53.9554 104.351 53.9233 104.526C53.9201 104.544 53.9107 104.56 53.8968 104.572C53.8829 104.583 53.8654 104.589 53.8474 104.589ZM42.8906 104.436H53.7835C53.994 103.277 56.982 86.7114 56.982 81.0416C56.9838 70.6525 54.043 61.1304 53.7913 60.3347H40.7929C37.9192 75.3786 43.4612 78.598 43.6933 92.8798C43.7155 94.1404 43.6933 95.4777 43.6276 96.8545C43.5123 99.2112 43.2643 101.762 42.8906 104.436Z" fill="black"/>
<path d="M59.9476 63.7066C60.0396 65.4793 59.7507 66.7496 58.7153 66.6905C54.6702 66.4652 31.1484 61.3283 31.1484 61.3283C31.1484 61.3283 38.4613 39.5469 45.8619 38.0649C50.8677 37.0636 55.4072 42.498 64.2349 41.5908C73.0625 40.6836 82.5664 33.8787 82.5664 33.8787L87.1412 43.6722C73.1966 55.1482 57.7107 53.4735 57.7107 53.4735C58.589 56.318 59.7963 60.7279 59.9476 63.7066Z" fill="#E099ED"/>
<path d="M60.7003 53.6558C56.5244 53.6558 53.5768 52.6754 51.6085 51.6127C48.1093 49.7233 46.8598 47.1676 46.8478 47.1421C46.8429 47.133 46.8399 47.1229 46.8389 47.1126C46.838 47.1023 46.8392 47.0919 46.8424 47.082C46.8456 47.0721 46.8508 47.063 46.8577 47.0552C46.8645 47.0474 46.8729 47.0411 46.8823 47.0366C46.8916 47.0322 46.9018 47.0297 46.9122 47.0292C46.9226 47.0288 46.9329 47.0305 46.9426 47.0342C46.9523 47.0379 46.9612 47.0435 46.9687 47.0508C46.9761 47.058 46.982 47.0666 46.986 47.0762C46.998 47.1022 48.2314 49.6189 51.6914 51.4835C54.8878 53.2063 60.6933 54.7089 70.1972 52.0826C70.2165 52.0779 70.2369 52.0809 70.254 52.091C70.2712 52.101 70.2837 52.1173 70.2891 52.1364C70.2944 52.1556 70.2921 52.176 70.2827 52.1935C70.2732 52.2109 70.2574 52.224 70.2384 52.23C66.5183 53.2573 63.36 53.6558 60.7003 53.6558Z" fill="black"/>
<path d="M52.7394 31.6465C52.6547 28.7048 51.1071 28.5521 49.2397 28.5521C47.2316 28.5521 45.9114 29.894 45.9114 32.1111C45.9114 33.0248 46.2196 37.5864 46.2697 38.3235H50.4074L49.9254 35.8316C52.0118 35.5711 52.282 34.4941 52.6117 33.2598C53.0597 33.3233 53.4316 33.3574 53.5075 33.1131C53.5889 32.8597 53.1679 32.1387 52.7394 31.6465Z" fill="white"/>
<path d="M50.4071 38.4012H46.2695C46.2502 38.4008 46.2317 38.3933 46.2176 38.3801C46.2035 38.3669 46.1947 38.349 46.1931 38.3298C46.1334 37.451 45.8345 33.0215 45.8345 32.1122C45.8345 29.9038 47.1711 28.4769 49.2395 28.4769C51.2078 28.4769 52.7218 28.7087 52.8151 31.6181C53.1894 32.0536 53.681 32.8217 53.5808 33.1372C53.4859 33.4432 53.0467 33.3976 52.668 33.3455C52.3551 34.5176 52.0421 35.6165 50.0151 35.8981L50.4817 38.3103C50.4838 38.3213 50.4835 38.3326 50.4807 38.3435C50.4779 38.3543 50.4728 38.3645 50.4657 38.3731C50.4586 38.3818 50.4497 38.3888 50.4395 38.3937C50.4294 38.3985 50.4183 38.4011 50.4071 38.4012ZM46.3412 38.248H50.3143L49.8498 35.847C49.8481 35.8368 49.8484 35.8263 49.8507 35.8162C49.8531 35.806 49.8575 35.7965 49.8636 35.7881C49.8697 35.7796 49.8775 35.7725 49.8864 35.7671C49.8953 35.7617 49.9052 35.7582 49.9155 35.7567C51.757 35.5264 52.1435 34.7148 52.5381 33.2411C52.5433 33.2232 52.5546 33.2077 52.5702 33.1975C52.5857 33.1872 52.6044 33.1828 52.6229 33.1851C53.0329 33.2434 53.3771 33.2765 53.4345 33.0916C53.4982 32.8915 53.132 32.2146 52.6816 31.6978C52.67 31.6845 52.6633 31.6676 52.6625 31.6499C52.5817 28.8465 51.1929 28.6285 49.2395 28.6285C47.2337 28.6285 45.9878 29.9629 45.9878 32.1109C45.9878 33.0035 46.2872 37.4549 46.3412 38.248Z" fill="black"/>
<path d="M52.5808 26.6565C53.5783 25.4555 56.1629 28.2354 52.4764 30.0626C52.4764 30.0626 47.3908 29.0306 47.5676 30.3954C47.7444 31.7603 48.5401 32.6245 46.7203 33.5966C45.5234 34.2357 44.6821 33.2059 44.6821 33.2059C44.6821 33.2059 41.7893 29.2544 44.9924 29.1642C44.9924 29.1642 44.0275 26.7232 46.5017 26.2731C46.5017 26.2731 45.1552 24.3977 46.7153 23.4913C48.2754 22.5849 49.6201 25.4169 49.6201 25.4169C49.6201 25.4169 49.1877 23.093 51.0368 23.1751C53.0064 23.2634 52.5808 26.6565 52.5808 26.6565Z" fill="black"/>
<path d="M45.9394 33.8814C45.1452 33.8814 44.6283 33.2635 44.6216 33.2563C44.5509 33.1596 42.9553 30.9577 43.5306 29.7853C43.7367 29.3657 44.192 29.1341 44.8847 29.094C44.7869 28.7947 44.5504 27.8915 44.9629 27.1499C45.2251 26.679 45.6992 26.367 46.3731 26.2219C46.2002 25.9494 45.7576 25.1566 45.9183 24.407C46.0062 23.9975 46.261 23.6678 46.6746 23.4268C47.0149 23.2291 47.372 23.1862 47.7363 23.2989C48.5485 23.5503 49.1968 24.5093 49.5001 25.0362C49.48 24.6164 49.5199 23.9569 49.8976 23.5229C50.1607 23.2205 50.5431 23.0786 51.0381 23.1005C51.4661 23.1195 51.8189 23.2898 52.087 23.6071C52.7623 24.4062 52.7179 25.9072 52.6754 26.4592C52.9002 26.2883 53.1834 26.2432 53.4795 26.3373C54.0125 26.5066 54.4183 27.0541 54.4645 27.6685C54.5057 28.2061 54.3062 29.2412 52.5085 30.1322C52.4931 30.1398 52.4757 30.142 52.4589 30.1385C52.4196 30.1307 48.5239 29.3503 47.7554 30.0658C47.7106 30.1052 47.6767 30.1553 47.6567 30.2114C47.6368 30.2675 47.6315 30.3277 47.6414 30.3864C47.818 31.745 48.6324 32.6616 46.7547 33.6649C46.4613 33.8212 46.1866 33.8814 45.9394 33.8814ZM46.7528 23.5584C46.3773 23.7766 46.147 24.0725 46.0685 24.4377C45.8883 25.2756 46.5559 26.2198 46.564 26.2294C46.5711 26.24 46.5755 26.2522 46.5768 26.2649C46.5781 26.2776 46.5762 26.2904 46.5714 26.3022C46.5666 26.3141 46.559 26.3245 46.5492 26.3327C46.5394 26.3409 46.5277 26.3466 46.5152 26.3492C45.8283 26.4743 45.3513 26.7683 45.098 27.2236C44.6411 28.0446 45.0594 29.1266 45.0636 29.1373C45.068 29.1487 45.0697 29.161 45.0683 29.1732C45.067 29.1853 45.0628 29.197 45.056 29.2072C45.0493 29.2174 45.0401 29.2258 45.0294 29.2318C45.0187 29.2378 45.0068 29.2411 44.9945 29.2414C44.3044 29.2607 43.8585 29.466 43.6694 29.8515C43.1342 30.9418 44.7277 33.1393 44.7439 33.1612C44.7741 33.1979 45.5591 34.1299 46.6842 33.5287C48.4447 32.5884 47.6703 31.7794 47.4914 30.4049C47.4781 30.322 47.486 30.2371 47.5142 30.158C47.5425 30.0789 47.5903 30.0083 47.6531 29.9525C48.4533 29.2078 52.0904 29.9075 52.4657 29.9822C54.1609 29.1339 54.3521 28.1759 54.3143 27.6789C54.2668 27.0614 53.8362 26.6092 53.4354 26.4808C53.1248 26.3821 52.8423 26.461 52.6407 26.704C52.6301 26.7167 52.6157 26.7257 52.5996 26.7296C52.5834 26.7334 52.5665 26.732 52.5513 26.7254C52.5361 26.7188 52.5234 26.7075 52.5151 26.6931C52.5069 26.6787 52.5036 26.6621 52.5056 26.6456C52.5082 26.6253 52.7484 24.6218 51.972 23.7024C51.7329 23.4193 51.417 23.2672 51.0331 23.2502C50.5898 23.2304 50.2465 23.3544 50.016 23.6201C49.485 24.2298 49.6934 25.3912 49.6957 25.4014C49.6992 25.4197 49.6959 25.4387 49.6864 25.4548C49.6769 25.4709 49.6619 25.4829 49.6441 25.4887C49.6263 25.4944 49.607 25.4935 49.5899 25.4861C49.5727 25.4786 49.5589 25.4652 49.551 25.4483C49.5432 25.4314 48.7425 23.7662 47.6933 23.4427C47.3704 23.3448 47.0546 23.3831 46.7528 23.5584Z" fill="black"/>
<path d="M46.9881 33.4958C46.9882 33.7182 46.9222 33.9356 46.7985 34.1205C46.6748 34.3055 46.499 34.4496 46.2932 34.5348C46.0875 34.6199 45.8611 34.6422 45.6427 34.5989C45.4243 34.5555 45.2237 34.4484 45.0662 34.2912C44.9087 34.1339 44.8014 33.9336 44.758 33.7155C44.7145 33.4973 44.7368 33.2712 44.822 33.0658C44.9072 32.8603 45.0515 32.6847 45.2367 32.5611C45.4218 32.4375 45.6395 32.3716 45.8622 32.3716C46.1607 32.3717 46.447 32.4901 46.6582 32.7009C46.8693 32.9117 46.988 33.1976 46.9881 33.4958Z" fill="white"/>
<path d="M45.8622 34.6976C45.6244 34.6976 45.392 34.6271 45.1943 34.4951C44.9966 34.3632 44.8426 34.1756 44.7516 33.9562C44.6606 33.7368 44.6369 33.4954 44.6833 33.2625C44.7297 33.0296 44.8442 32.8156 45.0124 32.6477C45.1806 32.4798 45.3948 32.3655 45.628 32.3192C45.8612 32.2729 46.1029 32.2967 46.3226 32.3876C46.5423 32.4785 46.7301 32.6324 46.8622 32.8298C46.9943 33.0273 47.0648 33.2594 47.0648 33.4969C47.0644 33.8153 46.9376 34.1205 46.7121 34.3457C46.4867 34.5708 46.181 34.6974 45.8622 34.6976ZM45.8622 32.449C45.6547 32.449 45.4518 32.5105 45.2793 32.6256C45.1067 32.7408 44.9723 32.9044 44.8929 33.0959C44.8134 33.2874 44.7927 33.498 44.8331 33.7013C44.8736 33.9046 44.9736 34.0913 45.1203 34.2378C45.267 34.3844 45.454 34.4842 45.6575 34.5246C45.861 34.565 46.072 34.5443 46.2637 34.465C46.4554 34.3857 46.6193 34.2514 46.7346 34.079C46.8499 33.9067 46.9114 33.7041 46.9114 33.4969C46.9111 33.2191 46.8004 32.9528 46.6037 32.7563C46.407 32.5599 46.1404 32.4494 45.8622 32.449Z" fill="black"/>
<path d="M51.5883 31.4869C51.5885 31.545 51.5714 31.6018 51.5391 31.6502C51.5069 31.6986 51.461 31.7364 51.4073 31.7587C51.3535 31.781 51.2944 31.7869 51.2373 31.7756C51.1802 31.7643 51.1277 31.7363 51.0866 31.6952C51.0454 31.6541 51.0174 31.6017 51.0061 31.5447C50.9948 31.4877 51.0007 31.4286 51.023 31.3749C51.0454 31.3213 51.0832 31.2754 51.1316 31.2432C51.1801 31.211 51.237 31.1939 51.2952 31.1941C51.3729 31.1943 51.4473 31.2252 51.5023 31.2801C51.5572 31.3349 51.5881 31.4093 51.5883 31.4869Z" fill="black"/>
<path d="M50.4839 30.7223C50.4839 30.7223 51.1847 30.1519 51.8552 30.8974L50.4839 30.7223Z" fill="white"/>
<path d="M51.7971 30.9488C51.1821 30.2651 50.5572 30.7605 50.5312 30.7818C50.5153 30.7933 50.4957 30.7983 50.4762 30.7958C50.4568 30.7933 50.4391 30.7834 50.4267 30.7683C50.4143 30.7531 50.4082 30.7338 50.4096 30.7142C50.4111 30.6947 50.4199 30.6765 50.4344 30.6633C50.442 30.6571 51.2001 30.0554 51.9111 30.8456C51.9239 30.8608 51.9304 30.8804 51.929 30.9003C51.9276 30.9202 51.9186 30.9387 51.9038 30.952C51.889 30.9653 51.8695 30.9723 51.8496 30.9716C51.8297 30.9708 51.8109 30.9624 51.7971 30.948V30.9488Z" fill="black"/>
<path d="M50.7417 33.8417C50.7417 33.8417 51.424 34.5564 52.2484 34.3058L50.7417 33.8417Z" fill="white"/>
<path d="M50.6862 33.8946C50.6729 33.8798 50.6658 33.8604 50.6666 33.8405C50.6673 33.8205 50.6758 33.8017 50.6902 33.7879C50.7046 33.7742 50.7239 33.7666 50.7438 33.7667C50.7638 33.7669 50.7829 33.7748 50.7971 33.7888C50.8036 33.7956 51.4587 34.4661 52.226 34.2316C52.2357 34.2283 52.246 34.227 52.2563 34.2278C52.2665 34.2285 52.2765 34.2313 52.2856 34.236C52.2948 34.2407 52.3029 34.2471 52.3095 34.255C52.316 34.2628 52.321 34.2719 52.324 34.2817C52.327 34.2915 52.328 34.3018 52.3269 34.312C52.3259 34.3222 52.3228 34.3321 52.3178 34.3411C52.3129 34.3501 52.3062 34.358 52.2981 34.3643C52.29 34.3707 52.2808 34.3753 52.2709 34.378C51.6833 34.5575 51.0529 34.2788 50.6862 33.8946Z" fill="black"/>
<path d="M51.6227 39.2667L51.5567 38.9896C51.4964 38.7376 51.3662 38.5078 51.1809 38.3266C50.9956 38.1453 50.7628 38.0201 50.5093 37.9651L46.5005 37.0973C46.3237 37.059 46.139 37.089 45.9834 37.1811C45.8278 37.2732 45.7128 37.4207 45.6615 37.594L45.4604 38.2733L51.6227 39.2667Z" fill="#6680FF"/>
<path d="M77.6924 7.82237C77.6924 12.1008 74.2188 15.5696 69.9348 15.5696C65.6509 15.5696 62.177 12.1008 62.177 7.82237C62.177 3.54397 65.6504 0.0766602 69.9343 0.0766602C74.2183 0.0766602 77.6924 3.54397 77.6924 7.82237Z" fill="white"/>
<path d="M69.9348 15.6461C65.6151 15.6461 62.1008 12.1364 62.1008 7.82229C62.1008 3.5082 65.6151 0 69.9348 0C74.2545 0 77.7688 3.50899 77.7688 7.82229C77.7688 12.1356 74.2545 15.6461 69.9348 15.6461ZM69.9348 0.152893C65.6996 0.152893 62.2552 3.59442 62.2552 7.82229C62.2552 12.0502 65.7009 15.4932 69.9361 15.4932C74.1713 15.4932 77.6165 12.052 77.6165 7.82229C77.6165 3.5926 74.1702 0.152893 69.9348 0.152893Z" fill="black"/>
<path d="M75.6575 7.82325C75.6575 10.966 73.1095 13.5379 69.9355 13.5379C66.771 13.5379 64.2112 10.9733 64.2112 7.82325C64.2112 4.66667 66.7751 2.10864 69.9355 2.10864C73.0959 2.10864 75.6575 4.66667 75.6575 7.82325Z" fill="#E099ED"/>
<path d="M72.4448 6.11537C72.4449 6.61137 72.2978 7.09625 72.0219 7.50869C71.746 7.92113 71.3539 8.2426 70.8951 8.43245C70.4363 8.62229 69.9314 8.67198 69.4443 8.57522C68.9572 8.47846 68.5098 8.23961 68.1586 7.88887C67.8075 7.53814 67.5684 7.09127 67.4715 6.6048C67.3747 6.11832 67.4245 5.6141 67.6146 5.1559C67.8048 4.69769 68.1267 4.3061 68.5397 4.03064C68.9527 3.75519 69.4382 3.60824 69.9349 3.6084C70.2645 3.6084 70.5909 3.67325 70.8955 3.79924C71.2 3.92523 71.4767 4.10989 71.7098 4.34269C71.9428 4.57549 72.1277 4.85186 72.2538 5.15602C72.38 5.46017 72.4449 5.78617 72.4448 6.11537Z" fill="white"/>
<path d="M74.2942 11.5242C73.7574 12.1553 73.0895 12.6624 72.3369 13.0101C71.5843 13.3578 70.765 13.5379 69.9358 13.5379C69.1066 13.5379 68.2873 13.3578 67.5347 13.0101C66.7821 12.6624 66.1142 12.1553 65.5774 11.5242C66.1143 10.8931 66.7822 10.3861 67.5347 10.0385C68.2873 9.69082 69.1066 9.51074 69.9358 9.51074C70.765 9.51074 71.5843 9.69082 72.3368 10.0385C73.0894 10.3861 73.7573 10.8931 74.2942 11.5242Z" fill="white"/>
<path d="M81.8199 18.2034H57.7525C57.414 18.2034 57.1396 18.4774 57.1396 18.8155V22.5039C57.1396 22.842 57.414 23.116 57.7525 23.116H81.8199C82.1584 23.116 82.4328 22.842 82.4328 22.5039V18.8155C82.4328 18.4774 82.1584 18.2034 81.8199 18.2034Z" fill="white"/>
<path d="M81.8202 23.1922H57.753C57.5702 23.192 57.3949 23.1194 57.2657 22.9903C57.1364 22.8612 57.0637 22.6861 57.0635 22.5036V18.8154C57.0637 18.6328 57.1364 18.4578 57.2657 18.3286C57.3949 18.1995 57.5702 18.1269 57.753 18.1267H81.8202C82.0029 18.127 82.1781 18.1996 82.3074 18.3287C82.4366 18.4578 82.5093 18.6328 82.5095 18.8154V22.5041C82.5091 22.6865 82.4364 22.8614 82.3072 22.9904C82.178 23.1194 82.0028 23.192 81.8202 23.1922ZM57.753 18.2796C57.6108 18.2798 57.4745 18.3363 57.3739 18.4368C57.2734 18.5372 57.2168 18.6733 57.2166 18.8154V22.5041C57.2168 22.6461 57.2734 22.7823 57.3739 22.8827C57.4745 22.9831 57.6108 23.0397 57.753 23.0399H81.8202C81.9624 23.0397 82.0987 22.9831 82.1993 22.8827C82.2998 22.7823 82.3564 22.6461 82.3566 22.5041V18.8159C82.3564 18.6739 82.2998 18.5377 82.1993 18.4373C82.0987 18.3368 81.9624 18.2803 81.8202 18.2801L57.753 18.2796Z" fill="black"/>
<path d="M81.8199 26.3844H57.7525C57.414 26.3844 57.1396 26.6584 57.1396 26.9965V30.6849C57.1396 31.023 57.414 31.297 57.7525 31.297H81.8199C82.1584 31.297 82.4328 31.023 82.4328 30.6849V26.9965C82.4328 26.6584 82.1584 26.3844 81.8199 26.3844Z" fill="white"/>
<path d="M81.8202 31.3733H57.753C57.5702 31.3731 57.3949 31.3004 57.2657 31.1713C57.1364 31.0422 57.0637 30.8672 57.0635 30.6846V26.9964C57.0637 26.8138 57.1364 26.6388 57.2657 26.5097C57.3949 26.3806 57.5702 26.3079 57.753 26.3077H81.8202C82.0029 26.308 82.1781 26.3807 82.3074 26.5098C82.4366 26.6389 82.5093 26.8139 82.5095 26.9964V30.6846C82.5093 30.8671 82.4366 31.0421 82.3074 31.1712C82.1781 31.3003 82.0029 31.373 81.8202 31.3733ZM57.753 26.4606C57.6108 26.4608 57.4745 26.5174 57.3739 26.6178C57.2734 26.7182 57.2168 26.8544 57.2166 26.9964V30.6846C57.2168 30.8266 57.2734 30.9628 57.3739 31.0632C57.4745 31.1637 57.6108 31.2202 57.753 31.2204H81.8202C81.9624 31.2202 82.0987 31.1637 82.1993 31.0632C82.2998 30.9628 82.3564 30.8266 82.3566 30.6846V26.9964C82.3564 26.8544 82.2998 26.7182 82.1993 26.6178C82.0987 26.5174 81.9624 26.4608 81.8202 26.4606H57.753Z" fill="black"/>
<path d="M62.1812 18.2034H57.7528C57.5902 18.2034 57.4343 18.2678 57.3193 18.3826C57.2043 18.4974 57.1397 18.6531 57.1396 18.8155V22.5042C57.1397 22.6666 57.2043 22.8223 57.3193 22.9371C57.4343 23.0519 57.5902 23.1165 57.7528 23.1165H62.1812V18.2034Z" fill="white"/>
<path d="M62.1815 23.1922H57.753C57.5702 23.192 57.3949 23.1194 57.2657 22.9903C57.1364 22.8612 57.0637 22.6861 57.0635 22.5036V18.8154C57.0637 18.6328 57.1364 18.4578 57.2657 18.3286C57.3949 18.1995 57.5702 18.1269 57.753 18.1267H62.1815C62.2018 18.1268 62.2212 18.1349 62.2355 18.1492C62.2498 18.1636 62.2579 18.183 62.2579 18.2033V23.1159C62.2579 23.1362 62.2498 23.1556 62.2355 23.1699C62.2212 23.1842 62.2017 23.1922 62.1815 23.1922ZM57.753 18.2799C57.6108 18.28 57.4745 18.3365 57.3739 18.4369C57.2734 18.5372 57.2168 18.6734 57.2166 18.8154V22.5041C57.2168 22.6461 57.2734 22.7823 57.3739 22.8827C57.4745 22.9831 57.6108 23.0397 57.753 23.0399H62.1048V18.2799H57.753Z" fill="black"/>
<path d="M62.1812 26.3851H57.7528C57.5902 26.3851 57.4343 26.4496 57.3193 26.5644C57.2043 26.6792 57.1397 26.8349 57.1396 26.9972V30.6854C57.1397 30.8478 57.2043 31.0035 57.3193 31.1182C57.4343 31.233 57.5902 31.2975 57.7528 31.2975H62.1812V26.3851Z" fill="white"/>
<path d="M62.1815 31.3733H57.753C57.5702 31.3731 57.3949 31.3004 57.2657 31.1713C57.1364 31.0422 57.0637 30.8672 57.0635 30.6846V26.9964C57.0637 26.8138 57.1364 26.6388 57.2657 26.5097C57.3949 26.3806 57.5702 26.3079 57.753 26.3077H62.1815C62.1915 26.3077 62.2015 26.3097 62.2108 26.3136C62.2201 26.3174 62.2285 26.3231 62.2356 26.3302C62.2427 26.3373 62.2483 26.3457 62.2521 26.355C62.256 26.3643 62.2579 26.3743 62.2579 26.3843V31.2967C62.2579 31.3067 62.256 31.3167 62.2521 31.326C62.2483 31.3353 62.2427 31.3437 62.2356 31.3508C62.2285 31.3579 62.2201 31.3636 62.2108 31.3674C62.2015 31.3713 62.1915 31.3733 62.1815 31.3733ZM57.753 26.4606C57.6108 26.4608 57.4745 26.5174 57.3739 26.6178C57.2734 26.7182 57.2168 26.8544 57.2166 26.9964V30.6846C57.2168 30.8266 57.2734 30.9628 57.3739 31.0632C57.4745 31.1637 57.6108 31.2202 57.753 31.2204H62.1048V26.4606H57.753Z" fill="black"/>
<path d="M58.6345 21.8841C58.6388 21.6151 58.7488 21.3586 58.9408 21.1699C59.1328 20.9812 59.3913 20.8755 59.6606 20.8755C59.93 20.8755 60.1885 20.9812 60.3805 21.1699C60.5725 21.3586 60.6825 21.6151 60.6868 21.8841H58.6345Z" fill="#CAD5FF"/>
<path d="M60.2068 19.9807C60.2068 20.0887 60.1748 20.1942 60.1148 20.284C60.0548 20.3737 59.9695 20.4437 59.8696 20.4851C59.7698 20.5264 59.6599 20.5372 59.5539 20.5162C59.4479 20.4951 59.3505 20.4432 59.274 20.3668C59.1976 20.2905 59.1456 20.1932 59.1245 20.0874C59.1034 19.9815 59.1143 19.8718 59.1557 19.772C59.197 19.6723 59.2671 19.5871 59.357 19.5272C59.4469 19.4672 59.5526 19.4353 59.6607 19.4353C59.7324 19.4352 59.8034 19.4493 59.8697 19.4767C59.936 19.5041 59.9962 19.5442 60.047 19.5949C60.0977 19.6456 60.1379 19.7057 60.1653 19.7719C60.1928 19.8381 60.2068 19.9091 60.2068 19.9807Z" fill="#CAD5FF"/>
<path d="M60.6845 28.3241H59.025C58.8466 28.3241 58.7019 28.4686 58.7019 28.6468V29.5957C58.7019 29.7739 58.8466 29.9184 59.025 29.9184H60.6845C60.863 29.9184 61.0077 29.7739 61.0077 29.5957V28.6468C61.0077 28.4686 60.863 28.3241 60.6845 28.3241Z" fill="#CAD5FF"/>
<path d="M60.6446 28.487H59.065C59.0549 28.4871 59.0449 28.4851 59.0356 28.4813C59.0263 28.4775 59.0179 28.4718 59.0108 28.4648C59.0036 28.4577 58.998 28.4492 58.9941 28.44C58.9903 28.4307 58.9883 28.4207 58.9883 28.4107V28.0461C58.9883 27.8166 59.0796 27.5965 59.242 27.4342C59.4045 27.2719 59.6249 27.1808 59.8547 27.1808C60.0844 27.1808 60.3048 27.2719 60.4673 27.4342C60.6298 27.5965 60.7211 27.8166 60.7211 28.0461V28.4107C60.7211 28.4309 60.713 28.4504 60.6987 28.4647C60.6843 28.479 60.6649 28.487 60.6446 28.487ZM59.1414 28.3341H60.568V28.0476C60.568 27.8587 60.4928 27.6775 60.359 27.5439C60.2253 27.4103 60.0438 27.3352 59.8547 27.3352C59.6655 27.3352 59.4841 27.4103 59.3503 27.5439C59.2165 27.6775 59.1414 27.8587 59.1414 28.0476V28.3341Z" fill="#CAD5FF"/>
<path d="M60.1195 29.0872C60.1196 29.1418 60.1034 29.1951 60.0731 29.2405C60.0428 29.2859 59.9997 29.3213 59.9492 29.3422C59.8987 29.3632 59.8432 29.3687 59.7896 29.358C59.736 29.3474 59.6868 29.3212 59.6481 29.2826C59.6095 29.244 59.5831 29.1949 59.5725 29.1414C59.5618 29.0879 59.5672 29.0324 59.5881 28.982C59.609 28.9316 59.6444 28.8885 59.6899 28.8581C59.7353 28.8278 59.7887 28.8116 59.8433 28.8116C59.9165 28.8118 59.9866 28.8409 60.0384 28.8925C60.0901 28.9441 60.1193 29.0141 60.1195 29.0872Z" fill="white"/>
<path d="M99.791 24.1013C100.376 23.0763 100.751 21.9454 100.895 20.7743C101.038 19.6033 100.947 18.4154 100.627 17.2797C100.307 16.1441 99.7639 15.0833 99.0297 14.159C98.2955 13.2347 97.3847 12.4654 96.3503 11.8957C95.2588 11.2945 94.1984 11.0142 93.1945 11.0622C92.167 11.1119 91.2302 11.531 90.6152 12.2048C91.3358 12.8023 91.9317 13.7697 91.7041 14.6764C91.3874 15.9376 89.9517 16.1871 89.6667 14.736C89.5039 13.9088 89.8633 12.8714 90.3951 12.2249C89.4562 11.5081 88.1303 11.183 86.8145 11.3932C85.3908 11.6219 83.9634 12.409 82.5731 13.7299C82.5659 13.7371 82.5573 13.7428 82.5478 13.7467C82.5383 13.7505 82.5281 13.7525 82.5179 13.7523C82.5076 13.7522 82.4975 13.7501 82.4882 13.746C82.4788 13.7419 82.4703 13.736 82.4632 13.7285C82.4562 13.7211 82.4507 13.7124 82.4471 13.7028C82.4435 13.6932 82.4418 13.683 82.4422 13.6728C82.4426 13.6626 82.445 13.6526 82.4494 13.6433C82.4537 13.634 82.4599 13.6257 82.4675 13.6189C83.8808 12.2754 85.3363 11.4758 86.7903 11.2422C88.1509 11.0239 89.5224 11.3638 90.4955 12.1092C91.1376 11.4026 92.1153 10.9611 93.1872 10.9093C94.2172 10.8598 95.3086 11.146 96.4254 11.7613C97.4776 12.3407 98.4041 13.1233 99.1509 14.0634C99.8977 15.0036 100.45 16.0826 100.776 17.2378C101.101 18.393 101.194 19.6013 101.048 20.7925C100.902 21.9837 100.52 23.134 99.9248 24.1766C99.874 24.2644 99.7404 24.1899 99.791 24.1013ZM90.514 12.32C89.9314 13.0266 89.6847 14.039 89.8158 14.7063C90.0753 16.0259 91.2878 15.7018 91.5544 14.6389C91.7651 13.8004 91.1952 12.8857 90.514 12.32Z" fill="black"/>
<path d="M99.7864 24.1662L99.3825 23.1865C99.3774 23.1771 99.3745 23.1667 99.3737 23.156C99.373 23.1453 99.3745 23.1346 99.3782 23.1245C99.3818 23.1144 99.3876 23.1052 99.395 23.0975C99.4024 23.0898 99.4114 23.0837 99.4214 23.0797C99.4313 23.0757 99.442 23.0738 99.4527 23.0741C99.4634 23.0745 99.474 23.0771 99.4836 23.0817C99.4933 23.0864 99.5018 23.0931 99.5088 23.1012C99.5157 23.1094 99.5208 23.119 99.5238 23.1292L99.8986 24.0383L100.81 23.6642C100.819 23.6597 100.829 23.6572 100.84 23.6568C100.85 23.6563 100.861 23.658 100.87 23.6618C100.88 23.6655 100.889 23.6712 100.896 23.6785C100.904 23.6858 100.91 23.6945 100.914 23.7042C100.918 23.7138 100.92 23.7242 100.919 23.7346C100.919 23.745 100.917 23.7553 100.913 23.7648C100.908 23.7743 100.902 23.7829 100.894 23.7899C100.887 23.7969 100.878 23.8023 100.868 23.8057L99.8861 24.2089C99.8672 24.2164 99.8461 24.2161 99.8274 24.2081C99.8087 24.2001 99.794 24.185 99.7864 24.1662Z" fill="black"/>
<path d="M59.9476 63.7066C48.7167 61.3677 49.7959 50.3479 49.7959 50.3479C52.0174 51.9503 54.6134 53.0609 57.7107 53.4735C58.5891 56.318 59.7963 60.728 59.9476 63.7066Z" fill="black"/>
<path d="M83.4892 45.3991L77.95 37.0997C77.9395 37.0828 77.936 37.0625 77.9402 37.043C77.9444 37.0236 77.956 37.0066 77.9726 36.9955C77.9892 36.9845 78.0094 36.9803 78.029 36.9839C78.0486 36.9875 78.066 36.9986 78.0776 37.0148L83.6165 45.3142C83.6221 45.3226 83.626 45.3319 83.6279 45.3418C83.6299 45.3516 83.6299 45.3618 83.6279 45.3716C83.626 45.3815 83.6221 45.3908 83.6165 45.3992C83.6109 45.4075 83.6037 45.4147 83.5954 45.4202C83.587 45.4258 83.5776 45.4297 83.5678 45.4316C83.5579 45.4336 83.5478 45.4336 83.5379 45.4316C83.5281 45.4297 83.5187 45.4258 83.5103 45.4202C83.502 45.4147 83.4948 45.4075 83.4892 45.3991Z" fill="black"/>
<path d="M81.6257 38.6594C81.4512 38.6593 81.2807 38.6076 81.1357 38.5108C80.9907 38.414 80.8777 38.2764 80.811 38.1154C80.7442 37.9544 80.7268 37.7773 80.7609 37.6065C80.7949 37.4356 80.879 37.2787 81.0023 37.1555C81.1257 37.0323 81.2829 36.9485 81.454 36.9145C81.625 36.8805 81.8024 36.898 81.9635 36.9647C82.1247 37.0313 82.2624 37.1443 82.3593 37.2891C82.4562 37.434 82.508 37.6043 82.508 37.7785C82.5078 38.0121 82.4147 38.2361 82.2493 38.4012C82.0839 38.5664 81.8596 38.6592 81.6257 38.6594ZM81.6257 37.0505C81.4812 37.0505 81.3401 37.0932 81.22 37.1734C81.0999 37.2535 81.0063 37.3674 80.951 37.5007C80.8957 37.6339 80.8813 37.7806 80.9095 37.9221C80.9376 38.0635 81.0072 38.1935 81.1093 38.2955C81.2114 38.3975 81.3416 38.4669 81.4832 38.4951C81.6249 38.5232 81.7717 38.5088 81.9051 38.4536C82.0386 38.3984 82.1526 38.3049 82.2329 38.185C82.3131 38.065 82.3559 37.924 82.3559 37.7798C82.3559 37.5864 82.279 37.4009 82.142 37.2641C82.0051 37.1273 81.8193 37.0505 81.6257 37.0505Z" fill="black"/>
<path d="M49.9252 35.8324L48.1841 35.4427L50.1166 36.8224L49.9252 35.8324Z" fill="black"/>
<path d="M50.0721 36.8847L48.1396 35.5043C48.1251 35.494 48.1147 35.479 48.1101 35.462C48.1055 35.4449 48.1069 35.4267 48.1141 35.4106C48.1214 35.3944 48.134 35.3813 48.1499 35.3734C48.1657 35.3655 48.1838 35.3633 48.2011 35.3673L49.942 35.758C49.9537 35.7609 49.9646 35.7666 49.9737 35.7744C49.9829 35.7823 49.9901 35.7922 49.9948 35.8033C49.9995 35.8145 50.0016 35.8265 50.0008 35.8386C50.0001 35.8507 49.9965 35.8624 49.9905 35.8728C50.0364 35.9067 50.0082 35.8989 50.1918 36.8079C50.1947 36.8229 50.193 36.8384 50.187 36.8525C50.1809 36.8665 50.1708 36.8785 50.158 36.8867C50.1451 36.895 50.13 36.8992 50.1147 36.8989C50.0994 36.8985 50.0846 36.8936 50.0721 36.8847ZM48.536 35.6001L50.0051 36.6488C49.8705 35.9213 49.8549 35.9432 49.8765 35.9002L48.536 35.6001Z" fill="black"/>
<path d="M54.2617 101.896H45.3542V102.049H54.2617V101.896Z" fill="black"/>
<path d="M17.6503 67.2836L12.9644 76.7443L13.1016 76.8121L17.7875 67.3514L17.6503 67.2836Z" fill="black"/>
<path d="M61.1669 108.929C59.4675 109.622 57.5013 108.917 56.655 107.265C59.8799 107.009 60.578 107.543 61.1669 108.929Z" fill="black"/>
<path d="M44.6934 106.581C45.6302 105.464 44.8796 104.513 44.8796 104.513H52.1682L44.6934 106.581Z" fill="black"/>
<path d="M15.0063 64.8018L11.8655 70.6732L13.5419 63.9753C14.0716 64.8979 15.0063 64.8018 15.0063 64.8018Z" fill="black"/>
<path d="M65.6624 20.6585C65.6626 20.8212 65.6145 20.9804 65.5241 21.1159C65.4337 21.2514 65.3052 21.357 65.1546 21.4195C65.0041 21.482 64.8384 21.4985 64.6785 21.467C64.5186 21.4354 64.3717 21.3572 64.2563 21.2422C64.1409 21.1273 64.0622 20.9807 64.0302 20.8211C63.9982 20.6615 64.0143 20.496 64.0765 20.3455C64.1387 20.195 64.2442 20.0663 64.3796 19.9757C64.515 19.8851 64.6743 19.8366 64.8373 19.8364C65.0557 19.8366 65.2652 19.9231 65.4199 20.0772C65.5745 20.2313 65.6617 20.4403 65.6624 20.6585Z" fill="white"/>
<path d="M64.837 21.5593C64.6589 21.5591 64.4849 21.5062 64.337 21.4073C64.189 21.3083 64.0737 21.1678 64.0056 21.0035C63.9376 20.8391 63.9198 20.6583 63.9546 20.4839C63.9894 20.3095 64.0752 20.1493 64.2011 20.0235C64.327 19.8978 64.4874 19.8121 64.6621 19.7773C64.8367 19.7426 65.0178 19.7603 65.1823 19.8283C65.3469 19.8963 65.4876 20.0114 65.5866 20.1592C65.6857 20.307 65.7387 20.4808 65.7389 20.6586C65.7389 20.7769 65.7156 20.894 65.6703 21.0033C65.625 21.1126 65.5586 21.2119 65.4748 21.2956C65.3911 21.3792 65.2916 21.4456 65.1822 21.4908C65.0728 21.5361 64.9555 21.5593 64.837 21.5593ZM64.837 19.9132C64.6892 19.9134 64.5448 19.9574 64.422 20.0397C64.2992 20.1219 64.2036 20.2386 64.1473 20.3751C64.0909 20.5116 64.0764 20.6617 64.1055 20.8065C64.1345 20.9512 64.2059 21.0841 64.3106 21.1883C64.4153 21.2926 64.5486 21.3634 64.6936 21.392C64.8387 21.4206 64.9889 21.4056 65.1254 21.3489C65.2619 21.2922 65.3785 21.1964 65.4604 21.0735C65.5424 20.9506 65.586 20.8062 65.5858 20.6586C65.5857 20.5606 65.5662 20.4635 65.5285 20.3729C65.4908 20.2824 65.4356 20.2001 65.3661 20.1309C65.2966 20.0617 65.214 20.0068 65.1233 19.9694C65.0325 19.9321 64.9352 19.913 64.837 19.9132Z" fill="black"/>
<path d="M68.4564 20.6585C68.4566 20.8212 68.4084 20.9804 68.3181 21.1159C68.2277 21.2514 68.0991 21.357 67.9486 21.4195C67.7981 21.482 67.6324 21.4985 67.4725 21.467C67.3126 21.4354 67.1656 21.3572 67.0502 21.2422C66.9348 21.1273 66.8561 20.9807 66.8241 20.8211C66.7921 20.6615 66.8083 20.496 66.8704 20.3455C66.9326 20.195 67.0381 20.0663 67.1735 19.9757C67.3089 19.8851 67.4682 19.8366 67.6312 19.8364C67.8496 19.8366 68.0591 19.9231 68.2138 20.0772C68.3685 20.2313 68.4557 20.4403 68.4564 20.6585Z" fill="white"/>
<path d="M67.6312 21.5593C67.4531 21.5591 67.2791 21.5063 67.1311 21.4074C66.9831 21.3085 66.8677 21.168 66.7996 21.0036C66.7316 20.8393 66.7138 20.6585 66.7485 20.484C66.7833 20.3096 66.869 20.1494 66.9949 20.0236C67.1209 19.8978 67.2813 19.8121 67.4559 19.7774C67.6306 19.7426 67.8116 19.7603 67.9762 19.8283C68.1408 19.8962 68.2815 20.0114 68.3806 20.1592C68.4796 20.307 68.5326 20.4808 68.5328 20.6586C68.5328 20.8974 68.4378 21.1265 68.2688 21.2954C68.0997 21.4643 67.8704 21.5592 67.6312 21.5593ZM67.6312 19.9132C67.4834 19.9134 67.3389 19.9574 67.2161 20.0395C67.0933 20.1217 66.9977 20.2385 66.9413 20.3749C66.8849 20.5114 66.8703 20.6615 66.8994 20.8063C66.9284 20.9511 66.9998 21.084 67.1045 21.1882C67.2092 21.2925 67.3424 21.3634 67.4875 21.392C67.6325 21.4206 67.7828 21.4056 67.9193 21.3489C68.0558 21.2922 68.1724 21.1964 68.2543 21.0735C68.3363 20.9506 68.3799 20.8063 68.3797 20.6586C68.3796 20.5606 68.3601 20.4635 68.3224 20.373C68.2847 20.2825 68.2296 20.2003 68.1601 20.1311C68.0906 20.0618 68.0081 20.007 67.9174 19.9696C67.8266 19.9322 67.7294 19.913 67.6312 19.9132Z" fill="black"/>
<path d="M71.2503 20.6585C71.2505 20.8212 71.2024 20.9804 71.112 21.1159C71.0216 21.2514 70.893 21.357 70.7425 21.4195C70.592 21.482 70.4263 21.4985 70.2664 21.467C70.1065 21.4354 69.9596 21.3572 69.8442 21.2422C69.7288 21.1273 69.6501 20.9807 69.6181 20.8211C69.5861 20.6615 69.6022 20.496 69.6644 20.3455C69.7266 20.195 69.832 20.0663 69.9675 19.9757C70.1029 19.8851 70.2621 19.8366 70.4251 19.8364C70.6436 19.8366 70.8531 19.9231 71.0077 20.0772C71.1624 20.2313 71.2496 20.4403 71.2503 20.6585Z" fill="white"/>
<path d="M70.4252 21.5593C70.2471 21.5591 70.073 21.5063 69.925 21.4074C69.777 21.3085 69.6617 21.168 69.5936 21.0036C69.5255 20.8393 69.5077 20.6585 69.5425 20.484C69.5772 20.3096 69.663 20.1494 69.7889 20.0236C69.9148 19.8978 70.0752 19.8121 70.2499 19.7774C70.4245 19.7426 70.6056 19.7603 70.7701 19.8283C70.9347 19.8962 71.0754 20.0114 71.1745 20.1592C71.2736 20.307 71.3266 20.4808 71.3268 20.6586C71.3268 20.8974 71.2318 21.1265 71.0627 21.2954C70.8936 21.4643 70.6643 21.5592 70.4252 21.5593ZM70.4252 19.9132C70.2773 19.9134 70.1329 19.9574 70.0101 20.0395C69.8873 20.1217 69.7916 20.2385 69.7353 20.3749C69.6789 20.5114 69.6643 20.6615 69.6933 20.8063C69.7224 20.9511 69.7937 21.084 69.8984 21.1882C70.0031 21.2925 70.1364 21.3634 70.2814 21.392C70.4265 21.4206 70.5767 21.4056 70.7132 21.3489C70.8497 21.2922 70.9663 21.1964 71.0483 21.0735C71.1302 20.9506 71.1739 20.8063 71.1737 20.6586C71.1735 20.5606 71.1541 20.4635 71.1164 20.373C71.0787 20.2825 71.0235 20.2003 70.954 20.1311C70.8845 20.0618 70.802 20.007 70.7113 19.9696C70.6206 19.9322 70.5233 19.913 70.4252 19.9132Z" fill="black"/>
<path d="M74.0433 20.6585C74.0435 20.8212 73.9954 20.9804 73.905 21.1159C73.8146 21.2514 73.686 21.357 73.5355 21.4195C73.385 21.482 73.2193 21.4985 73.0594 21.467C72.8995 21.4354 72.7525 21.3572 72.6371 21.2422C72.5217 21.1273 72.4431 20.9807 72.4111 20.8211C72.3791 20.6615 72.3952 20.496 72.4574 20.3455C72.5195 20.195 72.625 20.0663 72.7604 19.9757C72.8958 19.8851 73.0551 19.8366 73.2181 19.8364C73.4366 19.8366 73.6461 19.9231 73.8007 20.0772C73.9554 20.2313 74.0426 20.4403 74.0433 20.6585Z" fill="white"/>
<path d="M73.2189 21.5593C73.0408 21.5591 72.8667 21.5063 72.7187 21.4074C72.5707 21.3085 72.4554 21.168 72.3873 21.0036C72.3192 20.8393 72.3014 20.6585 72.3362 20.484C72.3709 20.3096 72.4567 20.1494 72.5826 20.0236C72.7085 19.8978 72.8689 19.8121 73.0436 19.7774C73.2182 19.7426 73.3993 19.7603 73.5638 19.8283C73.7284 19.8962 73.8691 20.0114 73.9682 20.1592C74.0673 20.307 74.1203 20.4808 74.1205 20.6586C74.1205 20.7769 74.0972 20.894 74.0519 21.0033C74.0066 21.1125 73.9402 21.2118 73.8565 21.2955C73.7728 21.3791 73.6734 21.4455 73.564 21.4907C73.4546 21.536 73.3373 21.5593 73.2189 21.5593ZM73.2189 19.9132C73.0711 19.9134 72.9266 19.9574 72.8039 20.0397C72.6811 20.1219 72.5855 20.2386 72.5291 20.3751C72.4728 20.5116 72.4582 20.6617 72.4873 20.8065C72.5164 20.9512 72.5878 21.0841 72.6925 21.1883C72.7972 21.2926 72.9305 21.3634 73.0755 21.392C73.2205 21.4206 73.3708 21.4056 73.5072 21.3489C73.6437 21.2922 73.7603 21.1964 73.8423 21.0735C73.9242 20.9506 73.9679 20.8062 73.9676 20.6586C73.9675 20.5606 73.948 20.4635 73.9103 20.373C73.8726 20.2824 73.8174 20.2002 73.7479 20.131C73.6784 20.0618 73.5958 20.0069 73.5051 19.9695C73.4143 19.9321 73.3171 19.913 73.2189 19.9132Z" fill="black"/>
<path d="M76.8377 20.6585C76.8379 20.8212 76.7898 20.9804 76.6994 21.1159C76.609 21.2514 76.4804 21.357 76.3299 21.4195C76.1794 21.482 76.0137 21.4985 75.8538 21.467C75.6939 21.4354 75.547 21.3572 75.4316 21.2422C75.3162 21.1273 75.2375 20.9807 75.2055 20.8211C75.1735 20.6615 75.1896 20.496 75.2518 20.3455C75.314 20.195 75.4194 20.0663 75.5549 19.9757C75.6903 19.8851 75.8495 19.8366 76.0125 19.8364C76.231 19.8366 76.4405 19.9231 76.5952 20.0772C76.7498 20.2313 76.837 20.4403 76.8377 20.6585Z" fill="white"/>
<path d="M76.0128 21.5593C75.8347 21.5591 75.6607 21.5063 75.5127 21.4074C75.3647 21.3085 75.2493 21.168 75.1812 21.0036C75.1131 20.8393 75.0954 20.6585 75.1301 20.484C75.1649 20.3096 75.2506 20.1494 75.3765 20.0236C75.5024 19.8978 75.6629 19.8121 75.8375 19.7774C76.0122 19.7426 76.1932 19.7603 76.3578 19.8283C76.5224 19.8962 76.6631 20.0114 76.7621 20.1592C76.8612 20.307 76.9142 20.4808 76.9144 20.6586C76.9145 20.7769 76.8912 20.894 76.8459 21.0033C76.8006 21.1126 76.7342 21.2119 76.6505 21.2956C76.5668 21.3792 76.4674 21.4456 76.3579 21.4908C76.2485 21.5361 76.1313 21.5593 76.0128 21.5593ZM76.0128 19.9132C75.865 19.9134 75.7205 19.9574 75.5977 20.0395C75.4749 20.1217 75.3793 20.2385 75.3229 20.3749C75.2665 20.5114 75.2519 20.6615 75.281 20.8063C75.31 20.9511 75.3814 21.084 75.4861 21.1882C75.5907 21.2925 75.724 21.3634 75.8691 21.392C76.0141 21.4206 76.1644 21.4056 76.3009 21.3489C76.4374 21.2922 76.554 21.1964 76.6359 21.0735C76.7179 20.9506 76.7615 20.8063 76.7613 20.6586C76.7612 20.5606 76.7417 20.4635 76.704 20.373C76.6663 20.2825 76.6112 20.2003 76.5417 20.1311C76.4722 20.0618 76.3897 20.007 76.2989 19.9696C76.2082 19.9322 76.111 19.913 76.0128 19.9132Z" fill="black"/>
<path d="M79.7291 28.8879H64.5637C64.5441 28.8867 64.5258 28.8782 64.5124 28.864C64.4989 28.8498 64.4915 28.831 64.4915 28.8114C64.4915 28.7919 64.4989 28.7731 64.5124 28.7589C64.5258 28.7447 64.5441 28.7361 64.5637 28.735H79.7291C79.7486 28.7361 79.767 28.7447 79.7804 28.7589C79.7938 28.7731 79.8013 28.7919 79.8013 28.8114C79.8013 28.831 79.7938 28.8498 79.7804 28.864C79.767 28.8782 79.7486 28.8867 79.7291 28.8879Z" fill="black"/>
<path d="M86.6144 105.827L84.9713 85.4326C84.9713 85.4326 81.6455 97.0783 82.3912 105.827H86.6144Z" fill="#CAD5FF"/>
<path d="M82.1062 105.827L76.095 85.7399C76.095 85.7399 82.3542 90.9291 85.8704 105.827" fill="white"/>
<path d="M82.1061 105.903C82.0896 105.903 82.0736 105.898 82.0604 105.888C82.0472 105.878 82.0375 105.864 82.0328 105.848L76.0213 85.7615C76.0166 85.7458 76.017 85.729 76.0226 85.7135C76.0282 85.698 76.0387 85.6848 76.0524 85.6757C76.0661 85.6666 76.0824 85.6622 76.0988 85.6631C76.1152 85.6639 76.1309 85.6701 76.1436 85.6805C76.2065 85.7326 82.4629 91.0568 85.9448 105.809C85.9475 105.819 85.9482 105.829 85.9467 105.839C85.9453 105.849 85.9419 105.859 85.9366 105.868C85.9314 105.877 85.9244 105.884 85.9161 105.89C85.9078 105.896 85.8984 105.901 85.8884 105.903C85.8784 105.906 85.868 105.906 85.8579 105.904C85.8478 105.902 85.8381 105.899 85.8295 105.893C85.8208 105.888 85.8134 105.88 85.8076 105.872C85.8018 105.864 85.7977 105.854 85.7957 105.844C82.6788 92.6399 77.3457 87.0264 76.2472 85.9819L82.1804 105.805C82.1833 105.814 82.1842 105.824 82.1831 105.834C82.1821 105.844 82.179 105.854 82.1742 105.863C82.1693 105.872 82.1628 105.88 82.1549 105.886C82.147 105.892 82.138 105.897 82.1283 105.9C82.1211 105.902 82.1136 105.903 82.1061 105.903Z" fill="black"/>
<path d="M88.454 105.903H80.0379C80.0175 105.903 79.998 105.895 79.9836 105.881C79.9693 105.866 79.9612 105.847 79.9612 105.826C79.9612 105.806 79.9693 105.787 79.9836 105.772C79.998 105.758 80.0175 105.75 80.0379 105.75H88.454C88.4743 105.75 88.4938 105.758 88.5082 105.772C88.5226 105.787 88.5306 105.806 88.5306 105.826C88.5306 105.847 88.5226 105.866 88.5082 105.881C88.4938 105.895 88.4743 105.903 88.454 105.903Z" fill="black"/>
<path d="M31.6788 110.048C31.6788 110.048 36.0556 102.599 32.8078 90.1486C32.8078 90.1486 29.8164 100.268 28.123 102.254L31.6788 110.048Z" fill="#75C675"/>
<path d="M30.3242 110.048C30.3242 110.048 21.6765 100.11 17.3237 96.2418C17.3237 96.2418 24.3156 95.6258 29.0794 104.115L30.3242 110.048Z" fill="#CAD5FF"/>
<path d="M31.6789 110.048C31.6789 110.048 27.8409 91.728 19.6003 87.6132L30.3243 110.048" fill="white"/>
<path d="M30.2548 110.081L19.5314 87.6465C19.5242 87.632 19.5218 87.6156 19.5245 87.5997C19.5273 87.5838 19.535 87.5691 19.5466 87.5579C19.5582 87.5466 19.5731 87.5393 19.5891 87.537C19.6051 87.5347 19.6214 87.5376 19.6357 87.5452C27.815 91.6295 31.7169 109.849 31.7552 110.033C31.7758 110.132 31.6248 110.163 31.6053 110.064C31.5672 109.882 27.7454 92.0335 19.769 87.7861L30.3949 110.016C30.4374 110.107 30.2992 110.173 30.2548 110.081Z" fill="black"/>
<path d="M35.0247 110.125H27.1532C27.1427 110.125 27.1323 110.124 27.1225 110.12C27.1127 110.117 27.1037 110.111 27.0961 110.104C27.0885 110.097 27.0824 110.088 27.0783 110.079C27.0742 110.069 27.072 110.059 27.072 110.048C27.072 110.038 27.0742 110.028 27.0783 110.018C27.0824 110.008 27.0885 110 27.0961 109.993C27.1037 109.985 27.1127 109.98 27.1225 109.976C27.1323 109.973 27.1427 109.971 27.1532 109.972H35.0247C35.0351 109.971 35.0456 109.973 35.0554 109.976C35.0652 109.98 35.0742 109.985 35.0818 109.993C35.0894 110 35.0954 110.008 35.0996 110.018C35.1037 110.028 35.1059 110.038 35.1059 110.048C35.1059 110.059 35.1037 110.069 35.0996 110.079C35.0954 110.088 35.0894 110.097 35.0818 110.104C35.0742 110.111 35.0652 110.117 35.0554 110.12C35.0456 110.124 35.0351 110.125 35.0247 110.125Z" fill="black"/>
<path d="M73.3891 73.2977C73.3796 73.2805 73.3772 73.2603 73.3822 73.2413C73.3872 73.2223 73.3994 73.206 73.4161 73.1957C73.4328 73.1854 73.4529 73.1819 73.4722 73.186C73.4914 73.19 73.5083 73.2013 73.5195 73.2175C73.6392 73.4116 73.7961 73.5802 73.9811 73.7137C74.1661 73.8472 74.3756 73.943 74.5977 73.9957C74.8198 74.0484 75.05 74.0568 75.2754 74.0206C75.5007 73.9843 75.7167 73.9041 75.911 73.7845C76.1054 73.665 76.2742 73.5083 76.4079 73.3235C76.5416 73.1388 76.6375 72.9295 76.6902 72.7078C76.743 72.486 76.7514 72.256 76.7152 72.0309C76.6789 71.8059 76.5986 71.5901 76.4788 71.3961C76.4732 71.3875 76.4693 71.3779 76.4675 71.3679C76.4656 71.3578 76.4658 71.3475 76.468 71.3375C76.4703 71.3275 76.4745 71.318 76.4804 71.3097C76.4863 71.3014 76.4939 71.2943 76.5026 71.2889C76.5113 71.2835 76.521 71.2799 76.5311 71.2784C76.5413 71.2768 76.5516 71.2773 76.5615 71.2798C76.5715 71.2823 76.5808 71.2867 76.589 71.2929C76.5972 71.299 76.6041 71.3067 76.6092 71.3156C76.741 71.5268 76.8298 71.7619 76.8703 72.0075C76.9109 72.253 76.9025 72.5041 76.8456 72.7464C76.7886 72.9887 76.6843 73.2174 76.5386 73.4193C76.3929 73.6212 76.2087 73.7923 75.9966 73.9229C75.7845 74.0535 75.5486 74.1409 75.3025 74.1801C75.0564 74.2194 74.805 74.2097 74.5627 74.1516C74.3204 74.0935 74.092 73.9882 73.8906 73.8416C73.6892 73.6951 73.5187 73.5103 73.3891 73.2977Z" fill="black"/>
<path d="M29.6053 24.3015L27.4656 27.0785L30.2461 29.2155L32.3859 26.4385L29.6053 24.3015Z" fill="#76C4FF"/>
<path d="M29.343 23.1128L25.835 23.1305L25.8527 26.634L29.3607 26.6162L29.343 23.1128Z" fill="#E099ED"/>
<path d="M89.2025 54.22C89.0866 54.0363 89.0083 53.8316 88.9722 53.6175C88.936 53.4034 88.9427 53.1844 88.9918 52.9729C89.0409 52.7614 89.1315 52.5618 89.2584 52.3855C89.3853 52.2092 89.5459 52.0598 89.7309 51.9459C89.916 51.832 90.1218 51.7559 90.3365 51.7219C90.5512 51.6879 90.7705 51.6968 90.9817 51.748C91.193 51.7992 91.3919 51.8917 91.5672 52.0202C91.7424 52.1487 91.8903 52.3106 92.0025 52.4965C92.0084 52.5051 92.0125 52.5147 92.0145 52.5249C92.0166 52.5351 92.0165 52.5456 92.0144 52.5557C92.0122 52.5659 92.008 52.5755 92.002 52.584C91.9961 52.5925 91.9884 52.5997 91.9796 52.6051C91.9707 52.6105 91.9608 52.6141 91.9506 52.6157C91.9403 52.6172 91.9298 52.6166 91.9197 52.6139C91.9097 52.6113 91.9003 52.6066 91.8921 52.6002C91.8839 52.5938 91.8771 52.5858 91.8721 52.5767C91.6646 52.2404 91.3318 52.0003 90.947 51.909C90.5622 51.8178 90.1568 51.8829 89.8201 52.0902C89.4834 52.2974 89.2429 52.6298 89.1516 53.0141C89.0602 53.3984 89.1254 53.8032 89.3329 54.1395C89.3388 54.1481 89.3429 54.1577 89.345 54.1679C89.347 54.1781 89.3469 54.1886 89.3448 54.1987C89.3427 54.2089 89.3385 54.2185 89.3325 54.227C89.3265 54.2355 89.3188 54.2427 89.31 54.2481C89.3011 54.2536 89.2913 54.2571 89.281 54.2587C89.2707 54.2602 89.2602 54.2596 89.2502 54.2569C89.2401 54.2543 89.2307 54.2496 89.2225 54.2432C89.2143 54.2368 89.2075 54.2288 89.2025 54.2197V54.22Z" fill="black"/>
<path d="M24.287 47.8417C24.2814 47.8332 24.2775 47.8236 24.2757 47.8135C24.2738 47.8034 24.274 47.7931 24.2762 47.7831C24.2784 47.7731 24.2826 47.7637 24.2886 47.7553C24.2945 47.747 24.3021 47.7399 24.3108 47.7345C24.3195 47.7292 24.3292 47.7256 24.3393 47.724C24.3495 47.7224 24.3598 47.7229 24.3697 47.7254C24.3797 47.7279 24.389 47.7323 24.3972 47.7385C24.4054 47.7447 24.4123 47.7524 24.4174 47.7612C24.5372 47.9553 24.694 48.1239 24.879 48.2574C25.064 48.3909 25.2735 48.4868 25.4956 48.5394C25.7177 48.5921 25.948 48.6005 26.1733 48.5643C26.3987 48.5281 26.6146 48.4479 26.809 48.3283C27.0033 48.2087 27.1721 48.052 27.3058 47.8673C27.4395 47.6825 27.5354 47.4733 27.5882 47.2515C27.6409 47.0297 27.6493 46.7997 27.6131 46.5746C27.5768 46.3496 27.4965 46.1339 27.3767 45.9398C27.3708 45.9312 27.3667 45.9216 27.3647 45.9114C27.3627 45.9012 27.3627 45.8907 27.3649 45.8806C27.367 45.8704 27.3712 45.8608 27.3772 45.8523C27.3832 45.8438 27.3908 45.8366 27.3997 45.8312C27.4085 45.8258 27.4184 45.8222 27.4287 45.8206C27.439 45.8191 27.4495 45.8197 27.4595 45.8224C27.4696 45.825 27.479 45.8297 27.4871 45.8361C27.4953 45.8425 27.5021 45.8505 27.5071 45.8596C27.639 46.0708 27.7277 46.3059 27.7683 46.5514C27.8088 46.797 27.8004 47.0481 27.7435 47.2904C27.6865 47.5327 27.5822 47.7613 27.4365 47.9632C27.2908 48.1651 27.1066 48.3363 26.8945 48.4669C26.6824 48.5975 26.4465 48.6849 26.2004 48.7241C25.9544 48.7634 25.7029 48.7537 25.4606 48.6956C25.2183 48.6375 24.9899 48.5322 24.7885 48.3856C24.5871 48.2391 24.4167 48.0542 24.287 47.8417Z" fill="black"/>
<path d="M6.07955 73.8317C5.0319 75.8357 4.21429 76.5845 2.18237 76.1136C2.77544 74.481 4.45292 73.5884 6.07955 73.8317Z" fill="black"/>
</svg>
