<svg width="78" height="81" viewBox="0 0 78 81" fill="none" xmlns="http://www.w3.org/2000/svg">
<g clip-path="url(#clip0_458_15257)">
<path d="M29.308 62.1661C28.5507 60.9154 27.5439 59.8315 26.3493 58.9808C20.7483 54.9938 17.0967 48.4773 17.0967 41.1209C17.0967 28.9968 27.0172 19.1528 39.2355 19.1528C51.4539 19.1528 61.3752 28.9968 61.3752 41.1209C61.3769 44.5259 60.58 47.8844 59.0475 50.9309C57.5149 53.9774 55.2888 56.628 52.5453 58.6732C51.016 59.8164 49.7224 61.2407 48.7348 62.8684L44.9055 69.1829C44.9055 69.1829 41.1255 70.0142 39.2355 70.0142C37.3456 70.0142 33.5671 69.1829 33.5671 69.1829L29.308 62.1661Z" fill="#E099ED"/>
<path d="M37.2665 60.0583C34.3133 59.2682 32.7051 57.6227 31.9614 55.7528C31.191 53.816 31.3139 51.5778 31.9183 49.5812C32.5055 47.6343 33.5476 45.9298 34.5802 44.9851C35.4657 44.1764 36.3692 43.9285 37.0574 44.2859C37.7456 44.6433 38.3226 45.6066 38.4291 47.5613C38.5199 49.2828 38.6068 54.1469 38.6718 58.8207C38.8527 58.8495 39.0406 58.8766 39.2324 58.8984C39.425 58.8751 39.6129 58.8479 39.7961 58.8207C39.8611 54.1469 39.9457 49.2828 40.0388 47.5613C40.143 45.6105 40.7302 44.637 41.4089 44.2859C42.0995 43.9285 43.0022 44.1764 43.8854 44.9851C44.9204 45.9306 45.9625 47.6343 46.5528 49.5812C47.1541 51.5778 47.2793 53.816 46.5089 55.7528C45.7652 57.6227 44.1547 59.2682 41.2038 60.0583C41.1584 60.2036 40.8789 69.144 40.8789 69.144C40.8789 69.5651 40.6025 69.9023 40.2706 69.8968C39.9386 69.8914 39.6708 69.5472 39.6763 69.1261C39.6763 69.1261 39.7123 65.105 39.7718 60.484C39.5886 60.4677 38.877 60.4677 38.6938 60.484C38.754 65.105 38.79 69.1261 38.79 69.1261C38.7947 69.5472 38.5278 69.8922 38.195 69.8968C37.8623 69.9015 37.5914 69.5651 37.5867 69.144C37.589 69.144 37.3119 60.2036 37.2665 60.0583ZM37.4661 58.5643C37.4035 54.0071 37.3197 49.3403 37.2312 47.6646C37.1952 46.9895 37.0997 46.479 36.94 46.1186C36.839 45.8855 36.7145 45.7301 36.5579 45.675C36.323 45.5903 36.067 45.675 35.7875 45.842C35.2168 46.18 34.6178 46.8667 34.0933 47.7392C32.767 49.9494 31.8862 53.4004 33.4599 55.8965C34.2076 57.089 35.4877 58.0345 37.4661 58.5643ZM41.005 58.5643C42.9826 58.0345 44.2635 57.0882 45.0143 55.8981C46.588 53.4004 45.708 49.9494 44.3786 47.7407C43.854 46.8683 43.2551 46.1815 42.6843 45.8436C42.4072 45.6788 42.1457 45.5918 41.9163 45.6765C41.7597 45.7348 41.6352 45.8878 41.5319 46.1201C41.3753 46.4806 41.279 46.991 41.2398 47.6661C41.1514 49.3403 41.0668 54.0071 41.005 58.5643Z" fill="black"/>
<path d="M29.308 62.1661C28.5507 60.9154 27.5439 59.8315 26.3493 58.9808C20.7483 54.9938 17.0967 48.4773 17.0967 41.1209C17.0967 28.9968 27.0172 19.1528 39.2355 19.1528C51.4539 19.1528 61.3752 28.9968 61.3752 41.1209C61.3769 44.5259 60.58 47.8844 59.0475 50.9309C57.5149 53.9774 55.2888 56.628 52.5453 58.6732C51.016 59.8164 49.7224 61.2407 48.7348 62.8684L44.9055 69.1829C44.9055 69.1829 41.1255 70.0142 39.2355 70.0142C37.3456 70.0142 33.5671 69.1829 33.5671 69.1829L29.308 62.1661ZM30.9091 61.2105L34.7454 67.5429C35.8815 67.776 37.993 68.1644 39.2316 68.1644C40.4702 68.1644 42.5818 67.776 43.7186 67.5429L47.1298 61.9175C48.2409 60.086 49.6961 58.4833 51.4163 57.1963C53.9284 55.3237 55.9668 52.8966 57.3703 50.1072C58.7737 47.3178 59.5037 44.2425 59.5024 41.1248C59.5024 30.0238 50.4204 21.0111 39.2316 21.0111C28.0428 21.0111 18.9616 30.0231 18.9616 41.1248C18.9604 44.3229 19.7285 47.4752 21.202 50.3195C22.6756 53.1638 24.812 55.6181 27.4337 57.4783C28.8365 58.4743 30.0192 59.7443 30.9091 61.2105Z" fill="white"/>
<path d="M28.9245 62.4075C28.1977 61.203 27.2296 60.1594 26.0801 59.3411C20.3694 55.2725 16.6482 48.627 16.6482 41.1254C16.6482 28.7557 26.7699 18.7129 39.2357 18.7129C51.7015 18.7129 61.8239 28.7557 61.8239 41.1254C61.8256 44.5969 61.0136 48.0212 59.4521 51.1278C57.8905 54.2343 55.6223 56.9379 52.8265 59.0249C51.3367 60.1401 50.078 61.5303 49.1194 63.1191L45.5429 69.046C45.431 69.2311 45.2817 69.3913 45.1044 69.5165C44.9271 69.6416 44.7256 69.729 44.5126 69.7731C43.4126 69.9984 40.7389 70.5104 39.2365 70.5104C37.734 70.5104 35.0611 69.9984 33.9619 69.7724C33.7488 69.7283 33.5473 69.641 33.37 69.5159C33.1926 69.3907 33.0433 69.2304 32.9315 69.0452C32.2339 67.8907 30.2508 64.6045 28.9245 62.4075ZM29.6941 61.9506C31.0204 64.1469 33.0028 67.4339 33.6996 68.5876C33.748 68.667 33.8124 68.7356 33.8888 68.789C33.9652 68.8425 34.0519 68.8797 34.1435 68.8984C35.2052 69.1167 37.7865 69.6178 39.2325 69.6178C40.6786 69.6178 43.2631 69.1167 44.3263 68.8984C44.4177 68.8794 44.5043 68.8421 44.5807 68.7886C44.657 68.7352 44.7215 68.6668 44.7702 68.5876L48.3458 62.6615C49.3634 60.9733 50.7001 59.496 52.2824 58.3109C57.528 54.3806 60.9243 48.1414 60.9243 41.1215C60.9243 29.2428 51.2043 19.6017 39.2325 19.6017C27.2608 19.6017 17.5454 29.246 17.5454 41.1215C17.5439 44.542 18.365 47.9136 19.9403 50.956C21.5157 53.9985 23.7998 56.6241 26.6031 58.6147C27.8525 59.5053 28.9045 60.6406 29.6941 61.9506Z" fill="black"/>
<path d="M45.3653 72.9102C45.3651 72.6675 45.3112 72.4278 45.2074 72.208C45.1037 71.9882 44.9526 71.7937 44.7649 71.6381C44.5771 71.4825 44.3572 71.3697 44.1208 71.3077C43.8843 71.2456 43.637 71.2357 43.3963 71.2788C42.0653 71.5173 40.3483 71.7775 39.2374 71.7775C38.1264 71.7775 36.411 71.5173 35.0777 71.2788C34.837 71.2357 34.5897 71.2456 34.3533 71.3077C34.1168 71.3697 33.897 71.4826 33.7093 71.6381C33.5216 71.7937 33.3706 71.9883 33.267 72.2081C33.1633 72.4279 33.1095 72.6676 33.1094 72.9102V73.2435C33.1095 73.7221 33.2783 74.1856 33.5866 74.5537C33.8949 74.9217 34.3232 75.1712 34.7974 75.2588C36.162 75.5082 38.0465 75.808 39.2374 75.808C40.3335 75.808 42.0089 75.5556 43.3328 75.3202C43.903 75.2195 44.4193 74.9231 44.7915 74.4829C45.1636 74.0426 45.3679 73.4864 45.3685 72.9118L45.3653 72.9102Z" fill="black"/>
<path d="M44.6778 77.9828C44.6779 77.7672 44.6304 77.5542 44.5384 77.3589C44.4465 77.1636 44.3124 76.9908 44.1457 76.8525C43.979 76.7143 43.7837 76.6141 43.5737 76.5591C43.3637 76.504 43.144 76.4954 42.9303 76.5339C41.7465 76.7452 40.2237 76.9767 39.2372 76.9767C38.2507 76.9767 36.7318 76.7436 35.5449 76.5339C35.3312 76.4961 35.1118 76.5052 34.902 76.5606C34.6922 76.6159 34.4972 76.7161 34.3306 76.8542C34.164 76.9923 34.0299 77.1648 33.9376 77.3598C33.8454 77.5548 33.7973 77.7674 33.7966 77.9828V78.2834C33.7968 78.7066 33.9461 79.1164 34.2188 79.4418C34.4915 79.7671 34.8704 79.9876 35.2897 80.0648C36.5016 80.287 38.1787 80.5543 39.2372 80.5543C40.208 80.5543 41.6979 80.3298 42.8739 80.1208C43.379 80.0298 43.8359 79.7658 44.165 79.3748C44.4941 78.9838 44.6744 78.4906 44.6746 77.9812L44.6778 77.9828Z" fill="black"/>
<path d="M40.8031 1.62137C40.8031 1.19135 40.6309 0.778957 40.3245 0.474891C40.0181 0.170826 39.6025 0 39.1691 0C38.7358 0 38.3202 0.170826 38.0137 0.474891C37.7073 0.778957 37.5352 1.19135 37.5352 1.62137V13.124C37.5352 13.554 37.7073 13.9664 38.0137 14.2705C38.3202 14.5745 38.7358 14.7454 39.1691 14.7454C39.6025 14.7454 40.0181 14.5745 40.3245 14.2705C40.6309 13.9664 40.8031 13.554 40.8031 13.124V1.62137Z" fill="#E099ED"/>
<path d="M40.8031 1.62137V13.124C40.8031 13.554 40.6309 13.9664 40.3245 14.2705C40.0181 14.5745 39.6025 14.7454 39.1691 14.7454C38.7358 14.7454 38.3202 14.5745 38.0137 14.2705C37.7073 13.9664 37.5352 13.554 37.5352 13.124V1.62137C37.5352 1.19135 37.7073 0.778957 38.0137 0.474891C38.3202 0.170826 38.7358 0 39.1691 0C39.6025 0 40.0181 0.170826 40.3245 0.474891C40.6309 0.778957 40.8031 1.19135 40.8031 1.62137ZM40.1298 1.62137C40.1299 1.49612 40.1051 1.37208 40.0569 1.25634C40.0086 1.1406 39.9379 1.03542 39.8487 0.946824C39.7595 0.858225 39.6535 0.787937 39.5369 0.739984C39.4203 0.69203 39.2953 0.66735 39.1691 0.66735C38.9141 0.66735 38.6696 0.767863 38.4893 0.946777C38.309 1.12569 38.2077 1.36835 38.2077 1.62137V13.124C38.2077 13.377 38.309 13.6197 38.4893 13.7986C38.6696 13.9775 38.9141 14.078 39.1691 14.078C39.2953 14.078 39.4203 14.0533 39.5369 14.0054C39.6535 13.9574 39.7595 13.8871 39.8487 13.7985C39.9379 13.7099 40.0086 13.6048 40.0569 13.489C40.1051 13.3733 40.1299 13.2492 40.1298 13.124V1.62137Z" fill="black"/>
<path d="M1.42496 39.6493C0.995424 39.7052 0.605792 39.928 0.341581 40.2687C0.0773699 40.6093 -0.0398336 41.0401 0.0156937 41.4665C0.0716593 41.8929 0.296032 42.2797 0.639461 42.542C0.982889 42.8042 1.41724 42.9204 1.84696 42.8649L12.4016 41.5069C12.8312 41.4511 13.221 41.2284 13.4853 40.8877C13.7495 40.547 13.8666 40.1161 13.8109 39.6897C13.7547 39.2634 13.5303 38.8767 13.1869 38.6144C12.8435 38.3522 12.4093 38.236 11.9796 38.2913L1.42496 39.6493Z" fill="#E099ED"/>
<path d="M76.5751 38.3963C77.0047 38.4522 77.3943 38.675 77.6585 39.0157C77.9227 39.3563 78.0399 39.7871 77.9844 40.2134C77.9282 40.6398 77.7038 41.0265 77.3604 41.2887C77.0171 41.5509 76.5828 41.6671 76.1531 41.6118L65.5985 40.2546C65.3857 40.2272 65.1805 40.1585 64.9946 40.0524C64.8086 39.9462 64.6455 39.8048 64.5146 39.6361C64.3838 39.4675 64.2877 39.2748 64.2318 39.0693C64.176 38.8638 64.1615 38.6493 64.1892 38.4382C64.2452 38.012 64.4694 37.6252 64.8127 37.363C65.1559 37.1008 65.5901 36.9845 66.0197 37.0398L76.5751 38.3963Z" fill="#E099ED"/>
<path d="M1.42482 39.6495L11.9795 38.2923C12.4092 38.237 12.8434 38.3532 13.1868 38.6154C13.5302 38.8776 13.7546 39.2644 13.8107 39.6907C13.8665 40.1171 13.7494 40.548 13.4851 40.8887C13.2209 41.2294 12.8311 41.4521 12.4015 41.5078L1.84681 42.8658C1.41709 42.9214 0.982744 42.8052 0.639316 42.543C0.295888 42.2807 0.0715149 41.8938 0.0155493 41.4674C-0.0402015 41.041 0.0768979 40.61 0.341131 40.2692C0.605363 39.9283 0.995126 39.7054 1.42482 39.6495ZM1.51094 40.3122C1.38573 40.3283 1.26494 40.3687 1.15549 40.4312C1.04604 40.4936 0.950067 40.5769 0.873062 40.6762C0.796057 40.7754 0.739534 40.8888 0.706719 41.0098C0.673903 41.1308 0.665439 41.257 0.681817 41.3812C0.698041 41.5054 0.73876 41.6252 0.801646 41.7337C0.864531 41.8423 0.948353 41.9375 1.04832 42.0139C1.14829 42.0903 1.26245 42.1464 1.38428 42.179C1.50611 42.2116 1.63321 42.2201 1.75834 42.2039L12.313 40.8459C12.4382 40.8299 12.559 40.7896 12.6685 40.7272C12.778 40.6649 12.874 40.5817 12.9511 40.4825C13.0281 40.3833 13.0848 40.27 13.1177 40.1491C13.1506 40.0281 13.1592 39.9019 13.1429 39.7777C13.1268 39.6535 13.0861 39.5336 13.0233 39.425C12.9604 39.3163 12.8766 39.221 12.7766 39.1446C12.6767 39.0681 12.5625 39.0119 12.4406 38.9792C12.3187 38.9466 12.1916 38.9381 12.0664 38.9542L1.51094 40.3122Z" fill="black"/>
<path d="M76.5751 38.3964L66.0204 37.0384C65.5908 36.9831 65.1567 37.0993 64.8134 37.3616C64.4702 37.6238 64.2459 38.0105 64.1899 38.4368C64.1622 38.6479 64.1767 38.8623 64.2326 39.0679C64.2884 39.2734 64.3845 39.466 64.5154 39.6347C64.6462 39.8033 64.8093 39.9448 64.9953 40.0509C65.1813 40.157 65.3865 40.2257 65.5992 40.2531L76.1554 41.6143C76.5851 41.6696 77.0194 41.5533 77.3627 41.2911C77.7061 41.0289 77.9305 40.6422 77.9867 40.2159C78.0145 40.0044 78 39.7896 77.9441 39.5837C77.8882 39.3778 77.792 39.1848 77.6609 39.0158C77.5298 38.8469 77.3664 38.7052 77.1801 38.5989C76.9938 38.4926 76.7882 38.4238 76.5751 38.3964ZM76.489 39.0591C76.6142 39.0751 76.735 39.1154 76.8444 39.1778C76.9539 39.2401 77.05 39.3233 77.127 39.4225C77.2041 39.5217 77.2607 39.635 77.2936 39.756C77.3266 39.8769 77.3351 40.0031 77.3189 40.1273C77.3027 40.2515 77.2621 40.3714 77.1992 40.48C77.1364 40.5887 77.0526 40.684 76.9526 40.7605C76.8526 40.8369 76.7384 40.8931 76.6166 40.9258C76.4947 40.9584 76.3675 40.9669 76.2423 40.9508L65.6869 39.5943C65.5617 39.5783 65.4409 39.538 65.3314 39.4756C65.2219 39.4133 65.1259 39.3301 65.0488 39.2309C64.9718 39.1317 64.9151 39.0184 64.8822 38.8975C64.8493 38.7765 64.8407 38.6503 64.857 38.5261C64.8732 38.4019 64.914 38.282 64.9769 38.1733C65.0398 38.0647 65.1237 37.9694 65.2237 37.8929C65.3238 37.8165 65.438 37.7603 65.5599 37.7276C65.6819 37.695 65.8091 37.6865 65.9343 37.7026L76.489 39.0591Z" fill="black"/>
<path d="M61.3809 24.6452C61.3809 24.6452 64.2354 20.0615 65.9641 18.7494C67.2082 17.8055 68.7459 17.7254 69.3957 18.5691C70.0455 19.4128 69.5632 20.8641 68.3184 21.808C66.5905 23.1178 61.3809 24.6452 61.3809 24.6452Z" fill="#E099ED"/>
<path d="M19.0033 24.6452C19.0033 24.6452 16.1495 20.0615 14.4216 18.7494C13.1768 17.8055 11.6383 17.7254 10.9893 18.5691C10.3402 19.4128 10.8217 20.8641 12.0666 21.808C13.7937 23.1178 19.0033 24.6452 19.0033 24.6452Z" fill="#E099ED"/>
<path d="M61.3809 24.6452C61.3809 24.6452 64.2354 20.0615 65.9641 18.7494C67.2082 17.8055 68.7459 17.7254 69.3957 18.5691C70.0455 19.4128 69.5632 20.8641 68.3184 21.808C66.5905 23.1178 61.3809 24.6452 61.3809 24.6452ZM63.0696 23.3657C63.9222 23.0805 64.9808 22.703 65.9485 22.2943C66.7369 21.9603 67.4611 21.6177 67.9058 21.2766C68.7185 20.6605 69.034 19.7135 68.6104 19.1619C68.1869 18.6103 67.1824 18.6639 66.3697 19.28C65.9211 19.6203 65.3973 20.2239 64.8657 20.8905C64.2158 21.7093 63.5707 22.6245 63.0696 23.3657Z" fill="black"/>
<path d="M19.0033 24.6452C19.0033 24.6452 16.1495 20.0615 14.4216 18.7494C13.1768 17.8055 11.6383 17.7254 10.9893 18.5691C10.3402 19.4128 10.8217 20.8641 12.0666 21.808C13.7937 23.1178 19.0033 24.6452 19.0033 24.6452ZM17.3145 23.3657C16.4635 23.0805 15.4042 22.703 14.4365 22.2943C13.6481 21.9603 12.9239 21.6177 12.4792 21.2766C11.6665 20.6605 11.351 19.7135 11.7745 19.1619C12.1981 18.6103 13.2034 18.6639 14.0161 19.28C14.4647 19.6203 14.9892 20.2239 15.5201 20.8905C16.1691 21.7093 16.8135 22.6245 17.3145 23.3657Z" fill="black"/>
</g>
<defs>
<clipPath id="clip0_458_15257">
<rect width="78" height="81" fill="white"/>
</clipPath>
</defs>
</svg>
