<svg width="104" height="105" viewBox="0 0 104 105" fill="none" xmlns="http://www.w3.org/2000/svg">
<mask id="mask0_1_78691" style="mask-type:luminance" maskUnits="userSpaceOnUse" x="0" y="0" width="104" height="105">
<path d="M104 0.790527H0V104.791H104V0.790527Z" fill="white"/>
</mask>
<g mask="url(#mask0_1_78691)">
<path fill-rule="evenodd" clip-rule="evenodd" d="M72.8945 98.8667C72.8945 98.8667 73.8248 96.066 74.6417 91.6496C75.2522 88.3632 75.8008 84.1829 75.8674 79.595L81.3029 74.239C81.6291 73.9167 81.8198 73.482 81.8358 73.0237C81.8519 72.5655 81.6921 72.1184 81.3893 71.7742C81.2104 71.5703 80.9913 71.4056 80.7458 71.2904C80.5004 71.1752 80.2337 71.1119 79.9626 71.1045C79.6915 71.0971 79.4218 71.1458 79.1704 71.2476C78.919 71.3493 78.6914 71.5018 78.5017 71.6957L75.8731 74.3778V58.9427H88.5346L88.5309 74.9067V79.9137C88.5316 81.1291 88.2877 82.3322 87.8137 83.4513C87.3397 84.5704 86.6453 85.5827 85.7718 86.4278L72.8945 98.8667Z" fill="#F4F4F4"/>
<path fill-rule="evenodd" clip-rule="evenodd" d="M35.5439 30.8252H84.0079C84.5442 30.8277 85.0576 31.0425 85.4359 31.4225C85.8142 31.8026 86.0266 32.317 86.0266 32.8532V48.4355C86.0273 48.9726 85.8149 49.488 85.4361 49.8687C85.0573 50.2493 84.5429 50.4642 84.0059 50.4661H67.8963V39.8581H61.5523V50.4661H38.2921V39.8581H35.5439V30.8252Z" fill="#F4F4F4"/>
<path fill-rule="evenodd" clip-rule="evenodd" d="M18.2109 66.5211H20.9763V73.4345H28.223V79.1254H18.2109V66.5211Z" fill="#F4F4F4"/>
<path fill-rule="evenodd" clip-rule="evenodd" d="M33.1924 26.7323H40.5764V30.8257H33.1924V26.7323Z" fill="#F4F4F4"/>
<path fill-rule="evenodd" clip-rule="evenodd" d="M62.9238 26.7323H70.0848V30.8257H62.9238V26.7323Z" fill="#F4F4F4"/>
<path d="M92.2769 89.0657C91.7471 89.0672 91.2297 89.2255 90.7898 89.5207C90.3499 89.8159 90.0073 90.2348 89.8053 90.7245C89.6032 91.2142 89.5507 91.7528 89.6544 92.2723C89.7581 92.7918 90.0134 93.269 90.388 93.6436C90.7626 94.0182 91.2397 94.2734 91.7592 94.3771C92.2787 94.4808 92.8173 94.4283 93.307 94.2263C93.7967 94.0242 94.2156 93.6816 94.5108 93.2418C94.8061 92.8019 94.9644 92.2844 94.9658 91.7547C94.9659 91.4015 94.8964 91.0518 94.7613 90.7256C94.6262 90.3993 94.4281 90.1029 94.1784 89.8531C93.9287 89.6034 93.6322 89.4054 93.306 89.2703C92.9797 89.1352 92.63 89.0657 92.2769 89.0657ZM92.2769 90.1505C92.5936 90.1534 92.9024 90.2501 93.1643 90.4282C93.4262 90.6064 93.6296 90.8581 93.7487 91.1516C93.8678 91.4451 93.8974 91.7673 93.8338 92.0776C93.7701 92.3879 93.6161 92.6724 93.391 92.8953C93.1659 93.1182 92.88 93.2695 92.5691 93.3301C92.2582 93.3908 91.9363 93.3581 91.6439 93.2361C91.3516 93.1141 91.1019 92.9084 90.9263 92.6447C90.7507 92.3811 90.657 92.0714 90.6571 91.7547C90.6581 91.543 90.7008 91.3335 90.7828 91.1384C90.8647 90.9432 90.9843 90.766 91.1347 90.6171C91.2852 90.4681 91.4634 90.3502 91.6594 90.2702C91.8554 90.1901 92.0652 90.1494 92.2769 90.1505Z" fill="#0E1B56"/>
<path d="M24.6322 87.5203C24.1805 87.5213 23.7334 87.6112 23.3165 87.785C22.8995 87.9587 22.5209 88.2129 22.2022 88.533C21.8835 88.8531 21.631 89.2328 21.4591 89.6505C21.2871 90.0682 21.1992 90.5157 21.2002 90.9674C21.1995 91.4183 21.2878 91.8649 21.4601 92.2816C21.6323 92.6983 21.8851 93.0769 22.2039 93.3957C22.5227 93.7145 22.9013 93.9673 23.318 94.1396C23.7347 94.3118 24.1813 94.4001 24.6322 94.3994C25.0831 94.4 25.5296 94.3117 25.9463 94.1394C26.363 93.9672 26.7416 93.7144 27.0604 93.3956C27.3792 93.0768 27.632 92.6982 27.8042 92.2815C27.9765 91.8648 28.0648 91.4183 28.0642 90.9674C28.0661 90.0552 27.7057 89.1796 27.062 88.5331C26.4184 87.8867 25.5444 87.5224 24.6322 87.5203ZM24.6322 88.59C25.2604 88.5931 25.8617 88.8451 26.3045 89.2907C26.7473 89.7363 26.9954 90.3392 26.9946 90.9674C26.9947 91.2776 26.9337 91.5849 26.815 91.8715C26.6963 92.1582 26.5223 92.4186 26.3029 92.638C26.0835 92.8573 25.823 93.0313 25.5364 93.1499C25.2497 93.2685 24.9424 93.3295 24.6322 93.3292C24.322 93.3293 24.0149 93.2683 23.7283 93.1496C23.4417 93.0309 23.1813 92.857 22.962 92.6376C22.7426 92.4183 22.5687 92.1579 22.45 91.8713C22.3313 91.5847 22.2703 91.2776 22.2704 90.9674C22.2695 90.3393 22.5176 89.7365 22.9603 89.2909C23.4029 88.8453 24.0041 88.5933 24.6322 88.59Z" fill="#0E1B56"/>
<path d="M70.392 6.2547C69.9675 6.25524 69.5474 6.33949 69.1555 6.50261C68.7636 6.66574 68.4078 6.90454 68.1083 7.20535C67.8089 7.50616 67.5717 7.86307 67.4103 8.25566C67.249 8.64825 67.1666 9.06881 67.168 9.49326C67.168 11.2852 68.6094 12.7469 70.392 12.7469C72.1745 12.7469 73.616 11.2852 73.616 9.49326C73.6174 9.06881 73.535 8.64825 73.3736 8.25566C73.2123 7.86307 72.9751 7.50616 72.6756 7.20535C72.3762 6.90454 72.0203 6.66574 71.6285 6.50261C71.2366 6.33949 70.8164 6.25524 70.392 6.2547ZM70.392 7.32434C70.9652 7.32654 71.5141 7.55623 71.9181 7.96292C72.322 8.36961 72.548 8.92004 72.5463 9.49326C72.5481 10.0666 72.3222 10.6171 71.9182 11.0239C71.5143 11.4307 70.9653 11.6605 70.392 11.6627C69.8186 11.6606 69.2696 11.4309 68.8656 11.0241C68.4616 10.6173 68.2357 10.0666 68.2376 9.49326C68.2358 8.92 68.4618 8.36949 68.8658 7.96277C69.2697 7.55604 69.8187 7.32641 70.392 7.32434Z" fill="#0E1B56"/>
<path d="M94.1629 23.4886C94.0179 23.4908 93.8794 23.5495 93.7768 23.6521C93.6742 23.7546 93.6156 23.8931 93.6133 24.0382C93.6163 24.1816 93.6756 24.3181 93.7785 24.4182C93.8813 24.5182 94.0194 24.5737 94.1629 24.5728H95.738C95.8083 24.573 95.878 24.5594 95.943 24.5326C96.008 24.5059 96.0671 24.4665 96.1168 24.4168C96.1665 24.3671 96.2059 24.3081 96.2328 24.2431C96.2596 24.1781 96.2733 24.1085 96.2731 24.0382C96.2741 23.8946 96.2185 23.7565 96.1183 23.6536C96.0182 23.5507 95.8815 23.4914 95.738 23.4886H94.1629Z" fill="#0E1B56"/>
<path d="M88.8148 23.4886C88.6714 23.4916 88.5349 23.5509 88.4349 23.6538C88.3348 23.7566 88.2793 23.8947 88.2803 24.0382C88.2801 24.1085 88.2938 24.1781 88.3206 24.2431C88.3474 24.3081 88.3868 24.3671 88.4366 24.4168C88.4863 24.4665 88.5454 24.5059 88.6104 24.5326C88.6754 24.5594 88.7451 24.573 88.8154 24.5728H90.3904C90.5339 24.5737 90.672 24.5182 90.7749 24.4182C90.8777 24.3181 90.9371 24.1816 90.9401 24.0382C90.9378 23.8931 90.8792 23.7546 90.7766 23.6521C90.674 23.5495 90.5355 23.4908 90.3904 23.4886H88.8148Z" fill="#0E1B56"/>
<path d="M92.2768 25.3902C92.2065 25.39 92.1368 25.4036 92.0718 25.4304C92.0068 25.4572 91.9478 25.4966 91.898 25.5462C91.8482 25.5959 91.8088 25.6549 91.7819 25.7198C91.755 25.7848 91.7411 25.8544 91.7412 25.9247V27.5149C91.7411 27.5852 91.755 27.6548 91.7819 27.7197C91.8088 27.7846 91.8483 27.8436 91.898 27.8932C91.9478 27.9428 92.0069 27.9821 92.0719 28.0089C92.1369 28.0356 92.2065 28.0492 92.2768 28.0489C92.347 28.0492 92.4166 28.0356 92.4815 28.0088C92.5464 27.9821 92.6054 27.9428 92.655 27.8931C92.7047 27.8435 92.744 27.7845 92.7708 27.7196C92.7975 27.6547 92.8111 27.5851 92.8109 27.5149V25.9247C92.8111 25.8545 92.7974 25.785 92.7706 25.72C92.7439 25.6551 92.7045 25.5961 92.6549 25.5465C92.6053 25.4968 92.5464 25.4574 92.4815 25.4306C92.4166 25.4038 92.347 25.39 92.2768 25.3902Z" fill="#0E1B56"/>
<path d="M92.2768 20.0118C92.2065 20.0116 92.1369 20.0253 92.0718 20.0521C92.0068 20.0788 91.9478 20.1182 91.898 20.1679C91.8482 20.2175 91.8088 20.2765 91.7819 20.3415C91.755 20.4064 91.7411 20.4761 91.7412 20.5464V22.1365C91.7411 22.2069 91.7548 22.2765 91.7817 22.3415C91.8086 22.4065 91.8481 22.4655 91.8978 22.5152C91.9476 22.5649 92.0067 22.6042 92.0718 22.631C92.1368 22.6577 92.2065 22.6714 92.2768 22.6711C92.347 22.6713 92.4166 22.6576 92.4815 22.6308C92.5465 22.604 92.6054 22.5646 92.6551 22.515C92.7047 22.4653 92.744 22.4062 92.7708 22.3413C92.7975 22.2764 92.8111 22.2068 92.8109 22.1365V20.5464C92.8111 20.4762 92.7974 20.4066 92.7706 20.3417C92.7439 20.2768 92.7045 20.2178 92.6549 20.1681C92.6053 20.1184 92.5464 20.0791 92.4815 20.0522C92.4166 20.0254 92.347 20.0117 92.2768 20.0118Z" fill="#0E1B56"/>
<path d="M49.6527 87.5203C49.5824 87.5201 49.5128 87.5338 49.4478 87.5606C49.3828 87.5874 49.3238 87.6268 49.2741 87.6766C49.2244 87.7263 49.185 87.7854 49.1583 87.8504C49.1315 87.9154 49.1179 87.985 49.1182 88.0553C49.1179 88.1256 49.1315 88.1953 49.1583 88.2602C49.1851 88.3252 49.2244 88.3843 49.2741 88.434C49.3238 88.4836 49.3829 88.523 49.4478 88.5498C49.5128 88.5765 49.5825 88.5902 49.6527 88.5899H50.9444C51.0147 88.5902 51.0844 88.5765 51.1494 88.5498C51.2144 88.523 51.2735 88.4837 51.3232 88.434C51.3729 88.3843 51.4123 88.3253 51.4392 88.2603C51.466 88.1953 51.4797 88.1256 51.4795 88.0553C51.4797 87.985 51.466 87.9153 51.4392 87.8503C51.4124 87.7853 51.373 87.7263 51.3232 87.6765C51.2735 87.6268 51.2144 87.5874 51.1494 87.5606C51.0844 87.5338 51.0147 87.5201 50.9444 87.5203H49.6527Z" fill="#0E1B56"/>
<path d="M45.3002 87.5203C45.2299 87.5201 45.1602 87.5338 45.0953 87.5606C45.0303 87.5874 44.9712 87.6268 44.9216 87.6766C44.8719 87.7263 44.8325 87.7854 44.8058 87.8504C44.779 87.9154 44.7654 87.985 44.7656 88.0553C44.7654 88.1256 44.779 88.1953 44.8058 88.2602C44.8325 88.3252 44.8719 88.3843 44.9216 88.434C44.9713 88.4836 45.0303 88.523 45.0953 88.5498C45.1603 88.5765 45.2299 88.5902 45.3002 88.5899H46.5929C46.6632 88.5902 46.7329 88.5765 46.7979 88.5498C46.8629 88.523 46.922 88.4837 46.9717 88.434C47.0214 88.3843 47.0608 88.3253 47.0877 88.2603C47.1145 88.1953 47.1282 88.1256 47.128 88.0553C47.1282 87.985 47.1145 87.9153 47.0877 87.8503C47.0609 87.7853 47.0215 87.7263 46.9717 87.6765C46.922 87.6268 46.8629 87.5874 46.7979 87.5606C46.7329 87.5338 46.6632 87.5201 46.5929 87.5203H45.3002Z" fill="#0E1B56"/>
<path d="M48.1219 89.0657C48.0517 89.0655 47.9821 89.0792 47.9172 89.106C47.8523 89.1328 47.7933 89.1722 47.7437 89.2219C47.694 89.2716 47.6547 89.3306 47.628 89.3955C47.6012 89.4605 47.5876 89.5301 47.5879 89.6003V90.893C47.5878 90.9632 47.6015 91.0326 47.6283 91.0975C47.6551 91.1623 47.6944 91.2212 47.744 91.2708C47.7937 91.3203 47.8526 91.3596 47.9174 91.3864C47.9823 91.4131 48.0518 91.4267 48.1219 91.4265C48.192 91.4266 48.2615 91.4129 48.3263 91.3861C48.3911 91.3593 48.4499 91.32 48.4995 91.2705C48.5491 91.2209 48.5885 91.1621 48.6153 91.0973C48.6422 91.0325 48.656 90.9631 48.656 90.893V89.6003C48.6561 89.53 48.6423 89.4603 48.6155 89.3953C48.5886 89.3303 48.5491 89.2713 48.4993 89.2216C48.4496 89.172 48.3905 89.1326 48.3254 89.1059C48.2604 89.0791 48.1907 89.0655 48.1204 89.0657H48.1219Z" fill="#0E1B56"/>
<path d="M48.1219 84.6832C48.0517 84.6829 47.9821 84.6965 47.9171 84.7233C47.8522 84.7501 47.7932 84.7895 47.7435 84.8392C47.6939 84.8889 47.6545 84.9479 47.6278 85.0129C47.6011 85.0779 47.5876 85.1475 47.5879 85.2177V86.5099C47.5872 86.6531 47.6428 86.7909 47.7427 86.8935C47.8425 86.9961 47.9788 87.0554 48.1219 87.0585C48.2651 87.0553 48.4012 86.996 48.5011 86.8934C48.6009 86.7908 48.6566 86.6531 48.656 86.5099V85.2177C48.6563 85.1474 48.6426 85.0776 48.6157 85.0126C48.5889 84.9476 48.5495 84.8885 48.4997 84.8388C48.4499 84.7891 48.3907 84.7497 48.3256 84.723C48.2605 84.6963 48.1907 84.6828 48.1204 84.6832H48.1219Z" fill="#0E1B56"/>
<path d="M16.0771 13.5051C16.0068 13.5048 15.9371 13.5184 15.8721 13.5452C15.8071 13.572 15.748 13.6113 15.6983 13.661C15.6486 13.7107 15.6091 13.7697 15.5823 13.8347C15.5555 13.8997 15.5418 13.9693 15.542 14.0396C15.5418 14.11 15.5555 14.1796 15.5823 14.2446C15.6091 14.3097 15.6485 14.3687 15.6983 14.4184C15.748 14.4682 15.807 14.5076 15.8721 14.5344C15.9371 14.5612 16.0067 14.5749 16.0771 14.5747H17.6646C17.735 14.5749 17.8046 14.5612 17.8696 14.5344C17.9347 14.5076 17.9937 14.4682 18.0434 14.4184C18.0932 14.3687 18.1326 14.3097 18.1594 14.2446C18.1862 14.1796 18.1999 14.11 18.1997 14.0396C18.1999 13.9693 18.1862 13.8997 18.1594 13.8347C18.1326 13.7697 18.0932 13.7107 18.0434 13.661C17.9937 13.6113 17.9346 13.572 17.8696 13.5452C17.8046 13.5184 17.7349 13.5048 17.6646 13.5051H16.0771Z" fill="#0E1B56"/>
<path d="M10.7284 13.5051C10.6581 13.5048 10.5885 13.5184 10.5235 13.5452C10.4585 13.572 10.3994 13.6113 10.3497 13.661C10.2999 13.7107 10.2605 13.7697 10.2337 13.8347C10.2069 13.8997 10.1932 13.9693 10.1934 14.0396C10.1932 14.11 10.2069 14.1796 10.2337 14.2446C10.2605 14.3097 10.2999 14.3687 10.3496 14.4184C10.3994 14.4682 10.4584 14.5076 10.5234 14.5344C10.5884 14.5612 10.6581 14.5749 10.7284 14.5747H12.3181C12.3884 14.5749 12.458 14.5612 12.523 14.5344C12.588 14.5076 12.647 14.4681 12.6967 14.4184C12.7464 14.3687 12.7858 14.3096 12.8125 14.2446C12.8393 14.1796 12.8529 14.1099 12.8526 14.0396C12.8528 13.9694 12.8392 13.8998 12.8124 13.8348C12.7856 13.7699 12.7462 13.7109 12.6965 13.6612C12.6469 13.6115 12.5878 13.5721 12.5229 13.5453C12.4579 13.5185 12.3883 13.5049 12.3181 13.5051H10.7284Z" fill="#0E1B56"/>
<path d="M14.1904 15.3916C14.0469 15.3946 13.9103 15.4539 13.8102 15.5568C13.7101 15.6596 13.6544 15.7977 13.6553 15.9412V17.5309C13.6551 17.6012 13.6689 17.6708 13.6957 17.7357C13.7226 17.8007 13.762 17.8597 13.8117 17.9094C13.8614 17.959 13.9205 17.9984 13.9855 18.0252C14.0505 18.052 14.1201 18.0656 14.1904 18.0654C14.3338 18.0664 14.4719 18.0109 14.5748 17.9109C14.6776 17.8108 14.737 17.6743 14.74 17.5309V15.9412C14.7377 15.7962 14.6791 15.6577 14.5765 15.5551C14.4739 15.4525 14.3354 15.3939 14.1904 15.3916Z" fill="#0E1B56"/>
<path d="M14.1904 10.0133C14.12 10.0131 14.0504 10.0268 13.9853 10.0536C13.9203 10.0804 13.8613 10.1198 13.8115 10.1695C13.7618 10.2192 13.7224 10.2783 13.6956 10.3433C13.6688 10.4083 13.6551 10.478 13.6553 10.5483V12.1525C13.6551 12.2229 13.6688 12.2925 13.6956 12.3575C13.7224 12.4226 13.7618 12.4816 13.8115 12.5314C13.8613 12.5811 13.9203 12.6205 13.9853 12.6473C14.0504 12.6741 14.12 12.6878 14.1904 12.6876C14.3339 12.6886 14.4721 12.633 14.575 12.5329C14.6778 12.4327 14.7371 12.2961 14.74 12.1525V10.5483C14.7371 10.4048 14.6778 10.2682 14.575 10.168C14.4721 10.0679 14.3339 10.0123 14.1904 10.0133Z" fill="#0E1B56"/>
<path d="M10.9365 84.4456C10.8663 84.4452 10.7967 84.4588 10.7318 84.4854C10.6668 84.512 10.6078 84.5513 10.5581 84.6008C10.5084 84.6503 10.4689 84.7092 10.442 84.774C10.4151 84.8389 10.4013 84.9084 10.4014 84.9786C10.4003 85.1222 10.4558 85.2605 10.556 85.3635C10.6561 85.4665 10.7928 85.5259 10.9365 85.5287H10.9812C11.1247 85.5257 11.2613 85.4663 11.3614 85.3633C11.4614 85.2604 11.5169 85.1221 11.5157 84.9786C11.516 84.9083 11.5023 84.8388 11.4755 84.7738C11.4487 84.7089 11.4093 84.6499 11.3596 84.6003C11.3099 84.5507 11.2509 84.5113 11.186 84.4846C11.121 84.4579 11.0514 84.4442 10.9812 84.4445L10.9365 84.4456Z" fill="#0E1B56"/>
<path d="M86.2597 8.95868C86.1894 8.95841 86.1197 8.97204 86.0547 8.9988C85.9897 9.02556 85.9306 9.06492 85.8809 9.11461C85.8312 9.16429 85.7918 9.22333 85.7649 9.28831C85.7381 9.35329 85.7244 9.42294 85.7246 9.49324C85.7244 9.56357 85.7381 9.63324 85.7649 9.69825C85.7917 9.76326 85.8311 9.82233 85.8809 9.87206C85.9306 9.92179 85.9897 9.9612 86.0547 9.98801C86.1197 10.0148 86.1894 10.0285 86.2597 10.0283H86.3044C86.3747 10.0285 86.4444 10.0148 86.5093 9.988C86.5743 9.96118 86.6334 9.92176 86.683 9.87203C86.7327 9.82229 86.7721 9.76322 86.7989 9.69821C86.8256 9.6332 86.8392 9.56354 86.839 9.49324C86.8392 9.42297 86.8256 9.35333 86.7988 9.28835C86.7721 9.22337 86.7327 9.16433 86.683 9.11464C86.6333 9.06495 86.5743 9.02558 86.5093 8.99881C86.4443 8.97205 86.3747 8.95841 86.3044 8.95868H86.2597Z" fill="#0E1B56"/>
<path d="M90.9242 47.7044C90.7808 47.7074 90.6443 47.7668 90.5442 47.8696C90.4442 47.9725 90.3887 48.1106 90.3897 48.254C90.3893 48.3244 90.4029 48.3941 90.4296 48.4592C90.4564 48.5242 90.4957 48.5834 90.5454 48.6332C90.5951 48.683 90.6542 48.7224 90.7192 48.7493C90.7842 48.7761 90.8539 48.7899 90.9242 48.7896H90.9689C91.0393 48.79 91.1091 48.7764 91.1742 48.7496C91.2393 48.7228 91.2985 48.6833 91.3483 48.6335C91.398 48.5837 91.4374 48.5245 91.4641 48.4594C91.4909 48.3942 91.5044 48.3245 91.504 48.254C91.505 48.1106 91.4495 47.9725 91.3494 47.8696C91.2494 47.7668 91.1129 47.7074 90.9695 47.7044H90.9242Z" fill="#0E1B56"/>
<path d="M8.27718 47.7044C8.13211 47.7067 7.99363 47.7653 7.89104 47.8679C7.78845 47.9705 7.72982 48.109 7.72754 48.254C7.73014 48.3977 7.78932 48.5346 7.89224 48.6349C7.99515 48.7351 8.13348 48.7908 8.27718 48.7896H8.3219C8.39222 48.7898 8.46188 48.776 8.52687 48.7491C8.59185 48.7223 8.65089 48.6828 8.70056 48.633C8.75024 48.5832 8.78959 48.5241 8.81635 48.4591C8.8431 48.3941 8.85673 48.3244 8.85646 48.254C8.85744 48.1106 8.80192 47.9725 8.70189 47.8696C8.60185 47.7668 8.46534 47.7074 8.3219 47.7044H8.27718Z" fill="#0E1B56"/>
<path d="M15.3637 30.3671C15.0379 30.367 14.7153 30.4312 14.4142 30.5558C14.1132 30.6805 13.8397 30.8632 13.6093 31.0936C13.3789 31.324 13.1962 31.5975 13.0715 31.8985C12.9469 32.1996 12.8827 32.5222 12.8828 32.848V48.4329C12.8828 49.0923 13.1437 49.7249 13.6085 50.1926C14.0734 50.6602 14.7044 50.925 15.3637 50.9289H31.9434C32.0653 50.9281 32.1821 50.8793 32.2683 50.7931C32.3545 50.7069 32.4033 50.5902 32.4041 50.4682V40.3209H37.8267V50.4682C37.8275 50.5902 37.8763 50.7069 37.9625 50.7931C38.0488 50.8793 38.1655 50.9281 38.2874 50.9289H61.5522C61.6741 50.9281 61.7909 50.8793 61.8771 50.7931C61.9633 50.7069 62.0121 50.5902 62.0129 50.4682V40.3209H67.436V50.4682C67.4368 50.5901 67.4856 50.7067 67.5717 50.7929C67.6578 50.8791 67.7744 50.928 67.8962 50.9289H84.0006C84.6601 50.9251 85.2912 50.6604 85.7561 50.1927C86.2211 49.7251 86.4821 49.0924 86.4821 48.4329V32.848C86.4819 32.19 86.2204 31.559 85.7551 31.0937C85.2897 30.6285 84.6586 30.3671 84.0006 30.3671H15.3637ZM15.3637 31.288H84.0037C84.2088 31.2873 84.4119 31.3272 84.6015 31.4054C84.7911 31.4835 84.9634 31.5984 85.1084 31.7434C85.2533 31.8884 85.3682 32.0606 85.4464 32.2502C85.5245 32.4398 85.5644 32.643 85.5637 32.848V48.4329C85.5647 48.6388 85.5251 48.8427 85.4472 49.0333C85.3693 49.2238 85.2547 49.3971 85.1098 49.5433C84.965 49.6895 84.7927 49.8058 84.603 49.8854C84.4132 49.9651 84.2095 50.0065 84.0037 50.0075H68.3575V39.8602C68.3566 39.7383 68.3078 39.6217 68.2216 39.5355C68.1353 39.4494 68.0186 39.4007 67.8967 39.4H61.5522C61.4304 39.4008 61.3138 39.4496 61.2277 39.5357C61.1416 39.6218 61.0928 39.7384 61.092 39.8602V50.0075H38.7476V39.8602C38.7468 39.7383 38.698 39.6217 38.6117 39.5355C38.5255 39.4494 38.4088 39.4007 38.2869 39.4H31.9429C31.8211 39.401 31.7045 39.4497 31.6183 39.5358C31.5322 39.6219 31.4833 39.7384 31.4822 39.8602V50.0075H15.3622C14.9465 50.0054 14.5487 49.8384 14.2562 49.5432C13.9637 49.2479 13.8004 48.8486 13.8022 48.4329V32.848C13.8015 32.643 13.8414 32.4398 13.9195 32.2502C13.9977 32.0606 14.1126 31.8884 14.2575 31.7434C14.4025 31.5984 14.5748 31.4835 14.7644 31.4054C14.954 31.3272 15.1571 31.2873 15.3622 31.288H15.3637Z" fill="#0E1B56"/>
<path d="M14.9033 50.0075V77.2555C14.903 77.8733 15.1478 78.4659 15.584 78.9034C15.8001 79.1207 16.0571 79.293 16.3403 79.4104C16.6234 79.5278 16.927 79.5878 17.2334 79.5872H57.2568V78.6657H17.2334C17.0482 78.6655 16.8649 78.6286 16.694 78.5572C16.5231 78.4858 16.368 78.3813 16.2376 78.2497C16.1061 78.1194 16.0016 77.9644 15.9302 77.7936C15.8588 77.6228 15.8219 77.4396 15.8216 77.2544V50.9289H31.4804V59.382C31.479 59.6641 31.5332 59.9436 31.64 60.2047C31.7468 60.4657 31.9041 60.7031 32.1029 60.9033C32.3016 61.1034 32.5379 61.2624 32.7982 61.371C33.0585 61.4796 33.3376 61.5359 33.6197 61.5364H36.6066C36.8886 61.5357 37.1677 61.4794 37.4279 61.3707C37.6881 61.262 37.9244 61.1031 38.1231 60.903C38.3218 60.7029 38.4791 60.4655 38.5859 60.2045C38.6928 59.9435 38.7471 59.664 38.7458 59.382V50.9289H61.0902V58.9369H62.0112V50.0075H37.8265V59.382C37.8277 59.543 37.7972 59.7027 37.7366 59.8518C37.676 60.001 37.5866 60.1367 37.4734 60.2513C37.3603 60.3658 37.2257 60.4569 37.0773 60.5193C36.9289 60.5817 36.7696 60.6142 36.6086 60.615H33.6218C33.4607 60.6144 33.3014 60.582 33.1529 60.5197C33.0044 60.4574 32.8697 60.3663 32.7565 60.2517C32.6433 60.1371 32.5539 60.0013 32.4934 59.8521C32.4329 59.7028 32.4025 59.5431 32.4039 59.382V50.0075H14.9033ZM67.4363 50.0075V58.9364H68.3572V50.9289H83.5412V58.9369H84.4627V50.0075H67.4363Z" fill="#0E1B56"/>
<path d="M36.3713 15.5403C35.6971 15.5407 35.0295 15.6739 34.4069 15.9325C33.7842 16.1911 33.2186 16.5699 32.7425 17.0473C32.2664 17.5246 31.8891 18.0912 31.6321 18.7145C31.3752 19.3379 31.2437 20.0058 31.2451 20.68V26.7271H32.1666V20.68C32.1666 18.34 34.0453 16.4462 36.3713 16.4462H62.9953C65.3207 16.4462 67.1995 18.3395 67.2 20.68V26.7271H68.1204V20.68C68.1219 20.0058 67.9905 19.338 67.7336 18.7147C67.4768 18.0914 67.0996 17.5249 66.6235 17.0475C66.1475 16.5701 65.582 16.1913 64.9595 15.9327C64.3369 15.674 63.6694 15.5407 62.9953 15.5403H36.3713Z" fill="#0E1B56"/>
<path d="M37.8719 21.4975C37.7498 21.4979 37.6328 21.5465 37.5465 21.6329C37.4602 21.7192 37.4115 21.8361 37.4111 21.9582V26.7271H38.3326V22.4043H61.0327V27.1883H61.9531V21.9582C61.9529 21.8361 61.9044 21.7191 61.8181 21.6327C61.7319 21.5464 61.6149 21.4977 61.4929 21.4975H37.8719Z" fill="#0E1B56"/>
<path d="M15.3643 66.0672V66.9741H20.5195V73.4345C20.5201 73.5566 20.5688 73.6734 20.6551 73.7597C20.7414 73.846 20.8582 73.8947 20.9803 73.8953H27.7694V79.1265H28.6757V73.4345C28.6748 73.3127 28.626 73.1962 28.5399 73.11C28.4538 73.0238 28.3373 72.9749 28.2155 72.9738H21.4254V66.5258C21.4267 66.4663 21.4162 66.407 21.3945 66.3516C21.3728 66.2961 21.3403 66.2455 21.2989 66.2026C21.2575 66.1598 21.208 66.1256 21.1533 66.102C21.0986 66.0784 21.0398 66.0658 20.9803 66.0651L15.3643 66.0672Z" fill="#0E1B56"/>
<path d="M29.2849 26.2815C29.2253 26.2801 29.166 26.2906 29.1105 26.3123C29.055 26.334 29.0043 26.3665 28.9614 26.408C28.9186 26.4494 28.8844 26.499 28.8608 26.5538C28.8373 26.6086 28.8248 26.6675 28.8242 26.7271V30.8273C28.8248 30.9493 28.8735 31.0662 28.9598 31.1525C29.0461 31.2388 29.1629 31.2875 29.2849 31.288C29.4068 31.2872 29.5235 31.2384 29.6096 31.1521C29.6958 31.0659 29.7445 30.9492 29.7451 30.8273V27.1873H40.115V30.8273C40.1157 30.9493 40.1644 31.0661 40.2507 31.1523C40.3369 31.2386 40.4537 31.2873 40.5757 31.288C40.6976 31.2873 40.8144 31.2386 40.9005 31.1523C40.9867 31.066 41.0354 30.9492 41.0359 30.8273V26.7271C41.0353 26.6675 41.0229 26.6086 40.9994 26.5539C40.9758 26.4992 40.9417 26.4496 40.8989 26.4082C40.8561 26.3667 40.8055 26.3342 40.75 26.3124C40.6945 26.2907 40.6353 26.2802 40.5757 26.2815H29.2849Z" fill="#0E1B56"/>
<path d="M58.7898 26.2815C58.7302 26.2802 58.671 26.2908 58.6155 26.3126C58.5601 26.3343 58.5095 26.3669 58.4666 26.4083C58.4238 26.4497 58.3896 26.4992 58.366 26.554C58.3424 26.6087 58.3298 26.6675 58.3291 26.7271V30.8273C58.3299 30.9492 58.3787 31.066 58.4649 31.1522C58.5512 31.2384 58.6679 31.2872 58.7898 31.288C58.9118 31.2873 59.0286 31.2386 59.1148 31.1523C59.2011 31.0661 59.2499 30.9493 59.2505 30.8273V27.1873H69.6204V30.8273C69.6211 30.9493 69.6698 31.0661 69.7561 31.1523C69.8423 31.2386 69.9591 31.2873 70.0811 31.288C70.203 31.2872 70.3197 31.2384 70.406 31.1522C70.4922 31.066 70.541 30.9492 70.5418 30.8273V26.7271C70.5411 26.6675 70.5285 26.6087 70.5049 26.554C70.4813 26.4992 70.4471 26.4497 70.4043 26.4083C70.3615 26.3669 70.3109 26.3343 70.2554 26.3126C70.1999 26.2908 70.1407 26.2802 70.0811 26.2815H58.7898Z" fill="#0E1B56"/>
<path d="M57.1997 58.4908C57.1401 58.4912 57.0811 58.5036 57.0263 58.5271C56.9715 58.5505 56.9219 58.5847 56.8804 58.6275C56.839 58.6703 56.8064 58.721 56.7847 58.7765C56.763 58.8321 56.7526 58.8914 56.754 58.951C56.754 59.4502 56.7982 81.0583 56.7982 81.0577C56.7972 81.9751 56.9809 82.8832 57.3382 83.7281C57.6956 84.5729 58.2193 85.3372 58.8782 85.9754C60.2453 87.2967 72.4539 99.0794 72.5761 99.1979C72.662 99.2803 72.7764 99.3263 72.8954 99.3263C73.0144 99.3263 73.1288 99.2803 73.2146 99.1979C73.7034 98.7258 85.5298 87.2967 86.8979 85.9754C87.5588 85.3379 88.0847 84.574 88.4445 83.7292C88.8043 82.8845 88.9907 81.976 88.9925 81.0577V58.9364C88.9919 58.8768 88.9794 58.8179 88.9559 58.7631C88.9323 58.7083 88.8981 58.6588 88.8553 58.6173C88.8124 58.5758 88.7617 58.5433 88.7062 58.5216C88.6507 58.4999 88.5914 58.4894 88.5318 58.4908H57.1997ZM57.6604 59.3971H88.0721V81.0577C88.0736 81.8505 87.9151 82.6354 87.6061 83.3655C87.2972 84.0956 86.844 84.7558 86.2739 85.3067L72.9037 98.2323C72.2495 97.6005 60.8532 86.5978 59.5173 85.3067C58.9474 84.7557 58.4944 84.0955 58.1855 83.3654C57.8766 82.6353 57.7182 81.8505 57.7197 81.0577C57.7197 81.0577 57.6635 60.7257 57.6604 59.3971Z" fill="#0E1B56"/>
<path d="M72.8738 62.9331C72.8142 62.9317 72.755 62.9422 72.6995 62.9639C72.644 62.9856 72.5933 63.0181 72.5505 63.0595C72.5076 63.1009 72.4734 63.1504 72.4498 63.2051C72.4262 63.2598 72.4138 63.3187 72.4131 63.3782C72.4138 63.5002 72.4625 63.617 72.5488 63.7033C72.635 63.7895 72.7518 63.8383 72.8738 63.839H75.1467C75.2687 63.8384 75.3856 63.7897 75.4719 63.7034C75.5582 63.6171 75.6069 63.5003 75.6074 63.3782C75.6068 63.3186 75.5944 63.2597 75.5708 63.205C75.5473 63.1502 75.5131 63.1007 75.4702 63.0593C75.4273 63.0179 75.3767 62.9854 75.3211 62.9637C75.2656 62.9421 75.2063 62.9317 75.1467 62.9331H72.8738Z" fill="#0E1B56"/>
<path d="M70.0657 62.9331C70.0062 62.9319 69.947 62.9424 69.8916 62.9642C69.8362 62.9859 69.7856 63.0184 69.7428 63.0598C69.7001 63.1012 69.6659 63.1506 69.6423 63.2053C69.6187 63.2599 69.6062 63.3187 69.6055 63.3782C69.6062 63.5001 69.6548 63.6168 69.741 63.7031C69.8271 63.7893 69.9438 63.8381 70.0657 63.839H70.8977C70.9573 63.8382 71.0161 63.8257 71.0708 63.8021C71.1255 63.7785 71.175 63.7443 71.2165 63.7014C71.2579 63.6586 71.2904 63.608 71.3122 63.5525C71.334 63.497 71.3445 63.4378 71.3433 63.3782C71.3443 63.3195 71.3334 63.2611 71.3114 63.2066C71.2893 63.1521 71.2565 63.1026 71.2149 63.0611C71.1734 63.0196 71.1238 62.9868 71.0693 62.9648C71.0148 62.9428 70.9564 62.9321 70.8977 62.9331H70.0657Z" fill="#0E1B56"/>
<path d="M60.6912 62.9331C60.6316 62.9316 60.5723 62.942 60.5167 62.9636C60.4611 62.9853 60.4104 63.0177 60.3676 63.0592C60.3247 63.1006 60.2905 63.1501 60.2669 63.2049C60.2434 63.2597 60.231 63.3186 60.2305 63.3783L60.2606 73.6145C60.2614 73.6739 60.2739 73.7326 60.2974 73.7871C60.321 73.8417 60.3551 73.8911 60.3979 73.9323C60.4406 73.9736 60.4911 74.0061 60.5465 74.0277C60.6018 74.0494 60.6609 74.0598 60.7203 74.0585C60.8423 74.0579 60.9591 74.0091 61.0453 73.9228C61.1316 73.8366 61.1803 73.7198 61.181 73.5978L61.1514 63.8369H67.6587C67.7806 63.8362 67.8973 63.7874 67.9835 63.7012C68.0697 63.6149 68.1183 63.4981 68.1189 63.3762C68.1183 63.3166 68.1058 63.2578 68.0823 63.2031C68.0588 63.1483 68.0246 63.0988 67.9818 63.0574C67.939 63.016 67.8884 62.9835 67.8329 62.9618C67.7774 62.9401 67.7182 62.9297 67.6587 62.9311L60.6912 62.9331Z" fill="#0E1B56"/>
<path d="M60.7361 76.3928C60.6765 76.3915 60.6172 76.402 60.5616 76.4238C60.5061 76.4456 60.4554 76.4782 60.4126 76.5197C60.3697 76.5612 60.3355 76.6108 60.312 76.6656C60.2884 76.7204 60.276 76.7793 60.2754 76.839V79.6745C60.2752 80.4611 60.4375 81.2392 60.752 81.9601C61.0666 82.681 61.5265 83.3293 62.1032 83.8642L72.5765 93.6105C72.6613 93.6894 72.7727 93.7332 72.8885 93.7332C73.0043 93.7332 73.1157 93.6894 73.2005 93.6105L77.5092 89.6138C77.5971 89.5287 77.6478 89.4125 77.6506 89.2902C77.6533 89.168 77.6077 89.0496 77.5238 88.9607C77.4831 88.9173 77.4342 88.8824 77.38 88.8582C77.3257 88.8339 77.2671 88.8206 77.2077 88.8192C77.1482 88.8178 77.0891 88.8283 77.0337 88.85C76.9784 88.8717 76.9279 88.9042 76.8852 88.9456L72.8885 92.6465C72.0289 91.8462 63.7537 84.1528 62.7267 83.197C62.2406 82.7478 61.8525 82.2031 61.5867 81.597C61.3209 80.9908 61.183 80.3364 61.1818 79.6745V76.839C61.183 76.7801 61.1723 76.7216 61.1503 76.6669C61.1283 76.6123 61.0956 76.5627 61.0539 76.521C61.0123 76.4793 60.9627 76.4465 60.9081 76.4245C60.8535 76.4024 60.795 76.3917 60.7361 76.3928Z" fill="#0E1B56"/>
<path d="M85.0408 70.7025C84.9812 70.7031 84.9223 70.7156 84.8676 70.7392C84.8128 70.7628 84.7633 70.797 84.7218 70.8398C84.6804 70.8827 84.6479 70.9333 84.6261 70.9888C84.6044 71.0443 84.5939 71.1036 84.5952 71.1632V79.1857C84.5951 79.9994 84.4275 80.8044 84.1029 81.5505C83.7782 82.2966 83.3034 82.9679 82.7081 83.5225L78.1919 87.7288C78.1476 87.7686 78.1117 87.8167 78.0862 87.8705C78.0608 87.9242 78.0462 87.9825 78.0435 88.0419C78.0407 88.1013 78.0498 88.1607 78.0702 88.2166C78.0906 88.2724 78.1219 88.3237 78.1622 88.3674C78.2457 88.4567 78.3609 88.5099 78.483 88.5154C78.6052 88.5209 78.7247 88.4785 78.8159 88.397L83.3326 84.1923C84.0186 83.5515 84.5651 82.7762 84.9383 81.9148C85.3115 81.0535 85.5032 80.1245 85.5015 79.1857C85.5015 78.9164 85.5015 71.1632 85.5015 71.1632C85.5008 71.0412 85.4521 70.9244 85.3658 70.8382C85.2796 70.7519 85.1628 70.7031 85.0408 70.7025Z" fill="#0E1B56"/>
<path d="M85.0415 67.7613C84.9819 67.7619 84.923 67.7744 84.8683 67.7979C84.8135 67.8214 84.764 67.8555 84.7225 67.8984C84.6811 67.9412 84.6485 67.9918 84.6268 68.0472C84.605 68.1027 84.5945 68.162 84.5958 68.2215V68.4893C84.5945 68.5489 84.605 68.6082 84.6268 68.6637C84.6485 68.7192 84.681 68.7698 84.7225 68.8127C84.7639 68.8555 84.8135 68.8897 84.8682 68.9133C84.923 68.9369 84.9818 68.9494 85.0415 68.95C85.1634 68.9492 85.2801 68.9004 85.3663 68.8142C85.4526 68.728 85.5014 68.6113 85.5022 68.4893V68.2215C85.5016 68.0995 85.4529 67.9827 85.3666 67.8965C85.2803 67.8103 85.1634 67.7617 85.0415 67.7613Z" fill="#0E1B56"/>
<path d="M76.989 62.9331C76.9295 62.9318 76.8702 62.9422 76.8147 62.9639C76.7592 62.9856 76.7086 63.0181 76.6657 63.0595C76.6229 63.1009 76.5887 63.1504 76.5651 63.2051C76.5415 63.2598 76.529 63.3187 76.5283 63.3783C76.5289 63.5003 76.5776 63.6171 76.6639 63.7034C76.7502 63.7897 76.867 63.8384 76.989 63.839H84.5956V66.5279C84.5967 66.6496 84.6456 66.7659 84.7319 66.8517C84.8181 66.9376 84.9347 66.986 85.0563 66.9865C85.1159 66.9859 85.1748 66.9734 85.2296 66.9498C85.2843 66.9262 85.3338 66.892 85.3753 66.8492C85.4167 66.8063 85.4493 66.7557 85.471 66.7002C85.4927 66.6447 85.5033 66.5854 85.502 66.5258V63.3783C85.5029 63.3195 85.4921 63.2611 85.47 63.2066C85.448 63.1521 85.4152 63.1027 85.3736 63.0611C85.332 63.0196 85.2825 62.9868 85.228 62.9649C85.1735 62.9429 85.1151 62.9321 85.0563 62.9331H76.989Z" fill="#0E1B56"/>
<path d="M79.9747 70.6135C79.6492 70.6061 79.3257 70.6656 79.0242 70.7884C78.7226 70.9111 78.4495 71.0944 78.2217 71.327C77.2811 72.2869 73.4845 76.1708 72.859 76.8088C72.2787 76.2769 69.8633 74.0694 69.5455 73.7782C69.1433 73.4104 68.6172 73.2076 68.0721 73.2103C67.527 73.213 67.003 73.421 66.6044 73.7928C66.3918 73.9906 66.2215 74.2296 66.1039 74.4951C65.9862 74.7607 65.9237 75.0473 65.9201 75.3377C65.9164 75.6296 65.971 75.9193 66.0808 76.1897C66.1905 76.4602 66.3532 76.706 66.5592 76.9128C69.5565 79.8971 71.2298 81.5715 72.1003 82.4399C72.3045 82.6404 72.5793 82.7528 72.8655 82.7528C73.1517 82.7528 73.4265 82.6404 73.6307 82.4399C75.3638 80.7317 81.5794 74.6248 81.5799 74.6248C81.9043 74.2992 82.1262 73.8857 82.2182 73.4354C82.3102 72.985 82.2682 72.5176 82.0974 72.0909C81.9267 71.6641 81.6346 71.2968 81.2573 71.0342C80.8801 70.7717 80.4341 70.6254 79.9747 70.6135ZM79.9455 71.5344C80.1455 71.5397 80.3423 71.586 80.5236 71.6703C80.705 71.7547 80.8672 71.8753 81.0001 72.0248C81.2386 72.2974 81.3638 72.6509 81.35 73.0128C81.3361 73.3747 81.1843 73.7176 80.9257 73.9712L72.9921 81.7857C72.9602 81.8167 72.9175 81.834 72.873 81.834C72.8286 81.834 72.7859 81.8167 72.7539 81.7857C71.884 80.9189 70.2096 79.2429 67.2128 76.2592C67.0936 76.1405 66.9993 75.9992 66.9356 75.8435C66.8718 75.6879 66.8398 75.521 66.8415 75.3528C66.845 75.1849 66.8822 75.0194 66.9511 74.8663C67.02 74.7131 67.1191 74.5755 67.2425 74.4615C67.4711 74.2465 67.7724 74.1255 68.0863 74.1227C68.4002 74.1199 68.7036 74.2355 68.9361 74.4464L72.561 77.7745C72.6486 77.8554 72.7643 77.8992 72.8835 77.8964C73.0028 77.8937 73.1163 77.8448 73.2001 77.7599L78.8754 71.9661C79.0146 71.8245 79.1814 71.7131 79.3655 71.6388C79.5496 71.5646 79.7471 71.5291 79.9455 71.5344Z" fill="#0E1B56"/>
</g>
</svg>
