<svg width="200" height="135" viewBox="0 0 200 135" fill="none" xmlns="http://www.w3.org/2000/svg">
<path d="M87.027 59.8066V61.5416H79.2451V59.8066" fill="#F1F3F4"/>
<path d="M79.2451 89.3053V88.4377H87.027V89.3053" fill="#F1F3F4"/>
<path d="M85.2822 61.5416C85.2822 61.5416 88.2343 75.1045 85.2822 87.5755H80.9976C78.0455 75.1045 80.9976 61.5416 80.9976 61.5416H85.2822Z" fill="#FDFDFD"/>
<path d="M80.9978 61.5416C80.9978 61.5416 78.043 75.1045 80.9978 87.5755H85.2904C85.5377 86.5211 85.7425 85.4588 85.9127 84.3964C85.2372 87.426 83.2079 86.2035 82.1893 81.7644C81.2053 77.4374 81.2212 70.0461 81.8835 61.5416H80.9978Z" fill="#F1F3F4"/>
<path d="M85.2822 61.5416C85.9329 64.858 86.3391 68.218 86.4977 71.5943" stroke="#050F65" stroke-linecap="round" stroke-linejoin="round"/>
<path d="M79.2451 61.5416V59.8066" stroke="#050F65" stroke-linecap="round" stroke-linejoin="round"/>
<path d="M87.0269 59.8066V61.5416H83.0801" stroke="#050F65" stroke-linecap="round" stroke-linejoin="round"/>
<path d="M80.9976 87.5755C78.0455 75.1045 80.9976 61.5416 80.9976 61.5416" stroke="#050F65" stroke-linecap="round" stroke-linejoin="round"/>
<path d="M86.487 79.0337C86.331 81.9105 85.9279 84.7684 85.2822 87.5756" stroke="#050F65" stroke-linecap="round" stroke-linejoin="round"/>
<path d="M82.6465 87.5702H87.0268V89.3053" stroke="#050F65" stroke-linecap="round" stroke-linejoin="round"/>
<path d="M79.2451 89.3053V87.5702H80.9898" stroke="#050F65" stroke-linecap="round" stroke-linejoin="round"/>
<path d="M103.891 87.5702H96.1094V89.3053H103.891V87.5702Z" fill="#FDFDFD"/>
<path d="M102.146 61.5416C102.146 61.5416 105.098 75.1045 102.146 87.5755H97.8533C94.8985 75.1045 97.8533 61.5416 97.8533 61.5416H102.146Z" fill="#FDFDFD"/>
<path d="M97.8533 61.5416C97.8533 61.5416 94.8985 75.1045 97.8533 87.5755H102.146C102.393 86.5211 102.598 85.4588 102.768 84.3964C102.093 87.426 100.063 86.2035 99.0448 81.7644C98.0607 77.4374 98.0767 70.0461 98.7389 61.5416H97.8533Z" fill="#F1F3F4"/>
<path d="M102.146 61.5416C102.146 61.5416 105.098 75.1045 102.146 87.5755H97.8533C94.8985 75.1045 97.8533 61.5416 97.8533 61.5416" stroke="#050F65" stroke-linecap="round" stroke-linejoin="round"/>
<path d="M96.1094 59.8066V61.5416H103.891V59.8066" fill="#F1F3F4"/>
<path d="M102.08 61.5416H103.891V59.8066" stroke="#050F65" stroke-linecap="round" stroke-linejoin="round"/>
<path d="M96.1094 59.8066V61.5416H99.5828" stroke="#050F65" stroke-linecap="round" stroke-linejoin="round"/>
<path d="M96.1094 89.3053V88.4377H103.891V89.3053" fill="#F1F3F4"/>
<path d="M96.1094 89.3053V87.5702H103.891V89.3053" stroke="#050F65" stroke-linecap="round" stroke-linejoin="round"/>
<path d="M118.229 87.5702H110.447V89.3053H118.229V87.5702Z" fill="#FDFDFD"/>
<path d="M116.484 61.5416C116.484 61.5416 119.437 75.1045 116.484 87.5755H112.192C109.24 75.1045 112.192 61.5416 112.192 61.5416H116.484Z" fill="#FDFDFD"/>
<path d="M112.192 61.5416C112.192 61.5416 109.24 75.1045 112.192 87.5755H116.484C116.732 86.5211 116.937 85.4588 117.107 84.3964C116.431 87.426 114.402 86.2035 113.383 81.7644C112.399 77.4374 112.415 70.0461 113.078 61.5416H112.192Z" fill="#F1F3F4"/>
<path d="M112.192 87.5755C111.152 83.1818 110.843 78.652 110.883 74.6293" stroke="#050F65" stroke-linecap="round" stroke-linejoin="round"/>
<path d="M110.976 71.5836C111.134 68.2108 111.54 64.8543 112.191 61.5416H116.484C116.484 61.5416 119.436 75.1045 116.484 87.5755" stroke="#050F65" stroke-linecap="round" stroke-linejoin="round"/>
<path d="M118.229 59.8066V61.5416H110.447V59.8066" fill="#F1F3F4"/>
<path d="M116.87 61.5416H110.447V59.8066" stroke="#050F65" stroke-linecap="round" stroke-linejoin="round"/>
<path d="M118.229 59.8066V61.5416" stroke="#050F65" stroke-linecap="round" stroke-linejoin="round"/>
<path d="M110.447 89.3053V88.4377H118.229V89.3053" fill="#F1F3F4"/>
<path d="M115.356 87.5702H118.229V89.3053" stroke="#050F65" stroke-linecap="round" stroke-linejoin="round"/>
<path d="M110.447 89.3053V87.5702H112.192" stroke="#050F65" stroke-linecap="round" stroke-linejoin="round"/>
<path d="M123.777 59.7879H76.2236V55.17L100 42.4319L123.777 55.17V59.7879Z" fill="#FDFDFD"/>
<path d="M123.777 58.9204H76.2236V59.7879H123.777V58.9204Z" fill="#F1F3F4"/>
<path d="M77.088 59.7879H76.2236V55.2501L77.088 54.7776V59.7879Z" fill="#F1F3F4"/>
<path d="M122.048 57.1853H77.9521V58.0528H122.048V57.1853Z" fill="#F1F3F4"/>
<path d="M78.8165 58.0529H77.9521V56.1843L78.8165 55.7119V58.0529Z" fill="#F1F3F4"/>
<path d="M114.317 50.1009L123.777 55.17V59.7879H76.2236V55.17L100 42.4319L108.011 46.7215" stroke="#050F65" stroke-linecap="round" stroke-linejoin="round"/>
<path d="M77.9521 56.2083L100 44.3993L122.048 56.2083V58.0528H92.516" stroke="#050F65" stroke-linecap="round" stroke-linejoin="round"/>
<path d="M96.54 52.0415C96.54 52.9618 96.9043 53.8445 97.5527 54.4953C98.2011 55.146 99.0805 55.5116 99.9975 55.5116C100.601 55.5115 101.194 55.3513 101.716 55.0472C101.575 55.0664 101.434 55.0762 101.293 55.0765C100.532 55.0754 99.792 54.8221 99.1888 54.3561C98.5857 53.89 98.1526 53.2373 97.9568 52.499C97.761 51.7607 97.8135 50.9782 98.106 50.2729C98.3985 49.5676 98.9147 48.9789 99.5746 48.5981C98.7373 48.7016 97.9666 49.1089 97.4077 49.7431C96.8488 50.3773 96.5402 51.1948 96.54 52.0415Z" fill="#F1F3F4"/>
<path d="M102.729 49.9381C103.21 50.5564 103.468 51.32 103.461 52.1045C103.454 52.8889 103.182 53.6478 102.69 54.2574C102.198 54.867 101.515 55.2914 100.752 55.4613C99.9892 55.6312 99.1913 55.5366 98.4887 55.193C97.7861 54.8493 97.2203 54.2769 96.8834 53.569C96.5466 52.8612 96.4587 52.0596 96.634 51.2952C96.8093 50.5307 97.2375 49.8484 97.8488 49.3596C98.46 48.8708 99.2183 48.6042 99.9999 48.6034" stroke="#050F65" stroke-linecap="round" stroke-linejoin="round"/>
<path d="M122.694 89.3106H77.3027V91.4808H122.694V89.3106Z" fill="#FDFDFD"/>
<path d="M122.694 90.6106H77.3027V91.4781H122.694V90.6106Z" fill="#F1F3F4"/>
<path d="M77.3027 91.4808V89.3106H88.7549" stroke="#050F65" stroke-linecap="round" stroke-linejoin="round"/>
<path d="M124.859 93.6483H75.1436V95.8184H124.859V93.6483Z" fill="#FDFDFD"/>
<path d="M124.859 94.9509H75.1436V95.8184H124.859V94.9509Z" fill="#F1F3F4"/>
<path d="M97.561 95.8184H78.0557" stroke="#050F65" stroke-linecap="round" stroke-linejoin="round"/>
<path d="M124.856 93.6483V95.8184H102.029" stroke="#050F65" stroke-linecap="round" stroke-linejoin="round"/>
<path d="M75.1436 95.8184V93.6483H121.848" stroke="#050F65" stroke-linecap="round" stroke-linejoin="round"/>
<path d="M123.777 92.7807H76.2236V93.6483H123.777V92.7807Z" fill="#F1F3F4"/>
<path d="M123.777 91.4808V93.6483H76.2236" stroke="#050F65" stroke-linecap="round" stroke-linejoin="round"/>
<path d="M76.2236 92.7807V91.4808H122.697V89.3106H94.3805" stroke="#050F65" stroke-linecap="round" stroke-linejoin="round"/>
<path d="M112.971 59.0779C111.641 38.8524 106.322 23.7467 100 23.7467C95.125 23.7467 90.8643 32.6943 88.5479 46.0355" stroke="#050F65" stroke-linecap="round" stroke-linejoin="round"/>
<path d="M110.136 98.5037C112.114 90.5865 113.298 80.3363 113.298 69.1252C113.298 67.6571 113.278 66.2076 113.237 64.7769" stroke="#050F65" stroke-linecap="round" stroke-linejoin="round"/>
<path d="M96.1357 112.558C97.3591 113.823 98.6544 114.504 100 114.504C101.516 114.504 102.974 113.636 104.333 112.04" stroke="#050F65" stroke-linecap="round" stroke-linejoin="round"/>
<path d="M93.9679 51.0005C77.5131 43.4997 63.7844 41.3242 60.8429 46.436C58.4067 50.6722 63.9971 58.851 74.3535 67.5236" stroke="#050F65" stroke-linecap="round" stroke-linejoin="round"/>
<path d="M122.083 67.8546C117.169 64.0928 112.016 60.6564 106.657 57.567C105.572 56.9406 104.491 56.332 103.415 55.7412" stroke="#050F65" stroke-linecap="round" stroke-linejoin="round"/>
<path d="M127.513 94.2408C133.447 95.1164 137.673 94.3903 139.154 91.8144C141.609 87.5435 135.926 79.29 125.434 70.5399" stroke="#050F65" stroke-linecap="round" stroke-linejoin="round"/>
<path d="M105.846 51.0859C122.383 43.5157 136.205 41.3055 139.154 46.4359C142.066 51.5076 133.519 62.1849 119.074 72.6433" stroke="#050F65" stroke-linecap="round" stroke-linejoin="round"/>
<path d="M73.0502 94.1528C66.8188 95.1591 62.372 94.4731 60.8427 91.8144C57.1725 85.4321 71.7257 70.0968 93.3507 57.567C94.489 56.9086 95.6237 56.2697 96.7549 55.6505" stroke="#050F65" stroke-linecap="round" stroke-linejoin="round"/>
<path d="M155.409 77.7311L134.322 73.8846C134.322 73.8846 132.415 74.4184 131.88 78.1315C131.88 78.1315 131.662 80.291 132.308 80.6086L154.191 84.5432C154.334 82.2329 154.742 79.9469 155.409 77.7311Z" fill="#F1F3F4"/>
<path d="M155.409 77.7311L134.322 73.8846C134.322 73.8846 132.415 74.4184 131.88 78.1315C131.88 78.1315 131.662 80.291 132.308 80.6086L154.191 84.5432C154.334 82.2329 154.742 79.9469 155.409 77.7311Z" stroke="#050F65" stroke-linecap="round" stroke-linejoin="round"/>
<path d="M155.12 79.8826L133.237 75.9453C132.705 75.8519 132.383 76.7675 132.149 78.0674C131.915 79.3674 131.883 80.5579 132.396 80.6513L154.279 84.5886C154.811 84.682 155.407 83.705 155.638 82.4051C155.87 81.1051 155.638 79.976 155.12 79.8826Z" fill="white"/>
<path d="M132.886 79.4448L132.396 80.6513L154.279 84.5886C154.641 84.6526 155.043 84.2015 155.343 83.4835L132.886 79.4448Z" fill="#F1F3F4"/>
<path d="M133.237 75.9453C133.136 75.9368 133.035 75.9532 132.942 75.9933C132.849 76.0333 132.768 76.0957 132.705 76.1749C133.221 76.271 133.452 77.4001 133.218 78.6974C133.064 79.5703 132.737 80.299 132.383 80.6513C132.915 80.7448 133.51 79.7678 133.742 78.4678C133.973 77.1679 133.755 76.0387 133.237 75.9453Z" fill="#F1F3F4"/>
<path d="M143.729 82.6907C144.261 82.7841 144.856 81.8072 145.088 80.5072C145.319 79.2072 145.088 78.0781 144.556 77.9847L142.995 77.7044C143.511 77.7952 143.742 78.9243 143.511 80.2242C143.279 81.5242 142.67 82.5038 142.154 82.4104L143.729 82.6907Z" fill="white"/>
<path d="M144.745 78.0674C144.955 78.7382 144.984 79.4529 144.83 80.1388C144.598 81.4388 143.989 82.4184 143.473 82.325L142.675 82.1835C142.612 82.2624 142.531 82.3245 142.438 82.3645C142.345 82.4045 142.244 82.4212 142.144 82.4131L143.707 82.6933C144.239 82.7868 144.832 81.8098 145.066 80.5098C145.29 79.3674 145.136 78.3584 144.745 78.0674Z" fill="#F1F3F4"/>
<path d="M133.391 78.7348C133.445 78.4424 133.474 78.1459 133.479 77.8485L132.298 77.6377C131.534 79.6156 132.401 80.662 132.401 80.662C132.915 80.7448 133.154 80.024 133.391 78.7348Z" fill="#F1F3F4"/>
<path d="M133.755 78.4678C133.808 78.1752 133.837 77.8789 133.843 77.5816L132.973 77.4241C132.372 78.3843 132.165 79.5412 132.396 80.6513C132.915 80.7447 133.524 79.7678 133.755 78.4678Z" fill="white"/>
<path d="M133.843 77.5816L132.974 77.4241C132.903 77.5155 132.841 77.6128 132.787 77.7151C132.985 77.7503 133.16 77.8618 133.276 78.0254C133.393 78.1891 133.441 78.392 133.41 78.5906L133.386 78.7241C133.292 79.4222 133.017 80.0834 132.588 80.6406C133.056 80.5018 133.551 79.6103 133.755 78.4678C133.808 78.1752 133.837 77.8789 133.843 77.5816Z" fill="#F1F3F4"/>
<path d="M133.755 78.4678C133.808 78.1752 133.837 77.8789 133.843 77.5816L132.973 77.4241C132.372 78.3843 132.165 79.5412 132.396 80.6513C132.915 80.7447 133.524 79.7678 133.755 78.4678Z" stroke="#050F65" stroke-linecap="round" stroke-linejoin="round"/>
<path d="M133.237 75.9453C133.755 76.0387 133.987 77.1679 133.755 78.4678C133.524 79.7678 132.915 80.7448 132.396 80.6513C131.878 80.5579 131.646 79.4288 131.88 78.1315" stroke="#050F65" stroke-linecap="round" stroke-linejoin="round"/>
<path d="M143.806 82.696C144.306 82.696 144.869 81.7431 145.088 80.5072" stroke="#050F65" stroke-linecap="round" stroke-linejoin="round"/>
<path d="M133.236 75.9453L143.008 77.7044C143.524 77.7952 143.755 78.9243 143.524 80.2242C143.292 81.5242 142.683 82.5038 142.167 82.4104" stroke="#050F65" stroke-linecap="round" stroke-linejoin="round"/>
<path d="M153.532 79.5969L144.545 77.9793" stroke="#050F65" stroke-linecap="round" stroke-linejoin="round"/>
<path d="M155.664 80.7074C155.757 81.2703 155.748 81.8454 155.638 82.4051C155.406 83.705 154.797 84.682 154.279 84.5886L132.505 80.7368" stroke="#050F65" stroke-linecap="round" stroke-linejoin="round"/>
<path d="M142.766 82.5172L141.886 84.7354L142.686 84.5539L143.45 85.0157L143.391 82.6293L142.766 82.5172Z" fill="white"/>
<mask id="mask0_1_78433" style="mask-type:luminance" maskUnits="userSpaceOnUse" x="141" y="82" width="3" height="4">
<path d="M142.766 82.5172L141.886 84.7354L142.684 84.5539L143.45 85.0157L143.391 82.6293L142.766 82.5172Z" fill="white"/>
</mask>
<g mask="url(#mask0_1_78433)">
<path d="M143.548 82.5492L143.519 82.8989L142.971 82.8001L143.17 84.6633L142.566 84.5619L142.037 85.0183L141 84.1241L142.016 81.9433L143.548 82.5492Z" fill="#F1F3F4"/>
</g>
<path d="M142.766 82.5172L141.886 84.7354L142.686 84.5539L143.45 85.0157L143.391 82.6293L142.766 82.5172Z" stroke="#050F65" stroke-linecap="round" stroke-linejoin="round"/>
<path d="M59.7448 104.913L61.4469 109.851L58.689 109.71L56.5427 111.567L54.8379 106.629L59.7448 104.913Z" fill="white"/>
<mask id="mask1_1_78433" style="mask-type:luminance" maskUnits="userSpaceOnUse" x="54" y="104" width="8" height="8">
<path d="M59.7421 104.913L61.4469 109.851L58.6863 109.71L56.54 111.567L54.8379 106.629L59.7421 104.913Z" fill="white"/>
</mask>
<g mask="url(#mask1_1_78433)">
<path d="M60.5883 104.996C60.5883 104.996 60.5165 106.739 59.1469 107.732C58.4496 108.247 57.9363 108.973 57.6834 109.804C57.4304 110.635 57.4512 111.526 57.7426 112.344C57.7426 112.344 53.5484 112.689 53.4421 112.63C53.3357 112.571 53.4075 106.432 53.4075 106.432C53.4075 106.432 60.7506 103.108 60.5192 103.293C60.2878 103.477 60.5883 104.996 60.5883 104.996Z" fill="#F1F3F4"/>
</g>
<path d="M59.7448 104.913L61.4469 109.851L58.689 109.71L56.5427 111.567L54.8379 106.629L59.7448 104.913Z" stroke="#050F65" stroke-linecap="round" stroke-linejoin="round"/>
<path d="M59.5802 96.742L59.2637 95.8398C59.2007 95.6578 59.1025 95.4901 58.9747 95.3463C58.8469 95.2026 58.6919 95.0857 58.5189 95.0023C58.3458 94.9189 58.158 94.8707 57.9664 94.8605C57.7747 94.8504 57.5829 94.8783 57.402 94.9429L56.5031 95.2605C56.3226 95.3236 56.1316 95.3505 55.9408 95.3395C55.7501 95.3285 55.5634 95.2799 55.3913 95.1965L54.5323 94.78C54.1852 94.6129 53.7862 94.5907 53.4228 94.7183C53.0593 94.8459 52.7611 95.1129 52.5935 95.4607L52.1786 96.3256C52.0105 96.6732 51.7122 96.94 51.3488 97.0677L50.4472 97.3853C50.2657 97.4482 50.0984 97.5466 49.9551 97.6749C49.8118 97.8031 49.6953 97.9587 49.6124 98.1326C49.5295 98.3064 49.4818 98.4951 49.4722 98.6875C49.4626 98.88 49.4911 99.0725 49.5562 99.2538L49.8701 100.156C49.9335 100.337 49.9608 100.529 49.9503 100.72C49.9398 100.912 49.8917 101.099 49.8089 101.272L49.394 102.134C49.3112 102.306 49.263 102.494 49.2523 102.685C49.2416 102.876 49.2685 103.067 49.3314 103.248C49.3944 103.429 49.4923 103.595 49.6194 103.738C49.7465 103.881 49.9003 103.997 50.0722 104.08L50.9312 104.496C51.1034 104.579 51.2576 104.696 51.3849 104.839C51.5122 104.982 51.6102 105.148 51.6733 105.329L52.0084 106.229C52.0713 106.411 52.1695 106.578 52.2974 106.722C52.4253 106.866 52.5803 106.982 52.7534 107.066C52.9265 107.149 53.1143 107.197 53.306 107.207C53.4977 107.216 53.6894 107.188 53.8701 107.123L54.7717 106.808C54.9514 106.744 55.142 106.717 55.3323 106.728C55.5226 106.738 55.709 106.786 55.8807 106.869L56.7424 107.286C56.9142 107.369 57.1007 107.417 57.2911 107.428C57.4816 107.439 57.6723 107.412 57.8523 107.349C58.0324 107.285 58.1982 107.187 58.3405 107.06C58.4827 106.932 58.5985 106.778 58.6812 106.605L59.0961 105.743C59.1788 105.57 59.2947 105.415 59.4371 105.288C59.5795 105.16 59.7456 105.061 59.9259 104.998L60.8249 104.683C61.0062 104.62 61.1733 104.521 61.3165 104.393C61.4597 104.265 61.5762 104.109 61.6593 103.936C61.7423 103.762 61.7903 103.574 61.8005 103.381C61.8107 103.189 61.7828 102.996 61.7185 102.815L61.402 101.91C61.339 101.729 61.3123 101.538 61.3232 101.347C61.3342 101.156 61.3826 100.969 61.4658 100.797L61.8807 99.9318C62.0472 99.5834 62.0693 99.183 61.9422 98.8182C61.8151 98.4535 61.5491 98.1542 61.2025 97.9859L60.3408 97.5695C59.9944 97.4008 59.7286 97.1014 59.6014 96.7367" fill="white"/>
<path d="M59.2637 95.8398C59.2007 95.6578 59.1025 95.4901 58.9747 95.3463C58.8469 95.2026 58.6919 95.0857 58.5189 95.0023C58.3458 94.9189 58.158 94.8707 57.9664 94.8605C57.7747 94.8504 57.5829 94.8783 57.402 94.9429L56.5031 95.2605C56.3226 95.3236 56.1316 95.3505 55.9408 95.3395C55.7501 95.3285 55.5634 95.2799 55.3913 95.1965L54.5323 94.78C54.1852 94.6129 53.7862 94.5907 53.4228 94.7183C53.0593 94.8459 52.7611 95.1129 52.5935 95.4607L52.1786 96.3256C52.0105 96.6732 51.7122 96.94 51.3488 97.0677L50.4472 97.3853C50.2657 97.4482 50.0984 97.5466 49.9551 97.6749C49.8118 97.8031 49.6953 97.9587 49.6124 98.1326C49.5295 98.3064 49.4818 98.4951 49.4722 98.6875C49.4626 98.88 49.4911 99.0725 49.5562 99.2538L49.8701 100.156C49.9335 100.337 49.9608 100.529 49.9503 100.72C49.9398 100.912 49.8917 101.099 49.8089 101.272L49.394 102.134C49.3112 102.306 49.263 102.494 49.2523 102.685C49.2416 102.876 49.2685 103.067 49.3314 103.248C49.3944 103.429 49.4923 103.595 49.6194 103.738C49.7465 103.881 49.9003 103.997 50.0722 104.08L50.9312 104.496C51.1034 104.579 51.2576 104.696 51.3849 104.839C51.5122 104.982 51.6102 105.148 51.6733 105.329L52.0084 106.229" stroke="#050F65" stroke-linecap="round" stroke-linejoin="round"/>
<path d="M56.7207 107.28C56.8925 107.364 57.079 107.412 57.2694 107.423C57.4599 107.433 57.6506 107.406 57.8306 107.343C58.0107 107.28 58.1765 107.182 58.3188 107.054C58.461 106.927 58.5768 106.772 58.6595 106.6L59.0744 105.738C59.1571 105.565 59.273 105.41 59.4154 105.282C59.5578 105.154 59.7239 105.056 59.9042 104.993L60.8032 104.678C60.9845 104.615 61.1516 104.516 61.2948 104.388C61.438 104.26 61.5545 104.104 61.6376 103.93C61.7206 103.757 61.7686 103.568 61.7788 103.376C61.789 103.183 61.7611 102.991 61.6968 102.809L61.3803 101.904C61.3173 101.724 61.2906 101.533 61.3015 101.342C61.3125 101.15 61.3609 100.964 61.4441 100.791L61.859 99.9265C62.0255 99.5781 62.0476 99.1776 61.9205 98.8129C61.7934 98.4481 61.5274 98.1488 61.1808 97.9806" stroke="#050F65" stroke-linecap="round" stroke-linejoin="round"/>
<path d="M51.8561 102.356C52.1178 103.102 52.5939 103.754 53.2244 104.229C53.8549 104.704 54.6114 104.98 55.3985 105.024C56.1856 105.068 56.9679 104.877 57.6468 104.475C58.3257 104.073 58.8707 103.478 59.213 102.765C59.5552 102.052 59.6794 101.254 59.5699 100.47C59.4604 99.6866 59.122 98.9532 58.5976 98.3625C58.0731 97.7718 57.3861 97.3503 56.6232 97.1512C55.8602 96.9522 55.0556 96.9844 54.3109 97.2438C53.8146 97.4168 53.3573 97.6863 52.9651 98.0371C52.5729 98.3879 52.2536 98.813 52.0255 99.2879C51.7974 99.7629 51.6651 100.278 51.636 100.805C51.6069 101.331 51.6817 101.858 51.8561 102.356Z" fill="white"/>
<mask id="mask2_1_78433" style="mask-type:luminance" maskUnits="userSpaceOnUse" x="51" y="97" width="9" height="9">
<path d="M51.8561 102.356C52.1178 103.102 52.5939 103.754 53.2244 104.229C53.8549 104.704 54.6114 104.98 55.3985 105.024C56.1856 105.068 56.9679 104.877 57.6468 104.475C58.3257 104.073 58.8707 103.478 59.213 102.765C59.5552 102.052 59.6794 101.254 59.5699 100.47C59.4604 99.6866 59.122 98.9532 58.5976 98.3625C58.0731 97.7718 57.3861 97.3503 56.6232 97.1512C55.8602 96.9522 55.0556 96.9844 54.3109 97.2438C53.8146 97.4168 53.3573 97.6863 52.9651 98.0371C52.5729 98.3879 52.2536 98.813 52.0255 99.2879C51.7974 99.7629 51.6651 100.278 51.636 100.805C51.6069 101.331 51.6817 101.858 51.8561 102.356Z" fill="white"/>
</mask>
<g mask="url(#mask2_1_78433)">
<path d="M53.186 97.8604C53.0371 98.6605 53.1345 99.487 53.4654 100.23C53.7964 100.973 54.345 101.597 55.0383 102.019C55.7316 102.441 56.5366 102.642 57.346 102.593C58.1554 102.544 58.9309 102.249 59.569 101.747C59.4505 102.384 59.1799 102.982 58.7804 103.49C58.381 103.999 57.8646 104.403 57.2756 104.667C56.6865 104.931 56.0424 105.048 55.3985 105.008C54.7546 104.967 54.13 104.771 53.5784 104.435C53.0267 104.099 52.5645 103.634 52.2313 103.079C51.8981 102.525 51.7039 101.897 51.6653 101.251C51.6268 100.604 51.745 99.9582 52.0098 99.3677C52.2747 98.7772 52.6783 98.26 53.186 97.8604Z" fill="#F1F3F4"/>
</g>
<path d="M59.6307 100.976C59.6175 100.161 59.3585 99.3703 58.8879 98.7069C58.4173 98.0435 57.7574 97.5389 56.9951 97.2599" stroke="#050F65" stroke-linecap="round" stroke-linejoin="round"/>
<path d="M55.5293 105.044C56.298 105.062 57.0559 104.859 57.7124 104.457C58.3688 104.055 58.8962 103.472 59.2314 102.777" stroke="#050F65" stroke-linecap="round" stroke-linejoin="round"/>
<path d="M54.2341 97.2705C53.4966 97.5422 52.8553 98.0264 52.3909 98.6624C51.9264 99.2984 51.6594 100.058 51.6233 100.846C51.5873 101.633 51.7837 102.414 52.1881 103.09C52.5925 103.766 53.1867 104.307 53.8963 104.646" stroke="#050F65" stroke-linecap="round" stroke-linejoin="round"/>
<path d="M62.3462 100.694L68.205 117.513L66.1699 118.228L61.0548 103.543L60.9564 103.578L57.803 107.744L57.0821 105.674L60.311 101.408L62.3462 100.694Z" fill="#050F65"/>
<path d="M67.093 24.1471L55.1728 32.1204C55.0744 38.0169 63.1728 50.3438 66.9653 49.89L78.8696 41.8981C76.7419 41.9835 68.8775 32.6275 67.093 24.1471Z" fill="white"/>
<path d="M75.4119 39.3863C72.956 36.6663 70.8965 33.6106 69.2949 30.3106" stroke="#050F65" stroke-linecap="round" stroke-linejoin="round"/>
<path d="M63.1778 26.755L55.1698 32.1097C55.0714 38.0062 63.1698 50.3332 66.9624 49.8794" stroke="#050F65" stroke-linecap="round" stroke-linejoin="round"/>
<path d="M68.3694 32.745L60.2923 38.145L60.1221 37.8194L68.1992 32.4193L68.3694 32.745Z" fill="#F1F3F4"/>
<path d="M68.8004 33.5084L60.7233 38.9085L60.5371 38.5908L68.6142 33.1908C68.6754 33.2975 68.7366 33.4043 68.8004 33.5084Z" fill="#F1F3F4"/>
<path d="M69.2583 34.2532L61.1812 39.6532L60.9844 39.3409L69.0615 33.9409L69.2583 34.2532Z" fill="#F1F3F4"/>
<path d="M69.7475 34.9792L61.6703 40.3793L61.4629 40.075L69.54 34.6749C69.6065 34.7764 69.6783 34.8778 69.7475 34.9792Z" fill="#F1F3F4"/>
<path d="M70.2656 35.6839L62.1885 41.0973L61.9678 40.801L70.0449 35.401L70.2656 35.6839Z" fill="#F1F3F4"/>
<path d="M70.8141 36.3672L62.737 41.7673L62.5029 41.4817L70.5801 36.0816L70.8141 36.3672Z" fill="#F1F3F4"/>
<path d="M69.2632 38.4467L63.3111 42.432C63.2286 42.3412 63.1462 42.2504 63.0664 42.165L69.0292 38.161C69.0983 38.2651 69.1808 38.3559 69.2632 38.4467Z" fill="#F1F3F4"/>
<path d="M72.6195 38.2785L64.5423 43.6785L64.2764 43.4249L72.3535 38.0249L72.6195 38.2785Z" fill="#F1F3F4"/>
<path d="M73.2841 38.8684L65.207 44.2685L64.9277 44.0229L73.0049 38.6228L73.2841 38.8684Z" fill="#F1F3F4"/>
<path d="M69.7049 42.2718L65.8778 44.8344L65.5879 44.5995L69.415 42.0396L69.7049 42.2718Z" fill="#F1F3F4"/>
<path d="M61.6436 31.1381L62.351 30.6629C62.3936 30.8097 62.4335 30.9539 62.4787 31.1007L62.3218 31.2048C62.4521 31.6399 62.5877 32.067 62.7553 32.4914L63.1223 32.2458C62.9654 31.8214 62.8191 31.3943 62.6888 30.9592L62.5319 31.0633C62.4866 30.9192 62.4441 30.775 62.4042 30.6282L63.1116 30.1558L63.2393 30.5909L63.0558 30.7136C63.1967 31.1754 63.351 31.6346 63.5212 32.083C63.4654 32.2619 63.4095 32.4407 63.3563 32.6169L62.843 32.9612L62.4175 32.8224C62.2402 32.3722 62.0851 31.9148 61.9521 31.4504L61.7686 31.5732C61.726 31.429 61.6834 31.2822 61.6436 31.1381Z" fill="#050F65"/>
<path d="M63.465 32.7823C63.6538 32.9719 63.5128 33.116 63.5128 33.116C63.5128 33.116 63.3453 33.0893 63.465 32.7823Z" fill="#050F65"/>
<path d="M63.7842 33.2468C63.6671 32.9799 63.5182 33.1134 63.5182 33.116C63.5182 33.1187 63.4916 33.3055 63.7842 33.2468Z" fill="#050F65"/>
<path d="M63.6007 32.6115C63.8241 32.753 63.7044 32.9185 63.7017 32.9185C63.6991 32.9185 63.5289 32.9292 63.6007 32.6115Z" fill="#050F65"/>
<path d="M64.003 32.9906C63.8434 32.769 63.7051 32.9185 63.7024 32.9185C63.6998 32.9185 63.7104 33.1027 64.003 32.9906Z" fill="#050F65"/>
<path d="M63.7098 32.4247C63.9598 32.5154 63.8641 32.6916 63.8641 32.6916C63.8641 32.6916 63.6885 32.7397 63.7098 32.4247Z" fill="#050F65"/>
<path d="M64.1837 32.7049C63.9842 32.5288 63.8672 32.7049 63.8672 32.7049C63.8672 32.7049 63.9071 32.8678 64.1837 32.7049Z" fill="#050F65"/>
<path d="M63.7979 32.2271C64.0638 32.2618 63.9973 32.4514 63.9973 32.4514C63.9973 32.4514 63.8218 32.5288 63.7979 32.2271Z" fill="#050F65"/>
<path d="M64.3215 32.4006C64.0901 32.2699 63.9971 32.4514 63.9971 32.4514C63.9971 32.4514 64.0636 32.6062 64.3215 32.4006Z" fill="#050F65"/>
<path d="M63.8516 32.0216C64.1361 32.0029 64.0909 32.1951 64.0909 32.1951C64.0909 32.1951 63.926 32.3019 63.8516 32.0216Z" fill="#050F65"/>
<path d="M64.4179 32.0857C64.152 32.0056 64.0908 32.1951 64.0908 32.1951C64.0908 32.1951 64.1866 32.3313 64.4179 32.0857Z" fill="#050F65"/>
<path d="M63.8779 31.8187C64.1652 31.744 64.1439 31.9362 64.1439 31.9362C64.1439 31.9362 63.995 32.0697 63.8779 31.8187Z" fill="#050F65"/>
<path d="M64.4659 31.768C64.1999 31.744 64.1494 31.9362 64.1494 31.9362C64.1494 31.9362 64.2664 32.0456 64.4659 31.768Z" fill="#050F65"/>
<path d="M63.8701 31.6212C64.1547 31.4957 64.168 31.6799 64.168 31.6773C64.168 31.6746 64.0324 31.8347 63.8701 31.6212Z" fill="#050F65"/>
<path d="M64.4659 31.4584C64.1813 31.4877 64.168 31.6799 64.168 31.6773C64.168 31.6746 64.3036 31.7547 64.4659 31.4584Z" fill="#050F65"/>
<path d="M63.832 31.437C64.098 31.2609 64.1459 31.437 64.1459 31.437C64.1459 31.437 64.0315 31.6052 63.832 31.437Z" fill="#050F65"/>
<path d="M64.4177 31.1648C64.1304 31.2475 64.1517 31.4317 64.1517 31.4317C64.1517 31.4317 64.298 31.4878 64.4177 31.1648Z" fill="#050F65"/>
<path d="M63.9579 30.9192C64.1946 31.0233 64.0882 31.2021 64.0882 31.2021C64.0882 31.2021 63.9154 31.2422 63.9579 30.9192Z" fill="#050F65"/>
<path d="M62.8857 33.1721C62.8857 33.4764 63.0746 33.4097 63.0746 33.4097C63.0746 33.4097 63.1517 33.2228 62.8857 33.1721Z" fill="#050F65"/>
<path d="M63.0106 33.7647C62.9042 33.4977 63.0744 33.4096 63.0744 33.4096C63.0744 33.4096 63.21 33.4951 63.0106 33.7647Z" fill="#050F65"/>
<path d="M62.6965 33.2148C62.6593 33.5324 62.8375 33.4977 62.8375 33.4977C62.8375 33.4977 62.9412 33.3216 62.6965 33.2148Z" fill="#050F65"/>
<path d="M62.718 33.8474C62.6622 33.5591 62.8377 33.4977 62.8377 33.4977C62.8377 33.4977 62.952 33.6232 62.718 33.8474Z" fill="#050F65"/>
<path d="M62.5161 33.2255C62.4257 33.5431 62.6012 33.5404 62.5986 33.5404C62.5959 33.5404 62.7289 33.383 62.5161 33.2255Z" fill="#050F65"/>
<path d="M62.4277 33.8901C62.4277 33.5831 62.6006 33.5511 62.598 33.5511C62.5953 33.5511 62.6884 33.6792 62.4277 33.8901Z" fill="#050F65"/>
<path d="M62.3433 33.1988C62.205 33.5084 62.3699 33.5405 62.3699 33.5405C62.3699 33.5405 62.5162 33.4017 62.3433 33.1988Z" fill="#050F65"/>
<path d="M62.1494 33.8527C62.1973 33.5378 62.3702 33.5404 62.3702 33.5404C62.3702 33.5404 62.4313 33.7006 62.1494 33.8527Z" fill="#050F65"/>
<path d="M62.1831 33.1374C62.0049 33.4283 62.1512 33.4924 62.1512 33.4924C62.1512 33.4924 62.3135 33.3803 62.1831 33.1374Z" fill="#050F65"/>
<path d="M61.8936 33.7727C61.992 33.4577 62.1595 33.5057 62.1595 33.5057C62.1595 33.5057 62.1808 33.6686 61.8936 33.7727Z" fill="#050F65"/>
<path d="M62.0454 33.0439C61.83 33.3109 61.955 33.4016 61.955 33.4016C61.955 33.4016 62.1146 33.3189 62.0454 33.0439Z" fill="#050F65"/>
<path d="M61.668 33.6392C61.8116 33.3322 61.9552 33.4016 61.9552 33.4016C61.9552 33.4016 61.9552 33.5911 61.668 33.6392Z" fill="#050F65"/>
<path d="M61.9333 32.9158C61.686 33.1454 61.787 33.2709 61.787 33.2709C61.787 33.2709 61.9599 33.2175 61.9333 32.9158Z" fill="#050F65"/>
<path d="M61.4756 33.455C61.6644 33.1694 61.7868 33.2709 61.7868 33.2709C61.7868 33.2709 61.7548 33.463 61.4756 33.455Z" fill="#050F65"/>
<path d="M61.8485 32.7637C61.5825 32.9505 61.6543 33.1 61.6543 33.1C61.6543 33.1 61.8245 33.0893 61.8485 32.7637Z" fill="#050F65"/>
<path d="M61.3301 33.2281C61.5561 32.9612 61.6519 33.1 61.6519 33.1C61.6519 33.1 61.5827 33.2922 61.3301 33.2281Z" fill="#050F65"/>
<path d="M61.4757 32.5795C61.3853 32.9025 61.5555 32.8971 61.5555 32.8971C61.5733 32.8717 61.5854 32.8427 61.5911 32.8121C61.5967 32.7816 61.5957 32.7501 61.5881 32.72C61.5805 32.6898 61.5666 32.6617 61.5472 32.6374C61.5278 32.6132 61.5034 32.5934 61.4757 32.5795Z" fill="#050F65"/>
<path d="M72.3721 43.1847C72.5424 42.7566 72.656 42.3079 72.7098 41.8501C72.7632 41.3898 72.7206 40.9235 72.5848 40.4807C72.6057 41.057 72.6949 41.6287 72.8508 42.1837C72.8574 42.232 72.8741 42.2784 72.8997 42.3198C72.9254 42.3612 72.9595 42.3967 72.9997 42.424C73.0668 42.3499 73.1087 42.2565 73.1194 42.157C73.1513 41.9918 73.162 41.8232 73.1513 41.6552C73.1008 41.8687 73.0928 42.173 73.1513 42.173C73.223 42.1206 73.279 42.0495 73.3136 41.9675C73.3667 42.0262 73.4678 41.9889 73.5263 41.9355C73.5837 41.8768 73.625 41.8041 73.646 41.7246C73.6832 41.754 73.7284 41.7032 73.7471 41.6579C73.7526 41.6676 73.7602 41.6759 73.7693 41.6822C73.7784 41.6886 73.7888 41.6928 73.7998 41.6946C73.8108 41.6964 73.822 41.6957 73.8327 41.6926C73.8433 41.6895 73.8531 41.684 73.8614 41.6765C73.8736 41.665 73.883 41.6508 73.889 41.6351C73.895 41.6194 73.8974 41.6026 73.896 41.5858C73.8766 41.2009 73.7584 40.8276 73.5529 40.502C73.5144 40.4217 73.4558 40.3527 73.3827 40.3018C73.3325 40.3811 73.3153 40.4769 73.3348 40.5688C73.386 41.0323 73.4969 41.4872 73.6646 41.9221C73.6913 41.9979 73.728 42.0697 73.7737 42.1357C73.7857 42.155 73.8016 42.1716 73.8204 42.1845C73.8392 42.1973 73.8604 42.2062 73.8827 42.2104C73.9545 42.2104 74.0104 42.149 74.0396 42.0823C74.1886 41.7646 74.1114 41.2815 74.3056 41.1801" stroke="#050F65" stroke-width="0.5" stroke-linecap="round" stroke-linejoin="round"/>
<path d="M65.3986 47.533C65.747 47.3008 66.3747 47.6371 66.8055 48.2858C67.2364 48.9344 67.3055 49.6471 66.9571 49.8874L78.8693 41.8981C79.2151 41.6659 79.1486 40.9532 78.7177 40.2965C78.2869 39.6399 77.6539 39.3115 77.3108 39.5438L65.3906 47.517" fill="#F1F3F4"/>
<path d="M71.4473 43.489L65.3994 47.533" stroke="#050F65" stroke-linecap="round" stroke-linejoin="round"/>
<path d="M71.3379 46.9485L78.8698 41.8981C79.2156 41.6659 79.1491 40.9532 78.7182 40.2965C78.2874 39.6399 77.6544 39.3115 77.3113 39.5438" stroke="#050F65" stroke-linecap="round" stroke-linejoin="round"/>
<path d="M67.0102 49.8367C66.9937 49.8523 66.9759 49.8666 66.957 49.8794" stroke="#050F65" stroke-linecap="round" stroke-linejoin="round"/>
<path d="M65.3994 47.533C65.7478 47.3008 66.3755 47.6371 66.8063 48.2858C67.2372 48.9344 67.2957 49.5697 67.0111 49.8367" stroke="#050F65" stroke-linecap="round" stroke-linejoin="round"/>
<path d="M93.6335 27.6626C93.5852 27.5544 93.5706 27.4341 93.5915 27.3175C93.6124 27.2008 93.6678 27.0932 93.7505 27.0086C93.6154 27.0161 93.482 26.9762 93.373 26.8958C93.2641 26.8153 93.1864 26.6993 93.1534 26.5677C93.1203 26.436 93.134 26.2969 93.192 26.1743C93.25 26.0516 93.3487 25.9531 93.4712 25.8955L95.192 25.0947C95.3157 25.0353 95.4564 25.0219 95.5891 25.0568C95.7218 25.0917 95.8379 25.1727 95.9167 25.2854C95.9954 25.3981 96.0319 25.5352 96.0195 25.6723C96.007 25.8094 95.9466 25.9377 95.8489 26.0343C95.9838 26.0288 96.1164 26.0704 96.2241 26.1521C96.3317 26.2339 96.4078 26.3506 96.4392 26.4824C96.4706 26.6142 96.4554 26.7528 96.3963 26.8746C96.3371 26.9964 96.2376 27.0938 96.1148 27.1501L94.3941 27.9509C94.2548 28.0112 94.0976 28.0148 93.9557 27.961C93.8138 27.9072 93.6983 27.8002 93.6335 27.6626Z" fill="white"/>
<path d="M95.3116 27.0994C94.7797 27.2569 94.4845 26.8057 94.9472 26.4587L93.7637 27.0086C93.668 27.1059 93.6092 27.2339 93.5978 27.3702C93.5863 27.5064 93.6228 27.6425 93.7009 27.7545C93.7791 27.8666 93.8939 27.9476 94.0254 27.9835C94.1569 28.0194 94.2967 28.0078 94.4206 27.9509L96.1414 27.1501C96.2787 27.0846 96.385 26.9678 96.4377 26.8246C96.4904 26.6815 96.4852 26.5234 96.4233 26.384C96.3599 26.2516 96.2486 26.1485 96.1121 26.0957C96.4579 26.5014 95.9446 26.9098 95.3116 27.0994Z" fill="#F1F3F4"/>
<path d="M95.4231 18.0183C95.138 17.3932 94.7011 16.8499 94.1524 16.4384C93.6037 16.0268 92.9608 15.7601 92.2828 15.6628C91.6047 15.5655 90.9131 15.6406 90.2715 15.8813C89.6299 16.1221 89.0588 16.5206 88.6105 17.0405C88.1623 17.5604 87.8514 18.1849 87.7062 18.8568C87.561 19.5287 87.5863 20.2264 87.7797 20.8859C87.9731 21.5454 88.3284 22.1457 88.813 22.6315C89.2976 23.1174 89.8961 23.4733 90.5534 23.6666C90.7264 23.712 90.8874 23.7948 91.0252 23.9092C91.163 24.0235 91.2743 24.1666 91.3513 24.3286L91.9577 25.6633C92.0035 25.7651 92.0691 25.8568 92.1505 25.933C92.2318 26.0093 92.3275 26.0686 92.4318 26.1075C92.5362 26.1465 92.6472 26.1643 92.7584 26.16C92.8697 26.1557 92.979 26.1293 93.08 26.0824L95.6013 24.9265C95.8052 24.8324 95.9636 24.661 96.0419 24.4499C96.1201 24.2387 96.1118 24.0051 96.0188 23.8001L95.4151 22.4654C95.3435 22.3107 95.3064 22.1422 95.3064 21.9716C95.3064 21.801 95.3435 21.6325 95.4151 21.4778C95.6681 20.9367 95.7999 20.3466 95.8012 19.7489C95.8026 19.1513 95.6735 18.5606 95.4231 18.0183Z" fill="white"/>
<path d="M93.6547 25.3483C93.5536 25.3949 93.4443 25.421 93.3332 25.4251C93.222 25.4293 93.1111 25.4114 93.0069 25.3724C92.9026 25.3335 92.807 25.2743 92.7256 25.1983C92.6442 25.1222 92.5785 25.0308 92.5323 24.9292L91.9286 23.5946C91.8513 23.4328 91.7399 23.2898 91.6022 23.1755C91.4644 23.0612 91.3035 22.9783 91.1307 22.9326C90.5218 22.7546 89.9628 22.4365 89.4979 22.0035C89.0331 21.5705 88.6755 21.0346 88.4534 20.4384C88.2313 19.8423 88.1509 19.2023 88.2186 18.5694C88.2863 17.9366 88.5003 17.3283 88.8435 16.7931C88.2499 17.3805 87.8472 18.1344 87.6882 18.9556C87.5292 19.7769 87.6213 20.6273 87.9525 21.395C88.192 21.9424 88.5484 22.4303 88.9965 22.8242C89.4446 23.2182 89.9734 23.5085 90.5456 23.6746C90.7186 23.7201 90.8796 23.8028 91.0174 23.9172C91.1552 24.0315 91.2665 24.1747 91.3435 24.3366L91.9499 25.6713C91.9958 25.7731 92.0613 25.8648 92.1427 25.941C92.2241 26.0173 92.3197 26.0766 92.424 26.1156C92.5284 26.1545 92.6394 26.1724 92.7506 26.168C92.8619 26.1637 92.9712 26.1373 93.0722 26.0904L95.5935 24.9346C95.7274 24.8724 95.8428 24.7761 95.9282 24.6553C96.0136 24.5344 96.066 24.3933 96.0802 24.2459L93.6547 25.3483Z" fill="#F1F3F4"/>
<path d="M89.824 16.0751C88.9034 16.5616 88.2001 17.3794 87.8548 18.3645C87.5096 19.3495 87.548 20.4292 87.9623 21.387C88.2018 21.9344 88.5582 22.4223 89.0063 22.8162C89.4544 23.2102 89.9832 23.5005 90.5554 23.6666C90.7284 23.7121 90.8894 23.7948 91.0272 23.9092C91.165 24.0235 91.2763 24.1667 91.3533 24.3286L91.9596 25.6633" stroke="#050F65" stroke-linecap="round" stroke-linejoin="round"/>
<path d="M95.9491 24.6142C96.0269 24.4937 96.0733 24.3555 96.084 24.2123C96.0947 24.0691 96.0693 23.9255 96.0103 23.7947L95.4066 22.4601C95.335 22.3054 95.2979 22.1369 95.2979 21.9663C95.2979 21.7957 95.335 21.6271 95.4066 21.4724C95.6637 20.9311 95.7991 20.3397 95.8032 19.7401C95.8073 19.1404 95.6801 18.5472 95.4305 18.0023" stroke="#050F65" stroke-linecap="round" stroke-linejoin="round"/>
<path d="M93.8403 25.7247L93.4706 25.8955C93.3464 25.9532 93.2465 26.0529 93.1882 26.1772C93.13 26.3014 93.1172 26.4423 93.1521 26.5751C93.187 26.7079 93.2673 26.8241 93.3791 26.9034C93.4908 26.9827 93.6268 27.0199 93.7631 27.0086L94.8988 26.4747C93.9201 26.9312 93.5557 26.085 93.8403 25.7247Z" fill="#F1F3F4"/>
<path d="M93.6328 27.6626C93.6976 27.8036 93.8155 27.913 93.9605 27.9671C94.1055 28.0211 94.266 28.0153 94.4067 27.9509L96.1275 27.1501C96.2503 27.0938 96.3498 26.9964 96.4089 26.8746C96.4681 26.7528 96.4833 26.6142 96.4518 26.4824C96.4204 26.3506 96.3444 26.2339 96.2367 26.1521C96.129 26.0704 95.9964 26.0288 95.8615 26.0343" stroke="#050F65" stroke-linecap="round" stroke-linejoin="round"/>
<path d="M95.965 25.3937C95.9332 25.3236 95.8879 25.2606 95.8317 25.2082C95.7755 25.1557 95.7096 25.1149 95.6377 25.0882C95.5658 25.0614 95.4893 25.0491 95.4127 25.0521C95.336 25.055 95.2607 25.0731 95.1911 25.1054L93.4703 25.9062C93.353 25.9676 93.26 26.0673 93.2066 26.1889C93.1533 26.3104 93.1428 26.4466 93.1768 26.575C93.2109 26.7033 93.2875 26.8162 93.394 26.895C93.5005 26.9738 93.6306 27.0139 93.7629 27.0086" stroke="#050F65" stroke-linecap="round" stroke-linejoin="round"/>
<path d="M95.9418 27.9322L95.112 28.3139C95.0619 28.3361 95.0066 28.3441 94.9522 28.3371C94.8978 28.33 94.8464 28.3082 94.8035 28.2739L94.4072 27.9509L96.128 27.1501L96.112 27.6626C96.1129 27.7193 96.0973 27.775 96.067 27.8229C96.0368 27.8708 95.9933 27.9088 95.9418 27.9322Z" fill="#F1F3F4"/>
<path d="M95.9418 27.9322L95.112 28.3139C95.0619 28.3361 95.0066 28.3441 94.9522 28.3371C94.8978 28.33 94.8464 28.3082 94.8035 28.2739L94.4072 27.9509L96.128 27.1501L96.112 27.6626C96.1129 27.7193 96.0973 27.775 96.067 27.8229C96.0368 27.8708 95.9933 27.9088 95.9418 27.9322Z" stroke="#050F65" stroke-linecap="round" stroke-linejoin="round"/>
<path d="M94.4336 26.6963L95.1676 26.36" stroke="#050F65" stroke-linecap="round" stroke-linejoin="round"/>
<path d="M93.7766 25.1107L93.5293 24.5688" stroke="#050F65" stroke-linecap="round" stroke-linejoin="round"/>
<path d="M93.2318 23.9442L92.6653 22.6977C92.6189 22.5975 92.5439 22.5134 92.4497 22.456C92.3556 22.3987 92.2466 22.3707 92.1366 22.3756C92.0266 22.3805 91.9206 22.4181 91.8319 22.4836C91.7432 22.5491 91.6759 22.6395 91.6385 22.7435C91.6011 22.8474 91.5953 22.9602 91.6219 23.0674C91.6484 23.1747 91.7061 23.2716 91.7876 23.3459C91.8691 23.4202 91.9708 23.4685 92.0797 23.4848C92.1886 23.501 92.2999 23.4844 92.3994 23.4371L94.0297 22.679C94.1295 22.6324 94.2133 22.5571 94.2705 22.4626C94.3276 22.3681 94.3555 22.2587 94.3506 22.1483C94.3457 22.0379 94.3082 21.9315 94.243 21.8425C94.1777 21.7535 94.0876 21.6859 93.984 21.6484C93.8805 21.6109 93.7681 21.605 93.6613 21.6317C93.5544 21.6583 93.4578 21.7162 93.3838 21.798C93.3098 21.8799 93.2616 21.9819 93.2455 22.0912C93.2293 22.2005 93.2458 22.3122 93.293 22.412L94.6361 25.3483" stroke="#050F65" stroke-linecap="round" stroke-linejoin="round"/>
<path d="M139.649 36.3806L124.178 35.7186L110.019 29.4297L110.144 28.8825L125.487 30.0917L139.774 35.8334L139.649 36.3806Z" fill="#F1F3F4"/>
<path d="M131.431 36.0256L130.899 38.3292C130.899 38.3292 128.772 39.3035 123.625 38.097C118.479 36.8905 117.003 35.0673 117.003 35.0673L117.535 32.7664L131.431 36.0256Z" fill="#F1F3F4"/>
<path d="M139.774 35.8334L124.303 35.1741L110.144 28.8825L125.614 29.5445L139.774 35.8334Z" fill="#FDFDFD"/>
<mask id="mask3_1_78433" style="mask-type:luminance" maskUnits="userSpaceOnUse" x="110" y="28" width="30" height="8">
<path d="M139.774 35.8334L124.303 35.1741L110.144 28.8825L125.614 29.5445L139.774 35.8334Z" fill="white"/>
</mask>
<g mask="url(#mask3_1_78433)">
<path d="M125.614 29.5445C124.982 29.5966 124.382 29.8446 123.897 30.2543C123.412 30.6639 123.066 31.2149 122.907 31.8308C122.747 32.4467 122.783 33.097 123.008 33.6918C123.234 34.2865 123.638 34.7961 124.165 35.15L127.151 37.1681C127.151 37.1681 107.593 30.4494 107.633 30.3186C107.673 30.1878 108.824 25.0013 108.824 25.0013C108.824 25.0013 127.175 27.1367 127.295 27.022C127.415 26.9072 125.614 29.5445 125.614 29.5445Z" fill="#F1F3F4"/>
</g>
<path d="M123.511 34.8191L116.989 31.9229" stroke="#050F65" stroke-linecap="round" stroke-linejoin="round"/>
<path d="M135.503 33.9355L139.774 35.8334L125.173 35.2088" stroke="#050F65" stroke-linecap="round" stroke-linejoin="round"/>
<path d="M118.455 29.2375L125.615 29.5445L133.346 32.9799" stroke="#050F65" stroke-linecap="round" stroke-linejoin="round"/>
<path d="M115.888 31.4344L110.144 28.8825L117.585 29.2001" stroke="#050F65" stroke-linecap="round" stroke-linejoin="round"/>
<path d="M117.133 34.5041L117.537 32.769L110.633 29.7073" stroke="#050F65" stroke-linecap="round" stroke-linejoin="round"/>
<path d="M131.263 36.8024L130.906 38.3319C130.906 38.3319 128.779 39.3062 123.633 38.0997C119.965 37.2375 118.162 36.0683 117.428 35.465" stroke="#050F65" stroke-linecap="round" stroke-linejoin="round"/>
<path d="M124.96 32.3579L132.282 35.2568C132.532 35.3543 132.753 35.5148 132.923 35.7229C133.094 35.9309 133.208 36.1795 133.255 36.4447C133.402 37.2881 133.339 38.155 133.071 38.9679C132.803 39.7807 132.338 40.5142 131.718 41.1026" stroke="#050F65" stroke-linecap="round" stroke-linejoin="round"/>
<path d="M131.966 41.3402C132.017 41.4321 132.035 41.5389 132.016 41.6425C131.998 41.746 131.944 41.8399 131.864 41.9079C131.784 41.9759 131.682 42.0139 131.578 42.0154C131.473 42.0169 131.371 41.9818 131.289 41.916C131.207 41.8503 131.15 41.758 131.129 41.6551C131.107 41.5521 131.122 41.4448 131.171 41.3515C131.219 41.2582 131.299 41.1848 131.395 41.1438C131.492 41.1028 131.599 41.0967 131.7 41.1267" fill="#FDFDFD"/>
<path d="M131.966 41.3402C132.017 41.4321 132.035 41.5389 132.016 41.6425C131.998 41.746 131.944 41.8399 131.864 41.9079C131.784 41.9759 131.682 42.014 131.578 42.0154C131.473 42.0169 131.371 41.9818 131.289 41.916C131.207 41.8503 131.15 41.758 131.129 41.6551C131.107 41.5521 131.122 41.4448 131.171 41.3515C131.219 41.2582 131.299 41.1848 131.395 41.1438C131.492 41.1028 131.599 41.0967 131.7 41.1267" stroke="#050F65" stroke-linecap="round" stroke-linejoin="round"/>
<path d="M134.021 44.442L132.774 45.1493L131.529 42.9391C131.435 42.7738 131.41 42.5777 131.46 42.394C131.51 42.2103 131.63 42.054 131.795 41.9595C131.96 41.8649 132.156 41.8398 132.339 41.8899C132.523 41.9399 132.679 42.0609 132.774 42.2264L134.021 44.442Z" fill="#FDFDFD"/>
<path d="M134.021 44.442L132.774 45.1493L131.529 42.9391C131.435 42.7738 131.41 42.5777 131.46 42.394C131.51 42.2103 131.63 42.054 131.795 41.9595C131.96 41.8649 132.156 41.8398 132.339 41.8899C132.523 41.9399 132.679 42.0609 132.774 42.2264L134.021 44.442Z" stroke="#050F65" stroke-linecap="round" stroke-linejoin="round"/>
<path d="M132.117 43.0085L133.17 44.9011" stroke="#050F65" stroke-linecap="round" stroke-linejoin="round"/>
<path d="M132.526 42.7469L133.603 44.6342" stroke="#050F65" stroke-linecap="round" stroke-linejoin="round"/>
<path d="M129.649 60.1296L133.256 60.8716L150.237 59.6971C150.434 59.6724 150.612 59.5707 150.735 59.4142C150.857 59.2577 150.912 59.059 150.889 58.8616L150.86 58.4666C150.855 58.2676 150.772 58.0786 150.629 57.9407C150.486 57.8027 150.294 57.727 150.096 57.7298L133.117 58.9044L129.649 60.1296Z" fill="white"/>
<mask id="mask4_1_78433" style="mask-type:luminance" maskUnits="userSpaceOnUse" x="129" y="57" width="22" height="4">
<path d="M129.649 60.1296L133.256 60.8716L150.237 59.6971C150.434 59.6724 150.612 59.5707 150.735 59.4142C150.857 59.2577 150.912 59.059 150.889 58.8616L150.86 58.4666C150.855 58.2676 150.772 58.0786 150.629 57.9407C150.486 57.8027 150.294 57.727 150.096 57.7298L133.117 58.9044L129.649 60.1296Z" fill="white"/>
</mask>
<g mask="url(#mask4_1_78433)">
<path d="M151.742 58.6321L133.481 59.8973C133.481 59.8973 133.622 60.546 133.261 60.7862V60.8716L151.612 59.601L151.742 58.6321Z" fill="#F1F3F4"/>
<path d="M149.24 60.4873L149.003 57.1426C149.003 57.1426 150.841 56.7182 150.865 57.0118C150.889 57.3054 151.663 60.6154 151.663 60.6154L149.24 60.4873Z" fill="#F1F3F4"/>
</g>
<path d="M147.945 57.8793L133.117 58.9044L129.649 60.1296L133.256 60.8716L141.008 60.3351" stroke="#050F65" stroke-linecap="round" stroke-linejoin="round"/>
<path d="M149.034 57.8019L150.098 57.7298C150.296 57.727 150.488 57.8027 150.631 57.9407C150.774 58.0786 150.856 58.2676 150.861 58.4666L150.891 58.8616C150.914 59.059 150.858 59.2577 150.736 59.4142C150.614 59.5707 150.435 59.6724 150.239 59.6971L149.175 59.7719L149.093 58.5894" stroke="#050F65" stroke-linecap="round" stroke-linejoin="round"/>
<path d="M147.269 94.5558L147.859 98.9255L151.652 100.791L147.843 102.847L147.216 107.248L144.272 104.149L140.091 105.006L142.08 101.034L140.123 97.1611L144.296 97.8044L147.269 94.5558Z" fill="white"/>
<mask id="mask5_1_78433" style="mask-type:luminance" maskUnits="userSpaceOnUse" x="140" y="94" width="12" height="14">
<path d="M147.266 94.5558L147.857 98.9255L151.649 100.791L147.841 102.847L147.213 107.248L144.269 104.149L140.091 105.006L142.078 101.034L140.123 97.1611L144.296 97.8044L147.266 94.5558Z" fill="white"/>
</mask>
<g mask="url(#mask5_1_78433)">
<path d="M147.384 93.0023C147.384 93.0023 148.602 99.737 141.615 106.063L151.796 109.266L155.998 95.8665L147.384 93.0023Z" fill="#F1F3F4"/>
</g>
<path d="M142.08 101.034L140.122 97.1611L144.295 97.8044L147.268 94.5558" stroke="#050F65" stroke-linecap="round" stroke-linejoin="round"/>
<path d="M150.136 100.047L151.652 100.791L147.843 102.847L147.216 107.248L144.272 104.149L140.091 105.006" stroke="#050F65" stroke-linecap="round" stroke-linejoin="round"/>
<path d="M71.8461 75.7985L70.2504 73.93L53.6041 66.3357C53.4087 66.2573 53.1902 66.2596 52.9965 66.3421C52.8027 66.4246 52.6492 66.5806 52.5695 66.7762L52.3967 67.1552C52.3039 67.3441 52.289 67.5621 52.3552 67.762C52.4214 67.9618 52.5634 68.1274 52.7504 68.223L69.3967 75.7985H71.8461Z" fill="white"/>
<mask id="mask6_1_78433" style="mask-type:luminance" maskUnits="userSpaceOnUse" x="52" y="66" width="20" height="10">
<path d="M71.8461 75.7985L70.2504 73.93L53.6041 66.3357C53.4087 66.2573 53.1902 66.2596 52.9965 66.3421C52.8027 66.4246 52.6492 66.5806 52.5695 66.7762L52.3967 67.1552C52.3039 67.3441 52.289 67.5621 52.3552 67.762C52.4214 67.9618 52.5634 68.1274 52.7504 68.223L69.3967 75.7985H71.8461Z" fill="white"/>
</mask>
<g mask="url(#mask6_1_78433)">
<path d="M51.6465 66.5573L71.8486 75.7905L70.2502 73.914L52.2342 65.7165L51.6465 66.5573Z" fill="#F1F3F4"/>
<path d="M53.9128 65.6551L52.4606 68.8583C52.4606 68.8583 50.5112 68.3244 50.6388 68.0281C50.7665 67.7318 51.7026 64.291 51.7026 64.291L53.9128 65.6551Z" fill="#F1F3F4"/>
</g>
<path d="M53.4336 68.5433L69.3964 75.8038L71.8485 75.7905L70.2501 73.9139L55.5932 67.246" stroke="#050F65" stroke-linecap="round" stroke-linejoin="round"/>
<path d="M52.7397 68.2283C52.5527 68.1328 52.4107 67.9671 52.3445 67.7673C52.2783 67.5674 52.2932 67.3495 52.3859 67.1606L52.5588 66.7815C52.6385 66.586 52.7919 66.43 52.9857 66.3475C53.1795 66.265 53.3979 66.2627 53.5934 66.3411L53.0721 67.4702" stroke="#050F65" stroke-linecap="round" stroke-linejoin="round"/>
<path d="M54.0531 67.1697L53.7119 67.926L58.9185 70.292L59.2597 69.5358L54.0531 67.1697Z" stroke="#050F65" stroke-linecap="round" stroke-linejoin="round"/>
<path d="M70.0691 74.261L69.5664 75.3874" stroke="#050F65" stroke-linecap="round" stroke-linejoin="round"/>
<path d="M57.3644 79.0913L51.8019 82.4353C51.6808 82.508 51.536 82.5295 51.3991 82.4951C51.2623 82.4606 51.1447 82.373 51.0722 82.2516L49.2956 79.2746C49.2232 79.1531 49.2017 79.0077 49.236 78.8704C49.2704 78.7331 49.3576 78.6151 49.4786 78.5423L55.0412 75.1983C55.4043 74.9801 55.8389 74.9155 56.2494 75.0188C56.6599 75.1222 57.0127 75.3849 57.2301 75.7493L57.9134 76.8943C58.1309 77.2587 58.1952 77.6949 58.0923 78.1069C57.9893 78.5189 57.7275 78.873 57.3644 79.0913Z" fill="white"/>
<mask id="mask7_1_78433" style="mask-type:luminance" maskUnits="userSpaceOnUse" x="49" y="74" width="10" height="9">
<path d="M57.3644 79.0913L51.8019 82.4353C51.6808 82.508 51.536 82.5295 51.3991 82.4951C51.2623 82.4606 51.1447 82.373 51.0722 82.2516L49.2956 79.2746C49.2232 79.1531 49.2017 79.0077 49.236 78.8704C49.2704 78.7331 49.3576 78.6151 49.4786 78.5423L55.0412 75.1983C55.4043 74.9801 55.8389 74.9155 56.2494 75.0188C56.6599 75.1222 57.0127 75.3849 57.2301 75.7493L57.9134 76.8943C58.1309 77.2587 58.1952 77.6949 58.0923 78.1069C57.9893 78.5189 57.7275 78.873 57.3644 79.0913Z" fill="white"/>
</mask>
<g mask="url(#mask7_1_78433)">
<path d="M58.1731 80.0694L54.854 74.5146L48.1279 78.5586C48.1279 78.5586 51.8008 84.3056 51.6226 84.4151C51.4444 84.5245 58.1731 80.0694 58.1731 80.0694Z" fill="#F1F3F4"/>
</g>
<path d="M57.2263 75.7531L57.9151 76.9063C58.1326 77.2705 58.1971 77.7066 58.0944 78.1185C57.9916 78.5305 57.7301 78.8847 57.3672 79.1031L51.8034 82.4478C51.7434 82.4841 51.6768 82.5081 51.6075 82.5184C51.5382 82.5288 51.4675 82.5253 51.3996 82.5082C51.3316 82.4911 51.2677 82.4607 51.2115 82.4187C51.1553 82.3767 51.1079 82.324 51.072 82.2636L49.2901 79.2686C49.254 79.2084 49.23 79.1415 49.2197 79.072C49.2093 79.0024 49.2128 78.9315 49.2299 78.8633C49.2469 78.7951 49.2772 78.7309 49.319 78.6745C49.3609 78.6181 49.4134 78.5705 49.4736 78.5345L55.0374 75.1899C55.3632 74.9939 55.748 74.9211 56.1225 74.9844" stroke="#050F65" stroke-linecap="round" stroke-linejoin="round"/>
<path d="M52.3988 82.6103L56.8913 79.9096C57.1434 79.7581 57.2253 79.4302 57.0743 79.1773L54.8263 75.4103C54.6753 75.1573 54.3487 75.0751 54.0966 75.2266L49.6041 77.9273C49.3521 78.0788 49.2702 78.4067 49.4211 78.6596L51.6692 82.4266C51.8202 82.6796 52.1468 82.7618 52.3988 82.6103Z" fill="white"/>
<mask id="mask8_1_78433" style="mask-type:luminance" maskUnits="userSpaceOnUse" x="49" y="75" width="9" height="8">
<path d="M52.3959 82.6103L56.8884 79.9096C57.1404 79.7581 57.2224 79.4302 57.0714 79.1773L54.8234 75.4103C54.6724 75.1573 54.3457 75.0751 54.0937 75.2266L49.6012 77.9273C49.3492 78.0788 49.2673 78.4067 49.4182 78.6596L51.6663 82.4266C51.8172 82.6796 52.1439 82.7618 52.3959 82.6103Z" fill="white"/>
</mask>
<g mask="url(#mask8_1_78433)">
<path d="M54.5584 83.0457C53.1089 80.6166 53.0637 77.6323 54.4387 75.3527L55.3296 73.8766L46.71 79.0577L50.5929 85.5629L54.5584 83.0457Z" fill="#F1F3F4"/>
</g>
<path d="M54.7846 75.3607L54.8245 75.4194L57.0612 79.1885C57.1333 79.31 57.1546 79.4552 57.1201 79.5923C57.0857 79.7294 56.9985 79.8473 56.8777 79.9199L53.7021 81.8312" stroke="#050F65" stroke-linecap="round" stroke-linejoin="round"/>
<path d="M53.5244 75.5796L54.0936 75.2379C54.204 75.1706 54.3351 75.1459 54.4624 75.1685C54.5896 75.1911 54.7043 75.2594 54.785 75.3607" stroke="#050F65" stroke-linecap="round" stroke-linejoin="round"/>
<path d="M52.5082 82.5546L52.3965 82.6213C52.2758 82.6939 52.1313 82.7156 51.9947 82.6816C51.8582 82.6476 51.7406 82.5606 51.6677 82.4398L49.4177 78.6707C49.3817 78.6095 49.3582 78.5418 49.3487 78.4714C49.3391 78.401 49.3436 78.3294 49.3619 78.2608C49.3802 78.1922 49.412 78.128 49.4554 78.0718C49.4988 78.0157 49.5529 77.9688 49.6145 77.934" stroke="#050F65" stroke-linecap="round" stroke-linejoin="round"/>
</svg>
