<svg width="98" height="90" viewBox="0 0 98 90" fill="none" xmlns="http://www.w3.org/2000/svg">
<g clip-path="url(#clip0_1_78670)">
<path d="M20.2977 5.5515C19.8872 5.33061 19.4332 5.20342 18.968 5.17903C15.9808 5.04184 21.6237 5.02868 21.8447 1.62943C22.0271 -0.960602 22.3384 3.23058 23.2561 3.71769C23.8779 4.45663 24.8667 4.67576 25.7054 4.99223C24.4154 5.25946 22.8074 5.55939 22.4425 7.12108C22.2178 7.38042 22.259 8.6621 21.9664 8.55122C21.8807 7.39245 21.3623 6.09875 20.2977 5.5515ZM19.8651 4.84564C20.5211 4.97872 21.1084 5.3418 21.5218 5.86985C21.7466 6.04425 21.9571 7.01509 22.0706 6.73432C22.1597 6.35847 22.3586 6.0202 22.6043 5.7165C22.8407 5.14445 24.6787 4.85579 23.8172 4.72913C22.8946 4.3683 22.2904 3.44595 22.0796 2.46496C21.8177 3.45271 20.9937 4.53293 19.8651 4.84564Z" fill="#050F65"/>
<path d="M92.5927 78.4239C92.1822 78.2029 91.7282 78.0756 91.263 78.051C88.2758 77.9138 93.9183 77.9007 94.1397 74.5014C94.3221 71.9114 94.633 76.1026 95.5507 76.59C96.1728 77.3286 97.1613 77.5477 98 77.8646C96.7103 78.1314 95.1023 78.4317 94.7375 79.9931C94.5109 80.2524 94.5539 81.5341 94.261 81.4213C94.1756 80.2648 93.6568 78.9711 92.5927 78.4239ZM92.1597 77.7187C92.8157 77.8519 93.4031 78.2151 93.8164 78.7433C94.0412 78.9177 94.252 79.8882 94.3652 79.6078C94.4543 79.2319 94.6536 78.8937 94.8993 78.59C95.1357 78.0179 96.9737 77.7289 96.1122 77.6022C95.1896 77.2414 94.585 76.3191 94.3745 75.3384C94.112 76.3247 93.289 77.4053 92.1597 77.7187Z" fill="#050F65"/>
<path d="M10.8609 82.9732C10.4505 82.7524 9.99657 82.6251 9.53153 82.6004C6.54433 82.4632 12.1869 82.4523 12.4079 79.0508C12.5906 76.4611 12.9015 80.6523 13.8192 81.1394C14.4414 81.8783 15.4299 82.0971 16.2685 82.4139C14.9789 82.6812 13.3709 82.9811 13.0057 84.5428C12.7809 84.8021 12.8225 86.0838 12.5296 85.9729C12.4442 84.8142 11.9254 83.5205 10.8609 82.9732ZM10.4282 82.2685C11.0842 82.4015 11.6716 82.7646 12.085 83.2927C12.3097 83.4671 12.5206 84.4379 12.6337 84.1572C12.7229 83.7813 12.9221 83.443 13.1675 83.1393C13.4042 82.5673 15.2422 82.2786 14.3807 82.152C13.4581 81.7911 12.8536 80.8684 12.6431 79.8878C12.3805 80.8744 11.5576 81.9546 10.4282 82.2685Z" fill="#050F65"/>
<path d="M0.012938 54.8787C0.119691 50.9773 0.9179 47.2582 2.93871 43.866C4.74788 40.828 7.27099 38.7638 10.7848 38.0218C11.7962 37.8083 11.8179 37.7418 11.8621 36.7473C12.2483 28.065 18.5729 21.9844 27.2637 21.9092C29.0897 21.8934 30.8659 22.0945 32.6073 22.6609C33.5471 22.9672 33.6539 22.8725 33.8396 21.9727C35.3121 14.842 39.8406 10.6057 46.6957 8.99325C53.2836 7.44359 58.8415 9.64235 63.2285 14.7367C64.9571 16.7442 65.8572 19.1594 66.1022 21.8299C66.2894 23.8783 66.3393 23.8103 68.3425 23.6013C74.6779 22.9406 81.7948 27.0968 82.2016 35.2285C82.2536 36.2587 82.0405 37.29 81.8337 38.3105C81.6491 39.2208 81.6839 39.2501 82.5132 39.5271C89.2154 41.7642 93.0319 46.5752 94.2781 53.3749C95.4767 59.9114 91.6003 66.6802 86.193 69.0654C83.0496 70.4516 79.7755 70.579 76.4399 70.0137C76.2706 69.9849 76.1065 69.931 75.953 69.8536C75.7987 69.775 75.6837 69.6457 75.6908 69.4465C75.6979 69.2473 75.8324 69.1349 75.9904 69.0658C76.3972 68.8884 76.8362 68.9218 77.264 68.9087C79.1226 68.8523 80.9494 68.5644 82.7469 68.1066C88.0681 66.7512 91.5006 62.7341 92.3359 57.2894C93.2892 51.0742 88.5996 42.6686 80.9175 41.1366C78.6888 40.6923 76.4602 40.94 74.2438 41.344C73.7786 41.429 73.3093 41.4944 72.8396 41.5496C72.5444 41.5835 72.1837 41.6481 72.053 41.2865C71.9001 40.8637 72.2537 40.6645 72.5481 40.4935C72.8468 40.3219 73.1587 40.1746 73.4808 40.053C75.0604 39.4516 76.6811 39.0521 78.3851 39.0276C79.6238 39.0096 79.6624 38.957 79.9208 37.7711C81.1415 32.1671 77.6307 26.9551 71.872 25.7061C69.1969 25.125 66.6584 25.5595 64.1334 26.4045C63.7256 26.541 63.3136 26.6649 62.8973 26.7762C62.6437 26.8442 62.3624 26.878 62.2014 26.6127C61.9957 26.2744 62.2355 26.0278 62.4636 25.8354C62.758 25.5866 63.0734 25.3468 63.4131 25.1698C63.945 24.8898 64.1068 24.4635 64.0993 23.8919C64.0514 20.3167 62.9546 17.1618 60.2757 14.7183C52.6835 7.79389 42.1034 10.2396 37.4535 17.5218C34.7109 21.8171 34.6068 26.2098 37.4722 30.5408C37.9483 31.2598 38.4884 31.936 38.9949 32.6347C39.1574 32.8602 39.2526 33.1161 39.0054 33.3244C38.8267 33.4747 38.5933 33.4232 38.406 33.2913C38.2279 33.1704 38.0603 33.0348 37.9049 32.8857C35.9335 30.9384 34.3839 28.7344 33.8853 25.9399C33.7445 25.1506 33.361 24.7244 32.6208 24.5C28.2469 23.1732 24.0383 23.4852 20.0165 25.7369C16.2232 27.862 12.3067 33.8228 14.4234 40.1939C15.2228 42.6165 16.3323 44.9246 17.7241 47.0605C17.965 47.4299 18.5504 47.8783 18.0523 48.2733C17.5046 48.7078 17.1626 48.0339 16.8394 47.672C14.9782 45.5976 13.4604 43.312 12.5404 40.651C12.2329 39.7617 12.1913 39.7579 11.2006 39.944C9.03971 40.3503 7.27062 41.4252 5.88171 43.1335C3.9478 45.5161 2.98815 48.3143 2.46937 51.2896C2.08951 53.4646 2.07887 55.6885 2.43791 57.8671C2.96231 61.1062 4.47258 63.7023 7.25713 65.5038C9.95629 67.2504 12.9682 68.0919 16.0947 68.5926C17.4106 68.8034 18.7381 68.9414 20.0581 69.13C20.4828 69.1909 20.902 69.3003 21.32 69.4018C21.5822 69.4653 21.8189 69.5815 21.7972 69.9096C21.7811 70.1606 21.5882 70.3005 21.3788 70.3441C20.6222 70.5023 19.8577 70.7616 19.0999 70.7504C14.6541 70.6846 10.3604 69.9456 6.45967 67.6281C2.9713 65.556 0.982327 62.4665 0.303605 58.4948C0.103584 57.3014 -0.0458695 56.0998 0.012938 54.8787Z" fill="#050F65"/>
<path d="M50.0882 40.831C53.1297 40.7156 56.9428 41.1061 60.7634 41.4177C61.1908 41.4527 61.6126 41.5572 62.037 41.6237C62.6149 41.7143 62.9172 42.0676 63.0989 42.6144C64.4578 46.7019 66.7663 50.1166 70.2745 52.6555C70.8656 53.0832 71.1046 53.6327 71.0806 54.3186C70.9031 59.3987 70.2457 64.3935 68.3597 69.1564C65.6576 75.9797 61.5646 81.7389 55.5056 85.9816C53.078 87.6812 50.3923 88.8235 47.5711 89.6763C47.0342 89.8465 46.4553 89.8262 45.9316 89.6188C35.3642 85.6027 27.8593 78.6024 24.5612 67.5146C23.2734 63.1855 22.7258 58.7312 22.373 54.2446C22.3209 53.579 22.4947 53.1129 23.0981 52.7325C26.7315 50.4424 29.4306 47.295 31.2795 43.4338C31.708 42.5389 32.2691 42.104 33.2089 41.9935C35.9864 41.6677 38.7616 41.3354 41.5491 41.0979C44.1276 40.878 46.7073 40.8494 50.0882 40.831ZM65.988 51.066L65.4688 50.5499C65.3841 50.2049 65.1669 49.935 64.9699 49.6509C63.8585 48.0482 62.9206 46.3433 62.2906 44.4986C61.9932 43.6278 61.4999 43.2895 60.6241 43.1914C57.5433 42.846 54.4493 42.6678 51.3576 42.59C45.6308 42.4446 39.928 42.8907 34.2337 43.4996C33.1771 43.6124 32.6497 44.0386 32.1965 44.9312C30.488 48.2955 28.1736 51.1588 24.9804 53.2249C24.3028 53.6631 24.0994 54.1984 24.1859 54.9632C24.6283 58.8695 25.153 62.76 26.2505 66.5483C27.7574 71.7475 30.3064 76.3285 34.1738 80.1498C37.6371 83.5724 41.7641 85.9245 46.1915 87.8173C46.9231 88.1304 47.5924 88.0548 48.3127 87.7929C53.1716 86.0263 57.1649 83.0447 60.4623 79.0899C66.3161 72.07 68.8411 63.838 69.2377 54.8294C69.2647 54.2205 69.0939 53.7519 68.6171 53.3546C67.7252 52.6111 66.8629 51.8308 65.988 51.066Z" fill="#050F65"/>
<path d="M89.4357 60.1362C89.4634 57.9348 89.3567 55.7604 88.8495 53.6338C88.3292 51.4539 87.2894 49.5246 85.8271 47.8295C84.3801 46.1524 82.4492 45.0947 80.6172 43.975C80.8524 43.4394 81.1303 43.6251 81.3416 43.7056C86.9452 45.8446 89.7114 50.5766 90.0848 55.0771C90.1931 56.3798 90.08 57.6653 90.0185 58.9571C89.9987 59.3826 89.9826 59.828 89.4357 60.1362Z" fill="#050F65"/>
<path d="M73.6537 28.6028C73.2653 28.9302 72.8259 28.7908 72.4315 28.7156C71.237 28.4901 70.0301 28.5461 68.8281 28.4848C66.0496 28.3424 63.6902 29.3117 61.6364 31.1444C61.1464 31.5808 60.7108 32.1276 59.9561 32.2926C61.0599 28.0736 70.0151 25.7057 73.6537 28.6028Z" fill="#050F65"/>
<path d="M48.1562 14.9637C49.3807 13.3784 52.7859 12.7214 55.2787 13.5855C57.7715 14.4496 60.1313 17.2444 60.1421 19.3646C59.6353 19.3808 59.5552 18.9279 59.3597 18.6276C58.7686 17.7214 58.1176 16.8697 57.3194 16.1341C55.4233 14.3872 53.2066 13.9049 50.7352 14.4597C50.1493 14.5909 49.5811 14.798 49.0017 14.9592C48.7248 15.0359 48.4398 15.2122 48.1562 14.9637Z" fill="#050F65"/>
<path d="M7.16354 55.1143C5.57349 53.2888 5.49221 49.1277 6.63315 46.7229C7.56958 44.7534 8.88057 43.2218 11.3355 42.6299C10.8519 43.7522 9.8627 43.9454 9.27537 44.5775C8.65862 45.2417 8.14211 45.9928 7.74225 46.8071C7.31674 47.6686 7.08563 48.5887 6.92419 49.5268C6.76949 50.4255 6.82081 51.3347 6.83916 52.2424C6.85752 53.1433 7.26205 53.9946 7.16354 55.1143Z" fill="#050F65"/>
<path d="M18.0684 32.3821C18.6325 29.9086 19.7 27.9128 21.8283 26.6961C23.5053 25.7373 25.3283 25.2431 27.3461 25.7963C27.0944 26.4078 26.6764 26.4097 26.3074 26.4387C22.7531 26.7164 20.2929 28.5213 18.8505 31.7706C18.7505 31.9965 18.671 32.2671 18.0684 32.3821Z" fill="#050F65"/>
<path d="M65.9883 51.0659C65.8647 51.3129 65.6737 51.3666 65.468 51.1937C63.3892 49.4419 61.816 47.3668 61.2178 44.4892C61.7796 44.6655 61.7931 45.0864 61.9295 45.3913C62.7951 47.3288 63.7933 49.1716 65.4691 50.5484L65.9883 51.0659Z" fill="#050F65"/>
<path d="M49.3262 48.1181C51.6485 48.0805 54.5597 48.4068 57.4734 48.6699C58.4192 48.7552 58.9946 49.1435 59.3253 50.1301C60.0104 52.174 61.2926 53.8668 62.8838 55.3015C63.4789 55.8375 63.7142 56.4257 63.7213 57.2244C63.7887 64.6821 61.4581 71.2439 56.4119 76.7498C54.0424 79.3342 51.1589 81.1913 47.7762 82.229C46.9844 82.4719 46.2753 82.4256 45.5247 82.1208C37.4163 78.8309 32.3023 72.9995 30.5265 64.3397C30.0482 62.0094 29.7871 59.6505 29.6331 57.2763C29.5901 56.6132 29.7695 56.1359 30.2605 55.6792C31.8783 54.1758 33.3002 52.4908 34.3838 50.5582C34.9022 49.6336 35.594 49.2461 36.6312 49.1047C40.6466 48.5579 44.6624 48.1159 49.3262 48.1181ZM47.4627 49.4712C44.5691 49.4284 40.6316 49.7542 36.7031 50.2691C35.9765 50.3646 35.5184 50.6521 35.1816 51.2701C34.5179 52.4871 33.8021 53.7353 32.7492 54.5956C31.0662 55.9713 30.7726 57.5533 31.0977 59.6073C31.6532 63.1163 32.2237 66.602 33.7695 69.8344C36.408 75.3516 40.8792 78.8099 46.4079 81.0658C46.8877 81.262 47.3144 81.1966 47.7762 81.0244C50.2675 80.0964 52.5332 78.7836 54.4394 76.9219C59.9696 71.5254 62.3874 64.8569 62.3594 57.2041C62.3571 56.6027 62.1462 56.1306 61.7312 55.7037C60.3678 54.2995 59.2302 52.7344 58.541 50.884C58.3357 50.3334 57.9892 50.0402 57.4109 49.9854C57.0693 49.9527 56.7329 49.8666 56.3917 49.8271C53.7809 49.5257 51.1582 49.4791 47.4627 49.4716V49.4712Z" fill="#050F65"/>
<path d="M54.3525 82.8782C61.2967 76.1127 60.4861 78.8565 66.1912 65.9214C66.4822 67.4098 64.4371 72.4579 62.1833 75.7042C60.116 78.6832 57.4435 81.0139 54.3525 82.8782Z" fill="#050F65"/>
<path d="M32.766 46.3565C32.6911 48.783 30.044 52.1289 27.4609 53.117C29.6054 51.1603 31.6644 49.1378 32.766 46.3565Z" fill="#050F65"/>
<path d="M58.6297 61.7268C58.6466 62.2436 58.2409 62.4635 57.9109 62.7262C56.0576 64.2018 54.2011 65.6735 52.3414 67.1414C49.7711 69.1685 47.1973 71.1914 44.62 73.21C43.5364 74.0549 43.3694 74.0489 42.5067 73.0247C40.4518 70.585 38.4453 68.1047 36.5649 65.5256C35.9405 64.6686 35.9622 64.4559 36.7398 63.7966C37.429 63.2118 38.139 62.6517 38.8696 62.1162C39.7083 61.5028 39.9364 61.5298 40.5856 62.3206C41.5703 63.5196 42.5281 64.7412 43.496 65.9541C43.6574 66.1559 43.8084 66.3675 43.9705 66.5678C44.7721 67.5609 44.7781 67.5665 45.7767 66.7791C48.6856 64.4856 51.5925 62.1896 54.4975 59.8911C54.869 59.5979 55.2466 59.3119 55.6395 59.0466C55.9549 58.8327 56.3078 58.821 56.5928 59.0887C57.3483 59.7998 57.9746 60.6225 58.5586 61.478C58.6043 61.5445 58.6065 61.6411 58.6297 61.7268ZM39.5611 63.1968C39.0831 63.2836 38.785 63.6854 38.4205 63.9695C37.4841 64.6991 37.471 64.7697 38.2111 65.7079C39.7843 67.7029 41.3711 69.6876 42.9716 71.6618C43.6132 72.4556 43.6507 72.4677 44.3972 71.8798C48.4221 68.7126 52.4395 65.5366 56.4494 62.3518C57.1344 61.8084 57.1442 61.6618 56.7116 61.1066C56.1752 60.4222 55.9347 60.3748 55.2301 60.8943C54.5375 61.4047 53.8652 61.9429 53.1891 62.4755C50.687 64.4461 48.1916 66.4254 45.6842 68.3885C44.7186 69.1443 44.4481 69.1026 43.6593 68.1679C43.5469 68.0363 43.448 67.8957 43.342 67.7597C42.3104 66.434 41.2819 65.1057 40.2439 63.7854C40.0611 63.5546 39.9203 63.2633 39.5611 63.1968Z" fill="#050F65"/>
<path d="M32.833 56.6967C34.0249 55.1932 35.2808 53.7571 36.2203 52.08C36.1843 53.5849 34.5152 55.8871 32.833 56.6967Z" fill="#050F65"/>
<path d="M53.5061 63.1896C51.5527 65.0625 49.509 66.8189 47.1631 68.1866C49.0861 66.275 51.2317 64.6494 53.5061 63.1896Z" fill="#050F65"/>
<path d="M39.9893 64.2127C41.483 66.1209 42.9671 68.0325 44.8411 69.8994C43.1997 69.321 40.6301 66.3104 39.9893 64.2127Z" fill="#050F65"/>
</g>
<defs>
<clipPath id="clip0_1_78670">
<rect width="98" height="89" fill="white" transform="translate(0 0.790527)"/>
</clipPath>
</defs>
</svg>
