<svg width="118" height="90" viewBox="0 0 118 90" fill="none" xmlns="http://www.w3.org/2000/svg">
<g clip-path="url(#clip0_1_78839)">
<path d="M9.41407 55.7133L9.36328 56.8352L43.5918 58.3969L43.6425 57.275L9.41407 55.7133Z" fill="#CCD2D9"/>
<path d="M19.2139 24.2703L18.3193 24.9446L43.17 58.1748L44.0645 57.5005L19.2139 24.2703Z" fill="#CCD2D9"/>
<path d="M85.169 28.2989L52.0693 53.2476L52.7409 54.1456L85.8406 29.197L85.169 28.2989Z" fill="#CCD2D9"/>
<path d="M76.8309 46.8248C84.6561 46.8248 90.9997 40.4562 90.9997 32.6001C90.9997 24.7441 84.6561 18.3755 76.8309 18.3755C69.0057 18.3755 62.6621 24.7441 62.6621 32.6001C62.6621 40.4562 69.0057 46.8248 76.8309 46.8248Z" fill="#DBCDF0"/>
<path d="M27.0996 57.8366C27.0996 48.9102 34.3083 41.6731 43.1996 41.6731C52.091 41.6731 60.1314 48.9102 60.1314 57.8366C60.1314 66.763 52.091 74.0001 43.1996 74.0001C34.3083 74.0001 27.0996 66.763 27.0996 57.8366Z" fill="#07284B"/>
<path d="M19.5969 33.2145C24.3319 33.2145 28.1703 29.3609 28.1703 24.6073C28.1703 19.8536 24.3319 16 19.5969 16C14.8619 16 11.0234 19.8536 11.0234 24.6073C11.0234 29.3609 14.8619 33.2145 19.5969 33.2145Z" fill="#07284B"/>
<path d="M18.523 58.443C19.7146 53.3769 16.5898 48.3003 11.5436 47.1041C6.49747 45.9079 1.44081 49.045 0.249272 54.111C-0.942269 59.1771 2.18252 64.2537 7.22868 65.4499C12.2748 66.6462 17.3315 63.509 18.523 58.443Z" fill="#DBCDF0"/>
<path d="M49.0841 61.983C48.0635 61.5727 46.9425 61.8199 46.1849 62.5229L40.9624 59.5475C41.3209 58.5229 41.2349 57.4407 40.7999 56.5192L45.7331 53.2438C46.0367 53.5462 46.4048 53.7957 46.8254 53.9661C48.5057 54.6428 50.4226 53.8197 51.0966 52.1328C51.7706 50.4459 50.9508 48.5215 49.2706 47.8448C47.5903 47.1681 45.6734 47.9912 44.9994 49.6781C44.7102 50.4003 44.6958 51.1658 44.9061 51.8593L39.8295 55.2283C39.502 54.9427 39.1244 54.7051 38.6989 54.5324C36.6697 53.7165 34.356 54.7075 33.5434 56.7448C32.7307 58.782 33.7179 61.1048 35.7471 61.9207C37.2959 62.5445 39.0097 62.1126 40.0972 60.968L45.3674 63.9699C45.0926 65.2609 45.7762 66.6046 47.0382 67.1133C48.4483 67.682 50.0545 66.9909 50.621 65.5752C51.1803 64.1643 50.4943 62.5517 49.0841 61.983Z" fill="white"/>
<path d="M81.0357 24.0769C80.5529 23.4243 79.8932 22.9491 79.1236 22.7044C78.6049 22.5388 78.0815 22.5388 77.5748 22.5388H76.1025C75.4189 22.5388 74.8166 22.6684 74.262 22.9371C73.557 23.2779 72.9427 23.8946 72.5794 24.6264C72.3165 25.1567 72.1826 25.7398 72.1826 26.3565V34.1743H73.3538V26.3181C73.3538 26.011 73.3872 25.8022 73.4876 25.4879C73.5641 25.2431 73.7553 24.8928 73.9203 24.6912C74.1401 24.4201 74.3457 24.2449 74.6516 24.0625C74.9313 23.897 75.2085 23.801 75.579 23.7386C75.5957 23.7362 75.6435 23.729 75.7702 23.7218C75.8228 23.7194 75.8802 23.717 75.9495 23.717H78.0122C78.3253 23.717 78.5356 23.7506 78.8487 23.8514C79.0925 23.9282 79.4415 24.1201 79.6423 24.2857C79.9123 24.5065 80.0868 24.7128 80.2685 25.02C80.4334 25.3007 80.529 25.5791 80.5911 25.951C80.5935 25.9678 80.6007 26.0158 80.6079 26.143C80.6103 26.1958 80.6127 26.251 80.6127 26.3205V34.1791H81.7838V26.3181C81.7814 25.5095 81.5233 24.7344 81.0357 24.0769Z" fill="white"/>
<path d="M70.8438 31.2349V39.7581C70.8438 40.9099 71.7735 41.8458 72.9232 41.8458H80.7389C81.8862 41.8458 82.8184 40.9123 82.8184 39.7581V31.2349H70.8438ZM77.2302 36.6963V38.7479C77.2302 38.9015 77.0533 39.0239 76.8358 39.0239H76.8287C76.6112 39.0239 76.4343 38.9015 76.4343 38.7479V36.6963C75.7579 36.5187 75.2607 35.902 75.2607 35.1678C75.2607 34.2943 75.9658 33.5888 76.8335 33.5888C77.7011 33.5888 78.4062 34.2967 78.4062 35.1678C78.4038 35.902 77.9042 36.5187 77.2302 36.6963Z" fill="white"/>
</g>
<defs>
<clipPath id="clip0_1_78839">
<rect width="91" height="58" fill="white" transform="translate(0 16)"/>
</clipPath>
</defs>
</svg>
