<svg width="120" height="120" viewBox="0 0 120 120" fill="none" xmlns="http://www.w3.org/2000/svg">
<path d="M80.9472 69.5421C80.8826 72.7418 80.0846 75.884 78.6146 78.7268C77.1446 81.5696 75.0418 84.0372 72.4682 85.9395L72.0686 86.2328L72.1019 86.7342C72.1202 86.9168 72.1178 87.101 72.0949 87.2831C72.0653 89.3346 70.8871 91.2341 68.7923 92.6988C66.6976 94.1634 63.9372 94.9881 60.8629 95.1476C60.3759 95.1746 59.851 95.1888 59.3387 95.1813C55.6666 95.0917 52.3719 94.0597 50.0077 92.2796C47.9892 90.7516 46.8805 88.75 46.937 86.7304C46.9397 86.5449 46.9522 86.3597 46.9746 86.1756L47.0315 85.6845L46.6503 85.343C43.8886 83.0888 41.7459 80.169 40.4239 76.8584C39.1019 73.5478 38.644 69.9552 39.0934 66.4188C39.5428 62.8824 40.8846 59.5185 42.9926 56.6437C45.1006 53.7689 47.9055 51.4778 51.1432 49.986C54.3809 48.4942 57.9449 47.8508 61.4999 48.1164C65.0548 48.3819 68.4837 49.5476 71.4638 51.5039C74.444 53.4601 76.8773 56.1425 78.5349 59.2985C80.1924 62.4546 81.0196 65.9805 80.9386 69.5444L80.9472 69.5421Z" fill="#DBCDF0"/>
<path d="M88.2889 45.7006C85.5983 40.7211 81.6374 36.5427 76.8087 33.5899C71.9801 30.6372 66.4558 29.0153 60.7973 28.8893C43.0913 28.4891 28.3457 42.5774 27.9605 60.2794C27.9474 61.1856 27.9666 62.0838 28.0182 62.9741C28.0767 64.0827 28.2021 65.1867 28.3938 66.2801C29.6116 73.7546 33.4561 80.5493 39.236 85.4425L39.2119 85.7386C39.1349 89.4578 41.0513 92.9808 44.5605 95.6541C44.8001 95.845 45.0652 96.0107 45.3205 96.1998L45.3066 96.5943C45.2339 99.9778 46.5066 103.252 48.8454 105.698C51.1842 108.144 54.3979 109.562 57.7813 109.641L60.1649 109.692C63.5479 109.763 66.821 108.49 69.2668 106.152C71.7125 103.813 73.1312 100.6 73.212 97.2177L73.2087 96.8277C73.2656 96.7967 73.3188 96.7593 73.3673 96.7163C73.5645 96.5945 73.7878 96.4496 73.9919 96.3191C74.4224 96.0243 74.8379 95.7081 75.2368 95.3718C76.2498 94.5419 77.1376 93.5701 77.8726 92.4863C79.0655 90.7692 79.7317 88.7413 79.7893 86.6513L79.7922 86.3448C85.798 81.6778 89.9497 75.0283 91.5061 67.5833C93.0624 60.1384 91.9222 52.3826 88.2889 45.7006ZM89.5769 61.6601C89.4822 66.1509 88.3615 70.5605 86.3005 74.5515C84.2394 78.5426 81.2928 82.0092 77.6859 84.6863L77.1103 85.1118L77.154 85.7897C77.1642 86.0766 77.1793 86.33 77.1637 86.5893C77.1157 89.4641 75.4496 92.1425 72.5005 94.1763C69.5514 96.2101 65.6823 97.4009 61.3812 97.6316C60.6763 97.6687 59.9622 97.6716 59.2419 97.66C54.0845 97.5432 49.4374 96.0966 46.1243 93.5892C43.2769 91.4213 41.7386 88.6659 41.8006 85.7828C41.8003 85.5276 41.8172 85.2727 41.8513 85.0198L41.9169 84.3126L41.3858 83.8573C37.9005 81.0247 35.1102 77.4315 33.2289 73.3534C31.3476 69.2752 30.4253 64.8203 30.5326 60.3304C30.8941 44.0669 44.4459 31.1167 60.7116 31.4776C68.5351 31.6661 75.9649 34.948 81.373 40.6044C86.7811 46.2608 89.7265 53.8303 89.5639 61.6544L89.5769 61.6601Z" fill="#050F65"/>
<path d="M76.9619 36.8078C72.2015 33.4582 66.5507 31.6039 60.7312 31.4816C44.4655 31.1208 30.9131 44.0687 30.5522 60.3344C30.4449 64.8244 31.3672 69.2792 33.2485 73.3574C35.1298 77.4356 37.9201 81.0288 41.4054 83.8613L41.9365 84.3167L41.8709 85.0239C41.8368 85.2768 41.8198 85.5317 41.8201 85.7868C41.7577 88.6678 43.2959 91.4232 46.1439 93.5932C49.4558 96.0964 54.0986 97.5441 59.2614 97.6641C59.9817 97.6756 60.6959 97.6728 61.4008 97.6356C65.7056 97.4016 69.5772 96.2286 72.5201 94.1804C75.463 92.1321 77.1353 89.4681 77.1833 86.5934C77.1989 86.3341 77.1838 86.0806 77.1736 85.7937L77.1299 85.1158L77.7055 84.6903C81.4582 81.9005 84.4939 78.2584 86.562 74.0645C88.6302 69.8706 89.6715 65.245 89.6001 60.5694C89.5288 55.8939 88.3468 51.3022 86.1517 47.1734C83.9566 43.0445 80.8112 39.4967 76.9751 36.8227L76.9619 36.8078ZM80.9444 69.5315C80.8798 72.7312 80.0817 75.8735 78.6117 78.7163C77.1417 81.5591 75.039 84.0266 72.4654 85.9289L72.0658 86.2222L72.099 86.7236C72.1173 86.9063 72.115 87.0904 72.0921 87.2726C72.0625 89.324 70.8842 91.2235 68.7895 92.6882C66.6948 94.1529 63.9343 94.9776 60.86 95.137C60.3731 95.1641 59.8482 95.1783 59.3358 95.1707C55.6638 95.0812 52.3691 94.0492 50.0049 92.269C47.9864 90.741 46.8777 88.7394 46.9342 86.7198C46.9368 86.5344 46.9494 86.3491 46.9717 86.165L47.0286 85.6739L46.6475 85.3324C43.8858 83.0783 41.7431 80.1584 40.4211 76.8478C39.099 73.5372 38.6412 69.9446 39.0905 66.4082C39.5399 62.8718 40.8818 59.5079 42.9898 56.6331C45.0978 53.7584 47.9026 51.4672 51.1403 49.9755C54.378 48.4837 57.9421 47.8403 61.497 48.1058C65.0519 48.3713 68.4808 49.5371 71.461 51.4933C74.4411 53.4495 76.8745 56.1319 78.532 59.2879C80.1896 62.444 81.0168 65.9699 80.9358 69.5338L80.9444 69.5315Z" fill="white"/>
<path d="M60.2337 24.452C60.0664 24.4482 59.9014 24.4115 59.7483 24.344C59.5951 24.2765 59.4567 24.1795 59.3411 24.0585C59.2254 23.9375 59.1347 23.7949 59.0741 23.6389C59.0136 23.4829 58.9843 23.3164 58.9881 23.1491L59.2743 10.3537C59.278 10.1861 59.3147 10.0209 59.3823 9.86756C59.4499 9.71419 59.5471 9.57565 59.6683 9.45989C59.7895 9.34414 59.9324 9.25343 60.0887 9.19297C60.2451 9.1325 60.4118 9.10348 60.5794 9.10754C60.7468 9.11101 60.912 9.14746 61.0654 9.21481C61.2187 9.28216 61.3574 9.37908 61.4732 9.50004C61.5891 9.62099 61.68 9.7636 61.7408 9.91972C61.8015 10.0758 61.8308 10.2424 61.8271 10.4099L61.5388 23.2058C61.5351 23.3734 61.4984 23.5386 61.4308 23.692C61.3632 23.8453 61.266 23.9839 61.1448 24.0996C61.0236 24.2154 60.8807 24.3061 60.7244 24.3665C60.568 24.427 60.4013 24.456 60.2337 24.452Z" fill="#050F65"/>
<path d="M94.9371 59.9595C94.9408 59.7919 94.9774 59.6267 95.045 59.4732C95.1125 59.3198 95.2097 59.1811 95.3308 59.0652C95.4519 58.9493 95.5947 58.8584 95.751 58.7976C95.9073 58.7369 96.074 58.7075 96.2416 58.7112L109.035 58.998C109.202 59.0017 109.368 59.0383 109.521 59.1059C109.675 59.1734 109.813 59.2706 109.929 59.3917C110.045 59.5128 110.136 59.6556 110.197 59.8119C110.257 59.9681 110.287 60.1348 110.283 60.3025C110.279 60.4701 110.243 60.6353 110.175 60.7888C110.108 60.9422 110.011 61.0809 109.889 61.1968C109.768 61.3127 109.626 61.4036 109.469 61.4644C109.313 61.5251 109.146 61.5545 108.979 61.5508L96.1854 61.264C95.8471 61.256 95.5258 61.1142 95.2918 60.8697C95.0578 60.6252 94.9303 60.2979 94.9371 59.9595Z" fill="#050F65"/>
<path d="M9.1871 59.2572C9.19511 58.919 9.33705 58.5978 9.58175 58.3641C9.82645 58.1304 10.1539 58.0035 10.4922 58.0111L23.2875 58.2972C23.6258 58.3052 23.947 58.4472 24.1807 58.6919C24.4143 58.9366 24.5413 59.264 24.5337 59.6023C24.53 59.7699 24.4933 59.9351 24.4257 60.0885C24.3581 60.2418 24.2609 60.3804 24.1397 60.4961C24.0185 60.6119 23.8756 60.7026 23.7192 60.763C23.5629 60.8235 23.3962 60.8525 23.2286 60.8485L10.4354 60.5617C10.2678 60.558 10.1026 60.5214 9.94911 60.4538C9.79566 60.3863 9.657 60.2892 9.54109 60.168C9.42517 60.0469 9.33426 59.9041 9.27352 59.7478C9.21278 59.5916 9.18342 59.4249 9.1871 59.2572Z" fill="#050F65"/>
<path d="M33.5736 35.9379C33.3286 36.1717 33.0008 36.2987 32.6622 36.2912C32.3237 36.2837 32.0019 36.1422 31.7675 35.8977L22.9238 26.6475C22.6901 26.4025 22.563 26.0747 22.5705 25.7361C22.5781 25.3976 22.7196 25.0758 22.964 24.8414C23.2087 24.6078 23.5362 24.4809 23.8744 24.4885C24.2126 24.4962 24.534 24.6378 24.7679 24.8822L33.6137 34.1319C33.8475 34.3769 33.9746 34.7046 33.967 35.0432C33.9595 35.3818 33.818 35.7035 33.5736 35.9379Z" fill="#050F65"/>
<path d="M86.7071 37.1295C86.5912 37.0084 86.5003 36.8657 86.4396 36.7095C86.3789 36.5533 86.3496 36.3866 86.3533 36.2191C86.3571 36.0515 86.3939 35.8863 86.4616 35.733C86.5293 35.5797 86.6266 35.4412 86.7479 35.3256L95.9976 26.4797C96.2423 26.2461 96.5697 26.1192 96.9079 26.1269C97.2462 26.1345 97.5675 26.2761 97.8015 26.5205C97.9177 26.6414 98.0088 26.7841 98.0697 26.9403C98.1306 27.0965 98.16 27.2633 98.1562 27.4309C98.1524 27.5986 98.1155 27.7638 98.0476 27.9171C97.9798 28.0705 97.8823 28.2089 97.7607 28.3244L88.511 37.1702C88.266 37.4033 87.9387 37.5298 87.6007 37.5222C87.2626 37.5146 86.9413 37.3734 86.7071 37.1295Z" fill="#050F65"/>
<path d="M60.7596 52.0564C58.8456 52.8351 56.9896 53.7495 55.2059 54.7927C53.518 55.7959 51.9609 57.0045 50.5704 58.3909C49.176 59.7556 47.9924 61.32 47.0582 63.0329C46.5164 63.8676 46.1564 64.8146 45.7147 65.7398C45.273 66.665 45.0056 67.6745 44.5225 68.6683C44.4081 67.5899 44.394 66.5033 44.4803 65.4224C44.6541 64.3552 44.7802 63.2387 45.2083 62.2114C45.9169 60.0676 47.1312 58.1259 48.7486 56.5505C50.3352 54.9674 52.2447 53.7453 54.3468 52.9678C56.399 52.211 58.6006 51.8142 60.7596 52.0564Z" fill="white"/>
<path d="M65.6399 92.5827C65.3728 92.6542 65.0888 92.6267 64.8404 92.5052C64.592 92.3838 64.3958 92.1766 64.2882 91.9219C64.1978 91.7048 62.0802 86.5553 61.5499 74.6592C60.6644 74.9253 59.743 75.052 58.8185 75.0347C58.1619 82.0723 56.1133 90.092 55.7571 91.4563C55.7188 91.6024 55.6521 91.7395 55.5609 91.8598C55.4696 91.9802 55.3555 92.0813 55.2251 92.1576C55.0948 92.2338 54.9506 92.2836 54.801 92.3042C54.6514 92.3247 54.4992 92.3156 54.3531 92.2773C54.207 92.239 54.0698 92.1723 53.9495 92.081C53.8292 91.9898 53.728 91.8757 53.6518 91.7453C53.5755 91.6149 53.5257 91.4708 53.5052 91.3212C53.4846 91.1716 53.4938 91.0194 53.5321 90.8733C54.7264 86.3144 56.0574 79.8203 56.5487 74.5763C55.9667 74.3476 55.4196 74.0385 54.9234 73.6579C52.2873 71.6265 51.4404 67.8997 52.3044 65.6936C52.8479 64.2906 54.0523 63.5265 55.506 63.6588C55.9659 63.7021 56.4103 63.8479 56.8065 64.0854C57.2026 64.3229 57.5406 64.6462 57.7955 65.0314C58.8556 66.5426 59.1248 69.4174 58.9721 72.734C59.838 72.7288 60.6953 72.563 61.5007 72.2449C61.6738 64.9301 64.8452 63.6229 65.8403 63.3217C66.5502 63.1458 67.2993 63.2242 67.9573 63.5435C68.6153 63.8628 69.1406 64.4027 69.4416 65.0692C70.2409 66.7997 69.7983 69.5917 66.1569 72.2501C65.4087 72.8033 64.6191 73.2984 63.7953 73.7311L63.8054 74.0088C64.2728 85.8161 66.3703 90.9847 66.3905 91.0345C66.507 91.3155 66.5077 91.6312 66.3924 91.9128C66.277 92.1943 66.0551 92.4188 65.7748 92.5373C65.7308 92.555 65.6857 92.5701 65.6399 92.5827ZM66.3546 65.5585C65.5396 65.7769 64.2 67.2116 63.8669 71.0385C64.1749 70.8411 64.488 70.6285 64.8029 70.3969C67.1637 68.6725 67.7904 66.9622 67.3579 66.0344C67.2832 65.847 67.1417 65.694 66.9608 65.6049C66.7798 65.5158 66.5722 65.497 66.3782 65.5522L66.3546 65.5585ZM54.9696 65.9633C54.7551 66.0208 54.5869 66.1739 54.4502 66.53C53.9761 67.7375 54.475 70.4059 56.3325 71.8391C56.4596 71.936 56.5887 72.0233 56.721 72.1051C56.8265 69.4448 56.6166 67.3403 55.9196 66.3432C55.858 66.2306 55.7699 66.1348 55.6628 66.0641C55.5557 65.9934 55.4329 65.95 55.3052 65.9377C55.1927 65.9255 55.0789 65.9342 54.9696 65.9633Z" fill="#050F65"/>
</svg>
