<svg width="78" height="81" viewBox="0 0 78 81" fill="none" xmlns="http://www.w3.org/2000/svg">
<g clip-path="url(#clip0_1_78862)">
<path d="M29.308 62.1658C28.5507 60.9152 27.5439 59.8313 26.3493 58.9806C20.7483 54.9936 17.0967 48.477 17.0967 41.1207C17.0967 28.9966 27.0172 19.1526 39.2355 19.1526C51.4539 19.1526 61.3752 28.9966 61.3752 41.1207C61.3769 44.5256 60.58 47.8842 59.0475 50.9307C57.5149 53.9771 55.2888 56.6278 52.5453 58.6729C51.016 59.8162 49.7224 61.2404 48.7348 62.8681L44.9055 69.1827C44.9055 69.1827 41.1255 70.014 39.2355 70.014C37.3456 70.014 33.5671 69.1827 33.5671 69.1827L29.308 62.1658Z" fill="#DBCDF0"/>
<path d="M37.2665 60.0583C34.3133 59.2682 32.7051 57.6227 31.9614 55.7528C31.191 53.816 31.3139 51.5778 31.9183 49.5812C32.5055 47.6343 33.5476 45.9298 34.5802 44.9851C35.4657 44.1764 36.3692 43.9285 37.0574 44.2859C37.7456 44.6433 38.3226 45.6066 38.4291 47.5613C38.5199 49.2828 38.6068 54.1469 38.6718 58.8207C38.8527 58.8495 39.0406 58.8766 39.2324 58.8984C39.425 58.8751 39.6129 58.8479 39.7961 58.8207C39.8611 54.1469 39.9457 49.2828 40.0388 47.5613C40.143 45.6105 40.7302 44.637 41.4089 44.2859C42.0995 43.9285 43.0022 44.1764 43.8854 44.9851C44.9204 45.9306 45.9625 47.6343 46.5528 49.5812C47.1541 51.5778 47.2793 53.816 46.5089 55.7528C45.7652 57.6227 44.1547 59.2682 41.2038 60.0583C41.1584 60.2036 40.8789 69.144 40.8789 69.144C40.8789 69.5651 40.6025 69.9023 40.2706 69.8968C39.9386 69.8914 39.6708 69.5472 39.6763 69.1261C39.6763 69.1261 39.7123 65.105 39.7718 60.484C39.5886 60.4677 38.877 60.4677 38.6938 60.484C38.754 65.105 38.79 69.1261 38.79 69.1261C38.7947 69.5472 38.5278 69.8922 38.195 69.8968C37.8623 69.9015 37.5914 69.5651 37.5867 69.144C37.589 69.144 37.3119 60.2036 37.2665 60.0583ZM37.4661 58.5643C37.4035 54.0071 37.3197 49.3403 37.2312 47.6646C37.1952 46.9895 37.0997 46.479 36.94 46.1186C36.839 45.8855 36.7145 45.7301 36.5579 45.675C36.323 45.5903 36.067 45.675 35.7875 45.842C35.2168 46.18 34.6178 46.8667 34.0933 47.7392C32.767 49.9494 31.8862 53.4004 33.4599 55.8965C34.2076 57.089 35.4877 58.0345 37.4661 58.5643ZM41.005 58.5643C42.9826 58.0345 44.2635 57.0882 45.0143 55.8981C46.588 53.4004 45.708 49.9494 44.3786 47.7407C43.854 46.8683 43.2551 46.1815 42.6843 45.8436C42.4072 45.6788 42.1457 45.5918 41.9163 45.6765C41.7597 45.7348 41.6352 45.8878 41.5319 46.1201C41.3753 46.4806 41.279 46.991 41.2398 47.6661C41.1514 49.3403 41.0668 54.0071 41.005 58.5643Z" fill="black"/>
<path d="M29.308 62.1658C28.5507 60.9152 27.5439 59.8313 26.3493 58.9806C20.7483 54.9936 17.0967 48.477 17.0967 41.1207C17.0967 28.9966 27.0172 19.1526 39.2355 19.1526C51.4539 19.1526 61.3752 28.9966 61.3752 41.1207C61.3769 44.5256 60.58 47.8842 59.0475 50.9307C57.5149 53.9771 55.2888 56.6278 52.5453 58.6729C51.016 59.8162 49.7224 61.2404 48.7348 62.8681L44.9055 69.1827C44.9055 69.1827 41.1255 70.014 39.2355 70.014C37.3456 70.014 33.5671 69.1827 33.5671 69.1827L29.308 62.1658ZM30.9091 61.2103L34.7454 67.5427C35.8815 67.7757 37.993 68.1642 39.2316 68.1642C40.4702 68.1642 42.5818 67.7757 43.7186 67.5427L47.1298 61.9172C48.2409 60.0857 49.6961 58.483 51.4163 57.1961C53.9284 55.3234 55.9668 52.8964 57.3703 50.107C58.7737 47.3176 59.5037 44.2423 59.5024 41.1246C59.5024 30.0236 50.4204 21.0109 39.2316 21.0109C28.0428 21.0109 18.9616 30.0228 18.9616 41.1246C18.9604 44.3227 19.7285 47.4749 21.202 50.3193C22.6756 53.1636 24.812 55.6179 27.4337 57.4781C28.8365 58.474 30.0192 59.7441 30.9091 61.2103Z" fill="white"/>
<path d="M28.9247 62.4075C28.198 61.203 27.2299 60.1594 26.0804 59.3411C20.3697 55.2725 16.6484 48.627 16.6484 41.1254C16.6484 28.7557 26.7701 18.7129 39.2359 18.7129C51.7017 18.7129 61.8242 28.7557 61.8242 41.1254C61.8259 44.5969 61.0139 48.0212 59.4523 51.1278C57.8908 54.2343 55.6225 56.9379 52.8268 59.0249C51.337 60.1401 50.0782 61.5303 49.1196 63.1191L45.5432 69.046C45.4313 69.2311 45.2819 69.3913 45.1046 69.5165C44.9273 69.6416 44.7258 69.729 44.5129 69.7731C43.4128 69.9984 40.7391 70.5104 39.2367 70.5104C37.7343 70.5104 35.0613 69.9984 33.9621 69.7724C33.7491 69.7283 33.5475 69.641 33.3702 69.5159C33.1929 69.3907 33.0436 69.2304 32.9318 69.0452C32.2342 67.8907 30.251 64.6045 28.9247 62.4075ZM29.6944 61.9506C31.0206 64.1469 33.003 67.4339 33.6998 68.5876C33.7482 68.667 33.8127 68.7356 33.889 68.789C33.9654 68.8425 34.0522 68.8797 34.1437 68.8984C35.2054 69.1167 37.7867 69.6178 39.2328 69.6178C40.6788 69.6178 43.2633 69.1167 44.3265 68.8984C44.418 68.8794 44.5046 68.8421 44.5809 68.7886C44.6573 68.7352 44.7218 68.6668 44.7704 68.5876L48.3461 62.6615C49.3636 60.9733 50.7003 59.496 52.2826 58.3109C57.5283 54.3806 60.9246 48.1414 60.9246 41.1215C60.9246 29.2428 51.2045 19.6017 39.2328 19.6017C27.261 19.6017 17.5457 29.246 17.5457 41.1215C17.5442 44.542 18.3652 47.9136 19.9406 50.956C21.5159 53.9985 23.8001 56.6241 26.6034 58.6147C27.8527 59.5053 28.9047 60.6406 29.6944 61.9506Z" fill="black"/>
<path d="M45.3653 72.9102C45.3651 72.6675 45.3112 72.4278 45.2074 72.208C45.1037 71.9882 44.9526 71.7937 44.7649 71.6381C44.5771 71.4825 44.3572 71.3697 44.1208 71.3077C43.8843 71.2456 43.637 71.2357 43.3963 71.2788C42.0653 71.5173 40.3483 71.7775 39.2374 71.7775C38.1264 71.7775 36.411 71.5173 35.0777 71.2788C34.837 71.2357 34.5897 71.2456 34.3533 71.3077C34.1168 71.3697 33.897 71.4826 33.7093 71.6381C33.5216 71.7937 33.3706 71.9883 33.267 72.2081C33.1633 72.4279 33.1095 72.6676 33.1094 72.9102V73.2435C33.1095 73.7221 33.2783 74.1856 33.5866 74.5537C33.8949 74.9217 34.3232 75.1712 34.7974 75.2588C36.162 75.5082 38.0465 75.808 39.2374 75.808C40.3335 75.808 42.0089 75.5556 43.3328 75.3202C43.903 75.2195 44.4193 74.9231 44.7915 74.4829C45.1636 74.0426 45.3679 73.4864 45.3685 72.9118L45.3653 72.9102Z" fill="black"/>
<path d="M44.678 77.9825C44.6782 77.767 44.6306 77.554 44.5387 77.3587C44.4467 77.1634 44.3127 76.9905 44.1459 76.8523C43.9792 76.7141 43.784 76.6139 43.5739 76.5588C43.3639 76.5038 43.1443 76.4952 42.9305 76.5336C41.7467 76.7449 40.2239 76.9765 39.2374 76.9765C38.251 76.9765 36.7321 76.7434 35.5452 76.5336C35.3315 76.4959 35.112 76.505 34.9022 76.5603C34.6925 76.6157 34.4975 76.7159 34.3309 76.8539C34.1643 76.992 34.0301 77.1646 33.9379 77.3595C33.8456 77.5545 33.7975 77.7671 33.7969 77.9825V78.2832C33.797 78.7064 33.9464 79.1162 34.2191 79.4415C34.4918 79.7669 34.8706 79.9873 35.2899 80.0646C36.5019 80.2868 38.1789 80.554 39.2374 80.554C40.2083 80.554 41.6982 80.3295 42.8741 80.1205C43.3793 80.0296 43.8362 79.7656 44.1653 79.3746C44.4943 78.9836 44.6747 78.4904 44.6749 77.981L44.678 77.9825Z" fill="black"/>
<path d="M40.8031 1.62137C40.8031 1.19135 40.6309 0.778957 40.3245 0.474891C40.0181 0.170826 39.6025 0 39.1691 0C38.7358 0 38.3202 0.170826 38.0137 0.474891C37.7073 0.778957 37.5352 1.19135 37.5352 1.62137V13.124C37.5352 13.554 37.7073 13.9664 38.0137 14.2705C38.3202 14.5745 38.7358 14.7454 39.1691 14.7454C39.6025 14.7454 40.0181 14.5745 40.3245 14.2705C40.6309 13.9664 40.8031 13.554 40.8031 13.124V1.62137Z" fill="#DBCDF0"/>
<path d="M40.8031 1.62137V13.124C40.8031 13.554 40.6309 13.9664 40.3245 14.2705C40.0181 14.5745 39.6025 14.7454 39.1691 14.7454C38.7358 14.7454 38.3202 14.5745 38.0137 14.2705C37.7073 13.9664 37.5352 13.554 37.5352 13.124V1.62137C37.5352 1.19135 37.7073 0.778957 38.0137 0.474891C38.3202 0.170826 38.7358 0 39.1691 0C39.6025 0 40.0181 0.170826 40.3245 0.474891C40.6309 0.778957 40.8031 1.19135 40.8031 1.62137ZM40.1298 1.62137C40.1299 1.49612 40.1051 1.37208 40.0569 1.25634C40.0086 1.1406 39.9379 1.03542 39.8487 0.946824C39.7595 0.858225 39.6535 0.787937 39.5369 0.739984C39.4203 0.69203 39.2953 0.66735 39.1691 0.66735C38.9141 0.66735 38.6696 0.767863 38.4893 0.946777C38.309 1.12569 38.2077 1.36835 38.2077 1.62137V13.124C38.2077 13.377 38.309 13.6197 38.4893 13.7986C38.6696 13.9775 38.9141 14.078 39.1691 14.078C39.2953 14.078 39.4203 14.0533 39.5369 14.0054C39.6535 13.9574 39.7595 13.8871 39.8487 13.7985C39.9379 13.7099 40.0086 13.6048 40.0569 13.489C40.1051 13.3733 40.1299 13.2492 40.1298 13.124V1.62137Z" fill="black"/>
<path d="M1.42472 39.6493C0.99518 39.7052 0.605548 39.928 0.341337 40.2687C0.0771257 40.6093 -0.0400778 41.0401 0.0154496 41.4665C0.0714152 41.8929 0.295788 42.2797 0.639216 42.542C0.982645 42.8042 1.41699 42.9204 1.84671 42.8649L12.4014 41.5069C12.831 41.4511 13.2208 41.2284 13.485 40.8877C13.7493 40.547 13.8664 40.1161 13.8106 39.6897C13.7545 39.2634 13.53 38.8767 13.1867 38.6144C12.8433 38.3522 12.4091 38.236 11.9794 38.2913L1.42472 39.6493Z" fill="#DBCDF0"/>
<path d="M76.5754 38.3963C77.0049 38.4522 77.3946 38.675 77.6588 39.0157C77.923 39.3563 78.0402 39.7871 77.9846 40.2134C77.9285 40.6398 77.7041 41.0265 77.3607 41.2887C77.0173 41.5509 76.5831 41.6671 76.1534 41.6118L65.5987 40.2546C65.386 40.2272 65.1808 40.1585 64.9948 40.0524C64.8088 39.9462 64.6457 39.8048 64.5149 39.6361C64.384 39.4675 64.2879 39.2748 64.2321 39.0693C64.1762 38.8638 64.1618 38.6493 64.1895 38.4382C64.2454 38.012 64.4697 37.6252 64.8129 37.363C65.1562 37.1008 65.5903 36.9845 66.0199 37.0398L76.5754 38.3963Z" fill="#DBCDF0"/>
<path d="M1.42482 39.6493L11.9795 38.292C12.4092 38.2367 12.8434 38.353 13.1868 38.6152C13.5302 38.8774 13.7546 39.2641 13.8107 39.6905C13.8665 40.1168 13.7494 40.5477 13.4851 40.8884C13.2209 41.2292 12.8311 41.4519 12.4015 41.5076L1.84681 42.8656C1.41709 42.9211 0.982744 42.805 0.639316 42.5427C0.295888 42.2805 0.0715149 41.8936 0.0155493 41.4672C-0.0402015 41.0407 0.0768979 40.6098 0.341131 40.2689C0.605363 39.9281 0.995126 39.7052 1.42482 39.6493ZM1.51094 40.312C1.38573 40.3281 1.26494 40.3685 1.15549 40.4309C1.04604 40.4934 0.950067 40.5766 0.873062 40.6759C0.796057 40.7752 0.739534 40.8886 0.706719 41.0095C0.673903 41.1305 0.665439 41.2567 0.681817 41.381C0.698041 41.5051 0.73876 41.6249 0.801646 41.7335C0.864531 41.842 0.948353 41.9372 1.04832 42.0136C1.14829 42.09 1.26245 42.1461 1.38428 42.1787C1.50611 42.2114 1.63321 42.2198 1.75834 42.2037L12.313 40.8457C12.4382 40.8297 12.559 40.7893 12.6685 40.727C12.778 40.6646 12.874 40.5815 12.9511 40.4823C13.0281 40.383 13.0848 40.2697 13.1177 40.1488C13.1506 40.0279 13.1592 39.9017 13.1429 39.7775C13.1268 39.6532 13.0861 39.5334 13.0233 39.4247C12.9604 39.3161 12.8766 39.2208 12.7766 39.1443C12.6767 39.0678 12.5625 39.0116 12.4406 38.979C12.3187 38.9463 12.1916 38.9378 12.0664 38.954L1.51094 40.312Z" fill="black"/>
<path d="M76.5746 38.3961L66.0199 37.0381C65.5903 36.9828 65.1562 37.0991 64.8129 37.3613C64.4697 37.6235 64.2454 38.0103 64.1895 38.4365C64.1618 38.6476 64.1762 38.8621 64.2321 39.0676C64.2879 39.2731 64.384 39.4657 64.5149 39.6344C64.6457 39.8031 64.8088 39.9445 64.9948 40.0507C65.1808 40.1568 65.386 40.2255 65.5987 40.2529L76.1549 41.614C76.5846 41.6693 77.0189 41.5531 77.3622 41.2909C77.7056 41.0287 77.93 40.6419 77.9862 40.2156C78.014 40.0042 77.9996 39.7893 77.9437 39.5834C77.8877 39.3775 77.7915 39.1846 77.6604 39.0156C77.5293 38.8466 77.3659 38.7049 77.1796 38.5986C76.9933 38.4924 76.7877 38.4235 76.5746 38.3961ZM76.4885 39.0588C76.6137 39.0748 76.7345 39.1152 76.844 39.1775C76.9534 39.2399 77.0495 39.3231 77.1265 39.4223C77.2036 39.5215 77.2602 39.6348 77.2931 39.7557C77.3261 39.8766 77.3346 40.0028 77.3184 40.127C77.3022 40.2513 77.2616 40.3712 77.1988 40.4798C77.1359 40.5884 77.0521 40.6837 76.9521 40.7602C76.8521 40.8367 76.738 40.8929 76.6161 40.9255C76.4942 40.9582 76.367 40.9667 76.2418 40.9506L65.6864 39.5941C65.5612 39.5781 65.4404 39.5378 65.3309 39.4754C65.2214 39.413 65.1254 39.3299 65.0483 39.2307C64.9713 39.1315 64.9146 39.0182 64.8817 38.8972C64.8488 38.7763 64.8402 38.6501 64.8565 38.5259C64.8727 38.4016 64.9135 38.2817 64.9764 38.1731C65.0393 38.0644 65.1232 37.9692 65.2232 37.8927C65.3233 37.8162 65.4375 37.76 65.5595 37.7274C65.6814 37.6947 65.8086 37.6862 65.9338 37.7024L76.4885 39.0588Z" fill="black"/>
<path d="M61.3809 24.6452C61.3809 24.6452 64.2354 20.0615 65.9641 18.7494C67.2082 17.8055 68.7459 17.7254 69.3957 18.5691C70.0455 19.4128 69.5632 20.8641 68.3184 21.808C66.5905 23.1178 61.3809 24.6452 61.3809 24.6452Z" fill="#DBCDF0"/>
<path d="M19.0031 24.6452C19.0031 24.6452 16.1493 20.0615 14.4214 18.7494C13.1765 17.8055 11.6381 17.7254 10.989 18.5691C10.34 19.4128 10.8215 20.8641 12.0663 21.808C13.7935 23.1178 19.0031 24.6452 19.0031 24.6452Z" fill="#DBCDF0"/>
<path d="M61.3809 24.6452C61.3809 24.6452 64.2354 20.0615 65.9641 18.7494C67.2082 17.8055 68.7459 17.7254 69.3957 18.5691C70.0455 19.4128 69.5632 20.8641 68.3184 21.808C66.5905 23.1178 61.3809 24.6452 61.3809 24.6452ZM63.0696 23.3657C63.9222 23.0805 64.9808 22.703 65.9485 22.2943C66.7369 21.9603 67.4611 21.6177 67.9058 21.2766C68.7185 20.6605 69.034 19.7135 68.6104 19.1619C68.1869 18.6103 67.1824 18.6639 66.3697 19.28C65.9211 19.6203 65.3973 20.2239 64.8657 20.8905C64.2158 21.7093 63.5707 22.6245 63.0696 23.3657Z" fill="black"/>
<path d="M19.0031 24.6452C19.0031 24.6452 16.1493 20.0615 14.4214 18.7494C13.1765 17.8055 11.6381 17.7254 10.989 18.5691C10.34 19.4128 10.8215 20.8641 12.0663 21.808C13.7935 23.1178 19.0031 24.6452 19.0031 24.6452ZM17.3143 23.3657C16.4633 23.0805 15.4039 22.703 14.4362 22.2943C13.6478 21.9603 12.9236 21.6177 12.4789 21.2766C11.6662 20.6605 11.3507 19.7135 11.7743 19.1619C12.1979 18.6103 13.2031 18.6639 14.0158 19.28C14.4644 19.6203 14.989 20.2239 15.5198 20.8905C16.1689 21.7093 16.8132 22.6245 17.3143 23.3657Z" fill="black"/>
</g>
<defs>
<clipPath id="clip0_1_78862">
<rect width="78" height="81" fill="white"/>
</clipPath>
</defs>
</svg>
