<svg width="74" height="82" viewBox="0 0 74 82" fill="none" xmlns="http://www.w3.org/2000/svg">
<g clip-path="url(#clip0_1_79114)">
<path d="M36.0556 21.0132C36.0405 20.8439 35.9604 20.6872 35.8324 20.5763C35.7044 20.4655 35.5386 20.4092 35.3701 20.4195C34.8246 20.4406 34.2852 20.2972 33.8211 20.0078C33.357 19.7184 32.9892 19.2961 32.7649 18.7949C32.5536 18.2861 32.5043 17.7237 32.6238 17.1855C32.7433 16.6472 33.0258 16.1596 33.4322 15.7898C33.5579 15.6742 33.6354 15.5149 33.649 15.3441C33.6625 15.1732 33.6112 15.0036 33.5053 14.8694C32.9353 14.155 32.285 13.5095 31.5675 12.9457C31.4346 12.838 31.2659 12.7857 31.0959 12.7994C30.9259 12.8131 30.7675 12.8918 30.6534 13.0193C30.2793 13.4111 29.7997 13.6842 29.2736 13.8052C28.7474 13.9262 28.1976 13.8898 27.6917 13.7004C27.1911 13.4907 26.7661 13.1319 26.4737 12.6721C26.1812 12.2123 26.0353 11.6735 26.0555 11.1279C26.061 10.9591 26.0028 10.7945 25.8925 10.6672C25.7823 10.54 25.6282 10.4595 25.4613 10.4422C24.5653 10.3409 23.6608 10.3409 22.7648 10.4422C22.5967 10.4619 22.4426 10.546 22.3345 10.6771C22.2264 10.8083 22.1726 10.9763 22.1843 11.1463C22.2149 11.6973 22.0759 12.2444 21.7864 12.713C21.4968 13.1816 21.0708 13.5489 20.5664 13.7649C20.0573 13.9607 19.5022 14.001 18.9705 13.8806C18.4388 13.7603 17.9542 13.4847 17.5773 13.0884C17.4644 12.9588 17.3058 12.8786 17.1351 12.8649C16.9645 12.8511 16.7952 12.9049 16.6632 13.0147C15.9586 13.5809 15.322 14.228 14.7665 14.943C14.6611 15.0771 14.6097 15.2462 14.6224 15.4167C14.6351 15.5872 14.711 15.7467 14.8351 15.8634C15.2268 16.226 15.5002 16.6997 15.6192 17.2219C15.7382 17.7441 15.6973 18.2903 15.5018 18.7887C15.3063 19.287 14.9654 19.7139 14.5241 20.0133C14.0828 20.3126 13.5618 20.4703 13.0298 20.4655C12.8531 20.4618 12.6805 20.5191 12.5408 20.628C12.4011 20.7369 12.3026 20.8907 12.2619 21.0638C12.2208 21.4319 12.1979 21.8047 12.1934 22.1729C12.1969 22.5666 12.2214 22.9599 12.2665 23.351C12.2805 23.5216 12.3609 23.6798 12.4901 23.7909C12.6194 23.9021 12.7871 23.9574 12.9566 23.9447C13.5019 23.9249 14.0406 24.0694 14.5038 24.3596C14.9671 24.6498 15.3339 25.0726 15.5572 25.5738C15.7692 26.0826 15.8189 26.6451 15.6993 27.1835C15.5798 27.7219 15.2969 28.2096 14.8899 28.579C14.7632 28.6939 14.6851 28.8534 14.6715 29.0245C14.6579 29.1957 14.7099 29.3656 14.8168 29.4994C15.3896 30.2142 16.0412 30.8612 16.7592 31.4277C16.8916 31.5364 17.0606 31.5895 17.231 31.5758C17.4013 31.562 17.5598 31.4826 17.6733 31.354C18.0494 30.9638 18.5315 30.6941 19.0591 30.5787C19.5868 30.4632 20.1366 30.5072 20.6395 30.7051C21.1395 30.915 21.5642 31.273 21.8573 31.7317C22.1504 32.1904 22.2979 32.728 22.2803 33.2731C22.2734 33.4425 22.3304 33.6082 22.4397 33.7371C22.549 33.8659 22.7027 33.9484 22.8699 33.968C23.7643 34.0716 24.6675 34.0716 25.5619 33.968C25.7308 33.9494 25.8861 33.8657 25.9951 33.7345C26.1041 33.6032 26.1585 33.4346 26.1469 33.2639C26.1174 32.7125 26.2573 32.1652 26.5476 31.6967C26.838 31.2282 27.2646 30.8611 27.7694 30.6453C28.2779 30.4505 28.8321 30.4107 29.3628 30.531C29.8936 30.6513 30.3774 30.9264 30.7539 31.3218C30.8675 31.4501 31.0255 31.5296 31.1955 31.5442C31.3655 31.5588 31.5346 31.5072 31.668 31.4001C32.3685 30.8275 33.0046 30.1794 33.5647 29.4672C33.6717 29.3334 33.7237 29.1635 33.7101 28.9923C33.6965 28.8212 33.6183 28.6617 33.4916 28.5468C33.0955 28.1834 32.8182 27.7075 32.6966 27.182C32.5749 26.6565 32.6145 26.1063 32.8102 25.6039C33.0059 25.1016 33.3484 24.671 33.7924 24.3689C34.2365 24.0669 34.7611 23.9077 35.2969 23.9125C35.4721 23.9159 35.6433 23.8595 35.7827 23.7526C35.9221 23.6456 36.0215 23.4944 36.0648 23.3234C36.1596 22.5594 36.1596 21.7864 36.0648 21.0224L36.0556 21.0132ZM24.1725 27.8933C23.0619 27.8535 21.9875 27.4857 21.0831 26.8354C20.1787 26.1852 19.4842 25.2814 19.0863 24.2367C18.6884 23.1919 18.6045 22.0523 18.8452 20.9599C19.0859 19.8675 19.6405 18.8706 20.4399 18.0933C21.2392 17.3159 22.2481 16.7926 23.3407 16.5885C24.4333 16.3844 25.5615 16.5086 26.5845 16.9455C27.6076 17.3823 28.4804 18.1127 29.0942 19.0455C29.708 19.9783 30.0357 21.0723 30.0364 22.1913C29.9819 23.7211 29.3405 25.1701 28.2469 26.2335C27.1533 27.2969 25.6928 27.8919 24.1725 27.8933Z" fill="#DBCDF0"/>
<path d="M22.0977 22.196C22.0968 21.7826 22.2177 21.3782 22.4451 21.034C22.6726 20.6898 22.9963 20.4213 23.3754 20.2624C23.7545 20.1036 24.1718 20.0615 24.5746 20.1416C24.9775 20.2217 25.3476 20.4204 25.6383 20.7124C25.9289 21.0044 26.127 21.3767 26.2074 21.7821C26.2878 22.1875 26.247 22.6078 26.0901 22.9899C25.9332 23.3719 25.6672 23.6985 25.3259 23.9283C24.9846 24.1581 24.5832 24.2807 24.1726 24.2807C23.6231 24.2807 23.096 24.0613 22.707 23.6704C22.318 23.2796 22.0989 22.7493 22.0977 22.196Z" fill="#3D3D3D"/>
<path d="M15.6536 11.7492C15.6484 11.6941 15.6325 11.6406 15.6067 11.5917C15.5809 11.5429 15.5457 11.4996 15.5032 11.4646C15.4607 11.4295 15.4117 11.4032 15.3591 11.3873C15.3064 11.3714 15.2512 11.3661 15.1965 11.3718C14.8464 11.3836 14.5007 11.2906 14.203 11.1047C13.9053 10.9187 13.6689 10.6482 13.5238 10.3272C13.3869 10 13.3548 9.63802 13.4318 9.29159C13.5088 8.94516 13.6911 8.63151 13.9534 8.39429C14.0338 8.32023 14.0832 8.2182 14.0917 8.10884C14.1002 7.99947 14.0671 7.89095 13.9991 7.80522C13.6322 7.34528 13.2135 6.92984 12.7514 6.56726C12.6673 6.50046 12.5612 6.46809 12.4545 6.47662C12.3477 6.48516 12.248 6.53396 12.1755 6.61328C11.9362 6.86762 11.6287 7.0465 11.2904 7.1282C10.952 7.2099 10.5974 7.19089 10.2696 7.07349C9.94812 6.93736 9.67539 6.70596 9.48763 6.41004C9.29987 6.11412 9.20597 5.76768 9.2184 5.41674C9.22619 5.3056 9.1911 5.19572 9.12043 5.10999C9.04977 5.02426 8.94897 4.96929 8.83906 4.95653C8.26343 4.89209 7.68248 4.89209 7.10685 4.95653C6.99777 4.97038 6.8981 5.02582 6.82839 5.11143C6.75867 5.19704 6.7242 5.30631 6.73208 5.41674C6.75132 5.7707 6.66155 6.12201 6.47504 6.42266C6.28852 6.72331 6.01436 6.95865 5.69002 7.0965C5.36163 7.22075 5.00384 7.24332 4.66261 7.16132C4.32138 7.07932 4.01228 6.89648 3.77501 6.63629C3.70206 6.55438 3.60058 6.50389 3.49165 6.49532C3.38271 6.48675 3.27469 6.52076 3.18999 6.59027C2.73891 6.9563 2.331 7.37322 1.97425 7.83284C1.90687 7.91708 1.87405 8.02409 1.88255 8.13192C1.89105 8.23975 1.94022 8.34021 2.01996 8.4127C2.27534 8.6455 2.45424 8.9511 2.53285 9.28883C2.61146 9.62655 2.58604 9.98037 2.45999 10.3032C2.33393 10.626 2.11321 10.9025 1.82722 11.0959C1.54123 11.2893 1.20352 11.3903 0.859064 11.3856C0.745319 11.3836 0.634318 11.4209 0.544519 11.4912C0.45472 11.5616 0.391531 11.6607 0.365456 11.7722C0.338033 12.0069 0.324326 12.2324 0.319756 12.4855C0.315185 12.7387 0.319751 12.9918 0.365456 13.2403C0.370028 13.2958 0.385547 13.3498 0.411107 13.3992C0.436667 13.4486 0.471755 13.4924 0.514315 13.5279C0.556874 13.5635 0.60605 13.5902 0.658968 13.6064C0.711886 13.6226 0.767481 13.628 0.8225 13.6223C1.17313 13.6109 1.51922 13.7046 1.81698 13.8914C2.11474 14.0781 2.3508 14.3497 2.49528 14.6715C2.63175 14.998 2.66371 15.3592 2.5867 15.7049C2.5097 16.0505 2.32756 16.3633 2.06566 16.5998C1.98529 16.6739 1.93586 16.7759 1.92737 16.8853C1.91889 16.9946 1.95198 17.1032 2.01996 17.1889C2.3882 17.6476 2.80676 18.0629 3.26769 18.4268C3.35191 18.4941 3.45853 18.5264 3.56564 18.517C3.67274 18.5076 3.7722 18.4572 3.84356 18.3762C4.08426 18.1241 4.39319 17.9487 4.732 17.8718C5.07081 17.7949 5.42459 17.8199 5.74943 17.9436C6.07057 18.0776 6.34336 18.3072 6.53124 18.6017C6.71912 18.8961 6.81312 19.2414 6.80064 19.5912C6.79285 19.7023 6.82794 19.8122 6.89861 19.8979C6.96927 19.9836 7.07006 20.0386 7.17998 20.0514C7.75408 20.1158 8.33351 20.1158 8.90761 20.0514C9.01753 20.0386 9.11832 19.9836 9.18899 19.8979C9.25965 19.8122 9.29475 19.7023 9.28696 19.5912C9.26772 19.2372 9.35749 18.8859 9.544 18.5852C9.73052 18.2846 10.0047 18.0493 10.329 17.9114C10.655 17.7851 11.0108 17.7587 11.3516 17.8357C11.6924 17.9127 12.0029 18.0896 12.244 18.344C12.3164 18.4266 12.4175 18.4779 12.5265 18.4874C12.6354 18.4968 12.7438 18.4636 12.829 18.3946C13.279 18.029 13.6868 17.6138 14.0448 17.1567C14.1125 17.0717 14.1454 16.9639 14.1369 16.8553C14.1284 16.7467 14.0791 16.6455 13.9991 16.5722C13.7445 16.3387 13.5663 16.0328 13.4881 15.6951C13.41 15.3574 13.4355 15.0037 13.5614 14.6809C13.6872 14.3582 13.9074 14.0815 14.1929 13.8875C14.4784 13.6935 14.8156 13.5914 15.16 13.5947C15.2727 13.598 15.3831 13.5624 15.4729 13.4937C15.5627 13.425 15.6265 13.3275 15.6536 13.2173C15.681 12.978 15.6947 12.7571 15.6993 12.4994C15.7039 12.2416 15.681 12.0023 15.6536 11.7492ZM8.01638 16.1672C7.29754 16.1446 6.6013 15.909 6.01477 15.4899C5.42824 15.0708 4.97748 14.4869 4.71889 13.8112C4.46029 13.1354 4.40535 12.3979 4.56093 11.6909C4.71651 10.9839 5.07571 10.3388 5.59358 9.83626C6.11145 9.33376 6.76499 8.99621 7.47242 8.86583C8.17986 8.73546 8.90977 8.81805 9.57082 9.10328C10.2319 9.3885 10.7947 9.8637 11.1889 10.4694C11.5831 11.0751 11.7911 11.7844 11.787 12.5086C11.7503 13.491 11.3371 14.4209 10.634 15.1031C9.93097 15.7853 8.99275 16.1667 8.01638 16.1672Z" fill="#DBCDF0"/>
<path d="M8.01652 13.8478C8.75106 13.8478 9.34652 13.2483 9.34652 12.5086C9.34652 11.769 8.75106 11.1694 8.01652 11.1694C7.28198 11.1694 6.68652 11.769 6.68652 12.5086C6.68652 13.2483 7.28198 13.8478 8.01652 13.8478Z" fill="#DBCDF0"/>
<path d="M24.4514 5.02554C24.4433 4.94618 24.4049 4.87308 24.3444 4.82159C24.2839 4.7701 24.2059 4.74423 24.1269 4.74941C23.8693 4.75868 23.6149 4.69053 23.3959 4.55366C23.177 4.41679 23.0034 4.21739 22.8974 3.98087C22.7977 3.7408 22.7745 3.4755 22.831 3.2216C22.8875 2.9677 23.0209 2.73772 23.2128 2.56342C23.2717 2.50811 23.308 2.43272 23.3148 2.35192C23.3215 2.27112 23.2982 2.19068 23.2493 2.12622C22.9802 1.78556 22.6736 1.47677 22.3353 1.20581C22.2733 1.15665 22.1952 1.13269 22.1165 1.13866C22.0378 1.14462 21.9642 1.18008 21.9102 1.23802C21.7337 1.42318 21.5072 1.55232 21.2587 1.60956C21.0103 1.6668 20.7506 1.64963 20.5116 1.56017C20.2753 1.46097 20.0747 1.29148 19.9367 1.07435C19.7987 0.857232 19.7298 0.602839 19.7392 0.345215C19.742 0.265938 19.7147 0.188576 19.6629 0.128773C19.6112 0.068969 19.5388 0.0311885 19.4604 0.0230704C19.0366 -0.0229896 18.6091 -0.0229896 18.1853 0.0230704C18.1057 0.0334315 18.0331 0.0739464 17.9821 0.136364C17.9312 0.198781 17.9058 0.278404 17.9111 0.359021C17.9251 0.618652 17.8593 0.876331 17.7228 1.09701C17.5862 1.31768 17.3854 1.49065 17.1478 1.59238C16.9076 1.68597 16.6452 1.70576 16.3939 1.64924C16.1425 1.59272 15.9134 1.46243 15.7355 1.27484C15.6827 1.21525 15.6093 1.17824 15.5303 1.17139C15.4513 1.16455 15.3726 1.18839 15.3105 1.23802C14.9715 1.50823 14.6647 1.8171 14.3964 2.15844C14.3476 2.22087 14.3238 2.29946 14.3297 2.3787C14.3356 2.45794 14.3708 2.53206 14.4284 2.58643C14.6179 2.75655 14.7512 2.98103 14.8103 3.22968C14.8693 3.47833 14.8514 3.73923 14.7588 3.97729C14.6662 4.21535 14.5034 4.41916 14.2924 4.56131C14.0814 4.70346 13.8322 4.77714 13.5783 4.77242C13.4948 4.77086 13.4133 4.79774 13.3469 4.8487C13.2806 4.89966 13.2332 4.97171 13.2127 5.05315C13.2127 5.22803 13.1852 5.40291 13.1807 5.57779C13.1836 5.76391 13.1958 5.94976 13.2172 6.13464C13.2242 6.21483 13.2621 6.28907 13.3227 6.34153C13.3833 6.39398 13.4619 6.42048 13.5417 6.41537C13.7989 6.40793 14.0526 6.47683 14.2712 6.61348C14.4898 6.75014 14.6637 6.94851 14.7712 7.18392C14.8712 7.42467 14.8946 7.69074 14.8381 7.94545C14.7816 8.20015 14.6481 8.43093 14.4558 8.60596C14.3966 8.65914 14.3599 8.73308 14.3531 8.81265C14.3463 8.89222 14.37 8.97139 14.4192 9.03396C14.6885 9.37447 14.9952 9.68323 15.3333 9.95438C15.3955 10.004 15.4741 10.0278 15.5531 10.021C15.6322 10.0142 15.7056 9.97715 15.7584 9.91756C15.9348 9.73217 16.1615 9.60319 16.4102 9.54672C16.6589 9.49025 16.9186 9.50879 17.1569 9.60001C17.3925 9.69893 17.5926 9.86772 17.7306 10.0839C17.8685 10.3001 17.9379 10.5535 17.9294 10.8104C17.9265 10.8901 17.9536 10.9681 18.0053 11.0286C18.057 11.0892 18.1294 11.1279 18.2081 11.1371C18.6302 11.1877 19.0567 11.1877 19.4787 11.1371C19.5588 11.1289 19.6325 11.0899 19.6845 11.0281C19.7365 10.9663 19.7627 10.8866 19.7575 10.8058C19.7422 10.5459 19.8074 10.2876 19.9441 10.0667C20.0808 9.84574 20.2823 9.67302 20.5208 9.5724C20.7602 9.47857 21.022 9.45866 21.2727 9.51521C21.5234 9.57177 21.7517 9.70222 21.9285 9.88994C21.9827 9.9489 22.0567 9.98536 22.1362 9.99217C22.2157 9.99898 22.2948 9.97566 22.3581 9.92676C22.696 9.6553 23.0026 9.34657 23.2722 9.00634C23.321 8.94391 23.3448 8.86532 23.3389 8.78608C23.333 8.70684 23.2977 8.63272 23.2402 8.57835C23.0515 8.40751 22.919 8.18278 22.8604 7.93414C22.8018 7.6855 22.8198 7.42478 22.9122 7.18676C23.0046 6.94874 23.1668 6.74475 23.3773 6.60199C23.5878 6.45923 23.8365 6.38449 24.0903 6.38776C24.1731 6.38958 24.2542 6.36335 24.3205 6.31329C24.3868 6.26323 24.4345 6.19222 24.4559 6.11163C24.4743 5.93582 24.4835 5.75917 24.4834 5.58239C24.4841 5.39629 24.4734 5.21031 24.4514 5.02554ZM18.8389 8.27461C18.3146 8.25565 17.8074 8.08178 17.3805 7.77467C16.9536 7.46755 16.6259 7.04076 16.4382 6.54745C16.2504 6.05415 16.211 5.51613 16.3247 5.00042C16.4385 4.4847 16.7004 4.01408 17.0779 3.64717C17.4553 3.28026 17.9317 3.03329 18.4475 2.937C18.9634 2.84071 19.496 2.89938 19.979 3.10568C20.462 3.31198 20.874 3.65681 21.1638 4.09721C21.4535 4.5376 21.6082 5.05411 21.6086 5.58239C21.5825 6.30478 21.2794 6.98889 20.7629 7.49094C20.2464 7.993 19.5568 8.2739 18.8389 8.27461Z" fill="#DBCDF0"/>
<path d="M18.8394 6.56735C19.3796 6.56735 19.8175 6.12642 19.8175 5.5825C19.8175 5.03859 19.3796 4.59766 18.8394 4.59766C18.2992 4.59766 17.8613 5.03859 17.8613 5.5825C17.8613 6.12642 18.2992 6.56735 18.8394 6.56735Z" fill="#DBCDF0"/>
<path d="M37.8754 22.1913C37.8777 22.5651 37.9005 22.9384 37.944 23.3096C37.9873 23.4806 38.0867 23.6318 38.226 23.7388C38.3654 23.8457 38.5366 23.9021 38.7118 23.8987C39.2477 23.8939 39.7723 24.0531 40.2164 24.3552C40.6604 24.6572 41.0029 25.0878 41.1986 25.5902C41.3943 26.0925 41.4339 26.6428 41.3122 27.1682C41.1905 27.6937 40.9133 28.1696 40.5172 28.533C40.3905 28.6479 40.3123 28.8074 40.2987 28.9785C40.2851 29.1497 40.3371 29.3196 40.444 29.4534C41.0042 30.1656 41.6402 30.8137 42.3408 31.3863C42.4742 31.4934 42.6433 31.545 42.8133 31.5304C42.9833 31.5159 43.1413 31.4363 43.2549 31.308C43.6313 30.9126 44.1152 30.6375 44.6459 30.5172C45.1767 30.3969 45.7309 30.4367 46.2393 30.6315C46.7442 30.8473 47.1708 31.2144 47.4611 31.6829C47.7514 32.1515 47.8914 32.6987 47.8619 33.2501C47.8569 33.4134 47.912 33.5727 48.0166 33.6976C48.1212 33.8224 48.2679 33.904 48.4286 33.9266C49.323 34.0302 50.2262 34.0302 51.1206 33.9266C51.2878 33.907 51.4415 33.8245 51.5508 33.6957C51.6601 33.5668 51.7171 33.4011 51.7102 33.2317C51.7021 32.692 51.8556 32.1623 52.1507 31.7117C52.4458 31.261 52.8688 30.9103 53.3647 30.7052C53.87 30.5122 54.4208 30.4738 54.9477 30.595C55.4747 30.7162 55.9543 30.9915 56.3263 31.3863C56.4399 31.5148 56.5983 31.5943 56.7687 31.608C56.939 31.6217 57.108 31.5687 57.2404 31.4599C57.9584 30.8934 58.6101 30.2465 59.1828 29.5316C59.2898 29.3979 59.3418 29.2279 59.3282 29.0568C59.3146 28.8856 59.2364 28.7262 59.1097 28.6112C58.7027 28.2418 58.4198 27.7542 58.3003 27.2157C58.1807 26.6773 58.2304 26.1148 58.4424 25.606C58.6658 25.1048 59.0325 24.682 59.4958 24.3918C59.9591 24.1016 60.4978 23.9572 61.043 23.9769C61.2126 23.9896 61.3802 23.9344 61.5095 23.8232C61.6388 23.712 61.7191 23.5538 61.7331 23.3832C61.7783 22.9921 61.8027 22.5988 61.8063 22.2051C61.8063 21.8369 61.7788 21.4642 61.7377 21.096C61.697 20.9229 61.5985 20.7691 61.4588 20.6602C61.3191 20.5513 61.1465 20.494 60.9699 20.4977C60.4359 20.5073 59.9116 20.353 59.4667 20.0555C59.0217 19.7579 58.6772 19.3312 58.4789 18.8318C58.2805 18.3325 58.2377 17.7842 58.3561 17.2598C58.4744 16.7353 58.7485 16.2596 59.1417 15.8956C59.2658 15.7789 59.3417 15.6194 59.3544 15.4489C59.3671 15.2784 59.3157 15.1093 59.2103 14.9752C58.6548 14.2603 58.0182 13.6131 57.3135 13.047C57.1816 12.9371 57.0123 12.8833 56.8417 12.8971C56.671 12.9108 56.5124 12.991 56.3994 13.1206C56.0226 13.5169 55.5379 13.7925 55.0063 13.9129C54.4746 14.0332 53.9194 13.9929 53.4104 13.7971C52.906 13.5812 52.48 13.2139 52.1904 12.7453C51.9009 12.2766 51.7619 11.7295 51.7924 11.1785C51.8041 11.0085 51.7504 10.8405 51.6423 10.7094C51.5342 10.5782 51.3801 10.4941 51.212 10.4744C50.3159 10.3731 49.4115 10.3731 48.5154 10.4744C48.3486 10.4918 48.1945 10.5722 48.0843 10.6994C47.974 10.8267 47.9158 10.9913 47.9213 11.1601C47.9415 11.7057 47.7956 12.2445 47.5031 12.7043C47.2107 13.1641 46.7857 13.5229 46.2851 13.7327C45.7792 13.922 45.2294 13.9585 44.7032 13.8375C44.1771 13.7164 43.6975 13.4433 43.3234 13.0516C43.2092 12.924 43.0509 12.8453 42.8809 12.8316C42.7109 12.8179 42.5422 12.8703 42.4093 12.9779C41.6918 13.5417 41.0415 14.1872 40.4715 14.9016C40.3656 15.0358 40.3142 15.2055 40.3278 15.3763C40.3414 15.5472 40.4189 15.7065 40.5446 15.822C40.951 16.1918 41.2335 16.6794 41.353 17.2177C41.4725 17.756 41.4232 18.3183 41.2119 18.8272C40.9875 19.3283 40.6198 19.7506 40.1557 20.04C39.6916 20.3294 39.1522 20.4728 38.6067 20.4517C38.4382 20.4414 38.2724 20.4977 38.1444 20.6085C38.0164 20.7194 37.9363 20.8761 37.9211 21.0454C37.8843 21.4262 37.869 21.8088 37.8754 22.1913ZM43.9678 22.1913C43.9269 21.0145 44.236 19.8521 44.8556 18.8534C45.4752 17.8547 46.3771 17.0652 47.4454 16.5862C48.5137 16.1071 49.6998 15.9604 50.8515 16.1649C52.0033 16.3693 53.068 16.9156 53.9093 17.7336C54.7505 18.5516 55.3299 19.6041 55.5729 20.7559C55.816 21.9078 55.7118 23.1065 55.2736 24.1983C54.8354 25.29 54.0833 26.2251 53.1137 26.8835C52.1441 27.5418 51.0012 27.8935 49.8317 27.8933C48.3111 27.893 46.8499 27.2984 45.7561 26.2348C44.6622 25.1712 44.0211 23.7215 43.9678 22.1913Z" fill="#DBCDF0"/>
<path d="M51.9058 22.196C51.9067 21.7826 51.7858 21.3782 51.5583 21.034C51.3309 20.6898 51.0071 20.4213 50.6281 20.2624C50.249 20.1036 49.8316 20.0615 49.4288 20.1416C49.026 20.2217 48.6559 20.4204 48.3652 20.7124C48.0746 21.0044 47.8765 21.3767 47.7961 21.7821C47.7156 22.1875 47.7565 22.6078 47.9134 22.9899C48.0703 23.3719 48.3362 23.6985 48.6776 23.9283C49.0189 24.1581 49.4203 24.2807 49.8308 24.2807C50.3804 24.2807 50.9075 24.0613 51.2965 23.6704C51.6855 23.2796 51.9046 22.7493 51.9058 22.196Z" fill="#3D3D3D"/>
<path d="M58.3047 12.5086C58.3047 12.7479 58.3047 12.9688 58.3504 13.2266C58.3775 13.3368 58.4412 13.4343 58.531 13.503C58.6209 13.5716 58.7313 13.6073 58.844 13.6039C59.1884 13.6007 59.5256 13.7028 59.8111 13.8968C60.0965 14.0907 60.3168 14.3674 60.4426 14.6902C60.5685 15.013 60.594 15.3667 60.5158 15.7044C60.4377 16.0421 60.2595 16.348 60.0049 16.5815C59.9248 16.6547 59.8756 16.756 59.8671 16.8646C59.8586 16.9732 59.8915 17.081 59.9592 17.1659C60.3172 17.6231 60.725 18.0383 61.1749 18.4039C61.2602 18.4729 61.3686 18.5061 61.4775 18.4967C61.5865 18.4872 61.6876 18.4359 61.76 18.3533C62.0011 18.0989 62.3116 17.922 62.6524 17.845C62.9932 17.768 63.349 17.7944 63.675 17.9207C63.9993 18.0585 64.2735 18.2939 64.46 18.5945C64.6465 18.8952 64.7363 19.2465 64.717 19.6004C64.7092 19.7116 64.7443 19.8215 64.815 19.9072C64.8857 19.9929 64.9864 20.0479 65.0964 20.0607C65.6705 20.1251 66.2499 20.1251 66.824 20.0607C66.9339 20.0479 67.0347 19.9929 67.1054 19.9072C67.176 19.8215 67.2111 19.7116 67.2033 19.6004C67.1908 19.2507 67.2849 18.9054 67.4727 18.6109C67.6606 18.3165 67.9334 18.0869 68.2545 17.9529C68.5794 17.8292 68.9332 17.8042 69.272 17.8811C69.6108 17.958 69.9197 18.1334 70.1604 18.3855C70.2318 18.4665 70.3312 18.5168 70.4383 18.5263C70.5455 18.5357 70.6521 18.5034 70.7363 18.4361C71.1972 18.0721 71.6158 17.6569 71.984 17.1982C72.052 17.1124 72.0851 17.0039 72.0766 16.8945C72.0681 16.7852 72.0187 16.6831 71.9383 16.6091C71.6764 16.3726 71.4943 16.0598 71.4173 15.7141C71.3403 15.3685 71.3722 15.0073 71.5087 14.6808C71.6532 14.3589 71.8892 14.0874 72.187 13.9006C72.4848 13.7139 72.8308 13.6202 73.1815 13.6315C73.2365 13.6372 73.2921 13.6318 73.345 13.6156C73.3979 13.5994 73.4471 13.5728 73.4897 13.5372C73.5322 13.5016 73.5673 13.4579 73.5929 13.4085C73.6184 13.3591 73.634 13.3051 73.6385 13.2496C73.6659 13.0011 73.6797 12.7479 73.6842 12.4948C73.6888 12.2417 73.6842 12.0346 73.6385 11.7815C73.6124 11.67 73.5493 11.5708 73.4595 11.5005C73.3697 11.4302 73.2587 11.3929 73.1449 11.3949C72.8004 11.3996 72.4628 11.2985 72.1768 11.1052C71.8908 10.9118 71.6701 10.6353 71.544 10.3125C71.4179 9.98965 71.3925 9.63583 71.4711 9.29811C71.5497 8.96038 71.7286 8.65478 71.984 8.42198C72.0638 8.3495 72.1129 8.24903 72.1214 8.1412C72.1299 8.03337 72.0971 7.92636 72.0297 7.84211C71.673 7.38249 71.2651 6.96558 70.814 6.59955C70.7293 6.53004 70.6213 6.49604 70.5123 6.5046C70.4034 6.51317 70.3019 6.56366 70.229 6.64557C69.9917 6.90576 69.6826 7.0886 69.3414 7.1706C69.0001 7.2526 68.6424 7.23003 68.314 7.10578C67.9896 6.96793 67.7155 6.7326 67.5289 6.43194C67.3424 6.13129 67.2527 5.77998 67.2719 5.42602C67.2798 5.31559 67.2453 5.20632 67.1756 5.12071C67.1059 5.0351 67.0062 4.97966 66.8971 4.96581C66.3215 4.90137 65.7405 4.90137 65.1649 4.96581C65.055 4.97857 64.9542 5.03354 64.8836 5.11927C64.8129 5.205 64.7778 5.31488 64.7856 5.42602C64.798 5.77696 64.7041 6.1234 64.5163 6.41932C64.3286 6.71524 64.0558 6.94664 63.7344 7.08277C63.4066 7.20017 63.0519 7.21917 62.7136 7.13748C62.3753 7.05578 62.0678 6.87689 61.8285 6.62256C61.7559 6.54324 61.6563 6.49444 61.5495 6.4859C61.4427 6.47737 61.3367 6.50974 61.2526 6.57654C60.7905 6.93912 60.3718 7.35456 60.0049 7.8145C59.9369 7.90023 59.9038 8.00875 59.9123 8.11812C59.9208 8.22748 59.9702 8.32952 60.0506 8.40357C60.3129 8.64079 60.4952 8.95444 60.5722 9.30087C60.6492 9.6473 60.6171 10.0093 60.4802 10.3364C60.3351 10.6575 60.0987 10.928 59.801 11.1139C59.5033 11.2999 59.1576 11.3928 58.8074 11.3811C58.7528 11.3754 58.6975 11.3807 58.6449 11.3966C58.5923 11.4125 58.5433 11.4387 58.5008 11.4738C58.4583 11.5089 58.4231 11.5521 58.3973 11.601C58.3715 11.6499 58.3555 11.7034 58.3504 11.7585C58.323 12.0024 58.3093 12.2555 58.3047 12.5086ZM62.217 12.5086C62.1887 11.7512 62.386 11.0025 62.7835 10.3588C63.181 9.71509 63.7605 9.20573 64.4476 8.89615C65.1348 8.58657 65.8981 8.4909 66.6397 8.62144C67.3812 8.75198 68.067 9.10275 68.6091 9.62872C69.1511 10.1547 69.5247 10.8318 69.6817 11.5731C69.8387 12.3145 69.772 13.0861 69.4902 13.789C69.2084 14.4919 68.7243 15.0939 68.1002 15.5177C67.4761 15.9414 66.7404 16.1677 65.9876 16.1673C65.0116 16.1657 64.074 15.7839 63.3712 15.1019C62.6683 14.42 62.2548 13.4907 62.217 12.5086Z" fill="#DBCDF0"/>
<path d="M65.9882 13.8478C66.7227 13.8478 67.3182 13.2483 67.3182 12.5086C67.3182 11.769 66.7227 11.1694 65.9882 11.1694C65.2537 11.1694 64.6582 11.769 64.6582 12.5086C64.6582 13.2483 65.2537 13.8478 65.9882 13.8478Z" fill="#DBCDF0"/>
<path d="M49.5202 5.58239C49.5201 5.75917 49.5293 5.93582 49.5477 6.11163C49.5691 6.19222 49.6168 6.26323 49.6831 6.31329C49.7494 6.36335 49.8305 6.38958 49.9133 6.38776C50.1671 6.38449 50.4158 6.45923 50.6263 6.60199C50.8368 6.74475 50.999 6.94874 51.0914 7.18676C51.1838 7.42478 51.2019 7.6855 51.1432 7.93414C51.0846 8.18278 50.9521 8.40751 50.7634 8.57835C50.7058 8.63272 50.6706 8.70684 50.6647 8.78608C50.6588 8.86532 50.6826 8.94391 50.7314 9.00634C51.001 9.34657 51.3076 9.6553 51.6455 9.92676C51.7088 9.97566 51.7879 9.99898 51.8674 9.99217C51.9469 9.98536 52.021 9.9489 52.0751 9.88994C52.2519 9.70222 52.4802 9.57177 52.7309 9.51521C52.9816 9.45866 53.2434 9.47857 53.4828 9.5724C53.7213 9.67302 53.9228 9.84574 54.0595 10.0667C54.1962 10.2876 54.2614 10.5459 54.2461 10.8058C54.2409 10.8866 54.2671 10.9663 54.3191 11.0281C54.3711 11.0899 54.4448 11.1289 54.5249 11.1371C54.9469 11.1877 55.3734 11.1877 55.7955 11.1371C55.8742 11.1279 55.9466 11.0892 55.9983 11.0286C56.05 10.9681 56.0771 10.8901 56.0743 10.8104C56.0657 10.5535 56.1351 10.3001 56.273 10.0839C56.411 9.86772 56.6111 9.69893 56.8467 9.60001C57.085 9.50879 57.3447 9.49025 57.5934 9.54672C57.8421 9.60319 58.0688 9.73217 58.2452 9.91756C58.298 9.97715 58.3714 10.0142 58.4505 10.021C58.5295 10.0278 58.6081 10.004 58.6703 9.95438C59.0084 9.68323 59.3151 9.37447 59.5843 9.03396C59.6336 8.97139 59.6573 8.89222 59.6505 8.81265C59.6437 8.73308 59.607 8.65914 59.5478 8.60596C59.3555 8.43093 59.222 8.20015 59.1655 7.94545C59.109 7.69074 59.1324 7.42467 59.2324 7.18392C59.3399 6.94851 59.5138 6.75014 59.7324 6.61348C59.951 6.47683 60.2047 6.40793 60.4619 6.41537C60.5416 6.42048 60.6203 6.39398 60.6809 6.34153C60.7415 6.28907 60.7794 6.21483 60.7864 6.13464C60.8078 5.94976 60.82 5.76391 60.8229 5.57779C60.8229 5.40291 60.8229 5.22803 60.7909 5.05315C60.7703 4.97171 60.723 4.89966 60.6567 4.8487C60.5903 4.79774 60.5088 4.77086 60.4253 4.77242C60.1714 4.77714 59.9222 4.70346 59.7112 4.56131C59.5001 4.41916 59.3374 4.21535 59.2448 3.97729C59.1522 3.73923 59.1343 3.47833 59.1933 3.22968C59.2524 2.98103 59.3857 2.75655 59.5752 2.58643C59.6328 2.53206 59.668 2.45794 59.6739 2.3787C59.6798 2.29946 59.656 2.22087 59.6072 2.15844C59.3388 1.8171 59.0321 1.50823 58.6931 1.23802C58.631 1.18839 58.5523 1.16455 58.4733 1.17139C58.3943 1.17824 58.3209 1.21525 58.2681 1.27484C58.0902 1.46243 57.8611 1.59272 57.6097 1.64924C57.3584 1.70576 57.096 1.68597 56.8558 1.59238C56.6182 1.49065 56.4174 1.31768 56.2808 1.09701C56.1443 0.876331 56.0785 0.618652 56.0925 0.359021C56.0978 0.278404 56.0724 0.198781 56.0215 0.136364C55.9705 0.0739464 55.8979 0.0334315 55.8183 0.0230704C55.3945 -0.0229896 54.967 -0.0229896 54.5432 0.0230704C54.4648 0.0311885 54.3924 0.068969 54.3406 0.128773C54.2889 0.188576 54.2616 0.265938 54.2643 0.345215C54.2738 0.602839 54.2049 0.857232 54.0669 1.07435C53.9289 1.29148 53.7283 1.46097 53.4919 1.56017C53.2531 1.65329 52.9924 1.67371 52.7421 1.61889C52.4918 1.56407 52.2631 1.43643 52.0843 1.25183C52.0303 1.19388 51.9566 1.15843 51.878 1.15246C51.7993 1.1465 51.7212 1.17046 51.6592 1.21961C51.3209 1.49058 51.0142 1.79936 50.7451 2.14003C50.6963 2.20448 50.6729 2.28493 50.6797 2.36573C50.6864 2.44653 50.7228 2.52191 50.7817 2.57723C50.9735 2.75152 51.1069 2.9815 51.1634 3.23541C51.2199 3.48931 51.1967 3.75461 51.097 3.99467C50.991 4.2312 50.8175 4.4306 50.5986 4.56747C50.3796 4.70434 50.1251 4.77248 49.8676 4.76322C49.7885 4.75804 49.7106 4.78391 49.65 4.8354C49.5895 4.88689 49.5512 4.95999 49.5431 5.03935C49.5247 5.21974 49.517 5.40108 49.5202 5.58239ZM52.395 5.58239C52.3759 5.0271 52.522 4.4787 52.8144 4.00754C53.1069 3.53638 53.5325 3.16393 54.0366 2.93796C54.5407 2.71198 55.1004 2.64277 55.6438 2.73922C56.1873 2.83566 56.6897 3.09336 57.0867 3.47926C57.4837 3.86517 57.7572 4.36168 57.8721 4.90514C57.9869 5.44859 57.938 6.01422 57.7315 6.52947C57.525 7.04472 57.1703 7.48612 56.713 7.79705C56.2557 8.10798 55.7165 8.27428 55.1647 8.27461C54.4468 8.2739 53.7572 7.993 53.2407 7.49094C52.7242 6.98889 52.4211 6.30478 52.395 5.58239Z" fill="#DBCDF0"/>
<path d="M55.1607 6.56735C55.7009 6.56735 56.1388 6.12642 56.1388 5.5825C56.1388 5.03859 55.7009 4.59766 55.1607 4.59766C54.6205 4.59766 54.1826 5.03859 54.1826 5.5825C54.1826 6.12642 54.6205 6.56735 55.1607 6.56735Z" fill="#DBCDF0"/>
<path d="M44.7077 79.8094H29.0723L30.7679 73.0857L31.1564 71.5624L31.9014 68.6079H41.8741L42.6236 71.5624L43.0075 73.0857L44.7077 79.8094Z" fill="white" stroke="#3D3D3D" stroke-width="1.45" stroke-linecap="round" stroke-linejoin="round"/>
<path d="M73.6703 69.6758C73.6775 70.0997 73.5438 70.5138 73.2904 70.8524C73.037 71.1909 72.6784 71.4344 72.2718 71.5442C72.1346 71.581 71.9932 71.5995 71.8513 71.5994H2.15662C1.8083 71.5999 1.46775 71.4958 1.17855 71.3003C1.07396 71.228 0.976066 71.1464 0.886037 71.0564C0.529842 70.6865 0.331381 70.191 0.333018 69.6758V63.532H73.6703V69.6758Z" fill="white" stroke="#3D3D3D" stroke-width="1.45" stroke-linecap="round" stroke-linejoin="round"/>
<path d="M50.7135 81.6687H23.0715C22.9139 81.6687 22.7578 81.6374 22.6122 81.5765C22.4666 81.5156 22.3344 81.4264 22.2231 81.314C22.1119 81.2015 22.0238 81.068 21.9639 80.9212C21.904 80.7744 21.8734 80.6171 21.874 80.4584C21.8734 80.2997 21.904 80.1424 21.9639 79.9956C22.0238 79.8487 22.1119 79.7153 22.2231 79.6028C22.3344 79.4904 22.4666 79.4011 22.6122 79.3403C22.7578 79.2794 22.9139 79.248 23.0715 79.248H50.7135C50.8712 79.248 51.0272 79.2794 51.1728 79.3403C51.3184 79.4011 51.4506 79.4904 51.5619 79.6028C51.6731 79.7153 51.7612 79.8487 51.8211 79.9956C51.881 80.1424 51.9116 80.2997 51.911 80.4584C51.9116 80.6171 51.881 80.7744 51.8211 80.9212C51.7612 81.068 51.6731 81.2015 51.5619 81.314C51.4506 81.4264 51.3184 81.5156 51.1728 81.5765C51.0272 81.6374 50.8712 81.6687 50.7135 81.6687Z" fill="white" stroke="#3D3D3D" stroke-width="1.45" stroke-linecap="round" stroke-linejoin="round"/>
<path d="M73.6708 25.109V63.5318H0.33347V25.109C0.328009 24.8618 0.370964 24.6159 0.459894 24.3854C0.548823 24.155 0.681979 23.9444 0.851752 23.7658C1.02153 23.5871 1.22459 23.4439 1.44935 23.3443C1.6741 23.2447 1.91615 23.1907 2.16165 23.1853H71.8517C72.3459 23.1986 72.8148 23.4084 73.1557 23.7689C73.4966 24.1295 73.6818 24.6113 73.6708 25.109Z" fill="white" stroke="#3D3D3D" stroke-width="1.45" stroke-linecap="round" stroke-linejoin="round"/>
<path d="M36.8876 69.1465C36.4184 69.1452 35.9688 68.9574 35.6366 68.6238C35.3044 68.2901 35.1167 67.8378 35.1143 67.3654C35.1167 66.8926 35.3043 66.4398 35.6363 66.1055C35.9684 65.7712 36.418 65.5823 36.8876 65.5798C37.3567 65.5823 37.8059 65.7713 38.1372 66.1058C38.4686 66.4403 38.6551 66.893 38.6563 67.3654C38.6551 67.8374 38.4684 68.2897 38.137 68.6235C37.8055 68.9572 37.3563 69.1452 36.8876 69.1465Z" fill="#3D3D3D"/>
<path d="M70.426 25.4587H3.5696C2.95622 25.4587 2.45898 25.9594 2.45898 26.577V60.4254C2.45898 61.043 2.95622 61.5437 3.5696 61.5437H70.426C71.0394 61.5437 71.5366 61.043 71.5366 60.4254V26.577C71.5366 25.9594 71.0394 25.4587 70.426 25.4587Z" stroke="#3D3D3D" stroke-width="0.73" stroke-linecap="round" stroke-linejoin="round"/>
<path d="M37.459 40.5399L39.9316 43.0297L42.491 40.4525C43.1676 40.7323 43.9016 40.8424 44.6298 40.7734C45.358 40.7043 46.0586 40.4582 46.6715 40.0562C47.2843 39.6542 47.791 39.1082 48.1479 38.4654C48.5048 37.8226 48.7014 37.1021 48.7206 36.3658C48.7163 36.3337 48.7041 36.3032 48.6851 36.2771C48.6661 36.251 48.6409 36.2301 48.6117 36.2164C48.5826 36.2026 48.5505 36.1965 48.5185 36.1984C48.4864 36.2004 48.4553 36.2105 48.428 36.2278L46.8284 37.8431C46.7809 37.8896 46.7223 37.9229 46.6582 37.9399C46.5941 37.9568 46.5268 37.9568 46.4628 37.9398L43.5697 37.1482C43.505 37.1322 43.4459 37.099 43.3984 37.052C43.351 37.005 43.317 36.9461 43.3 36.8813L42.5322 33.9866C42.5142 33.9229 42.5137 33.8555 42.5306 33.7915C42.5475 33.7275 42.5812 33.6693 42.6282 33.623L44.2278 32.0077C44.2537 31.9804 44.271 31.9461 44.2778 31.909C44.2845 31.8719 44.2804 31.8337 44.2658 31.799C44.2512 31.7642 44.2269 31.7346 44.1958 31.7136C44.1647 31.6926 44.1281 31.6812 44.0907 31.6809C43.4942 31.6959 42.9066 31.8302 42.362 32.0759C41.8175 32.3216 41.3269 32.6738 40.9188 33.1122C40.3326 33.7518 39.9385 34.5458 39.7824 35.402C39.6262 36.2581 39.7144 37.1413 40.0367 37.949L37.459 40.5399Z" stroke="#DBCDF0" stroke-width="0.73" stroke-miterlimit="10"/>
<path d="M36.5454 46.4626L34.0728 43.9729L29.3698 48.7131H29.283H27.8616C27.4483 48.7134 27.0521 48.8789 26.7601 49.1733L25.75 50.1903C25.4577 50.4844 25.2933 50.8833 25.293 51.2994V52.7399C25.2933 53.156 25.4577 53.5549 25.75 53.849L26.7601 54.866C27.0521 55.1604 27.4483 55.3259 27.8616 55.3262H29.2921C29.4961 55.3265 29.6981 55.286 29.8864 55.2069C30.0747 55.1279 30.2455 55.0121 30.389 54.866L31.4036 53.849C31.696 53.5549 31.8604 53.156 31.8607 52.7399V51.2994C31.8607 51.2718 31.8607 51.2396 31.8607 51.212L36.5454 46.4626ZM30.4621 52.7307C30.4622 52.753 30.4578 52.7751 30.4491 52.7957C30.4405 52.8162 30.4278 52.8348 30.4119 52.8503L29.4018 53.8674C29.3864 53.8835 29.3679 53.8962 29.3475 53.9049C29.3271 53.9136 29.3051 53.9181 29.283 53.918H27.8616C27.8394 53.9181 27.8174 53.9136 27.797 53.9049C27.7766 53.8962 27.7581 53.8835 27.7427 53.8674L26.7327 52.8503C26.7167 52.8348 26.704 52.8162 26.6954 52.7957C26.6867 52.7751 26.6823 52.753 26.6824 52.7307V51.2902C26.6829 51.2461 26.6991 51.2036 26.7281 51.1706L27.7427 50.1535C27.7581 50.1374 27.7766 50.1247 27.797 50.116C27.8174 50.1073 27.8394 50.1028 27.8616 50.1029H29.2921C29.3367 50.1038 29.3792 50.1219 29.4109 50.1535L30.421 51.1706C30.437 51.1861 30.4496 51.2047 30.4583 51.2252C30.4669 51.2458 30.4713 51.2679 30.4713 51.2902L30.4621 52.7307Z" stroke="#DBCDF0" stroke-width="0.73" stroke-miterlimit="10"/>
<path d="M33.0851 33.1212C32.677 32.6829 32.1864 32.3306 31.6419 32.0849C31.0974 31.8392 30.5098 31.7049 29.9132 31.6899C29.8758 31.6903 29.8393 31.7016 29.8082 31.7226C29.7771 31.7436 29.7527 31.7733 29.7382 31.808C29.7236 31.8427 29.7194 31.881 29.7262 31.9181C29.7329 31.9551 29.7503 31.9894 29.7761 32.0167L31.3758 33.632C31.4228 33.6783 31.4565 33.7365 31.4734 33.8005C31.4903 33.8645 31.4897 33.9319 31.4718 33.9956L30.7039 36.8903C30.687 36.9551 30.653 37.0141 30.6055 37.061C30.558 37.108 30.4989 37.1412 30.4343 37.1572L27.564 37.935C27.5 37.952 27.4327 37.952 27.3686 37.9351C27.3045 37.9182 27.2459 37.8848 27.1984 37.8383L25.5987 36.223C25.5716 36.1951 25.5367 36.1761 25.4987 36.1685C25.4606 36.1609 25.4212 36.1651 25.3856 36.1806C25.35 36.196 25.3198 36.222 25.2991 36.255C25.2784 36.2881 25.2682 36.3266 25.2697 36.3657C25.2877 37.1042 25.4842 37.8272 25.8422 38.4721C26.2001 39.117 26.7087 39.6644 27.324 40.0669C27.9393 40.4693 28.6427 40.7147 29.3734 40.7819C30.1041 40.8491 30.84 40.7359 31.5175 40.4523L42.194 51.2028C42.194 51.2304 42.194 51.2626 42.194 51.2902V52.7307C42.1943 53.1468 42.3587 53.5457 42.6511 53.8398L43.6657 54.8569C43.8092 55.0029 43.98 55.1188 44.1683 55.1978C44.3566 55.2768 44.5586 55.3173 44.7626 55.3171H46.1931C46.6064 55.3168 47.0026 55.1512 47.2946 54.8569L48.3047 53.8398C48.597 53.5457 48.7614 53.1468 48.7617 52.7307V51.2902C48.7614 50.8741 48.597 50.4752 48.3047 50.1811L47.2946 49.1641C47.0026 48.8697 46.6064 48.7042 46.1931 48.7039H44.7626H44.6758L33.9946 37.9488C34.3115 37.1398 34.3943 36.2569 34.2333 35.4025C34.0723 34.5481 33.6742 33.7571 33.0851 33.1212ZM43.556 51.2902C43.5559 51.2679 43.5604 51.2458 43.569 51.2252C43.5776 51.2047 43.5903 51.1861 43.6063 51.1706L44.6164 50.1535C44.648 50.1219 44.6906 50.1038 44.7352 50.1029H46.1657C46.1879 50.1028 46.2099 50.1073 46.2303 50.116C46.2507 50.1247 46.2692 50.1375 46.2846 50.1535L47.2992 51.1706C47.3282 51.2037 47.3444 51.2461 47.3449 51.2902V52.7307C47.345 52.753 47.3405 52.7751 47.3319 52.7957C47.3233 52.8162 47.3106 52.8348 47.2946 52.8503L46.2846 53.8674C46.2692 53.8835 46.2507 53.8962 46.2303 53.9049C46.2099 53.9136 46.1879 53.9181 46.1657 53.918H44.7352C44.713 53.9181 44.6911 53.9136 44.6706 53.9049C44.6502 53.8962 44.6317 53.8835 44.6164 53.8674L43.6063 52.8503C43.5903 52.8348 43.5776 52.8162 43.569 52.7957C43.5604 52.7751 43.5559 52.753 43.556 52.7307V51.2902Z" fill="#DBCDF0"/>
<path d="M18.4785 46.6698C20.2934 46.6698 21.7647 45.1884 21.7647 43.3609C21.7647 41.5334 20.2934 40.052 18.4785 40.052C16.6636 40.052 15.1924 41.5334 15.1924 43.3609C15.1924 45.1884 16.6636 46.6698 18.4785 46.6698Z" fill="#3D3D3D"/>
<path d="M19.7073 42.956C19.7073 42.8779 19.6765 42.803 19.6217 42.7478C19.5668 42.6925 19.4924 42.6615 19.4148 42.6615C19.3373 42.6615 19.2629 42.6925 19.208 42.7478C19.1531 42.803 19.1223 42.8779 19.1223 42.956V42.8088C19.1134 42.7364 19.0785 42.6698 19.0242 42.6216C18.9699 42.5733 18.9 42.5467 18.8275 42.5467C18.7551 42.5467 18.6852 42.5733 18.6309 42.6216C18.5766 42.6698 18.5417 42.7364 18.5327 42.8088V42.6707C18.5327 42.5926 18.5019 42.5177 18.4471 42.4624C18.3922 42.4072 18.3178 42.3762 18.2402 42.3762C18.1626 42.3762 18.0882 42.4072 18.0334 42.4624C17.9785 42.5177 17.9477 42.5926 17.9477 42.6707V41.6813C17.9477 41.6031 17.9169 41.5282 17.862 41.473C17.8072 41.4177 17.7328 41.3867 17.6552 41.3867C17.5776 41.3867 17.5032 41.4177 17.4484 41.473C17.3935 41.5282 17.3627 41.6031 17.3627 41.6813V43.5221L17.1159 43.1815C17.0674 43.1205 16.9968 43.0814 16.9197 43.0727C16.8426 43.0641 16.7652 43.0867 16.7046 43.1355C16.6439 43.1843 16.6051 43.2554 16.5965 43.3331C16.5879 43.4107 16.6104 43.4887 16.6589 43.5497L17.5409 44.8659C17.5409 44.8659 17.5409 44.8659 17.5409 44.9027V45.1972C17.5409 45.2801 17.5912 45.3491 17.6552 45.3491H19.4834C19.5474 45.3491 19.5976 45.2801 19.5976 45.1972V44.9027C19.6024 44.8769 19.6024 44.8503 19.5976 44.8245C19.6935 44.7169 19.7472 44.5778 19.7485 44.4333L19.7073 42.956Z" fill="white"/>
<path d="M11.4627 29.8262C11.4627 29.6237 11.4627 29.4304 11.4627 29.2371C11.4627 29.2011 11.4556 29.1654 11.4417 29.1322C11.4279 29.0989 11.4076 29.0688 11.3821 29.0435C11.3566 29.0182 11.3263 28.9983 11.2931 28.9849C11.2598 28.9716 11.2243 28.965 11.1885 28.9656C10.6849 28.992 10.1813 28.9133 9.70934 28.7343C9.23741 28.5553 8.80736 28.28 8.44621 27.9255C8.39389 27.877 8.32537 27.8501 8.25425 27.8501C8.18313 27.8501 8.1146 27.877 8.06229 27.9255C7.70114 28.28 7.27109 28.5553 6.79916 28.7343C6.32723 28.9133 5.82363 28.992 5.32002 28.9656C5.28444 28.965 5.2491 28.9716 5.2161 28.985C5.18311 28.9984 5.15314 29.0184 5.12797 29.0438C5.10281 29.0691 5.08297 29.0993 5.06964 29.1325C5.0563 29.1657 5.04975 29.2013 5.05037 29.2371C5.05037 29.4304 5.05037 29.6237 5.05037 29.8262C5.0138 31.7545 4.95896 34.4007 8.15827 35.5098H8.24968H8.34108C11.545 34.3869 11.4993 31.7637 11.4627 29.8262Z" fill="#3D3D3D"/>
<path d="M10.8226 30.1989C10.8226 30.0378 10.8226 29.8859 10.8226 29.7387C10.8232 29.7099 10.8181 29.6813 10.8076 29.6545C10.797 29.6277 10.7813 29.6033 10.7613 29.5828C10.7413 29.5622 10.7174 29.5458 10.691 29.5347C10.6647 29.5235 10.6364 29.5178 10.6078 29.5178C10.2067 29.5376 9.80588 29.4743 9.43009 29.3318C9.05431 29.1893 8.71157 28.9707 8.42309 28.6894C8.38213 28.6492 8.32718 28.6267 8.26998 28.6267C8.21278 28.6267 8.15784 28.6492 8.11687 28.6894C7.82941 28.9707 7.48749 29.1895 7.11242 29.332C6.73736 29.4745 6.33716 29.5378 5.93677 29.5178C5.90779 29.5172 5.87899 29.5224 5.85209 29.5333C5.82519 29.5442 5.80075 29.5604 5.78026 29.5811C5.75976 29.6017 5.74362 29.6263 5.73282 29.6534C5.72201 29.6805 5.71677 29.7095 5.71739 29.7387C5.71739 29.8951 5.71739 30.047 5.71739 30.1989C5.6854 31.7406 5.64427 33.8576 8.20371 34.7458H8.27683H8.34996C10.8866 33.8576 10.85 31.7498 10.8226 30.1989Z" fill="white" stroke="#3D3D3D" stroke-width="0.14" stroke-linecap="round" stroke-linejoin="round"/>
<path d="M8.77489 31.4599C8.89979 31.376 9.00224 31.2624 9.07318 31.1291C9.14413 30.9959 9.18138 30.8471 9.18166 30.6959C9.18035 30.5379 9.13866 30.3829 9.06061 30.2458C8.98256 30.1088 8.87079 29.9942 8.73604 29.9133C8.60129 29.8323 8.44812 29.7876 8.29125 29.7835C8.13438 29.7794 7.97911 29.8161 7.84039 29.8899C7.70166 29.9638 7.58415 30.0723 7.49917 30.2052C7.41419 30.338 7.36459 30.4906 7.35517 30.6483C7.34574 30.806 7.37679 30.9636 7.44534 31.1057C7.51389 31.2478 7.61762 31.3698 7.74654 31.4599L7.44033 32.9187C7.43355 32.9596 7.43586 33.0016 7.4471 33.0415C7.45834 33.0814 7.47823 33.1183 7.50533 33.1495C7.53243 33.1808 7.56606 33.2056 7.60382 33.2222C7.64157 33.2388 7.68251 33.2467 7.72369 33.2455H8.80232C8.84326 33.2459 8.88381 33.2374 8.92117 33.2205C8.95854 33.2037 8.99183 33.1789 9.01876 33.1478C9.04569 33.1168 9.06562 33.0802 9.07717 33.0407C9.08872 33.0011 9.09163 32.9595 9.08568 32.9187L8.77489 31.4599Z" fill="#3D3D3D"/>
<path d="M10.9509 54.3553H5.56231C5.51989 54.3553 5.47919 54.3723 5.44919 54.4025C5.4192 54.4327 5.40234 54.4737 5.40234 54.5164V58.5156C5.40354 58.6849 5.47086 58.8469 5.58974 58.9666C5.70862 59.0863 5.86951 59.1541 6.03763 59.1553H10.4938C10.6623 59.1553 10.8239 59.0879 10.943 58.9679C11.0622 58.848 11.1291 58.6852 11.1291 58.5156V54.5164C11.1293 54.4936 11.1246 54.471 11.1154 54.4502C11.1063 54.4293 11.0928 54.4107 11.076 54.3954C11.0591 54.3802 11.0393 54.3688 11.0177 54.3618C10.9961 54.3549 10.9733 54.3527 10.9509 54.3553Z" stroke="#3D3D3D" stroke-width="0.58" stroke-miterlimit="10"/>
<path d="M8.73856 57.6964C8.74135 57.7189 8.73909 57.7417 8.73198 57.7632C8.72486 57.7847 8.71306 57.8043 8.69743 57.8206C8.68243 57.8375 8.66413 57.8512 8.64369 57.8607C8.62325 57.8702 8.6011 57.8753 8.57859 57.8759H7.9433C7.92084 57.8751 7.89877 57.8698 7.87837 57.8603C7.85796 57.8508 7.83964 57.8373 7.82447 57.8206C7.8104 57.8035 7.7999 57.7836 7.79362 57.7623C7.78734 57.7409 7.7854 57.7185 7.78791 57.6964L7.88846 56.776C7.80734 56.7172 7.74136 56.6398 7.69604 56.5501C7.65072 56.4604 7.62737 56.3612 7.62794 56.2605C7.62794 56.0909 7.69487 55.9282 7.81401 55.8082C7.93315 55.6882 8.09474 55.6208 8.26323 55.6208C8.43172 55.6208 8.59331 55.6882 8.71245 55.8082C8.83159 55.9282 8.89852 56.0909 8.89852 56.2605C8.89909 56.3612 8.87574 56.4604 8.83042 56.5501C8.7851 56.6398 8.71913 56.7172 8.63801 56.776L8.73856 57.6964Z" fill="#3D3D3D"/>
<path d="M6.99231 53.7156C6.99231 53.3762 7.12617 53.0508 7.36445 52.8109C7.60273 52.571 7.92591 52.4362 8.26289 52.4362C8.59987 52.4362 8.92305 52.571 9.16133 52.8109C9.39961 53.0508 9.53347 53.3762 9.53347 53.7156V54.3552H10.4933V53.7156C10.5069 53.413 10.4595 53.1108 10.3539 52.8272C10.2483 52.5436 10.0867 52.2845 9.87888 52.0656C9.67107 51.8466 9.42134 51.6723 9.14477 51.5533C8.8682 51.4342 8.57053 51.3728 8.26975 51.3728C7.96896 51.3728 7.67129 51.4342 7.39473 51.5533C7.11816 51.6723 6.86843 51.8466 6.66061 52.0656C6.4528 52.2845 6.29121 52.5436 6.18561 52.8272C6.08002 53.1108 6.0326 53.413 6.04623 53.7156V54.3552H7.00145L6.99231 53.7156Z" fill="#3D3D3D"/>
<path d="M64.4525 31.6761L63.1682 32.9647C63.1511 32.9827 63.1416 33.0066 63.1416 33.0314C63.1416 33.0563 63.1511 33.0802 63.1682 33.0982C63.1862 33.1131 63.2088 33.1213 63.2322 33.1213C63.2555 33.1213 63.2781 33.1131 63.2961 33.0982L64.5804 31.805C64.5936 31.7873 64.6 31.7653 64.5985 31.7432C64.5969 31.7211 64.5875 31.7003 64.5719 31.6847C64.5564 31.669 64.5357 31.6595 64.5138 31.6579C64.4918 31.6564 64.4701 31.6628 64.4525 31.6761Z" fill="#3D3D3D"/>
<path d="M65.9785 29.7847C65.8573 29.7847 65.7411 29.8332 65.6554 29.9195C65.5696 30.0058 65.5215 30.1228 65.5215 30.2449C65.5215 30.3669 65.5696 30.484 65.6554 30.5703C65.7411 30.6566 65.8573 30.7051 65.9785 30.7051C66.0997 30.7051 66.216 30.6566 66.3017 30.5703C66.3874 30.484 66.4356 30.3669 66.4356 30.2449C66.4356 30.1228 66.3874 30.0058 66.3017 29.9195C66.216 29.8332 66.0997 29.7847 65.9785 29.7847Z" fill="#3D3D3D"/>
<path d="M68.8028 31.3632L67.098 28.335C67.0414 28.2262 66.9586 28.1335 66.8572 28.0651C66.7558 27.9968 66.6391 27.9551 66.5176 27.9438H63.1126C62.9909 27.9543 62.8738 27.9957 62.7723 28.0641C62.6708 28.1325 62.5882 28.2257 62.5322 28.335L60.8274 31.3356C60.769 31.4411 60.7383 31.5599 60.7383 31.6807C60.7383 31.8016 60.769 31.9204 60.8274 32.0259L62.5322 34.9804C62.5906 35.0826 62.6755 35.1668 62.7777 35.2244C62.8799 35.2819 62.9956 35.3105 63.1126 35.3072H66.5176C66.6335 35.3105 66.7483 35.2828 66.8502 35.2271C66.9522 35.1713 67.0377 35.0894 67.098 34.9896L68.8028 32.0259C68.861 31.9253 68.8917 31.811 68.8917 31.6945C68.8917 31.5781 68.861 31.4638 68.8028 31.3632ZM65.2287 32.1686L65.1465 32.3342C65.1403 32.3479 65.1308 32.3597 65.1188 32.3686C65.1067 32.3774 65.0927 32.383 65.0779 32.3849C65.0637 32.3875 65.049 32.3864 65.0354 32.3816C65.0217 32.3767 65.0096 32.3683 65.0002 32.3572L64.8814 32.2376L63.4782 33.7747C63.4782 33.7747 63.4417 33.9266 63.4143 33.9266H62.683C62.6327 33.9266 62.5962 33.6366 62.5962 33.586V32.8451C62.5962 32.8221 62.651 32.799 62.6693 32.7806L63.0532 32.4401V32.2928C63.0532 32.2422 62.9984 32.0857 63.0532 32.0857H63.1995H63.5148V31.9385C63.5148 31.8878 63.3686 31.6393 63.4188 31.6393H63.5651L63.5148 31.7176V31.5703C63.5148 31.5197 63.7342 31.6393 63.7845 31.6393H63.9307L64.0221 31.4644L63.9033 31.308C63.8845 31.2778 63.8764 31.2421 63.8804 31.2067C63.8823 31.1907 63.8879 31.1753 63.8966 31.1617C63.9053 31.1482 63.917 31.1368 63.9307 31.1285L64.0907 31.0411C64.0727 30.9424 64.0635 30.8423 64.0633 30.7419C64.062 30.4366 64.1547 30.1385 64.3286 29.8884C64.5025 29.6383 64.749 29.4486 65.0344 29.3454C65.3197 29.2422 65.6298 29.2305 65.9219 29.312C66.2141 29.3935 66.4741 29.5641 66.666 29.8004C66.8579 30.0367 66.9725 30.3271 66.9938 30.6316C67.0152 30.9362 66.9423 31.2399 66.7853 31.501C66.6282 31.7621 66.3946 31.9678 66.1167 32.0898C65.8388 32.2119 65.5302 32.2442 65.2333 32.1824L65.2287 32.1686Z" fill="#3D3D3D"/>
<path d="M56.0293 46.6375C55.3827 46.6651 54.7425 46.4991 54.1896 46.1604C53.6368 45.8216 53.196 45.3255 52.9232 44.7346C52.6504 44.1437 52.5577 43.4846 52.6568 42.8406C52.7559 42.1966 53.0425 41.5967 53.4802 41.1167C53.9179 40.6368 54.4871 40.2982 55.1159 40.144C55.7447 39.9897 56.4048 40.0266 57.0127 40.2501C57.6206 40.4735 58.1491 40.8734 58.5313 41.3993C58.9136 41.9251 59.1323 42.5533 59.16 43.2044C59.1784 43.6368 59.112 44.0687 58.9647 44.4752C58.8173 44.8818 58.5917 45.2552 58.301 45.574C58.0103 45.8928 57.66 46.1509 57.2702 46.3333C56.8804 46.5158 56.4588 46.6192 56.0293 46.6375Z" fill="white" stroke="#3D3D3D" stroke-width="0.41" stroke-linecap="round" stroke-linejoin="round"/>
<path d="M55.9234 46.2325C56.6199 46.2331 57.2927 45.9778 57.8156 45.5146C57.8078 45.3842 57.7661 45.2582 57.6947 45.1492C57.6233 45.0402 57.5247 44.9519 57.4088 44.8933L56.6227 44.4975C56.5851 44.4804 56.5534 44.4525 56.5314 44.4173C56.5095 44.3821 56.4983 44.3412 56.4993 44.2997V44.0189L56.5587 43.9407C56.6631 43.8004 56.7462 43.6453 56.8055 43.4805C56.8625 43.4542 56.9108 43.4121 56.9448 43.3591C56.9788 43.3061 56.9971 43.2444 56.9975 43.1813V42.85C56.9959 42.7691 56.9669 42.6911 56.9152 42.6291V42.1689C56.9311 41.9718 56.8686 41.7765 56.7415 41.6258C56.5095 41.4384 56.2209 41.3362 55.9234 41.3362C55.6259 41.3362 55.3373 41.4384 55.1053 41.6258C54.9782 41.7765 54.9157 41.9718 54.9316 42.1689V42.6291C54.88 42.6911 54.8509 42.7691 54.8493 42.85V43.1813C54.8495 43.2309 54.8606 43.2797 54.882 43.3243C54.9034 43.3689 54.9344 43.4081 54.9728 43.4391C55.0304 43.6564 55.128 43.8609 55.2607 44.0419V44.3181C55.2606 44.3571 55.2504 44.3954 55.2312 44.4293C55.212 44.4632 55.1843 44.4914 55.151 44.5114L54.4106 44.9117C54.2995 44.9736 54.2062 45.0633 54.1398 45.1721C54.0733 45.281 54.0359 45.4053 54.0312 45.533C54.5555 45.9918 55.2289 46.2408 55.9234 46.2325Z" fill="#3D3D3D"/>
<path d="M67.7296 58.3178L65.4809 54.6729C65.4388 54.5765 65.3696 54.4944 65.282 54.4369C65.1944 54.3793 65.092 54.3486 64.9873 54.3486C64.8827 54.3486 64.7803 54.3793 64.6926 54.4369C64.605 54.4944 64.5359 54.5765 64.4937 54.6729L62.2496 58.3085C62.1873 58.3882 62.1479 58.4835 62.1358 58.5842C62.1237 58.6848 62.1394 58.7869 62.1811 58.8792C62.238 58.9632 62.3166 59.0299 62.4084 59.0721C62.5003 59.1142 62.6018 59.1303 62.7021 59.1185H67.2725C67.3725 59.1269 67.4729 59.1094 67.5641 59.0674C67.6554 59.0255 67.7344 58.9607 67.7936 58.8792C67.8351 58.7887 67.8511 58.6885 67.8398 58.5894C67.8285 58.4904 67.7904 58.3964 67.7296 58.3178ZM65.1976 58.6537C65.1408 58.7042 65.0676 58.732 64.9919 58.732C64.9161 58.732 64.843 58.7042 64.7862 58.6537C64.7607 58.6303 64.7402 58.6019 64.7261 58.5703C64.7119 58.5386 64.7044 58.5043 64.7039 58.4696C64.7021 58.4354 64.7076 58.4012 64.7203 58.3694C64.7329 58.3376 64.7523 58.309 64.7771 58.2855C64.8228 58.238 64.885 58.2099 64.9508 58.2073C65.0303 58.2093 65.1071 58.2367 65.1701 58.2855C65.1978 58.308 65.2205 58.3359 65.237 58.3676C65.2535 58.3993 65.2634 58.434 65.2661 58.4696C65.2701 58.5064 65.266 58.5435 65.2541 58.5785C65.2423 58.6135 65.223 58.6454 65.1976 58.6721V58.6537ZM64.9919 57.7333C64.9188 57.7352 64.8475 57.7107 64.7908 57.6643C64.7651 57.6469 64.7439 57.6237 64.7288 57.5965C64.7137 57.5693 64.7052 57.5389 64.7039 57.5078L64.672 55.4875C64.6778 55.4235 64.7084 55.3645 64.7572 55.3231C64.8059 55.2818 64.8689 55.2615 64.9325 55.2666H64.9645C65.0438 55.2653 65.1217 55.2877 65.1884 55.331C65.2148 55.3491 65.2367 55.373 65.2526 55.4009C65.2684 55.4288 65.2777 55.46 65.2798 55.4921V57.5078C65.2718 57.5774 65.2373 57.6411 65.1836 57.6857C65.13 57.7303 65.0613 57.7523 64.9919 57.7471V57.7333Z" fill="#3D3D3D"/>
</g>
<defs>
<clipPath id="clip0_1_79114">
<rect width="74" height="82" fill="white"/>
</clipPath>
</defs>
</svg>
