<svg width="56" height="56" viewBox="0 0 56 56" fill="none" xmlns="http://www.w3.org/2000/svg">
<path d="M56 28C56 43.464 43.464 56 28 56C12.536 56 0 43.464 0 28C0 12.536 12.536 0 28 0C43.464 0 56 12.536 56 28Z" fill="#FFF7F5"/>
<g clip-path="url(#clip0_2005_708)">
<path d="M23.5904 29.4488C23.1702 29.4404 22.8221 29.775 22.8137 30.1952C22.8053 30.6153 23.1399 30.9635 23.5601 30.9719C23.9803 30.9802 24.3285 30.6457 24.3368 30.2255C24.3452 29.8053 24.0106 29.4571 23.5904 29.4488Z" fill="#DBCDF0"/>
<path d="M29.7739 25.0009L17.5888 24.7584C16.3289 24.7333 15.2837 25.7378 15.2586 26.9976L15.0767 36.1364C15.0517 37.3962 16.0561 38.4415 17.316 38.4666L29.501 38.7091C30.7609 38.7342 31.8061 37.7297 31.8312 36.4699L32.0131 27.331C32.0382 26.0712 31.0337 25.0259 29.7739 25.0009ZM24.2941 32.3702L24.2459 34.7952C24.2375 35.2161 23.8901 35.5499 23.4691 35.5416C23.0482 35.5332 22.7143 35.1858 22.7227 34.7648L22.771 32.3399C21.8927 32.0068 21.2708 31.1567 21.2905 30.1651C21.3156 28.9053 22.3609 27.9008 23.6207 27.9259C24.8805 27.951 25.885 28.9962 25.8599 30.2561C25.8402 31.2476 25.1849 32.0723 24.2941 32.3702Z" fill="#DBCDF0"/>
<path d="M38.9234 29.7541C37.9318 29.7344 37.0817 30.3563 36.7486 31.2346L33.4605 31.1691L33.4302 32.6923L36.7183 32.7577C37.0161 33.6485 37.8409 34.3038 38.8324 34.3235C40.0923 34.3486 41.1375 33.3441 41.1626 32.0843C41.1877 30.8245 40.1832 29.7792 38.9234 29.7541Z" fill="#DBCDF0"/>
<path d="M38.8021 35.8466C38.3847 35.8383 37.9959 35.9514 37.6549 36.1409L36.3631 34.5451C36.2215 34.3704 36.0108 34.2673 35.7861 34.2628L33.3999 34.2153L33.3696 35.7385L35.4018 35.7789L36.6355 37.3028C36.5397 37.5471 36.4775 37.8085 36.4719 38.0858C36.4469 39.3457 37.4503 40.4417 38.7102 40.4668C39.97 40.4918 41.0163 39.4366 41.0413 38.1768C41.0664 36.9169 40.0619 35.8717 38.8021 35.8466Z" fill="#DBCDF0"/>
<path d="M39.0446 23.6613C37.7847 23.6363 36.7395 24.6407 36.7144 25.9006C36.707 26.2705 36.7969 26.6168 36.9474 26.9294L35.6017 28.164L33.5211 28.1226L33.4908 29.6458L35.8771 29.6933C36.0727 29.6972 36.2631 29.6251 36.407 29.4925L38.0242 28.0079C38.3074 28.1424 38.6205 28.2241 38.9536 28.2307C40.2135 28.2558 41.2587 27.2514 41.2838 25.9915C41.3089 24.7317 40.3044 23.6864 39.0446 23.6613Z" fill="#DBCDF0"/>
<path d="M23.8945 14.1667C20.5352 14.0998 17.7476 16.7786 17.6807 20.138L17.6191 23.235L20.6654 23.2956L20.727 20.1986C20.7605 18.5185 22.1538 17.1795 23.8339 17.2129C25.514 17.2464 26.853 18.6398 26.8196 20.3198L26.7579 23.4169L29.8042 23.4775L29.8658 20.3805C29.9327 17.0211 27.2539 14.2335 23.8945 14.1667Z" fill="#DBCDF0"/>
</g>
<defs>
<clipPath id="clip0_2005_708">
<rect width="26" height="26" fill="white" transform="translate(15.5173 14) rotate(1.14016)"/>
</clipPath>
</defs>
</svg>
