<svg width="56" height="56" viewBox="0 0 56 56" fill="none" xmlns="http://www.w3.org/2000/svg">
<circle cx="28" cy="28" r="28" fill="#FFF7F5"/>
<g clip-path="url(#clip0_2006_705)">
<path d="M43.1932 26.5109C43.109 26.5312 43.0361 26.584 42.9906 26.6578C42.9451 26.7315 42.9307 26.8203 42.9504 26.9047C43.1896 27.9199 43.3107 28.9592 43.3114 30.0022C43.3071 33.5312 41.9034 36.9144 39.408 39.4098C36.9126 41.9052 33.5294 43.3089 30.0004 43.3131C27.102 43.3233 24.2813 42.3759 21.9767 40.6181C22.2861 40.1567 22.4097 39.5955 22.3228 39.0468C22.2359 38.498 21.9448 38.0025 21.5078 37.6593C21.0709 37.3162 20.5205 37.1509 19.9668 37.1965C19.4131 37.2421 18.8971 37.4952 18.5223 37.9052C18.1474 38.3152 17.9413 38.8517 17.9452 39.4072C17.9492 39.9628 18.163 40.4963 18.5438 40.9008C18.9245 41.3054 19.4441 41.5511 19.9984 41.5887C20.5527 41.6264 21.1007 41.4531 21.5326 41.1038C23.9592 42.9719 26.9381 43.98 30.0004 43.9694C32.1101 43.9671 34.1919 43.4875 36.0899 42.5664C37.9879 41.6453 39.6529 40.3067 40.9601 38.6508C42.2673 36.9949 43.1828 35.0647 43.6381 33.0048C44.0934 30.9448 44.0767 28.8085 43.5892 26.7559C43.5794 26.7138 43.5614 26.674 43.5361 26.6388C43.5109 26.6037 43.479 26.5738 43.4422 26.5511C43.4054 26.5283 43.3644 26.513 43.3217 26.5061C43.279 26.4992 43.2353 26.5009 43.1932 26.5109Z" fill="#DBCDF0"/>
<path d="M16.6895 30.0024C16.6896 27.6347 17.3213 25.3098 18.5193 23.2676C19.7173 21.2253 21.4384 19.5396 23.505 18.3841C25.5717 17.2287 27.9091 16.6453 30.2763 16.6942C32.6435 16.7431 34.9548 17.4225 36.972 18.6624C36.7638 19.1078 36.7304 19.6152 36.8786 20.084C37.0268 20.5529 37.3456 20.949 37.7719 21.1939C38.1983 21.4388 38.7011 21.5146 39.1807 21.4064C39.6604 21.2982 40.0818 21.0138 40.3617 20.6095C40.6416 20.2052 40.7594 19.7106 40.6919 19.2236C40.6244 18.7366 40.3764 18.2926 39.9971 17.9798C39.6178 17.6669 39.1348 17.5079 38.6438 17.5343C38.1528 17.5606 37.6897 17.7704 37.346 18.1221C35.2302 16.8141 32.8035 16.0949 30.3166 16.0387C27.8298 15.9826 25.3731 16.5915 23.2004 17.8026C21.0276 19.0138 19.2178 20.7831 17.9578 22.9279C16.6978 25.0726 16.0334 27.5149 16.0332 30.0024C16.032 30.855 16.1097 31.7059 16.2651 32.5443C16.2784 32.6198 16.318 32.6882 16.3768 32.7374C16.4356 32.7866 16.51 32.8135 16.5867 32.8133C16.6065 32.8133 16.6263 32.8111 16.6457 32.8068C16.7313 32.7913 16.8072 32.7426 16.8568 32.6712C16.9064 32.5998 16.9257 32.5117 16.9104 32.4261C16.7629 31.6267 16.689 30.8154 16.6895 30.0024Z" fill="#DBCDF0"/>
<path d="M28.0312 27.8348V28.0317H31.9688V27.8348C31.9381 25.1748 28.0619 25.1748 28.0312 27.8348Z" fill="#DBCDF0"/>
<path d="M39.1773 23.1836C35.4848 23.2208 31.9323 20.9393 30.5738 19.9549C30.407 19.8344 30.2065 19.7695 30.0007 19.7695C29.7949 19.7695 29.5944 19.8344 29.4276 19.9549C28.0691 20.9393 24.5079 23.2121 20.8241 23.1836C20.6933 23.1823 20.5635 23.2069 20.4422 23.256C20.321 23.3051 20.2106 23.3776 20.1175 23.4695C20.0243 23.5614 19.9503 23.6709 19.8997 23.7915C19.849 23.9121 19.8227 24.0416 19.8223 24.1724C19.8245 29.2233 20.8351 36.4487 29.5566 40.863C29.6942 40.9331 29.8463 40.9697 30.0007 40.9697C30.1551 40.9697 30.3072 40.9331 30.4448 40.863C39.1663 36.4487 40.177 29.2233 40.1791 24.1724C40.1772 23.9085 40.0706 23.6562 39.8827 23.4708C39.6949 23.2854 39.4412 23.1821 39.1773 23.1836ZM33.6101 33.1718C33.6101 33.6069 33.4372 34.0242 33.1295 34.3319C32.8219 34.6395 32.4046 34.8124 31.9695 34.8124H28.032C27.5968 34.8124 27.1795 34.6395 26.8719 34.3319C26.5642 34.0242 26.3913 33.6069 26.3913 33.1718V29.6718C26.3915 29.3527 26.4847 29.0406 26.6595 28.7737C26.8344 28.5067 27.0833 28.2966 27.3757 28.169V27.8299C27.4151 24.319 32.5863 24.319 32.6257 27.8299V28.169C32.9181 28.2966 33.167 28.5067 33.3419 28.7737C33.5167 29.0406 33.6099 29.3527 33.6101 29.6718V33.1718Z" fill="#DBCDF0"/>
<path d="M30.538 31.0454C30.5331 31.016 30.5345 30.986 30.5421 30.9572C30.5496 30.9284 30.5631 30.9015 30.5818 30.8783C30.655 30.7723 30.6979 30.6483 30.7058 30.5197C30.7136 30.3911 30.6862 30.2629 30.6264 30.1488C30.5665 30.0347 30.4766 29.9391 30.3664 29.8724C30.2562 29.8058 30.1298 29.7705 30.001 29.7705C29.8721 29.7705 29.7458 29.8058 29.6355 29.8724C29.5253 29.9391 29.4354 30.0347 29.3756 30.1488C29.3158 30.2629 29.2883 30.3911 29.2962 30.5197C29.304 30.6483 29.3469 30.7723 29.4202 30.8783C29.4387 30.9012 29.4522 30.9278 29.4598 30.9564C29.4673 30.9849 29.4687 31.0147 29.4639 31.0439C29.4125 31.3 29.2671 32.0324 29.1645 32.5408C29.152 32.6042 29.1537 32.6696 29.1695 32.7322C29.1853 32.7949 29.2148 32.8533 29.2559 32.9032C29.297 32.9531 29.3486 32.9933 29.407 33.0208C29.4654 33.0484 29.5293 33.0627 29.5939 33.0627H30.4076C30.4724 33.0627 30.5363 33.0484 30.5948 33.0207C30.6534 32.993 30.705 32.9527 30.7461 32.9027C30.7871 32.8526 30.8166 32.7941 30.8323 32.7312C30.848 32.6684 30.8495 32.6029 30.8368 32.5394L30.538 31.0454Z" fill="#DBCDF0"/>
</g>
<defs>
<clipPath id="clip0_2006_705">
<rect width="28" height="28" fill="white" transform="translate(16 16)"/>
</clipPath>
</defs>
</svg>
