<svg width="70" height="56" viewBox="0 0 70 56" fill="none" xmlns="http://www.w3.org/2000/svg">
<circle cx="28" cy="28" r="28" fill="#FFF7F5"/>
<path d="M69.0206 8.81384C68.9907 7.57625 68.9657 6.40853 69.0156 5.26077C69.0336 5.12137 69.022 4.97975 68.9816 4.84514C68.9412 4.71052 68.8728 4.58595 68.781 4.47953C68.6892 4.37311 68.5759 4.28725 68.4487 4.22753C68.3215 4.16782 68.1831 4.1356 68.0425 4.13297C64.5877 3.63219 61.2979 2.32995 58.4363 0.330388C57.2384 -0.549261 56.436 0.558049 55.5769 0.989103C52.9763 2.63337 50.0555 3.70509 47.0086 4.13297C46.8678 4.13547 46.7291 4.16756 46.6016 4.22715C46.474 4.28675 46.3604 4.37251 46.2682 4.47888C46.1759 4.58524 46.1071 4.70983 46.0661 4.84454C46.0252 4.97924 46.013 5.12106 46.0305 5.26077C46.0654 6.30374 46.0454 7.37664 46.0255 8.50943C45.9606 12.1623 45.8957 15.9399 47.5126 19.2834C48.4434 21.3739 49.8227 23.2341 51.5527 24.7321C53.2826 26.2301 55.3209 27.3292 57.5231 27.9516C60.2324 27.1833 62.6848 25.6995 64.6228 23.6562C66.5608 21.6129 67.9127 19.0854 68.5366 16.3392C69.1404 13.849 69.0805 11.289 69.0206 8.81384ZM66.1113 15.7553C65.6048 17.947 64.553 19.9754 63.0533 21.6521C61.5537 23.3288 59.6549 24.5996 57.5331 25.3466C55.8178 24.7577 54.2426 23.8207 52.9065 22.5945C51.5703 21.3682 50.5019 19.8791 49.7682 18.2205C48.4009 15.391 48.4608 11.9128 48.5207 8.55435C48.5306 7.97548 48.5406 7.39661 48.5456 6.82273C48.5452 6.7089 48.5843 6.59846 48.6561 6.51019C48.728 6.42193 48.8283 6.36132 48.9398 6.33868C51.893 5.6868 54.7087 4.52132 57.2586 2.89535C57.3389 2.84458 57.4317 2.81681 57.5267 2.81506C57.6217 2.81331 57.7154 2.83764 57.7976 2.88541C60.0209 4.31113 62.4493 5.38819 64.9985 6.07918C65.5125 6.29617 66.4311 6.13224 66.4907 6.81766C66.502 9.78144 66.7872 12.9399 66.1113 15.7553Z" fill="#DBCDF0"/>
<path d="M65.4975 7.22193C62.8638 6.61554 60.3437 5.59301 58.032 4.19287V24.094C59.7984 23.3139 61.3596 22.1345 62.5927 20.6485C63.8258 19.1626 64.6972 17.4107 65.1382 15.5307C65.7641 12.9566 65.5166 9.96152 65.4975 7.22193Z" fill="#DBCDF0"/>
<path d="M49.5179 8.55409C49.4635 11.8708 49.3981 15.2453 50.7206 17.9009C51.966 20.6868 54.222 22.8965 57.0333 24.0838V4.18262C54.7107 5.58552 52.181 6.61286 49.5379 7.22668C49.5329 7.6758 49.5279 8.11994 49.5179 8.55409Z" fill="#DBCDF0"/>
<path d="M35.2973 22.5833H34.4084V20.4167C34.4084 17.4299 31.7498 15 28.4821 15C25.2143 15 22.5558 17.4299 22.5558 20.4167V22.5833H21.6668C20.1971 22.5833 19 23.6775 19 25.0208V34.2292C19 35.5725 20.1971 36.6667 21.6668 36.6667H32.6779C32.2749 36.0275 32.0379 35.2908 32.0379 34.5C32.0379 32.1058 34.1595 30.1667 36.7789 30.1667C37.1937 30.1667 37.5849 30.2317 37.9642 30.3292V25.0208C37.9642 23.6775 36.767 22.5833 35.2973 22.5833ZM24.9263 22.5833V20.4167C24.9263 18.6248 26.5217 17.1667 28.4821 17.1667C30.4425 17.1667 32.0379 18.6248 32.0379 20.4167V22.5833H24.9263Z" fill="#DBCDF0"/>
<path d="M43.6673 36.6667C43.1162 36.6667 42.6148 36.8465 42.2107 37.1368L37.7055 34.8142C37.7233 34.7102 37.741 34.6073 37.741 34.5C37.741 34.4014 37.7233 34.3061 37.709 34.2108L42.213 31.8643C42.616 32.1535 43.1162 32.3333 43.6673 32.3333C44.9747 32.3333 46.0379 31.3616 46.0379 30.1667C46.0379 28.9717 44.9747 28 43.6673 28C42.36 28 41.2968 28.9717 41.2968 30.1667C41.2968 30.2652 41.3146 30.3595 41.3288 30.4559L36.8248 32.8024C36.4218 32.5132 35.9217 32.3333 35.3705 32.3333C34.0632 32.3333 33 33.3051 33 34.5C33 35.6949 34.0632 36.6667 35.3705 36.6667C35.911 36.6667 36.4041 36.4933 36.8035 36.2138L41.3276 38.5473C41.3146 38.6416 41.2968 38.7348 41.2968 38.8333C41.2968 40.0283 42.36 41 43.6673 41C44.9747 41 46.0379 40.0283 46.0379 38.8333C46.0379 37.6384 44.9747 36.6667 43.6673 36.6667Z" fill="#DBCDF0"/>
</svg>
