<svg width="130" height="138" viewBox="0 0 130 138" fill="none" xmlns="http://www.w3.org/2000/svg">
<g clip-path="url(#clip0_1_80531)">
<path d="M106.882 20.1251V134.004C106.882 135.064 106.46 136.08 105.709 136.83C104.957 137.579 103.938 138 102.876 138H5.73396C4.67126 138 3.65209 137.579 2.90065 136.83C2.14921 136.08 1.72705 135.064 1.72705 134.004V20.1251C1.72934 19.0668 2.1525 18.0527 2.9037 17.3052C3.65489 16.5577 4.67276 16.1379 5.73396 16.1379H102.876C103.937 16.1379 104.955 16.5577 105.706 17.3052C106.457 18.0527 106.88 19.0668 106.882 20.1251Z" fill="#231F20"/>
<path d="M101.149 14.4329H4.00691C2.94868 14.4328 1.93342 14.8503 1.18271 15.594C0.432014 16.3378 0.00684197 17.3475 0 18.4028V132.282C0 133.342 0.422155 134.358 1.1736 135.107C1.92504 135.857 2.94421 136.278 4.00691 136.278H101.149C102.211 136.278 103.23 135.857 103.982 135.107C104.733 134.358 105.155 133.342 105.155 132.282V18.4028C105.149 17.3475 104.723 16.3378 103.973 15.594C103.222 14.8503 102.207 14.4328 101.149 14.4329ZM104.292 132.282C104.29 133.113 103.958 133.908 103.369 134.496C102.78 135.083 101.982 135.414 101.149 135.416H4.00691C3.17324 135.416 2.37372 135.086 1.78422 134.498C1.19473 133.91 0.863558 133.113 0.863558 132.282V24.4825H104.292V132.282ZM104.292 23.6214H0.863558V18.4028C0.865844 17.5729 1.19802 16.7778 1.78727 16.1919C2.37651 15.6059 3.17473 15.2768 4.00691 15.2768H101.149C101.981 15.2768 102.779 15.6059 103.368 16.1919C103.957 16.7778 104.29 17.5729 104.292 18.4028V23.6214Z" fill="#231F20"/>
<path d="M104.292 24.4827V132.282C104.29 133.113 103.958 133.909 103.369 134.496C102.78 135.083 101.982 135.414 101.149 135.417H4.00712C3.17345 135.417 2.37393 135.086 1.78444 134.498C1.19494 133.911 0.86377 133.113 0.86377 132.282V24.4827H104.292Z" fill="white"/>
<path d="M104.292 18.4028V23.5698H0.86377V18.4028C0.866056 17.573 1.19823 16.7779 1.78748 16.1919C2.37672 15.6059 3.17495 15.2769 4.00712 15.2769H101.149C101.981 15.2769 102.779 15.6059 103.368 16.1919C103.958 16.7779 104.29 17.573 104.292 18.4028Z" fill="white"/>
<path d="M70.0692 115.352H38.5407C37.2314 115.405 35.9936 115.962 35.0863 116.905C34.179 117.848 33.6724 119.104 33.6724 120.411C33.6724 121.718 34.179 122.974 35.0863 123.917C35.9936 124.86 37.2314 125.416 38.5407 125.47H70.0692C71.3786 125.416 72.6163 124.86 73.5236 123.917C74.431 122.974 74.9376 121.718 74.9376 120.411C74.9376 119.104 74.431 117.848 73.5236 116.905C72.6163 115.962 71.3786 115.405 70.0692 115.352ZM70.0692 124.609H38.5407C37.4572 124.56 36.4343 124.096 35.6849 123.314C34.9355 122.532 34.5173 121.492 34.5173 120.411C34.5173 119.329 34.9355 118.289 35.6849 117.507C36.4343 116.725 37.4572 116.262 38.5407 116.213H70.0692C71.1528 116.262 72.1756 116.725 72.925 117.507C73.6745 118.289 74.0927 119.329 74.0927 120.411C74.0927 121.492 73.6745 122.532 72.925 123.314C72.1756 124.096 71.1528 124.56 70.0692 124.609Z" fill="#E099ED"/>
<path d="M74.2746 120.407C74.2746 121.52 73.8318 122.587 73.0433 123.375C72.2549 124.163 71.1852 124.607 70.069 124.609H38.5405C37.457 124.56 36.4341 124.097 35.6847 123.315C34.9353 122.533 34.5171 121.493 34.5171 120.411C34.5171 119.329 34.9353 118.289 35.6847 117.507C36.4341 116.726 37.457 116.262 38.5405 116.213H70.069C71.1844 116.213 72.2541 116.655 73.0428 117.441C73.8315 118.228 74.2746 119.294 74.2746 120.407Z" fill="#E099ED"/>
<path d="M83.0225 108.764H22.1244C20.5418 108.764 19.024 108.137 17.905 107.021C16.7859 105.905 16.1572 104.391 16.1572 102.813C16.1572 101.235 16.7859 99.7214 17.905 98.6054C19.024 97.4895 20.5418 96.8625 22.1244 96.8625H83.0225C84.6051 96.8625 86.1229 97.4895 87.2419 98.6054C88.361 99.7214 88.9897 101.235 88.9897 102.813C88.9897 104.391 88.361 105.905 87.2419 107.021C86.1229 108.137 84.6051 108.764 83.0225 108.764ZM22.1244 97.7237C20.7708 97.7237 19.4727 98.2599 18.5156 99.2144C17.5585 100.169 17.0208 101.463 17.0208 102.813C17.0208 104.163 17.5585 105.457 18.5156 106.412C19.4727 107.366 20.7708 107.903 22.1244 107.903H83.0225C83.6927 107.903 84.3564 107.771 84.9756 107.515C85.5948 107.259 86.1574 106.884 86.6313 106.412C87.1052 105.939 87.4812 105.378 87.7376 104.761C87.9941 104.143 88.1261 103.481 88.1261 102.813C88.1261 102.145 87.9941 101.483 87.7376 100.865C87.4812 100.248 87.1052 99.687 86.6313 99.2144C86.1574 98.7418 85.5948 98.3669 84.9756 98.1111C84.3564 97.8553 83.6927 97.7237 83.0225 97.7237H22.1244Z" fill="#231F20"/>
<path d="M83.0225 88.9573H22.1244C20.5418 88.9573 19.024 88.3304 17.905 87.2144C16.7859 86.0985 16.1572 84.5849 16.1572 83.0067C16.1572 81.4285 16.7859 79.915 17.905 78.799C19.024 77.6831 20.5418 77.0562 22.1244 77.0562H83.0225C84.6051 77.0562 86.1229 77.6831 87.2419 78.799C88.361 79.915 88.9897 81.4285 88.9897 83.0067C88.9897 84.5849 88.361 86.0985 87.2419 87.2144C86.1229 88.3304 84.6051 88.9573 83.0225 88.9573ZM22.1244 77.9173C20.7708 77.9173 19.4727 78.4535 18.5156 79.408C17.5585 80.3624 17.0208 81.6569 17.0208 83.0067C17.0208 84.3565 17.5585 85.651 18.5156 86.6055C19.4727 87.5599 20.7708 88.0961 22.1244 88.0961H83.0225C84.3761 88.0961 85.6742 87.5599 86.6313 86.6055C87.5884 85.651 88.1261 84.3565 88.1261 83.0067C88.1261 81.6569 87.5884 80.3624 86.6313 79.408C85.6742 78.4535 84.3761 77.9173 83.0225 77.9173H22.1244Z" fill="#231F20"/>
<path d="M52.5474 34.3772C49.0973 34.3772 45.7247 35.3974 42.8561 37.3088C39.9875 39.2203 37.7516 41.937 36.4314 45.1156C35.1111 48.2942 34.7656 51.7918 35.4387 55.1662C36.1118 58.5405 37.7731 61.6401 40.2127 64.0729C42.6523 66.5056 45.7605 68.1624 49.1443 68.8336C52.528 69.5048 56.0354 69.1603 59.2229 67.8437C62.4103 66.5271 65.1347 64.2975 67.0514 61.4368C68.9682 58.5762 69.9913 55.213 69.9913 51.7725C69.9867 47.1604 68.1474 42.7385 64.877 39.4772C61.6067 36.2159 57.1724 34.3818 52.5474 34.3772ZM52.5474 68.3067C49.7001 68.3012 46.9022 67.5647 44.4232 66.168C41.9443 64.7714 39.8677 62.7616 38.3937 60.3324C42.5269 57.3394 47.4932 55.7061 52.601 55.6598C57.7088 55.6135 62.704 57.1565 66.8911 60.074C65.4376 62.5863 63.3472 64.6734 60.8297 66.1259C58.3122 67.5784 55.4559 68.3453 52.5474 68.3497V68.3067ZM51.9602 54.821C46.9235 55.0096 42.0532 56.6684 37.9533 59.5918C36.6033 57.0844 35.9252 54.272 35.9845 51.4267C36.0438 48.5814 36.8386 45.7996 38.292 43.3503C39.7454 40.9011 41.8081 38.8674 44.2805 37.4461C46.753 36.0248 49.5515 35.2639 52.4052 35.2371C55.2589 35.2103 58.0713 35.9185 60.5701 37.2932C63.069 38.6679 65.1697 40.6625 66.669 43.084C68.1683 45.5055 69.0155 48.272 69.1285 51.1156C69.2416 53.9593 68.6167 56.784 67.3142 59.3162C62.8149 56.2291 57.445 54.6543 51.9861 54.821H51.9602Z" fill="#231F20"/>
<path d="M66.891 60.0742C65.4527 62.5608 63.3885 64.6299 60.9025 66.077C58.4165 67.524 55.5947 68.2989 52.7163 68.325C49.8379 68.3511 47.0025 67.6275 44.4905 66.2257C41.9785 64.824 39.8769 62.7926 38.3936 60.3326C42.5268 57.3396 47.493 55.7063 52.6008 55.6599C57.7086 55.6136 62.7038 57.1567 66.891 60.0742Z" fill="#E099ED"/>
<path d="M52.5474 40.5432C51.4834 40.5432 50.4432 40.8579 49.5585 41.4474C48.6738 42.0369 47.9842 42.8748 47.577 43.8551C47.1698 44.8354 47.0633 45.9142 47.2709 46.9549C47.4784 47.9956 47.9908 48.9515 48.7432 49.7018C49.4956 50.4521 50.4543 50.9631 51.4979 51.1701C52.5415 51.3771 53.6232 51.2709 54.6063 50.8648C55.5893 50.4587 56.4296 49.7711 57.0207 48.8888C57.6119 48.0066 57.9274 46.9693 57.9274 45.9082C57.9274 44.4853 57.3606 43.1207 56.3517 42.1146C55.3427 41.1084 53.9743 40.5432 52.5474 40.5432ZM52.5474 50.4034C51.6538 50.4034 50.7803 50.1391 50.0374 49.6438C49.2945 49.1485 48.7156 48.4446 48.374 47.6211C48.0324 46.7977 47.9435 45.8917 48.1185 45.0178C48.2934 44.1439 48.7244 43.3414 49.3569 42.7119C49.9894 42.0823 50.795 41.6541 51.6716 41.4813C52.5483 41.3084 53.4567 41.3989 54.2818 41.7411C55.1069 42.0833 55.8117 42.6619 56.3069 43.4037C56.8021 44.1454 57.0656 45.0171 57.0639 45.9082C57.0639 46.4993 56.947 47.0845 56.7199 47.6304C56.4928 48.1764 56.16 48.6723 55.7405 49.0899C55.321 49.5074 54.823 49.8383 54.2751 50.0637C53.7272 50.2891 53.1401 50.4046 52.5474 50.4034Z" fill="#231F20"/>
<path d="M57.0899 45.9082C57.0899 46.7979 56.8257 47.6676 56.3306 48.4077C55.8354 49.1478 55.1316 49.7251 54.3078 50.0667C53.4841 50.4083 52.5773 50.499 51.7019 50.3273C50.8265 50.1556 50.0218 49.7292 49.3891 49.1019C48.7565 48.4746 48.3243 47.6745 48.1471 46.8026C47.9699 45.9306 48.0557 45.0259 48.3935 44.2025C48.7314 43.3791 49.3062 42.6739 50.0455 42.1759C50.7848 41.6779 51.6555 41.4095 52.5476 41.4044C53.1429 41.401 53.733 41.5149 54.2839 41.7398C54.8349 41.9646 55.3358 42.2958 55.758 42.7143C56.1801 43.1329 56.5151 43.6306 56.7437 44.1787C56.9723 44.7268 57.09 45.3146 57.0899 45.9082Z" fill="#E099ED"/>
<path d="M127.047 3.67705L104.862 0.0429774C104.484 -0.0130237 104.1 -0.0130237 103.722 0.0429774L81.5374 3.67705C80.7151 3.80795 79.9664 4.22642 79.4252 4.85756C78.8841 5.4887 78.5859 6.29129 78.584 7.12167V26.2135C78.5844 30.2027 79.6666 34.1176 81.7158 37.5437C83.765 40.9698 86.7051 43.7795 90.2248 45.6756L91.5633 46.3989L100.57 51.2558L104.292 53.2623L107.746 51.4108L118.282 45.7272L118.377 45.6756C121.896 43.7795 124.836 40.9698 126.886 37.5437C128.935 34.1176 130.017 30.2027 130.017 26.2135V7.13889C130.019 6.30302 129.72 5.49424 129.175 4.85915C128.63 4.22407 127.875 3.8047 127.047 3.67705ZM129.137 26.2135C129.134 30.0527 128.089 33.8197 126.112 37.1144C124.136 40.409 121.302 43.1086 117.91 44.9264L117.815 44.9866L107.297 50.653L104.275 52.2806L100.967 50.498L91.9605 45.6411L90.622 44.9177C87.2316 43.1014 84.3976 40.4034 82.421 37.1102C80.4445 33.817 79.399 30.0515 79.3957 26.2135V7.13889C79.4003 6.51493 79.6267 5.91283 80.0347 5.43974C80.4427 4.96665 81.0057 4.65329 81.6237 4.55543L103.809 0.921355C104.095 0.875353 104.386 0.875353 104.672 0.921355L126.857 4.55543C127.475 4.65329 128.038 4.96665 128.446 5.43974C128.854 5.91283 129.08 6.51493 129.085 7.13889L129.137 26.2135Z" fill="#231F20"/>
<path d="M128.541 5.42537C128.126 4.9603 127.56 4.65547 126.943 4.56422L104.758 0.930143C104.472 0.884288 104.181 0.884288 103.895 0.930143L81.7099 4.56422C81.0919 4.66208 80.5288 4.97544 80.1209 5.44853C79.7129 5.92161 79.4865 6.52372 79.4819 7.14768V26.2136C79.4852 30.0516 80.5307 33.8171 82.5072 37.1103C84.4838 40.4035 87.3178 43.1015 90.7082 44.9179L92.0467 45.6413L101.054 50.4982L104.361 52.2808L107.383 50.6532L117.902 44.9868L117.997 44.9265C121.388 43.1087 124.222 40.4092 126.199 37.1145C128.175 33.8198 129.22 30.0529 129.223 26.2136V7.13906C129.21 6.50455 128.968 5.89604 128.541 5.42537ZM115.501 34.7649C115.483 35.2279 115.286 35.666 114.951 35.9872C114.616 36.3083 114.169 36.4876 113.705 36.4872H94.8619C94.4002 36.4831 93.9579 36.3019 93.6266 35.9812C93.2954 35.6605 93.1007 35.2249 93.083 34.7649V22.3901C93.0852 21.9195 93.2731 21.4687 93.606 21.1351C93.9389 20.8016 94.39 20.612 94.8619 20.6075H96.2263V18.8852C96.2263 16.7566 97.0743 14.7152 98.5836 13.21C100.093 11.7048 102.14 10.8593 104.275 10.8593C106.409 10.8593 108.456 11.7048 109.966 13.21C111.475 14.7152 112.323 16.7566 112.323 18.8852V20.6075H113.687C114.162 20.6075 114.618 20.795 114.955 21.1291C115.291 21.4632 115.481 21.9165 115.484 22.3901L115.501 34.7649Z" fill="white"/>
<path d="M113.704 20.6074H112.34V18.8851C112.34 16.7565 111.492 14.715 109.983 13.2099C108.473 11.7047 106.426 10.8591 104.292 10.8591C102.157 10.8591 100.11 11.7047 98.6006 13.2099C97.0913 14.715 96.2433 16.7565 96.2433 18.8851V20.6074H94.8616C94.3867 20.6074 93.9312 20.7949 93.5946 21.129C93.258 21.463 93.0677 21.9164 93.0654 22.39V34.7648C93.0833 35.2278 93.2804 35.6659 93.6153 35.987C93.9503 36.3082 94.397 36.4874 94.8616 36.4871H113.687C114.155 36.4919 114.606 36.3147 114.945 35.9931C115.283 35.6714 115.483 35.2308 115.501 34.7648V22.39C115.498 21.9164 115.308 21.463 114.972 21.129C114.635 20.7949 114.179 20.6074 113.704 20.6074ZM97.1069 18.8851C97.1069 16.9849 97.8638 15.1625 99.2113 13.8188C100.559 12.4751 102.386 11.7203 104.292 11.7203C106.197 11.7203 108.025 12.4751 109.372 13.8188C110.72 15.1625 111.476 16.9849 111.476 18.8851V20.6074H109.888V18.9712C109.888 17.4867 109.296 16.0629 108.243 15.0132C107.191 13.9634 105.763 13.3737 104.274 13.3737C102.786 13.3737 101.358 13.9634 100.305 15.0132C99.2527 16.0629 98.6613 17.4867 98.6613 18.9712V20.5988H97.1069V18.8851ZM109.024 18.997V20.6246H99.5248V18.9712C99.5248 17.7151 100.025 16.5103 100.916 15.6221C101.807 14.7339 103.015 14.2349 104.274 14.2349C105.534 14.2349 106.742 14.7339 107.633 15.6221C108.524 16.5103 109.024 17.7151 109.024 18.9712V18.997ZM114.637 34.7648C114.62 34.9993 114.514 35.2185 114.341 35.3783C114.168 35.5381 113.94 35.6266 113.704 35.6259H94.8616C94.6288 35.6223 94.4057 35.5319 94.2364 35.3725C94.067 35.2132 93.9635 34.9964 93.9463 34.7648V22.39C93.9463 22.1471 94.0424 21.914 94.2138 21.7415C94.3853 21.5689 94.6181 21.4708 94.8616 21.4686H113.687C113.809 21.4674 113.93 21.4904 114.043 21.5362C114.157 21.582 114.259 21.6497 114.346 21.7354C114.433 21.821 114.502 21.923 114.549 22.0354C114.596 22.1477 114.62 22.2683 114.62 22.39L114.637 34.7648Z" fill="#231F20"/>
<path d="M111.477 18.8592V20.5816H109.888V18.9712C109.888 17.4867 109.296 16.0629 108.244 15.0132C107.191 13.9634 105.763 13.3737 104.274 13.3737C102.786 13.3737 101.358 13.9634 100.305 15.0132C99.2527 16.0629 98.6613 17.4867 98.6613 18.9712V20.5988H97.1069V18.8765C97.1069 16.9763 97.8639 15.1539 99.2113 13.8102C100.559 12.4665 102.386 11.7117 104.292 11.7117C106.197 11.7117 108.025 12.4665 109.372 13.8102C110.72 15.1539 111.477 16.9763 111.477 18.8765V18.8592Z" fill="#E099ED"/>
<path d="M109.024 18.9712V20.5988H99.5249V18.9712C99.5249 17.7151 100.025 16.5103 100.916 15.6221C101.807 14.7339 103.015 14.2349 104.274 14.2349C105.534 14.2349 106.742 14.7339 107.633 15.6221C108.524 16.5103 109.024 17.7151 109.024 18.9712Z" fill="white"/>
<path d="M113.705 21.4685H94.8618C94.7398 21.4674 94.6187 21.4904 94.5056 21.5362C94.3925 21.582 94.2896 21.6497 94.2029 21.7354C94.1162 21.821 94.0473 21.923 94.0004 22.0354C93.9534 22.1477 93.9292 22.2682 93.9292 22.39V34.7648C93.9467 34.9993 94.0526 35.2185 94.2256 35.3783C94.3987 35.5381 94.626 35.6266 94.8618 35.6259H113.687C113.926 35.631 114.158 35.5445 114.335 35.3843C114.511 35.224 114.62 35.0023 114.637 34.7648V22.39C114.637 22.2682 114.613 22.1477 114.566 22.0354C114.519 21.923 114.45 21.821 114.364 21.7354C114.277 21.6497 114.174 21.582 114.061 21.5362C113.948 21.4904 113.827 21.4674 113.705 21.4685ZM105.864 28.8142V31.0101C105.864 31.216 105.823 31.4198 105.744 31.6099C105.665 31.8001 105.549 31.9728 105.403 32.1184C105.257 32.2639 105.084 32.3794 104.893 32.4581C104.703 32.5369 104.498 32.5774 104.292 32.5774C104.085 32.5774 103.881 32.5369 103.69 32.4581C103.5 32.3794 103.327 32.2639 103.181 32.1184C103.035 31.9728 102.919 31.8001 102.84 31.6099C102.761 31.4198 102.72 31.216 102.72 31.0101V28.8142C102.468 28.5156 102.306 28.1513 102.255 27.7642C102.203 27.3771 102.263 26.9834 102.428 26.6293C102.593 26.2752 102.857 25.9755 103.187 25.7655C103.517 25.5555 103.9 25.444 104.292 25.444C104.683 25.444 105.067 25.5555 105.397 25.7655C105.727 25.9755 105.99 26.2752 106.156 26.6293C106.321 26.9834 106.381 27.3771 106.329 27.7642C106.277 28.1513 106.116 28.5156 105.864 28.8142Z" fill="#E099ED"/>
<path d="M104.292 25.4385C103.899 25.4376 103.515 25.5489 103.183 25.7591C102.852 25.9694 102.588 26.2698 102.423 26.6249C102.258 26.98 102.198 27.3749 102.251 27.7629C102.303 28.1509 102.466 28.5157 102.72 28.8142V31.0102C102.72 31.216 102.761 31.4198 102.84 31.6099C102.919 31.8001 103.035 31.9729 103.181 32.1184C103.326 32.2639 103.5 32.3794 103.69 32.4582C103.881 32.5369 104.085 32.5775 104.292 32.5775C104.498 32.5775 104.703 32.5369 104.893 32.4582C105.084 32.3794 105.257 32.2639 105.403 32.1184C105.549 31.9729 105.665 31.8001 105.744 31.6099C105.823 31.4198 105.864 31.216 105.864 31.0102V28.8142C106.118 28.5157 106.281 28.1509 106.333 27.7629C106.386 27.3749 106.326 26.98 106.161 26.6249C105.995 26.2698 105.731 25.9694 105.4 25.7591C105.069 25.5489 104.684 25.4376 104.292 25.4385ZM105.155 28.3406C105.114 28.3807 105.081 28.4289 105.058 28.4822C105.036 28.5355 105.025 28.5928 105.026 28.6506V31.0102C105.026 31.1974 104.951 31.377 104.818 31.5095C104.686 31.6419 104.506 31.7163 104.318 31.7163C104.13 31.7163 103.95 31.6419 103.817 31.5095C103.684 31.377 103.61 31.1974 103.61 31.0102V28.6506C103.61 28.5928 103.599 28.5355 103.577 28.4822C103.555 28.4289 103.522 28.3807 103.48 28.3406C103.367 28.2273 103.278 28.0929 103.217 27.9452C103.156 27.7974 103.125 27.6391 103.126 27.4794C103.126 27.1642 103.252 26.862 103.475 26.6391C103.699 26.4162 104.002 26.291 104.318 26.291C104.634 26.291 104.937 26.4162 105.16 26.6391C105.384 26.862 105.509 27.1642 105.509 27.4794C105.507 27.6409 105.472 27.8003 105.407 27.9482C105.341 28.0961 105.247 28.2295 105.13 28.3406H105.155Z" fill="#231F20"/>
<path d="M105.484 27.488C105.484 27.6477 105.453 27.806 105.393 27.9538C105.332 28.1015 105.242 28.2359 105.129 28.3492C105.088 28.3893 105.055 28.4374 105.032 28.4908C105.01 28.5441 104.999 28.6014 105 28.6592V31.0188C105 31.206 104.925 31.3856 104.793 31.5181C104.66 31.6505 104.48 31.7249 104.292 31.7249C104.104 31.7249 103.924 31.6505 103.791 31.5181C103.658 31.3856 103.584 31.206 103.584 31.0188V28.6506C103.585 28.5928 103.573 28.5355 103.551 28.4822C103.529 28.4288 103.496 28.3806 103.454 28.3406C103.341 28.2273 103.252 28.0929 103.191 27.9452C103.13 27.7974 103.099 27.6391 103.1 27.4794C103.1 27.1642 103.226 26.862 103.449 26.6391C103.673 26.4162 103.976 26.291 104.292 26.291C104.608 26.291 104.911 26.4162 105.134 26.6391C105.358 26.862 105.484 27.1642 105.484 27.4794V27.488Z" fill="white"/>
<path d="M73.4889 104.561C74.457 104.561 75.2419 103.779 75.2419 102.813C75.2419 101.848 74.457 101.065 73.4889 101.065C72.5207 101.065 71.7358 101.848 71.7358 102.813C71.7358 103.779 72.5207 104.561 73.4889 104.561Z" fill="#231F20"/>
<path d="M64.8531 104.561C65.8213 104.561 66.6061 103.779 66.6061 102.813C66.6061 101.848 65.8213 101.065 64.8531 101.065C63.885 101.065 63.1001 101.848 63.1001 102.813C63.1001 103.779 63.885 104.561 64.8531 104.561Z" fill="#231F20"/>
<path d="M56.2174 104.561C57.1855 104.561 57.9704 103.779 57.9704 102.813C57.9704 101.848 57.1855 101.065 56.2174 101.065C55.2492 101.065 54.4644 101.848 54.4644 102.813C54.4644 103.779 55.2492 104.561 56.2174 104.561Z" fill="#231F20"/>
<path d="M47.5821 104.561C48.5503 104.561 49.3351 103.779 49.3351 102.813C49.3351 101.848 48.5503 101.065 47.5821 101.065C46.614 101.065 45.8291 101.848 45.8291 102.813C45.8291 103.779 46.614 104.561 47.5821 104.561Z" fill="#231F20"/>
<path d="M38.9464 104.561C39.9145 104.561 40.6994 103.779 40.6994 102.813C40.6994 101.848 39.9145 101.065 38.9464 101.065C37.9782 101.065 37.1934 101.848 37.1934 102.813C37.1934 103.779 37.9782 104.561 38.9464 104.561Z" fill="#231F20"/>
<path d="M30.3106 104.561C31.2788 104.561 32.0637 103.779 32.0637 102.813C32.0637 101.848 31.2788 101.065 30.3106 101.065C29.3425 101.065 28.5576 101.848 28.5576 102.813C28.5576 103.779 29.3425 104.561 30.3106 104.561Z" fill="#231F20"/>
<path d="M23.5751 21.1585C24.5194 21.1585 25.2849 20.3951 25.2849 19.4534C25.2849 18.5117 24.5194 17.7483 23.5751 17.7483C22.6308 17.7483 21.8652 18.5117 21.8652 19.4534C21.8652 20.3951 22.6308 21.1585 23.5751 21.1585Z" fill="#231F20"/>
<path d="M14.9393 21.1585C15.8837 21.1585 16.6492 20.3951 16.6492 19.4534C16.6492 18.5117 15.8837 17.7483 14.9393 17.7483C13.995 17.7483 13.2295 18.5117 13.2295 19.4534C13.2295 20.3951 13.995 21.1585 14.9393 21.1585Z" fill="#231F20"/>
<path d="M6.30408 21.1585C7.2484 21.1585 8.01393 20.3951 8.01393 19.4534C8.01393 18.5117 7.2484 17.7483 6.30408 17.7483C5.35976 17.7483 4.59424 18.5117 4.59424 19.4534C4.59424 20.3951 5.35976 21.1585 6.30408 21.1585Z" fill="#231F20"/>
</g>
<defs>
<clipPath id="clip0_1_80531">
<rect width="130" height="138" fill="white"/>
</clipPath>
</defs>
</svg>
