<svg width="136" height="142" viewBox="0 0 136 142" fill="none" xmlns="http://www.w3.org/2000/svg">
<g clip-path="url(#clip0_1_80429)">
<path d="M135.079 33.8819C135.187 33.8811 135.294 33.9014 135.393 33.9414C135.493 33.9815 135.584 34.0407 135.66 34.1155C135.736 34.1903 135.797 34.2793 135.839 34.3774C135.88 34.4755 135.902 34.5807 135.902 34.687V43.5534C135.901 45.9215 135.254 48.2455 134.028 50.2805C132.803 52.3154 131.044 53.9859 128.938 55.1159L124.65 57.4083C124.531 57.4721 124.398 57.5054 124.262 57.5054C124.127 57.5054 123.993 57.4721 123.874 57.4083L119.586 55.1159C117.479 53.987 115.72 52.3166 114.494 50.2812C113.269 48.2459 112.622 45.921 112.623 43.5524V34.686C112.623 34.5797 112.644 34.4745 112.686 34.3764C112.727 34.2783 112.788 34.1893 112.865 34.1145C112.941 34.0397 113.032 33.9805 113.131 33.9404C113.231 33.9004 113.338 33.8801 113.445 33.8809C119.68 33.9199 122.584 31.8975 123.692 30.8097C123.844 30.6609 124.049 30.5774 124.262 30.5774C124.476 30.5774 124.681 30.6609 124.832 30.8097C125.941 31.8979 128.841 33.9202 135.079 33.8819Z" fill="white"/>
<path d="M123.827 57.4935L119.539 55.201C117.416 54.0643 115.644 52.3817 114.409 50.3312C113.174 48.2807 112.523 45.9386 112.524 43.5524V34.686C112.525 34.5674 112.548 34.4499 112.594 34.3404C112.64 34.2309 112.708 34.1314 112.793 34.0476C112.878 33.9639 112.979 33.8975 113.09 33.8523C113.201 33.8071 113.32 33.7839 113.44 33.7841H113.446C119.564 33.8218 122.447 31.8949 123.623 30.7427C123.793 30.5766 124.023 30.4834 124.262 30.4834C124.501 30.4834 124.731 30.5766 124.901 30.7427C127.353 33.1491 131.588 33.8053 135.079 33.7838H135.085C135.205 33.7836 135.324 33.8068 135.435 33.8521C135.546 33.8973 135.646 33.9637 135.731 34.0474C135.816 34.1312 135.884 34.2306 135.93 34.3402C135.976 34.4497 136 34.5671 136 34.6857V43.5521C136 45.9381 135.349 48.2799 134.114 50.3303C132.879 52.3807 131.107 54.0634 128.985 55.2007L124.697 57.4935C124.563 57.5651 124.414 57.6026 124.262 57.6026C124.11 57.6026 123.961 57.5651 123.827 57.4935ZM113.44 33.978C113.345 33.9778 113.252 33.996 113.165 34.0315C113.078 34.067 112.999 34.1191 112.932 34.1848C112.865 34.2506 112.812 34.3287 112.776 34.4146C112.739 34.5006 112.721 34.5928 112.721 34.686V43.5524C112.719 45.9037 113.361 48.2116 114.578 50.232C115.794 52.2525 117.541 53.9105 119.633 55.0306L123.921 57.3228C124.026 57.379 124.143 57.4085 124.262 57.4085C124.381 57.4085 124.499 57.379 124.603 57.3228L128.891 55.0303C130.983 53.9096 132.729 52.2515 133.945 50.2312C135.162 48.211 135.804 45.9034 135.804 43.5524V34.686C135.803 34.5924 135.785 34.4998 135.748 34.4135C135.712 34.3271 135.658 34.2488 135.591 34.183C135.524 34.1171 135.444 34.0651 135.356 34.03C135.268 33.9948 135.174 33.9771 135.08 33.978C131.546 34.0001 127.261 33.3311 124.762 30.8807C124.629 30.7503 124.449 30.6771 124.261 30.6771C124.074 30.6771 123.893 30.7503 123.76 30.8807C121.267 33.3244 116.992 34.0004 113.444 33.9783L113.44 33.978Z" fill="black"/>
<path d="M106.44 45.9159C106.44 45.9159 108.023 40.2666 109.543 39.9492C111.063 39.6319 110.002 46.785 110.002 46.785" fill="white"/>
<path d="M109.987 46.8802C109.961 46.8765 109.938 46.8628 109.923 46.8422C109.907 46.8216 109.9 46.7957 109.904 46.7703C110.143 45.1584 110.6 40.8221 109.846 40.1223C109.81 40.0861 109.765 40.0597 109.715 40.0461C109.666 40.0324 109.613 40.0318 109.564 40.0444C108.119 40.3456 106.55 45.8859 106.534 45.9417C106.531 45.9545 106.526 45.9666 106.518 45.9772C106.51 45.9878 106.5 45.9968 106.489 46.0035C106.478 46.0102 106.465 46.0146 106.452 46.0163C106.439 46.0181 106.425 46.0172 106.412 46.0137C106.4 46.0102 106.388 46.0041 106.377 45.9959C106.367 45.9877 106.358 45.9775 106.352 45.9659C106.346 45.9544 106.342 45.9417 106.341 45.9286C106.34 45.9155 106.341 45.9023 106.345 45.8899C106.41 45.6587 107.963 40.1801 109.523 39.8545C109.604 39.8359 109.688 39.8377 109.768 39.8598C109.848 39.882 109.921 39.9236 109.98 39.981C110.963 40.8928 110.134 46.5576 110.099 46.7983C110.097 46.811 110.092 46.8231 110.086 46.834C110.079 46.845 110.07 46.8545 110.06 46.8621C110.05 46.8697 110.038 46.8753 110.025 46.8784C110.013 46.8815 110 46.8821 109.987 46.8802Z" fill="black"/>
<path d="M106.879 45.9563C106.879 45.9563 115.359 38.5488 117.104 39.0732C118.476 39.486 114.464 42.9459 113.254 43.9636C113.945 43.6053 114.515 43.3484 114.858 43.4514C115.72 43.7097 114.981 44.8411 114.009 45.8413C115.914 45.0349 115.842 46.3446 114.349 47.8967C114.671 47.7907 114.941 47.7481 115.132 47.8165C116.683 48.3736 112.526 51.6472 112.526 51.6472L109.974 53.7081" fill="white"/>
<path d="M109.899 53.7691C109.883 53.749 109.875 53.7236 109.878 53.6982C109.88 53.6727 109.893 53.6493 109.913 53.6328L112.464 51.5714C113.319 50.8984 115.505 48.9801 115.376 48.1892C115.354 48.0571 115.264 47.9666 115.099 47.9075C114.946 47.853 114.712 47.8798 114.38 47.9888C114.359 47.9954 114.337 47.995 114.316 47.9877C114.296 47.9804 114.278 47.9666 114.267 47.9484C114.255 47.9302 114.25 47.9087 114.252 47.8872C114.254 47.8658 114.263 47.8456 114.278 47.8299C115.021 47.0582 115.432 46.3439 115.351 45.9694C115.244 45.474 114.521 45.7303 114.048 45.9304C114.027 45.9391 114.004 45.9405 113.983 45.9343C113.961 45.9281 113.942 45.9147 113.929 45.8963C113.916 45.878 113.91 45.8559 113.912 45.8336C113.914 45.8114 113.923 45.7904 113.939 45.7742C114.78 44.9077 115.225 44.1713 115.128 43.804C115.094 43.6795 114.998 43.5943 114.83 43.5445C114.507 43.4454 113.871 43.7535 113.301 44.0494C113.28 44.0604 113.255 44.0632 113.232 44.0573C113.208 44.0515 113.188 44.0373 113.174 44.0176C113.161 43.9979 113.155 43.9739 113.158 43.9503C113.162 43.9267 113.174 43.9051 113.192 43.8896C114.134 43.097 118.278 39.5282 117.076 39.1672C115.735 38.764 109.862 43.4807 106.944 46.0301C106.934 46.0393 106.923 46.0465 106.91 46.0512C106.898 46.0559 106.885 46.0581 106.871 46.0576C106.858 46.0572 106.845 46.054 106.833 46.0484C106.821 46.0428 106.81 46.0348 106.801 46.0249C106.793 46.0151 106.786 46.0036 106.782 45.9911C106.778 45.9786 106.776 45.9654 106.777 45.9523C106.778 45.9392 106.782 45.9265 106.788 45.9149C106.795 45.9033 106.803 45.8931 106.814 45.8848C107.161 45.581 115.351 38.4457 117.133 38.983C117.372 39.055 117.451 39.2052 117.475 39.3185C117.638 40.0972 115.737 41.957 113.897 43.5478C114.324 43.3638 114.645 43.2886 114.887 43.3615C115.121 43.4315 115.267 43.565 115.318 43.7578C115.451 44.2584 114.872 45.0398 114.369 45.6025C114.884 45.4308 115.435 45.4291 115.543 45.9327C115.657 46.4647 115.07 47.2428 114.649 47.7189C114.863 47.6767 115.031 47.6806 115.166 47.7289C115.4 47.8131 115.536 47.96 115.569 48.1618C115.745 49.2261 112.716 51.6246 112.587 51.7263L110.037 53.7866C110.016 53.8019 109.99 53.8087 109.964 53.8054C109.938 53.8021 109.915 53.7891 109.899 53.7691Z" fill="black"/>
<path d="M113.675 48.5112C113.658 48.4922 113.648 48.4672 113.649 48.4415C113.651 48.4158 113.662 48.3916 113.681 48.3741L114.282 47.8259C114.377 47.7391 114.511 47.8811 114.416 47.9686L113.815 48.5168C113.805 48.5255 113.794 48.5323 113.782 48.5367C113.77 48.5412 113.757 48.5432 113.744 48.5426C113.731 48.5421 113.718 48.5391 113.706 48.5337C113.695 48.5283 113.684 48.5206 113.675 48.5112Z" fill="black"/>
<path d="M113.347 46.2955L113.949 45.7473C114.044 45.6605 114.178 45.8025 114.083 45.89L113.481 46.4382C113.385 46.5247 113.252 46.3827 113.347 46.2955Z" fill="black"/>
<path d="M112.596 44.5616C112.579 44.5424 112.57 44.5174 112.571 44.4919C112.573 44.4664 112.584 44.4422 112.602 44.4246L113.204 43.8767C113.299 43.7899 113.433 43.9319 113.337 44.0194L112.736 44.5672C112.726 44.576 112.715 44.5828 112.703 44.5873C112.691 44.5918 112.678 44.5938 112.665 44.5933C112.652 44.5927 112.639 44.5897 112.627 44.5842C112.616 44.5788 112.605 44.5711 112.596 44.5616Z" fill="black"/>
<path d="M129.21 42.6576C129.21 43.2996 129.082 43.9353 128.834 44.5284C128.585 45.1216 128.22 45.6605 127.761 46.1143C127.302 46.5682 126.756 46.9282 126.156 47.1736C125.556 47.4191 124.912 47.5453 124.263 47.545C121.531 47.545 119.315 45.3575 119.315 42.6576C119.309 42.012 119.433 41.3718 119.68 40.7739C119.926 40.176 120.289 39.6322 120.749 39.1738C121.209 38.7155 121.757 38.3517 122.36 38.1034C122.963 37.8551 123.609 37.7273 124.262 37.7273C124.916 37.7273 125.562 37.8551 126.165 38.1034C126.768 38.3517 127.316 38.7155 127.776 39.1738C128.236 39.6322 128.599 40.176 128.845 40.7739C129.092 41.3718 129.216 42.012 129.21 42.6576Z" fill="#75C675"/>
<path d="M123.94 43.4256L122.971 42.4312C122.954 42.4125 122.945 42.388 122.946 42.3628C122.947 42.3376 122.957 42.3137 122.976 42.2962C122.994 42.2787 123.019 42.2689 123.044 42.269C123.07 42.2691 123.094 42.2789 123.113 42.2965L124.017 43.2241L125.937 41.5548C125.956 41.5392 125.982 41.5316 126.007 41.5338C126.032 41.536 126.055 41.5476 126.072 41.5664C126.089 41.5852 126.097 41.6096 126.096 41.6345C126.095 41.6595 126.085 41.6831 126.066 41.7004L124.077 43.4312C124.058 43.4475 124.033 43.456 124.007 43.455C123.982 43.4539 123.958 43.4434 123.94 43.4256Z" fill="black"/>
<path d="M39.9072 77.7558C39.9072 77.7558 46.6636 87.4785 54.1999 87.9689C61.7362 88.4593 60.7438 75.425 60.7438 75.425L39.9072 77.7558Z" fill="black"/>
<path d="M19.2254 82.1589L15.2009 89.6033L14.6934 90.5455C14.6934 90.5455 10.3692 88.7081 8.31123 92.6491C8.13179 92.9958 7.95804 93.3145 7.78963 93.6068C7.76156 93.6566 7.73349 93.7038 7.70543 93.7507C6.02869 96.6528 4.98549 96.8965 3.16107 96.5779C2.26188 96.4127 1.32127 96.0524 0.401704 95.4498C0.206054 95.3223 0.068834 95.124 0.0195356 94.8975C-0.0297628 94.6711 0.012795 94.4346 0.138064 94.2388L11.5912 76.3263C11.7087 76.141 11.8917 76.0055 12.1047 75.946C12.3177 75.8866 12.5454 75.9075 12.7437 76.0047C14.0532 76.6424 16.6809 78.1304 16.9616 79.9374C17.0371 80.4282 17.1774 80.8106 17.3485 81.1098C18.0278 82.2808 19.2254 82.1589 19.2254 82.1589Z" fill="#6680FF"/>
<path d="M13.8476 76.5969C13.4386 76.3578 13.0544 76.158 12.745 76.0074C12.5468 75.9104 12.3193 75.8894 12.1064 75.9483C11.8934 76.0073 11.7101 76.1421 11.5918 76.3267L0.138031 94.2415C0.0132839 94.4375 -0.0288033 94.674 0.0207914 94.9003C0.0703861 95.1266 0.207715 95.3247 0.403342 95.4522C0.730662 95.6662 1.07316 95.8567 1.42816 96.0221L13.8476 76.5969Z" fill="black"/>
<path d="M78.9263 141.132C78.9217 141.364 78.8254 141.585 78.6579 141.747C78.4905 141.909 78.2653 142 78.0308 142H56.5884C56.3674 142 56.1544 141.918 55.9903 141.772C55.8262 141.626 55.7227 141.425 55.6996 141.208C55.5452 139.772 55.4162 136.782 56.81 135.584C56.9731 135.445 57.1241 135.293 57.2614 135.13C58.4616 133.713 57.5 132.508 57.5 132.508H66.9639C66.9639 132.508 67.8327 136.407 72.3042 136.023L72.5876 135.998C76.7183 135.674 77.6128 136.35 78.3683 138.107C78.7809 139.061 78.949 140.109 78.9263 141.132Z" fill="#6680FF"/>
<path d="M55.6152 139.971C55.6293 140.44 55.6637 140.868 55.7004 141.207C55.7233 141.425 55.8268 141.626 55.991 141.772C56.1552 141.919 56.3685 142 56.5896 142H78.0313C78.2656 141.999 78.4905 141.908 78.6576 141.746C78.8247 141.583 78.9208 141.363 78.9251 141.131C78.9336 140.743 78.9137 140.355 78.8656 139.97L55.6152 139.971Z" fill="black"/>
<path d="M62.1075 77.287C62.1075 77.287 61.628 86.1865 58.8713 94.3376C56.3763 101.725 51.9425 108.685 44.1399 107.43C40.4309 106.832 36.8295 105.911 33.2926 104.748C21.2815 100.787 12.4814 94.759 12.4814 94.759L19.997 80.7376C19.997 80.7376 23.7591 83.0866 28.1745 85.2638C29.6448 85.987 31.1838 86.6911 32.6855 87.2842C35.5962 88.4344 38.3502 89.1602 40.1001 88.7778C44.7751 87.7524 51.155 74.7429 51.155 74.7429L62.1075 77.287Z" fill="white"/>
<path d="M42.0955 107.067C39.0357 106.473 36.0772 105.665 33.2925 104.747C33.5198 103.75 34.0842 102.858 34.8926 102.219C35.701 101.58 36.7053 101.233 37.7403 101.233C40.8204 101.233 43.0007 104.193 42.0955 107.067Z" fill="#E099ED"/>
<path d="M32.6845 87.284C32.574 87.8606 32.2633 88.3809 31.8061 88.7553C31.3489 89.1297 30.7738 89.3346 30.18 89.3348C28.0312 89.3348 26.8814 86.8911 28.1752 85.2637C29.6444 85.9869 31.1841 86.6909 32.6845 87.284Z" fill="#E099ED"/>
<path d="M44.1243 107.526C27.1277 104.808 12.5707 94.9379 12.4257 94.8385C12.4059 94.825 12.3919 94.8048 12.3861 94.7818C12.3804 94.7587 12.3834 94.7344 12.3946 94.7134L19.9105 80.6923C19.9168 80.6805 19.9255 80.6701 19.9361 80.6618C19.9467 80.6535 19.9589 80.6474 19.9719 80.6439C19.985 80.6405 19.9986 80.6398 20.012 80.6418C20.0253 80.6438 20.0381 80.6485 20.0495 80.6557C20.1966 80.7475 34.8224 89.8325 40.0778 88.6833C44.6532 87.6794 51.002 74.8301 51.0655 74.7006C51.075 74.6807 51.0913 74.6646 51.1114 74.6551C51.1315 74.6456 51.1544 74.6433 51.1761 74.6484L62.13 77.1912C62.1523 77.1964 62.1721 77.2091 62.1859 77.2272C62.1997 77.2453 62.2066 77.2676 62.2055 77.2903C62.2008 77.3794 61.6939 86.2961 58.9643 94.3663C56.4479 101.819 51.9944 108.792 44.1243 107.526ZM12.6092 94.7276C13.7382 95.4828 27.8187 104.721 44.1557 107.335C51.9078 108.581 56.2901 101.673 58.7782 94.3068C61.3608 86.6712 61.9475 78.2747 62.0047 77.3629L51.2075 74.8548C50.6438 75.9931 44.6603 87.8766 40.1202 88.8725C34.9474 90.0056 21.3885 81.7147 20.0342 80.8753L12.6092 94.7276Z" fill="black"/>
<path d="M58.8716 94.3376C56.7999 100.474 53.4367 106.183 48.0186 107.356C53.2646 96.2203 48.4172 93.1471 50.0264 86.6135C50.2032 85.887 50.2269 84.9699 50.523 84.2853C51.4061 82.2594 54.104 82.9974 55.2397 84.3408C55.908 85.1307 56.309 86.1006 56.6812 87.0623C57.5955 89.4238 58.4031 91.8572 58.8716 94.3376Z" fill="black"/>
<path d="M73.1039 102.749C73.1039 110.257 68.9899 132.507 68.9899 132.507H54.8389C55.3521 128.896 55.6549 125.684 55.7979 122.793C55.8851 120.997 55.9102 119.326 55.8821 117.76C55.585 99.6633 48.4641 95.5516 52.1831 76.4004H68.9906C68.9906 76.4004 69.6157 78.2933 70.3759 81.4222C70.7462 82.9357 71.1471 84.7398 71.5257 86.7601C72.3718 91.2863 73.1039 96.8959 73.1039 102.749Z" fill="white"/>
<path d="M71.5246 86.7599L52.5977 80.3079L69.8813 81.0783L70.3748 81.4221C70.745 82.9355 71.146 84.7396 71.5246 86.7599Z" fill="black"/>
<path d="M71.0073 102.558C71.0074 103.449 70.7402 104.319 70.2396 105.06C69.739 105.8 69.0274 106.378 68.1948 106.718C67.3622 107.059 66.4461 107.149 65.5622 106.975C64.6783 106.801 63.8664 106.372 63.2292 105.742C62.5919 105.113 62.1579 104.31 61.9821 103.437C61.8063 102.563 61.8965 101.658 62.2413 100.835C62.5862 100.012 63.1702 99.3089 63.9195 98.8141C64.6688 98.3193 65.5497 98.0552 66.4509 98.0552C67.6592 98.0554 68.818 98.5298 69.6725 99.3742C70.5269 100.219 71.007 101.364 71.0073 102.558Z" fill="#E099ED"/>
<path d="M58.3023 120.274C58.3029 120.934 58.0406 121.569 57.5721 122.04C57.1036 122.512 56.4663 122.782 55.7979 122.793C55.8851 120.997 55.9101 119.326 55.8821 117.76C56.5349 117.792 57.1503 118.071 57.6008 118.539C58.0514 119.006 58.3025 119.628 58.3023 120.274Z" fill="#E099ED"/>
<path d="M60.0232 88.9956C60.0233 89.4934 59.874 89.98 59.5942 90.3939C59.3144 90.8079 58.9167 91.1305 58.4514 91.321C57.986 91.5115 57.474 91.5614 56.98 91.4643C56.486 91.3672 56.0322 91.1275 55.676 90.7755C55.3199 90.4235 55.0773 89.9751 54.9791 89.4869C54.8808 88.9986 54.9313 88.4926 55.1241 88.0327C55.3169 87.5728 55.6433 87.1798 56.0621 86.9033C56.481 86.6267 56.9733 86.4792 57.477 86.4792C58.1523 86.4793 58.7999 86.7445 59.2773 87.2164C59.7548 87.6883 60.0231 88.3283 60.0232 88.9956Z" fill="#E099ED"/>
<path d="M68.9899 132.604H54.8389C54.8248 132.604 54.811 132.601 54.7982 132.595C54.7855 132.59 54.7741 132.581 54.7649 132.571C54.7557 132.56 54.7488 132.548 54.7448 132.535C54.7408 132.522 54.7397 132.508 54.7416 132.494C55.2285 129.069 55.5509 125.803 55.6999 122.788C55.7842 121.047 55.8126 119.356 55.7838 117.762C55.4861 99.6193 48.3525 95.6103 52.0869 76.3828C52.0911 76.3607 52.1031 76.3407 52.1207 76.3264C52.1382 76.312 52.1603 76.3042 52.1831 76.3042H68.9905C69.0111 76.3042 69.0312 76.3105 69.0479 76.3224C69.0646 76.3342 69.0772 76.351 69.0838 76.3702C69.1252 76.4951 73.2054 89.0264 73.2028 102.749C73.2028 110.179 69.1282 132.302 69.0871 132.525C69.0829 132.547 69.0709 132.567 69.0531 132.582C69.0354 132.596 69.013 132.604 68.9899 132.604ZM54.9518 132.41H68.908C69.1777 130.94 73.0059 109.938 73.0059 102.749C73.0083 89.5772 69.2405 77.5046 68.918 76.4957H52.2643C48.5823 95.5693 55.6829 99.651 55.9803 117.758C56.0087 119.357 55.9803 121.052 55.8961 122.798C55.7484 125.786 55.4306 129.02 54.9518 132.41Z" fill="black"/>
<path d="M76.8051 80.7709C76.923 83.0185 76.5528 84.629 75.2263 84.5541C70.0437 84.2684 39.9072 77.7556 39.9072 77.7556C39.9072 77.7556 49.2766 50.1399 58.7583 48.2609C65.1719 46.9915 70.988 53.8814 82.2981 52.7312C93.6082 51.581 105.785 42.9534 105.785 42.9534L111.646 55.3701C93.7799 69.9202 73.9391 67.7968 73.9391 67.7968C75.0645 71.4032 76.6113 76.9944 76.8051 80.7709Z" fill="#E099ED"/>
<path d="M77.7696 68.0278C72.4193 68.0278 68.6428 66.7849 66.121 65.4375C61.6378 63.042 60.0369 59.8018 60.0215 59.7694C60.0152 59.7578 60.0114 59.7451 60.0102 59.732C60.009 59.7189 60.0105 59.7057 60.0146 59.6932C60.0187 59.6807 60.0254 59.6691 60.0342 59.6593C60.043 59.6494 60.0537 59.6414 60.0657 59.6357C60.0777 59.63 60.0907 59.6268 60.104 59.6263C60.1173 59.6258 60.1306 59.6279 60.143 59.6326C60.1555 59.6373 60.1668 59.6444 60.1764 59.6536C60.1859 59.6627 60.1935 59.6737 60.1986 59.6858C60.214 59.7189 61.7942 62.9096 66.2273 65.2737C70.3225 67.4579 77.7606 69.363 89.9371 66.0332C89.9619 66.0273 89.988 66.0311 90.0099 66.0439C90.0319 66.0566 90.048 66.0773 90.0548 66.1015C90.0617 66.1257 90.0587 66.1517 90.0466 66.1738C90.0345 66.1959 90.0142 66.2125 89.9899 66.2202C85.2237 67.5226 81.1772 68.0278 77.7696 68.0278Z" fill="black"/>
<path d="M67.57 40.1234C67.4614 36.3937 65.4786 36.2002 63.0861 36.2002C60.5132 36.2002 58.8218 37.9016 58.8218 40.7125C58.8218 41.871 59.2167 47.6543 59.2809 48.5889H64.5821L63.9646 45.4295C66.6377 45.0993 66.9839 43.7338 67.4063 42.1688C67.9803 42.2494 68.4568 42.2927 68.5541 41.9829C68.6583 41.6616 68.119 40.7475 67.57 40.1234Z" fill="white"/>
<path d="M64.5822 48.6873H59.281C59.2562 48.6868 59.2326 48.6773 59.2145 48.6606C59.1964 48.6439 59.1852 48.6211 59.1831 48.5968C59.1066 47.4826 58.7236 41.8666 58.7236 40.7138C58.7236 37.9137 60.4361 36.1047 63.0862 36.1047C65.608 36.1047 67.5477 36.3986 67.6673 40.0873C68.1468 40.6395 68.7767 41.6133 68.6484 42.0133C68.5268 42.4013 67.9641 42.3435 67.4789 42.2774C67.0779 43.7635 66.6769 45.1567 64.08 45.5137L64.6778 48.572C64.6804 48.586 64.68 48.6003 64.6765 48.6141C64.6729 48.6279 64.6663 48.6407 64.6572 48.6517C64.6481 48.6627 64.6367 48.6716 64.6237 48.6777C64.6107 48.6839 64.5966 48.6871 64.5822 48.6873ZM59.3729 48.4931H64.4632L63.8681 45.449C63.8659 45.436 63.8663 45.4227 63.8693 45.4098C63.8724 45.397 63.878 45.3849 63.8858 45.3742C63.8937 45.3635 63.9036 45.3545 63.915 45.3477C63.9264 45.3408 63.9391 45.3363 63.9523 45.3344C66.3117 45.0425 66.8069 44.0135 67.3125 42.145C67.3191 42.1223 67.3336 42.1027 67.3535 42.0897C67.3734 42.0767 67.3974 42.0711 67.4211 42.074C67.9463 42.148 68.3874 42.1899 68.4609 41.9555C68.5425 41.7018 68.0733 40.8436 67.4963 40.1884C67.4814 40.1714 67.4728 40.15 67.4719 40.1276C67.3683 36.5733 65.589 36.2969 63.0862 36.2969C60.5163 36.2969 58.9201 37.9887 58.9201 40.7121C58.9201 41.8438 59.3037 47.4875 59.3729 48.4931Z" fill="black"/>
<path d="M67.3668 33.7967C68.6449 32.274 71.9563 35.7986 67.2331 38.1152C67.2331 38.1152 60.7173 36.8068 60.9439 38.5372C61.1704 40.2676 62.1899 41.3633 59.8582 42.5958C58.3248 43.4061 57.2469 42.1004 57.2469 42.1004C57.2469 42.1004 53.5406 37.0904 57.6445 36.9762C57.6445 36.9762 56.4082 33.8812 59.5782 33.3106C59.5782 33.3106 57.853 30.9329 59.8519 29.7837C61.8507 28.6345 63.5736 32.2251 63.5736 32.2251C63.5736 32.2251 63.0196 29.2788 65.3887 29.3828C67.9121 29.4948 67.3668 33.7967 67.3668 33.7967Z" fill="black"/>
<path d="M58.8579 42.9566C57.8405 42.9566 57.1782 42.1733 57.1695 42.164C57.079 42.0415 55.0347 39.2497 55.7718 37.7634C56.0358 37.2314 56.6192 36.9378 57.5067 36.8869C57.3814 36.5075 57.0783 35.3622 57.6069 34.4221C57.9427 33.825 58.5502 33.4294 59.4136 33.2454C59.1921 32.9 58.625 31.8948 58.8309 30.9444C58.9435 30.4253 59.2699 30.0072 59.7999 29.7017C60.236 29.4511 60.6934 29.3966 61.1602 29.5396C62.2007 29.8582 63.0314 31.0742 63.42 31.7422C63.3943 31.2099 63.4454 30.3737 63.9292 29.8236C64.2664 29.4402 64.7563 29.2602 65.3905 29.2879C65.9388 29.312 66.3909 29.528 66.7344 29.9302C67.5995 30.9434 67.5427 32.8465 67.4882 33.5463C67.7762 33.3297 68.1391 33.2725 68.5184 33.3917C69.2014 33.6064 69.7213 34.3005 69.7804 35.0796C69.8332 35.7612 69.5776 37.0735 67.2744 38.2032C67.2547 38.2128 67.2323 38.2156 67.2109 38.2111C67.1604 38.2012 62.1693 37.2119 61.1846 38.119C61.1273 38.1689 61.0838 38.2324 61.0582 38.3035C61.0326 38.3747 61.0259 38.4511 61.0386 38.5255C61.2648 40.248 62.3083 41.4101 59.9025 42.6822C59.5266 42.8803 59.1747 42.9566 58.8579 42.9566ZM59.9001 29.8685C59.419 30.1452 59.1239 30.5204 59.0233 30.9833C58.7925 32.0457 59.6479 33.2428 59.6582 33.255C59.6673 33.2685 59.6729 33.2839 59.6746 33.3C59.6762 33.3161 59.6739 33.3324 59.6677 33.3473C59.6615 33.3623 59.6518 33.3756 59.6392 33.386C59.6267 33.3964 59.6117 33.4036 59.5957 33.4069C58.7156 33.5654 58.1044 33.9383 57.78 34.5155C57.1946 35.5564 57.7305 36.9282 57.7359 36.9417C57.7416 36.9562 57.7436 36.9718 57.7419 36.9872C57.7403 37.0027 57.7348 37.0175 57.7262 37.0304C57.7175 37.0433 57.7058 37.054 57.6921 37.0616C57.6784 37.0691 57.663 37.0733 57.6473 37.0738C56.7632 37.0983 56.1918 37.3585 55.9496 37.8472C55.2639 39.2296 57.3055 42.0158 57.3262 42.0435C57.365 42.0901 58.3708 43.2716 59.8123 42.5095C62.0677 41.3173 61.0757 40.2916 60.8464 38.549C60.8294 38.4439 60.8394 38.3362 60.8756 38.2359C60.9118 38.1357 60.9731 38.046 61.0536 37.9754C62.0788 37.0312 66.7387 37.9182 67.2196 38.013C69.3915 36.9374 69.6364 35.7228 69.588 35.0928C69.5272 34.3098 68.9755 33.7365 68.4619 33.5737C68.0639 33.4485 67.7021 33.5486 67.4438 33.8567C67.4302 33.8729 67.4117 33.8842 67.391 33.8891C67.3704 33.894 67.3487 33.8921 67.3292 33.8838C67.3097 33.8755 67.2934 33.8611 67.2829 33.8429C67.2724 33.8247 67.2681 33.8036 67.2707 33.7827C67.274 33.757 67.5818 31.2168 66.587 30.0511C66.2806 29.6921 65.876 29.4993 65.3841 29.4778C64.8161 29.4527 64.3763 29.6099 64.0809 29.9467C63.4006 30.7198 63.6676 32.1923 63.6706 32.2052C63.6751 32.2285 63.6709 32.2525 63.6587 32.2729C63.6465 32.2933 63.6272 32.3085 63.6044 32.3158C63.5817 32.3231 63.557 32.322 63.535 32.3125C63.513 32.3031 63.4953 32.2861 63.4852 32.2647C63.4751 32.2432 62.4493 30.132 61.1051 29.7219C60.6914 29.5977 60.2867 29.6462 59.9001 29.8685Z" fill="black"/>
<path d="M60.2014 42.468C60.2015 42.75 60.1169 43.0256 59.9585 43.2601C59.8 43.4946 59.5747 43.6774 59.3112 43.7853C59.0476 43.8933 58.7575 43.9216 58.4777 43.8666C58.1979 43.8116 57.9408 43.6759 57.739 43.4765C57.5372 43.2772 57.3998 43.0231 57.3441 42.7466C57.2885 42.47 57.317 42.1834 57.4262 41.9229C57.5353 41.6623 57.7202 41.4397 57.9575 41.283C58.1947 41.1263 58.4736 41.0427 58.7589 41.0427C59.1414 41.0428 59.5082 41.193 59.7787 41.4603C60.0492 41.7275 60.2012 42.09 60.2014 42.468Z" fill="white"/>
<path d="M58.7588 43.9915C58.4542 43.9915 58.1564 43.9021 57.9031 43.7348C57.6498 43.5675 57.4524 43.3297 57.3359 43.0515C57.2194 42.7733 57.1889 42.4672 57.2484 42.1719C57.3079 41.8767 57.4546 41.6054 57.67 41.3926C57.8855 41.1797 58.16 41.0347 58.4588 40.976C58.7576 40.9173 59.0673 40.9475 59.3487 41.0627C59.6302 41.1779 59.8707 41.3731 60.04 41.6234C60.2092 41.8737 60.2996 42.1681 60.2996 42.4692C60.2991 42.8728 60.1366 43.2599 59.8478 43.5453C59.5589 43.8307 59.1673 43.9912 58.7588 43.9915ZM58.7588 41.1406C58.4929 41.1406 58.233 41.2185 58.012 41.3645C57.7909 41.5105 57.6186 41.718 57.5169 41.9607C57.4151 42.2035 57.3885 42.4706 57.4404 42.7283C57.4923 42.986 57.6203 43.2228 57.8083 43.4086C57.9963 43.5944 58.2358 43.7209 58.4966 43.7721C58.7573 43.8234 59.0276 43.7971 59.2733 43.6965C59.5189 43.596 59.7288 43.4257 59.8765 43.2072C60.0242 42.9888 60.1031 42.7319 60.1031 42.4692C60.1026 42.1169 59.9609 41.7793 59.7089 41.5302C59.4569 41.2812 59.1152 41.1411 58.7588 41.1406Z" fill="black"/>
<path d="M66.0954 39.9207C66.0956 39.9944 66.0737 40.0665 66.0324 40.1279C65.9911 40.1892 65.9323 40.2371 65.8634 40.2654C65.7946 40.2937 65.7188 40.3011 65.6456 40.2868C65.5725 40.2725 65.5053 40.237 65.4526 40.1849C65.3999 40.1328 65.364 40.0664 65.3495 39.9941C65.335 39.9218 65.3425 39.8469 65.3711 39.7789C65.3998 39.7108 65.4482 39.6527 65.5103 39.6119C65.5724 39.5711 65.6453 39.5494 65.7199 39.5496C65.8194 39.5498 65.9148 39.589 65.9852 39.6586C66.0555 39.7281 66.0952 39.8224 66.0954 39.9207Z" fill="black"/>
<path d="M64.6802 38.9516C64.6802 38.9516 65.578 38.2283 66.4371 39.1735L64.6802 38.9516Z" fill="white"/>
<path d="M66.3624 39.2386C65.5745 38.3717 64.7739 38.9999 64.7404 39.0269C64.7201 39.0415 64.6949 39.0479 64.6701 39.0447C64.6452 39.0415 64.6224 39.029 64.6066 39.0097C64.5907 38.9905 64.5829 38.966 64.5847 38.9413C64.5866 38.9165 64.5979 38.8934 64.6165 38.8767C64.6262 38.8687 65.5975 38.1059 66.5084 39.1078C66.5249 39.1271 66.5331 39.152 66.5314 39.1771C66.5296 39.2023 66.5181 39.2258 66.4991 39.2427C66.4801 39.2596 66.4552 39.2685 66.4297 39.2675C66.4042 39.2666 66.38 39.2559 66.3624 39.2376V39.2386Z" fill="black"/>
<path d="M65.0107 42.9065C65.0107 42.9065 65.8849 43.8127 66.9411 43.495L65.0107 42.9065Z" fill="white"/>
<path d="M64.9394 42.9734C64.9222 42.9546 64.9132 42.93 64.9141 42.9048C64.9151 42.8795 64.926 42.8556 64.9444 42.8382C64.9629 42.8207 64.9876 42.8111 65.0131 42.8113C65.0387 42.8115 65.0632 42.8216 65.0814 42.8393C65.0897 42.8479 65.9291 43.6979 66.9121 43.4007C66.9246 43.3965 66.9378 43.3949 66.9509 43.3958C66.964 43.3968 66.9768 43.4003 66.9885 43.4062C67.0002 43.4122 67.0106 43.4203 67.019 43.4303C67.0275 43.4403 67.0338 43.4518 67.0377 43.4642C67.0415 43.4767 67.0428 43.4897 67.0414 43.5027C67.0401 43.5156 67.0361 43.5281 67.0298 43.5395C67.0234 43.5509 67.0148 43.5609 67.0045 43.5689C66.9942 43.577 66.9823 43.5829 66.9696 43.5863C66.2168 43.8138 65.4092 43.4605 64.9394 42.9734Z" fill="black"/>
<path d="M66.1393 49.7845L66.0548 49.4331C65.9775 49.1137 65.8106 48.8224 65.5732 48.5926C65.3358 48.3628 65.0376 48.204 64.7128 48.1343L59.5767 47.034C59.3502 46.9855 59.1135 47.0235 58.9141 47.1403C58.7148 47.2571 58.5674 47.4441 58.5018 47.6637L58.2441 48.525L66.1393 49.7845Z" fill="#6680FF"/>
<path d="M99.5402 9.91762C99.5402 15.342 95.0897 19.7401 89.6011 19.7401C84.1124 19.7401 79.6616 15.342 79.6616 9.91762C79.6616 4.49322 84.1118 0.097168 89.6004 0.097168C95.0891 0.097168 99.5402 4.49322 99.5402 9.91762Z" fill="white"/>
<path d="M89.601 19.8371C84.0666 19.8371 79.564 15.3872 79.564 9.91754C79.564 4.4479 84.0666 0 89.601 0C95.1354 0 99.638 4.44889 99.638 9.91754C99.638 15.3862 95.1354 19.8371 89.601 19.8371ZM89.601 0.193846C84.1748 0.193846 79.7618 4.55721 79.7618 9.91754C79.7618 15.2779 84.1765 19.6432 89.6027 19.6432C95.0288 19.6432 99.4429 15.2802 99.4429 9.91754C99.4429 4.5549 95.0275 0.193846 89.601 0.193846Z" fill="black"/>
<path d="M96.9333 9.91889C96.9333 13.9035 93.6687 17.1642 89.6022 17.1642C85.5477 17.1642 82.2681 13.9127 82.2681 9.91889C82.2681 5.9168 85.553 2.67358 89.6022 2.67358C93.6514 2.67358 96.9333 5.9168 96.9333 9.91889Z" fill="#E099ED"/>
<path d="M92.8169 7.75344C92.817 8.38229 92.6285 8.99705 92.275 9.51996C91.9216 10.0429 91.4192 10.4505 90.8314 10.6912C90.2435 10.9319 89.5967 10.9948 88.9726 10.8722C88.3485 10.7495 87.7753 10.4467 87.3254 10.002C86.8755 9.5573 86.5691 8.99074 86.445 8.37396C86.321 7.75718 86.3848 7.11789 86.6284 6.53696C86.872 5.95602 87.2845 5.45954 87.8136 5.1103C88.3428 4.76106 88.9648 4.57476 89.6011 4.57495C90.0234 4.57495 90.4416 4.65717 90.8318 4.81691C91.222 4.97664 91.5765 5.21077 91.8751 5.50593C92.1738 5.80108 92.4106 6.15148 92.5722 6.53711C92.7338 6.92274 92.817 7.33605 92.8169 7.75344Z" fill="white"/>
<path d="M95.1862 14.6111C94.4984 15.4113 93.6427 16.0542 92.6785 16.495C91.7142 16.9359 90.6645 17.1642 89.6021 17.1642C88.5397 17.1642 87.49 16.9359 86.5258 16.495C85.5616 16.0542 84.7059 15.4113 84.0181 14.6111C84.7059 13.811 85.5616 13.1682 86.5259 12.7274C87.4901 12.2867 88.5397 12.0583 89.6021 12.0583C90.6645 12.0583 91.7142 12.2867 92.6784 12.7274C93.6426 13.1682 94.4983 13.811 95.1862 14.6111Z" fill="white"/>
<path d="M104.829 23.0793H73.9932C73.5596 23.0793 73.208 23.4268 73.208 23.8554V28.5318C73.208 28.9604 73.5596 29.3079 73.9932 29.3079H104.829C105.262 29.3079 105.614 28.9604 105.614 28.5318V23.8554C105.614 23.4268 105.262 23.0793 104.829 23.0793Z" fill="white"/>
<path d="M104.828 29.4045H73.9933C73.7591 29.4043 73.5345 29.3122 73.3689 29.1485C73.2033 28.9848 73.1101 28.7629 73.1099 28.5314V23.8553C73.1101 23.6238 73.2033 23.4019 73.3689 23.2382C73.5345 23.0745 73.7591 22.9824 73.9933 22.9822H104.828C105.063 22.9825 105.287 23.0746 105.453 23.2383C105.618 23.402 105.711 23.6239 105.712 23.8553V28.5321C105.711 28.7634 105.618 28.9851 105.452 29.1486C105.287 29.3122 105.063 29.4042 104.828 29.4045ZM73.9933 23.176C73.8111 23.1763 73.6365 23.2479 73.5076 23.3753C73.3788 23.5026 73.3063 23.6752 73.306 23.8553V28.5321C73.3063 28.7121 73.3788 28.8848 73.5076 29.0121C73.6365 29.1394 73.8111 29.2111 73.9933 29.2114H104.828C105.011 29.2111 105.185 29.1394 105.314 29.0121C105.443 28.8848 105.516 28.7121 105.516 28.5321V23.856C105.516 23.6759 105.443 23.5033 105.314 23.3759C105.185 23.2486 105.011 23.1769 104.828 23.1767L73.9933 23.176Z" fill="black"/>
<path d="M104.829 33.4517H73.9932C73.5596 33.4517 73.208 33.7991 73.208 34.2277V38.9041C73.208 39.3327 73.5596 39.6802 73.9932 39.6802H104.829C105.262 39.6802 105.614 39.3327 105.614 38.9041V34.2277C105.614 33.7991 105.262 33.4517 104.829 33.4517Z" fill="white"/>
<path d="M104.828 39.7769H73.9933C73.7591 39.7766 73.5345 39.6845 73.3689 39.5208C73.2033 39.3571 73.1101 39.1352 73.1099 38.9037V34.2276C73.1101 33.9961 73.2033 33.7742 73.3689 33.6105C73.5345 33.4468 73.7591 33.3548 73.9933 33.3545H104.828C105.063 33.3548 105.287 33.447 105.453 33.6106C105.618 33.7743 105.711 33.9962 105.712 34.2276V38.9037C105.711 39.1351 105.618 39.357 105.453 39.5207C105.287 39.6844 105.063 39.7765 104.828 39.7769ZM73.9933 33.5483C73.8111 33.5486 73.6365 33.6203 73.5076 33.7476C73.3788 33.8749 73.3063 34.0475 73.306 34.2276V38.9037C73.3063 39.0838 73.3788 39.2564 73.5076 39.3838C73.6365 39.5111 73.8111 39.5827 73.9933 39.583H104.828C105.011 39.5827 105.185 39.5111 105.314 39.3838C105.443 39.2564 105.516 39.0838 105.516 38.9037V34.2276C105.516 34.0475 105.443 33.8749 105.314 33.7476C105.185 33.6203 105.011 33.5486 104.828 33.5483H73.9933Z" fill="black"/>
<path d="M79.6673 23.0793H73.9936C73.7853 23.0793 73.5855 23.1611 73.4382 23.3066C73.2909 23.4521 73.2081 23.6495 73.208 23.8554V28.5321C73.2081 28.738 73.2909 28.9354 73.4382 29.081C73.5855 29.2266 73.7853 29.3084 73.9936 29.3085H79.6673V23.0793Z" fill="white"/>
<path d="M79.6671 29.4045H73.9933C73.7591 29.4043 73.5345 29.3122 73.3689 29.1485C73.2033 28.9848 73.1101 28.7629 73.1099 28.5314V23.8553C73.1101 23.6238 73.2033 23.4019 73.3689 23.2382C73.5345 23.0745 73.7591 22.9824 73.9933 22.9822H79.6671C79.6931 22.9823 79.718 22.9925 79.7364 23.0107C79.7547 23.0289 79.765 23.0536 79.765 23.0793V29.3078C79.765 29.3334 79.7547 29.3581 79.7363 29.3762C79.718 29.3943 79.6931 29.4045 79.6671 29.4045ZM73.9933 23.1764C73.8112 23.1765 73.6365 23.2481 73.5076 23.3754C73.3788 23.5027 73.3063 23.6753 73.306 23.8553V28.5321C73.3063 28.7121 73.3788 28.8848 73.5076 29.0121C73.6365 29.1394 73.8111 29.2111 73.9933 29.2114H79.5689V23.1764H73.9933Z" fill="black"/>
<path d="M79.6673 33.4526H73.9936C73.7853 33.4526 73.5855 33.5344 73.4382 33.6799C73.2909 33.8254 73.2081 34.0228 73.208 34.2287V38.9048C73.2081 39.1106 73.2909 39.308 73.4382 39.4535C73.5855 39.5991 73.7853 39.6808 73.9936 39.6808H79.6673V33.4526Z" fill="white"/>
<path d="M79.6671 39.7769H73.9933C73.7591 39.7766 73.5345 39.6845 73.3689 39.5208C73.2033 39.3571 73.1101 39.1352 73.1099 38.9037V34.2276C73.1101 33.9961 73.2033 33.7742 73.3689 33.6105C73.5345 33.4468 73.7591 33.3548 73.9933 33.3545H79.6671C79.68 33.3545 79.6927 33.357 79.7046 33.3619C79.7165 33.3668 79.7274 33.3739 79.7365 33.3829C79.7456 33.392 79.7528 33.4027 79.7577 33.4145C79.7626 33.4262 79.7651 33.4388 79.765 33.4516V39.6798C79.7651 39.6925 79.7626 39.7051 79.7577 39.7169C79.7528 39.7287 79.7456 39.7394 79.7365 39.7484C79.7274 39.7574 79.7165 39.7646 79.7046 39.7695C79.6927 39.7743 79.68 39.7769 79.6671 39.7769ZM73.9933 33.5483C73.8111 33.5486 73.6365 33.6203 73.5076 33.7476C73.3788 33.8749 73.3063 34.0475 73.306 34.2276V38.9037C73.3063 39.0838 73.3788 39.2564 73.5076 39.3838C73.6365 39.5111 73.8111 39.5827 73.9933 39.583H79.5689V33.5483H73.9933Z" fill="black"/>
<path d="M75.123 27.7458C75.1285 27.4048 75.2695 27.0796 75.5154 26.8404C75.7614 26.6011 76.0926 26.467 76.4377 26.467C76.7828 26.467 77.1141 26.6011 77.36 26.8404C77.606 27.0796 77.7469 27.4048 77.7524 27.7458H75.123Z" fill="#CAD5FF"/>
<path d="M77.1374 25.3329C77.1374 25.4697 77.0964 25.6035 77.0195 25.7174C76.9426 25.8312 76.8333 25.9199 76.7054 25.9723C76.5774 26.0247 76.4367 26.0384 76.3008 26.0118C76.165 25.9851 76.0403 25.9192 75.9423 25.8224C75.8444 25.7256 75.7777 25.6023 75.7507 25.4681C75.7237 25.3338 75.7376 25.1947 75.7907 25.0683C75.8437 24.9419 75.9335 24.8338 76.0486 24.7578C76.1638 24.6818 76.2992 24.6413 76.4377 24.6414C76.5296 24.6413 76.6206 24.6591 76.7055 24.6938C76.7905 24.7285 76.8676 24.7795 76.9326 24.8437C76.9976 24.9079 77.0491 24.9842 77.0843 25.0681C77.1194 25.1521 77.1375 25.242 77.1374 25.3329Z" fill="#CAD5FF"/>
<path d="M77.7491 35.9109H75.623C75.3943 35.9109 75.209 36.0941 75.209 36.32V37.5231C75.209 37.7491 75.3943 37.9322 75.623 37.9322H77.7491C77.9778 37.9322 78.1631 37.7491 78.1631 37.5231V36.32C78.1631 36.0941 77.9778 35.9109 77.7491 35.9109Z" fill="#CAD5FF"/>
<path d="M77.6983 36.1175H75.6744C75.6615 36.1176 75.6488 36.1151 75.6368 36.1103C75.6249 36.1054 75.6141 36.0983 75.605 36.0893C75.5958 36.0803 75.5886 36.0696 75.5837 36.0579C75.5787 36.0461 75.5762 36.0335 75.5762 36.0208V35.5585C75.5762 35.2675 75.6931 34.9885 75.9013 34.7827C76.1095 34.577 76.3918 34.4614 76.6862 34.4614C76.9806 34.4614 77.2629 34.577 77.4711 34.7827C77.6793 34.9885 77.7962 35.2675 77.7962 35.5585V36.0208C77.7962 36.0464 77.7859 36.0711 77.7675 36.0892C77.7492 36.1073 77.7243 36.1175 77.6983 36.1175ZM75.7723 35.9237H77.6001V35.5604C77.6001 35.3209 77.5038 35.0912 77.3324 34.9218C77.161 34.7524 76.9286 34.6573 76.6862 34.6573C76.4438 34.6573 76.2114 34.7524 76.04 34.9218C75.8686 35.0912 75.7723 35.3209 75.7723 35.5604V35.9237Z" fill="#CAD5FF"/>
<path d="M77.0256 36.8784C77.0257 36.9476 77.005 37.0153 76.9661 37.0728C76.9273 37.1304 76.872 37.1752 76.8074 37.2018C76.7427 37.2283 76.6716 37.2353 76.6029 37.2218C76.5342 37.2083 76.4712 37.1751 76.4216 37.1262C76.3721 37.0773 76.3384 37.015 76.3247 36.9471C76.311 36.8793 76.318 36.8089 76.3448 36.745C76.3715 36.6811 76.4169 36.6265 76.4751 36.588C76.5333 36.5496 76.6017 36.5291 76.6717 36.5291C76.7655 36.5292 76.8553 36.5661 76.9216 36.6316C76.9879 36.697 77.0253 36.7858 77.0256 36.8784Z" fill="white"/>
<path d="M127.853 30.557C128.603 29.2574 129.083 27.8236 129.267 26.3389C129.451 24.8541 129.334 23.3481 128.924 21.9082C128.514 20.4684 127.818 19.1235 126.878 17.9516C125.937 16.7797 124.77 15.8043 123.445 15.082C122.046 14.3198 120.688 13.9645 119.402 14.0252C118.085 14.0883 116.885 14.6197 116.097 15.474C117.02 16.2315 117.784 17.458 117.492 18.6076C117.086 20.2065 115.247 20.5229 114.882 18.6832C114.673 17.6344 115.134 16.319 115.815 15.4994C114.612 14.5906 112.913 14.1785 111.227 14.445C109.403 14.7349 107.575 15.7329 105.793 17.4075C105.784 17.4167 105.773 17.4239 105.761 17.4288C105.749 17.4337 105.736 17.4362 105.723 17.436C105.709 17.4358 105.696 17.4331 105.684 17.4279C105.672 17.4227 105.662 17.4152 105.653 17.4058C105.643 17.3964 105.636 17.3853 105.632 17.3732C105.627 17.3611 105.625 17.3481 105.626 17.3352C105.626 17.3222 105.629 17.3095 105.635 17.2978C105.64 17.286 105.648 17.2755 105.658 17.2668C107.469 15.5635 109.334 14.5497 111.196 14.2534C112.94 13.9767 114.697 14.4077 115.944 15.3528C116.766 14.4569 118.019 13.8971 119.392 13.8314C120.712 13.7687 122.11 14.1316 123.541 14.9116C124.889 15.6463 126.076 16.6384 127.033 17.8304C127.99 19.0224 128.697 20.3905 129.115 21.8551C129.532 23.3197 129.65 24.8517 129.463 26.3619C129.276 27.8722 128.787 29.3306 128.025 30.6525C127.959 30.7637 127.788 30.6693 127.853 30.557ZM115.967 15.6199C115.221 16.5159 114.905 17.7995 115.073 18.6455C115.405 20.3185 116.959 19.9077 117.3 18.56C117.57 17.497 116.84 16.3372 115.967 15.6199Z" fill="black"/>
<path d="M127.847 30.6392L127.33 29.3972C127.323 29.3852 127.32 29.372 127.319 29.3585C127.318 29.3449 127.32 29.3313 127.324 29.3185C127.329 29.3058 127.336 29.2941 127.346 29.2843C127.355 29.2746 127.367 29.2669 127.38 29.2618C127.392 29.2567 127.406 29.2542 127.42 29.2547C127.434 29.2551 127.447 29.2584 127.459 29.2643C127.472 29.2703 127.483 29.2787 127.492 29.289C127.5 29.2994 127.507 29.3115 127.511 29.3246L127.991 30.4771L129.158 30.0029C129.17 29.9971 129.183 29.9939 129.197 29.9934C129.21 29.9928 129.224 29.995 129.236 29.9997C129.248 30.0045 129.26 30.0117 129.269 30.0209C129.279 30.0302 129.287 30.0413 129.292 30.0535C129.297 30.0657 129.299 30.0788 129.299 30.0921C129.299 30.1053 129.296 30.1183 129.29 30.1304C129.285 30.1424 129.277 30.1532 129.267 30.1621C129.257 30.1711 129.245 30.1779 129.233 30.1822L127.975 30.6934C127.951 30.7029 127.924 30.7026 127.9 30.6924C127.876 30.6823 127.857 30.6631 127.847 30.6392Z" fill="black"/>
<path d="M76.8052 80.7709C62.4159 77.8055 63.7986 63.834 63.7986 63.834C66.6449 65.8656 69.9709 67.2737 73.9392 67.7968C75.0646 71.4032 76.6114 76.9944 76.8052 80.7709Z" fill="black"/>
<path d="M106.967 57.5596L99.8703 47.037C99.8568 47.0156 99.8523 46.9899 99.8577 46.9652C99.8631 46.9406 99.878 46.919 99.8992 46.905C99.9204 46.891 99.9463 46.8857 99.9714 46.8903C99.9965 46.8948 100.019 46.9088 100.034 46.9294L107.13 57.4519C107.137 57.4625 107.142 57.4744 107.145 57.4868C107.147 57.4993 107.147 57.5122 107.145 57.5247C107.142 57.5371 107.137 57.549 107.13 57.5596C107.123 57.5702 107.114 57.5792 107.103 57.5863C107.092 57.5934 107.08 57.5983 107.068 57.6008C107.055 57.6033 107.042 57.6033 107.03 57.6008C107.017 57.5983 107.005 57.5934 106.994 57.5863C106.984 57.5792 106.974 57.5701 106.967 57.5596Z" fill="black"/>
<path d="M104.579 49.0145C104.356 49.0144 104.138 48.9488 103.952 48.8261C103.766 48.7033 103.621 48.5289 103.536 48.3248C103.45 48.1207 103.428 47.8961 103.471 47.6795C103.515 47.4629 103.623 47.2639 103.781 47.1078C103.939 46.9516 104.14 46.8453 104.359 46.8022C104.579 46.7591 104.806 46.7813 105.012 46.8658C105.219 46.9503 105.395 47.0935 105.519 47.2772C105.644 47.4608 105.71 47.6767 105.71 47.8976C105.71 48.1938 105.59 48.4778 105.378 48.6872C105.167 48.8966 104.879 49.0143 104.579 49.0145ZM104.579 46.9746C104.394 46.9746 104.214 47.0288 104.06 47.1304C103.906 47.232 103.786 47.3765 103.715 47.5454C103.644 47.7144 103.626 47.9003 103.662 48.0796C103.698 48.259 103.787 48.4238 103.918 48.5531C104.049 48.6824 104.215 48.7705 104.397 48.8061C104.578 48.8418 104.767 48.8235 104.937 48.7535C105.108 48.6835 105.255 48.565 105.357 48.413C105.46 48.2609 105.515 48.0821 105.515 47.8993C105.515 47.654 105.416 47.4188 105.241 47.2454C105.066 47.072 104.828 46.9746 104.579 46.9746Z" fill="black"/>
<path d="M63.9646 45.4303L61.7339 44.9363L64.2099 46.6855L63.9646 45.4303Z" fill="black"/>
<path d="M64.1524 46.7645L61.6764 45.0143C61.658 45.0012 61.6446 44.9823 61.6387 44.9606C61.6327 44.939 61.6346 44.9159 61.6439 44.8955C61.6532 44.875 61.6693 44.8584 61.6897 44.8483C61.71 44.8383 61.7332 44.8356 61.7553 44.8406L63.9857 45.3359C64.0007 45.3397 64.0147 45.3468 64.0264 45.3568C64.0382 45.3668 64.0474 45.3793 64.0534 45.3934C64.0595 45.4075 64.0621 45.4229 64.0611 45.4381C64.0602 45.4534 64.0556 45.4683 64.0479 45.4815C64.1067 45.5245 64.0706 45.5146 64.3058 46.6671C64.3095 46.6861 64.3073 46.7058 64.2996 46.7236C64.2919 46.7414 64.2789 46.7565 64.2624 46.767C64.246 46.7775 64.2267 46.7829 64.2071 46.7824C64.1875 46.782 64.1684 46.7757 64.1524 46.7645ZM62.1843 45.1358L64.0666 46.4653C63.8942 45.543 63.8741 45.5707 63.9018 45.5162L62.1843 45.1358Z" fill="black"/>
<path d="M69.5203 129.189H58.1079V129.383H69.5203V129.189Z" fill="black"/>
<path d="M22.613 85.3061L16.6094 97.3008L16.7852 97.3867L22.7888 85.392L22.613 85.3061Z" fill="black"/>
<path d="M78.3676 138.106C76.1903 138.985 73.6712 138.091 72.5869 135.997C76.7186 135.672 77.6131 136.349 78.3676 138.106Z" fill="black"/>
<path d="M57.2617 135.129C58.462 133.713 57.5003 132.507 57.5003 132.507H66.8386L57.2617 135.129Z" fill="black"/>
<path d="M19.2258 82.1596L15.2017 89.6038L17.3495 81.1118C18.0282 82.2815 19.2258 82.1596 19.2258 82.1596Z" fill="black"/>
<path d="M84.1274 26.1921C84.1277 26.3985 84.066 26.6003 83.9502 26.7721C83.8344 26.9439 83.6697 27.0778 83.4768 27.157C83.284 27.2363 83.0717 27.2572 82.8668 27.2172C82.662 27.1772 82.4737 27.078 82.3258 26.9323C82.178 26.7865 82.0772 26.6007 82.0362 26.3983C81.9952 26.1959 82.0158 25.9861 82.0955 25.7953C82.1752 25.6045 82.3103 25.4414 82.4838 25.3265C82.6573 25.2116 82.8614 25.1502 83.0702 25.1499C83.3501 25.1501 83.6185 25.2599 83.8166 25.4552C84.0148 25.6505 84.1265 25.9155 84.1274 26.1921Z" fill="white"/>
<path d="M83.0698 27.334C82.8416 27.3337 82.6187 27.2666 82.4291 27.1412C82.2395 27.0158 82.0918 26.8376 82.0046 26.6292C81.9174 26.4209 81.8947 26.1916 81.9392 25.9705C81.9838 25.7494 82.0937 25.5463 82.255 25.3868C82.4164 25.2274 82.6219 25.1188 82.8456 25.0747C83.0694 25.0307 83.3013 25.0531 83.5122 25.1393C83.723 25.2255 83.9033 25.3715 84.0302 25.5588C84.1571 25.7462 84.225 25.9666 84.2253 26.192C84.2253 26.342 84.1954 26.4905 84.1374 26.6291C84.0793 26.7677 83.9942 26.8936 83.8869 26.9996C83.7796 27.1057 83.6522 27.1898 83.512 27.2471C83.3718 27.3045 83.2215 27.334 83.0698 27.334ZM83.0698 25.2469C82.8804 25.2472 82.6954 25.3031 82.5381 25.4073C82.3808 25.5116 82.2583 25.6596 82.1861 25.8326C82.1139 26.0057 82.0953 26.196 82.1325 26.3795C82.1698 26.563 82.2612 26.7315 82.3954 26.8636C82.5295 26.9958 82.7003 27.0857 82.8861 27.1219C83.0719 27.1581 83.2644 27.1391 83.4392 27.0672C83.6141 26.9953 83.7635 26.8738 83.8685 26.718C83.9735 26.5623 84.0294 26.3792 84.0291 26.192C84.029 26.0677 84.0041 25.9446 83.9558 25.8298C83.9075 25.715 83.8368 25.6107 83.7477 25.523C83.6586 25.4352 83.5528 25.3656 83.4365 25.3183C83.3202 25.2709 83.1956 25.2467 83.0698 25.2469Z" fill="black"/>
<path d="M87.707 26.1921C87.7073 26.3985 87.6456 26.6003 87.5298 26.7721C87.414 26.9439 87.2493 27.0778 87.0564 27.157C86.8636 27.2363 86.6513 27.2572 86.4464 27.2172C86.2416 27.1772 86.0533 27.078 85.9054 26.9323C85.7576 26.7865 85.6568 26.6007 85.6158 26.3983C85.5748 26.1959 85.5954 25.9861 85.6751 25.7953C85.7548 25.6045 85.8899 25.4414 86.0634 25.3265C86.2369 25.2116 86.4409 25.1502 86.6498 25.1499C86.9296 25.1501 87.1981 25.2599 87.3962 25.4552C87.5944 25.6505 87.7061 25.9155 87.707 26.1921Z" fill="white"/>
<path d="M86.6497 27.334C86.4215 27.3338 86.1986 27.2668 86.0089 27.1414C85.8193 27.016 85.6715 26.8378 85.5843 26.6295C85.497 26.4211 85.4742 26.1919 85.5188 25.9707C85.5633 25.7496 85.6732 25.5464 85.8345 25.3869C85.9958 25.2275 86.2013 25.1188 86.4251 25.0747C86.6489 25.0307 86.8808 25.0531 87.0917 25.1393C87.3025 25.2254 87.4828 25.3714 87.6098 25.5588C87.7367 25.7462 87.8046 25.9665 87.8048 26.192C87.8048 26.4948 87.6832 26.7853 87.4665 26.9994C87.2499 27.2135 86.9561 27.3339 86.6497 27.334ZM86.6497 25.2469C86.4603 25.2472 86.2752 25.3029 86.1179 25.4071C85.9606 25.5114 85.838 25.6593 85.7658 25.8324C85.6935 26.0054 85.6748 26.1958 85.7121 26.3793C85.7493 26.5628 85.8407 26.7313 85.9748 26.8635C86.1089 26.9957 86.2797 27.0856 86.4655 27.1219C86.6513 27.1581 86.8439 27.1391 87.0188 27.0673C87.1936 26.9954 87.343 26.8739 87.4481 26.7181C87.5531 26.5623 87.609 26.3792 87.6087 26.192C87.6085 26.0677 87.5836 25.9447 87.5353 25.8299C87.487 25.7152 87.4163 25.6109 87.3273 25.5232C87.2382 25.4354 87.1326 25.3659 87.0163 25.3184C86.9 25.271 86.7755 25.2467 86.6497 25.2469Z" fill="black"/>
<path d="M91.2866 26.1921C91.2869 26.3985 91.2252 26.6003 91.1094 26.7721C90.9936 26.9439 90.8288 27.0778 90.636 27.157C90.4432 27.2363 90.2309 27.2572 90.026 27.2172C89.8211 27.1772 89.6329 27.078 89.485 26.9323C89.3372 26.7865 89.2364 26.6007 89.1954 26.3983C89.1544 26.1959 89.175 25.9861 89.2547 25.7953C89.3343 25.6045 89.4695 25.4414 89.643 25.3265C89.8165 25.2116 90.0205 25.1502 90.2294 25.1499C90.5092 25.1501 90.7777 25.2599 90.9758 25.4552C91.174 25.6505 91.2857 25.9155 91.2866 26.1921Z" fill="white"/>
<path d="M90.2293 27.334C90.0011 27.3338 89.7781 27.2668 89.5885 27.1414C89.3989 27.016 89.2511 26.8378 89.1639 26.6295C89.0766 26.4211 89.0538 26.1919 89.0984 25.9707C89.1429 25.7496 89.2528 25.5464 89.4141 25.3869C89.5754 25.2275 89.7809 25.1188 90.0047 25.0747C90.2285 25.0307 90.4604 25.0531 90.6713 25.1393C90.8821 25.2254 91.0624 25.3714 91.1894 25.5588C91.3163 25.7462 91.3842 25.9665 91.3844 26.192C91.3844 26.4948 91.2627 26.7853 91.0461 26.9994C90.8295 27.2135 90.5357 27.3339 90.2293 27.334ZM90.2293 25.2469C90.0399 25.2472 89.8548 25.3029 89.6975 25.4071C89.5401 25.5114 89.4176 25.6593 89.3454 25.8324C89.2731 26.0054 89.2544 26.1958 89.2916 26.3793C89.3289 26.5628 89.4203 26.7313 89.5544 26.8635C89.6885 26.9957 89.8593 27.0856 90.0451 27.1219C90.2309 27.1581 90.4235 27.1391 90.5984 27.0673C90.7732 26.9954 90.9226 26.8739 91.0276 26.7181C91.1326 26.5623 91.1886 26.3792 91.1883 26.192C91.1881 26.0677 91.1632 25.9447 91.1149 25.8299C91.0666 25.7152 90.9959 25.6109 90.9069 25.5232C90.8178 25.4354 90.7121 25.3659 90.5959 25.3184C90.4796 25.271 90.3551 25.2467 90.2293 25.2469Z" fill="black"/>
<path d="M94.8652 26.1921C94.8655 26.3985 94.8038 26.6003 94.688 26.7721C94.5722 26.9439 94.4075 27.0778 94.2146 27.157C94.0218 27.2363 93.8095 27.2572 93.6046 27.2172C93.3998 27.1772 93.2115 27.078 93.0636 26.9323C92.9158 26.7865 92.815 26.6007 92.774 26.3983C92.733 26.1959 92.7536 25.9861 92.8333 25.7953C92.913 25.6045 93.0481 25.4414 93.2216 25.3265C93.3951 25.2116 93.5991 25.1502 93.808 25.1499C94.0879 25.1501 94.3563 25.2599 94.5544 25.4552C94.7526 25.6505 94.8643 25.9155 94.8652 26.1921Z" fill="white"/>
<path d="M93.8084 27.334C93.5802 27.3338 93.3572 27.2668 93.1676 27.1414C92.978 27.016 92.8302 26.8378 92.743 26.6295C92.6557 26.4211 92.6329 26.1919 92.6775 25.9707C92.722 25.7496 92.8319 25.5464 92.9932 25.3869C93.1545 25.2275 93.36 25.1188 93.5838 25.0747C93.8076 25.0307 94.0395 25.0531 94.2504 25.1393C94.4612 25.2254 94.6415 25.3714 94.7685 25.5588C94.8954 25.7462 94.9633 25.9665 94.9635 26.192C94.9636 26.342 94.9337 26.4905 94.8757 26.629C94.8177 26.7676 94.7326 26.8935 94.6253 26.9995C94.5181 27.1055 94.3907 27.1897 94.2505 27.247C94.1104 27.3044 93.9601 27.334 93.8084 27.334ZM93.8084 25.2469C93.619 25.2472 93.434 25.3031 93.2767 25.4073C93.1194 25.5116 92.9969 25.6596 92.9247 25.8326C92.8525 26.0057 92.8339 26.196 92.8711 26.3795C92.9084 26.563 92.9998 26.7315 93.134 26.8636C93.2681 26.9958 93.4389 27.0857 93.6247 27.1219C93.8105 27.1581 94.003 27.1391 94.1779 27.0672C94.3527 26.9953 94.5021 26.8738 94.6071 26.718C94.7121 26.5623 94.768 26.3792 94.7677 26.192C94.7676 26.0677 94.7426 25.9447 94.6943 25.8299C94.646 25.7151 94.5753 25.6108 94.4862 25.5231C94.3971 25.4353 94.2914 25.3657 94.1751 25.3184C94.0588 25.271 93.9342 25.2467 93.8084 25.2469Z" fill="black"/>
<path d="M98.4453 26.1921C98.4456 26.3985 98.3839 26.6003 98.2681 26.7721C98.1523 26.9439 97.9875 27.0778 97.7947 27.157C97.6019 27.2363 97.3896 27.2572 97.1847 27.2172C96.9798 27.1772 96.7916 27.078 96.6437 26.9323C96.4958 26.7865 96.395 26.6007 96.354 26.3983C96.313 26.1959 96.3337 25.9861 96.4134 25.7953C96.493 25.6045 96.6282 25.4414 96.8017 25.3265C96.9752 25.2116 97.1792 25.1502 97.3881 25.1499C97.6679 25.1501 97.9363 25.2599 98.1345 25.4552C98.3327 25.6505 98.4444 25.9155 98.4453 26.1921Z" fill="white"/>
<path d="M97.388 27.334C97.1598 27.3338 96.9368 27.2668 96.7472 27.1414C96.5576 27.016 96.4098 26.8378 96.3226 26.6295C96.2353 26.4211 96.2125 26.1919 96.2571 25.9707C96.3016 25.7496 96.4115 25.5464 96.5728 25.3869C96.7341 25.2275 96.9396 25.1188 97.1634 25.0747C97.3871 25.0307 97.6191 25.0531 97.83 25.1393C98.0408 25.2254 98.2211 25.3714 98.348 25.5588C98.475 25.7462 98.5429 25.9665 98.5431 26.192C98.5432 26.342 98.5134 26.4905 98.4554 26.6291C98.3974 26.7676 98.3123 26.8935 98.205 26.9996C98.0977 27.1056 97.9704 27.1898 97.8302 27.2471C97.69 27.3045 97.5397 27.334 97.388 27.334ZM97.388 25.2469C97.1986 25.2472 97.0135 25.3029 96.8562 25.4071C96.6988 25.5114 96.5763 25.6593 96.5041 25.8324C96.4318 26.0054 96.4131 26.1958 96.4503 26.3793C96.4875 26.5628 96.579 26.7313 96.7131 26.8635C96.8472 26.9957 97.018 27.0856 97.2038 27.1219C97.3896 27.1581 97.5822 27.1391 97.757 27.0673C97.9319 26.9954 98.0813 26.8739 98.1863 26.7181C98.2913 26.5623 98.3472 26.3792 98.347 26.192C98.3468 26.0677 98.3219 25.9447 98.2736 25.8299C98.2253 25.7152 98.1546 25.6109 98.0655 25.5232C97.9765 25.4354 97.8708 25.3659 97.7546 25.3184C97.6383 25.271 97.5138 25.2467 97.388 25.2469Z" fill="black"/>
<path d="M102.15 36.6257H82.7195C82.6944 36.6243 82.6709 36.6134 82.6537 36.5954C82.6365 36.5774 82.627 36.5536 82.627 36.5288C82.627 36.504 82.6365 36.4802 82.6537 36.4622C82.6709 36.4442 82.6944 36.4333 82.7195 36.4319H102.15C102.175 36.4333 102.198 36.4442 102.215 36.4622C102.233 36.4802 102.242 36.504 102.242 36.5288C102.242 36.5536 102.233 36.5774 102.215 36.5954C102.198 36.6134 102.175 36.6243 102.15 36.6257Z" fill="black"/>
<path d="M110.971 134.173L108.866 108.316C108.866 108.316 104.605 123.081 105.56 134.173H110.971Z" fill="#CAD5FF"/>
<path d="M105.195 134.174L97.4937 108.706C97.4937 108.706 105.513 115.285 110.018 134.174" fill="white"/>
<path d="M105.195 134.27C105.174 134.27 105.153 134.263 105.137 134.251C105.12 134.238 105.107 134.221 105.101 134.201L97.3992 108.733C97.3931 108.713 97.3937 108.692 97.4009 108.672C97.408 108.653 97.4214 108.636 97.439 108.625C97.4565 108.613 97.4774 108.607 97.4984 108.609C97.5195 108.61 97.5396 108.617 97.5559 108.631C97.6364 108.697 105.652 115.447 110.113 134.15C110.117 134.163 110.118 134.176 110.116 134.189C110.114 134.202 110.11 134.214 110.103 134.225C110.096 134.237 110.087 134.246 110.077 134.254C110.066 134.262 110.054 134.267 110.041 134.27C110.028 134.273 110.015 134.274 110.002 134.271C109.989 134.269 109.977 134.264 109.966 134.257C109.954 134.25 109.945 134.241 109.937 134.231C109.93 134.22 109.925 134.208 109.922 134.195C105.929 117.454 99.0959 110.337 97.6885 109.013L105.29 134.145C105.294 134.157 105.295 134.17 105.294 134.183C105.292 134.196 105.289 134.208 105.282 134.219C105.276 134.23 105.268 134.24 105.258 134.248C105.248 134.256 105.236 134.262 105.223 134.266C105.214 134.269 105.205 134.27 105.195 134.27Z" fill="black"/>
<path d="M113.328 134.27H102.545C102.519 134.27 102.494 134.26 102.476 134.241C102.457 134.223 102.447 134.199 102.447 134.173C102.447 134.147 102.457 134.122 102.476 134.104C102.494 134.086 102.519 134.076 102.545 134.076H113.328C113.354 134.076 113.379 134.086 113.397 134.104C113.416 134.122 113.426 134.147 113.426 134.173C113.426 134.199 113.416 134.223 113.397 134.241C113.379 134.26 113.354 134.27 113.328 134.27Z" fill="black"/>
<path d="M40.587 139.525C40.587 139.525 46.1946 130.081 42.0335 114.295C42.0335 114.295 38.2008 127.125 36.0312 129.644L40.587 139.525Z" fill="#75C675"/>
<path d="M38.8517 139.525C38.8517 139.525 27.7722 126.925 22.1953 122.021C22.1953 122.021 31.1534 121.24 37.2569 132.002L38.8517 139.525Z" fill="#CAD5FF"/>
<path d="M40.587 139.525C40.587 139.525 35.6698 116.298 25.1118 111.081L38.8515 139.525" fill="white"/>
<path d="M38.7624 139.567L25.0234 111.123C25.0142 111.105 25.0111 111.084 25.0146 111.064C25.0181 111.044 25.028 111.025 25.0428 111.011C25.0577 110.997 25.0768 110.987 25.0973 110.984C25.1178 110.981 25.1387 110.985 25.1571 110.995C35.6365 116.173 40.6356 139.273 40.6847 139.506C40.7111 139.632 40.5177 139.671 40.4926 139.546C40.4438 139.314 35.5473 116.685 25.3278 111.3L38.9418 139.484C38.9963 139.599 38.8192 139.683 38.7624 139.567Z" fill="black"/>
<path d="M44.8737 139.622H34.7885C34.7752 139.623 34.7618 139.621 34.7492 139.617C34.7366 139.612 34.7251 139.605 34.7154 139.596C34.7057 139.587 34.6979 139.576 34.6926 139.564C34.6873 139.552 34.6846 139.539 34.6846 139.525C34.6846 139.512 34.6873 139.499 34.6926 139.487C34.6979 139.475 34.7057 139.464 34.7154 139.455C34.7251 139.446 34.7366 139.439 34.7492 139.434C34.7618 139.43 34.7752 139.428 34.7885 139.428H44.8737C44.887 139.428 44.9004 139.43 44.913 139.434C44.9256 139.439 44.9371 139.446 44.9468 139.455C44.9565 139.464 44.9643 139.475 44.9696 139.487C44.9749 139.499 44.9776 139.512 44.9776 139.525C44.9776 139.539 44.9749 139.552 44.9696 139.564C44.9643 139.576 44.9565 139.587 44.9468 139.596C44.9371 139.605 44.9256 139.612 44.913 139.617C44.9004 139.621 44.887 139.623 44.8737 139.622Z" fill="black"/>
<path d="M94.0267 92.931C94.0146 92.9092 94.0115 92.8836 94.0179 92.8595C94.0244 92.8355 94.0399 92.8148 94.0614 92.8017C94.0828 92.7886 94.1085 92.7842 94.1332 92.7894C94.1578 92.7945 94.1795 92.8088 94.1938 92.8293C94.3472 93.0754 94.5482 93.2891 94.7852 93.4584C95.0223 93.6277 95.2907 93.7492 95.5752 93.816C95.8597 93.8827 96.1548 93.8934 96.4435 93.8475C96.7322 93.8016 97.009 93.6999 97.2579 93.5482C97.5069 93.3966 97.7232 93.198 97.8945 92.9638C98.0658 92.7295 98.1887 92.4642 98.2562 92.183C98.3238 91.9018 98.3346 91.6102 98.2882 91.3249C98.2417 91.0396 98.1388 90.7661 97.9854 90.52C97.9781 90.5092 97.9732 90.497 97.9708 90.4842C97.9685 90.4715 97.9687 90.4584 97.9716 90.4457C97.9744 90.433 97.9798 90.4211 97.9874 90.4105C97.995 90.3999 98.0047 90.3909 98.0158 90.3841C98.027 90.3773 98.0394 90.3728 98.0524 90.3708C98.0654 90.3688 98.0786 90.3694 98.0914 90.3725C98.1041 90.3757 98.1161 90.3813 98.1265 90.3892C98.137 90.397 98.1458 90.4068 98.1524 90.418C98.3213 90.6857 98.435 90.9838 98.487 91.2952C98.539 91.6065 98.5282 91.9249 98.4552 92.2321C98.3823 92.5392 98.2487 92.8291 98.062 93.0851C97.8753 93.3411 97.6393 93.5581 97.3675 93.7237C97.0957 93.8892 96.7935 94.0001 96.4783 94.0498C96.163 94.0996 95.8409 94.0873 95.5304 94.0136C95.22 93.94 94.9273 93.8064 94.6693 93.6206C94.4112 93.4348 94.1929 93.2005 94.0267 92.931Z" fill="black"/>
<path d="M37.93 30.8108L35.1885 34.3315L38.751 37.041L41.4925 33.5202L37.93 30.8108Z" fill="#76C4FF"/>
<path d="M37.5941 29.3037L33.0996 29.3262L33.1224 33.7681L37.6169 33.7456L37.5941 29.3037Z" fill="#E099ED"/>
<path d="M114.287 68.7432C114.139 68.5103 114.039 68.2507 113.992 67.9793C113.946 67.7079 113.954 67.4301 114.017 67.162C114.08 66.8939 114.196 66.6408 114.359 66.4173C114.522 66.1938 114.727 66.0044 114.964 65.86C115.202 65.7156 115.465 65.619 115.74 65.5759C116.015 65.5329 116.296 65.5441 116.567 65.609C116.838 65.674 117.093 65.7912 117.317 65.9541C117.542 66.117 117.731 66.3223 117.875 66.558C117.882 66.5689 117.888 66.5811 117.89 66.594C117.893 66.6069 117.893 66.6202 117.89 66.6331C117.887 66.646 117.882 66.6582 117.874 66.6689C117.867 66.6797 117.857 66.6888 117.845 66.6957C117.834 66.7026 117.821 66.7072 117.808 66.7091C117.795 66.711 117.782 66.7103 117.769 66.7069C117.756 66.7036 117.744 66.6976 117.733 66.6895C117.723 66.6814 117.714 66.6713 117.708 66.6597C117.442 66.2334 117.016 65.9289 116.523 65.8132C116.029 65.6975 115.51 65.7801 115.079 66.0429C114.647 66.3056 114.339 66.727 114.222 67.2142C114.105 67.7015 114.189 68.2148 114.455 68.6411C114.462 68.652 114.467 68.6642 114.47 68.6771C114.473 68.69 114.472 68.7033 114.47 68.7162C114.467 68.7291 114.462 68.7413 114.454 68.7521C114.446 68.7628 114.436 68.7719 114.425 68.7788C114.414 68.7857 114.401 68.7903 114.388 68.7922C114.375 68.7941 114.361 68.7934 114.348 68.79C114.336 68.7867 114.324 68.7807 114.313 68.7726C114.303 68.7645 114.294 68.7544 114.287 68.7428V68.7432Z" fill="black"/>
<path d="M31.1162 60.6565C31.109 60.6456 31.1041 60.6335 31.1017 60.6207C31.0993 60.608 31.0996 60.5949 31.1024 60.5822C31.1053 60.5695 31.1106 60.5575 31.1182 60.547C31.1259 60.5364 31.1355 60.5274 31.1467 60.5206C31.1579 60.5138 31.1703 60.5092 31.1833 60.5072C31.1962 60.5053 31.2095 60.5059 31.2222 60.509C31.235 60.5122 31.2469 60.5178 31.2574 60.5256C31.2679 60.5334 31.2767 60.5432 31.2833 60.5544C31.4367 60.8005 31.6377 61.0143 31.8747 61.1835C32.1117 61.3528 32.3802 61.4743 32.6647 61.5411C32.9492 61.6078 33.2443 61.6185 33.533 61.5726C33.8217 61.5267 34.0984 61.425 34.3474 61.2734C34.5964 61.1217 34.8127 60.9231 34.9839 60.6889C35.1552 60.4546 35.2782 60.1893 35.3457 59.9081C35.4133 59.6269 35.4241 59.3353 35.3776 59.05C35.3311 58.7647 35.2283 58.4912 35.0748 58.2451C35.0673 58.2343 35.062 58.222 35.0594 58.2091C35.0568 58.1962 35.0569 58.1829 35.0596 58.17C35.0624 58.1572 35.0678 58.145 35.0754 58.1342C35.0831 58.1235 35.0929 58.1143 35.1042 58.1074C35.1156 58.1005 35.1282 58.096 35.1414 58.0941C35.1546 58.0921 35.168 58.0929 35.1809 58.0962C35.1938 58.0996 35.2058 58.1055 35.2163 58.1136C35.2268 58.1217 35.2355 58.1319 35.2419 58.1434C35.4108 58.4112 35.5245 58.7093 35.5765 59.0206C35.6284 59.3319 35.6176 59.6503 35.5447 59.9575C35.4718 60.2647 35.3381 60.5546 35.1515 60.8106C34.9648 61.0665 34.7288 61.2836 34.457 61.4491C34.1852 61.6147 33.883 61.7255 33.5677 61.7753C33.2525 61.825 32.9304 61.8127 32.6199 61.7391C32.3095 61.6654 32.0168 61.5319 31.7588 61.3461C31.5007 61.1603 31.2823 60.9259 31.1162 60.6565Z" fill="black"/>
<path d="M7.78901 93.608C6.44676 96.1488 5.39922 97.0983 2.7959 96.5012C3.55574 94.4313 5.70496 93.2996 7.78901 93.608Z" fill="black"/>
</g>
<defs>
<clipPath id="clip0_1_80429">
<rect width="136" height="142" fill="white"/>
</clipPath>
</defs>
</svg>
