<svg width="134" height="125" viewBox="0 0 134 125" fill="none" xmlns="http://www.w3.org/2000/svg">
<path d="M131.617 12.4707H85.907C85.0601 12.4707 84.3735 13.1732 84.3735 14.0399V48.702C84.3735 49.5687 85.0601 50.2712 85.907 50.2712H131.617C132.464 50.2712 133.151 49.5687 133.151 48.702V14.0399C133.151 13.1732 132.464 12.4707 131.617 12.4707Z" fill="white"/>
<path d="M133.151 20.0982V14.0406C133.15 13.6245 132.989 13.2254 132.701 12.9311C132.414 12.6369 132.024 12.4715 131.617 12.4714H85.907C85.5003 12.4714 85.1103 12.6368 84.8227 12.931C84.5351 13.2253 84.3735 13.6244 84.3735 14.0406V20.0982H133.151Z" fill="#E099ED"/>
<path d="M96.9204 60.1663C96.5312 59.9951 96.1559 59.7924 95.7982 59.5602C93.9378 58.3265 93.6153 56.7737 93.6153 56.1728V56.157C93.6162 56.1288 93.6226 56.1011 93.6343 56.0755C93.6459 56.0499 93.6625 56.027 93.6831 56.0081L93.6727 56.0027L86.8805 63.8673C86.8805 63.8673 79.4548 57.8741 76.5291 55.2264C75.6663 54.4502 73.6218 53.422 71.7639 52.5943C67.2705 50.5904 60.3523 48.7338 57.068 49.0902V49.0847C57.068 49.0847 55.3428 49.106 53.0302 49.5845C50.2447 50.1645 46.6065 51.4085 44.1025 54.0778C41.2807 57.0876 34.4983 76.2622 34.4983 76.2622C34.1554 77.3562 34.1548 78.5325 34.4967 79.6269C34.8386 80.7213 35.5058 81.6792 36.4053 82.3668C39.8193 84.9935 43.2441 87.3289 46.6997 89.1092L46.7759 96.4089H75.535L74.2478 69.4235C74.2478 69.4235 83.555 77.0432 87.395 75.9744C92.8464 74.4536 99.472 62.3032 100.277 60.793C99.9075 61.065 98.3755 60.831 96.9204 60.1663Z" fill="#E099ED"/>
<path d="M63.8524 47.4175L63.9617 50.0548L61.0017 54.1173L57.0971 49.0286L57.0026 46.3864C57.0026 44.2489 55.9789 38.3414 55.9789 37.1502C55.9789 37.1502 55.664 27.5192 63.2437 27.7967C67.4245 27.9497 70.8206 32.1997 70.8206 37.6287C70.82 42.7912 67.7485 47.0241 63.8524 47.4175Z" fill="white"/>
<path d="M56.9523 40.4367C55.9447 40.4367 55.126 39.3927 55.126 38.1067C55.126 36.8156 55.9447 35.772 56.9523 35.772C57.96 35.772 58.7828 36.8147 58.7828 38.1067" fill="white"/>
<path d="M48.4953 68.9158L44.7094 75.6043L51.6596 80.933L53.0294 81.9883L57.1544 85.1482L52.6676 91.5713C51.0446 91.1073 49.4456 90.4822 47.856 89.7298C47.3359 89.4859 46.8201 89.2268 46.3046 88.9533C42.9983 87.2046 39.7272 84.9285 36.4048 82.374C34.5671 80.9562 33.7937 78.5106 34.5 76.2687L38.6673 65.2834" fill="#E099ED"/>
<path d="M105.717 46.5807L105.671 46.6451L103.098 49.3037L102.552 49.9836C102.552 49.9836 104.111 49.8721 103.82 51.2492C103.82 51.2492 105.13 51.5682 104.459 52.7114C106.403 54.009 102.583 57.311 98.9873 58.0238L98.6441 58.5554L97.4541 60.3901C97.2775 60.3256 97.0958 60.2464 96.9188 60.1665C96.5295 59.9954 96.1543 59.7927 95.7965 59.5604C94.2999 58.566 93.7957 57.3693 93.6606 56.625C93.7866 56.3911 93.91 56.1626 94.0505 55.9284C96.5696 51.5524 101.154 47.0804 105.575 44.831C106.222 44.7196 106.253 45.9105 105.717 46.5807Z" fill="white"/>
<path d="M98.7876 54.44C100.614 52.5106 99.1702 51.1376 99.1702 51.1376C99.1702 51.1376 100.075 49.9835 100.323 49.5617C100.799 48.7526 100.619 47.6374 100.311 47.448C99.2001 46.7649 94.7974 54.6978 94.7974 54.6978" fill="white"/>
<path d="M102.554 49.9854C102.554 49.9854 101.887 51.2971 101.436 51.8378L102.554 49.9854Z" fill="white"/>
<path d="M103.052 54.1527C103.052 54.1527 102.486 55.7393 103.392 55.7999C103.56 55.8111 103.814 55.5936 104.081 55.294" fill="white"/>
<path d="M58.1063 94.3037C56.901 93.3571 55.4247 91.8478 54.7493 90.1726C54.7336 90.1356 54.7178 90.0931 54.7024 90.0557L54.1255 89.806L52.6704 89.1783C52.7984 88.6715 52.9688 88.1768 53.1799 87.7C53.3452 87.3071 53.547 86.9314 53.7826 86.578C54.7232 85.1903 55.8404 84.9563 56.5628 85.0095C56.7914 85.1 56.9942 85.1796 57.1189 85.2383C57.1611 85.2594 57.207 85.272 57.2539 85.2753C61.8982 85.8089 62.7872 87.2643 62.7872 87.2643L61.8998 88.8087C63.6138 89.8221 65.0802 92.5551 63.8865 92.3531L63.086 92.1459C63.086 92.1459 63.4862 93.6925 62.1098 93.6561L62.1045 93.6613C62.1045 93.7579 62.0006 95.012 60.821 94.5705C60.4145 95.5069 59.3177 95.213 58.1063 94.3037Z" fill="white"/>
<path d="M75.5315 96.4087V123.767C72.0203 124.454 68.4533 124.799 64.8785 124.798C64.364 124.798 63.8497 124.793 63.3355 124.772L61.2258 110.304L58.3571 124.411C54.4145 123.953 50.5313 123.063 46.7739 121.758V96.4087H75.5315Z" fill="#4B5C76"/>
<path d="M32.6007 83.12H9.21387C8.42589 83.12 7.78711 83.7736 7.78711 84.5799V113.108C7.78711 113.914 8.42589 114.568 9.21387 114.568H32.6007C33.3887 114.568 34.0275 113.914 34.0275 113.108V84.5799C34.0275 83.7736 33.3887 83.12 32.6007 83.12Z" fill="#DEDEFC"/>
<path d="M18.1547 69.7242H1.07572C0.581125 69.7242 0.180176 70.1345 0.180176 70.6406V82.9717C0.180176 83.4778 0.581125 83.8881 1.07572 83.8881H18.1547C18.6493 83.8881 19.0502 83.4778 19.0502 82.9717V70.6406C19.0502 70.1345 18.6493 69.7242 18.1547 69.7242Z" fill="white"/>
<path d="M79.32 0.558281L78.1114 12.1258C78.1027 12.2087 78.0644 12.2854 78.0037 12.3411C77.9431 12.3968 77.8645 12.4277 77.783 12.4277H71.5954L68.1521 16.8655C68.1444 16.8755 68.1339 16.8828 68.1219 16.8863C68.11 16.8898 68.0972 16.8893 68.0856 16.8849C68.0739 16.8806 68.0639 16.8725 68.0569 16.862C68.05 16.8514 68.0465 16.8389 68.0469 16.8262L68.1729 12.4277H63.3456C63.2904 12.4277 63.236 12.4135 63.1875 12.3865C63.1389 12.3595 63.0978 12.3204 63.0679 12.2729C63.0379 12.2254 63.0201 12.1709 63.016 12.1146C63.012 12.0582 63.0218 12.0016 63.0446 11.9501L66.9294 3.18883C66.9503 3.14167 66.9816 3.10007 67.0207 3.06722C67.0599 3.03437 67.1059 3.01116 67.1552 2.99937L78.9163 0.193212C78.9676 0.180917 79.0211 0.181387 79.0723 0.194583C79.1234 0.207779 79.1707 0.233318 79.2103 0.269062C79.2498 0.304805 79.2804 0.349714 79.2995 0.400032C79.3185 0.450349 79.3256 0.504612 79.32 0.558281Z" fill="#DEDEFC"/>
<path d="M24.0755 34.5921L25.4755 47.9939C25.4855 48.0901 25.53 48.179 25.6003 48.2436C25.6705 48.3082 25.7617 48.3439 25.8562 48.3439H33.025L37.0146 53.4861C37.0236 53.4975 37.0358 53.5057 37.0495 53.5096C37.0633 53.5135 37.0779 53.5129 37.0913 53.5079C37.1047 53.5029 37.1162 53.4937 37.1243 53.4817C37.1323 53.4696 37.1365 53.4552 37.1362 53.4406L36.9926 48.3423H42.585C42.649 48.3422 42.712 48.3258 42.7682 48.2944C42.8244 48.263 42.872 48.2177 42.9067 48.1627C42.9414 48.1076 42.962 48.0445 42.9667 47.9792C42.9714 47.9139 42.96 47.8484 42.9336 47.7887L38.4307 37.639C38.4064 37.5843 38.3702 37.536 38.3249 37.4979C38.2795 37.4598 38.2262 37.4329 38.169 37.4192L24.5412 34.1681C24.4817 34.1541 24.4199 34.155 24.3608 34.1705C24.3017 34.186 24.2471 34.2157 24.2015 34.2572C24.1559 34.2987 24.1207 34.3508 24.0988 34.409C24.0769 34.4673 24.0689 34.5301 24.0755 34.5921Z" fill="#DEDEFC"/>
<path d="M122.318 105.967V82.5103C122.318 82.2837 122.23 82.0664 122.073 81.9063C121.917 81.7461 121.704 81.6561 121.483 81.6561H99.4634L95.0348 76.1066C94.9888 76.049 94.9265 76.0075 94.8565 75.9875C94.7865 75.9676 94.7122 75.9703 94.6438 75.9953C94.5753 76.0203 94.5161 76.0663 94.4742 76.1271C94.4323 76.1878 94.4098 76.2604 94.4098 76.3347V81.6561H89.1158C89.0062 81.656 88.8976 81.6781 88.7963 81.721C88.695 81.7639 88.6029 81.8268 88.5254 81.9061C88.4478 81.9855 88.3863 82.0796 88.3443 82.1833C88.3024 82.287 88.2808 82.3981 88.2808 82.5103V105.967C88.2808 106.194 88.3687 106.411 88.5254 106.572C88.682 106.732 88.8944 106.822 89.1158 106.822H121.483C121.593 106.822 121.701 106.8 121.803 106.757C121.904 106.714 121.996 106.651 122.073 106.572C122.151 106.492 122.212 106.398 122.254 106.294C122.296 106.191 122.318 106.08 122.318 105.967Z" fill="white"/>
<path d="M111.507 91.612C111.507 95.1187 108.728 97.9612 105.303 97.9612C101.871 97.9612 99.0938 95.1187 99.0938 91.612C99.0938 88.1054 101.872 85.2644 105.303 85.2644C108.728 85.2628 111.507 88.1057 111.507 91.612Z" fill="#E099ED"/>
<path d="M107.393 91.8007L104.872 93.7536C104.809 93.8031 104.733 93.8333 104.653 93.841C104.573 93.8487 104.493 93.8335 104.422 93.7971C104.35 93.7606 104.29 93.7045 104.248 93.6349C104.206 93.5654 104.184 93.4852 104.184 93.4034V89.4975C104.184 89.4157 104.206 89.3356 104.248 89.2661C104.29 89.1966 104.35 89.1406 104.422 89.1042C104.493 89.0678 104.574 89.0525 104.653 89.0601C104.733 89.0677 104.809 89.0979 104.872 89.1472L107.393 91.1005C107.446 91.1415 107.489 91.1944 107.518 91.2552C107.548 91.3159 107.563 91.3828 107.563 91.4506C107.563 91.5184 107.548 91.5853 107.518 91.646C107.489 91.7068 107.446 91.7597 107.393 91.8007Z" fill="white"/>
<path d="M89.8215 16.2866C89.8211 16.5621 89.741 16.8312 89.5911 17.06C89.4412 17.2888 89.2285 17.467 88.9796 17.572C88.7308 17.6771 88.4571 17.7043 88.1932 17.6502C87.9293 17.5961 87.687 17.4631 87.4969 17.2681C87.3068 17.073 87.1775 16.8247 87.1254 16.5545C87.0732 16.2843 87.1006 16.0043 87.2039 15.75C87.3073 15.4957 87.482 15.2784 87.706 15.1257C87.93 14.973 88.1933 14.8917 88.4625 14.8921C88.6412 14.8922 88.8182 14.9283 88.9833 14.9985C89.1484 15.0687 89.2984 15.1714 89.4246 15.301C89.5508 15.4305 89.6509 15.5842 89.719 15.7534C89.7871 15.9225 89.8219 16.1037 89.8215 16.2866Z" fill="#4B5C76"/>
<path d="M94.008 16.2866C94.0077 16.5621 93.9275 16.8312 93.7776 17.06C93.6278 17.2888 93.415 17.4669 93.1662 17.572C92.9174 17.6771 92.6438 17.7043 92.3798 17.6502C92.1159 17.5961 91.8736 17.4632 91.6835 17.2682C91.4934 17.0732 91.3641 16.8249 91.312 16.5547C91.2598 16.2845 91.2871 16.0045 91.3904 15.7502C91.4937 15.4959 91.6684 15.2786 91.8923 15.1259C92.1163 14.9731 92.3795 14.8918 92.6487 14.8921C92.8274 14.8922 93.0045 14.9283 93.1696 14.9985C93.3347 15.0686 93.4847 15.1714 93.6109 15.3009C93.7372 15.4305 93.8372 15.5842 93.9054 15.7533C93.9735 15.9225 94.0084 16.1037 94.008 16.2866Z" fill="#4B5C76"/>
<path d="M98.1941 16.2866C98.1937 16.5621 98.1135 16.8312 97.9637 17.06C97.8138 17.2888 97.601 17.467 97.3522 17.572C97.1034 17.6771 96.8297 17.7043 96.5658 17.6502C96.3018 17.5961 96.0595 17.4631 95.8695 17.2681C95.6794 17.073 95.5501 16.8247 95.498 16.5545C95.4458 16.2843 95.4731 16.0043 95.5765 15.75C95.6798 15.4957 95.8546 15.2784 96.0786 15.1257C96.3026 14.973 96.5658 14.8917 96.835 14.8921C97.0138 14.8922 97.1908 14.9283 97.3559 14.9985C97.521 15.0687 97.6709 15.1714 97.7972 15.301C97.9234 15.4305 98.0234 15.5842 98.0915 15.7534C98.1596 15.9225 98.1945 16.1037 98.1941 16.2866Z" fill="#4B5C76"/>
<path d="M133.334 14.0418C133.333 13.576 133.152 13.1296 132.83 12.8003C132.508 12.4711 132.072 12.2858 131.617 12.2851H85.9072C85.3372 12.2851 84.8051 12.6073 84.5594 12.9672C82.5479 12.2012 80.4951 11.5536 78.4112 11.0278L79.5023 0.57812C79.5105 0.494742 79.4991 0.410569 79.469 0.332621C79.439 0.254672 79.3911 0.185209 79.3295 0.130027C79.2679 0.074846 79.1942 0.035547 79.1147 0.015406C79.0352 -0.00473499 78.9522 -0.00513354 78.8725 0.0142457L67.1127 2.8175C67.0359 2.8351 66.9643 2.87133 66.904 2.92314C66.8437 2.97495 66.7965 3.04083 66.7663 3.11523L63.9978 9.3549C33.2451 9.84015 8.37385 35.5825 8.37385 67.1629C8.37385 67.9594 8.394 68.7514 8.42581 69.5402H1.07598C0.790817 69.5407 0.517477 69.6569 0.315809 69.8632C0.114141 70.0695 0.000582711 70.3491 0 70.6409V82.972C0.000582711 83.2638 0.114141 83.5435 0.315809 83.7498C0.517477 83.9561 0.790817 84.0722 1.07598 84.0727H7.69338C7.63727 84.2358 7.6076 84.4073 7.60552 84.5802V113.108C7.60602 113.544 7.77568 113.963 8.07727 114.271C8.37887 114.58 8.78777 114.753 9.21429 114.754H32.6011C32.6759 114.752 32.7504 114.744 32.8241 114.731C41.6211 120.959 51.9256 124.633 63.317 124.953C63.322 124.953 63.3255 124.958 63.3305 124.959C68.9869 125.22 74.204 124.151 75.5841 123.943L75.5882 123.939C87.3519 121.619 97.8257 115.552 105.78 107.007H121.481C121.75 107.007 122.008 106.898 122.199 106.703C122.389 106.509 122.497 106.245 122.499 105.97V82.5093C122.499 82.3728 122.472 82.2377 122.421 82.1117C122.369 81.9858 122.294 81.8714 122.2 81.7751C122.105 81.6788 121.993 81.6025 121.869 81.5506C121.746 81.4987 121.614 81.4721 121.481 81.4724H119.635C122.181 71.2656 121.95 60.5408 118.968 50.4584H131.617C132.071 50.4578 132.507 50.2726 132.829 49.9435C133.15 49.6143 133.331 49.1681 133.332 48.7027V20.1085C133.332 20.1049 133.334 20.102 133.334 20.0985L133.334 14.0418ZM84.5553 14.0418C84.5555 13.6756 84.6977 13.3244 84.9508 13.0654C85.2039 12.8064 85.547 12.6607 85.905 12.6605H131.619C131.797 12.6604 131.972 12.6962 132.136 12.7656C132.3 12.835 132.448 12.9367 132.574 13.065C132.699 13.1933 132.798 13.3456 132.866 13.5132C132.934 13.6808 132.969 13.8604 132.969 14.0418V19.9122H84.5553V14.0418ZM67.0932 3.2686C67.103 3.24669 67.1173 3.22725 67.1353 3.21166C67.1533 3.19606 67.1743 3.18471 67.1971 3.17838L78.9569 0.375125C78.9686 0.370634 78.981 0.368766 78.9935 0.369648C79.0292 0.371626 79.0636 0.384657 79.092 0.407024C79.1073 0.421007 79.1194 0.438224 79.1275 0.457476C79.1356 0.476729 79.1395 0.497557 79.1389 0.518511V0.539776L77.9279 12.1063C77.9246 12.1432 77.9078 12.1775 77.8808 12.2022C77.8538 12.2269 77.8186 12.2402 77.7824 12.2394H71.5936C71.5661 12.24 71.5392 12.247 71.5149 12.2599C71.4906 12.2728 71.4694 12.2912 71.4531 12.3138L68.2412 16.4507L68.3552 12.4308C68.3536 12.3815 68.3351 12.3344 68.303 12.2977C68.2689 12.2615 68.2223 12.2405 68.1732 12.2394H63.3466C63.3215 12.2402 63.2966 12.2343 63.2745 12.2221C63.2524 12.21 63.2338 12.192 63.2206 12.1701C63.2062 12.1495 63.1975 12.1252 63.1957 12.0999C63.1939 12.0746 63.1989 12.0493 63.2103 12.0267L67.0932 3.2686ZM0.364012 82.972V70.6409C0.363721 70.5452 0.381937 70.4503 0.417614 70.3618C0.45329 70.2732 0.505722 70.1928 0.571892 70.1251C0.638062 70.0574 0.716664 70.0037 0.803175 69.9672C0.889686 69.9307 0.982398 69.9121 1.07598 69.9124H18.1571C18.3458 69.9127 18.5267 69.9896 18.6601 70.1262C18.7935 70.2627 18.8685 70.4478 18.8688 70.6409V82.972C18.8685 83.1651 18.7935 83.3502 18.6601 83.4868C18.5267 83.6233 18.3458 83.7002 18.1571 83.7006H1.07598C0.982398 83.7009 0.889686 83.6822 0.803175 83.6457C0.716664 83.6092 0.638062 83.5555 0.571892 83.4878C0.505722 83.4201 0.45329 83.3397 0.417614 83.2512C0.381937 83.1626 0.363721 83.0678 0.364012 82.972ZM7.96922 113.108V84.5802C7.97243 84.4041 8.01327 84.2309 8.08888 84.0727H18.1571C18.3848 84.0716 18.6064 83.997 18.7902 83.8596C18.974 83.7221 19.1107 83.5288 19.1809 83.3071H32.6011C32.9311 83.3075 33.2475 83.4419 33.4808 83.6807C33.7142 83.9194 33.8455 84.2432 33.8459 84.5808V113.108C33.8455 113.446 33.7142 113.77 33.4809 114.009C33.2475 114.247 32.9312 114.382 32.6011 114.382H9.21429C8.8841 114.382 8.56755 114.248 8.33413 114.009C8.10071 113.77 7.96947 113.446 7.96922 113.108ZM34.2093 113.108V84.5802C34.2089 84.1438 34.0394 83.7254 33.7379 83.4168C33.4364 83.1081 33.0276 82.9345 32.6011 82.934H19.2325V70.6409C19.2319 70.3492 19.1184 70.0696 18.9168 69.8633C18.7152 69.657 18.4419 69.5408 18.1568 69.5402H8.78982C8.75833 68.7514 8.73755 67.9594 8.73755 67.1629C8.73755 35.8438 33.3569 10.3067 63.8315 9.73092L63.8296 9.73479L62.8787 11.8724C62.8434 11.9522 62.8283 12.0399 62.8348 12.1273C62.8412 12.2147 62.869 12.299 62.9155 12.3726C62.9621 12.4461 63.026 12.5066 63.1013 12.5483C63.1766 12.5901 63.2609 12.6118 63.3466 12.6115H67.9871L67.8675 16.8177C67.8649 16.8694 67.8787 16.9205 67.9068 16.9636C67.9348 17.0067 67.9757 17.0393 68.0233 17.0568C68.0497 17.0677 68.078 17.0732 68.1065 17.0729C68.1426 17.0733 68.1784 17.0654 68.2111 17.0498C68.2438 17.0341 68.2726 17.011 68.2954 16.9823L71.6833 12.6115H77.7843C77.9108 12.6123 78.0331 12.5648 78.1273 12.4783C78.2214 12.3918 78.2807 12.2725 78.2935 12.1437L78.3712 11.4003C80.4011 11.9145 82.4012 12.545 84.362 13.2888C84.2609 13.5202 84.1916 13.7483 84.1916 14.0418V20.0994C84.1916 20.1027 84.1932 20.1056 84.1935 20.1088V48.7036C84.1939 49.169 84.3748 49.6153 84.6963 49.9444C85.0179 50.2736 85.4539 50.4588 85.9087 50.4594H97.1449C96.3697 51.6326 94.7203 54.4055 93.956 55.7369C93.9041 55.745 93.7633 55.7208 93.6131 55.8275C93.5831 55.838 93.5562 55.8563 93.535 55.8806L86.8575 63.6138C85.8388 62.7895 79.3225 57.5094 76.6513 55.0899C75.6588 54.1964 73.2111 53.0374 71.8392 52.4258C69.6415 51.4421 66.8252 50.4906 64.1338 49.8159L64.0416 47.5865C67.4899 47.1383 70.2587 43.7283 70.8747 39.4297C71.1285 39.0776 71.2878 38.6635 71.3366 38.2288V38.2236C71.3366 38.2204 71.3366 38.2169 71.3366 38.2136C72.2441 37.1909 72.8122 35.7571 72.8122 34.1612C72.8122 32.8156 72.4066 31.5835 71.7416 30.6142C72.0845 30.359 72.5886 30.0558 73.3525 29.6892C74.7245 29.0296 74.7087 28.1425 74.5787 27.6737C74.1111 26.004 70.7685 24.3227 67.3296 24.7332C63.7336 25.1585 62.3982 24.5843 61.2132 24.0846C60.8184 23.9141 60.4443 23.7495 60.0025 23.6335C58.6151 23.2507 56.7805 23.9099 55.3204 25.3138C53.2834 27.2813 52.4779 30.1844 53.1014 33.2793C53.5296 35.4014 54.1657 36.861 54.9831 37.6414C54.9588 37.797 54.9462 37.9543 54.9454 38.1118C54.9454 39.1529 55.453 40.0483 56.1734 40.4318C56.1826 40.4962 56.1914 40.5632 56.2005 40.6306C56.4915 42.7633 56.8218 45.1806 56.8218 46.3982L56.9106 48.9082C56.4323 48.9244 54.9047 49.0094 52.9974 49.408C50.3004 49.9664 46.5485 51.2108 43.9708 53.9544C41.157 56.9539 34.6041 75.4168 34.3236 76.203V76.2136C33.5779 78.7575 34.5229 81.1538 36.2932 82.5254C39.0705 84.6585 43.3845 87.7543 46.5199 89.2719L46.5926 96.408V121.461C41.8764 119.788 37.3994 117.478 33.28 114.593C33.5569 114.462 33.7914 114.252 33.956 113.989C34.1206 113.726 34.2084 113.42 34.2093 113.108ZM99.0472 51.2749C99.3437 51.5927 99.5156 52.0109 99.5302 52.45C99.546 53.0564 99.2497 53.6838 98.6573 54.3111C98.641 54.3286 98.6281 54.3492 98.6195 54.3717C98.6108 54.3943 98.6066 54.4183 98.6071 54.4425C98.6076 54.4667 98.6127 54.4906 98.6222 54.5128C98.6317 54.535 98.6453 54.555 98.6624 54.5718C98.6794 54.5886 98.6996 54.6017 98.7216 54.6106C98.7436 54.6194 98.7671 54.6237 98.7908 54.6232C98.8145 54.6227 98.8378 54.6175 98.8595 54.6078C98.8811 54.5981 98.9007 54.5841 98.9171 54.5666C99.5822 53.8645 99.9097 53.1521 99.8933 52.44C99.8779 51.9613 99.7079 51.5012 99.4099 51.1318C99.6489 50.818 100.272 50.0041 100.475 49.6587C100.777 49.1483 100.808 48.6112 100.792 48.3083C102.361 46.9788 104.014 45.8356 105.63 45.0114C105.725 45.0008 105.781 45.0378 105.833 45.1232C105.989 45.3997 105.911 46.0428 105.578 46.463C105.577 46.463 105.576 46.4635 105.575 46.4646C105.574 46.4656 105.573 46.467 105.573 46.4684L102.959 49.1857C102.371 49.9222 102.415 49.8652 102.393 49.8981C102.388 49.9142 101.728 51.2008 101.296 51.7167C101.285 51.7314 101.277 51.7476 101.27 51.7647C101.263 51.7741 101.257 51.7851 101.255 51.7969V51.802C100.917 52.5857 101.029 53.4131 101.764 53.4131C101.557 54.0872 101.668 54.7248 102.351 54.7693C102.356 54.7745 102.361 54.7745 102.372 54.7745C102.476 54.7745 102.595 54.7268 102.736 54.6417C102.654 55.1266 102.665 55.7318 103.11 55.9177C102.008 56.7686 100.496 57.5342 98.9533 57.8426C98.9053 57.8535 98.8628 57.8819 98.8337 57.9225L98.5012 58.438L97.388 60.1603C97.1238 60.07 96.4874 59.7871 95.8967 59.405C94.5786 58.5057 94.2246 57.7891 93.8543 56.6452V56.6401C94.4769 55.5107 98.7351 47.9635 100.085 47.6004C100.168 47.5791 100.205 47.6004 100.215 47.6055C100.288 47.6481 100.407 47.8981 100.428 48.2822C100.454 48.7075 100.355 49.1383 100.163 49.4679C99.9292 49.8723 99.0355 51.01 99.0251 51.0207C98.9972 51.0582 98.984 51.105 98.9881 51.152C98.9922 51.199 99.0132 51.2427 99.0472 51.2746V51.2749ZM103.969 55.1511C103.944 55.1637 103.873 55.2517 103.855 55.2733C103.803 55.3193 103.484 55.6557 103.403 55.6138C103.242 55.6032 103.179 55.5339 103.143 55.4756C102.977 55.2204 103.091 54.614 103.21 54.2631C103.657 53.8536 104.13 53.2845 104.426 52.9179C105.205 53.5024 104.644 54.4432 103.969 55.1511ZM104.406 52.4075C104.386 52.4084 104.367 52.4142 104.349 52.4244C104.332 52.4345 104.318 52.4487 104.307 52.4658C104.071 52.7748 102.754 54.4013 102.374 54.4013C102.166 54.3856 102.109 54.2899 102.093 54.2576C101.943 54.0024 102.125 53.4495 102.197 53.2739C102.2 53.2685 102.203 53.2623 102.204 53.256C102.204 53.2496 102.204 53.2431 102.202 53.2369C102.774 52.8592 103.533 51.9342 103.896 51.4715C104.344 51.6342 104.595 51.9538 104.405 52.4075H104.406ZM103.647 51.1895C102.935 52.0988 102.041 53.04 101.787 53.04H101.781C101.574 53.0242 101.516 52.9285 101.495 52.9018C101.35 52.6572 101.511 52.1307 101.594 51.9351C101.984 51.4563 102.499 50.4887 102.665 50.1749C102.862 50.1749 103.304 50.2174 103.527 50.4832C103.667 50.6421 103.708 50.8812 103.646 51.1895H103.647ZM74.3954 69.3063L74.3746 69.285C74.3746 69.285 74.3747 69.285 74.3728 69.285L71.6846 65.6324C71.6701 65.6129 71.652 65.5965 71.6313 65.5842C71.6107 65.5718 71.5878 65.5637 71.5641 65.5604C71.5404 65.5571 71.5163 65.5586 71.4931 65.5648C71.47 65.571 71.4482 65.5818 71.4292 65.5967C71.4101 65.6115 71.3941 65.63 71.382 65.6511C71.3699 65.6723 71.3621 65.6956 71.3588 65.7199C71.3556 65.7442 71.357 65.7689 71.3631 65.7925C71.3692 65.8162 71.3798 65.8385 71.3942 65.858L74.0736 69.499L75.3458 96.2231H46.9566L46.8889 89.4595C48.3059 90.2086 50.5416 91.1556 52.6155 91.7511C52.6728 91.7686 52.7323 91.7776 52.7921 91.7778C53.3744 91.7778 54.1953 91.0225 54.689 90.5015C55.5515 92.3945 57.2711 93.8848 57.9954 94.4525H58.0004C58.9391 95.1614 60.3215 95.8313 60.9106 94.7982C61.6692 95.0035 62.1519 94.564 62.2668 93.8409C62.6201 93.8197 62.8966 93.6866 63.0777 93.4527C63.3271 93.1285 63.3375 92.6871 63.3113 92.3945L63.857 92.5382C64.2884 92.6072 64.4286 92.3575 64.4701 92.2405C64.7299 91.4959 63.4518 89.6029 62.1475 88.7467L62.9476 87.359C62.9634 87.3294 62.9713 87.2962 62.9703 87.2625C62.9694 87.2289 62.9597 87.1961 62.9423 87.1676C62.9061 87.1031 61.9705 85.6532 57.3665 85.099C57.1842 84.9127 58.1062 85.6622 44.9517 75.5543L48.652 69.0083C48.6639 68.9873 48.6717 68.9641 48.6749 68.9401C48.678 68.916 48.6766 68.8916 48.6705 68.8681C48.6645 68.8447 48.654 68.8227 48.6396 68.8034C48.6252 68.7841 48.6073 68.7678 48.5868 68.7556C48.5663 68.7434 48.5437 68.7355 48.5202 68.7322C48.4967 68.729 48.4728 68.7305 48.4499 68.7367C48.4269 68.7429 48.4054 68.7536 48.3866 68.7683C48.3677 68.783 48.3519 68.8014 48.3399 68.8223L44.6519 75.3391L42.4266 73.7986C42.4068 73.7849 42.3846 73.7753 42.3612 73.7704C42.3379 73.7654 42.3138 73.7653 42.2903 73.7699C42.2668 73.7745 42.2445 73.7838 42.2246 73.7972C42.2046 73.8107 42.1875 73.828 42.1741 73.8482C42.1607 73.8685 42.1513 73.8912 42.1465 73.9151C42.1417 73.939 42.1415 73.9637 42.146 73.9877C42.1505 74.0117 42.1596 74.0346 42.1727 74.055C42.1859 74.0754 42.2028 74.0929 42.2226 74.1066L44.6157 75.7615L56.4209 84.8173C55.9533 84.7996 55.3922 84.9285 54.7426 85.3329C54.7332 85.3371 54.7244 85.3425 54.7164 85.349C53.9254 85.9042 53.3974 86.7329 53.016 87.6248C52.6016 88.5734 52.0773 90.2808 52.2833 91.2658C46.7818 89.5903 41.0546 85.7137 36.5168 82.2155C35.2626 81.2527 34.4823 79.7915 34.43 78.1298C34.3947 76.9824 34.7109 76.2287 34.7241 76.1746C36.0901 72.5629 41.6561 56.9681 44.2338 54.2029C46.7437 51.5336 50.4229 50.316 53.068 49.7631C55.1362 49.3374 56.7522 49.2798 57.0277 49.2685C57.0349 49.2695 57.0422 49.2695 57.0494 49.2685L60.8596 54.2306C60.8766 54.2527 60.8983 54.2706 60.9231 54.2828C60.9479 54.2951 60.975 54.3015 61.0026 54.3015H61.0051C61.033 54.3011 61.0604 54.2942 61.0853 54.2812C61.1101 54.2682 61.1317 54.2496 61.1484 54.2267L64.0941 50.182C66.7446 50.8467 69.5194 51.793 71.6915 52.7597C74.0248 53.802 75.7035 54.7271 76.4101 55.3599C79.1585 57.8481 85.9531 63.3508 86.6988 63.9579V66.31C86.6988 66.3593 86.7179 66.4066 86.752 66.4415C86.7861 66.4764 86.8323 66.4959 86.8805 66.4959C86.9287 66.4959 86.9749 66.4764 87.009 66.4415C87.043 66.4066 87.0622 66.3593 87.0622 66.31V63.9327L93.4645 56.5218C93.6881 57.6728 94.1554 58.6236 95.7002 59.7175C97.1081 60.6072 98.7578 61.084 99.7273 61.084C99.795 61.084 99.8574 61.0841 99.9147 61.0789C98.5638 63.5593 92.4058 74.3857 87.3431 75.7934C83.7432 76.7933 74.9818 69.7848 74.3945 69.3063H74.3954ZM63.4911 124.585L61.4066 110.274V104.797C61.4066 104.747 61.3874 104.7 61.3533 104.665C61.3193 104.63 61.2731 104.611 61.2249 104.611C61.1767 104.611 61.1305 104.63 61.0964 104.665C61.0623 104.7 61.0432 104.747 61.0432 104.797C61.0432 105.373 61.0432 102.733 61.0432 110.306L58.2123 124.205C54.2841 123.725 50.6773 122.879 46.956 121.588V96.5952H75.3499V123.607C71.4418 124.361 67.4667 124.689 63.4911 124.585ZM61.195 111.362L63.1224 124.577C61.5914 124.528 60.0763 124.418 58.577 124.247L61.195 111.362ZM61.8134 88.5872L60.1297 88.0343C60.1069 88.0265 60.0827 88.0235 60.0587 88.0255C60.0347 88.0274 60.0114 88.0343 59.99 88.0457C59.9687 88.0571 59.9498 88.0728 59.9345 88.0918C59.9193 88.1108 59.9079 88.1328 59.9011 88.1564C59.8937 88.1799 59.891 88.2045 59.8931 88.229C59.8951 88.2535 59.9019 88.2774 59.913 88.2992C59.9242 88.321 59.9394 88.3403 59.9579 88.356C59.9764 88.3717 59.9978 88.3835 60.0207 88.3907L61.8188 88.9807C63.1907 89.7997 64.2818 91.666 64.126 92.1181C64.1156 92.1393 64.0945 92.198 63.9285 92.1712L63.175 91.9744L61.7111 90.4751C61.6757 90.4417 61.6293 90.4231 61.5812 90.4231C61.533 90.4231 61.4867 90.4417 61.4513 90.4751C61.4183 90.5115 61.4005 90.5595 61.4015 90.6091C61.4025 90.6587 61.4223 90.706 61.4566 90.7409L62.9168 92.235C62.9483 92.3787 63.0311 92.9117 62.7908 93.2187C62.6608 93.3799 62.4633 93.4633 62.1777 93.4688L60.6757 91.9318C60.6588 91.9142 60.6385 91.9001 60.6162 91.8905C60.5939 91.881 60.57 91.876 60.5458 91.876C60.5216 91.876 60.4977 91.881 60.4754 91.8905C60.4531 91.9001 60.4329 91.9142 60.4159 91.9318C60.3835 91.9671 60.3654 92.0137 60.3654 92.0622C60.3654 92.1106 60.3835 92.1572 60.4159 92.1925L61.9176 93.724C61.838 94.3162 61.5212 94.6097 60.9667 94.4206C60.9352 94.3884 59.5015 92.9262 59.4495 92.874C59.4157 92.8394 59.3699 92.82 59.3222 92.82C59.2744 92.82 59.2286 92.8394 59.1948 92.874C59.161 92.9085 59.142 92.9554 59.142 93.0043C59.142 93.0532 59.161 93.1001 59.1948 93.1346L60.6083 94.5811C60.1927 95.4079 58.9533 94.71 58.2177 94.1557C55.5358 92.0475 54.9274 90.0794 54.8868 90.024L54.8714 89.9815C54.8511 89.938 54.8159 89.9036 54.7725 89.8848L52.886 89.0712C52.9697 88.7857 53.0834 88.3594 53.3485 87.7737C53.6921 86.9388 54.2932 86.0089 55.0738 85.5617C55.5185 85.2955 56.0301 85.1697 56.5444 85.2001C57.2853 85.5194 57.2982 85.4598 57.489 85.4924C61.1162 85.9499 62.2958 86.9813 62.566 87.2845L61.8134 88.5872ZM56.9518 40.2513C56.0446 40.2513 55.3062 39.2895 55.3062 38.1076C55.3062 36.9258 56.0446 35.9591 56.9518 35.9591C57.859 35.9591 58.6012 36.9229 58.6012 38.1076C58.6012 38.1569 58.6204 38.2042 58.6544 38.2391C58.6885 38.274 58.7347 38.2936 58.7829 38.2936C58.8311 38.2936 58.8773 38.274 58.9114 38.2391C58.9455 38.2042 58.9646 38.1569 58.9646 38.1076C58.962 37.8533 58.9278 37.6004 58.8629 37.3549L61.6374 37.5322C61.6375 37.5329 61.6375 37.5337 61.6374 37.5344C61.6164 37.6645 61.6058 37.796 61.6059 37.9278C61.6059 39.2412 62.5506 40.3154 63.721 40.3154C64.9059 40.3154 65.8673 39.2412 65.8673 37.9278C65.8687 37.8119 65.8601 37.6961 65.8415 37.5818C66.2532 37.4331 66.7022 37.4331 67.1139 37.5818C67.0956 37.6957 67.0871 37.8111 67.0884 37.9266C67.0884 39.2399 68.0331 40.3142 69.2035 40.3142C69.6443 40.3128 70.0723 40.1632 70.4218 39.8885C69.6825 43.8343 67.0673 46.8909 63.8552 47.2279C63.8517 47.2279 63.8489 47.225 63.8454 47.2247C62.2829 47.0555 60.4997 46.1343 60.4817 46.125C60.439 46.1047 60.3903 46.1021 60.3458 46.1179C60.3013 46.1336 60.2644 46.1663 60.243 46.2093C60.2216 46.2522 60.2173 46.3019 60.231 46.348C60.2447 46.3941 60.2753 46.433 60.3164 46.4565C60.3895 46.4949 62.0823 47.3681 63.676 47.5772L63.7764 49.996L60.9985 53.8101L57.2752 48.963L57.1839 46.3876C57.1839 45.1506 56.8526 42.7201 56.5598 40.5752C56.688 40.6079 56.8197 40.6247 56.9518 40.6251C57.0001 40.6251 57.0464 40.6055 57.0805 40.5705C57.1147 40.5356 57.1338 40.4882 57.1338 40.4389C57.1338 40.3895 57.1147 40.3421 57.0805 40.3072C57.0464 40.2722 57.0001 40.2526 56.9518 40.2526V40.2513ZM69.2032 35.9072C69.77 35.9072 70.2776 36.2098 70.5998 36.6825C70.6234 36.9937 70.6382 37.3085 70.6382 37.6285C70.6365 38.1783 70.5982 38.7274 70.5232 39.2718C70.2014 39.6833 69.7307 39.942 69.2032 39.942C68.2365 39.942 67.4518 39.0379 67.4518 37.9266C67.4518 36.8152 68.2365 35.9072 69.2032 35.9072ZM69.5197 32.5884C70.0414 33.679 70.3843 34.8498 70.5349 36.0542C70.1665 35.732 69.7055 35.5357 69.2032 35.5357C68.2586 35.5357 67.4518 36.2446 67.1816 37.2112C67.1816 37.2135 67.1816 37.2158 67.1816 37.218C66.7231 37.0653 66.2291 37.0653 65.7706 37.218C65.7706 37.2158 65.7706 37.2132 65.7706 37.2109C65.5004 36.2443 64.6846 35.5354 63.7238 35.5354C62.7937 35.5354 62.0036 36.2159 61.718 37.1626L59.0836 36.9947C59.0862 36.9873 59.0928 36.9828 59.094 36.9747L60.2478 32.5453C61.2586 32.7186 66.4382 33.5209 69.5203 32.5878L69.5197 32.5884ZM63.7207 35.9072C64.7028 35.9072 65.503 36.8165 65.503 37.9278C65.503 39.0392 64.7028 39.9433 63.7207 39.9433C62.754 39.9433 61.9693 39.0392 61.9693 37.9278C61.9693 36.8165 62.754 35.9072 63.7207 35.9072ZM122.135 82.5093V105.97C122.135 106.058 122.118 106.144 122.085 106.225C122.052 106.306 122.004 106.38 121.943 106.442C121.882 106.503 121.81 106.552 121.731 106.585C121.651 106.618 121.567 106.635 121.481 106.635H89.1165C88.9437 106.635 88.7778 106.565 88.6551 106.441C88.5324 106.316 88.4628 106.147 88.4615 105.97V82.5093C88.4629 82.3325 88.5325 82.1634 88.6552 82.0389C88.7779 81.9143 88.9437 81.8445 89.1165 81.8446H94.4117C94.4597 81.844 94.5056 81.8242 94.5396 81.7895C94.5736 81.7548 94.593 81.7078 94.5937 81.6587V76.336C94.5922 76.3002 94.602 76.2648 94.6216 76.2351C94.6412 76.2054 94.6696 76.183 94.7027 76.1711C94.736 76.1573 94.7728 76.1551 94.8076 76.1646C94.8423 76.1742 94.873 76.1952 94.8951 76.2242L99.3224 81.7757C99.3398 81.7966 99.3613 81.8135 99.3855 81.8254C99.4096 81.8373 99.436 81.8438 99.4628 81.8446H121.481C121.567 81.8441 121.651 81.861 121.731 81.8941C121.81 81.9273 121.882 81.9762 121.943 82.0379C122.004 82.0997 122.052 82.1731 122.085 82.254C122.118 82.3349 122.135 82.4217 122.135 82.5093ZM121.025 67.1629C121.028 71.9898 120.434 76.7976 119.26 81.4724H99.551L95.174 75.9903C95.1045 75.9032 95.0102 75.8403 94.9043 75.8102C94.7984 75.7801 94.686 75.7843 94.5825 75.8222C94.479 75.8601 94.3895 75.9298 94.3263 76.0218C94.2631 76.1138 94.2292 76.2236 94.2294 76.336V81.4724H89.1165C88.9831 81.4721 88.8509 81.4986 88.7275 81.5505C88.6041 81.6024 88.4919 81.6787 88.3973 81.775C88.3027 81.8712 88.2275 81.9857 88.1762 82.1117C88.1248 82.2377 88.0982 82.3728 88.0978 82.5093V105.97C88.0993 106.245 88.2073 106.509 88.3982 106.703C88.5891 106.898 88.8473 107.007 89.1165 107.007H105.274C97.4456 115.315 87.2042 121.223 75.7145 123.533V96.3987L74.4464 69.8218C76.1352 71.1619 83.9145 77.1387 87.4432 76.1549C92.9453 74.6186 99.6004 62.4519 100.413 60.9165L100.421 60.9081C100.433 60.9038 100.444 60.8949 100.45 60.8833C100.875 60.3033 99.4241 58.9922 98.886 58.5225L99.0991 58.1928C101.007 57.7962 103.039 56.6394 104.124 55.5288C104.997 54.6443 105.655 53.4402 104.696 52.6572C105.025 51.9725 104.738 51.3983 104.025 51.1206C104.057 50.8663 104.03 50.644 103.938 50.4584H118.589C120.204 55.8726 121.025 61.5021 121.025 67.1629ZM131.617 50.0856H103.638L103.636 50.0834C103.417 49.9132 103.142 49.844 102.924 49.8121L103.23 49.4344L105.812 46.7546L105.859 46.6959C106.269 46.1855 106.4 45.3774 106.145 44.936C106.019 44.7072 105.802 44.6064 105.546 44.6489C105.528 44.6484 105.51 44.6539 105.495 44.6647C103.904 45.4731 102.283 46.579 100.734 47.8714C100.677 47.6213 100.568 47.388 100.402 47.2862C100.341 47.2512 100.273 47.2294 100.203 47.2221C100.134 47.2148 100.063 47.2221 99.9966 47.2437C99.3728 47.4138 98.3699 48.6582 97.3981 50.0834V50.0856H85.9072C85.5488 50.085 85.2053 49.9391 84.9519 49.6798C84.6985 49.4205 84.5559 49.069 84.5553 48.7023V20.286H132.969V48.7052C132.967 49.0715 132.824 49.4224 132.571 49.6812C132.318 49.9399 131.974 50.0854 131.617 50.0859L131.617 50.0856Z" fill="#1C2844"/>
<path d="M57.5035 37.4082C57.499 37.3841 57.4899 37.3612 57.4766 37.3408C57.4634 37.3204 57.4463 37.3029 57.4263 37.2893C57.4064 37.2757 57.384 37.2664 57.3605 37.2618C57.3369 37.2572 57.3128 37.2575 57.2893 37.2626C57.2704 37.2665 56.8308 37.3612 56.6173 37.7411C56.4807 37.9831 56.4681 38.2756 56.5792 38.611C56.5913 38.6479 56.6144 38.6799 56.6453 38.7026C56.6762 38.7253 56.7132 38.7374 56.7512 38.7374C56.7711 38.7373 56.7908 38.734 56.8097 38.7277C56.8326 38.72 56.8538 38.7077 56.872 38.6915C56.8903 38.6754 56.9052 38.6557 56.9159 38.6336C56.9266 38.6115 56.9329 38.5875 56.9345 38.5629C56.9361 38.5382 56.9328 38.5135 56.925 38.4902C56.8497 38.2621 56.8523 38.0713 56.9326 37.928C57.0613 37.6966 57.3548 37.6286 57.3633 37.6264C57.41 37.6161 57.4509 37.5875 57.4771 37.5467C57.5033 37.5059 57.5128 37.4561 57.5035 37.4082Z" fill="#1C2844"/>
<path d="M66.1251 40.5825C66.1311 40.5825 66.1377 40.5825 66.1443 40.5825C66.4016 40.5545 66.5981 40.4978 66.7442 40.4089C67.0628 40.2155 67.048 39.9136 67.0411 39.7689C67.0078 39.1258 66.8985 38.4891 66.7158 37.8727C66.7006 37.827 66.6687 37.7891 66.6267 37.767C66.5848 37.7449 66.536 37.7403 66.4909 37.7543C66.4457 37.7683 66.4076 37.7996 66.3846 37.8418C66.3616 37.884 66.3555 37.9336 66.3676 37.9803C66.5418 38.5679 66.646 39.1748 66.6777 39.7879C66.6853 39.9439 66.6705 40.0203 66.5581 40.0889C66.4595 40.1491 66.3062 40.1907 66.1059 40.2123C66.0594 40.2172 66.0165 40.2401 65.9861 40.2765C65.9557 40.3128 65.9402 40.3597 65.9426 40.4074C65.9451 40.4552 65.9654 40.5001 65.9994 40.5329C66.0334 40.5658 66.0784 40.584 66.1251 40.5838V40.5825Z" fill="#1C2844"/>
<path d="M65.4222 43.5628C65.4885 43.5728 65.5554 43.5779 65.6225 43.5779C65.9865 43.5779 66.3606 43.4291 66.7356 43.1336C66.7715 43.1029 66.7944 43.0592 66.7995 43.0116C66.8047 42.964 66.7917 42.9162 66.7633 42.8782C66.7349 42.8402 66.6932 42.8148 66.647 42.8074C66.6008 42.8 66.5536 42.8111 66.5152 42.8385C66.1534 43.123 65.8042 43.2432 65.4811 43.1951C65.0358 43.1307 64.771 42.7634 64.7685 42.7598C64.7546 42.7399 64.737 42.7231 64.7167 42.7101C64.6964 42.6972 64.6738 42.6885 64.6502 42.6845C64.6266 42.6805 64.6025 42.6813 64.5792 42.6869C64.556 42.6924 64.534 42.7026 64.5145 42.7168C64.4951 42.7311 64.4786 42.7491 64.466 42.7698C64.4533 42.7906 64.4448 42.8137 64.4409 42.8378C64.437 42.862 64.4378 42.8867 64.4432 42.9105C64.4486 42.9343 64.4586 42.9568 64.4725 42.9767C64.4857 42.997 64.8233 43.4719 65.4222 43.5628Z" fill="#1C2844"/>
<path d="M63.9854 38.4881C63.9854 38.7781 64.1875 39.0162 64.4366 39.0162C64.6857 39.0162 64.8878 38.7797 64.8878 38.4881C64.8878 38.1965 64.6857 37.96 64.4366 37.96C64.1875 37.96 63.9854 38.1961 63.9854 38.4881Z" fill="#1C2844"/>
<path d="M69.3909 38.1038C69.1421 38.1038 68.9399 38.3403 68.9399 38.6319C68.9399 38.9235 69.1421 39.16 69.3909 39.16C69.6396 39.16 69.8421 38.9238 69.8421 38.6319C69.8421 38.3399 69.6399 38.1038 69.3909 38.1038Z" fill="#1C2844"/>
<path d="M63.0457 37.2989C63.0758 37.2989 63.1054 37.2912 63.1319 37.2767C63.1584 37.2621 63.1809 37.2411 63.1975 37.2154C63.2 37.2115 63.4434 36.8471 63.786 36.7865C63.9652 36.7543 64.1368 36.8081 64.3173 36.9477C64.3558 36.9776 64.4044 36.9906 64.4523 36.9838C64.5002 36.9771 64.5436 36.9512 64.5728 36.9117C64.602 36.8723 64.6147 36.8226 64.6082 36.7735C64.6016 36.7245 64.5762 36.6802 64.5377 36.6502C64.2751 36.4485 64.0024 36.3712 63.725 36.4199C63.2237 36.5088 62.9081 36.9902 62.8949 37.0105C62.8764 37.0385 62.8657 37.0712 62.864 37.105C62.8623 37.1389 62.8697 37.1725 62.8853 37.2023C62.9009 37.2322 62.9242 37.2571 62.9526 37.2744C62.9811 37.2917 63.0136 37.3007 63.0467 37.3005L63.0457 37.2989Z" fill="#1C2844"/>
<path d="M68.2494 37.5561C68.2795 37.556 68.3091 37.5483 68.3356 37.5337C68.3621 37.5191 68.3846 37.498 68.4012 37.4723C68.4037 37.4687 68.6474 37.104 68.9903 37.0434C69.1679 37.0112 69.3405 37.065 69.5212 37.2045C69.5598 37.2344 69.6083 37.2474 69.6563 37.2407C69.7042 37.234 69.7475 37.208 69.7768 37.1686C69.806 37.1292 69.8187 37.0794 69.8121 37.0304C69.8055 36.9814 69.7802 36.937 69.7416 36.9071C69.4797 36.7051 69.2063 36.6281 68.9295 36.6767C68.4279 36.7653 68.1108 37.2467 68.0989 37.2674C68.0857 37.2878 68.0766 37.3106 68.0721 37.3346C68.0676 37.3586 68.0678 37.3833 68.0726 37.4073C68.0774 37.4312 68.0868 37.4539 68.1002 37.4742C68.1137 37.4944 68.1308 37.5117 68.1508 37.5251C68.18 37.5451 68.2143 37.5559 68.2494 37.5561Z" fill="#1C2844"/>
<path d="M30.1966 86.7156H15.4979C15.4497 86.7156 15.4034 86.7352 15.3692 86.7701C15.3351 86.805 15.3159 86.8524 15.3159 86.9018C15.3159 86.9512 15.3351 86.9986 15.3692 87.0335C15.4034 87.0684 15.4497 87.0881 15.4979 87.0881H30.1966C30.2449 87.0881 30.2912 87.0684 30.3253 87.0335C30.3595 86.9986 30.3786 86.9512 30.3786 86.9018C30.3786 86.8524 30.3595 86.805 30.3253 86.7701C30.2912 86.7352 30.2449 86.7156 30.1966 86.7156Z" fill="#1C2844"/>
<path d="M28.5063 92.9073C28.5532 92.9053 28.5975 92.8848 28.63 92.8502C28.6625 92.8155 28.6807 92.7693 28.6807 92.7212C28.6807 92.6732 28.6625 92.627 28.63 92.5923C28.5975 92.5576 28.5532 92.5372 28.5063 92.5352H27.0294C26.9825 92.5372 26.9382 92.5576 26.9056 92.5923C26.8731 92.627 26.855 92.6732 26.855 92.7212C26.855 92.7693 26.8731 92.8155 26.9056 92.8502C26.9382 92.8848 26.9825 92.9053 27.0294 92.9073H28.5063Z" fill="#1C2844"/>
<path d="M21.2676 92.7214C21.2676 92.7458 21.2723 92.77 21.2814 92.7926C21.2906 92.8152 21.304 92.8357 21.3209 92.853C21.3378 92.8702 21.3579 92.8839 21.38 92.8932C21.402 92.9026 21.4257 92.9074 21.4496 92.9073H25.5054C25.5523 92.9053 25.5966 92.8848 25.6291 92.8502C25.6616 92.8155 25.6798 92.7693 25.6798 92.7212C25.6798 92.6732 25.6616 92.627 25.6291 92.5923C25.5966 92.5576 25.5523 92.5372 25.5054 92.5352H21.4496C21.4013 92.5352 21.355 92.5548 21.3209 92.5897C21.2868 92.6246 21.2676 92.672 21.2676 92.7214Z" fill="#1C2844"/>
<path d="M15.4982 92.9075H19.6827C19.7072 92.9085 19.7317 92.9045 19.7547 92.8956C19.7776 92.8867 19.7986 92.8732 19.8163 92.8558C19.834 92.8384 19.8481 92.8175 19.8577 92.7944C19.8673 92.7714 19.8723 92.7465 19.8723 92.7214C19.8723 92.6963 19.8673 92.6714 19.8577 92.6483C19.8481 92.6252 19.834 92.6044 19.8163 92.587C19.7986 92.5696 19.7776 92.5561 19.7547 92.5472C19.7317 92.5383 19.7072 92.5343 19.6827 92.5353H15.4982C15.4737 92.5343 15.4492 92.5383 15.4262 92.5472C15.4033 92.5561 15.3823 92.5696 15.3646 92.587C15.3469 92.6044 15.3328 92.6252 15.3232 92.6483C15.3136 92.6714 15.3086 92.6963 15.3086 92.7214C15.3086 92.7465 15.3136 92.7714 15.3232 92.7944C15.3328 92.8175 15.3469 92.8384 15.3646 92.8558C15.3823 92.8732 15.4033 92.8867 15.4262 92.8956C15.4492 92.9045 15.4737 92.9085 15.4982 92.9075Z" fill="#1C2844"/>
<path d="M30.1967 94.1803H20.7699C20.7216 94.1803 20.6753 94.1999 20.6412 94.2348C20.6071 94.2698 20.5879 94.3171 20.5879 94.3665C20.5879 94.4159 20.6071 94.4633 20.6412 94.4982C20.6753 94.5332 20.7216 94.5528 20.7699 94.5528H30.1967C30.245 94.5528 30.2913 94.5332 30.3254 94.4982C30.3596 94.4633 30.3787 94.4159 30.3787 94.3665C30.3787 94.3171 30.3596 94.2698 30.3254 94.2348C30.2913 94.1999 30.245 94.1803 30.1967 94.1803Z" fill="#1C2844"/>
<path d="M15.4979 94.5528H16.913C16.9613 94.5528 17.0076 94.5332 17.0417 94.4982C17.0759 94.4633 17.095 94.4159 17.095 94.3665C17.095 94.3171 17.0759 94.2698 17.0417 94.2348C17.0076 94.1999 16.9613 94.1803 16.913 94.1803H15.4979C15.4497 94.1803 15.4034 94.1999 15.3692 94.2348C15.3351 94.2698 15.3159 94.3171 15.3159 94.3665C15.3159 94.4159 15.3351 94.4633 15.3692 94.4982C15.4034 94.5332 15.4497 94.5528 15.4979 94.5528Z" fill="#1C2844"/>
<path d="M30.1966 95.8256H26.672C26.6251 95.8276 26.5807 95.848 26.5482 95.8827C26.5157 95.9174 26.4976 95.9636 26.4976 96.0116C26.4976 96.0597 26.5157 96.1059 26.5482 96.1406C26.5807 96.1752 26.6251 96.1957 26.672 96.1977H30.1966C30.2435 96.1957 30.2878 96.1752 30.3203 96.1406C30.3528 96.1059 30.371 96.0597 30.371 96.0116C30.371 95.9636 30.3528 95.9174 30.3203 95.8827C30.2878 95.848 30.2435 95.8276 30.1966 95.8256Z" fill="#1C2844"/>
<path d="M15.4982 96.1993H24.0399C24.0644 96.2004 24.0888 96.1963 24.1118 96.1875C24.1347 96.1786 24.1557 96.1651 24.1734 96.1477C24.1911 96.1303 24.2052 96.1094 24.2148 96.0863C24.2245 96.0632 24.2294 96.0384 24.2294 96.0133C24.2294 95.9882 24.2245 95.9633 24.2148 95.9402C24.2052 95.9171 24.1911 95.8962 24.1734 95.8789C24.1557 95.8615 24.1347 95.8479 24.1118 95.8391C24.0888 95.8302 24.0644 95.8261 24.0399 95.8272H15.4982C15.4737 95.8261 15.4492 95.8302 15.4262 95.8391C15.4033 95.8479 15.3823 95.8615 15.3646 95.8789C15.3469 95.8962 15.3328 95.9171 15.3232 95.9402C15.3136 95.9633 15.3086 95.9882 15.3086 96.0133C15.3086 96.0384 15.3136 96.0632 15.3232 96.0863C15.3328 96.1094 15.3469 96.1303 15.3646 96.1477C15.3823 96.1651 15.4033 96.1786 15.4262 96.1875C15.4492 96.1963 15.4737 96.2004 15.4982 96.1993Z" fill="#1C2844"/>
<path d="M30.1966 97.4704H21.067C21.0425 97.4693 21.018 97.4734 20.9951 97.4823C20.9721 97.4911 20.9512 97.5047 20.9335 97.5221C20.9157 97.5394 20.9017 97.5603 20.892 97.5834C20.8824 97.6065 20.8774 97.6313 20.8774 97.6565C20.8774 97.6816 20.8824 97.7064 20.892 97.7295C20.9017 97.7526 20.9157 97.7735 20.9335 97.7909C20.9512 97.8082 20.9721 97.8218 20.9951 97.8307C21.018 97.8395 21.0425 97.8436 21.067 97.8425H30.1966C30.2435 97.8405 30.2879 97.8201 30.3204 97.7854C30.3529 97.7507 30.371 97.7045 30.371 97.6565C30.371 97.6084 30.3529 97.5622 30.3204 97.5275C30.2879 97.4929 30.2435 97.4724 30.1966 97.4704Z" fill="#1C2844"/>
<path d="M15.4982 97.8425H18.3637C18.3882 97.8436 18.4126 97.8395 18.4356 97.8307C18.4586 97.8218 18.4795 97.8082 18.4972 97.7909C18.5149 97.7735 18.529 97.7526 18.5386 97.7295C18.5483 97.7064 18.5532 97.6816 18.5532 97.6565C18.5532 97.6313 18.5483 97.6065 18.5386 97.5834C18.529 97.5603 18.5149 97.5394 18.4972 97.5221C18.4795 97.5047 18.4586 97.4911 18.4356 97.4823C18.4126 97.4734 18.3882 97.4693 18.3637 97.4704H15.4982C15.4737 97.4693 15.4492 97.4734 15.4262 97.4823C15.4033 97.4911 15.3823 97.5047 15.3646 97.5221C15.3469 97.5394 15.3328 97.5603 15.3232 97.5834C15.3136 97.6065 15.3086 97.6313 15.3086 97.6565C15.3086 97.6816 15.3136 97.7064 15.3232 97.7295C15.3328 97.7526 15.3469 97.7735 15.3646 97.7909C15.3823 97.8082 15.4033 97.8218 15.4262 97.8307C15.4492 97.8395 15.4737 97.8436 15.4982 97.8425Z" fill="#1C2844"/>
<path d="M30.1965 99.1154H26.4852C26.437 99.1154 26.3907 99.135 26.3565 99.1699C26.3224 99.2048 26.3032 99.2522 26.3032 99.3016C26.3032 99.351 26.3224 99.3984 26.3565 99.4333C26.3907 99.4682 26.437 99.4878 26.4852 99.4878H30.1965C30.2448 99.4878 30.2911 99.4682 30.3252 99.4333C30.3593 99.3984 30.3785 99.351 30.3785 99.3016C30.3785 99.2522 30.3593 99.2048 30.3252 99.1699C30.2911 99.135 30.2448 99.1154 30.1965 99.1154Z" fill="#1C2844"/>
<path d="M15.4979 99.4878H23.8016C23.8498 99.4878 23.8961 99.4682 23.9303 99.4333C23.9644 99.3984 23.9836 99.351 23.9836 99.3016C23.9836 99.2522 23.9644 99.2048 23.9303 99.1699C23.8961 99.135 23.8498 99.1154 23.8016 99.1154H15.4979C15.4497 99.1154 15.4034 99.135 15.3692 99.1699C15.3351 99.2048 15.3159 99.2522 15.3159 99.3016C15.3159 99.351 15.3351 99.3984 15.3692 99.4333C15.4034 99.4682 15.4497 99.4878 15.4979 99.4878Z" fill="#1C2844"/>
<path d="M30.1966 100.76H15.4979C15.4497 100.76 15.4034 100.78 15.3692 100.815C15.3351 100.849 15.3159 100.897 15.3159 100.946C15.3159 100.996 15.3351 101.043 15.3692 101.078C15.4034 101.113 15.4497 101.132 15.4979 101.132H30.1966C30.2449 101.132 30.2912 101.113 30.3253 101.078C30.3595 101.043 30.3786 100.996 30.3786 100.946C30.3786 100.897 30.3595 100.849 30.3253 100.815C30.2912 100.78 30.2449 100.76 30.1966 100.76Z" fill="#1C2844"/>
<path d="M23.8673 88.8136H15.4982C15.4737 88.8126 15.4492 88.8166 15.4262 88.8255C15.4033 88.8344 15.3823 88.8479 15.3646 88.8653C15.3469 88.8827 15.3328 88.9036 15.3232 88.9267C15.3136 88.9498 15.3086 88.9746 15.3086 88.9997C15.3086 89.0248 15.3136 89.0497 15.3232 89.0728C15.3328 89.0959 15.3469 89.1167 15.3646 89.1341C15.3823 89.1515 15.4033 89.165 15.4262 89.1739C15.4492 89.1828 15.4737 89.1868 15.4982 89.1858H23.8673C23.8918 89.1868 23.9163 89.1828 23.9392 89.1739C23.9622 89.165 23.9831 89.1515 24.0009 89.1341C24.0186 89.1167 24.0327 89.0959 24.0423 89.0728C24.0519 89.0497 24.0569 89.0248 24.0569 88.9997C24.0569 88.9746 24.0519 88.9498 24.0423 88.9267C24.0327 88.9036 24.0186 88.8827 24.0009 88.8653C23.9831 88.8479 23.9622 88.8344 23.9392 88.8255C23.9163 88.8166 23.8918 88.8126 23.8673 88.8136Z" fill="#1C2844"/>
<path d="M30.1966 90.4233H24.5062C24.458 90.4233 24.4117 90.443 24.3775 90.4779C24.3434 90.5128 24.3242 90.5602 24.3242 90.6096C24.3242 90.659 24.3434 90.7063 24.3775 90.7413C24.4117 90.7762 24.458 90.7958 24.5062 90.7958H30.1966C30.2449 90.7958 30.2912 90.7762 30.3253 90.7413C30.3594 90.7063 30.3786 90.659 30.3786 90.6096C30.3786 90.5602 30.3594 90.5128 30.3253 90.4779C30.2912 90.443 30.2449 90.4233 30.1966 90.4233Z" fill="#1C2844"/>
<path d="M15.4979 90.7958H21.2289C21.2772 90.7958 21.3235 90.7762 21.3576 90.7413C21.3917 90.7063 21.4109 90.659 21.4109 90.6096C21.4109 90.5602 21.3917 90.5128 21.3576 90.4779C21.3235 90.443 21.2772 90.4233 21.2289 90.4233H15.4979C15.4497 90.4233 15.4034 90.443 15.3692 90.4779C15.3351 90.5128 15.3159 90.5602 15.3159 90.6096C15.3159 90.659 15.3351 90.7063 15.3692 90.7413C15.4034 90.7762 15.4497 90.7958 15.4979 90.7958Z" fill="#1C2844"/>
<path d="M13.1968 86.7156H11.6185C11.5703 86.7156 11.524 86.7352 11.4898 86.7701C11.4557 86.805 11.4365 86.8524 11.4365 86.9018C11.4365 86.9512 11.4557 86.9986 11.4898 87.0335C11.524 87.0684 11.5703 87.0881 11.6185 87.0881H13.1968C13.245 87.0881 13.2913 87.0684 13.3255 87.0335C13.3596 86.9986 13.3788 86.9512 13.3788 86.9018C13.3788 86.8524 13.3596 86.805 13.3255 86.7701C13.2913 86.7352 13.245 86.7156 13.1968 86.7156Z" fill="#1C2844"/>
<path d="M13.1965 92.5353H11.8009C11.754 92.5373 11.7096 92.5578 11.6771 92.5925C11.6446 92.6271 11.6265 92.6733 11.6265 92.7214C11.6265 92.7694 11.6446 92.8156 11.6771 92.8503C11.7096 92.885 11.754 92.9055 11.8009 92.9075H13.1974C13.222 92.9085 13.2464 92.9045 13.2694 92.8956C13.2923 92.8867 13.3133 92.8732 13.331 92.8558C13.3487 92.8384 13.3628 92.8175 13.3724 92.7944C13.382 92.7714 13.387 92.7465 13.387 92.7214C13.387 92.6963 13.382 92.6714 13.3724 92.6483C13.3628 92.6252 13.3487 92.6044 13.331 92.587C13.3133 92.5696 13.2923 92.5561 13.2694 92.5472C13.2464 92.5383 13.222 92.5343 13.1974 92.5353H13.1965Z" fill="#1C2844"/>
<path d="M13.1968 94.1803H11.6185C11.5703 94.1803 11.524 94.1999 11.4898 94.2348C11.4557 94.2698 11.4365 94.3171 11.4365 94.3665C11.4365 94.4159 11.4557 94.4633 11.4898 94.4982C11.524 94.5332 11.5703 94.5528 11.6185 94.5528H13.1968C13.245 94.5528 13.2913 94.5332 13.3255 94.4982C13.3596 94.4633 13.3788 94.4159 13.3788 94.3665C13.3788 94.3171 13.3596 94.2698 13.3255 94.2348C13.2913 94.1999 13.245 94.1803 13.1968 94.1803Z" fill="#1C2844"/>
<path d="M13.197 95.8251H11.6188C11.5719 95.8271 11.5275 95.8476 11.495 95.8823C11.4625 95.9169 11.4443 95.9631 11.4443 96.0112C11.4443 96.0592 11.4625 96.1054 11.495 96.1401C11.5275 96.1748 11.5719 96.1953 11.6188 96.1973H13.197C13.2215 96.1983 13.246 96.1943 13.2689 96.1854C13.2919 96.1765 13.3129 96.163 13.3306 96.1456C13.3483 96.1282 13.3624 96.1073 13.372 96.0843C13.3816 96.0612 13.3866 96.0363 13.3866 96.0112C13.3866 95.9861 13.3816 95.9612 13.372 95.9381C13.3624 95.915 13.3483 95.8942 13.3306 95.8768C13.3129 95.8594 13.2919 95.8459 13.2689 95.837C13.246 95.8281 13.2215 95.8241 13.197 95.8251Z" fill="#1C2844"/>
<path d="M13.197 97.4704H11.6188C11.5719 97.4724 11.5275 97.4929 11.495 97.5275C11.4625 97.5622 11.4443 97.6084 11.4443 97.6565C11.4443 97.7045 11.4625 97.7507 11.495 97.7854C11.5275 97.8201 11.5719 97.8405 11.6188 97.8425H13.197C13.2215 97.8436 13.246 97.8395 13.2689 97.8307C13.2919 97.8218 13.3129 97.8082 13.3306 97.7909C13.3483 97.7735 13.3624 97.7526 13.372 97.7295C13.3816 97.7064 13.3866 97.6816 13.3866 97.6565C13.3866 97.6313 13.3816 97.6065 13.372 97.5834C13.3624 97.5603 13.3483 97.5394 13.3306 97.5221C13.3129 97.5047 13.2919 97.4911 13.2689 97.4823C13.246 97.4734 13.2215 97.4693 13.197 97.4704Z" fill="#1C2844"/>
<path d="M13.1968 99.1154H11.6185C11.5703 99.1154 11.524 99.135 11.4898 99.1699C11.4557 99.2048 11.4365 99.2522 11.4365 99.3016C11.4365 99.351 11.4557 99.3984 11.4898 99.4333C11.524 99.4682 11.5703 99.4878 11.6185 99.4878H13.1968C13.245 99.4878 13.2913 99.4682 13.3255 99.4333C13.3596 99.3984 13.3788 99.351 13.3788 99.3016C13.3788 99.2522 13.3596 99.2048 13.3255 99.1699C13.2913 99.135 13.245 99.1154 13.1968 99.1154Z" fill="#1C2844"/>
<path d="M13.1968 100.76H11.6185C11.5703 100.76 11.524 100.78 11.4898 100.815C11.4557 100.849 11.4365 100.897 11.4365 100.946C11.4365 100.996 11.4557 101.043 11.4898 101.078C11.524 101.113 11.5703 101.132 11.6185 101.132H13.1968C13.245 101.132 13.2913 101.113 13.3255 101.078C13.3596 101.043 13.3788 100.996 13.3788 100.946C13.3788 100.897 13.3596 100.849 13.3255 100.815C13.2913 100.78 13.245 100.76 13.1968 100.76Z" fill="#1C2844"/>
<path d="M13.1967 88.8136H12.298C12.2511 88.8156 12.2067 88.8361 12.1742 88.8708C12.1417 88.9055 12.1235 88.9517 12.1235 88.9997C12.1235 89.0478 12.1417 89.094 12.1742 89.1286C12.2067 89.1633 12.2511 89.1838 12.298 89.1858H13.1967C13.2212 89.1868 13.2457 89.1828 13.2686 89.1739C13.2916 89.165 13.3125 89.1515 13.3302 89.1341C13.3479 89.1167 13.362 89.0959 13.3717 89.0728C13.3813 89.0497 13.3862 89.0248 13.3862 88.9997C13.3862 88.9746 13.3813 88.9498 13.3717 88.9267C13.362 88.9036 13.3479 88.8827 13.3302 88.8653C13.3125 88.8479 13.2916 88.8344 13.2686 88.8255C13.2457 88.8166 13.2212 88.8126 13.1967 88.8136Z" fill="#1C2844"/>
<path d="M13.1968 90.4233H11.6185C11.5703 90.4233 11.524 90.443 11.4898 90.4779C11.4557 90.5128 11.4365 90.5602 11.4365 90.6096C11.4365 90.659 11.4557 90.7063 11.4898 90.7413C11.524 90.7762 11.5703 90.7958 11.6185 90.7958H13.1968C13.245 90.7958 13.2913 90.7762 13.3255 90.7413C13.3596 90.7063 13.3788 90.659 13.3788 90.6096C13.3788 90.5602 13.3596 90.5128 13.3255 90.4779C13.2913 90.443 13.245 90.4233 13.1968 90.4233Z" fill="#1C2844"/>
<path d="M30.1969 103.135H15.4982C15.4737 103.134 15.4492 103.138 15.4262 103.147C15.4033 103.156 15.3823 103.169 15.3646 103.187C15.3469 103.204 15.3328 103.225 15.3232 103.248C15.3136 103.271 15.3086 103.296 15.3086 103.321C15.3086 103.346 15.3136 103.371 15.3232 103.394C15.3328 103.417 15.3469 103.438 15.3646 103.456C15.3823 103.473 15.4033 103.487 15.4262 103.495C15.4492 103.504 15.4737 103.508 15.4982 103.507H30.1969C30.2438 103.505 30.2882 103.485 30.3207 103.45C30.3532 103.415 30.3713 103.369 30.3713 103.321C30.3713 103.273 30.3532 103.227 30.3207 103.192C30.2882 103.158 30.2438 103.137 30.1969 103.135Z" fill="#1C2844"/>
<path d="M28.5065 109.327C28.5548 109.327 28.6011 109.307 28.6352 109.272C28.6693 109.237 28.6885 109.19 28.6885 109.141C28.6885 109.091 28.6693 109.044 28.6352 109.009C28.6011 108.974 28.5548 108.954 28.5065 108.954H27.0297C26.9814 108.954 26.9351 108.974 26.901 109.009C26.8668 109.044 26.8477 109.091 26.8477 109.141C26.8477 109.19 26.8668 109.237 26.901 109.272C26.9351 109.307 26.9814 109.327 27.0297 109.327H28.5065Z" fill="#1C2844"/>
<path d="M21.2676 109.141C21.2676 109.19 21.2868 109.237 21.3209 109.272C21.355 109.307 21.4013 109.327 21.4496 109.327H25.5054C25.5536 109.327 25.5999 109.307 25.6341 109.272C25.6682 109.237 25.6874 109.19 25.6874 109.141C25.6874 109.091 25.6682 109.044 25.6341 109.009C25.5999 108.974 25.5536 108.954 25.5054 108.954H21.4496C21.4013 108.954 21.355 108.974 21.3209 109.009C21.2868 109.044 21.2676 109.091 21.2676 109.141Z" fill="#1C2844"/>
<path d="M19.6825 108.954H15.4979C15.4497 108.954 15.4034 108.974 15.3692 109.009C15.3351 109.044 15.3159 109.091 15.3159 109.141C15.3159 109.19 15.3351 109.237 15.3692 109.272C15.4034 109.307 15.4497 109.327 15.4979 109.327H19.6825C19.7308 109.327 19.7771 109.307 19.8112 109.272C19.8453 109.237 19.8645 109.19 19.8645 109.141C19.8645 109.091 19.8453 109.044 19.8112 109.009C19.7771 108.974 19.7308 108.954 19.6825 108.954Z" fill="#1C2844"/>
<path d="M30.1965 110.599H20.7696C20.7451 110.598 20.7207 110.602 20.6977 110.611C20.6748 110.62 20.6538 110.633 20.6361 110.651C20.6184 110.668 20.6043 110.689 20.5947 110.712C20.585 110.735 20.5801 110.76 20.5801 110.785C20.5801 110.81 20.585 110.835 20.5947 110.858C20.6043 110.881 20.6184 110.902 20.6361 110.919C20.6538 110.937 20.6748 110.95 20.6977 110.959C20.7207 110.968 20.7451 110.972 20.7696 110.971H30.1965C30.2434 110.969 30.2878 110.949 30.3203 110.914C30.3528 110.879 30.3709 110.833 30.3709 110.785C30.3709 110.737 30.3528 110.691 30.3203 110.656C30.2878 110.621 30.2434 110.601 30.1965 110.599Z" fill="#1C2844"/>
<path d="M16.9133 110.599H15.4982C15.4737 110.598 15.4492 110.602 15.4262 110.611C15.4033 110.62 15.3823 110.633 15.3646 110.651C15.3469 110.668 15.3328 110.689 15.3232 110.712C15.3136 110.735 15.3086 110.76 15.3086 110.785C15.3086 110.81 15.3136 110.835 15.3232 110.858C15.3328 110.881 15.3469 110.902 15.3646 110.919C15.3823 110.937 15.4033 110.95 15.4262 110.959C15.4492 110.968 15.4737 110.972 15.4982 110.971H16.9133C16.9378 110.972 16.9623 110.968 16.9852 110.959C17.0082 110.95 17.0291 110.937 17.0468 110.919C17.0646 110.902 17.0786 110.881 17.0883 110.858C17.0979 110.835 17.1029 110.81 17.1029 110.785C17.1029 110.76 17.0979 110.735 17.0883 110.712C17.0786 110.689 17.0646 110.668 17.0468 110.651C17.0291 110.633 17.0082 110.62 16.9852 110.611C16.9623 110.602 16.9378 110.598 16.9133 110.599Z" fill="#1C2844"/>
<path d="M23.8673 105.233H15.4982C15.4737 105.232 15.4492 105.236 15.4262 105.245C15.4033 105.253 15.3823 105.267 15.3646 105.284C15.3469 105.302 15.3328 105.323 15.3232 105.346C15.3136 105.369 15.3086 105.394 15.3086 105.419C15.3086 105.444 15.3136 105.469 15.3232 105.492C15.3328 105.515 15.3469 105.536 15.3646 105.553C15.3823 105.571 15.4033 105.584 15.4262 105.593C15.4492 105.602 15.4737 105.606 15.4982 105.605H23.8673C23.8918 105.606 23.9163 105.602 23.9392 105.593C23.9622 105.584 23.9831 105.571 24.0009 105.553C24.0186 105.536 24.0327 105.515 24.0423 105.492C24.0519 105.469 24.0569 105.444 24.0569 105.419C24.0569 105.394 24.0519 105.369 24.0423 105.346C24.0327 105.323 24.0186 105.302 24.0009 105.284C23.9831 105.267 23.9622 105.253 23.9392 105.245C23.9163 105.236 23.8918 105.232 23.8673 105.233Z" fill="#1C2844"/>
<path d="M30.1968 106.843H24.5065C24.482 106.842 24.4575 106.846 24.4345 106.854C24.4116 106.863 24.3906 106.877 24.3729 106.894C24.3552 106.912 24.3411 106.932 24.3315 106.956C24.3219 106.979 24.3169 107.004 24.3169 107.029C24.3169 107.054 24.3219 107.079 24.3315 107.102C24.3411 107.125 24.3552 107.146 24.3729 107.163C24.3906 107.18 24.4116 107.194 24.4345 107.203C24.4575 107.212 24.482 107.216 24.5065 107.215H30.1968C30.2438 107.213 30.2881 107.192 30.3206 107.158C30.3531 107.123 30.3713 107.077 30.3713 107.029C30.3713 106.981 30.3531 106.934 30.3206 106.9C30.2881 106.865 30.2438 106.845 30.1968 106.843Z" fill="#1C2844"/>
<path d="M15.4982 107.215H21.2292C21.2537 107.216 21.2781 107.212 21.3011 107.203C21.324 107.194 21.345 107.18 21.3627 107.163C21.3804 107.146 21.3945 107.125 21.4041 107.102C21.4138 107.079 21.4187 107.054 21.4187 107.029C21.4187 107.004 21.4138 106.979 21.4041 106.956C21.3945 106.932 21.3804 106.912 21.3627 106.894C21.345 106.877 21.324 106.863 21.3011 106.854C21.2781 106.846 21.2537 106.842 21.2292 106.843H15.4982C15.4737 106.842 15.4492 106.846 15.4262 106.854C15.4033 106.863 15.3823 106.877 15.3646 106.894C15.3469 106.912 15.3328 106.932 15.3232 106.956C15.3136 106.979 15.3086 107.004 15.3086 107.029C15.3086 107.054 15.3136 107.079 15.3232 107.102C15.3328 107.125 15.3469 107.146 15.3646 107.163C15.3823 107.18 15.4033 107.194 15.4262 107.203C15.4492 107.212 15.4737 107.216 15.4982 107.215Z" fill="#1C2844"/>
<path d="M13.197 103.135H11.6188C11.5719 103.137 11.5275 103.158 11.495 103.192C11.4625 103.227 11.4443 103.273 11.4443 103.321C11.4443 103.369 11.4625 103.415 11.495 103.45C11.5275 103.485 11.5719 103.505 11.6188 103.507H13.197C13.2215 103.508 13.246 103.504 13.2689 103.495C13.2919 103.487 13.3129 103.473 13.3306 103.456C13.3483 103.438 13.3624 103.417 13.372 103.394C13.3816 103.371 13.3866 103.346 13.3866 103.321C13.3866 103.296 13.3816 103.271 13.372 103.248C13.3624 103.225 13.3483 103.204 13.3306 103.187C13.3129 103.169 13.2919 103.156 13.2689 103.147C13.246 103.138 13.2215 103.134 13.197 103.135Z" fill="#1C2844"/>
<path d="M13.1967 108.954H11.8011C11.7529 108.954 11.7066 108.974 11.6724 109.009C11.6383 109.044 11.6191 109.091 11.6191 109.141C11.6191 109.19 11.6383 109.237 11.6724 109.272C11.7066 109.307 11.7529 109.327 11.8011 109.327H13.1977C13.246 109.327 13.2922 109.307 13.3264 109.272C13.3605 109.237 13.3797 109.19 13.3797 109.141C13.3797 109.091 13.3605 109.044 13.3264 109.009C13.2922 108.974 13.246 108.954 13.1977 108.954H13.1967Z" fill="#1C2844"/>
<path d="M13.197 110.599H11.6188C11.5719 110.601 11.5275 110.621 11.495 110.656C11.4625 110.691 11.4443 110.737 11.4443 110.785C11.4443 110.833 11.4625 110.879 11.495 110.914C11.5275 110.949 11.5719 110.969 11.6188 110.971H13.197C13.2215 110.972 13.246 110.968 13.2689 110.959C13.2919 110.95 13.3129 110.937 13.3306 110.919C13.3483 110.902 13.3624 110.881 13.372 110.858C13.3816 110.835 13.3866 110.81 13.3866 110.785C13.3866 110.76 13.3816 110.735 13.372 110.712C13.3624 110.689 13.3483 110.668 13.3306 110.651C13.3129 110.633 13.2919 110.62 13.2689 110.611C13.246 110.602 13.2215 110.598 13.197 110.599Z" fill="#1C2844"/>
<path d="M13.1967 105.233H12.298C12.2511 105.235 12.2067 105.255 12.1742 105.29C12.1417 105.325 12.1235 105.371 12.1235 105.419C12.1235 105.467 12.1417 105.513 12.1742 105.548C12.2067 105.582 12.2511 105.603 12.298 105.605H13.1967C13.2212 105.606 13.2457 105.602 13.2686 105.593C13.2916 105.584 13.3125 105.571 13.3302 105.553C13.3479 105.536 13.362 105.515 13.3717 105.492C13.3813 105.469 13.3862 105.444 13.3862 105.419C13.3862 105.394 13.3813 105.369 13.3717 105.346C13.362 105.323 13.3479 105.302 13.3302 105.284C13.3125 105.267 13.2916 105.253 13.2686 105.245C13.2457 105.236 13.2212 105.232 13.1967 105.233Z" fill="#1C2844"/>
<path d="M13.197 106.843H11.6188C11.5719 106.845 11.5275 106.865 11.495 106.9C11.4625 106.934 11.4443 106.981 11.4443 107.029C11.4443 107.077 11.4625 107.123 11.495 107.158C11.5275 107.192 11.5719 107.213 11.6188 107.215H13.197C13.2215 107.216 13.246 107.212 13.2689 107.203C13.2919 107.194 13.3129 107.18 13.3306 107.163C13.3483 107.146 13.3624 107.125 13.372 107.102C13.3816 107.079 13.3866 107.054 13.3866 107.029C13.3866 107.004 13.3816 106.979 13.372 106.956C13.3624 106.932 13.3483 106.912 13.3306 106.894C13.3129 106.877 13.2919 106.863 13.2689 106.854C13.246 106.846 13.2215 106.842 13.197 106.843Z" fill="#1C2844"/>
<path d="M11.2188 72.5064C11.1737 72.489 11.1236 72.4906 11.0796 72.5109C11.0356 72.5312 11.0013 72.5685 10.9842 72.6147L7.92977 80.8634C7.91269 80.9095 7.9142 80.9607 7.93398 81.0057C7.95376 81.0507 7.99018 81.0859 8.03526 81.1034C8.05592 81.1113 8.07778 81.1153 8.09981 81.1153C8.13673 81.1153 8.17278 81.1039 8.20316 81.0824C8.23354 81.0609 8.2568 81.0305 8.26985 80.9951L11.3243 72.7465C11.3414 72.7003 11.3399 72.6491 11.3201 72.6041C11.3003 72.5591 11.2639 72.524 11.2188 72.5064Z" fill="#1C2844"/>
<path d="M7.25542 77.0568L5.17715 75.7331L6.93108 73.989C6.96405 73.9542 6.98247 73.9076 6.98242 73.8592C6.98237 73.8107 6.96387 73.7642 6.93083 73.7294C6.8978 73.6947 6.85283 73.6745 6.80549 73.6732C6.75815 73.6718 6.71216 73.6894 6.67728 73.7222L4.75646 75.6319C4.73699 75.6517 4.72214 75.6757 4.71302 75.7022C4.70389 75.7286 4.70072 75.7568 4.70375 75.7847C4.70678 75.8126 4.71592 75.8394 4.7305 75.8632C4.74508 75.887 4.76472 75.907 4.78795 75.9219L7.06271 77.3719C7.10363 77.3967 7.15243 77.4041 7.19865 77.3926C7.24487 77.3811 7.28483 77.3515 7.30998 77.3101C7.33513 77.2688 7.34347 77.2191 7.33321 77.1715C7.32296 77.124 7.29492 77.0825 7.2551 77.0558L7.25542 77.0568Z" fill="#1C2844"/>
<path d="M14.4428 77.4664L12.1686 76.02C12.1483 76.0063 12.1255 75.9969 12.1016 75.9923C12.0776 75.9877 12.0531 75.9881 12.0293 75.9935C12.0055 75.9988 11.983 76.0089 11.9631 76.0233C11.9432 76.0377 11.9264 76.0561 11.9136 76.0772C11.9007 76.0984 11.8922 76.122 11.8884 76.1466C11.8847 76.1712 11.8858 76.1963 11.8917 76.2205C11.8976 76.2447 11.9081 76.2674 11.9228 76.2873C11.9374 76.3072 11.9558 76.3239 11.9769 76.3364L14.0535 77.6575L12.2999 79.4046C12.267 79.4394 12.2485 79.4859 12.2486 79.5344C12.2486 79.5828 12.2671 79.6294 12.3002 79.6641C12.3332 79.6988 12.3782 79.719 12.4255 79.7204C12.4729 79.7217 12.5189 79.7041 12.5537 79.6714L14.4746 77.7584C14.494 77.7386 14.5089 77.7146 14.518 77.6882C14.5271 77.6617 14.5303 77.6335 14.5273 77.6056C14.5242 77.5777 14.5151 77.5509 14.5005 77.5271C14.4859 77.5034 14.4663 77.4833 14.4431 77.4684L14.4428 77.4664Z" fill="#1C2844"/>
<path d="M68.6984 7.41619H69.1113V9.63946C69.1113 9.74962 69.1541 9.85524 69.2302 9.93316C69.3063 10.0111 69.4095 10.0549 69.5171 10.0551H70.2272C70.2741 10.0531 70.3185 10.0326 70.351 9.99796C70.3835 9.96328 70.4017 9.91709 70.4017 9.86904C70.4017 9.82098 70.3835 9.77479 70.351 9.74011C70.3185 9.70544 70.2741 9.68496 70.2272 9.68296H69.5175C69.5062 9.68287 69.4954 9.67826 69.4875 9.67012C69.4795 9.66198 69.475 9.65097 69.4749 9.63946V4.81947C69.475 4.80795 69.4795 4.79694 69.4875 4.7888C69.4954 4.78066 69.5062 4.77605 69.5175 4.77597H70.2275C70.2745 4.77397 70.3188 4.75349 70.3513 4.71881C70.3838 4.68413 70.402 4.63794 70.402 4.58989C70.402 4.54183 70.3838 4.49564 70.3513 4.46096C70.3188 4.42629 70.2745 4.40581 70.2275 4.40381H69.5175C69.4097 4.40389 69.3065 4.44771 69.2303 4.52565C69.1542 4.60358 69.1113 4.70925 69.1113 4.81947V7.04274H68.6981C68.6498 7.04274 68.6036 7.06236 68.5694 7.09729C68.5353 7.13221 68.5161 7.17959 68.5161 7.22898C68.5161 7.27837 68.5353 7.32574 68.5694 7.36067C68.6036 7.3956 68.6498 7.41522 68.6981 7.41522L68.6984 7.41619Z" fill="#1C2844"/>
<path d="M74.1314 9.64107C74.1314 9.65258 74.1268 9.6636 74.1189 9.67173C74.1109 9.67987 74.1002 9.68448 74.0889 9.68457H73.3785C73.3316 9.68657 73.2873 9.70705 73.2548 9.74172C73.2222 9.7764 73.2041 9.8226 73.2041 9.87065C73.2041 9.9187 73.2222 9.96489 73.2548 9.99957C73.2873 10.0342 73.3316 10.0547 73.3785 10.0567H74.0889C74.1966 10.0566 74.2998 10.0127 74.3759 9.93478C74.452 9.85685 74.4947 9.75123 74.4948 9.64107V7.4178H74.908C74.9562 7.4178 75.0025 7.39817 75.0366 7.36325C75.0708 7.32832 75.09 7.28095 75.09 7.23156C75.09 7.18216 75.0708 7.13479 75.0366 7.09987C75.0025 7.06494 74.9562 7.04532 74.908 7.04532H74.4954V4.81947C74.4954 4.70931 74.4526 4.60368 74.3765 4.52576C74.3004 4.44784 74.1972 4.40398 74.0896 4.40381H73.3792C73.3322 4.40581 73.2879 4.42629 73.2554 4.46096C73.2229 4.49564 73.2047 4.54183 73.2047 4.58989C73.2047 4.63794 73.2229 4.68413 73.2554 4.71881C73.2879 4.75349 73.3322 4.77397 73.3792 4.77597H74.0896C74.1008 4.77605 74.1116 4.78066 74.1195 4.7888C74.1275 4.79694 74.132 4.80795 74.1321 4.81947L74.1314 9.64107Z" fill="#1C2844"/>
<path d="M37.0676 53.6989C37.0977 53.6987 37.1275 53.6933 37.1558 53.6828C37.2047 53.6635 37.2465 53.6291 37.2754 53.5843C37.3043 53.5396 37.3189 53.4867 37.317 53.4331L37.1765 48.5303H42.5863C42.6807 48.5294 42.7734 48.5045 42.8561 48.4578C42.9387 48.4112 43.0087 48.3442 43.0597 48.2629C43.1107 48.1816 43.1412 48.0887 43.1483 47.9923C43.1554 47.896 43.139 47.7994 43.1006 47.7112L38.5951 37.5615C38.5596 37.4809 38.5064 37.4098 38.4397 37.3536C38.3731 37.2974 38.2947 37.2577 38.2106 37.2373L24.5857 33.9868C24.503 33.9669 24.417 33.9663 24.334 33.985C24.251 34.0037 24.1732 34.0413 24.1064 34.0949C24.0395 34.1485 23.9853 34.2168 23.9477 34.2947C23.9101 34.3727 23.8901 34.4583 23.8892 34.5452C23.8892 34.5984 24.318 38.6747 25.2923 48.0093C25.3065 48.1517 25.3717 48.2836 25.4753 48.3798C25.5789 48.476 25.7136 48.5296 25.8534 48.5303H32.9366L36.8755 53.5977C36.8978 53.6285 36.9267 53.6537 36.96 53.6712C36.9933 53.6888 37.0301 53.6982 37.0676 53.6989ZM33.0247 48.1568H25.8531C25.8036 48.1559 25.7562 48.1364 25.7198 48.1021C25.6834 48.0678 25.6606 48.021 25.6557 47.9706L24.2579 34.5707C24.2536 34.5379 24.2573 34.5046 24.2685 34.4736C24.2797 34.4426 24.2982 34.4149 24.3223 34.3929C24.3464 34.3708 24.3754 34.3552 24.4068 34.3473C24.4381 34.3393 24.4709 34.3394 24.5022 34.3474L38.1275 37.5963C38.158 37.6037 38.1865 37.6181 38.2108 37.6384C38.2351 37.6586 38.2546 37.6842 38.268 37.7132L42.768 47.863C42.7814 47.8943 42.787 47.9286 42.7844 47.9627C42.7818 47.9968 42.7711 48.0298 42.7532 48.0587C42.7352 48.0875 42.7106 48.1115 42.6816 48.1284C42.6525 48.1453 42.6198 48.1546 42.5863 48.1555H36.9895C36.9655 48.1551 36.9417 48.1595 36.9194 48.1687C36.8971 48.1778 36.8768 48.1914 36.8598 48.2087C36.8266 48.2468 36.808 48.2959 36.8075 48.3469L36.9429 53.0899L33.1699 48.2245C33.1526 48.2024 33.1304 48.1847 33.1052 48.173C33.08 48.1612 33.0524 48.1557 33.0247 48.1568Z" fill="#1C2844"/>
<path d="M35.4334 39.0742H34.6102C34.562 39.0742 34.5157 39.0938 34.4815 39.1288C34.4474 39.1637 34.4282 39.2111 34.4282 39.2605C34.4282 39.3099 34.4474 39.3572 34.4815 39.3921C34.5157 39.4271 34.562 39.4467 34.6102 39.4467H35.4334C35.4541 39.4467 35.4739 39.4551 35.4886 39.4701C35.5032 39.4851 35.5114 39.5054 35.5114 39.5266V45.1138C35.5114 45.135 35.5032 45.1554 35.4886 45.1704C35.474 45.1854 35.4541 45.1939 35.4334 45.194H34.6102C34.5633 45.196 34.519 45.2165 34.4865 45.2512C34.4539 45.2859 34.4358 45.332 34.4358 45.3801C34.4358 45.4282 34.4539 45.4743 34.4865 45.509C34.519 45.5437 34.5633 45.5642 34.6102 45.5662H35.4334C35.5503 45.5662 35.6624 45.5187 35.7451 45.4341C35.8278 45.3495 35.8742 45.2347 35.8742 45.1151V39.5279C35.8745 39.4684 35.8634 39.4095 35.8414 39.3545C35.8194 39.2994 35.7869 39.2494 35.746 39.2073C35.705 39.1651 35.6563 39.1316 35.6026 39.1088C35.549 39.086 35.4915 39.0742 35.4334 39.0742Z" fill="#1C2844"/>
<path d="M30.1362 39.4467H30.9593C31.0075 39.4467 31.0538 39.4271 31.088 39.3921C31.1221 39.3572 31.1413 39.3099 31.1413 39.2605C31.1413 39.2111 31.1221 39.1637 31.088 39.1288C31.0538 39.0938 31.0075 39.0742 30.9593 39.0742H30.1362C30.0194 39.0747 29.9075 39.1224 29.825 39.2069C29.7424 39.2914 29.6958 39.4058 29.6953 39.5253V45.1125C29.6958 45.232 29.7424 45.3464 29.825 45.4309C29.9075 45.5154 30.0194 45.5631 30.1362 45.5636H30.9593C31.0062 45.5616 31.0505 45.5411 31.0831 45.5064C31.1156 45.4718 31.1337 45.4256 31.1337 45.3775C31.1337 45.3295 31.1156 45.2833 31.0831 45.2486C31.0505 45.2139 31.0062 45.1934 30.9593 45.1914H30.1362C30.1154 45.1914 30.0954 45.1829 30.0807 45.1679C30.066 45.1529 30.0576 45.1325 30.0574 45.1112V39.524C30.0582 39.5032 30.0669 39.4836 30.0816 39.4691C30.0963 39.4547 30.1158 39.4467 30.1362 39.4467Z" fill="#1C2844"/>
<path d="M105.303 98.1475C108.822 98.1475 111.69 95.2177 111.69 91.6124C111.69 88.0072 108.822 85.0773 105.303 85.0773C101.775 85.0773 98.9111 88.0072 98.9111 91.6124C98.9111 95.2177 101.775 98.1475 105.303 98.1475ZM105.303 85.4494C108.624 85.4494 111.326 88.2147 111.326 91.6124C111.326 95.0101 108.624 97.7754 105.303 97.7754C101.978 97.7754 99.2755 95.0105 99.2755 91.6124C99.2755 88.2143 101.978 85.4494 105.303 85.4494Z" fill="#1C2844"/>
<path d="M98.4858 101.992C98.4858 101.791 98.4075 101.597 98.2681 101.455C98.1288 101.312 97.9397 101.232 97.7426 101.232C97.5455 101.232 97.3565 101.312 97.2172 101.455C97.0778 101.597 96.9995 101.791 96.9995 101.992V102.579H92.7318C92.6835 102.579 92.6372 102.599 92.6031 102.634C92.569 102.669 92.5498 102.716 92.5498 102.765C92.5498 102.815 92.569 102.862 92.6031 102.897C92.6372 102.932 92.6835 102.952 92.7318 102.952H96.9995V103.536C96.9995 103.738 97.0778 103.931 97.2172 104.074C97.3565 104.217 97.5455 104.297 97.7426 104.297C97.9397 104.297 98.1288 104.217 98.2681 104.074C98.4075 103.931 98.4858 103.738 98.4858 103.536V102.952H118.554C118.602 102.952 118.649 102.932 118.683 102.897C118.717 102.862 118.736 102.815 118.736 102.765C118.736 102.716 118.717 102.669 118.683 102.634C118.649 102.599 118.602 102.579 118.554 102.579H98.4858V101.992Z" fill="#1C2844"/>
<path d="M88.4614 14.7061C88.1562 14.7061 87.8579 14.7987 87.6042 14.9721C87.3505 15.1456 87.1527 15.3922 87.0359 15.6807C86.9191 15.9692 86.8886 16.2867 86.9481 16.5929C87.0076 16.8992 87.1546 17.1805 87.3704 17.4013C87.5862 17.6221 87.8611 17.7725 88.1604 17.8334C88.4597 17.8943 88.7699 17.8631 89.0519 17.7436C89.3338 17.6241 89.5748 17.4217 89.7443 17.1621C89.9139 16.9024 90.0044 16.5972 90.0044 16.2849C90.0044 15.8662 89.8418 15.4646 89.5525 15.1685C89.2631 14.8724 88.8706 14.7061 88.4614 14.7061ZM88.4614 17.4922C88.2281 17.4922 88.0001 17.4214 87.8061 17.2888C87.6121 17.1562 87.4609 16.9677 87.3716 16.7471C87.2823 16.5266 87.259 16.2839 87.3045 16.0497C87.35 15.8156 87.4624 15.6005 87.6273 15.4317C87.7923 15.2629 88.0025 15.148 88.2313 15.1014C88.4601 15.0548 88.6973 15.0787 88.9128 15.1701C89.1284 15.2614 89.3126 15.4162 89.4422 15.6146C89.5718 15.8131 89.641 16.0465 89.641 16.2852C89.6403 16.6051 89.5158 16.9117 89.2948 17.138C89.0737 17.3642 88.7741 17.4916 88.4614 17.4922Z" fill="#1C2844"/>
<path d="M92.6501 14.7061C92.3447 14.705 92.0459 14.7968 91.7915 14.9696C91.5371 15.1425 91.3385 15.3887 91.221 15.6771C91.1034 15.9655 91.0721 16.2832 91.1311 16.5898C91.1901 16.8964 91.3366 17.1782 91.5522 17.3995C91.7678 17.6208 92.0427 17.7717 92.3421 17.833C92.6416 17.8944 92.9521 17.8634 93.2343 17.7441C93.5165 17.6247 93.7578 17.4224 93.9276 17.1626C94.0973 16.9029 94.188 16.5974 94.188 16.2849C94.188 15.8671 94.0261 15.4663 93.7378 15.1703C93.4496 14.8744 93.0584 14.7074 92.6501 14.7061ZM92.6501 17.4922C92.4165 17.4933 92.1879 17.4235 91.9933 17.2915C91.7986 17.1595 91.6466 16.9714 91.5565 16.7509C91.4664 16.5305 91.4422 16.2876 91.4871 16.0531C91.532 15.8186 91.644 15.6031 91.8087 15.4337C91.9735 15.2643 92.1836 15.1488 92.4126 15.1018C92.6416 15.0548 92.879 15.0784 93.0949 15.1696C93.3107 15.2608 93.4952 15.4155 93.6251 15.6141C93.755 15.8127 93.8243 16.0463 93.8243 16.2852C93.8234 16.6041 93.6995 16.9098 93.4797 17.1358C93.2598 17.3618 92.9617 17.4899 92.6501 17.4922Z" fill="#1C2844"/>
<path d="M96.833 14.7061C96.5278 14.7061 96.2295 14.7987 95.9758 14.9721C95.722 15.1456 95.5243 15.3922 95.4075 15.6807C95.2907 15.9692 95.2602 16.2867 95.3197 16.5929C95.3792 16.8992 95.5262 17.1805 95.742 17.4013C95.9577 17.6221 96.2327 17.7725 96.532 17.8334C96.8313 17.8943 97.1415 17.8631 97.4235 17.7436C97.7054 17.6241 97.9464 17.4217 98.1159 17.1621C98.2855 16.9024 98.376 16.5972 98.376 16.2849C98.376 15.8662 98.2134 15.4646 97.924 15.1685C97.6347 14.8724 97.2422 14.7061 96.833 14.7061ZM96.833 17.4922C96.5997 17.4922 96.3717 17.4213 96.1777 17.2887C95.9838 17.156 95.8327 16.9675 95.7434 16.7469C95.6542 16.5263 95.6309 16.2837 95.6764 16.0495C95.722 15.8154 95.8344 15.6004 95.9993 15.4316C96.1643 15.2629 96.3745 15.1479 96.6033 15.1014C96.8321 15.0548 97.0693 15.0788 97.2848 15.1701C97.5003 15.2615 97.6845 15.4162 97.8141 15.6147C97.9437 15.8132 98.0129 16.0465 98.0129 16.2852C98.0122 16.6052 97.8877 16.9118 97.6666 17.1381C97.4454 17.3643 97.1457 17.4916 96.833 17.4922Z" fill="#1C2844"/>
<path d="M90.0365 23.4646H87.8965V24.5012H90.0365V23.4646Z" fill="#1C2844"/>
<path d="M90.0365 27.0496H87.8965V28.0861H90.0365V27.0496Z" fill="#1C2844"/>
<path d="M90.0365 30.6343H87.8965V31.6712H90.0365V30.6343Z" fill="#1C2844"/>
<path d="M90.0365 34.2192H87.8965V35.2561H90.0365V34.2192Z" fill="#1C2844"/>
<path d="M90.0365 37.8047H87.8965V38.8412H90.0365V37.8047Z" fill="#1C2844"/>
<path d="M90.0365 41.3894H87.8965V42.426H90.0365V41.3894Z" fill="#1C2844"/>
<path d="M90.0365 44.9741H87.8965V46.0107H90.0365V44.9741Z" fill="#1C2844"/>
<path d="M103.394 41.3894H93.3091V42.426H103.394V41.3894Z" fill="#1C2844"/>
<path d="M115.388 41.3894H104.994V42.426H115.388V41.3894Z" fill="#1C2844"/>
<path d="M125.234 44.9741H112.716V46.0107H125.234V44.9741Z" fill="#1C2844"/>
<path d="M116.893 37.8047H98.0854V38.8412H116.893V37.8047Z" fill="#1C2844"/>
<path d="M130.396 37.8047H118.321V38.8412H130.396V37.8047Z" fill="#1C2844"/>
<path d="M105.754 34.2192H99.8418V35.2561H105.754V34.2192Z" fill="#1C2844"/>
<path d="M120.989 34.2192H109.787V35.2561H120.989V34.2192Z" fill="#1C2844"/>
<path d="M100.441 30.6343H93.3091V31.6712H100.441V30.6343Z" fill="#1C2844"/>
<path d="M113.719 30.6343H103.096V31.6712H113.719V30.6343Z" fill="#1C2844"/>
<path d="M120.788 30.6343H116.394V31.6712H120.788V30.6343Z" fill="#1C2844"/>
<path d="M103.768 27.0496H93.3091V28.0861H103.768V27.0496Z" fill="#1C2844"/>
<path d="M124.219 27.0496H106.513V28.0861H124.219V27.0496Z" fill="#1C2844"/>
<path d="M105.248 23.4646H94.7896V24.5012H105.248V23.4646Z" fill="#1C2844"/>
<path d="M113.516 23.4646H107.416V24.5012H113.516V23.4646Z" fill="#1C2844"/>
<path d="M122.527 23.4646H116.427V24.5012H122.527V23.4646Z" fill="#1C2844"/>
</svg>
