<svg width="61" height="60" viewBox="0 0 61 60" fill="none" xmlns="http://www.w3.org/2000/svg">
<path d="M25.0152 40.0006H35.0152C36.6721 40.0006 38.0152 38.6575 38.0152 37.0006V28.0005C38.0152 26.3437 36.6721 25.0005 35.0152 25.0005V23.0005C35.0152 20.2391 32.7766 18.0005 30.0152 18.0005C27.2537 18.0005 25.0152 20.2391 25.0152 23.0005V25.0005C23.3583 25.0005 22.0151 26.3437 22.0151 28.0005V37.0006C22.0151 38.6575 23.3583 40.0006 25.0152 40.0006ZM27.0152 23.0005C27.0152 21.3437 28.3583 20.0005 30.0152 20.0005C31.672 20.0005 33.0152 21.3437 33.0152 23.0005V25.0005H27.0152V23.0005ZM24.0151 28.0005C24.0151 27.4483 24.4629 27.0005 25.0152 27.0005H35.0152C35.5675 27.0005 36.0152 27.4483 36.0152 28.0005V37.0006C36.0152 37.5529 35.5675 38.0006 35.0152 38.0006H25.0152C24.4629 38.0006 24.0151 37.5529 24.0151 37.0006V28.0005Z" fill="white"/>
<path d="M29.0152 34.8167V35.0007C29.0152 35.553 29.4629 36.0007 30.0152 36.0007C30.5675 36.0007 31.0152 35.553 31.0152 35.0007V34.8167C32.3928 34.3297 33.2191 32.9211 32.972 31.481C32.7249 30.0409 31.4763 28.9883 30.0152 28.9883C28.5541 28.9883 27.3055 30.0409 27.0584 31.481C26.8113 32.9211 27.6376 34.3297 29.0152 34.8167ZM30.0152 31.0007C30.5675 31.0007 31.0152 31.4484 31.0152 32.0007C31.0152 32.553 30.5675 33.0007 30.0152 33.0007C29.4629 33.0007 29.0152 32.553 29.0152 32.0007C29.0152 31.4484 29.4629 31.0007 30.0152 31.0007Z" fill="white"/>
<path d="M13.0151 30.0006C13.0151 39.3895 20.6263 47.0007 30.0152 47.0007C39.4041 47.0007 47.0153 39.3895 47.0153 30.0006C47.0153 20.6117 39.4041 13.0005 30.0152 13.0005C20.6307 13.011 13.0256 20.616 13.0151 30.0006ZM30.0152 15.0005C38.2996 15.0005 45.0153 21.7163 45.0153 30.0006C45.0153 38.2849 38.2996 45.0007 30.0152 45.0007C21.7309 45.0007 15.0151 38.2849 15.0151 30.0006C15.0245 21.7201 21.7348 15.0099 30.0152 15.0005Z" fill="white"/>
<path d="M50.0152 52.0005C48.1968 52.0073 46.6118 53.2398 46.1572 55.0005H39.0151V48.9555C41.251 47.903 43.2824 46.4624 45.0152 44.7005C45.2713 44.4466 45.3709 44.0744 45.2758 43.7265C45.1806 43.3786 44.9055 43.1089 44.5558 43.0206C44.2061 42.9324 43.836 43.0393 43.5872 43.3005C41.8893 45.0363 39.8737 46.4299 37.6501 47.4055C37.5158 47.4588 37.395 47.5411 37.2961 47.6465C37.2851 47.6585 37.2791 47.6745 37.2681 47.6885C37.195 47.7698 37.1359 47.8628 37.0931 47.9635C37.0735 48.0263 37.0605 48.091 37.0541 48.1565C37.0356 48.2131 37.0225 48.2714 37.0151 48.3305V48.3485V55.0005C37.0151 56.1051 37.9106 57.0005 39.0151 57.0005H46.1572C46.6804 59.0081 48.6539 60.2806 50.6985 59.9287C52.7431 59.5767 54.1776 57.7177 53.9994 55.6507C53.8213 53.5837 52.0899 51.9974 50.0152 52.0005ZM50.0152 58.0005C48.9106 58.0005 48.0152 57.1051 48.0152 56.0005C48.0152 54.896 48.9106 54.0005 50.0152 54.0005C51.1198 54.0005 52.0152 54.896 52.0152 56.0005C52.0152 57.1051 51.1198 58.0005 50.0152 58.0005Z" fill="white"/>
<path d="M7.87303 41.0005H12.7051C12.7131 41.0005 12.7201 40.9955 12.7291 40.9955C12.8285 40.991 12.9267 40.9711 13.0201 40.9365C13.0667 40.9212 13.1122 40.9024 13.1561 40.8805C13.1671 40.8745 13.1801 40.8725 13.1911 40.8655C13.2021 40.8585 13.2191 40.8375 13.2351 40.8265C13.3258 40.7705 13.4063 40.6995 13.4731 40.6165C13.4849 40.601 13.4959 40.585 13.5061 40.5685C13.5708 40.4774 13.6195 40.3759 13.6501 40.2685C13.6501 40.2535 13.6561 40.2385 13.6591 40.2235C13.6833 40.1512 13.6987 40.0764 13.7051 40.0005C13.6999 39.9627 13.6922 39.9252 13.6821 39.8885C13.6821 39.8755 13.6821 39.8635 13.6751 39.8495C13.6581 39.7322 13.6198 39.619 13.5621 39.5155L13.5571 39.4995C12.5317 37.7294 11.8014 35.8042 11.395 33.7994C11.2846 33.2582 10.7563 32.909 10.215 33.0194C9.6738 33.1299 9.32458 33.6582 9.43504 34.1994C9.77149 35.8585 10.3088 37.4703 11.035 38.9995H7.87303C7.36946 37.0491 5.49423 35.7775 3.496 36.0313C1.49778 36.2851 0 37.9852 0 39.9995C0 42.0137 1.49778 43.7138 3.496 43.9676C5.49423 44.2214 7.36946 42.9508 7.87303 41.0005ZM4.01501 42.0005C2.91043 42.0005 2.01499 41.105 2.01499 40.0005C2.01499 38.8959 2.91043 38.0004 4.01501 38.0004C5.11958 38.0004 6.01502 38.8959 6.01502 40.0005C6.01502 41.105 5.11958 42.0005 4.01501 42.0005Z" fill="white"/>
<path d="M0.0148957 20.0005C0.012394 22.0123 1.50728 23.7116 3.50296 23.9656C5.49865 24.2196 7.37149 22.9488 7.87294 21.0005H12.705H12.732C12.8306 20.9949 12.928 20.975 13.021 20.9415C13.0649 20.9275 13.1077 20.9101 13.149 20.8895C13.2023 20.8615 13.2525 20.8279 13.299 20.7895C13.3833 20.7259 13.4563 20.6485 13.515 20.5605C13.528 20.5415 13.545 20.5275 13.557 20.5075C14.8392 18.2824 16.56 16.3408 18.615 14.8005C18.9008 14.5861 19.0506 14.2356 19.0078 13.8809C18.9651 13.5262 18.7364 13.2212 18.4078 13.0809C18.0793 12.9405 17.7008 12.9861 17.415 13.2005C15.3105 14.7858 13.5236 16.7534 12.148 19.0005H7.87294C7.37149 17.0522 5.49865 15.7815 3.50296 16.0355C1.50728 16.2894 0.012394 17.9888 0.0148957 20.0005ZM6.01493 20.0005C6.01493 21.1051 5.1195 22.0005 4.01492 22.0005C2.91035 22.0005 2.01491 21.1051 2.01491 20.0005C2.01491 18.896 2.91035 18.0005 4.01492 18.0005C4.54536 18.0005 5.05407 18.2112 5.42914 18.5863C5.80422 18.9614 6.01493 19.4701 6.01493 20.0005Z" fill="white"/>
<path d="M56.0155 36.0004C54.1971 36.0072 52.6121 37.2397 52.1575 39.0004H48.9945C49.7214 37.4716 50.2587 35.8596 50.5945 34.2004C50.7049 33.6589 50.3555 33.1304 49.814 33.0199C49.2724 32.9094 48.7439 33.2589 48.6335 33.8004C48.2278 35.8051 47.4982 37.7303 46.4734 39.5004V39.5134C46.4137 39.6192 46.3743 39.7352 46.3574 39.8554C46.3574 39.8664 46.3574 39.8764 46.3504 39.8874C46.3401 39.9246 46.3318 39.9624 46.3254 40.0004C46.3315 40.079 46.3469 40.1566 46.3714 40.2314C46.3714 40.2444 46.3714 40.2574 46.3794 40.2704C46.4105 40.3783 46.4602 40.4798 46.5264 40.5704C46.5364 40.5854 46.5444 40.6004 46.5554 40.6144C46.6232 40.6979 46.7043 40.7695 46.7954 40.8264C46.8114 40.8374 46.8214 40.8544 46.8384 40.8644C46.8554 40.8744 46.8624 40.8734 46.8734 40.8794C46.9178 40.9021 46.964 40.9212 47.0114 40.9364C47.1044 40.9699 47.2018 40.9895 47.3004 40.9944C47.3094 40.9944 47.3164 40.9994 47.3254 40.9994H52.1575C52.6802 43.0073 54.6536 44.2803 56.6985 43.9287C58.7433 43.577 60.178 41.7179 60 39.6507C59.8219 37.5836 58.0903 35.9972 56.0155 36.0004ZM56.0155 42.0004C54.9109 42.0004 54.0155 41.105 54.0155 40.0004C54.0155 38.8959 54.9109 38.0004 56.0155 38.0004C57.1201 38.0004 58.0155 38.8959 58.0155 40.0004C58.0155 41.105 57.1201 42.0004 56.0155 42.0004Z" fill="white"/>
<path d="M23.0151 48.3475V48.3305C23.0087 48.2744 22.9977 48.2188 22.9821 48.1645C22.975 48.0967 22.9613 48.0297 22.9411 47.9645C22.899 47.8653 22.8409 47.7738 22.7691 47.6935C22.7561 47.6785 22.7501 47.6605 22.7371 47.6465C22.6379 47.5411 22.5167 47.4588 22.3821 47.4055C19.7645 46.2502 17.4388 44.5232 15.576 42.3515C15.3469 42.0694 14.9828 41.9338 14.625 41.9974C14.2672 42.0609 13.9721 42.3135 13.854 42.6572C13.736 43.0009 13.8137 43.3816 14.057 43.6515C15.9802 45.89 18.3503 47.7014 21.0151 48.9695V55.0005H13.873C13.3695 53.0502 11.4942 51.7786 9.496 52.0324C7.49778 52.2862 6 53.9863 6 56.0006C6 58.0148 7.49778 59.7149 9.496 59.9687C11.4942 60.2225 13.3695 58.9509 13.873 57.0006H21.0151C22.1196 57.0006 23.0151 56.1051 23.0151 55.0005V48.3475ZM10.015 58.0006C8.91043 58.0006 8.01499 57.1051 8.01499 56.0006C8.01499 54.896 8.91043 54.0005 10.015 54.0005C11.1196 54.0005 12.015 54.896 12.015 56.0006C12.015 57.1051 11.1196 58.0006 10.015 58.0006Z" fill="white"/>
<path d="M33.8151 48.6206C31.3068 49.1243 28.7234 49.1243 26.2151 48.6206C25.8613 48.5394 25.4912 48.6563 25.2483 48.9261C25.0054 49.1959 24.9278 49.5761 25.0455 49.9195C25.1632 50.2629 25.4578 50.5155 25.8151 50.5796C26.8707 50.7847 27.9405 50.9087 29.0151 50.9506V59.0006C29.0151 59.5529 29.4628 60.0006 30.0151 60.0006C30.5674 60.0006 31.0151 59.5529 31.0151 59.0006V50.9506C32.0897 50.9088 33.1595 50.7847 34.2151 50.5796C34.7443 50.4582 35.0799 49.9368 34.9713 49.4048C34.8627 48.8729 34.3495 48.5248 33.8151 48.6206Z" fill="white"/>
<path d="M21.0151 3.00031H13.873C13.3695 1.05 11.4942 -0.22163 9.496 0.0321774C7.49778 0.285985 6 1.98604 6 4.00032C6 6.0146 7.49778 7.71465 9.496 7.96846C11.4942 8.22227 13.3695 6.95064 13.873 5.00032H21.0151V11.6724C21.0151 11.7124 21.0341 11.7514 21.0391 11.7914C21.0495 11.8949 21.0762 11.9961 21.1181 12.0914C21.1596 12.1805 21.215 12.2625 21.2821 12.3344C21.3156 12.3707 21.352 12.4041 21.3911 12.4344C21.44 12.4745 21.4926 12.5099 21.5481 12.5404C21.5943 12.566 21.6425 12.588 21.6921 12.6064C21.7636 12.6291 21.8373 12.6438 21.9121 12.6504C21.945 12.6594 21.9783 12.6664 22.0121 12.6714C22.1554 12.6684 22.2963 12.6342 22.4251 12.5714C23.6433 12.0431 24.9136 11.6443 26.2151 11.3814C26.7566 11.2709 27.1061 10.7424 26.9956 10.2009C26.8851 9.65933 26.3566 9.30989 25.8151 9.42035C24.8647 9.61481 23.9291 9.87544 23.0151 10.2004V5.00032C23.0151 3.89575 22.1196 3.00031 21.0151 3.00031ZM10.015 6.00033C8.91043 6.00033 8.01499 5.10489 8.01499 4.00032C8.01499 2.89574 8.91043 2.00031 10.015 2.00031C11.1196 2.00031 12.015 2.89574 12.015 4.00032C12.015 4.53075 11.8043 5.03947 11.4292 5.41454C11.0542 5.78962 10.5454 6.00033 10.015 6.00033Z" fill="white"/>
<path d="M46.1572 5.00032C46.6608 6.95064 48.536 8.22227 50.5342 7.96846C52.5324 7.71465 54.0302 6.0146 54.0302 4.00032C54.0302 1.98604 52.5324 0.285985 50.5342 0.0321774C48.536 -0.22163 46.6608 1.05 46.1572 3.00031H39.0151C37.9106 3.00031 37.0151 3.89575 37.0151 5.00032V11.6514V11.6694C37.0212 11.7284 37.0329 11.7866 37.0501 11.8434C37.0565 11.9089 37.0695 11.9735 37.0891 12.0364C37.1319 12.1371 37.191 12.23 37.2641 12.3114C37.2751 12.3244 37.2811 12.3414 37.2921 12.3534C37.391 12.4588 37.5118 12.5411 37.6461 12.5944C39.8693 13.5684 41.8848 14.9603 43.5832 16.6944C43.8284 16.9669 44.2031 17.0834 44.5596 16.9979C44.9161 16.9124 45.1973 16.6387 45.2923 16.2847C45.3874 15.9306 45.281 15.5529 45.0152 15.3004C43.2824 13.5385 41.251 12.0978 39.0151 11.0454V5.00032H46.1572ZM50.0152 2.00031C51.1198 2.00031 52.0152 2.89574 52.0152 4.00032C52.0152 5.1049 51.1198 6.00033 50.0152 6.00033C48.9106 6.00033 48.0152 5.1049 48.0152 4.00032C48.0152 2.89574 48.9106 2.00031 50.0152 2.00031Z" fill="white"/>
<path d="M30.0151 0.000488281C29.4629 0.000488281 29.0151 0.448206 29.0151 1.00049V10.0005C29.0151 10.5528 29.4629 11.0006 30.0151 11.0006C31.2913 11.0003 32.5643 11.1276 33.8152 11.3806C33.881 11.3941 33.948 11.4008 34.0152 11.4006C34.5271 11.3986 34.9548 11.0104 35.0063 10.5011C35.0577 9.99181 34.7163 9.52588 34.2152 9.42154C33.1595 9.21636 32.0897 9.09233 31.0151 9.05054V1.00049C31.0151 0.448206 30.5674 0.000488281 30.0151 0.000488281Z" fill="white"/>
<path d="M52.1575 21.0003C52.661 22.9506 54.5363 24.2223 56.5345 23.9685C58.5327 23.7147 60.0305 22.0146 60.0305 20.0003C60.0305 17.986 58.5327 16.286 56.5345 16.0322C54.5363 15.7784 52.661 17.05 52.1575 19.0003H47.3254C47.3064 19.0003 47.2914 19.0103 47.2734 19.0103C47.2155 19.0166 47.1582 19.0283 47.1024 19.0453C47.0203 19.0615 46.9406 19.0884 46.8654 19.1253C46.8574 19.1253 46.8474 19.1253 46.8384 19.1353C46.8294 19.1453 46.8124 19.1623 46.7954 19.1733C46.7043 19.2302 46.6232 19.3019 46.5554 19.3853C46.5444 19.3993 46.5364 19.4143 46.5264 19.4293C46.4602 19.5199 46.4105 19.6215 46.3794 19.7293C46.3794 19.7423 46.3794 19.7553 46.3714 19.7683C46.3469 19.8435 46.3314 19.9214 46.3254 20.0003C46.3307 20.0387 46.3381 20.0767 46.3474 20.1143C46.3474 20.1253 46.3524 20.1353 46.3544 20.1463C46.3713 20.2666 46.4107 20.3826 46.4704 20.4883V20.5013C48.1382 23.3892 49.016 26.6655 49.0155 30.0004C49.0155 30.5527 49.4632 31.0004 50.0155 31.0004H59.0155C59.5678 31.0004 60.0155 30.5527 60.0155 30.0004C60.0155 29.4481 59.5678 29.0004 59.0155 29.0004H50.9825C50.8514 26.2277 50.1716 23.5085 48.9825 21.0003H52.1575ZM56.0155 18.0003C57.1201 18.0003 58.0155 18.8957 58.0155 20.0003C58.0155 21.1049 57.1201 22.0003 56.0155 22.0003C54.9109 22.0003 54.0155 21.1049 54.0155 20.0003C54.0155 18.8957 54.9109 18.0003 56.0155 18.0003Z" fill="white"/>
<path d="M1.0149 31.0004H10.0149C10.5672 31.0004 11.015 30.5527 11.015 30.0004C11.0128 27.9798 11.3332 25.9719 11.964 24.0524C12.0756 23.713 11.9977 23.3398 11.7596 23.0734C11.5215 22.807 11.1593 22.6879 10.8096 22.7609C10.4598 22.8339 10.1756 23.0879 10.0639 23.4274C9.47648 25.2307 9.13671 27.1055 9.05394 29.0004H1.0149C0.46261 29.0004 0.0148926 29.4481 0.0148926 30.0004C0.0148926 30.5527 0.46261 31.0004 1.0149 31.0004Z" fill="white"/>
</svg>
