<svg xmlns="http://www.w3.org/2000/svg" xmlns:xlink="http://www.w3.org/1999/xlink" viewBox="0,0,256,256" width="100px" height="100px" fill-rule="nonzero"><g fill="#ffffff" fill-rule="nonzero" stroke="none" stroke-width="1" stroke-linecap="butt" stroke-linejoin="miter" stroke-miterlimit="10" stroke-dasharray="" stroke-dashoffset="0" font-family="none" font-weight="none" font-size="none" text-anchor="none" style="mix-blend-mode: normal"><g transform="scale(5.12,5.12)"><path d="M23.375,5.052c-2.46,0.259 -4.823,1.956 -6.751,3.356c-0.747,0.542 -1.452,1.055 -2.109,1.449c-2.707,1.624 -6.84,1.643 -7.015,1.643c-0.551,0 -1,0.448 -1,1v8.875c0,0.011 0.018,0.767 0.247,2h16.628zM23.191,42.544c0.059,0.027 0.122,0.04 0.184,0.061v-17.23h-16.152c0.317,1.095 0.772,2.354 1.428,3.702c1.918,3.947 5.999,9.486 14.54,13.467zM39.35,29.077c0.655,-1.348 1.111,-2.607 1.428,-3.702h-15.403v16.89c8.148,-3.958 12.099,-9.331 13.975,-13.188zM41.5,12.5c0,-0.552 -0.449,-1 -1,-1c-0.175,0 -4.308,-0.019 -7.015,-1.643c-0.657,-0.395 -1.363,-0.907 -2.109,-1.449c-1.731,-1.257 -3.813,-2.752 -6.001,-3.235v18.202h15.878c0.229,-1.236 0.247,-1.995 0.247,-2.011z"></path></g></g></svg>