<svg width="10" height="18" viewBox="0 0 10 18" fill="none" xmlns="http://www.w3.org/2000/svg">
<path d="M2.64158 9.78425C2.57477 9.78425 1.17339 9.78467 0.527054 9.78403C0.194313 9.78382 0.0755981 9.66426 0.0755981 9.32939C0.0751726 8.46924 0.0749599 7.60909 0.0755981 6.74894C0.0758109 6.41833 0.201333 6.29217 0.529819 6.29196C1.17615 6.29153 2.56988 6.29174 2.64158 6.29174C2.64158 6.23281 2.64136 4.99099 2.64158 4.41912C2.642 3.57365 2.79284 2.76435 3.22238 2.02334C3.66214 1.26489 4.30209 0.74535 5.12224 0.444947C5.64752 0.252408 6.1928 0.175606 6.7502 0.17518C7.4476 0.174755 8.14499 0.175393 8.8426 0.176669C9.14236 0.177095 9.27533 0.309638 9.27597 0.61153C9.27725 1.42062 9.27725 2.22971 9.27597 3.03858C9.27555 3.34367 9.14811 3.46621 8.84154 3.46961C8.26988 3.47578 7.69779 3.47195 7.12677 3.49493C6.55001 3.49493 6.24662 3.77661 6.24662 4.37359C6.2328 5.00503 6.24088 5.63711 6.24088 6.29153C6.29492 6.29153 7.93629 6.29132 8.70346 6.29153C9.05195 6.29153 9.17109 6.41131 9.17109 6.76171C9.17109 7.61718 9.17087 8.47286 9.17024 9.32832C9.17002 9.67362 9.05812 9.78382 8.7075 9.78403C7.94033 9.78446 6.30534 9.78425 6.23386 9.78425V16.7082C6.23386 17.0773 6.1177 17.195 5.75347 17.195C4.86545 17.195 3.97722 17.1952 3.0892 17.195C2.76731 17.195 2.64179 17.0699 2.64179 16.748C2.64158 14.493 2.64158 9.86339 2.64158 9.78425Z" fill="#3D6AD6"/>
</svg>
