<svg width="24" height="24" viewBox="0 0 24 24" fill="none" xmlns="http://www.w3.org/2000/svg">
<path d="M2.82983 18.06C1.86455 16.6217 1.26078 14.9717 1.06983 13.25C0.90488 11.8033 1.02882 10.3382 1.43445 8.93968C1.84008 7.5412 2.51934 6.23717 3.43283 5.10322C4.34631 3.96927 5.47585 3.02797 6.75592 2.33391C8.03599 1.63985 9.44113 1.20686 10.8898 1.06003C11.0301 1.0445 11.172 1.05884 11.3064 1.10209C11.4407 1.14535 11.5643 1.21654 11.6692 1.31099C11.774 1.40545 11.8577 1.52102 11.9147 1.65012C11.9717 1.77922 12.0007 1.91891 11.9998 2.06003V10.17C12.0006 10.3016 11.9754 10.4321 11.9256 10.5539C11.8758 10.6758 11.8025 10.7866 11.7098 10.88L4.37983 18.21C4.27534 18.3168 4.14826 18.3987 4.00794 18.4499C3.86762 18.5011 3.71762 18.5202 3.56895 18.5058C3.42028 18.4914 3.27672 18.4439 3.14882 18.3668C3.02091 18.2896 2.91192 18.1848 2.82983 18.06ZM21.9398 12H13.8298C13.6982 11.9993 13.5678 12.0245 13.4459 12.0743C13.3241 12.124 13.2133 12.1973 13.1198 12.29L5.78983 19.62C5.6831 19.7245 5.60113 19.8516 5.54995 19.9919C5.49877 20.1322 5.47967 20.2822 5.49406 20.4309C5.50844 20.5796 5.55595 20.7231 5.63309 20.851C5.71023 20.9789 5.81504 21.0879 5.93983 21.17C7.37812 22.1353 9.0282 22.7391 10.7498 22.93C12.1966 23.095 13.6617 22.971 15.0602 22.5654C16.4587 22.1598 17.7627 21.4805 18.8966 20.567C20.0306 19.6535 20.9719 18.524 21.6659 17.2439C22.36 15.9639 22.793 14.5587 22.9398 13.11C22.9554 12.9698 22.941 12.8278 22.8978 12.6935C22.8545 12.5592 22.7833 12.4355 22.6889 12.3307C22.5944 12.2258 22.4788 12.1422 22.3497 12.0852C22.2206 12.0282 22.0809 11.9992 21.9398 12ZM16.9998 8.00003V5.00003C16.9998 4.73481 16.8945 4.48046 16.7069 4.29292C16.5194 4.10538 16.265 4.00003 15.9998 4.00003C15.7346 4.00003 15.4803 4.10538 15.2927 4.29292C15.1052 4.48046 14.9998 4.73481 14.9998 5.00003V8.00003C14.9998 8.26524 15.1052 8.5196 15.2927 8.70713C15.4803 8.89467 15.7346 9.00003 15.9998 9.00003C16.265 9.00003 16.5194 8.89467 16.7069 8.70713C16.8945 8.5196 16.9998 8.26524 16.9998 8.00003ZM20.9998 8.00003V3.00003C20.9998 2.73481 20.8945 2.48046 20.7069 2.29292C20.5194 2.10538 20.265 2.00003 19.9998 2.00003C19.7346 2.00003 19.4803 2.10538 19.2927 2.29292C19.1052 2.48046 18.9998 2.73481 18.9998 3.00003V8.00003C18.9998 8.26524 19.1052 8.5196 19.2927 8.70713C19.4803 8.89467 19.7346 9.00003 19.9998 9.00003C20.265 9.00003 20.5194 8.89467 20.7069 8.70713C20.8945 8.5196 20.9998 8.26524 20.9998 8.00003Z" fill="#DBCDF0"/>
</svg>
