<svg width="26" height="26" viewBox="0 0 26 26" fill="none" xmlns="http://www.w3.org/2000/svg">
<path d="M14.8958 7.58333H14.0833V5.41667C14.0833 2.42992 11.6534 0 8.66667 0C5.67992 0 3.25 2.42992 3.25 5.41667V7.58333H2.4375C1.09417 7.58333 0 8.6775 0 10.0208V19.2292C0 20.5725 1.09417 21.6667 2.4375 21.6667H12.5017C12.1333 21.0275 11.9167 20.2908 11.9167 19.5C11.9167 17.1058 13.8558 15.1667 16.25 15.1667C16.6292 15.1667 16.9867 15.2317 17.3333 15.3292V10.0208C17.3333 8.6775 16.2392 7.58333 14.8958 7.58333ZM5.41667 7.58333V5.41667C5.41667 3.62483 6.87483 2.16667 8.66667 2.16667C10.4585 2.16667 11.9167 3.62483 11.9167 5.41667V7.58333H5.41667Z" fill="#DBCDF0"/>
<path d="M23.834 21.6667C23.3302 21.6667 22.872 21.8465 22.5026 22.1368L18.3848 19.8142C18.4011 19.7102 18.4173 19.6073 18.4173 19.5C18.4173 19.4014 18.4011 19.3061 18.3881 19.2108L22.5047 16.8643C22.8731 17.1535 23.3302 17.3333 23.834 17.3333C25.0289 17.3333 26.0007 16.3616 26.0007 15.1667C26.0007 13.9717 25.0289 13 23.834 13C22.6391 13 21.6673 13.9717 21.6673 15.1667C21.6673 15.2652 21.6836 15.3595 21.6966 15.4559L17.5799 17.8024C17.2116 17.5132 16.7544 17.3333 16.2507 17.3333C15.0557 17.3333 14.084 18.3051 14.084 19.5C14.084 20.6949 15.0557 21.6667 16.2507 21.6667C16.7447 21.6667 17.1953 21.4933 17.5604 21.2138L21.6955 23.5473C21.6836 23.6416 21.6673 23.7348 21.6673 23.8333C21.6673 25.0283 22.6391 26 23.834 26C25.0289 26 26.0007 25.0283 26.0007 23.8333C26.0007 22.6384 25.0289 21.6667 23.834 21.6667Z" fill="#DBCDF0"/>
</svg>
