<svg width="28" height="28" viewBox="0 0 28 28" fill="none" xmlns="http://www.w3.org/2000/svg">
<g clip-path="url(#clip0_1_85856)">
<path d="M27.1934 10.5109C27.1091 10.5312 27.0362 10.584 26.9908 10.6578C26.9453 10.7315 26.9308 10.8203 26.9505 10.9047C27.1897 11.9199 27.3108 12.9592 27.3115 14.0022C27.3073 17.5312 25.9035 20.9144 23.4081 23.4098C20.9128 25.9052 17.5295 27.3089 14.0005 27.3131C11.1021 27.3233 8.28143 26.3759 5.97679 24.6181C6.28623 24.1567 6.40987 23.5955 6.32293 23.0468C6.23598 22.498 5.94489 22.0025 5.50797 21.6593C5.07106 21.3162 4.52061 21.1509 3.96693 21.1965C3.41326 21.2421 2.89727 21.4952 2.52238 21.9052C2.14748 22.3152 1.94138 22.8517 1.94537 23.4072C1.94936 23.9628 2.16316 24.4963 2.54391 24.9008C2.92466 25.3054 3.44423 25.5511 3.9985 25.5887C4.55277 25.6264 5.10079 25.4531 5.53273 25.1038C7.9593 26.9719 10.9382 27.98 14.0005 27.9694C16.1102 27.9671 18.192 27.4875 20.09 26.5664C21.988 25.6453 23.653 24.3067 24.9602 22.6508C26.2674 20.9949 27.1829 19.0647 27.6382 17.0048C28.0935 14.9448 28.0768 12.8085 27.5893 10.7559C27.5795 10.7138 27.5615 10.674 27.5363 10.6388C27.511 10.6037 27.4791 10.5738 27.4423 10.5511C27.4055 10.5283 27.3646 10.513 27.3218 10.5061C27.2791 10.4992 27.2354 10.5009 27.1934 10.5109Z" fill="#DBCDF0"/>
<path d="M0.689466 14.0022C0.68961 11.6344 1.32126 9.3096 2.51929 7.26735C3.71733 5.2251 5.43838 3.53934 7.50502 2.38388C9.57166 1.22842 11.9091 0.64507 14.2763 0.693985C16.6435 0.742899 18.9548 1.4223 20.972 2.66215C20.7638 3.10758 20.7304 3.61497 20.8786 4.0838C21.0268 4.55264 21.3456 4.94873 21.7719 5.19364C22.1983 5.43854 22.7011 5.51439 23.1807 5.40617C23.6604 5.29794 24.0818 5.01353 24.3617 4.60926C24.6416 4.205 24.7594 3.71037 24.6919 3.22334C24.6244 2.73631 24.3764 2.2924 23.9971 1.97954C23.6178 1.66668 23.1348 1.50768 22.6438 1.53403C22.1528 1.56038 21.6897 1.77017 21.346 2.12184C19.2302 0.813864 16.8035 0.0946327 14.3166 0.0384733C11.8298 -0.0176861 9.37307 0.591264 7.20036 1.80239C5.02764 3.01352 3.21776 4.78288 1.95777 6.92763C0.697768 9.07237 0.0333631 11.5147 0.0332163 14.0022C0.03204 14.8548 0.109662 15.7057 0.265091 16.544C0.278432 16.6196 0.318 16.688 0.376824 16.7372C0.435648 16.7864 0.509954 16.8133 0.586654 16.8131C0.606522 16.8131 0.626328 16.8109 0.645716 16.8065C0.731252 16.7911 0.807163 16.7423 0.856787 16.671C0.906412 16.5996 0.925695 16.5115 0.910404 16.4259C0.762948 15.6264 0.688994 14.8151 0.689466 14.0022Z" fill="#DBCDF0"/>
<path d="M12.0312 11.8344V12.0312H15.9688V11.8344C15.9381 9.17436 12.0619 9.17436 12.0312 11.8344Z" fill="#DBCDF0"/>
<path d="M23.1773 7.18377C19.4848 7.22096 15.9323 4.9394 14.5738 3.95502C14.407 3.83452 14.2065 3.76965 14.0007 3.76965C13.7949 3.76965 13.5944 3.83452 13.4276 3.95502C12.0691 4.9394 8.50789 7.21221 4.82414 7.18377C4.69331 7.18247 4.56352 7.20706 4.44224 7.25613C4.32096 7.3052 4.21058 7.37777 4.11746 7.46967C4.02434 7.56157 3.95032 7.67098 3.89966 7.79161C3.84899 7.91223 3.82269 8.04169 3.82227 8.17252C3.82445 13.2235 4.83508 20.4488 13.5566 24.8631C13.6942 24.9332 13.8463 24.9698 14.0007 24.9698C14.1551 24.9698 14.3072 24.9332 14.4448 24.8631C23.1663 20.4488 24.177 13.2235 24.1791 8.17252C24.1772 7.90862 24.0706 7.65628 23.8827 7.4709C23.6949 7.28552 23.4412 7.18226 23.1773 7.18377ZM17.6101 17.1719C17.6101 17.607 17.4372 18.0243 17.1295 18.332C16.8219 18.6397 16.4046 18.8125 15.9695 18.8125H12.032C11.5968 18.8125 11.1795 18.6397 10.8719 18.332C10.5642 18.0243 10.3913 17.607 10.3913 17.1719V13.6719C10.3915 13.3528 10.4847 13.0407 10.6595 12.7738C10.8344 12.5069 11.0833 12.2967 11.3757 12.1691V11.83C11.4151 8.31908 16.5863 8.31908 16.6257 11.83V12.1691C16.9181 12.2967 17.167 12.5069 17.3419 12.7738C17.5167 13.0407 17.6099 13.3528 17.6101 13.6719V17.1719Z" fill="#DBCDF0"/>
<path d="M14.538 15.0451C14.5331 15.0158 14.5345 14.9857 14.5421 14.9569C14.5496 14.9281 14.5631 14.9012 14.5818 14.878C14.655 14.7721 14.6979 14.6481 14.7058 14.5195C14.7136 14.3909 14.6862 14.2626 14.6264 14.1485C14.5665 14.0344 14.4766 13.9389 14.3664 13.8722C14.2562 13.8055 14.1298 13.7703 14.001 13.7703C13.8721 13.7703 13.7458 13.8055 13.6355 13.8722C13.5253 13.9389 13.4354 14.0344 13.3756 14.1485C13.3158 14.2626 13.2883 14.3909 13.2962 14.5195C13.304 14.6481 13.3469 14.7721 13.4202 14.878C13.4387 14.901 13.4522 14.9276 13.4598 14.9561C13.4673 14.9847 13.4687 15.0145 13.4639 15.0436C13.4125 15.2998 13.2671 16.0321 13.1645 16.5405C13.152 16.6039 13.1537 16.6693 13.1695 16.732C13.1853 16.7946 13.2148 16.853 13.2559 16.9029C13.297 16.9528 13.3486 16.993 13.407 17.0206C13.4654 17.0482 13.5293 17.0625 13.5939 17.0625H14.4076C14.4724 17.0625 14.5363 17.0481 14.5948 17.0205C14.6534 16.9928 14.705 16.9525 14.7461 16.9024C14.7871 16.8524 14.8166 16.7938 14.8323 16.731C14.848 16.6682 14.8495 16.6027 14.8368 16.5392L14.538 15.0451Z" fill="#DBCDF0"/>
</g>
<defs>
<clipPath id="clip0_1_85856">
<rect width="28" height="28" fill="white"/>
</clipPath>
</defs>
</svg>
