<svg width="26" height="26" viewBox="0 0 26 26" fill="none" xmlns="http://www.w3.org/2000/svg">
<g clip-path="url(#clip0_1_85835)">
<path d="M8.37891 15.2852C7.95864 15.2852 7.61719 15.6266 7.61719 16.0469C7.61719 16.4671 7.95864 16.8086 8.37891 16.8086C8.79917 16.8086 9.14062 16.4671 9.14062 16.0469C9.14062 15.6266 8.79917 15.2852 8.37891 15.2852Z" fill="#DBCDF0"/>
<path d="M14.4727 10.7148H2.28516C1.02507 10.7148 0 11.7399 0 13V22.1406C0 23.4007 1.02507 24.4258 2.28516 24.4258H14.4727C15.7327 24.4258 16.7578 23.4007 16.7578 22.1406V13C16.7578 11.7399 15.7327 10.7148 14.4727 10.7148ZM9.14062 18.1917V20.6172C9.14062 21.0382 8.79993 21.3789 8.37891 21.3789C7.95788 21.3789 7.61719 21.0382 7.61719 20.6172V18.1917C6.73248 17.8762 6.09375 17.0386 6.09375 16.0469C6.09375 14.7868 7.11882 13.7617 8.37891 13.7617C9.63899 13.7617 10.6641 14.7868 10.6641 16.0469C10.6641 17.0386 10.0253 17.8762 9.14062 18.1917Z" fill="#DBCDF0"/>
<path d="M23.7148 15.2852C22.7231 15.2852 21.8855 15.9239 21.57 16.8086H18.2812V18.332H21.57C21.8855 19.2167 22.7231 19.8555 23.7148 19.8555C24.9749 19.8555 26 18.8304 26 17.5703C26 16.3102 24.9749 15.2852 23.7148 15.2852Z" fill="#DBCDF0"/>
<path d="M23.7148 21.3789C23.2974 21.3789 22.9109 21.4997 22.5737 21.696L21.2504 20.1262C21.1053 19.9544 20.8926 19.8555 20.668 19.8555H18.2812V21.3789H20.3139L21.5776 22.878C21.4868 23.1241 21.4297 23.3867 21.4297 23.6641C21.4297 24.9241 22.4548 26 23.7148 26C24.9749 26 26 24.9241 26 23.6641C26 22.404 24.9749 21.3789 23.7148 21.3789Z" fill="#DBCDF0"/>
<path d="M23.7148 9.19141C22.4548 9.19141 21.4297 10.2165 21.4297 11.4766C21.4297 11.8466 21.5264 12.1911 21.6831 12.5005L20.3622 13.7617H18.2812V15.2852H20.668C20.8636 15.2852 21.0525 15.2093 21.1939 15.0739L22.7812 13.5574C23.0669 13.6862 23.3816 13.7617 23.7148 13.7617C24.9749 13.7617 26 12.7366 26 11.4766C26 10.2165 24.9749 9.19141 23.7148 9.19141Z" fill="#DBCDF0"/>
<path d="M8.37891 0C5.01886 0 2.28516 2.73371 2.28516 6.09375V9.19141H5.33203V6.09375C5.33203 4.41335 6.6985 3.04688 8.37891 3.04688C10.0593 3.04688 11.4258 4.41335 11.4258 6.09375V9.19141H14.4727V6.09375C14.4727 2.73371 11.7389 0 8.37891 0Z" fill="#DBCDF0"/>
</g>
<defs>
<clipPath id="clip0_1_85835">
<rect width="26" height="26" fill="white"/>
</clipPath>
</defs>
</svg>
