<svg width="28" height="28" viewBox="0 0 28 28" fill="none" xmlns="http://www.w3.org/2000/svg">
<g clip-path="url(#clip0_1_85832)">
<path d="M12.4952 27.1235H15.5057V27.1681C15.505 27.3885 15.4171 27.5997 15.2613 27.7556C15.1054 27.9114 14.8942 27.9993 14.6738 28H13.3271C13.1067 27.9993 12.8955 27.9114 12.7396 27.7556C12.5838 27.5997 12.4959 27.3885 12.4952 27.1681V27.1235ZM11.4417 25.2843C11.4429 25.5632 11.5543 25.8303 11.7517 26.0274C11.949 26.2244 12.2163 26.3354 12.4952 26.3362H15.5057C15.7844 26.3354 16.0515 26.2243 16.2486 26.0272C16.4457 25.8301 16.5568 25.563 16.5576 25.2843V25.0102H11.4417V25.2843ZM16.4747 6.74461V18.6465C16.4747 19.3027 16.214 19.932 15.75 20.396C15.286 20.86 14.6567 21.1207 14.0005 21.1207C13.3442 21.1207 12.7149 20.86 12.2509 20.396C11.7869 19.932 11.5262 19.3027 11.5262 18.6465V6.74461C10.1018 7.25484 8.86975 8.19276 7.99878 9.43003C7.12781 10.6673 6.66042 12.1435 6.66057 13.6566C6.66057 18.9284 11.437 19.8465 11.4417 24.2245H16.5576C16.5639 19.8465 21.3403 18.9285 21.3403 13.6566C21.3402 12.1436 20.8727 10.6675 20.0017 9.43032C19.1308 8.19311 17.899 7.25512 16.4747 6.74461ZM9.13086 5.29752C9.18264 5.38755 9.26806 5.45332 9.36833 5.48036C9.46861 5.50741 9.57551 5.49351 9.66554 5.44173C9.75557 5.38996 9.82134 5.30453 9.84838 5.20426C9.87543 5.10399 9.86153 4.99708 9.80975 4.90705L8.84397 3.23526C8.81833 3.19067 8.78415 3.15157 8.7434 3.12019C8.70265 3.08881 8.65611 3.06576 8.60645 3.05237C8.55679 3.03897 8.50498 3.03549 8.45398 3.04211C8.40297 3.04874 8.35377 3.06535 8.30918 3.09099C8.26459 3.11663 8.22549 3.15081 8.19411 3.19156C8.16273 3.23231 8.13969 3.27885 8.12629 3.32851C8.11289 3.37817 8.10941 3.42998 8.11604 3.48099C8.12266 3.53199 8.13927 3.58119 8.16492 3.62578L9.13086 5.29752ZM18.3348 5.44255C18.3793 5.46825 18.4285 5.48489 18.4795 5.49151C18.5305 5.49813 18.5823 5.49459 18.6319 5.48111C18.6815 5.46763 18.728 5.44447 18.7686 5.41297C18.8093 5.38146 18.8433 5.34223 18.8687 5.29752L19.8358 3.62578C19.8615 3.5811 19.8781 3.53181 19.8846 3.48072C19.8912 3.42963 19.8877 3.37774 19.8742 3.32801C19.8608 3.27829 19.8376 3.23171 19.8062 3.19092C19.7747 3.15014 19.7355 3.11595 19.6908 3.09031C19.6461 3.06467 19.5969 3.04808 19.5458 3.04149C19.4947 3.03491 19.4428 3.03845 19.3931 3.05191C19.3433 3.06538 19.2968 3.0885 19.256 3.11997C19.2152 3.15144 19.181 3.19063 19.1554 3.23531L18.1895 4.90711C18.1638 4.95178 18.1472 5.00107 18.1406 5.05217C18.134 5.10327 18.1375 5.15517 18.151 5.20491C18.1645 5.25464 18.1876 5.30123 18.2191 5.34201C18.2506 5.38279 18.2898 5.41696 18.3345 5.44255H18.3348ZM6.29258 8.04508L4.6764 7.11277C4.58616 7.06099 4.47904 7.04718 4.37861 7.07438C4.27819 7.10157 4.19268 7.16755 4.1409 7.2578C4.08912 7.34804 4.07531 7.45516 4.10251 7.55558C4.12971 7.65601 4.19569 7.74152 4.28593 7.7933L5.902 8.72561C5.94669 8.75125 5.99598 8.76783 6.04708 8.77442C6.09817 8.78101 6.15006 8.77747 6.19979 8.764C6.24951 8.75053 6.2961 8.7274 6.33689 8.69593C6.37767 8.66446 6.41186 8.62526 6.4375 8.58058C6.46314 8.53589 6.47973 8.4866 6.48631 8.4355C6.4929 8.38441 6.48936 8.33252 6.47589 8.28279C6.46242 8.23307 6.43929 8.18648 6.40782 8.14569C6.37635 8.10491 6.33715 8.07072 6.29247 8.04508H6.29258ZM23.8585 7.25758C23.8329 7.21285 23.7987 7.1736 23.758 7.14209C23.7172 7.11058 23.6706 7.08743 23.6209 7.07395C23.5711 7.06048 23.5192 7.05696 23.4681 7.06358C23.417 7.0702 23.3677 7.08684 23.323 7.11255L21.7084 8.04508C21.6182 8.09686 21.5522 8.18237 21.525 8.28279C21.4978 8.38322 21.5116 8.49033 21.5634 8.58058C21.6152 8.67082 21.7007 8.7368 21.8011 8.764C21.9015 8.7912 22.0087 8.77739 22.0989 8.72561L23.7133 7.7933C23.8034 7.74136 23.8692 7.65585 23.8964 7.55549C23.9236 7.45513 23.9099 7.34809 23.8584 7.2578L23.8585 7.25758ZM13.9996 0L12.5095 2.98184H15.49L13.9996 0ZM13.9996 20.3438C14.4477 20.3398 14.8761 20.1593 15.192 19.8416C15.5079 19.5239 15.6859 19.0945 15.6874 18.6464V3.76912H12.3119V18.6465C12.3134 19.0945 12.4914 19.5239 12.8073 19.8416C13.1232 20.1593 13.5516 20.3397 13.9996 20.3438Z" fill="#DBCDF0"/>
</g>
<defs>
<clipPath id="clip0_1_85832">
<rect width="28" height="28" fill="white"/>
</clipPath>
</defs>
</svg>
