<svg width="24" height="28" viewBox="0 0 24 28" fill="none" xmlns="http://www.w3.org/2000/svg">
<path d="M23.0206 8.81384C22.9907 7.57625 22.9657 6.40853 23.0156 5.26077C23.0336 5.12137 23.022 4.97975 22.9816 4.84514C22.9412 4.71052 22.8728 4.58595 22.781 4.47953C22.6892 4.37311 22.5759 4.28725 22.4487 4.22753C22.3215 4.16782 22.1831 4.1356 22.0425 4.13297C18.5877 3.63219 15.2979 2.32995 12.4363 0.330388C11.2384 -0.549261 10.436 0.558049 9.57689 0.989103C6.97632 2.63337 4.05545 3.70509 1.00857 4.13297C0.867793 4.13547 0.729121 4.16756 0.601561 4.22715C0.474001 4.28675 0.360407 4.37251 0.268161 4.47888C0.175915 4.58524 0.10708 4.70983 0.0661301 4.84454C0.0251803 4.97924 0.0130318 5.12106 0.0304736 5.26077C0.0654054 6.30374 0.0454443 7.37664 0.0254832 8.50943C-0.0393902 12.1623 -0.104264 15.9399 1.51258 19.2834C2.44344 21.3739 3.82272 23.2341 5.55268 24.7321C7.28264 26.2301 9.32092 27.3292 11.5231 27.9516C14.2324 27.1833 16.6848 25.6995 18.6228 23.6562C20.5608 21.6129 21.9127 19.0854 22.5366 16.3392C23.1404 13.849 23.0805 11.289 23.0206 8.81384ZM20.1113 15.7553C19.6048 17.947 18.553 19.9754 17.0533 21.6521C15.5537 23.3288 13.6549 24.5996 11.5331 25.3466C9.81776 24.7577 8.24263 23.8207 6.90645 22.5945C5.57027 21.3682 4.50186 19.8791 3.76822 18.2205C2.40088 15.391 2.46077 11.9128 2.52065 8.55435C2.53063 7.97548 2.54061 7.39661 2.5456 6.82273C2.5452 6.7089 2.58426 6.59846 2.65614 6.51019C2.72802 6.42193 2.82828 6.36132 2.93983 6.33868C5.89297 5.6868 8.70866 4.52132 11.2586 2.89535C11.3389 2.84458 11.4317 2.81681 11.5267 2.81506C11.6217 2.81331 11.7154 2.83764 11.7976 2.88541C14.0209 4.31113 16.4493 5.38819 18.9985 6.07918C19.5125 6.29617 20.4311 6.13224 20.4907 6.81766C20.502 9.78144 20.7872 12.9399 20.1113 15.7553Z" fill="#DBCDF0"/>
<path d="M19.4977 7.22193C16.864 6.61554 14.3439 5.59301 12.0322 4.19287V24.094C13.7986 23.3139 15.3598 22.1345 16.5929 20.6485C17.826 19.1626 18.6974 17.4107 19.1384 15.5307C19.7643 12.9566 19.5168 9.96152 19.4977 7.22193Z" fill="#DBCDF0"/>
<path d="M3.51793 8.55433C3.4635 11.871 3.39805 15.2455 4.72058 17.9011C5.96598 20.6871 8.22205 22.8968 11.0333 24.084V4.18286C8.71065 5.58577 6.18104 6.61311 3.53792 7.22692C3.53289 7.67605 3.52789 8.12018 3.51793 8.55433Z" fill="#DBCDF0"/>
</svg>
