<svg width="14" height="13" viewBox="0 0 14 13" fill="none" xmlns="http://www.w3.org/2000/svg">
<g clip-path="url(#clip0_1_83081)">
<path d="M2.99597 7.85086L2.5452 9.53365L0.89764 9.5685C0.405262 8.65525 0.125977 7.61037 0.125977 6.50001C0.125977 5.4263 0.387101 4.41377 0.849963 3.52222H0.850317L2.31711 3.79113L2.95965 5.24912C2.82517 5.64119 2.75187 6.06206 2.75187 6.50001C2.75192 6.97531 2.83802 7.43071 2.99597 7.85086Z" fill="#FBBB00"/>
<path d="M12.9627 5.29028C13.037 5.68197 13.0758 6.08648 13.0758 6.49989C13.0758 6.96346 13.0271 7.41565 12.9342 7.85183C12.619 9.3361 11.7954 10.6322 10.6545 11.5493L10.6541 11.549L8.80662 11.4547L8.54514 9.82243C9.30221 9.37844 9.89386 8.68361 10.2055 7.85183H6.74316V5.29028H10.256H12.9627Z" fill="#518EF8"/>
<path d="M10.6541 11.549L10.6544 11.5494C9.5448 12.4413 8.13522 12.975 6.6008 12.975C4.13496 12.975 1.9911 11.5967 0.897461 9.56848L2.99579 7.85083C3.5426 9.31018 4.95038 10.349 6.6008 10.349C7.31019 10.349 7.97479 10.1573 8.54507 9.82249L10.6541 11.549Z" fill="#28B446"/>
<path d="M10.7336 1.51557L8.63598 3.23286C8.04576 2.86394 7.34808 2.65082 6.60062 2.65082C4.91285 2.65082 3.47874 3.73733 2.95932 5.24901L0.849963 3.52211H0.849609C1.92724 1.44442 4.09814 0.0249023 6.60062 0.0249023C8.1717 0.0249023 9.61221 0.584535 10.7336 1.51557Z" fill="#F14336"/>
</g>
<defs>
<clipPath id="clip0_1_83081">
<rect width="12.95" height="12.95" fill="white" transform="translate(0.125977 0.0249023)"/>
</clipPath>
</defs>
</svg>
