<svg width="14" height="14" viewBox="0 0 14 14" fill="none" xmlns="http://www.w3.org/2000/svg">
<path d="M13.9947 8.43793C13.9947 7.91219 13.7122 7.45117 13.2911 7.19868C13.4525 6.96568 13.5471 6.68303 13.5471 6.37878C13.5471 5.58272 12.8994 4.93506 12.1034 4.93506H9.05569C9.14909 4.51178 9.27684 3.87661 9.36579 3.21169C9.59729 1.48135 9.43907 0.521721 8.86795 0.191709C8.51188 -0.0139981 8.12797 -0.0557247 7.78694 0.0741035C7.52348 0.174455 7.16768 0.421178 6.96493 1.02671L6.16392 3.124C5.63269 4.43603 3.6679 5.83368 3.20287 6.1509H0.41952C0.190789 6.1509 0.00537109 6.33634 0.00537109 6.56505V12.6479C0.00537109 12.8766 0.190816 13.062 0.41952 13.062H3.25023C4.82818 13.6843 6.48816 14 8.18564 14H11.5064C12.3025 14 12.9501 13.3523 12.9501 12.5563C12.9501 12.2775 12.8707 12.0169 12.7333 11.796C13.2146 11.5616 13.547 11.0674 13.547 10.4971C13.547 10.1928 13.4524 9.9102 13.291 9.6772C13.7122 9.42471 13.9947 8.96367 13.9947 8.43793ZM2.91472 12.2338H0.833668V6.97925H2.91472V12.2338ZM12.551 9.05335H12.1033C11.8746 9.05335 11.6892 9.2388 11.6892 9.4675C11.6892 9.69623 11.8746 9.88165 12.1033 9.88165C12.4427 9.88165 12.7188 10.1577 12.7188 10.4971C12.7188 10.8364 12.4427 11.1125 12.1033 11.1125H11.5065C11.2777 11.1125 11.0923 11.298 11.0923 11.5267C11.0923 11.7554 11.2778 11.9408 11.5065 11.9408C11.8458 11.9408 12.1219 12.2169 12.1219 12.5563C12.1219 12.8956 11.8458 13.1717 11.5065 13.1717H8.18566C6.66032 13.1717 5.16724 12.9003 3.74307 12.3646V6.78546C4.3685 6.35398 6.33791 4.90842 6.93362 3.43019C6.93455 3.42784 6.93548 3.42549 6.93638 3.42314L7.74201 1.31376C7.74428 1.30785 7.74641 1.30187 7.74836 1.29588C7.82648 1.05935 7.94488 0.90035 8.08181 0.848205C8.21459 0.797592 8.35727 0.853291 8.45355 0.908935C8.45711 0.910986 8.80259 1.16865 8.54567 3.09551C8.39974 4.18983 8.1347 5.23649 8.13207 5.24694C8.10049 5.37083 8.12797 5.50238 8.20636 5.60334C8.28484 5.70429 8.40551 5.76338 8.53339 5.76338H12.1034C12.4428 5.76338 12.7188 6.03947 12.7188 6.37881C12.7188 6.71814 12.4428 6.99423 12.1034 6.99423C11.8747 6.99423 11.6893 7.17968 11.6893 7.40838C11.6893 7.63711 11.8747 7.82253 12.1034 7.82253H12.5511C12.8904 7.82253 13.1665 8.09862 13.1665 8.43795C13.1665 8.77726 12.8903 9.05335 12.551 9.05335Z" fill="black" fill-opacity="0.63"/>
</svg>
