<svg width="22" height="14" viewBox="0 0 22 14" fill="none" xmlns="http://www.w3.org/2000/svg">
<path d="M10.5617 10.8891C5.42834 10.8891 5.42834 3.11133 10.5617 3.11133C15.6367 3.11133 15.856 10.8891 10.5617 10.8891ZM10.5617 4.66688C7.45056 4.66688 7.45056 9.33355 10.5617 9.33355C13.6728 9.33355 13.6728 4.66688 10.5617 4.66688Z" fill="black" fill-opacity="0.63"/>
<path d="M10.5616 14C6.71242 14 3.02653 11.9552 0.45053 8.38911C0.157685 7.98514 0 7.49895 0 7C0 6.50105 0.157685 6.01486 0.45053 5.61089C3.02653 2.04478 6.71242 0 10.5616 0C14.4109 0 18.0968 2.04478 20.6728 5.61089C20.9656 6.01486 21.1233 6.50105 21.1233 7C21.1233 7.49895 20.9656 7.98514 20.6728 8.38911C18.0968 11.9552 14.4109 14 10.5616 14ZM1.7082 7.47756C4.02442 10.6804 7.1682 12.4444 10.5616 12.4444C13.9551 12.4444 17.0989 10.6804 19.4151 7.47756C19.5158 7.33856 19.5701 7.17128 19.5701 6.99961C19.5701 6.82794 19.5158 6.66066 19.4151 6.52167C17.0989 3.31956 13.9551 1.55556 10.5616 1.55556C7.1682 1.55556 4.02442 3.31956 1.7082 6.52244C1.60744 6.66144 1.55319 6.82872 1.55319 7.00039C1.55319 7.17206 1.60744 7.33856 1.7082 7.47756Z" fill="black" fill-opacity="0.63"/>
</svg>
