<svg width="47" height="46" viewBox="0 0 47 46" fill="none" xmlns="http://www.w3.org/2000/svg">
<path d="M46.3115 38.9574H45.0934V14.7494C45.0934 12.9763 43.6191 11.5339 41.807 11.5339H40.1899C40.3667 11.1718 40.4642 10.7702 40.4642 10.3529C40.4642 9.33673 39.8944 8.40991 38.977 7.934L29.9745 3.26662C29.6385 3.09232 29.2218 3.21775 29.0439 3.54666C28.8659 3.87549 28.994 4.28329 29.33 4.4575L38.3324 9.12479C38.805 9.36998 39.0872 9.82908 39.0872 10.3529C39.0872 10.8767 38.805 11.3357 38.3325 11.5808L29.5814 16.1181L24.0177 9.90859C23.767 9.62873 23.332 9.60087 23.0462 9.84624C22.7603 10.0916 22.7318 10.5174 22.9824 10.7971L28.3309 16.7665L25.0196 18.4833C24.0681 18.9759 22.9321 18.9759 21.9809 18.4835L8.66764 11.5809C8.19507 11.3358 7.9128 10.8767 7.9128 10.353C7.9128 9.82926 8.19498 9.37016 8.66746 9.12497L21.9805 2.22246C22.932 1.72975 24.0679 1.72975 25.0191 2.22228L26.9248 3.21056C27.2607 3.38486 27.6775 3.25952 27.8555 2.93069C28.0335 2.60187 27.9054 2.19398 27.5695 2.01977L25.6635 1.03131C24.3087 0.329718 22.6911 0.329718 21.3363 1.0314L8.02277 7.93418C7.10563 8.41 6.53594 9.33682 6.53594 10.353C6.53594 10.7703 6.63343 11.1718 6.81023 11.534H5.19295C3.38088 11.534 1.90662 12.9764 1.90662 14.7495V38.9575H0.688477C0.308254 38.9575 0 39.2592 0 39.6313V41.1248C0 43.5345 2.00301 45.495 4.46509 45.495H42.5348C44.9969 45.495 47 43.5346 47 41.1248V39.6313C47 39.2591 46.6917 38.9574 46.3115 38.9574ZM29.4224 27.2673L30.32 28.7891C30.5056 29.1036 30.3818 29.3813 30.32 29.4861C30.2583 29.5908 30.0744 29.8346 29.7033 29.8346H29.1414C28.7702 29.8346 28.5865 29.5908 28.5246 29.4861C28.4627 29.3812 28.3391 29.1036 28.5246 28.7891L29.4224 27.2673ZM30.1108 17.3687L32.9597 15.8916V18.5675C32.9597 20.4892 31.85 22.2121 30.1108 23.0302V17.3687ZM23.4999 20.2006C24.243 20.2006 24.9863 20.0252 25.6637 19.6744L28.7339 18.0827V23.5515C24.9722 24.7711 20.8104 24.6342 17.1388 23.1406C15.2565 22.3749 14.0403 20.5799 14.0403 18.5675V15.8916L21.3366 19.6745C22.0139 20.0254 22.7568 20.2006 23.4999 20.2006ZM3.28357 14.7494C3.28357 13.7194 4.14013 12.8815 5.19295 12.8815H8.23482L11.7004 14.6784H5.80799C5.42777 14.6784 5.11951 14.9801 5.11951 15.3522V36.4871C5.11951 36.8592 5.42777 37.1609 5.80799 37.1609H9.44223C9.82245 37.1609 10.1307 36.8592 10.1307 36.4871C10.1307 36.1149 9.82245 35.8132 9.44223 35.8132H6.49646V16.0261H12.6634V18.5675C12.6634 21.1261 14.2126 23.4096 16.6105 24.385C18.7996 25.2756 21.1498 25.7208 23.5001 25.7208C25.2675 25.7208 27.0349 25.4688 28.734 24.9651V25.7391L27.3322 28.1152C26.9546 28.7554 26.9546 29.5198 27.3322 30.1599C27.7099 30.8 28.3862 31.1822 29.1415 31.1822H29.7034C30.4587 31.1822 31.1349 30.8 31.5126 30.1599C31.8902 29.5198 31.8902 28.7554 31.5126 28.1152L30.1108 25.7391V24.4944C30.2039 24.4583 30.2971 24.4227 30.3896 24.385C32.7874 23.4096 34.3366 21.1261 34.3366 18.5675V16.0261H40.5035V35.8132H12.1961C11.8159 35.8132 11.5077 36.1149 11.5077 36.4871C11.5077 36.8592 11.8159 37.1609 12.1961 37.1609H41.192C41.5722 37.1609 41.8805 36.8592 41.8805 36.4871V15.3522C41.8805 14.9801 41.5722 14.6784 41.192 14.6784H35.2995L38.7651 12.8815H41.807C42.8598 12.8815 43.7163 13.7194 43.7163 14.7494V38.9574H3.28357V14.7494ZM27.7575 40.3054C27.5032 41.03 26.7997 41.5523 25.9742 41.5523H21.0259C20.2003 41.5523 19.4969 41.03 19.2425 40.3054H27.7575ZM45.623 41.1247C45.623 42.7913 44.2376 44.1472 42.5348 44.1472H4.46509C2.76226 44.1472 1.37695 42.7913 1.37695 41.1247V40.3051H2.58803C2.59042 40.3051 2.59271 40.3054 2.5951 40.3054H17.8221C18.109 41.7808 19.4361 42.8999 21.0259 42.8999H25.9742C27.5639 42.8999 28.891 41.7808 29.1779 40.3054H44.4049C44.4073 40.3054 44.4096 40.3051 44.412 40.3051H45.623V41.1247Z" fill="#DBCDF0"/>
<path d="M23.7086 33.3425C23.7086 32.9704 23.4004 32.6687 23.0201 32.6687H9.2373C8.85708 32.6687 8.54883 32.9704 8.54883 33.3425C8.54883 33.7147 8.85708 34.0164 9.2373 34.0164H23.0202C23.4004 34.0164 23.7086 33.7147 23.7086 33.3425Z" fill="#DBCDF0"/>
<path d="M9.2373 31.1824H18.4528C18.833 31.1824 19.1413 30.8807 19.1413 30.5085C19.1413 30.1364 18.833 29.8347 18.4528 29.8347H9.2373C8.85708 29.8347 8.54883 30.1364 8.54883 30.5085C8.54883 30.8807 8.85699 31.1824 9.2373 31.1824Z" fill="#DBCDF0"/>
</svg>
