<svg width="15" height="15" viewBox="0 0 15 15" fill="none" xmlns="http://www.w3.org/2000/svg">
<g clip-path="url(#clip0_1_83077)">
<path d="M13.0784 0.779297H1.92202C1.61581 0.779792 1.32229 0.901729 1.10587 1.11836C0.889447 1.33498 0.767786 1.62861 0.767578 1.93482V13.0652C0.767788 13.3714 0.889449 13.665 1.10587 13.8816C1.3223 14.0983 1.61581 14.2202 1.92202 14.2207H13.0784C13.3846 14.2202 13.6781 14.0983 13.8945 13.8816C14.111 13.665 14.2326 13.3714 14.2328 13.0652V1.93482C14.2326 1.62861 14.111 1.33498 13.8945 1.11836C13.6781 0.901729 13.3846 0.779792 13.0784 0.779297ZM3.00275 3.49359C3.00315 3.33455 3.06658 3.18214 3.17915 3.06978C3.29171 2.95742 3.44423 2.89426 3.60328 2.89415H4.53334C4.69228 2.8943 4.84466 2.95751 4.95704 3.06989C5.06943 3.18227 5.13263 3.33466 5.13278 3.49359V4.42474C5.13263 4.58367 5.06943 4.73606 4.95704 4.84844C4.84466 4.96082 4.69228 5.02403 4.53334 5.02418H3.60328C3.44423 5.02407 3.29171 4.96091 3.17915 4.84855C3.06658 4.73619 3.00315 4.58378 3.00275 4.42474V3.49359ZM5.37234 11.9205C5.37243 11.9695 5.35307 12.0165 5.31853 12.0513C5.28398 12.086 5.23706 12.1056 5.18807 12.1058H2.95506C2.90606 12.1056 2.85914 12.086 2.8246 12.0513C2.79005 12.0165 2.7707 11.9695 2.77078 11.9205V5.39815C2.7707 5.34916 2.79005 5.30212 2.8246 5.26738C2.85914 5.23263 2.90606 5.213 2.95506 5.21279H5.18807C5.23706 5.213 5.28398 5.23263 5.31853 5.26738C5.35307 5.30212 5.37243 5.34916 5.37234 5.39815V11.9205ZM12.2296 11.9205C12.2297 11.9695 12.2104 12.0165 12.1758 12.0513C12.1413 12.086 12.0944 12.1056 12.0454 12.1058H10.2416C10.1926 12.1056 10.1457 12.086 10.1111 12.0513C10.0766 12.0165 10.0572 11.9695 10.0573 11.9205V8.37044C10.0573 8.05608 10.0226 7.61273 9.72129 7.3916C9.32889 7.10218 8.81725 7.23984 8.51482 7.52385C8.31103 7.71354 8.21238 8.00514 8.21238 8.41488V11.9205C8.21222 11.9696 8.19264 12.0167 8.15791 12.0514C8.12319 12.0861 8.07613 12.1057 8.02702 12.1058H6.22436C6.17524 12.1057 6.12819 12.0861 6.09346 12.0514C6.05874 12.0167 6.03916 11.9696 6.03899 11.9205V5.39815C6.03916 5.34904 6.05874 5.30199 6.09346 5.26726C6.12819 5.23254 6.17524 5.21295 6.22436 5.21279H8.02702C8.07613 5.21296 8.12319 5.23254 8.15791 5.26726C8.19264 5.30199 8.21222 5.34904 8.21238 5.39815V5.53474C8.22648 5.52606 8.24057 5.51631 8.25466 5.50764C8.65884 5.25574 9.1258 5.12275 9.60205 5.12391C10.376 5.12391 11.0145 5.37973 11.5023 5.88486C12.1039 6.50815 12.2296 7.37534 12.2296 7.99213V11.9205Z" fill="black"/>
</g>
<rect x="1.0625" y="1.0625" width="12.875" height="12.875" stroke="black"/>
<defs>
<clipPath id="clip0_1_83077">
<rect x="0.5625" y="0.5625" width="13.875" height="13.875" fill="white"/>
</clipPath>
</defs>
</svg>
