<svg width="50" height="55" viewBox="0 0 50 55" fill="none" xmlns="http://www.w3.org/2000/svg">
<path fill-rule="evenodd" clip-rule="evenodd" d="M8.63398 16.6752C8.63398 12.3241 10.3624 8.15129 13.4391 5.07463C16.5157 1.99798 20.6886 0.269531 25.0396 0.269531C29.3907 0.269531 33.5635 1.99798 36.6402 5.07463C39.7168 8.15129 41.4453 12.3241 41.4453 16.6752H44.1796C45.6299 16.6752 47.0208 17.2513 48.0464 18.2769C49.0719 19.3024 49.6481 20.6934 49.6481 22.1437V49.4865C49.6481 50.9368 49.0719 52.3278 48.0464 53.3533C47.0208 54.3789 45.6299 54.955 44.1796 54.955H5.8997C4.44935 54.955 3.05841 54.3789 2.03285 53.3533C1.0073 52.3278 0.431152 50.9368 0.431152 49.4865V22.1437C0.431152 20.6934 1.0073 19.3024 2.03285 18.2769C3.05841 17.2513 4.44935 16.6752 5.8997 16.6752H8.63398ZM25.0396 5.73808C27.9403 5.73808 30.7222 6.89038 32.7733 8.94148C34.8244 10.9926 35.9767 13.7745 35.9767 16.6752H14.1025C14.1025 13.7745 15.2548 10.9926 17.3059 8.94148C19.357 6.89038 22.1389 5.73808 25.0396 5.73808ZM30.5082 33.0808C30.5082 34.0407 30.2555 34.9837 29.7755 35.815C29.2955 36.6463 28.6052 37.3366 27.7739 37.8166V41.2836C27.7739 42.0088 27.4858 42.7043 26.973 43.2171C26.4603 43.7299 25.7648 44.0179 25.0396 44.0179C24.3145 44.0179 23.619 43.7299 23.1062 43.2171C22.5934 42.7043 22.3054 42.0088 22.3054 41.2836V37.8166C21.2629 37.2147 20.4482 36.2856 19.9875 35.1734C19.5269 34.0613 19.4461 32.8282 19.7577 31.6654C20.0692 30.5027 20.7557 29.4752 21.7107 28.7424C22.6657 28.0096 23.8359 27.6123 25.0396 27.6123C26.49 27.6123 27.8809 28.1884 28.9065 29.214C29.932 30.2395 30.5082 31.6305 30.5082 33.0808Z" fill="white"/>
</svg>
