<svg width="46" height="41" viewBox="0 0 46 41" fill="none" xmlns="http://www.w3.org/2000/svg">
<path d="M35.9924 0H10.0074C7.71738 0 5.77246 1.64622 5.77246 3.77463V38.0213C5.7792 40.7227 9.48125 41.9903 11.5859 40.094L21.4907 31.2684C22.2844 30.5303 23.7154 30.5303 24.5091 31.2684L34.4139 40.094C36.5194 41.991 40.221 40.7215 40.2273 38.0213V3.77463C40.2273 1.64622 38.2824 0 35.9924 0ZM37.5318 38.0213C37.5285 38.5933 36.7308 38.7821 36.3181 38.3936C34.338 36.6261 28.6913 31.5947 26.4169 29.5712C24.6277 27.9033 21.3748 27.9029 19.5864 29.568C18.0152 30.9657 14.9398 33.706 12.5154 35.8663L9.695 38.379C9.2886 38.7633 8.48093 38.635 8.4679 38.0431V3.77463C8.4679 3.00726 9.16578 2.40254 10.0074 2.40254H35.9923C36.8326 2.40254 37.5318 3.0063 37.5318 3.77463V38.0213Z" fill="#DBCDF0"/>
</svg>
