<svg width="46" height="46" viewBox="0 0 46 46" fill="none" xmlns="http://www.w3.org/2000/svg">
<g clip-path="url(#clip0_1_77193)">
<path d="M23 46C22.9431 46 22.8863 45.9947 22.8301 45.9839C17.3795 44.9356 12.4307 42.0016 8.89558 37.7221C5.36079 33.4426 3.41406 28.0288 3.41406 22.4781V6.75372C3.41406 6.36101 3.6692 6.01357 4.04402 5.89635L22.7031 0.0505371C22.7975 0.0175476 22.901 0.00210571 23 0H23.0011C23.1028 0 23.2029 0.0175476 23.2973 0.0505371L41.956 5.89635C42.3308 6.01392 42.5859 6.36101 42.5859 6.75372V22.4781C42.5859 28.0288 40.6392 33.4426 37.1041 37.7221C33.5693 42.0016 28.6205 44.9356 23.1699 45.9839C23.1137 45.9947 23.0569 46 23 46ZM5.21094 7.41351V22.4781C5.21094 33.0172 12.6817 42.1188 23 44.1859C33.3183 42.1188 40.7887 33.0172 40.7887 22.4781V7.41351L23 1.84039L5.21094 7.41351Z" fill="#DBCDF0"/>
<path d="M23 40.8497C22.927 40.8497 22.854 40.8409 22.7831 40.8233C18.7268 39.814 15.0667 37.4388 12.4763 34.1353C9.87685 30.8195 8.44531 26.6796 8.44531 22.478V10.4495C8.44531 10.0568 8.70045 9.70969 9.07492 9.59247L22.7312 5.31401C22.9059 5.25926 23.0937 5.25926 23.2685 5.31401L36.9247 9.59247C37.2992 9.70969 37.5543 10.0568 37.5543 10.4495V22.478C37.5543 25.5492 36.7935 28.6064 35.3542 31.3189C35.1215 31.7572 34.5779 31.9236 34.1396 31.6912C33.7012 31.4585 33.5345 30.9149 33.7669 30.4766C35.0692 28.0227 35.7575 25.2569 35.7575 22.478V11.1096L22.9996 7.11264L10.2422 11.1096V22.478C10.2422 30.2772 15.477 37.0492 22.9996 39.024C25.0896 38.4755 27.0314 37.5472 28.7749 36.2631C29.1743 35.969 29.7369 36.0543 30.031 36.4536C30.3254 36.853 30.2401 37.4156 29.8404 37.7097C27.8466 39.1784 25.6181 40.2257 23.2165 40.8233C23.1456 40.8409 23.0726 40.8497 23 40.8497Z" fill="#DBCDF0"/>
<path d="M21.3679 29.7614C21.1377 29.7614 20.9082 29.6737 20.7327 29.4982L14.7163 23.4818C14.3654 23.1312 14.3654 22.5623 14.7163 22.2114L17.7658 19.1619C17.9342 18.9935 18.1627 18.8987 18.401 18.8987C18.6393 18.8987 18.8678 18.9935 19.0362 19.1619L21.3679 21.4937L26.9632 15.8981C27.3141 15.5475 27.883 15.5471 28.234 15.8981L31.2834 18.9475C31.4518 19.116 31.5466 19.3444 31.5466 19.5827C31.5466 19.821 31.4518 20.0495 31.2834 20.218L22.0032 29.4982C21.8277 29.6737 21.5978 29.7614 21.3679 29.7614ZM16.622 22.8466L21.3679 27.5922L29.3774 19.5827L27.5984 17.8041L22.0032 23.3997C21.8347 23.5682 21.6062 23.6626 21.3679 23.6626C21.1296 23.6626 20.9012 23.5682 20.7327 23.3997L18.401 21.068L16.622 22.8466Z" fill="#DBCDF0"/>
<path d="M32.2734 35.1379C32.0372 35.1379 31.8053 35.0425 31.6382 34.8747C31.4712 34.7077 31.375 34.4757 31.375 34.2395C31.375 34.0033 31.4712 33.7713 31.6382 33.6043C31.8053 33.4372 32.0372 33.3411 32.2734 33.3411C32.5096 33.3411 32.7416 33.4372 32.9087 33.6043C33.0757 33.7713 33.1719 34.0033 33.1719 34.2395C33.1719 34.4757 33.0757 34.7077 32.9087 34.8747C32.7416 35.0425 32.5096 35.1379 32.2734 35.1379Z" fill="#DBCDF0"/>
</g>
<defs>
<clipPath id="clip0_1_77193">
<rect width="46" height="46" fill="white"/>
</clipPath>
</defs>
</svg>
