<svg width="28" height="33" viewBox="0 0 28 33" fill="none" xmlns="http://www.w3.org/2000/svg">
<path d="M13.9072 10.1089C10.4754 10.1089 7.68359 12.9007 7.68359 16.3322C7.68359 19.7639 10.4754 22.5558 13.9072 22.5558C17.3387 22.5558 20.1305 19.7639 20.1305 16.3322C20.1305 12.9007 17.3387 10.1089 13.9072 10.1089ZM17.6021 15.1602L13.1436 19.6187C12.9564 19.8058 12.711 19.8995 12.4658 19.8995C12.2206 19.8995 11.9753 19.8061 11.7882 19.6187L10.0844 17.9149C9.7101 17.5408 9.7101 16.934 10.0844 16.5597C10.4585 16.1854 11.0653 16.1854 11.4396 16.5597L12.4658 17.5859L16.2469 13.805C16.621 13.4307 17.2278 13.4307 17.6021 13.805C17.9764 14.1791 17.9764 14.7859 17.6021 15.1602Z" fill="white"/>
<path d="M27.7822 8.86241L27.7812 8.83699C27.767 8.52325 27.7575 8.19131 27.7518 7.822C27.7251 6.02102 26.2935 4.53129 24.4923 4.43061C20.7368 4.22104 17.8316 2.99646 15.3493 0.576964L15.3281 0.556778C14.5185 -0.185593 13.2971 -0.185593 12.4872 0.556778L12.466 0.576964C9.98375 2.99646 7.07856 4.22104 3.32309 4.43086C1.52211 4.53129 0.0901993 6.02102 0.0635348 7.82225C0.0580523 8.18907 0.0483334 8.52101 0.034129 8.83699L0.0326338 8.89606C-0.0403822 12.7255 -0.131092 17.4915 1.4633 21.8174C2.33999 24.1963 3.66774 26.2641 5.4094 27.964C7.39305 29.8997 9.99122 31.4366 13.1317 32.5316C13.2338 32.5672 13.34 32.5961 13.4481 32.6178C13.6007 32.6482 13.7542 32.6634 13.9077 32.6634C14.0612 32.6634 14.2149 32.6482 14.3672 32.6178C14.4754 32.5961 14.5823 32.567 14.6849 32.5311C17.8216 31.4341 20.4171 29.8965 22.399 27.961C24.1399 26.2607 25.4676 24.1923 26.3451 21.8129C27.9454 17.4741 27.855 12.6991 27.7822 8.86241ZM13.9072 24.4724C9.41856 24.4724 5.76701 20.8208 5.76701 16.3322C5.76701 11.8436 9.41856 8.19206 13.9072 8.19206C18.3955 8.19206 22.0473 11.8436 22.0473 16.3322C22.0473 20.8208 18.3955 24.4724 13.9072 24.4724Z" fill="white"/>
</svg>
