<svg width="144" height="120" viewBox="0 0 144 120" fill="none" xmlns="http://www.w3.org/2000/svg">
<path d="M109.081 29.0096C107.009 20.7269 102.229 13.3738 95.5009 8.11799C88.7723 2.86219 80.4807 0.004964 71.9427 6.46218e-06C63.4047 -0.00495108 55.1098 2.84265 48.3751 8.09063C41.6405 13.3386 36.8521 20.6861 34.7704 28.9664C24.9509 29.888 15.8638 34.5568 9.39671 42.0031C2.92957 49.4494 -0.420524 59.1008 0.0422892 68.9525C0.505102 78.8043 4.74525 88.0991 11.882 94.9063C19.0187 101.714 28.5035 105.51 38.3661 105.507H52.7488C54.0204 105.507 55.2398 105.002 56.1389 104.103C57.038 103.204 57.5431 101.984 57.5431 100.713C57.5431 99.441 57.038 98.2216 56.1389 97.3225C55.2398 96.4234 54.0204 95.9183 52.7488 95.9183H38.3661C34.5885 95.9293 30.8458 95.1962 27.3516 93.7607C23.8574 92.3253 20.6801 90.2157 18.0012 87.5524C12.5908 82.1735 9.53886 74.8657 9.5166 67.2366C9.49435 59.6075 12.5037 52.2821 17.8825 46.8717C23.2614 41.4614 30.5692 38.4094 38.1983 38.3872C39.4284 38.4798 40.6491 38.1121 41.6236 37.3556C42.598 36.5991 43.2568 35.5076 43.472 34.2929C44.4482 27.447 47.8615 21.1831 53.085 16.6516C58.3085 12.1201 64.9916 9.62528 71.9067 9.62528C78.8219 9.62528 85.5049 12.1201 90.7284 16.6516C95.9519 21.1831 99.3652 27.447 100.341 34.2929C100.592 35.4654 101.242 36.5146 102.18 37.2613C103.119 38.008 104.287 38.4059 105.486 38.3872C113.115 38.3872 120.431 41.4178 125.826 46.8124C131.221 52.207 134.251 59.5236 134.251 67.1527C134.251 74.7818 131.221 82.0985 125.826 87.493C120.431 92.8876 113.115 95.9183 105.486 95.9183H91.1029C89.8314 95.9183 88.612 96.4234 87.7129 97.3225C86.8138 98.2216 86.3087 99.441 86.3087 100.713C86.3087 101.984 86.8138 103.204 87.7129 104.103C88.612 105.002 89.8314 105.507 91.1029 105.507H105.486C115.276 105.404 124.657 101.561 131.705 94.7657C138.754 87.9699 142.936 78.7358 143.396 68.9556C143.856 59.1754 140.558 49.5897 134.178 42.1628C127.798 34.7358 118.819 30.03 109.081 29.0096Z" fill="#CF9FFF" fill-opacity="0.15"/>
<path d="M92.5076 70.5423C93.4118 71.4156 94.6229 71.8988 95.8799 71.8879C97.137 71.877 98.3394 71.3728 99.2283 70.4839C100.117 69.595 100.621 68.3925 100.632 67.1355C100.643 65.8784 100.16 64.6674 99.2867 63.7632L75.3154 39.7919C74.4164 38.8931 73.1971 38.3882 71.9259 38.3882C70.6546 38.3882 69.4354 38.8931 68.5363 39.7919L44.565 63.7632C43.6917 64.6674 43.2085 65.8784 43.2194 67.1355C43.2303 68.3925 43.7345 69.595 44.6234 70.4839C45.5123 71.3728 46.7148 71.877 47.9718 71.8879C49.2289 71.8988 50.4399 71.4156 51.3441 70.5423L67.1316 54.7548V115.095C67.1316 116.367 67.6367 117.586 68.5358 118.485C69.4349 119.384 70.6544 119.89 71.9259 119.89C73.1974 119.89 74.4168 119.384 75.3159 118.485C76.215 117.586 76.7201 116.367 76.7201 115.095V54.7548L92.5076 70.5423Z" fill="#CF9FFF" fill-opacity="0.15"/>
</svg>
